<svg xmlns="http://www.w3.org/2000/svg" fill="none" preserveAspectRatio="xMinYMin slice" viewBox="0 0 182 166">
	<g clip-path="url(#clip0_405_1445)">
		<g fill-rule="evenodd" clip-path="url(#clip1_405_1445)" clip-rule="evenodd">
			<path fill="#fff"
				d="M123.03 182.94 74.63-116.6l3.47-.55 48.4 299.54-3.47.55Zm9.6-1.54-48.4-299.53 3.46-.55 48.41 299.52-3.47.55Z" />
			<path fill="#FF1301"
				d="M123.73 182.83 75.32-116.7l2.08-.33 48.4 299.54-2.07.33Zm9.6-1.55L84.92-118.24l2.08-.33 48.4 299.52-2.07.33Z" />
			<path fill="#fff"
				d="M36.11 180.62 87.32-118.9l3.98.67L40.1 181.3l-3.99-.67Zm11.02 1.88 51.24-299.55 3.98.67-51.23 299.54-3.99-.67Z" />
			<path fill="#394556"
				d="m36.9 180.75 51.22-299.51 2.39.4L39.3 181.16l-2.4-.4Zm11.03 1.87 51.23-299.54 2.4.4-51.24 299.55-2.39-.4Z" />
			<path fill="#fff" d="m176.84-126.65 90.1 315.3-3.37.94-90.11-315.3 3.38-.94Z" />
			<path fill="#FF1301" d="m176.16-126.46 90.11 315.3-2.03.56-90.1-315.3 2.02-.56Z" />
			<path fill="#fff"
				d="m-5.52 179.6 112.48-299.52 3.29 1.22L-2.23 180.8l-3.29-1.22Zm9.12 3.37 112.47-299.52 3.3 1.22L6.88 184.19l-3.3-1.22Z" />
			<path fill="#FF1301"
				d="M-4.86 179.84 107.6-119.68l1.98.73L-2.9 180.57l-1.97-.73Zm9.12 3.37L116.73-116.3l1.98.74L6.23 183.94l-1.97-.73Z" />
			<path fill="#fff"
				d="m169.32 179.66 96.47-309.4 3.85 1.2-96.46 309.38-3.86-1.18Zm10.7 3.28 96.44-309.4 3.86 1.2-96.44 309.39-3.86-1.19Z" />
			<path fill="#394556"
				d="m170.09 179.9 96.47-309.4 2.31.72L172.4 180.6l-2.31-.7Zm10.7 3.28 96.45-309.4 2.31.72-96.45 309.39-2.31-.71Z" />
			<path fill="#fff"
				d="m61.39 180.37 63.56-304.95 3.95.82-63.56 304.94-3.95-.81Zm10.95 2.23 63.56-304.94 3.96.81L76.3 183.41l-3.96-.8Z" />
			<path fill="#394556"
				d="m62.18 180.53 63.56-304.94 2.37.48-63.56 304.95-2.37-.49Zm10.95 2.23 63.56-304.94 2.38.49L75.5 183.25l-2.37-.49Z" />
			<path fill="#fff"
				d="M187.4-126.97 165.99 178.4l-4.03-.28 21.43-305.38 4.03.28Zm-11.13-.78-21.45 305.38-4.03-.28 21.45-305.38 4.03.28Z" />
			<path fill="#394556"
				d="m186.6-127.03-21.42 305.38-2.42-.17 21.42-305.38 2.42.17Zm-11.14-.77-21.45 305.38-2.41-.17 21.44-305.38 2.42.17Z" />
			<path fill="#fff"
				d="M133.8 166.9 124-120.5l3.51-.12 9.8 287.41-3.5.12Zm9.72-.34-9.8-287.39 3.5-.12 9.81 287.4-3.51.11Z" />
			<path fill="#394556"
				d="m134.5 166.88-9.8-287.41 2.1-.07 9.81 287.4-2.1.08Zm9.72-.34-9.8-287.4 2.1-.06 9.8 287.39-2.1.07Z" />
			<path fill="#fff"
				d="m195.43 174.84-42.78-301.41 3.48-.49 42.78 301.41-3.48.49Zm9.62-1.34-42.78-301.42 3.48-.48L208.53 173l-3.48.5Z" />
			<path fill="#FF1301"
				d="m196.13 174.74-42.78-301.41 2.08-.3 42.78 301.42-2.08.3Zm9.62-1.34-42.78-301.41 2.09-.3 42.78 301.41-2.09.3Z" />
		</g>
	</g>
	<defs>
		<clipPath id="clip0_405_1445">
			<path fill="#fff" d="M0 0h182v166H0z" />
		</clipPath>
		<clipPath id="clip1_405_1445">
			<path fill="#fff" d="M302 166H-25V-99h327z" />
		</clipPath>
	</defs>
</svg>
