<svg xmlns="http://www.w3.org/2000/svg" fill="none" preserveAspectRatio="xMinYMin slice" viewBox="0 0 744 496">
	<g clip-path="url(#clip0_405_1444)">
		<g fill-rule="evenodd" clip-path="url(#clip1_405_1444)" clip-rule="evenodd">
			<path fill="#fff"
				d="M471.14 561.47 285.36-596l13.31-2.14L484.45 559.33l-13.31 2.14Zm36.84-5.99L322.2-601.91l13.31-2.13L521.3 553.34l-13.31 2.14Z" />
			<path fill="#FF1301"
				d="M473.8 561.04 288.02-596.43l7.99-1.28L481.79 559.76l-7.99 1.28Zm36.84-5.99L324.86-602.33l7.99-1.28L518.63 553.77l-7.99 1.28Z" />
			<path fill="#fff"
				d="M137.54 552.5 334.08-604.9l15.29 2.6L152.83 555.09l-15.29-2.6Zm42.31 7.22L376.47-597.75l15.29 2.6L195.13 562.31l-15.28-2.6Z" />
			<path fill="#394556"
				d="M140.6 553.02 337.13-604.37l9.18 1.56L149.77 554.57l-9.17-1.55Zm42.3 7.22L379.53-597.23l9.17 1.55L192.08 561.8l-9.18-1.56Z" />
			<path fill="#fff"
				d="m713.51-645.08 345.83 1218.36-12.97 3.68L700.54-641.4l12.98-3.68Zm-35.87 10.22L1023.47 583.5l-12.97 3.67L664.67-631.18l12.98-3.68Z" />
			<path fill="#FF1301"
				d="m710.92-644.34 345.83 1218.35-7.78 2.2L703.14-642.12l7.78-2.21Zm-35.87 10.22 345.83 1218.35-7.78 2.2L667.27-631.9l7.78-2.21Z" />
			<path fill="#fff"
				d="M-22.24 548.53 409.44-608.85l12.63 4.7L-9.6 553.26l-12.64-4.72Zm34.99 13.04L444.42-595.8l12.64 4.7L25.39 566.3l-12.64-4.72Z" />
			<path fill="#FF1301"
				d="M-19.7 549.47 411.95-607.9l7.58 2.82L-12.13 552.3l-7.58-2.83Zm34.98 13.04L446.95-594.87l7.58 2.82L22.86 565.34l-7.58-2.83Z" />
			<path fill="#fff"
				d="m648.77 548.77 370.24-1195.53 14.82 4.58L663.58 553.35l-14.81-4.58Zm41.07 12.69 370.15-1195.53 14.82 4.58L704.65 566.04l-14.81-4.58Z" />
			<path fill="#394556"
				d="m651.73 549.69 370.24-1195.54 8.89 2.75L660.62 552.44l-8.89-2.75Zm41.07 12.69 370.16-1195.54 8.88 2.75L701.69 565.12l-8.89-2.75Z" />
			<path fill="#fff"
				d="M234.54 551.52 478.49-626.84l15.18 3.15L249.72 554.66l-15.18-3.14Zm42.04 8.63L520.53-618.2l15.18 3.14L291.76 563.3l-15.18-3.14Z" />
			<path fill="#394556"
				d="M237.58 552.15 481.53-626.21l9.1 1.89L246.7 554.03l-9.11-1.88Zm42.04 8.63L523.57-617.57l9.1 1.88L288.74 562.67l-9.12-1.89Z" />
			<path fill="#fff"
				d="M718.2-636.09 635.97 543.94l-15.47-1.08 82.23-1180.03 15.47 1.08Zm-42.74-3L593.14 540.94l-15.47-1.08L660-640.16l15.47 1.07Z" />
			<path fill="#394556"
				d="M715.1-636.3 632.89 543.72l-9.28-.64 82.23-1180.03 9.28.65Zm-42.74-3L590.05 540.73l-9.28-.65 82.31-1180.03 9.28.65Z" />
			<path fill="#fff"
				d="m512.48 499.49-37.63-1110.6 13.47-.46 37.64 1110.6-13.48.46Zm37.28-1.32L512.13-612.35l13.48-.45 37.63 1110.5-13.48.46Z" />
			<path fill="#394556"
				d="M515.18 499.4 477.54-611.2l8.09-.28 37.63 1110.6-8.08.28Zm37.28-1.33-37.64-1110.5 8.09-.27 37.63 1110.5-8.08.27Z" />
			<path fill="#fff"
				d="M749 530.15 584.81-634.55l13.35-1.87 164.2 1164.7-13.36 1.88Zm36.93-5.19-164.2-1164.7 13.36-1.88 164.2 1164.7-13.36 1.88Z" />
			<path fill="#FF1301"
				d="M751.67 529.78 587.48-634.92l8.01-1.13 164.2 1164.7-8.02 1.13Zm36.93-5.2L624.4-640.12l8.02-1.13 164.19 1164.7-8.01 1.13Z" />
		</g>
	</g>
	<defs>
		<clipPath id="clip0_405_1444">
			<path fill="#fff" d="M0 0h744v496H0z" />
		</clipPath>
		<clipPath id="clip1_405_1444">
			<path fill="#fff" d="M1158 496H-97V-528h1255z" />
		</clipPath>
	</defs>
</svg>
