<svg width="1200" height="718" viewBox="0 0 1200 718" fill="none" xmlns="http://www.w3.org/2000/svg">
<mask id="mask0_161_48964" style="mask-type:luminance" maskUnits="userSpaceOnUse" x="0" y="0" width="1200" height="718">
<rect width="1200" height="718" fill="white"/>
</mask>
<g mask="url(#mask0_161_48964)">
<rect y="490" width="1200" height="228" fill="#5F6E79"/>
<path d="M1114 298L1093 344V397L1034 402L698 460H112V267L193 298L413 330L565 260L825 200L1131 277L1114 298Z" fill="#87929B"/>
<line x1="131" y1="271" x2="131" y2="456" stroke="#9BA4AB" stroke-width="2"/>
<line x1="157" y1="283" x2="157" y2="456" stroke="#9BA4AB" stroke-width="2"/>
<line x1="183" y1="289" x2="183" y2="456" stroke="#9BA4AB" stroke-width="2"/>
<line x1="209" y1="315" x2="209" y2="456" stroke="#9BA4AB" stroke-width="2"/>
<line x1="235" y1="315" x2="235" y2="456" stroke="#9BA4AB" stroke-width="2"/>
<line x1="261" y1="315" x2="261" y2="456" stroke="#9BA4AB" stroke-width="2"/>
<line x1="287" y1="315" x2="287" y2="456" stroke="#9BA4AB" stroke-width="2"/>
<line x1="313" y1="315" x2="313" y2="456" stroke="#9BA4AB" stroke-width="2"/>
<line x1="339" y1="326" x2="339" y2="456" stroke="#9BA4AB" stroke-width="2"/>
<line x1="365" y1="326" x2="365" y2="456" stroke="#9BA4AB" stroke-width="2"/>
<line x1="391" y1="326" x2="391" y2="456" stroke="#9BA4AB" stroke-width="2"/>
<line x1="417" y1="326" x2="417" y2="456" stroke="#9BA4AB" stroke-width="2"/>
<line x1="443" y1="326" x2="443" y2="456" stroke="#9BA4AB" stroke-width="2"/>
<line x1="469" y1="289" x2="469" y2="456" stroke="#9BA4AB" stroke-width="2"/>
<line x1="495" y1="289" x2="495" y2="456" stroke="#9BA4AB" stroke-width="2"/>
<line x1="521" y1="289" x2="521" y2="456" stroke="#9BA4AB" stroke-width="2"/>
<line x1="547" y1="289" x2="547" y2="456" stroke="#9BA4AB" stroke-width="2"/>
<line x1="573" y1="219" x2="573" y2="456" stroke="#9BA4AB" stroke-width="2"/>
<line x1="599" y1="219" x2="599" y2="456" stroke="#9BA4AB" stroke-width="2"/>
<line x1="625" y1="219" x2="625" y2="456" stroke="#9BA4AB" stroke-width="2"/>
<line x1="651" y1="219" x2="651" y2="456" stroke="#9BA4AB" stroke-width="2"/>
<line x1="677" y1="219" x2="677" y2="456" stroke="#9BA4AB" stroke-width="2"/>
<line x1="703" y1="219" x2="703" y2="456" stroke="#9BA4AB" stroke-width="2"/>
<line x1="729" y1="219" x2="729" y2="456" stroke="#9BA4AB" stroke-width="2"/>
<line x1="755" y1="219" x2="755" y2="433" stroke="#9BA4AB" stroke-width="2"/>
<line x1="781" y1="219" x2="781" y2="433" stroke="#9BA4AB" stroke-width="2"/>
<line x1="807" y1="219" x2="807" y2="433" stroke="#9BA4AB" stroke-width="2"/>
<line x1="833" y1="219" x2="833" y2="433" stroke="#9BA4AB" stroke-width="2"/>
<line x1="859" y1="219" x2="859" y2="433" stroke="#9BA4AB" stroke-width="2"/>
<line x1="885" y1="219" x2="885" y2="402" stroke="#9BA4AB" stroke-width="2"/>
<line x1="911" y1="219" x2="911" y2="402" stroke="#9BA4AB" stroke-width="2"/>
<line x1="937" y1="219" x2="937" y2="402" stroke="#9BA4AB" stroke-width="2"/>
<line x1="963" y1="219" x2="963" y2="402" stroke="#9BA4AB" stroke-width="2"/>
<line x1="989" y1="233" x2="989" y2="395" stroke="#9BA4AB" stroke-width="2"/>
<line x1="1015" y1="233" x2="1015" y2="395" stroke="#9BA4AB" stroke-width="2"/>
<line x1="1041" y1="256" x2="1041" y2="395" stroke="#9BA4AB" stroke-width="2"/>
<line x1="1067" y1="258" x2="1067" y2="395" stroke="#9BA4AB" stroke-width="2"/>
<line x1="1093" y1="273" x2="1093" y2="338" stroke="#9BA4AB" stroke-width="2"/>
<line x1="114" y1="343" x2="557" y2="343" stroke="#AFB7BC" stroke-width="2"/>
<line x1="114" y1="402" x2="338" y2="402" stroke="#AFB7BC" stroke-width="2"/>
<line x1="114" y1="314" x2="338" y2="314" stroke="#AFB7BC" stroke-width="2"/>
<line x1="114" y1="373" x2="557" y2="373" stroke="#AFB7BC" stroke-width="2"/>
<line x1="114" y1="432" x2="338" y2="432" stroke="#AFB7BC" stroke-width="2"/>
<path d="M311 427.999L281 390C556 390 559 309.999 691 261.998C796.6 223.598 1019 269.999 1117 297.999C1101.67 295.999 1042.6 295.599 929 309.999C787 327.999 681 393.999 617 411.999C565.8 426.399 391.667 428.666 311 427.999Z" fill="#EBEDEE"/>
<path d="M841 364C945 346 1093 342 1093 342L1117 297.999C1101.67 295.999 1042.6 295.599 929 309.999C787 327.999 617 411.999 617 411.999C617 411.999 737 382 841 364Z" fill="#C3C9CD"/>
<path d="M750 229.949C914.8 213.949 1076 259.948 1157 287.948V281.949C1057 236.948 851 131.947 638 143.949C473.261 153.231 443 273.948 349 287.948C273.8 299.148 132 265.948 53 229.949V241.95C111 273.948 262.8 348.748 394 343.948C558 337.948 544 249.949 750 229.949Z" fill="white"/>
<path d="M750 229.949C914.8 213.949 1076 259.948 1157 287.948V286.949C1057 241.948 927 170.999 714 183.001C549.261 192.283 501 295.277 382 313.001C306.8 324.201 133 274.948 54 238.949L53 241.95C111 273.948 262.8 348.748 394 343.948C558 337.948 544 249.949 750 229.949Z" fill="#D7DBDE"/>
<path d="M692 163C856.8 147 1080.5 247.5 1157 284.949V286.949C1057 241.948 927 171 714 183.001C549.261 192.283 501 295.278 382 313.001C306.8 324.201 133 274.949 54 238.949V230.001C141.5 276.501 254.5 311.053 389 292.501C470.843 281.212 486 183 692 163Z" fill="#EBEDEE"/>
<path d="M638 378.999C542 412.599 385.333 417.999 356 415.999C617 378.999 648 291.001 723 274C832.106 249.269 914.667 274.332 942 290.999C826.764 290.999 745.235 341.467 638 378.999Z" fill="#D7DBDE"/>
<path d="M1117.14 361.141V401.697H861.304C861.42 401.234 862.318 396.083 863.723 395.029C889.243 355 955.722 359.171 955.722 359.171H1115.17C1116.21 359.171 1117.14 359.982 1117.14 361.141Z" fill="#EBEDEE"/>
<path d="M884.227 404.015C884.227 404.015 913.428 378.522 961.632 369.368C983.069 365.544 1000.68 366.587 1006.82 366.587C1012.96 366.587 1117.02 366.587 1117.02 366.587V402.277L884.227 404.015Z" fill="#D7DBDE"/>
<path d="M1002.42 383.09V382.978H953.965C942.729 382.978 933.95 383.793 933.95 383.793L955.37 376.068C962.041 374.312 981.354 371.152 995.004 371.854L1054.39 371.854V383.09H1002.42Z" fill="#73808A"/>
<path d="M1054.39 371.854H1104.95V383.09H1054.39V371.854Z" fill="#73808A"/>
<path opacity="0.7" d="M959.935 359.563C959.935 359.563 937.23 362.446 925.874 369.746C887.951 379.578 886.898 375.716 886.898 375.716C904.163 361.347 942.027 358.861 959.935 359.563Z" fill="#73808A"/>
<path d="M1094.89 355H1021.08C1012.15 355 1010.76 359.172 1010.76 359.172H1105.2C1105.2 359.172 1103.81 355 1094.89 355Z" fill="#EBEDEE"/>
<path d="M1117.08 401.682V403.955C1117.08 405.205 1115.95 406.114 1114.68 406.114H865.585C861.669 405.546 860.532 403.273 861.164 401.568H1117.08V401.682Z" fill="#5F6E79"/>
<path d="M922.714 371.152C922.714 371.152 875.662 385.549 867.235 401.701C864.906 401.701 861.616 401.701 861.616 401.701C861.616 399.595 861.568 395.036 863.123 393.122C870.578 383.945 884.302 375.473 884.302 375.473C884.302 375.473 888.303 381.335 922.714 371.152Z" fill="#E21A1A"/>
<path d="M1105.66 406.266L1104.33 409.075C1104.33 409.075 873.424 409.075 870.044 409.075L866.802 406.266H1105.66Z" fill="#9BA4AB"/>
<path d="M900.944 393.977C900.944 393.977 918.438 385.918 944.858 385.223C971.278 384.528 1117.12 385.223 1117.12 385.223V388.699H944.858C944.858 388.699 917.862 389.69 900.944 393.977Z" fill="#358EBF"/>
<path d="M899.638 394.513C899.638 394.513 915.629 388.024 942.049 387.329C968.468 386.633 1117.14 387.329 1117.14 387.329V390.805H942.049C942.049 390.805 916.556 390.225 899.638 394.513Z" fill="#E21A1A"/>
<path d="M1395.94 359.172V401.698H1122.7V360.678C1122.7 359.867 1123.4 359.172 1124.21 359.172H1395.94Z" fill="#EBEDEE"/>
<path d="M1395.94 366.588V402.278L1122.7 403.089V366.588C1133.36 366.588 1395.94 366.588 1395.94 366.588Z" fill="#D7DBDE"/>
<path d="M1323.16 355H1290.14H1228.61H1195.59C1186.66 355 1185.27 359.172 1185.27 359.172H1227.1H1291.53H1333.36C1333.48 359.172 1332.09 355 1323.16 355Z" fill="#EBEDEE"/>
<path d="M1395.94 401.697V404.015C1395.94 405.289 1394.89 406.216 1393.73 406.216H1124.9C1123.74 406.216 1122.82 405.289 1122.82 404.131V401.697H1395.94Z" fill="#5F6E79"/>
<path d="M1395.94 385.404V389.136H1122.7V385.428C1172.99 385.312 1395.94 385.404 1395.94 385.404Z" fill="#358EBF"/>
<path d="M1395.94 387.328V390.804H1122.7V387.096C1172.99 386.98 1395.94 387.328 1395.94 387.328Z" fill="#E21A1A"/>
<path d="M1384.81 406.332L1383.77 408.997C1383.77 408.997 1165.11 408.997 1134.06 408.997L1135.1 406.332H1384.81Z" fill="#9BA4AB"/>
<path d="M1160.01 371.686H1181.8V382.81H1160.01V371.686Z" fill="#73808A"/>
<path d="M1134.75 371.686H1156.54V382.81H1134.75V371.686Z" fill="#73808A"/>
<path d="M1185.27 371.686H1207.06V382.81H1185.27V371.686Z" fill="#73808A"/>
<path d="M1360 490H649L697 454H1360V490Z" fill="#9BA4AB"/>
<path d="M1360 448H803L851 401H1360V448Z" fill="#9BA4AB"/>
<path d="M591 458C635.8 458 680.333 447.333 697 442L645 490H39L111 458H591Z" fill="#EBEDEE"/>
<path d="M818 401.999C704.4 414.799 652 465.999 640 489.999C786 489.999 843.578 462.969 906 438C971 412 1116 402.666 1192 401.999C1114.67 396.666 931.6 389.199 818 401.999Z" fill="#EBEDEE"/>
<g clip-path="url(#clip0_161_48964)" filter="url(#filter0_i_161_48964)">
<path d="M-61.68 475.41C-58.1654 475.416 -54.6858 474.712 -51.45 473.34C-51.97 473.82 -52.45 474.34 -53.01 474.78C-55.0441 476.489 -57.1707 478.085 -59.38 479.56C-60.28 480.19 -60.6 480.05 -61.21 480.85C-61.4 481.1 -61.37 481.58 -60.99 481.61C-56.3425 482.104 -51.6431 481.61 -47.2 480.16C-48.27 480.96 -49.63 481.25 -50.53 482.25C-50.79 482.54 -50.95 483.16 -50.41 483.25C-49.19 483.411 -47.9514 483.356 -46.75 483.09C-45.0298 482.975 -43.3595 482.463 -41.8694 481.596C-40.3794 480.729 -39.1099 479.529 -38.16 478.09C-37.5228 479.056 -36.7999 479.963 -36 480.8L-35.55 481.27C-35.88 484.56 -36 487.89 -35.07 490.7C-34.74 491.7 -32.82 492.7 -32.28 491.36C-31.28 488.9 -31.81 485.92 -32.01 483.36C-32.07 482.49 -32.12 481.63 -32.18 480.76C-30.9885 481.576 -29.6803 482.206 -28.3 482.63C-26.16 483.25 -23.36 484.22 -21.19 483.54C-21.1109 483.512 -21.0411 483.463 -20.9884 483.398C-20.9358 483.333 -20.9023 483.254 -20.8919 483.171C-20.8816 483.088 -20.8946 483.003 -20.9296 482.927C-20.9646 482.851 -21.0201 482.786 -21.09 482.74C-21.76 482.14 -22.41 481.51 -23.09 480.86C-22.57 481.07 -22.04 481.28 -21.5 481.47C-18.7 482.47 -15.37 483.77 -12.36 483.3C-11.82 483.22 -11.97 482.6 -12.23 482.3C-13.14 481.3 -14.49 481.01 -15.56 480.21C-11.5843 481.5 -7.40203 482.032 -3.23002 481.78C-3.39128 484.633 -3.05286 487.493 -2.23002 490.23C-1.79002 491.57 0.909981 493.04 1.66998 491.16C3.05998 487.7 2.31998 483.53 2.04998 479.88C1.95998 478.67 1.88998 477.46 1.79998 476.24C3.46957 477.385 5.30399 478.268 7.23997 478.86C10.24 479.72 14.17 481.08 17.24 480.14C17.3529 480.101 17.4525 480.031 17.5276 479.938C17.6027 479.844 17.6503 479.732 17.6648 479.614C17.6794 479.495 17.6604 479.375 17.6101 479.266C17.5597 479.158 17.48 479.065 17.38 479C16.38 478.17 15.52 477.28 14.62 476.37C15.36 476.66 16.1 476.97 16.85 477.23C20.78 478.6 25.44 480.45 29.67 479.79C30.43 479.67 30.21 478.79 29.85 478.4C28.58 477.01 26.68 476.59 25.18 475.47C31.416 477.481 38.0044 478.162 44.52 477.47C45.05 477.41 45.1 476.73 44.83 476.39C43.97 475.28 43.53 475.47 42.26 474.58C39.1631 472.512 36.182 470.275 33.33 467.88C32.59 467.22 31.87 466.54 31.15 465.88C35.6893 467.803 40.5702 468.789 45.5 468.78C46.32 468.78 45.8 467.7 45.5 467.45C45.2 467.2 45.09 467.15 44.88 467C42.45 465.29 39.66 464.1 37.24 462.3C33.6367 459.628 30.2158 456.718 27 453.59C26.28 452.91 25.58 452.22 24.92 451.5C25.7019 452.336 26.6672 452.98 27.74 453.38C28.6439 453.812 29.58 454.173 30.54 454.46C32.9201 455.367 35.5141 455.555 38 455C38.0791 454.984 38.152 454.946 38.21 454.89C38.2559 454.846 38.2902 454.791 38.31 454.73C38.3383 454.636 38.3458 454.538 38.332 454.441C38.3182 454.344 38.2833 454.252 38.23 454.17C36.72 451.69 33.35 450.03 31.3 448.08C27.732 444.875 24.4681 441.346 21.55 437.54C20.21 435.68 18.87 433.83 17.55 431.95C17.55 431.88 17.62 431.95 17.82 431.95C18.15 432.05 18.71 432.29 19.18 432.49L19.93 432.83C22.37 433.94 24.7 435.05 27.41 435.05C27.4921 435.051 27.5726 435.027 27.64 434.98C27.6707 434.945 27.6944 434.904 27.71 434.86V434.78C27.71 434.78 27.71 434.78 27.71 434.71C27.7124 434.64 27.6993 434.571 27.6717 434.507C27.644 434.443 27.6024 434.386 27.55 434.34C22.074 429.37 17.0231 423.951 12.45 418.14C11.1881 416.645 10.0604 415.043 9.07998 413.35C8.16998 411.7 9.32998 412.93 10.08 413.54L10.29 413.68C11.8328 414.869 13.6023 415.73 15.49 416.21C15.5573 416.237 15.6326 416.237 15.7 416.21H15.75C15.8142 416.121 15.8488 416.015 15.8488 415.905C15.8488 415.795 15.8142 415.689 15.75 415.6C11.28 408 6.62997 400.79 3.58997 392.42C3.56155 392.341 3.51649 392.269 3.45786 392.208C3.39922 392.148 3.32833 392.101 3.24998 392.07C3.20919 392.036 3.16133 392.012 3.10998 392H2.83997C2.78588 392.008 2.73444 392.028 2.68998 392.06C2.61163 392.091 2.54074 392.138 2.4821 392.198C2.42346 392.259 2.3784 392.331 2.34998 392.41C0.72118 396.764 -1.26561 400.975 -3.59002 405C-5.07002 407.61 -6.59002 410.19 -8.20002 412.78C-8.76002 413.72 -9.33002 414.65 -9.90002 415.59C-10.05 415.85 -10.01 416.34 -9.59002 416.25C-7.69935 415.77 -5.92653 414.909 -4.38002 413.72C-3.67002 413.26 -2.13002 411.52 -3.13002 413.36C-4.11391 415.05 -5.2414 416.653 -6.50002 418.15C-11.1035 423.945 -16.181 429.347 -21.68 434.3C-21.98 434.57 -21.92 435.05 -21.47 435.05C-18.76 435.05 -16.47 433.94 -14 432.83C-14.42 433.02 -11.41 431.63 -11.62 431.93C-12.92 433.81 -14.27 435.66 -15.62 437.52C-17.229 439.701 -18.9936 441.763 -20.9 443.69C-22.17 442.27 -23.41 440.83 -24.62 439.32C-25.5058 438.244 -26.3018 437.096 -27 435.89C-27.44 435.07 -27.18 435.25 -26.8 435.57L-26.39 435.92C-26.3028 436.001 -26.2091 436.074 -26.11 436.14C-25.013 437 -23.755 437.633 -22.41 438C-22.3613 438.016 -22.3087 438.016 -22.26 438C-22.2138 437.938 -22.1888 437.862 -22.1888 437.785C-22.1888 437.708 -22.2138 437.632 -22.26 437.57C-25.51 432.17 -28.84 427.01 -31 421.05C-31.0198 420.992 -31.0514 420.94 -31.0927 420.895C-31.134 420.85 -31.1842 420.814 -31.24 420.79H-31.34C-31.3698 420.785 -31.4002 420.785 -31.43 420.79C-31.4598 420.785 -31.4902 420.785 -31.52 420.79H-31.62C-31.7334 420.842 -31.8228 420.935 -31.87 421.05C-33.0501 424.195 -34.4918 427.236 -36.18 430.14C-37.54 432.55 -39 435 -40.55 437.49C-40.66 437.67 -40.62 438.02 -40.34 437.96C-38.9904 437.614 -37.7248 436.999 -36.62 436.15C-36.11 435.82 -35.01 434.58 -35.72 435.89C-36.4278 437.098 -37.2339 438.245 -38.13 439.32C-41.4271 443.455 -45.063 447.309 -49 450.84C-49.21 451.03 -49.17 451.37 -48.85 451.37C-46.9788 451.241 -45.159 450.702 -43.52 449.79C-43.82 449.93 -41.67 448.94 -41.82 449.15C-42.76 450.49 -43.71 451.81 -44.66 453.15C-46.7539 455.869 -49.0974 458.387 -51.66 460.67C-53 462 -55.45 463.23 -56.52 465C-56.66 465.23 -56.65 465.53 -56.35 465.6C-54.5872 465.99 -52.749 465.858 -51.06 465.22C-50.3758 465.011 -49.7075 464.754 -49.06 464.45C-48.2969 464.163 -47.6119 463.7 -47.06 463.1C-47.54 463.62 -48.06 464.1 -48.55 464.6C-50.8226 466.819 -53.2414 468.884 -55.79 470.78C-57.66 472.18 -59.86 473.05 -61.69 474.45C-61.9 474.64 -62.27 475.39 -61.68 475.41ZM-3.37002 479.56C-5.27002 478.22 -7.18002 476.91 -8.96002 475.42C-8.63161 475.104 -8.32112 474.77 -8.03002 474.42C-6.86723 474.745 -5.68482 474.996 -4.49002 475.17C-4.17002 475.54 -3.87002 475.92 -3.49002 476.27C-3.11002 476.62 -3.08002 476.7 -2.85002 476.92C-2.95002 477.84 -3.03002 478.77 -3.09002 479.69L-3.37002 479.56Z" fill="#73808A"/>
</g>
<path d="M376.346 460.693C375.836 464.993 375.836 468.213 372.016 470.903C371.806 471.053 371.216 471.193 371.216 471.343V460.453C371.216 456.213 365.926 456.203 365.926 460.453V476.943C363.816 473.733 360.746 471.403 360.756 467.133C360.756 463.793 355.706 463.783 355.696 467.133C355.696 475.063 362.936 479.383 365.256 486.533C365.426 487.083 365.906 487.483 365.906 487.773V512.593H371.206V479.823C371.206 479.533 371.876 479.173 371.996 478.703C372.786 475.523 376.876 474.443 378.746 471.913C381.196 468.583 381.036 464.653 381.496 460.723C381.876 457.383 376.696 457.413 376.346 460.693Z" fill="#AFB7BC"/>
<path d="M410.306 434.233L409.916 433.853C408.751 432.697 407.186 432.035 405.546 432.003C406.476 428.833 405.176 424.943 401.636 423.883C404.226 420.243 402.836 413.263 397.446 413.263C396.169 413.239 394.908 413.545 393.786 414.153C393.644 413.061 393.101 412.061 392.261 411.349C391.421 410.637 390.346 410.264 389.246 410.303C388.768 410.307 388.294 410.378 387.836 410.513C387.868 409.895 387.771 409.277 387.553 408.698C387.335 408.119 386.999 407.591 386.567 407.148C386.135 406.705 385.616 406.355 385.043 406.122C384.47 405.889 383.854 405.777 383.236 405.793C382.11 405.755 381.013 406.148 380.168 406.891C379.322 407.634 378.792 408.672 378.686 409.793C378.574 409.394 378.413 409.011 378.206 408.653C377.555 407.577 376.508 406.801 375.289 406.492C374.071 406.183 372.78 406.367 371.696 407.003L371.606 407.053C371.335 405.893 370.678 404.86 369.742 404.124C368.805 403.388 367.646 402.992 366.456 403.003C365.155 402.962 363.876 403.333 362.798 404.062C361.721 404.791 360.901 405.841 360.456 407.063C359.922 406.624 359.299 406.305 358.631 406.13C357.962 405.954 357.263 405.926 356.583 406.047C355.902 406.168 355.256 406.434 354.688 406.829C354.121 407.224 353.646 407.737 353.296 408.333L353.116 408.763C352.454 408.446 351.729 408.286 350.996 408.293C350.33 408.287 349.67 408.416 349.056 408.673C348.008 407.97 346.777 407.591 345.516 407.583C343.867 407.596 342.283 408.228 341.079 409.355C339.875 410.481 339.139 412.019 339.016 413.663C337.838 413.7 336.717 414.179 335.876 415.003C335.19 415.703 334.736 416.596 334.576 417.563C334.266 417.563 333.966 417.493 333.636 417.493C327.796 417.493 326.636 425.653 330.176 428.903C326.246 429.773 325.666 435.143 328.436 437.353C327.262 437.952 326.305 438.905 325.701 440.076C325.097 441.247 324.875 442.579 325.067 443.882C325.259 445.186 325.856 446.397 326.772 447.345C327.688 448.292 328.879 448.928 330.176 449.163C330.019 450.165 330.186 451.191 330.654 452.09C331.122 452.99 331.865 453.716 332.776 454.163C332.669 454.615 332.619 455.079 332.626 455.543C332.637 456.217 332.721 456.887 332.876 457.543C333.249 458.888 334.052 460.073 335.163 460.918C336.273 461.763 337.63 462.222 339.026 462.223C339.752 462.225 340.473 462.1 341.156 461.853C341.427 462.651 341.918 463.356 342.573 463.887C343.227 464.418 344.019 464.753 344.856 464.853C345.014 466.416 345.758 467.86 346.938 468.897C348.117 469.934 349.646 470.486 351.216 470.443H351.596C352.837 470.491 354.064 470.163 355.116 469.503C356.169 468.843 356.998 467.881 357.496 466.743C358.053 466.949 358.634 467.08 359.226 467.133C360.381 467.174 361.524 466.89 362.526 466.313C363.165 467.238 364.029 467.985 365.037 468.484C366.044 468.983 367.162 469.216 368.286 469.163C369.4 469.064 370.47 468.68 371.393 468.048C372.316 467.415 373.061 466.556 373.556 465.553C373.989 466.215 374.583 466.755 375.283 467.125C375.983 467.494 376.765 467.679 377.556 467.663C381.206 467.663 382.776 465.853 383.556 463.593C384.098 464.523 384.884 465.287 385.828 465.803C386.773 466.319 387.84 466.568 388.916 466.523C390.351 466.572 391.757 466.112 392.886 465.224C394.015 464.337 394.794 463.079 395.086 461.673C395.834 462.143 396.702 462.386 397.586 462.373C401.386 462.373 402.836 458.733 401.936 455.953H402.136C402.964 455.707 403.714 455.251 404.313 454.629C404.913 454.007 405.341 453.24 405.556 452.403C409.556 451.963 410.556 447.173 408.556 444.573C409.231 444.271 409.844 443.848 410.366 443.323C411.56 442.108 412.224 440.469 412.213 438.766C412.202 437.062 411.516 435.432 410.306 434.233Z" fill="#D7DBDE"/>
<path d="M807 590C1123.8 630 1232.33 697.333 1247 726H1359V645.999C1311 631.999 1196.6 601.199 1123 590C1011 572.957 531 530.137 251 506C135 496 -9 488 -87 490V500L163 516C245.667 524 490.2 550 807 590Z" fill="#73808A"/>
<path d="M807 590C1123.8 630 1232.33 697.333 1247 726H1109C993 658 880.6 631.199 807 620C695 602.957 515 559.93 191 532C75 522 -3 516 -87 511V500L163 516C245.667 524 490.2 550 807 590Z" fill="#87929B"/>
<path d="M123.11 487.15C123.31 486.81 122.96 486.37 122.67 486.57C122.158 486.896 121.611 487.164 121.04 487.37C121.045 487.234 121.001 487.101 120.917 486.995C120.833 486.889 120.713 486.816 120.58 486.79C120.264 486.73 119.953 486.646 119.65 486.54L119.45 486.47C119.143 486.364 118.843 486.24 118.55 486.1C117.232 485.419 116.011 484.565 114.92 483.56C114.54 483.23 114.17 482.88 113.81 482.56L113.71 482.47C113.02 481.78 112.36 481.06 111.71 480.35L111.49 480.11L110.7 479.19L110.42 478.85L109.7 477.99C108.76 476.84 107.89 475.67 107.05 474.47C109.05 475.55 111.11 476.16 113.14 477.07C113.39 477.18 113.57 476.74 113.35 476.57C110.93 474.77 108.09 474.11 105.76 472.14L105.45 471.88L105.24 471.68C104.92 471.16 104.6 470.68 104.3 470.11C108.653 471.361 113.268 471.378 117.63 470.16C118.2 470 118.14 468.94 117.55 468.91H116.48L116.81 468.84C116.9 468.84 116.89 468.64 116.81 468.64L116.12 468.57C116.085 468.532 116.04 468.505 115.99 468.49C111.733 467.584 107.814 465.51 104.67 462.5C104.31 462.18 103.95 461.83 103.59 461.5C105.373 461.865 107.205 461.933 109.01 461.7C110.814 461.639 112.577 461.145 114.15 460.26C115.253 460.036 116.304 459.609 117.25 459C117.32 459 117.25 458.81 117.25 458.81C116.32 458.75 115.4 458.73 114.48 458.71C114.48 458.45 114.37 458.17 114.12 458.17C111.638 458.21 109.187 457.615 107 456.44C106.55 456.19 106.11 455.93 105.68 455.65C105.24 455.36 104.81 455.05 104.39 454.71C103.97 454.37 103.54 454.01 103.13 453.64C102.332 452.89 101.581 452.092 100.88 451.25C100.811 451.178 100.748 451.101 100.69 451.02C100.35 450.62 100.02 450.2 99.69 449.77C102.77 451.87 105.81 452.95 109.39 451.71C109.68 451.61 109.59 451.1 109.29 451.16C106.92 451.65 104.29 450.27 102.16 448.46C103.431 448.756 104.742 448.837 106.04 448.7C106.44 448.7 106.49 447.98 106.04 447.92C105.616 447.865 105.195 447.785 104.78 447.68L104.23 447.51L103.61 447.32C103.36 447.23 103.12 447.13 102.88 447.02L102.52 446.86L101.68 446.44L101.52 446.34C100.981 446.043 100.463 445.709 99.97 445.34C98.6581 444.321 97.5171 443.099 96.59 441.72L95.93 440.72C95.7 440.32 95.49 439.91 95.29 439.5C97.3166 441.686 99.8566 443.333 102.68 444.29C103.14 444.44 103.33 443.68 102.91 443.45C100.296 441.922 98.0765 439.801 96.43 437.26C98.6828 438.571 101.243 439.262 103.85 439.26C103.888 439.252 103.924 439.232 103.95 439.204C103.977 439.175 103.995 439.139 104 439.1C104.004 439.084 104.004 439.066 104 439.05C104.004 439.013 104.004 438.977 104 438.94C104 438.94 104 438.89 104 438.87C104.011 438.817 104.011 438.763 104 438.71C103.983 438.675 103.957 438.646 103.926 438.623C103.895 438.6 103.858 438.586 103.82 438.58C103.68 438.58 103.55 438.58 103.42 438.52C103.149 438.484 102.882 438.427 102.62 438.35H102.48L101.98 438.18L101.83 438.12C101.66 438.05 101.49 437.98 101.32 437.89L101.2 437.84L100.67 437.55L100.58 437.5L100.03 437.16C99.84 437.04 99.65 436.91 99.47 436.77C99.27 436.62 99.08 436.48 98.9 436.32C97.0807 434.746 95.4528 432.964 94.05 431.01C94.9192 431.75 95.9449 432.283 97.05 432.57C97.18 432.57 97.25 432.37 97.12 432.33C90.91 430.36 89.71 420.09 88.46 414C88.4356 413.872 88.3807 413.752 88.3 413.65C88.2201 413.542 88.1178 413.454 88 413.39C87.9338 413.38 87.8663 413.38 87.8 413.39C87.7212 413.37 87.6388 413.37 87.56 413.39C87.56 413.1 87.56 412.82 87.49 412.53C87.482 412.451 87.4618 412.373 87.43 412.3C87.378 412.198 87.2942 412.115 87.1911 412.064C87.0881 412.014 86.9714 411.998 86.8587 412.02C86.746 412.041 86.6432 412.098 86.5659 412.183C86.4886 412.268 86.4409 412.376 86.43 412.49C82.43 424.7 76.32 436.68 65.08 439.34C64.8 439.4 64.53 439.49 64.24 439.55C63.95 439.61 64.09 439.81 64.19 439.9C66.49 442.22 70.52 440.65 73.91 438.37C73.4136 438.888 72.8895 439.379 72.34 439.84C70.47 441.41 68.19 443.74 65.86 444.12H65.79H65.74C65.7076 444.131 65.6796 444.152 65.66 444.18C65.6422 444.206 65.6301 444.236 65.6244 444.268C65.6188 444.299 65.6198 444.332 65.6273 444.363C65.6348 444.394 65.6487 444.423 65.6681 444.448C65.6875 444.474 65.712 444.495 65.74 444.51C66.0397 444.641 66.3469 444.755 66.66 444.85C66.9267 444.937 67.2067 445.017 67.5 445.09L67.8 445.15L68.47 445.28L68.86 445.34L69.5 445.42H69.93C70.14 445.42 70.36 445.42 70.58 445.42H71.02H72.13C72.39 445.42 72.64 445.42 72.9 445.36H73.25C73.63 445.36 74 445.26 74.37 445.19C73.2353 447.211 71.7089 448.986 69.88 450.41C68.71 451.29 67.52 452.18 66.3 452.99C65.96 453.22 65.6 453.44 65.25 453.66C65.2105 453.692 65.1667 453.719 65.12 453.74C64.82 453.93 64.5 454.1 64.19 454.28L63.95 454.41C63.66 454.57 63.36 454.71 63.06 454.85L62.78 454.99C62.4 455.157 62.01 455.317 61.61 455.47C61.04 455.47 60.49 455.47 60 455.53C59.8 455.53 59.74 455.81 59.89 455.96C60.0199 456.084 60.1568 456.201 60.3 456.31C60.2878 456.433 60.3085 456.557 60.36 456.67C60.3818 456.718 60.4163 456.76 60.46 456.79C60.5244 456.815 60.5956 456.815 60.66 456.79H61C61.22 456.91 61.45 457.02 61.68 457.12L61.94 457.22L62.42 457.38C62.5351 457.416 62.6519 457.446 62.77 457.47L63.19 457.57L63.63 457.64L63.98 457.69H64.52H64.8H65.63C65.88 457.69 66.12 457.69 66.37 457.69H66.46C66.84 457.69 67.23 457.63 67.62 457.58C66.7589 458.42 65.7783 459.127 64.71 459.68C63.7411 459.87 62.7469 459.893 61.77 459.75C61.65 459.75 61.57 459.94 61.66 460.04L61.75 460.13C61.62 460.13 61.59 460.34 61.68 460.42C62.015 460.741 62.4236 460.974 62.87 461.1C63.0009 461.189 63.1379 461.27 63.28 461.34C63.7982 461.626 64.3585 461.829 64.94 461.94C65.15 461.94 65.36 462.01 65.58 462.02C63.427 463.205 61.0342 463.889 58.58 464.02C58.2952 464.001 58.0115 463.967 57.73 463.92C57.42 463.8 57.11 463.68 56.8 463.54C56.25 463.29 55.95 464.12 56.23 464.6C57.77 467.26 61.1 468.33 63.97 468.75C63.64 469.19 63.29 469.62 62.97 470.03C62.73 470.29 62.46 470.57 62.18 470.85C62.06 470.98 61.92 471.11 61.78 471.24L61.31 471.68L60.71 472.21L60.41 472.45C58.8453 473.817 57.135 475.007 55.31 476C54.98 476.17 54.65 476.32 54.31 476.47C53.97 476.62 53.55 476.8 53.19 476.92C51.7049 476.965 50.2206 476.804 48.78 476.44C48.7445 476.433 48.7079 476.437 48.6744 476.451C48.6409 476.464 48.612 476.487 48.591 476.516C48.57 476.546 48.5579 476.581 48.5559 476.617C48.554 476.653 48.5623 476.688 48.58 476.72C48.8158 477.125 49.094 477.504 49.41 477.85L49.51 477.97C49.7516 478.221 50.016 478.448 50.3 478.65L50.47 478.77C50.7386 478.949 51.0193 479.11 51.31 479.25C51.6103 479.388 51.9213 479.502 52.24 479.59L52.48 479.66C52.8097 479.744 53.1435 479.81 53.48 479.86C52.24 480.15 50.99 480.41 49.74 480.65C49.54 480.65 49.6 481.02 49.74 481.06C52.1904 481.548 54.7167 481.507 57.15 480.94C56.41 481.52 55.7 482.05 55.06 482.52C54.7198 482.766 54.3659 482.993 54 483.2L53.9 483.26C53.576 483.451 53.2422 483.624 52.9 483.78H52.84C52.403 483.983 51.9558 484.163 51.5 484.32H51.4C50.9305 484.478 50.4532 484.611 49.97 484.72H50C49.57 484.81 49.13 484.88 48.69 484.93H48.38C47.92 484.93 47.47 485.01 47.01 485.02C46.41 484.87 45.81 484.73 45.2 484.61C45.06 484.61 45 484.81 45.08 484.93L45.14 485C45.1153 485.018 45.0951 485.041 45.0811 485.068C45.0672 485.095 45.0599 485.125 45.0599 485.155C45.0599 485.185 45.0672 485.215 45.0811 485.242C45.0951 485.269 45.1153 485.292 45.14 485.31C45.4 485.541 45.6775 485.752 45.97 485.94C46.15 486.14 46.33 486.29 46.52 486.47C47.4657 487.365 48.5717 488.074 49.78 488.56C50.1675 488.722 50.565 488.859 50.97 488.97H51.03C51.4185 489.08 51.8123 489.17 52.21 489.24H52.39C52.76 489.3 53.12 489.36 53.49 489.39H53.91H54.81C55.26 489.39 55.71 489.39 56.17 489.39C55.8428 489.526 55.509 489.646 55.17 489.75C54.85 489.85 54.52 489.93 54.17 490.01H54.08C53.25 490.01 52.42 490.01 51.6 490.1C51.5411 490.107 51.4842 490.125 51.4327 490.154C51.3811 490.184 51.336 490.223 51.3 490.27C50.7 490.2 50.12 490.11 49.57 490.01C49.02 489.91 49.07 490.62 49.34 490.87C54.85 496.13 63.82 493.75 70.59 491.06C70.53 491.29 70.45 491.51 70.38 491.73C70.02 492.86 69.63 493.99 69.2 495.1C68.77 496.22 68.31 497.33 67.82 498.44C67.8055 498.485 67.8055 498.534 67.82 498.58C67.8269 498.609 67.8436 498.635 67.8673 498.653C67.8909 498.671 67.9202 498.681 67.95 498.68C67.9625 498.686 67.9761 498.689 67.99 498.689C68.0039 498.689 68.0176 498.686 68.03 498.68L68.8 497.87C69 497.68 69.19 497.47 69.39 497.26C69.19 497.55 68.99 497.85 68.78 498.12C68.57 498.39 68.78 498.43 68.93 498.32C71.99 495.24 74.93 492.56 77.28 488.72C77.6163 490.78 78.2921 492.771 79.28 494.61C79.35 494.76 79.55 494.61 79.48 494.48C78.9493 493.316 78.5696 492.09 78.35 490.83C78.62 491.34 78.9 491.83 79.18 492.29C79.46 492.75 79.84 493.29 80.18 493.73L80.84 494.59C80.44 502.4 79.63 510.59 79.63 510.59C85.28 513.52 87.77 509.9 87.77 509.9C87.51 506.18 87.49 498.59 87.52 492.67C88.44 494 89.43 495.25 90.36 496.46C90.45 496.57 90.59 496.46 90.51 496.3C89.492 494.932 88.5698 493.495 87.75 492C88.9638 493.355 90.3294 494.567 91.82 495.61C92.1858 495.866 92.5665 496.099 92.96 496.31L93.55 496.64C94.7304 497.236 95.9663 497.715 97.24 498.07L97.49 498.15L98.49 498.41L98.94 498.52L99.87 498.73L100.5 498.85C100.77 498.85 101.03 498.96 101.3 499L102.36 499.2L104.16 499.52C104.216 499.535 104.274 499.535 104.33 499.52C104.364 499.507 104.395 499.487 104.42 499.46C104.447 499.422 104.47 499.382 104.49 499.34C104.495 499.28 104.495 499.22 104.49 499.16C104.485 499.14 104.485 499.12 104.49 499.1V498.9C104.49 498.9 104.49 498.85 104.49 498.83V498.7C104.471 498.626 104.437 498.557 104.391 498.497C104.345 498.437 104.286 498.387 104.22 498.35C103.76 498.14 103.29 497.94 102.83 497.75L101.99 497.41C101.56 497.16 101.15 496.9 100.74 496.61C100.713 496.553 100.667 496.507 100.61 496.48C100.53 496.48 100.46 496.39 100.37 496.35C99.592 495.767 98.884 495.096 98.26 494.35L98.09 494.13C102.159 497.489 107.354 499.172 112.62 498.84C113.05 498.84 113.48 498.74 113.9 498.66H114.01C114.42 498.59 114.82 498.5 115.22 498.39H115.38C115.77 498.28 116.15 498.16 116.52 498.02L116.72 497.94C117.09 497.8 117.45 497.64 117.81 497.47L118.02 497.36C118.362 497.186 118.696 496.996 119.02 496.79C119.34 496.59 119.66 496.4 120.02 496.17C120.38 495.94 120.14 495.46 119.84 495.57C119.54 495.68 119.27 495.73 118.98 495.82H118.85C118.51 495.76 118.177 495.69 117.85 495.61C114.737 494.922 111.84 493.483 109.41 491.42L111.41 492.3C111.73 492.45 111.87 491.87 111.58 491.7C109.928 490.778 108.39 489.663 107 488.38C108.783 489.102 110.652 489.589 112.56 489.83C115.61 490.17 121.05 490.58 123.11 487.15Z" fill="#73808A"/>
<path d="M894.932 512.919C895.158 512.535 894.764 512.038 894.437 512.264C893.861 512.632 893.245 512.936 892.602 513.168C892.608 513.015 892.559 512.865 892.464 512.744C892.369 512.624 892.234 512.542 892.084 512.513C891.729 512.445 891.379 512.35 891.037 512.23L890.812 512.151C890.467 512.031 890.129 511.891 889.799 511.733C888.315 510.963 886.941 509.998 885.713 508.863C885.285 508.49 884.868 508.094 884.463 507.733L884.35 507.631C883.574 506.851 882.831 506.038 882.099 505.235L881.851 504.964L880.962 503.925L880.647 503.54L879.836 502.569C878.778 501.269 877.799 499.947 876.853 498.591C879.104 499.811 881.423 500.501 883.709 501.529C883.99 501.653 884.193 501.156 883.945 500.964C881.221 498.93 878.024 498.184 875.401 495.958L875.052 495.664L874.815 495.438C874.455 494.851 874.095 494.308 873.757 493.664C878.657 495.078 883.853 495.097 888.763 493.721C889.405 493.54 889.338 492.342 888.673 492.308H887.469L887.84 492.229C887.942 492.229 887.93 492.003 887.84 492.003L887.063 491.924C887.024 491.881 886.973 491.85 886.917 491.834C882.125 490.81 877.712 488.466 874.174 485.065C873.768 484.703 873.363 484.308 872.958 483.935C874.965 484.348 877.027 484.424 879.059 484.161C881.09 484.092 883.075 483.534 884.846 482.534C886.087 482.281 887.27 481.798 888.336 481.11C888.414 481.11 888.336 480.895 888.336 480.895C887.289 480.827 886.253 480.805 885.217 480.782C885.217 480.488 885.093 480.172 884.812 480.172C882.018 480.217 879.259 479.544 876.797 478.217C876.29 477.935 875.795 477.641 875.311 477.324C874.815 476.997 874.331 476.646 873.858 476.262C873.386 475.878 872.902 475.471 872.44 475.053C871.542 474.205 870.696 473.303 869.907 472.352C869.83 472.271 869.758 472.184 869.693 472.092C869.31 471.64 868.939 471.166 868.567 470.68C872.035 473.053 875.457 474.273 879.487 472.872C879.814 472.759 879.712 472.183 879.375 472.251C876.707 472.804 873.746 471.245 871.348 469.2C872.779 469.534 874.255 469.626 875.716 469.471C876.166 469.471 876.222 468.657 875.716 468.589C875.238 468.527 874.764 468.437 874.297 468.318L873.678 468.126L872.98 467.911C872.699 467.81 872.429 467.697 872.159 467.572L871.753 467.392L870.808 466.917L870.628 466.804C870.02 466.469 869.437 466.091 868.883 465.674C867.406 464.522 866.121 463.141 865.078 461.583L864.335 460.453C864.076 460.001 863.839 459.538 863.614 459.075C865.895 461.546 868.755 463.406 871.933 464.488C872.451 464.657 872.665 463.798 872.192 463.538C869.249 461.811 866.751 459.416 864.897 456.544C867.434 458.026 870.316 458.805 873.251 458.804C873.294 458.795 873.333 458.773 873.364 458.74C873.394 458.708 873.413 458.667 873.419 458.623C873.424 458.604 873.424 458.585 873.419 458.566C873.424 458.525 873.424 458.483 873.419 458.442C873.419 458.442 873.419 458.386 873.419 458.363C873.432 458.303 873.432 458.242 873.419 458.182C873.4 458.143 873.371 458.109 873.336 458.084C873.301 458.058 873.26 458.042 873.217 458.035C873.059 458.035 872.913 458.035 872.766 457.967C872.462 457.926 872.161 457.862 871.866 457.775H871.708L871.145 457.583L870.976 457.515C870.785 457.436 870.594 457.357 870.402 457.256L870.267 457.199L869.671 456.871L869.569 456.815L868.95 456.431C868.736 456.295 868.522 456.148 868.32 455.99C868.095 455.82 867.881 455.662 867.678 455.481C865.63 453.703 863.797 451.689 862.218 449.481C863.197 450.317 864.351 450.92 865.595 451.244C865.742 451.244 865.821 451.018 865.674 450.973C858.683 448.747 857.332 437.142 855.925 430.26C855.898 430.115 855.836 429.98 855.745 429.864C855.655 429.743 855.54 429.643 855.407 429.571C855.333 429.559 855.257 429.559 855.182 429.571C855.093 429.549 855.001 429.549 854.912 429.571C854.912 429.243 854.912 428.926 854.833 428.599C854.824 428.509 854.801 428.421 854.766 428.339C854.707 428.223 854.613 428.13 854.497 428.073C854.381 428.016 854.249 427.998 854.122 428.022C853.996 428.046 853.88 428.111 853.793 428.207C853.706 428.303 853.652 428.424 853.64 428.554C849.137 442.351 842.259 455.888 829.605 458.894C829.29 458.962 828.986 459.064 828.659 459.131C828.333 459.199 828.491 459.425 828.603 459.527C831.192 462.148 835.729 460.374 839.546 457.798C838.987 458.383 838.397 458.938 837.778 459.459C835.673 461.233 833.106 463.866 830.483 464.295H830.404H830.348C830.312 464.308 830.28 464.332 830.258 464.363C830.238 464.393 830.224 464.427 830.218 464.463C830.212 464.498 830.213 464.535 830.221 464.57C830.23 464.605 830.245 464.638 830.267 464.666C830.289 464.695 830.317 464.719 830.348 464.736C830.686 464.885 831.031 465.013 831.384 465.12C831.684 465.218 831.999 465.309 832.329 465.392L832.667 465.459L833.421 465.606L833.86 465.674L834.581 465.764H835.065C835.301 465.764 835.549 465.764 835.797 465.764H836.292H837.542C837.834 465.764 838.116 465.764 838.408 465.697H838.803C839.23 465.697 839.647 465.584 840.063 465.505C838.786 467.789 837.068 469.794 835.009 471.403C833.692 472.398 832.352 473.403 830.979 474.319C830.596 474.578 830.191 474.827 829.796 475.076C829.752 475.112 829.703 475.143 829.65 475.166C829.312 475.381 828.952 475.573 828.603 475.776L828.333 475.923C828.007 476.104 827.669 476.262 827.331 476.42L827.016 476.579C826.588 476.767 826.149 476.948 825.699 477.121C825.057 477.121 824.438 477.121 823.886 477.189C823.661 477.189 823.594 477.505 823.762 477.675C823.909 477.815 824.063 477.947 824.224 478.07C824.21 478.209 824.234 478.35 824.292 478.477C824.316 478.532 824.355 478.579 824.404 478.613C824.477 478.64 824.557 478.64 824.629 478.613H825.012C825.26 478.748 825.519 478.872 825.778 478.985L826.07 479.098L826.611 479.279C826.74 479.32 826.872 479.354 827.005 479.381L827.477 479.494L827.973 479.573L828.367 479.63H828.975H829.29H830.224C830.506 479.63 830.776 479.63 831.057 479.63H831.159C831.586 479.63 832.025 479.562 832.465 479.505C831.495 480.454 830.391 481.254 829.189 481.878C828.098 482.093 826.979 482.119 825.879 481.957C825.744 481.957 825.654 482.172 825.755 482.285L825.856 482.387C825.71 482.387 825.676 482.624 825.778 482.714C826.155 483.077 826.615 483.341 827.117 483.483C827.265 483.584 827.419 483.675 827.579 483.754C828.162 484.078 828.793 484.306 829.448 484.432C829.684 484.432 829.92 484.511 830.168 484.522C827.744 485.862 825.051 486.634 822.288 486.782C821.967 486.761 821.648 486.723 821.331 486.669C820.982 486.534 820.633 486.398 820.284 486.24C819.665 485.958 819.327 486.895 819.642 487.438C821.376 490.444 825.125 491.653 828.356 492.127C827.984 492.625 827.59 493.11 827.23 493.574C826.96 493.868 826.656 494.184 826.34 494.5C826.205 494.647 826.048 494.794 825.89 494.941L825.361 495.438L824.686 496.037L824.348 496.308C822.586 497.853 820.661 499.198 818.607 500.32C818.235 500.512 817.864 500.681 817.481 500.851C817.098 501.02 816.625 501.224 816.22 501.359C814.548 501.411 812.877 501.228 811.255 500.817C811.215 500.81 811.174 500.814 811.136 500.829C811.099 500.844 811.066 500.87 811.043 500.903C811.019 500.937 811.005 500.976 811.003 501.017C811.001 501.057 811.01 501.098 811.03 501.133C811.296 501.591 811.609 502.019 811.965 502.41L812.077 502.546C812.349 502.829 812.647 503.087 812.967 503.314L813.158 503.45C813.46 503.652 813.776 503.834 814.104 503.992C814.442 504.149 814.792 504.277 815.15 504.377L815.421 504.456C815.792 504.55 816.168 504.626 816.546 504.682C815.15 505.009 813.743 505.303 812.336 505.574C812.111 505.574 812.178 505.992 812.336 506.038C815.095 506.589 817.939 506.542 820.678 505.902C819.845 506.557 819.046 507.156 818.325 507.687C817.942 507.966 817.544 508.222 817.132 508.456L817.019 508.524C816.654 508.739 816.279 508.935 815.893 509.111H815.826C815.334 509.341 814.83 509.544 814.317 509.721H814.205C813.676 509.9 813.139 510.051 812.595 510.173H812.629C812.145 510.275 811.649 510.354 811.154 510.411H810.805C810.287 510.411 809.781 510.501 809.263 510.512C808.587 510.343 807.912 510.185 807.225 510.049C807.068 510.049 807 510.275 807.09 510.411L807.158 510.49C807.13 510.51 807.107 510.536 807.091 510.566C807.076 510.597 807.067 510.631 807.067 510.665C807.067 510.699 807.076 510.733 807.091 510.764C807.107 510.794 807.13 510.82 807.158 510.84C807.45 511.101 807.763 511.339 808.092 511.552C808.295 511.778 808.497 511.948 808.711 512.151C809.776 513.163 811.021 513.964 812.381 514.513C812.817 514.696 813.265 514.85 813.721 514.976H813.788C814.226 515.1 814.669 515.202 815.117 515.281H815.319C815.736 515.349 816.141 515.417 816.558 515.451H817.03H818.044C818.55 515.451 819.057 515.451 819.575 515.451C819.206 515.604 818.831 515.74 818.449 515.857C818.089 515.97 817.717 516.061 817.323 516.151H817.222C816.287 516.151 815.353 516.151 814.43 516.253C814.364 516.26 814.3 516.281 814.242 516.314C814.184 516.347 814.133 516.392 814.092 516.445C813.417 516.366 812.764 516.264 812.145 516.151C811.526 516.038 811.582 516.84 811.886 517.123C818.089 523.067 828.187 520.377 835.808 517.338C835.74 517.598 835.65 517.846 835.572 518.095C835.166 519.372 834.727 520.649 834.243 521.903C833.759 523.168 833.241 524.423 832.69 525.677C832.673 525.728 832.673 525.784 832.69 525.835C832.697 525.868 832.716 525.897 832.743 525.918C832.77 525.938 832.802 525.949 832.836 525.948C832.85 525.955 832.865 525.959 832.881 525.959C832.897 525.959 832.912 525.955 832.926 525.948L833.793 525.033C834.018 524.818 834.232 524.581 834.457 524.344C834.232 524.671 834.007 525.01 833.77 525.315C833.534 525.621 833.77 525.666 833.939 525.541C837.384 522.061 840.694 519.033 843.339 514.693C843.718 517.022 844.479 519.271 845.591 521.349C845.67 521.519 845.895 521.349 845.816 521.202C845.218 519.887 844.791 518.501 844.544 517.078C844.848 517.654 845.163 518.208 845.478 518.728C845.793 519.247 846.221 519.858 846.604 520.355L847.347 521.327C846.897 530.152 845.985 539.407 845.985 539.407C852.345 542.717 855.148 538.627 855.148 538.627C854.856 534.423 854.833 525.847 854.867 519.157C855.903 520.66 857.017 522.072 858.064 523.44C858.165 523.564 858.323 523.44 858.233 523.259C857.087 521.713 856.049 520.089 855.126 518.4C856.492 519.931 858.03 521.3 859.708 522.479C860.119 522.768 860.548 523.032 860.991 523.27L861.655 523.643C862.984 524.317 864.375 524.858 865.809 525.259L866.091 525.349L867.216 525.643L867.723 525.767L868.77 526.005L869.479 526.14C869.783 526.14 870.076 526.265 870.38 526.31L871.573 526.536L873.599 526.897C873.662 526.915 873.728 526.915 873.791 526.897C873.829 526.883 873.864 526.86 873.892 526.83C873.923 526.787 873.949 526.742 873.971 526.694C873.977 526.626 873.977 526.558 873.971 526.491C873.966 526.468 873.966 526.445 873.971 526.423V526.197C873.971 526.197 873.971 526.14 873.971 526.118V525.971C873.95 525.888 873.912 525.81 873.86 525.742C873.807 525.674 873.742 525.617 873.667 525.575C873.149 525.338 872.62 525.112 872.102 524.897L871.157 524.513C870.673 524.231 870.211 523.937 869.749 523.609C869.719 523.544 869.667 523.493 869.603 523.462C869.513 523.462 869.434 523.361 869.333 523.315C868.457 522.656 867.66 521.898 866.958 521.055L866.766 520.807C871.347 524.602 877.195 526.505 883.123 526.129C883.607 526.129 884.091 526.016 884.564 525.926H884.688C885.15 525.847 885.6 525.745 886.05 525.621H886.23C886.669 525.496 887.097 525.361 887.514 525.202L887.739 525.112C888.155 524.954 888.561 524.773 888.966 524.581L889.202 524.457C889.588 524.261 889.964 524.046 890.328 523.813C890.688 523.587 891.049 523.372 891.454 523.112C891.859 522.852 891.589 522.31 891.251 522.434C890.914 522.558 890.61 522.615 890.283 522.716H890.137C889.754 522.649 889.379 522.57 889.011 522.479C885.507 521.701 882.245 520.076 879.51 517.744L881.761 518.739C882.121 518.908 882.279 518.253 881.953 518.061C880.093 517.019 878.362 515.759 876.797 514.309C878.804 515.125 880.908 515.675 883.056 515.948C886.489 516.332 892.613 516.795 894.932 512.919Z" fill="#73808A"/>
<path d="M1051.46 523.11C1056.51 523.119 1061.51 522.105 1066.15 520.13C1065.41 520.821 1064.72 521.57 1063.91 522.203C1060.99 524.664 1057.94 526.962 1054.76 529.086C1053.47 529.994 1053.01 529.792 1052.13 530.944C1051.86 531.304 1051.9 531.995 1052.45 532.038C1059.13 532.75 1065.88 532.038 1072.26 529.95C1070.72 531.102 1068.77 531.52 1067.48 532.96C1067.1 533.378 1066.87 534.27 1067.65 534.4C1069.4 534.631 1071.18 534.553 1072.9 534.17C1075.38 534.003 1077.77 533.267 1079.91 532.018C1082.06 530.769 1083.88 529.042 1085.24 526.97C1086.16 528.361 1087.2 529.667 1088.35 530.872L1088.99 531.549C1088.52 536.286 1088.35 541.082 1089.68 545.128C1090.16 546.568 1092.91 548.008 1093.69 546.078C1095.13 542.536 1094.36 538.245 1094.08 534.558C1093.99 533.306 1093.92 532.067 1093.83 530.814C1095.54 531.989 1097.42 532.897 1099.41 533.507C1102.48 534.4 1106.5 535.797 1109.62 534.818C1109.73 534.778 1109.83 534.707 1109.91 534.613C1109.98 534.519 1110.03 534.406 1110.05 534.286C1110.06 534.166 1110.04 534.045 1109.99 533.935C1109.94 533.826 1109.86 533.732 1109.76 533.666C1108.8 532.802 1107.87 531.894 1106.89 530.958C1107.64 531.261 1108.4 531.563 1109.17 531.837C1113.2 533.277 1117.98 535.149 1122.3 534.472C1123.08 534.357 1122.86 533.464 1122.49 533.032C1121.18 531.592 1119.24 531.174 1117.71 530.022C1123.42 531.879 1129.42 532.646 1135.42 532.283C1135.18 536.392 1135.67 540.51 1136.85 544.451C1137.48 546.381 1141.36 548.498 1142.45 545.79C1144.45 540.808 1143.39 534.803 1143 529.547C1142.87 527.805 1142.77 526.062 1142.64 524.306C1145.04 525.954 1147.67 527.226 1150.45 528.078C1154.76 529.317 1160.41 531.275 1164.82 529.922C1164.98 529.865 1165.12 529.764 1165.23 529.63C1165.34 529.496 1165.41 529.334 1165.43 529.164C1165.45 528.993 1165.42 528.819 1165.35 528.663C1165.28 528.507 1165.16 528.374 1165.02 528.28C1163.58 527.085 1162.35 525.803 1161.06 524.493C1162.12 524.91 1163.18 525.357 1164.26 525.731C1169.9 527.704 1176.6 530.368 1182.67 529.418C1183.76 529.245 1183.45 527.978 1182.93 527.416C1181.11 525.414 1178.38 524.81 1176.22 523.197C1185.18 526.092 1194.64 527.074 1204 526.077C1204.76 525.99 1204.84 525.011 1204.45 524.522C1203.21 522.923 1202.58 523.197 1200.76 521.915C1196.31 518.937 1192.03 515.716 1187.93 512.267C1186.87 511.317 1185.83 510.338 1184.8 509.387C1191.32 512.156 1198.33 513.577 1205.41 513.563C1206.59 513.563 1205.84 512.008 1205.41 511.648C1204.98 511.288 1204.82 511.216 1204.52 511C1201.03 508.538 1197.02 506.824 1193.55 504.232C1188.37 500.384 1183.46 496.194 1178.84 491.69C1177.8 490.71 1176.8 489.717 1175.85 488.68C1176.97 489.884 1178.36 490.811 1179.9 491.387C1181.2 492.009 1182.54 492.529 1183.92 492.942C1187.34 494.248 1191.07 494.519 1194.64 493.72C1194.75 493.697 1194.86 493.642 1194.94 493.562C1195.01 493.498 1195.05 493.419 1195.08 493.331C1195.12 493.197 1195.13 493.055 1195.11 492.915C1195.09 492.776 1195.04 492.643 1194.97 492.525C1192.8 488.954 1187.96 486.563 1185.01 483.755C1179.89 479.14 1175.2 474.059 1171.01 468.578C1169.08 465.899 1167.16 463.235 1165.26 460.528C1165.26 460.427 1165.36 460.528 1165.65 460.528C1166.13 460.672 1166.93 461.018 1167.61 461.306L1168.68 461.795C1172.19 463.394 1175.53 464.992 1179.43 464.992C1179.54 464.994 1179.66 464.959 1179.76 464.891C1179.8 464.84 1179.84 464.782 1179.86 464.718V464.603C1179.86 464.603 1179.86 464.603 1179.86 464.502C1179.86 464.402 1179.84 464.302 1179.8 464.21C1179.76 464.118 1179.7 464.036 1179.63 463.97C1171.76 456.813 1164.51 449.01 1157.94 440.642C1156.13 438.489 1154.51 436.181 1153.1 433.744C1151.79 431.368 1153.46 433.139 1154.53 434.018L1154.84 434.219C1157.05 435.931 1159.59 437.171 1162.3 437.862C1162.4 437.902 1162.51 437.902 1162.61 437.862H1162.68C1162.77 437.735 1162.82 437.581 1162.82 437.423C1162.82 437.265 1162.77 437.112 1162.68 436.984C1156.26 426.04 1149.58 415.658 1145.21 403.605C1145.17 403.491 1145.11 403.387 1145.02 403.3C1144.94 403.213 1144.84 403.145 1144.72 403.101C1144.67 403.052 1144.6 403.018 1144.52 403H1144.13C1144.06 403.011 1143.98 403.041 1143.92 403.086C1143.81 403.131 1143.7 403.198 1143.62 403.285C1143.54 403.372 1143.47 403.476 1143.43 403.59C1141.09 409.86 1138.24 415.923 1134.9 421.72C1132.77 425.478 1130.59 429.194 1128.28 432.923C1127.47 434.277 1126.65 435.616 1125.84 436.97C1125.62 437.344 1125.68 438.05 1126.28 437.92C1129 437.229 1131.54 435.989 1133.76 434.277C1134.78 433.614 1137 431.109 1135.56 433.758C1134.15 436.193 1132.53 438.5 1130.72 440.656C1124.11 449.001 1116.81 456.779 1108.91 463.912C1108.48 464.301 1108.57 464.992 1109.22 464.992C1113.11 464.992 1116.4 463.394 1119.95 461.795C1119.34 462.069 1123.67 460.067 1123.36 460.499C1121.5 463.206 1119.56 465.87 1117.62 468.549C1115.31 471.69 1112.77 474.659 1110.04 477.434C1108.21 475.389 1106.43 473.315 1104.69 471.141C1103.42 469.591 1102.28 467.939 1101.27 466.202C1100.64 465.021 1101.01 465.28 1101.56 465.741L1102.15 466.245C1102.27 466.361 1102.41 466.467 1102.55 466.562C1104.13 467.801 1105.93 468.711 1107.87 469.24C1107.94 469.263 1108.01 469.263 1108.08 469.24C1108.15 469.151 1108.18 469.042 1108.18 468.93C1108.18 468.819 1108.15 468.71 1108.08 468.621C1103.41 460.845 1098.63 453.414 1095.53 444.832C1095.5 444.749 1095.45 444.673 1095.39 444.609C1095.34 444.544 1095.26 444.493 1095.18 444.458H1095.04C1095 444.45 1094.95 444.45 1094.91 444.458C1094.87 444.45 1094.82 444.45 1094.78 444.458H1094.64C1094.47 444.532 1094.35 444.666 1094.28 444.832C1092.58 449.361 1090.51 453.74 1088.09 457.922C1086.13 461.392 1084.04 464.92 1081.81 468.506C1081.65 468.765 1081.71 469.269 1082.11 469.182C1084.05 468.685 1085.87 467.798 1087.46 466.576C1088.19 466.101 1089.77 464.315 1088.75 466.202C1087.73 467.94 1086.57 469.592 1085.29 471.141C1080.55 477.096 1075.33 482.644 1069.67 487.73C1069.37 488.003 1069.43 488.493 1069.89 488.493C1072.58 488.308 1075.19 487.531 1077.54 486.218C1077.11 486.419 1080.2 484.994 1079.99 485.296C1078.64 487.226 1077.27 489.126 1075.91 491.056C1072.9 494.972 1069.53 498.597 1065.85 501.885C1063.93 503.8 1060.41 505.571 1058.87 508.12C1058.67 508.451 1058.68 508.883 1059.12 508.984C1061.65 509.546 1064.29 509.356 1066.71 508.437C1067.7 508.136 1068.66 507.766 1069.59 507.328C1070.68 506.914 1071.67 506.248 1072.46 505.384C1071.77 506.133 1071.02 506.824 1070.32 507.544C1067.05 510.74 1063.58 513.713 1059.92 516.443C1057.23 518.459 1054.07 519.712 1051.45 521.728C1051.14 522.002 1050.61 523.082 1051.46 523.11ZM1135.21 529.086C1132.49 527.157 1129.74 525.27 1127.19 523.125C1127.66 522.67 1128.1 522.189 1128.52 521.685C1130.19 522.153 1131.89 522.514 1133.61 522.765C1134.07 523.298 1134.5 523.845 1135.04 524.349C1135.59 524.853 1135.63 524.968 1135.96 525.285C1135.82 526.61 1135.7 527.949 1135.62 529.274L1135.21 529.086Z" fill="#73808A"/>
<path d="M32.1899 545.06H43.8199C41.6899 533.06 41.2499 479.85 41.2499 479.85C41.2499 479.85 36.3499 465.7 36.4599 479.85C36.5599 492.48 32.9199 535.9 32.1899 545.06Z" fill="#AFB7BC"/>
<path d="M79.03 457.56C79.4349 456.067 79.4349 454.493 79.03 453C78.6256 451.577 77.8569 450.285 76.8 449.25C75.34 447.47 73.07 447 70.94 446.72C70.7766 444.706 69.844 442.832 68.3357 441.488C66.8274 440.144 64.8593 439.432 62.84 439.5C62.2119 439.5 61.5854 439.564 60.97 439.69C60.2816 438.091 59.1444 436.726 57.6961 435.761C56.2477 434.795 54.5505 434.271 52.81 434.25C50.8961 434.268 49.0398 434.907 47.52 436.07C46.0152 435.517 44.3825 435.411 42.8191 435.766C41.2556 436.121 39.8285 436.921 38.71 438.07C37.9858 438.807 37.3938 439.662 36.96 440.6C35.4371 439.499 33.6182 438.883 31.74 438.83C30.7636 438.822 29.793 438.981 28.87 439.3C27.87 435.71 23.94 433 20.07 433C15.46 433 10.98 436.84 10.98 441.46V442.1C11.135 443.301 11.5478 444.454 12.19 445.48C12.06 445.6 12.11 445.71 11.99 445.84C11.2168 446.633 10.6084 447.572 10.1999 448.602C9.79141 449.632 9.59092 450.732 9.61 451.84C9.6317 453.341 10.064 454.807 10.86 456.08C9.64944 456.763 8.6206 457.727 7.86 458.89C6.98964 457.887 5.91449 457.083 4.70699 456.531C3.49948 455.979 2.18769 455.692 0.860001 455.69C-3.76 455.69 -8 459.54 -8 464.16V465.45C-8 468.7 -5.56 471.56 -2.9 472.97C-3.16702 474.328 -3.11736 475.729 -2.75488 477.064C-2.3924 478.4 -1.72687 479.634 -0.81 480.67C-2.21516 482.16 -2.9954 484.132 -2.99 486.18C-2.99 493.69 5.7 495.96 10.68 492.99C12.37 494.435 14.5166 495.235 16.74 495.25C17.9141 495.245 19.0759 495.011 20.16 494.56C19.694 496.739 20.0881 499.014 21.26 500.91C21.8798 502.547 22.9934 503.951 24.4465 504.928C25.8997 505.904 27.6204 506.404 29.3705 506.359C31.1206 506.314 32.8134 505.726 34.2144 504.676C35.6154 503.626 36.6553 502.167 37.19 500.5C37.8727 501.717 38.8784 502.721 40.096 503.402C41.3137 504.084 42.6959 504.415 44.09 504.36C50.62 504.36 53.18 498.15 51.8 493.25C53.3856 493.074 54.8769 492.408 56.0669 491.345C57.2568 490.283 58.0862 488.876 58.44 487.32C59.0288 487.68 59.6697 487.946 60.34 488.11C61.6339 488.473 62.9947 488.53 64.3145 488.277C65.6343 488.023 66.877 487.466 67.9442 486.649C69.0114 485.832 69.8738 484.778 70.4632 483.57C71.0526 482.362 71.3528 481.034 71.34 479.69C71.3664 479 71.2957 478.31 71.13 477.64C72.9682 477.423 74.6817 476.599 76 475.3C77.578 473.702 78.4629 471.546 78.4629 469.3C78.4629 467.054 77.578 464.898 76 463.3L75.41 462.71C75.8596 462.401 76.2752 462.046 76.65 461.65C77.782 460.514 78.6017 459.105 79.03 457.56Z" fill="#D7DBDE"/>
<path d="M45.5199 502.83C45.2699 502.28 46.5199 514.01 42.0299 516.83L40.8999 521.83C40.8999 521.83 41.7199 522.43 44.2199 518.62C46.7199 514.81 46.9899 506.19 45.5199 502.83Z" fill="#AFB7BC"/>
<path d="M31.4099 509.04C31.6599 508.49 30.4099 520.23 34.8999 523.04L36.0299 528.04C36.0299 528.04 35.2099 528.65 32.7099 524.83C30.2099 521.01 29.9399 512.4 31.4099 509.04Z" fill="#AFB7BC"/>
<path d="M647.346 470.693C646.836 474.993 646.836 478.213 643.016 480.903C642.806 481.053 642.216 481.193 642.216 481.343V470.453C642.216 466.213 636.926 466.203 636.926 470.453V486.943C634.816 483.733 631.746 481.403 631.756 477.133C631.756 473.793 626.706 473.783 626.696 477.133C626.696 485.063 633.936 489.383 636.256 496.533C636.426 497.083 636.906 497.483 636.906 497.773V522.593H642.206V489.823C642.206 489.533 642.876 489.173 642.996 488.703C643.786 485.523 647.876 484.443 649.746 481.913C652.196 478.583 652.036 474.653 652.496 470.723C652.876 467.383 647.696 467.413 647.346 470.693Z" fill="#AFB7BC"/>
<path d="M681.306 444.233L680.916 443.853C679.751 442.697 678.186 442.035 676.546 442.003C677.476 438.833 676.176 434.943 672.636 433.883C675.226 430.243 673.836 423.263 668.446 423.263C667.169 423.239 665.908 423.545 664.786 424.153C664.644 423.061 664.101 422.061 663.261 421.349C662.421 420.637 661.346 420.264 660.246 420.303C659.768 420.307 659.294 420.378 658.836 420.513C658.868 419.895 658.771 419.277 658.553 418.698C658.335 418.119 657.999 417.591 657.567 417.148C657.135 416.705 656.616 416.355 656.043 416.122C655.47 415.889 654.854 415.777 654.236 415.793C653.11 415.755 652.013 416.148 651.168 416.891C650.322 417.634 649.792 418.672 649.686 419.793C649.574 419.394 649.413 419.011 649.206 418.653C648.555 417.577 647.508 416.801 646.289 416.492C645.071 416.183 643.78 416.367 642.696 417.003L642.606 417.053C642.335 415.893 641.678 414.86 640.742 414.124C639.805 413.388 638.646 412.992 637.456 413.003C636.155 412.962 634.876 413.333 633.798 414.062C632.721 414.791 631.901 415.841 631.456 417.063C630.922 416.624 630.299 416.305 629.631 416.13C628.962 415.954 628.263 415.926 627.583 416.047C626.902 416.168 626.256 416.434 625.688 416.829C625.121 417.224 624.646 417.737 624.296 418.333L624.116 418.763C623.454 418.446 622.729 418.286 621.996 418.293C621.33 418.287 620.67 418.416 620.056 418.673C619.008 417.97 617.777 417.591 616.516 417.583C614.867 417.596 613.283 418.228 612.079 419.355C610.875 420.481 610.139 422.019 610.016 423.663C608.838 423.7 607.717 424.179 606.876 425.003C606.19 425.703 605.736 426.596 605.576 427.563C605.266 427.563 604.966 427.493 604.636 427.493C598.796 427.493 597.636 435.653 601.176 438.903C597.246 439.773 596.666 445.143 599.436 447.353C598.262 447.952 597.305 448.905 596.701 450.076C596.097 451.247 595.875 452.579 596.067 453.882C596.259 455.186 596.856 456.397 597.772 457.345C598.688 458.292 599.879 458.928 601.176 459.163C601.019 460.165 601.186 461.191 601.654 462.09C602.122 462.99 602.865 463.716 603.776 464.163C603.669 464.615 603.619 465.079 603.626 465.543C603.637 466.217 603.721 466.887 603.876 467.543C604.249 468.888 605.052 470.073 606.163 470.918C607.273 471.763 608.63 472.222 610.026 472.223C610.752 472.225 611.473 472.1 612.156 471.853C612.427 472.651 612.918 473.356 613.573 473.887C614.227 474.418 615.019 474.753 615.856 474.853C616.014 476.416 616.758 477.86 617.938 478.897C619.117 479.934 620.646 480.486 622.216 480.443H622.596C623.837 480.491 625.064 480.163 626.116 479.503C627.169 478.843 627.998 477.881 628.496 476.743C629.053 476.949 629.634 477.08 630.226 477.133C631.381 477.174 632.524 476.89 633.526 476.313C634.165 477.238 635.029 477.985 636.037 478.484C637.044 478.983 638.162 479.216 639.286 479.163C640.4 479.064 641.47 478.68 642.393 478.048C643.316 477.415 644.061 476.556 644.556 475.553C644.989 476.215 645.583 476.755 646.283 477.125C646.983 477.494 647.765 477.679 648.556 477.663C652.206 477.663 653.776 475.853 654.556 473.593C655.098 474.523 655.884 475.287 656.828 475.803C657.773 476.319 658.84 476.568 659.916 476.523C661.351 476.572 662.757 476.112 663.886 475.224C665.015 474.337 665.794 473.079 666.086 471.673C666.834 472.143 667.702 472.386 668.586 472.373C672.386 472.373 673.836 468.733 672.936 465.953H673.136C673.964 465.707 674.714 465.251 675.313 464.629C675.913 464.007 676.341 463.24 676.556 462.403C680.556 461.963 681.556 457.173 679.556 454.573C680.231 454.271 680.844 453.848 681.366 453.323C682.56 452.108 683.224 450.469 683.213 448.766C683.202 447.062 682.516 445.432 681.306 444.233Z" fill="#D7DBDE"/>
<path d="M771.905 524.166H786.255C783.515 515.806 782.945 468.836 782.945 468.836C782.945 468.836 777.055 456.996 777.195 468.836C777.325 479.806 772.605 518.516 771.905 524.166Z" fill="#AFB7BC"/>
<path d="M786.845 482.266C786.555 481.606 788.095 495.726 782.645 499.136L781.295 505.196C781.295 505.196 782.295 505.916 785.295 501.336C788.295 496.756 788.615 486.316 786.845 482.266Z" fill="#AFB7BC"/>
<path d="M769.875 489.746C770.165 489.076 768.625 503.196 774.075 506.606L775.425 512.666C775.425 512.666 774.425 513.386 771.425 508.806C768.425 504.226 768.105 493.746 769.875 489.746Z" fill="#AFB7BC"/>
<path d="M808.335 454.036C813.205 449.906 815.925 443.956 811.735 437.306C807.445 430.496 801.075 428.476 795.075 430.546C792.875 420.376 787.825 409.996 775.525 413.806C768.415 416.006 764.525 421.956 762.925 428.806C758.525 425.886 753.685 425.206 749.865 430.646C746.195 435.866 746.415 440.936 748.755 445.216C742.445 446.416 737.755 449.786 739.295 458.016C740.465 464.126 744.945 467.576 750.415 469.016C748.165 473.576 747.675 478.646 750.415 483.426C754.055 489.866 759.555 492.606 766.795 491.376C772.365 490.426 774.705 486.236 777.315 482.266C781.145 486.756 787.315 490.386 793.025 489.436C798.495 488.526 800.905 484.356 801.885 479.636C809.275 480.166 817.235 478.936 818.135 470.056C818.825 462.746 813.965 457.876 808.335 454.036Z" fill="#D7DBDE"/>
<path d="M116.905 533.166H131.255C128.515 524.806 127.945 477.836 127.945 477.836C127.945 477.836 122.055 465.996 122.195 477.836C122.325 488.806 117.605 527.516 116.905 533.166Z" fill="#AFB7BC"/>
<path d="M131.845 491.266C131.555 490.606 133.095 504.726 127.645 508.136L126.295 514.196C126.295 514.196 127.295 514.916 130.295 510.336C133.295 505.756 133.615 495.316 131.845 491.266Z" fill="#AFB7BC"/>
<path d="M114.875 498.746C115.165 498.076 113.625 512.196 119.075 515.606L120.425 521.666C120.425 521.666 119.425 522.386 116.425 517.806C113.425 513.226 113.105 502.746 114.875 498.746Z" fill="#AFB7BC"/>
<path d="M153.335 463.036C158.205 458.906 160.925 452.956 156.735 446.306C152.445 439.496 146.075 437.476 140.075 439.546C137.875 429.376 132.825 418.996 120.525 422.806C113.415 425.006 109.525 430.956 107.925 437.806C103.525 434.886 98.6849 434.206 94.8649 439.646C91.1949 444.866 91.4149 449.936 93.7549 454.216C87.4449 455.416 82.7549 458.786 84.2949 467.016C85.4649 473.126 89.9449 476.576 95.4149 478.016C93.1649 482.576 92.6749 487.646 95.4149 492.426C99.0549 498.866 104.555 501.606 111.795 500.376C117.365 499.426 119.705 495.236 122.315 491.266C126.145 495.756 132.315 499.386 138.025 498.436C143.495 497.526 145.905 493.356 146.885 488.636C154.275 489.166 162.235 487.936 163.135 479.056C163.825 471.746 158.965 466.876 153.335 463.036Z" fill="#D7DBDE"/>
<path d="M546.69 444.107C547.332 442.967 547.69 441.689 547.733 440.382C547.777 439.075 547.505 437.776 546.94 436.597C549.75 431.917 547.61 424.217 540.51 424.157C540.559 423.05 540.264 421.956 539.667 421.024C539.069 420.092 538.197 419.369 537.171 418.952C536.145 418.536 535.016 418.447 533.938 418.699C532.859 418.95 531.885 419.529 531.15 420.357C530.944 418.404 530.027 416.596 528.574 415.275C527.121 413.955 525.233 413.215 523.27 413.197C521.586 413.202 519.949 413.749 518.6 414.757C517.949 413.573 516.981 412.595 515.804 411.933C514.627 411.27 513.289 410.949 511.94 411.007C510.022 410.945 508.154 411.627 506.728 412.912C505.302 414.196 504.428 415.982 504.29 417.897C503.432 417.579 502.524 417.416 501.61 417.417C499.75 417.426 497.952 418.087 496.53 419.287C495.823 418.378 494.91 417.651 493.867 417.164C492.824 416.677 491.68 416.445 490.53 416.487C485.66 416.487 483.09 420.057 482.83 423.837C482.111 424.078 481.45 424.466 480.89 424.977C479.753 424.414 478.498 424.129 477.23 424.147C469.72 424.147 467.7 432.637 471.13 437.237C470.23 439.367 470.13 442.097 471.76 443.737C471.07 444.657 470.14 445.737 470.14 446.997V447.157C470.14 448.007 470.86 448.807 471.22 449.527C465.65 453.307 467.37 464.217 475.89 464.217C477.501 464.248 479.085 463.799 480.44 462.927C481.337 463.407 482.342 463.651 483.36 463.637C484.136 463.668 484.909 463.529 485.626 463.231C486.343 462.932 486.986 462.48 487.51 461.907C488.753 462.629 490.172 462.995 491.61 462.967C492.39 462.966 493.167 462.862 493.92 462.657C494.622 463.621 495.549 464.399 496.621 464.922C497.694 465.445 498.878 465.697 500.07 465.657C503.28 465.657 505.48 464.477 506.69 462.347C507.777 462.993 508.992 463.396 510.25 463.527H510.41C512.275 463.469 514.061 462.762 515.46 461.527C515.912 463.093 516.88 464.462 518.206 465.411C519.533 466.36 521.141 466.834 522.77 466.757C528.22 466.757 530.77 462.247 530.46 458.037C530.957 458.784 531.639 459.389 532.44 459.794C533.241 460.199 534.133 460.389 535.03 460.347C538.71 460.347 540.98 456.157 539.84 452.917C540.796 453.867 542.073 454.423 543.42 454.477H543.58C545.058 454.422 546.459 453.799 547.49 452.737C548.52 451.675 549.1 450.256 549.11 448.777C549.096 447.864 548.87 446.967 548.45 446.156C548.03 445.346 547.427 444.644 546.69 444.107Z" fill="#D7DBDE"/>
<path d="M510.82 446.517C510.88 446.517 509.82 446.737 509.34 446.867C509.1 446.927 509.11 447.167 509.11 447.257V447.577C509.11 448.067 509.19 448.777 509.19 449.677C509.19 451.487 509.24 454.067 509.26 457.167C509.28 460.267 509.31 463.877 509.37 467.747C509.43 471.617 509.48 475.747 509.58 479.877C509.68 484.007 509.77 488.137 509.9 492.007C510.03 495.877 510.17 499.297 510.29 502.387C510.55 508.587 510.82 512.517 510.82 512.517H504.82C504.82 512.517 505.08 508.587 505.35 502.387C505.47 499.297 505.62 495.777 505.73 491.907C505.84 488.037 505.96 483.957 506.05 479.827C506.14 475.697 506.19 471.597 506.25 467.717C506.31 463.837 506.34 460.247 506.34 457.147C506.34 454.047 506.23 451.477 506.24 449.667C506.24 448.767 506.11 448.067 506.11 447.577V447.257C506.11 447.167 506.33 446.927 506.11 446.867C505.67 446.737 504.77 446.517 504.84 446.517H510.82Z" fill="#AFB7BC"/>
<path d="M490.94 451.967C490.94 451.967 490.3 452.077 490.02 452.167C489.74 452.257 489.94 452.237 489.93 452.277V452.407C489.93 452.617 490.02 452.927 490.08 453.317C490.23 454.107 490.48 455.227 490.87 456.557C491.296 458.062 491.852 459.527 492.53 460.937C492.9 461.729 493.314 462.501 493.77 463.247C494.229 464.013 494.744 464.745 495.31 465.437C495.864 466.115 496.469 466.751 497.12 467.337C497.738 467.889 498.408 468.381 499.12 468.807C500.349 469.55 501.705 470.059 503.12 470.307C503.685 470.406 504.256 470.466 504.83 470.487C505.34 470.487 505.78 470.487 506.15 470.487L507.3 470.367L507.52 474.367L506.08 474.277C505.62 474.277 505.08 474.137 504.43 474.067C503.721 473.931 503.02 473.758 502.33 473.547C500.615 473.024 499 472.22 497.55 471.167C496.751 470.583 496.005 469.93 495.32 469.217C494.617 468.498 493.972 467.726 493.39 466.907C492.82 466.1 492.296 465.262 491.82 464.397C491.362 463.566 490.948 462.711 490.58 461.837C489.936 460.306 489.388 458.736 488.94 457.137C488.621 456.008 488.36 454.863 488.16 453.707C488.09 453.287 488.03 452.947 488 452.707C487.995 452.654 487.995 452.6 488 452.547C488 452.547 488 452.457 487.88 452.447C487.57 452.447 486.88 452.447 486.88 452.447L490.94 451.967Z" fill="#AFB7BC"/>
<path d="M527.46 458.246C527.46 458.246 526.81 458.196 526.51 458.246C526.21 458.296 526.41 458.296 526.39 458.346C526.394 458.396 526.394 458.446 526.39 458.496C526.39 458.726 526.3 459.056 526.23 459.496C526.028 460.649 525.768 461.79 525.45 462.916C525.002 464.519 524.454 466.092 523.81 467.626C523.45 468.466 523.04 469.326 522.57 470.176C522.092 471.041 521.568 471.878 521 472.686C520.423 473.51 519.777 474.282 519.07 474.996C518.387 475.713 517.641 476.365 516.84 476.946C515.392 478.005 513.776 478.813 512.06 479.336C511.371 479.549 510.67 479.72 509.96 479.846C509.33 479.926 508.77 480.026 508.31 480.066L506.87 480.156L507.09 476.156L508.24 476.286C508.61 476.286 509.05 476.286 509.56 476.286C510.133 476.261 510.704 476.201 511.27 476.106C512.685 475.855 514.041 475.343 515.27 474.596C515.984 474.174 516.654 473.682 517.27 473.126C517.923 472.543 518.528 471.907 519.08 471.226C519.646 470.538 520.16 469.81 520.62 469.046C521.074 468.299 521.488 467.528 521.86 466.736C522.535 465.322 523.09 463.854 523.52 462.346C523.844 461.281 524.111 460.2 524.32 459.106C524.39 458.716 524.45 458.406 524.48 458.196C524.484 458.15 524.484 458.103 524.48 458.056C524.48 458.056 524.55 457.996 524.39 457.946C524.23 457.896 523.39 457.746 523.47 457.756L527.46 458.246Z" fill="#AFB7BC"/>
<path d="M911.69 529.107C912.332 527.967 912.69 526.689 912.733 525.382C912.777 524.075 912.505 522.776 911.94 521.597C914.75 516.917 912.61 509.217 905.51 509.157C905.559 508.05 905.264 506.956 904.667 506.024C904.069 505.092 903.197 504.369 902.171 503.952C901.145 503.536 900.016 503.447 898.938 503.699C897.859 503.95 896.885 504.529 896.15 505.357C895.944 503.404 895.027 501.596 893.574 500.275C892.121 498.955 890.233 498.215 888.27 498.197C886.586 498.202 884.949 498.749 883.6 499.757C882.949 498.573 881.981 497.595 880.804 496.933C879.627 496.27 878.289 495.949 876.94 496.007C875.022 495.945 873.154 496.627 871.728 497.912C870.302 499.196 869.428 500.982 869.29 502.897C868.432 502.579 867.524 502.416 866.61 502.417C864.75 502.426 862.952 503.087 861.53 504.287C860.823 503.378 859.91 502.651 858.867 502.164C857.824 501.677 856.68 501.445 855.53 501.487C850.66 501.487 848.09 505.057 847.83 508.837C847.111 509.078 846.45 509.466 845.89 509.977C844.753 509.414 843.498 509.129 842.23 509.147C834.72 509.147 832.7 517.637 836.13 522.237C835.23 524.367 835.13 527.097 836.76 528.737C836.07 529.657 835.14 530.737 835.14 531.997V532.157C835.14 533.007 835.86 533.807 836.22 534.527C830.65 538.307 832.37 549.217 840.89 549.217C842.501 549.248 844.085 548.799 845.44 547.927C846.337 548.407 847.342 548.651 848.36 548.637C849.136 548.668 849.909 548.529 850.626 548.231C851.343 547.932 851.986 547.48 852.51 546.907C853.753 547.629 855.172 547.995 856.61 547.967C857.39 547.966 858.167 547.862 858.92 547.657C859.622 548.621 860.549 549.399 861.621 549.922C862.694 550.445 863.878 550.697 865.07 550.657C868.28 550.657 870.48 549.477 871.69 547.347C872.777 547.993 873.992 548.396 875.25 548.527H875.41C877.275 548.469 879.061 547.762 880.46 546.527C880.912 548.093 881.88 549.462 883.206 550.411C884.533 551.36 886.141 551.834 887.77 551.757C893.22 551.757 895.77 547.247 895.46 543.037C895.957 543.784 896.639 544.389 897.44 544.794C898.241 545.199 899.133 545.389 900.03 545.347C903.71 545.347 905.98 541.157 904.84 537.917C905.796 538.867 907.073 539.423 908.42 539.477H908.58C910.058 539.422 911.459 538.799 912.49 537.737C913.52 536.675 914.1 535.256 914.11 533.777C914.096 532.864 913.87 531.967 913.45 531.156C913.03 530.346 912.427 529.644 911.69 529.107Z" fill="#AFB7BC"/>
<path d="M190.69 532.107C191.332 530.967 191.69 529.689 191.733 528.382C191.777 527.075 191.505 525.776 190.94 524.597C193.75 519.917 191.61 512.217 184.51 512.157C184.559 511.05 184.264 509.956 183.667 509.024C183.069 508.092 182.197 507.369 181.171 506.952C180.145 506.536 179.016 506.447 177.938 506.699C176.859 506.95 175.885 507.529 175.15 508.357C174.944 506.404 174.027 504.596 172.574 503.275C171.121 501.955 169.233 501.215 167.27 501.197C165.586 501.202 163.949 501.749 162.6 502.757C161.949 501.573 160.981 500.595 159.804 499.933C158.627 499.27 157.289 498.949 155.94 499.007C154.022 498.945 152.154 499.627 150.728 500.912C149.302 502.196 148.428 503.982 148.29 505.897C147.432 505.579 146.524 505.416 145.61 505.417C143.75 505.426 141.952 506.087 140.53 507.287C139.823 506.378 138.91 505.651 137.867 505.164C136.824 504.677 135.68 504.445 134.53 504.487C129.66 504.487 127.09 508.057 126.83 511.837C126.111 512.078 125.45 512.466 124.89 512.977C123.753 512.414 122.498 512.129 121.23 512.147C113.72 512.147 111.7 520.637 115.13 525.237C114.23 527.367 114.13 530.097 115.76 531.737C115.07 532.657 114.14 533.737 114.14 534.997V535.157C114.14 536.007 114.86 536.807 115.22 537.527C109.65 541.307 111.37 552.217 119.89 552.217C121.501 552.248 123.085 551.799 124.44 550.927C125.337 551.407 126.342 551.651 127.36 551.637C128.136 551.668 128.909 551.529 129.626 551.231C130.343 550.932 130.986 550.48 131.51 549.907C132.753 550.629 134.172 550.995 135.61 550.967C136.39 550.966 137.167 550.862 137.92 550.657C138.622 551.621 139.549 552.399 140.621 552.922C141.694 553.445 142.878 553.697 144.07 553.657C147.28 553.657 149.48 552.477 150.69 550.347C151.777 550.993 152.992 551.396 154.25 551.527H154.41C156.275 551.469 158.061 550.762 159.46 549.527C159.912 551.093 160.88 552.462 162.206 553.411C163.533 554.36 165.141 554.834 166.77 554.757C172.22 554.757 174.77 550.247 174.46 546.037C174.957 546.784 175.639 547.389 176.44 547.794C177.241 548.199 178.133 548.389 179.03 548.347C182.71 548.347 184.98 544.157 183.84 540.917C184.796 541.867 186.073 542.423 187.42 542.477H187.58C189.058 542.422 190.459 541.799 191.49 540.737C192.52 539.675 193.1 538.256 193.11 536.777C193.096 535.864 192.87 534.967 192.45 534.156C192.03 533.346 191.427 532.644 190.69 532.107Z" fill="#AFB7BC"/>
<path d="M71.6897 535.107C72.3317 533.967 72.6896 532.689 72.7331 531.382C72.7767 530.075 72.5045 528.776 71.9397 527.597C74.7497 522.917 72.6097 515.217 65.5097 515.157C65.5589 514.05 65.2644 512.956 64.6666 512.024C64.0688 511.092 63.1971 510.369 62.1713 509.952C61.1454 509.536 60.0158 509.447 58.9376 509.699C57.8594 509.95 56.8855 510.529 56.1497 511.357C55.9437 509.404 55.0268 507.596 53.5738 506.275C52.1207 504.955 50.2329 504.215 48.2697 504.197C46.5861 504.202 44.9488 504.749 43.5997 505.757C42.949 504.573 41.9807 503.595 40.804 502.933C39.6273 502.27 38.2889 501.949 36.9397 502.007C35.0216 501.945 33.154 502.627 31.728 503.912C30.302 505.196 29.4282 506.982 29.2897 508.897C28.4319 508.579 27.5245 508.416 26.6097 508.417C24.7496 508.426 22.9517 509.087 21.5297 510.287C20.8227 509.378 19.9101 508.651 18.867 508.164C17.8239 507.677 16.6801 507.445 15.5297 507.487C10.6597 507.487 8.08974 511.057 7.82973 514.837C7.11093 515.078 6.45023 515.466 5.88973 515.977C4.7528 515.414 3.49828 515.129 2.22973 515.147C-5.28027 515.147 -7.30028 523.637 -3.87028 528.237C-4.77028 530.367 -4.87027 533.097 -3.24027 534.737C-3.93027 535.657 -4.86027 536.737 -4.86027 537.997V538.157C-4.86027 539.007 -4.14028 539.807 -3.78028 540.527C-9.35028 544.307 -7.63027 555.217 0.889732 555.217C2.50088 555.248 4.0849 554.799 5.43972 553.927C6.33707 554.407 7.34193 554.651 8.35973 554.637C9.13574 554.668 9.90921 554.529 10.6261 554.231C11.3429 553.932 11.9858 553.48 12.5097 552.907C13.7535 553.629 15.1718 553.995 16.6097 553.967C17.3901 553.966 18.1669 553.862 18.9197 553.657C19.6217 554.621 20.5493 555.399 21.6215 555.922C22.6936 556.445 23.8775 556.697 25.0697 556.657C28.2797 556.657 30.4797 555.477 31.6897 553.347C32.7768 553.993 33.9915 554.396 35.2497 554.527H35.4097C37.2748 554.469 39.0612 553.762 40.4597 552.527C40.9123 554.093 41.88 555.462 43.2064 556.411C44.5329 557.36 46.1406 557.834 47.7697 557.757C53.2197 557.757 55.7697 553.247 55.4597 549.037C55.9567 549.784 56.639 550.389 57.44 550.794C58.241 551.199 59.1333 551.389 60.0297 551.347C63.7097 551.347 65.9797 547.157 64.8397 543.917C65.7955 544.867 67.0731 545.423 68.4197 545.477H68.5797C70.0585 545.422 71.4592 544.799 72.4896 543.737C73.52 542.675 74.1004 541.256 74.1097 539.777C74.0958 538.864 73.8699 537.967 73.45 537.156C73.03 536.346 72.4274 535.644 71.6897 535.107Z" fill="#AFB7BC"/>
<path d="M967.69 533.107C968.332 531.967 968.69 530.689 968.733 529.382C968.777 528.075 968.505 526.776 967.94 525.597C970.75 520.917 968.61 513.217 961.51 513.157C961.559 512.05 961.264 510.956 960.667 510.024C960.069 509.092 959.197 508.369 958.171 507.952C957.145 507.536 956.016 507.447 954.938 507.699C953.859 507.95 952.885 508.529 952.15 509.357C951.944 507.404 951.027 505.596 949.574 504.275C948.121 502.955 946.233 502.215 944.27 502.197C942.586 502.202 940.949 502.749 939.6 503.757C938.949 502.573 937.981 501.595 936.804 500.933C935.627 500.27 934.289 499.949 932.94 500.007C931.022 499.945 929.154 500.627 927.728 501.912C926.302 503.196 925.428 504.982 925.29 506.897C924.432 506.579 923.524 506.416 922.61 506.417C920.75 506.426 918.952 507.087 917.53 508.287C916.823 507.378 915.91 506.651 914.867 506.164C913.824 505.677 912.68 505.445 911.53 505.487C906.66 505.487 904.09 509.057 903.83 512.837C903.111 513.078 902.45 513.466 901.89 513.977C900.753 513.414 899.498 513.129 898.23 513.147C890.72 513.147 888.7 521.637 892.13 526.237C891.23 528.367 891.13 531.097 892.76 532.737C892.07 533.657 891.14 534.737 891.14 535.997V536.157C891.14 537.007 891.86 537.807 892.22 538.527C886.65 542.307 888.37 553.217 896.89 553.217C898.501 553.248 900.085 552.799 901.44 551.927C902.337 552.407 903.342 552.651 904.36 552.637C905.136 552.668 905.909 552.529 906.626 552.231C907.343 551.932 907.986 551.48 908.51 550.907C909.753 551.629 911.172 551.995 912.61 551.967C913.39 551.966 914.167 551.862 914.92 551.657C915.622 552.621 916.549 553.399 917.621 553.922C918.694 554.445 919.878 554.697 921.07 554.657C924.28 554.657 926.48 553.477 927.69 551.347C928.777 551.993 929.992 552.396 931.25 552.527H931.41C933.275 552.469 935.061 551.762 936.46 550.527C936.912 552.093 937.88 553.462 939.206 554.411C940.533 555.36 942.141 555.834 943.77 555.757C949.22 555.757 951.77 551.247 951.46 547.037C951.957 547.784 952.639 548.389 953.44 548.794C954.241 549.199 955.133 549.389 956.03 549.347C959.71 549.347 961.98 545.157 960.84 541.917C961.796 542.867 963.073 543.423 964.42 543.477H964.58C966.058 543.422 967.459 542.799 968.49 541.737C969.52 540.675 970.1 539.256 970.11 537.777C970.096 536.864 969.87 535.967 969.45 535.156C969.03 534.346 968.427 533.644 967.69 533.107Z" fill="#9BA4AB"/>
<path d="M1011.69 540.107C1012.33 538.967 1012.69 537.689 1012.73 536.382C1012.78 535.075 1012.5 533.776 1011.94 532.597C1014.75 527.917 1012.61 520.217 1005.51 520.157C1005.56 519.05 1005.26 517.956 1004.67 517.024C1004.07 516.092 1003.2 515.369 1002.17 514.952C1001.15 514.536 1000.02 514.447 998.938 514.699C997.859 514.95 996.885 515.529 996.15 516.357C995.944 514.404 995.027 512.596 993.574 511.275C992.121 509.955 990.233 509.215 988.27 509.197C986.586 509.202 984.949 509.749 983.6 510.757C982.949 509.573 981.981 508.595 980.804 507.933C979.627 507.27 978.289 506.949 976.94 507.007C975.022 506.945 973.154 507.627 971.728 508.912C970.302 510.196 969.428 511.982 969.29 513.897C968.432 513.579 967.524 513.416 966.61 513.417C964.75 513.426 962.952 514.087 961.53 515.287C960.823 514.378 959.91 513.651 958.867 513.164C957.824 512.677 956.68 512.445 955.53 512.487C950.66 512.487 948.09 516.057 947.83 519.837C947.111 520.078 946.45 520.466 945.89 520.977C944.753 520.414 943.498 520.129 942.23 520.147C934.72 520.147 932.7 528.637 936.13 533.237C935.23 535.367 935.13 538.097 936.76 539.737C936.07 540.657 935.14 541.737 935.14 542.997V543.157C935.14 544.007 935.86 544.807 936.22 545.527C930.65 549.307 932.37 560.217 940.89 560.217C942.501 560.248 944.085 559.799 945.44 558.927C946.337 559.407 947.342 559.651 948.36 559.637C949.136 559.668 949.909 559.529 950.626 559.231C951.343 558.932 951.986 558.48 952.51 557.907C953.753 558.629 955.172 558.995 956.61 558.967C957.39 558.966 958.167 558.862 958.92 558.657C959.622 559.621 960.549 560.399 961.621 560.922C962.694 561.445 963.878 561.697 965.07 561.657C968.28 561.657 970.48 560.477 971.69 558.347C972.777 558.993 973.992 559.396 975.25 559.527H975.41C977.275 559.469 979.061 558.762 980.46 557.527C980.912 559.093 981.88 560.462 983.206 561.411C984.533 562.36 986.141 562.834 987.77 562.757C993.22 562.757 995.77 558.247 995.46 554.037C995.957 554.784 996.639 555.389 997.44 555.794C998.241 556.199 999.133 556.389 1000.03 556.347C1003.71 556.347 1005.98 552.157 1004.84 548.917C1005.8 549.867 1007.07 550.423 1008.42 550.477H1008.58C1010.06 550.422 1011.46 549.799 1012.49 548.737C1013.52 547.675 1014.1 546.256 1014.11 544.777C1014.1 543.864 1013.87 542.967 1013.45 542.156C1013.03 541.346 1012.43 540.644 1011.69 540.107Z" fill="#AFB7BC"/>
<path d="M1079.14 541.183C1079.9 539.834 1080.32 538.322 1080.37 536.775C1080.42 535.228 1080.1 533.691 1079.43 532.295C1082.76 526.756 1080.22 517.642 1071.82 517.571C1071.88 516.262 1071.53 514.967 1070.82 513.864C1070.12 512.761 1069.08 511.905 1067.87 511.412C1066.66 510.919 1065.32 510.814 1064.04 511.112C1062.77 511.409 1061.61 512.095 1060.74 513.074C1060.5 510.763 1059.41 508.623 1057.69 507.06C1055.97 505.497 1053.74 504.622 1051.42 504.6C1049.42 504.606 1047.49 505.254 1045.89 506.446C1045.12 505.046 1043.97 503.888 1042.58 503.104C1041.19 502.32 1039.6 501.94 1038.01 502.008C1035.74 501.935 1033.53 502.743 1031.84 504.263C1030.15 505.783 1029.12 507.897 1028.95 510.162C1027.94 509.786 1026.86 509.594 1025.78 509.594C1023.58 509.605 1021.45 510.388 1019.77 511.807C1018.93 510.732 1017.85 509.871 1016.62 509.295C1015.38 508.719 1014.03 508.444 1012.67 508.494C1006.9 508.494 1003.86 512.719 1003.55 517.193C1002.7 517.478 1001.92 517.938 1001.26 518.542C999.91 517.876 998.426 517.539 996.924 517.559C988.035 517.559 985.645 527.608 989.704 533.052C988.639 535.573 988.521 538.804 990.45 540.745C989.633 541.834 988.533 543.112 988.533 544.603V544.793C988.533 545.799 989.385 546.746 989.811 547.598C983.218 552.072 985.254 564.984 995.338 564.984C997.245 565.021 999.12 564.49 1000.72 563.457C1001.79 564.026 1002.97 564.315 1004.18 564.298C1005.1 564.335 1006.01 564.171 1006.86 563.817C1007.71 563.463 1008.47 562.929 1009.09 562.25C1010.56 563.105 1012.24 563.539 1013.94 563.505C1014.87 563.504 1015.79 563.381 1016.68 563.138C1017.51 564.279 1018.61 565.2 1019.88 565.819C1021.14 566.438 1022.55 566.736 1023.96 566.688C1027.76 566.688 1030.36 565.292 1031.79 562.771C1033.08 563.536 1034.52 564.013 1036.01 564.167H1036.2C1038.4 564.1 1040.52 563.262 1042.17 561.8C1042.71 563.655 1043.85 565.275 1045.42 566.398C1046.99 567.521 1048.9 568.082 1050.82 567.99C1057.27 567.99 1060.29 562.653 1059.93 557.67C1060.51 558.554 1061.32 559.271 1062.27 559.75C1063.22 560.229 1064.27 560.455 1065.34 560.404C1069.69 560.404 1072.38 555.445 1071.03 551.61C1072.16 552.734 1073.67 553.393 1075.27 553.456H1075.45C1077.21 553.392 1078.86 552.655 1080.08 551.398C1081.3 550.141 1081.99 548.462 1082 546.71C1081.98 545.63 1081.72 544.568 1081.22 543.609C1080.72 542.65 1080.01 541.819 1079.14 541.183Z" fill="#87929B"/>
<path d="M1161.72 550.12C1162.59 548.567 1163.07 546.826 1163.13 545.044C1163.19 543.262 1162.82 541.493 1162.06 539.885C1165.87 533.506 1162.97 523.012 1153.34 522.931C1153.4 521.423 1153 519.932 1152.19 518.662C1151.38 517.392 1150.2 516.405 1148.81 515.838C1147.42 515.27 1145.89 515.149 1144.42 515.492C1142.96 515.835 1141.64 516.624 1140.64 517.752C1140.36 515.091 1139.12 512.626 1137.15 510.827C1135.18 509.027 1132.62 508.019 1129.96 507.994C1127.67 508.001 1125.45 508.747 1123.62 510.12C1122.74 508.507 1121.43 507.174 1119.83 506.271C1118.24 505.368 1116.42 504.931 1114.59 505.009C1111.99 504.925 1109.46 505.855 1107.52 507.606C1105.59 509.356 1104.4 511.79 1104.22 514.399C1103.05 513.966 1101.82 513.745 1100.58 513.745C1098.06 513.757 1095.62 514.659 1093.69 516.293C1092.73 515.055 1091.5 514.064 1090.08 513.4C1088.67 512.737 1087.11 512.421 1085.55 512.477C1078.95 512.477 1075.46 517.343 1075.11 522.495C1074.14 522.823 1073.24 523.352 1072.48 524.048C1070.94 523.281 1069.24 522.893 1067.52 522.917C1057.33 522.917 1054.59 534.488 1059.24 540.757C1058.02 543.66 1057.89 547.38 1060.1 549.616C1059.16 550.869 1057.9 552.341 1057.9 554.059V554.277C1057.9 555.435 1058.88 556.525 1059.37 557.507C1051.81 562.658 1054.15 577.527 1065.7 577.527C1067.88 577.57 1070.03 576.958 1071.87 575.769C1073.09 576.424 1074.45 576.757 1075.83 576.737C1076.88 576.779 1077.93 576.591 1078.9 576.183C1079.88 575.776 1080.75 575.16 1081.46 574.379C1083.15 575.363 1085.07 575.863 1087.02 575.824C1088.08 575.823 1089.13 575.681 1090.15 575.401C1091.1 576.715 1092.36 577.775 1093.82 578.488C1095.27 579.201 1096.88 579.545 1098.49 579.49C1102.85 579.49 1105.83 577.881 1107.47 574.979C1108.94 575.86 1110.59 576.409 1112.3 576.587H1112.52C1115.04 576.509 1117.47 575.544 1119.36 573.861C1119.98 575.997 1121.29 577.862 1123.09 579.155C1124.89 580.448 1127.07 581.095 1129.28 580.989C1136.67 580.989 1140.13 574.842 1139.71 569.105C1140.38 570.123 1141.31 570.949 1142.39 571.5C1143.48 572.052 1144.69 572.311 1145.9 572.253C1150.9 572.253 1153.97 566.542 1152.43 562.127C1153.72 563.421 1155.46 564.18 1157.28 564.253H1157.5C1159.51 564.179 1161.41 563.33 1162.8 561.882C1164.2 560.435 1164.99 558.501 1165 556.484C1164.98 555.241 1164.67 554.018 1164.11 552.914C1163.54 551.809 1162.72 550.853 1161.72 550.12Z" fill="#9BA4AB"/>
<path d="M1231.51 554.495C1232.44 552.86 1232.95 551.027 1233.01 549.152C1233.08 547.276 1232.68 545.413 1231.87 543.721C1235.92 537.007 1232.84 525.96 1222.59 525.874C1222.67 524.288 1222.24 522.718 1221.38 521.381C1220.52 520.044 1219.26 519.006 1217.78 518.408C1216.3 517.811 1214.67 517.684 1213.11 518.044C1211.56 518.405 1210.15 519.236 1209.09 520.423C1208.8 517.622 1207.47 515.027 1205.38 513.133C1203.28 511.239 1200.56 510.178 1197.73 510.151C1195.3 510.159 1192.94 510.944 1190.99 512.389C1190.05 510.692 1188.65 509.288 1186.96 508.338C1185.26 507.387 1183.33 506.927 1181.38 507.009C1178.62 506.921 1175.92 507.9 1173.86 509.743C1171.81 511.585 1170.55 514.148 1170.35 516.894C1169.11 516.438 1167.8 516.205 1166.48 516.205C1163.8 516.218 1161.21 517.168 1159.15 518.888C1158.13 517.585 1156.82 516.541 1155.31 515.843C1153.81 515.144 1152.16 514.811 1150.5 514.871C1143.47 514.871 1139.77 519.992 1139.39 525.415C1138.35 525.761 1137.4 526.318 1136.59 527.051C1134.95 526.243 1133.14 525.835 1131.31 525.86C1120.48 525.86 1117.57 538.04 1122.51 544.639C1121.22 547.695 1121.07 551.611 1123.42 553.964C1122.43 555.284 1121.09 556.833 1121.09 558.641V558.87C1121.09 560.089 1122.13 561.237 1122.64 562.27C1114.61 567.693 1117.09 583.344 1129.38 583.344C1131.7 583.39 1133.99 582.745 1135.94 581.494C1137.24 582.183 1138.69 582.534 1140.16 582.512C1141.28 582.557 1142.39 582.359 1143.43 581.93C1144.46 581.501 1145.39 580.853 1146.14 580.03C1147.94 581.067 1149.98 581.593 1152.06 581.551C1153.18 581.551 1154.3 581.401 1155.39 581.106C1156.4 582.49 1157.74 583.606 1159.29 584.356C1160.83 585.106 1162.54 585.468 1164.26 585.41C1168.89 585.41 1172.06 583.717 1173.81 580.662C1175.38 581.59 1177.13 582.167 1178.94 582.355H1179.18C1181.87 582.272 1184.44 581.257 1186.46 579.485C1187.11 581.733 1188.51 583.697 1190.42 585.058C1192.34 586.419 1194.65 587.099 1197 586.988C1204.87 586.988 1208.54 580.518 1208.1 574.479C1208.81 575.551 1209.8 576.42 1210.95 577C1212.11 577.581 1213.4 577.854 1214.69 577.792C1220 577.792 1223.27 571.781 1221.63 567.133C1223.01 568.496 1224.85 569.295 1226.79 569.371H1227.02C1229.16 569.294 1231.18 568.4 1232.66 566.876C1234.15 565.353 1234.99 563.317 1235 561.194C1234.98 559.885 1234.65 558.598 1234.05 557.435C1233.44 556.273 1232.57 555.266 1231.51 554.495Z" fill="#87929B"/>
<path d="M1332 565.619C1333.06 563.739 1333.65 561.631 1333.73 559.474C1333.8 557.318 1333.35 555.175 1332.41 553.229C1337.06 545.508 1333.52 532.804 1321.79 532.705C1321.87 530.881 1321.39 529.076 1320.4 527.538C1319.41 526.001 1317.97 524.806 1316.28 524.119C1314.58 523.432 1312.72 523.286 1310.93 523.701C1309.15 524.116 1307.54 525.071 1306.33 526.436C1305.99 523.215 1304.47 520.232 1302.07 518.053C1299.67 515.875 1296.55 514.654 1293.31 514.624C1290.53 514.633 1287.82 515.536 1285.59 517.197C1284.52 515.245 1282.92 513.632 1280.98 512.539C1279.03 511.446 1276.82 510.916 1274.59 511.011C1271.42 510.909 1268.34 512.035 1265.98 514.154C1263.63 516.273 1262.18 519.22 1261.95 522.378C1260.54 521.854 1259.04 521.585 1257.53 521.586C1254.45 521.601 1251.48 522.693 1249.13 524.671C1247.97 523.172 1246.46 521.972 1244.73 521.169C1243.01 520.366 1241.12 519.983 1239.22 520.052C1231.18 520.052 1226.93 525.941 1226.5 532.178C1225.31 532.575 1224.22 533.216 1223.29 534.058C1221.42 533.13 1219.34 532.66 1217.25 532.689C1204.84 532.689 1201.5 546.696 1207.17 554.285C1205.68 557.799 1205.52 562.303 1208.21 565.008C1207.07 566.526 1205.54 568.308 1205.54 570.387V570.651C1205.54 572.053 1206.72 573.373 1207.32 574.561C1198.12 580.797 1200.96 598.796 1215.03 598.796C1217.7 598.848 1220.31 598.107 1222.55 596.668C1224.03 597.461 1225.69 597.864 1227.38 597.839C1228.66 597.891 1229.94 597.662 1231.12 597.169C1232.3 596.676 1233.37 595.931 1234.23 594.985C1236.29 596.177 1238.63 596.781 1241.01 596.734C1242.29 596.733 1243.58 596.561 1244.82 596.222C1245.98 597.813 1247.51 599.097 1249.29 599.959C1251.06 600.822 1253.01 601.238 1254.98 601.172C1260.29 601.172 1263.92 599.225 1265.92 595.711C1267.71 596.778 1269.72 597.442 1271.8 597.658H1272.06C1275.15 597.563 1278.1 596.396 1280.41 594.358C1281.16 596.943 1282.75 599.201 1284.95 600.767C1287.14 602.332 1289.79 603.114 1292.48 602.986C1301.49 602.986 1305.7 595.546 1305.19 588.6C1306.01 589.833 1307.14 590.832 1308.46 591.5C1309.78 592.168 1311.26 592.482 1312.74 592.411C1318.82 592.411 1322.57 585.499 1320.69 580.153C1322.26 581.721 1324.37 582.639 1326.6 582.727H1326.86C1329.31 582.638 1331.62 581.61 1333.32 579.858C1335.03 578.105 1335.98 575.765 1336 573.323C1335.98 571.818 1335.6 570.338 1334.91 569.001C1334.22 567.664 1333.22 566.506 1332 565.619Z" fill="#9BA4AB"/>
<path d="M393.095 91.4551C389.474 90.9723 385.853 91.2137 382.714 91.6965C380.3 63.2099 356.401 41 327.431 41C302.566 41 281.563 57.416 274.562 79.8673C273.838 79.8673 272.872 79.6259 272.148 79.6259C258.87 79.6259 247.765 88.7996 245.11 101.353C242.696 100.87 240.04 100.629 237.384 100.629C216.382 100.629 199.483 117.528 199.483 138.53C199.483 141.91 199.966 145.29 200.931 148.428C201.897 152.049 205.035 154.464 208.656 154.464H310.532C313.671 164.12 322.844 171.362 333.466 171.362C338.053 171.362 342.399 169.914 346.261 167.741C352.538 176.432 362.919 181.985 374.265 181.985C390.922 181.985 404.924 170.155 408.304 154.464H413.374C416.029 154.464 418.444 153.257 419.892 151.325C423.996 145.531 426.652 138.53 427.134 130.805C427.617 111.251 412.65 93.6278 393.095 91.4551Z" fill="url(#paint0_linear_161_48964)"/>
<path opacity="0.8" d="M83.9996 152.549C86.8903 140.987 98.029 132.368 111.379 132.368C113.768 132.367 116.148 132.648 118.471 133.206C125.062 120.155 139.356 111.112 155.939 111.112C160.103 111.107 164.247 111.689 168.248 112.841C177.171 99.1538 193.387 90 211.912 90C233.944 90 252.733 102.95 259.839 121.094C265.092 118.394 270.916 116.991 276.822 117.004C296.141 117.004 311.804 131.51 311.804 149.408C311.804 150.457 311.747 151.506 311.635 152.549H83.9996Z" fill="#D7DBDE"/>
<path opacity="0.8" d="M128 150.999C130.891 162.562 142.029 171.181 155.379 171.181C157.768 171.182 160.148 170.901 162.471 170.343C169.062 183.394 183.356 192.437 199.939 192.437C204.103 192.442 208.247 191.86 212.249 190.708C221.171 204.395 237.388 213.549 255.912 213.549C277.944 213.549 296.733 200.599 303.839 182.455C309.092 185.155 314.916 186.558 320.822 186.545C340.142 186.545 355.804 172.039 355.804 154.141C355.804 153.091 355.748 152.043 355.636 150.999L128 150.999Z" fill="#D7DBDE"/>
<path opacity="0.8" d="M1060 177.434C1062.45 167.562 1071.98 160.201 1083.38 160.201C1085.42 160.2 1087.45 160.441 1089.44 160.919C1095.06 149.77 1107.26 142.052 1121.43 142.052C1124.99 142.043 1128.52 142.535 1131.94 143.512C1139.56 131.819 1153.41 124 1169.23 124C1188.05 124 1204.08 135.081 1210.15 150.556C1214.64 148.249 1219.62 147.053 1224.67 147.068C1241.17 147.068 1254.54 159.454 1254.54 174.736C1254.54 175.633 1254.49 176.528 1254.4 177.42L1060 177.434Z" fill="#D7DBDE"/>
<path opacity="0.8" d="M199 151.04C200.962 143.274 208.636 137.472 217.776 137.472C219.413 137.473 221.044 137.663 222.635 138.039C227.157 129.268 236.958 123.196 248.329 123.196C251.183 123.191 254.024 123.582 256.767 124.356C262.893 115.153 273.974 109 286.714 109C301.856 109 314.699 117.71 319.579 129.916C323.185 128.1 327.184 127.158 331.238 127.17C344.487 127.17 355.225 136.919 355.225 148.949C355.225 149.664 355.183 150.366 355.114 151.06L199 151.04Z" fill="#D7DBDE"/>
</g>
<defs>
<filter id="filter0_i_161_48964" x="-62" y="392" width="107.91" height="100" filterUnits="userSpaceOnUse" color-interpolation-filters="sRGB">
<feFlood flood-opacity="0" result="BackgroundImageFix"/>
<feBlend mode="normal" in="SourceGraphic" in2="BackgroundImageFix" result="shape"/>
<feColorMatrix in="SourceAlpha" type="matrix" values="0 0 0 0 0 0 0 0 0 0 0 0 0 0 0 0 0 0 127 0" result="hardAlpha"/>
<feOffset dx="2" dy="1"/>
<feComposite in2="hardAlpha" operator="arithmetic" k2="-1" k3="1"/>
<feColorMatrix type="matrix" values="0 0 0 0 1 0 0 0 0 1 0 0 0 0 1 0 0 0 1 0"/>
<feBlend mode="normal" in2="shape" result="effect1_innerShadow_161_48964"/>
</filter>
<linearGradient id="paint0_linear_161_48964" x1="199.132" y1="111.718" x2="426.667" y2="111.718" gradientUnits="userSpaceOnUse">
<stop stop-color="#C3C9CD"/>
<stop offset="1" stop-color="#D7DBDE"/>
</linearGradient>
<clipPath id="clip0_161_48964">
<rect width="107.91" height="100" fill="white" transform="translate(-62 392)"/>
</clipPath>
</defs>
</svg>
