<svg xmlns="http://www.w3.org/2000/svg" preserveAspectRatio="xMaxYMin slice" xml:space="preserve" id="Слой_1" x="0"
	y="0" version="1.1" viewBox="0 0 840 2861.3" data-hero-bg>
	<style>
		.st0 {
			fill: #fff
		}

		.st1 {
			fill: #ff1301
		}

		.st2 {
			fill: #394556
		}
	</style>
	<path d="m433.4 2771.3-164.2-1023h13.6l164.2 1023h-13.6zm-37.8 0-164.2-1023H245l164.2 1023h-13.6z" class="st0" />
	<path d="m436.1 2771.3-164.2-1023h8.2l164.2 1023h-8.2zm-37.7 0-164.2-1023h8.2l164.2 1023h-8.2z" class="st1" />
	<path d="m406.6 2771.3 173.7-1023H596l-173.7 1023h-15.7zm-43.6 0 173.8-1023h15.7l-173.8 1023H363z" class="st0" />
	<path d="m409.7 2771.3 173.7-1023h9.4l-173.7 1023h-9.4zm-43.5 0 173.8-1023h9.4l-173.8 1023h-9.4z" class="st2" />
	<path d="m-3.1 2771.3-290.4-1023h14l290.4 1023h-14zm38.8 0-290.4-1023h14l290.4 1023h-14z" class="st0" />
	<path d="m-.3 2771.3-290.4-1023h8.4l290.4 1023H-.3zm38.8 0-290.4-1023h8.4l290.4 1023h-8.4z" class="st1" />
	<path d="m349.7 2771.3 381.6-1023h14.4l-381.6 1023h-14.4zm-39.8 0 381.6-1023h14.4l-381.6 1023h-14.4z" class="st0" />
	<path d="m352.6 2771.3 381.6-1023h8.6l-381.6 1023h-8.6zm-39.8 0 381.6-1023h8.6l-381.6 1023h-8.6z" class="st1" />
	<path d="m-254.6 2771.3 316.9-1023h16.2l-316.9 1023h-16.2zm-44.9 0 316.8-1023h16.2l-316.8 1023h-16.2z" class="st0" />
	<path d="m-251.3 2771.3 316.9-1023h9.7l-316.9 1023h-9.7zm-44.9 0 316.8-1023h9.7l-316.8 1023h-9.7z" class="st2" />
	<path d="m269.6 2771.3 211.8-1023h15.8l-211.8 1023h-15.8zm-43.8 0 211.8-1023h15.8l-211.8 1023h-15.8z" class="st0" />
	<path d="m272.8 2771.3 211.8-1023h9.5l-211.8 1023h-9.5zm-43.8 0 211.8-1023h9.5l-211.8 1023H229z" class="st2" />
	<path d="m33 2771.3 71.3-1023h15.5l-71.3 1023H33zm42.9 0 71.4-1023h15.5l-71.4 1023H75.9z" class="st0" />
	<path d="m36.1 2771.3 71.3-1023h9.3l-71.3 1023h-9.3zm42.9 0 71.4-1023h9.3l-71.4 1023H79z" class="st2" />
	<path d="m252.3 2771.3-34.7-1023h13.5l34.7 1023h-13.5zm-37.3 0-34.7-1023h13.5l34.7 1023H215z" class="st0" />
	<path d="m255 2771.3-34.7-1023h8.1l34.7 1023H255zm-37.3 0-34.7-1023h8.1l34.7 1023h-8.1z" class="st2" />
	<path d="m130.1 2771.3-144.2-1023H-.5l144.2 1023h-13.6zm-37.6 0-144.2-1023h13.6l144.2 1023H92.5z" class="st0" />
	<path d="m132.8 2771.3-144.2-1023h8.2l144.2 1023h-8.2zM-49 1748.3l144.2 1023h8.2l-144.2-1023H-49z" class="st1" />
	<path data-hero-path fill="none" stroke="transparent" stroke-miterlimit="10" d="M236.7 2860.7 828 0" />
</svg>
