<?xml version="1.0" encoding="utf-8"?>
<!-- Generator: Adobe Illustrator 24.3.0, SVG Export Plug-In . SVG Version: 6.00 Build 0)  -->
<svg version="1.1" id="Слой_1" xmlns="http://www.w3.org/2000/svg" xmlns:xlink="http://www.w3.org/1999/xlink" x="0px" y="0px"
	 viewBox="0 0 375 230" style="enable-background:new 0 0 375 230;" xml:space="preserve">
<style type="text/css">
	.st0{fill:#FFFFFF;}
	.st1{fill:#FF1301;}
	.st2{fill:#394556;}
	.st3{fill:none;stroke:#000000;stroke-miterlimit:10;}
	.st4{fill:url(#SVGID_1_);}
	.st5{opacity:0.47;}
	.st6{opacity:0.7;}
	.st7{fill:#CDCFD6;}
	.st8{fill:#E21A1A;}
	.st9{fill:#4B5C69;}
	.st10{fill:#C3C9CD;}
	.st11{fill:#394A58;}
	.st12{fill:#EBEDEE;}
	.st13{fill:#D7DBDE;}
	.st14{fill:#9BA4AB;}
</style>
<g>
	<path class="st0" d="M301.6,230l-73.9-461h6.1l73.9,461H301.6z"/>
	<path class="st0" d="M284.6,230l-74-461h6.1l74,461H284.6z"/>
	<path class="st1" d="M302.8,230l-73.9-461h3.7l73.9,461H302.8z"/>
	<path class="st1" d="M285.8,230l-74-461h3.7l74,461H285.8z"/>
	<path class="st0" d="M289.5,230l78.2-461h7.1l-78.2,461H289.5z"/>
	<path class="st0" d="M269.9,230l78.3-461h7.1L277,230H269.9z"/>
	<path class="st2" d="M290.9,230l78.2-461h4.2l-78.2,461H290.9z"/>
	<path class="st2" d="M271.3,230l78.3-461h4.2l-78.3,461H271.3z"/>
	<path class="st0" d="M105,230L-25.7-231h6.3l130.8,461H105z"/>
	<path class="st0" d="M122.5,230L-8.3-231H-2l130.8,461H122.5z"/>
	<path class="st1" d="M106.3,230L-24.5-231h3.8l130.8,461H106.3z"/>
	<path class="st1" d="M123.7,230L-7-231h3.8l130.8,461H123.7z"/>
	<path class="st0" d="M263.9,230l171.8-461h6.5L270.4,230H263.9z"/>
	<path class="st0" d="M246,230l171.8-461h6.5L252.4,230H246z"/>
	<path class="st1" d="M265.2,230L437-231h3.9L269.1,230H265.2z"/>
	<path class="st1" d="M247.2,230l171.8-461h3.9L251.1,230H247.2z"/>
	<path class="st0" d="M-8.2,230l142.7-461h7.3L-0.9,230H-8.2z"/>
	<path class="st0" d="M-28.4,230l142.6-461h7.3L-21.1,230H-28.4z"/>
	<path class="st2" d="M-6.8,230l142.7-461h4.4L-2.4,230H-6.8z"/>
	<path class="st2" d="M-27,230l142.6-461h4.4L-22.6,230H-27z"/>
	<path class="st0" d="M227.8,230l95.4-461h7.1l-95.4,461H227.8z"/>
	<path class="st0" d="M208.1,230l95.4-461h7.1l-95.4,461H208.1z"/>
	<path class="st2" d="M229.2,230l95.4-461h4.3l-95.4,461H229.2z"/>
	<path class="st2" d="M209.5,230l95.4-461h4.3l-95.4,461H209.5z"/>
	<path class="st0" d="M121.3,230l32.1-461h7l-32.1,461H121.3z"/>
	<path class="st0" d="M140.6,230l32.1-461h7l-32.1,461H140.6z"/>
	<path class="st2" d="M122.7,230l32.1-461h4.2l-32.1,461H122.7z"/>
	<path class="st2" d="M142,230l32.1-461h4.2l-32.1,461H142z"/>
	<path class="st0" d="M220,230l-15.6-461h6.1l15.6,461H220z"/>
	<path class="st0" d="M203.2,230l-15.6-461h6.1l15.6,461H203.2z"/>
	<path class="st2" d="M221.2,230l-15.6-461h3.6l15.6,461H221.2z"/>
	<path class="st2" d="M204.4,230l-15.6-461h3.6l15.6,461H204.4z"/>
	<path class="st0" d="M165,230l-64.9-461h6.1l64.9,461H165z"/>
	<path class="st0" d="M148.1,230L83.1-231h6.1l64.9,461H148.1z"/>
	<path class="st1" d="M166.2,230l-64.9-461h3.7l64.9,461H166.2z"/>
	<path class="st0" d="M-2.8-231L-19,230h6.1L3.3-231H-2.8z"/>
	<path class="st1" d="M-1.6-231l-16.2,461h3.6L2.1-231H-1.6z"/>
	<path class="st1" d="M84.3-231l64.9,461h3.7L88-231H84.3z"/>
	<path class="st0" d="M-47.4-231L54.2,230h7.1L-40.2-231H-47.4z"/>
	<path class="st0" d="M-67.1-231L34.4,230h7.1L-60-231H-67.1z"/>
	<path class="st2" d="M-65.7-231L35.9,230h4.3L-61.4-231H-65.7z"/>
	<path class="st2" d="M-45.9-231L55.6,230h4.3L-41.7-231H-45.9z"/>
	<path class="st3" d="M213,270.3l109.8-530.5l54.9-265.9"/>
</g>
<g>
	
		<linearGradient id="SVGID_1_" gradientUnits="userSpaceOnUse" x1="181.2243" y1="248.9183" x2="225.8713" y2="248.9183" gradientTransform="matrix(0.9791 0.2033 -0.2033 0.9791 72.679 -68.5103)">
		<stop  offset="0.2612" style="stop-color:#C0C2CC"/>
		<stop  offset="1" style="stop-color:#CBCDD5"/>
	</linearGradient>
	<path class="st4" d="M222.3,112c7.5-19.5,17.2-32,26.6-30.1c9.4,2,13.5,16.7,13,36.7c-0.1,3.8,0.2,10.1-2.7,25.3
		c-13.9,71.7-42.8,205.9-43.3,208.4c-0.7,3.3-2.5,3-4,2.6l-37.2-7.7c-1.9-0.4-2.7-1.8-2.3-3.9l1.4-7l42-202.1
		c3-13.4,4.9-18.3,6.4-22L222.3,112z"/>
	<g class="st5">
		<path class="st0" d="M225.3,116.4c6.9-19.3,15.3-31.9,23-30.3c7.8,1.6,10.7,15.9,9.6,35.5c-0.2,3.7-0.1,9.9-3.1,24.9
			C241,217,212.7,349.2,212.2,351.6c-0.7,3.3-2.1,3-3.4,2.7l-30.6-6.4c-1.6-0.3-2.2-1.7-1.8-3.8l1.4-6.9l41.3-199
			c3-13.2,4.7-18.1,6-21.8L225.3,116.4z"/>
	</g>
	<g class="st6">
		<path class="st7" d="M204.7,350.3l-21.9-4.5c-1-0.2-1.7-1.2-1.5-2.2l43.1-207.5c0.2-1,1.2-1.6,2.2-1.4l21.9,4.5
			c1,0.2,1.7,1.2,1.5,2.2l-43.1,207.5C206.7,349.9,205.7,350.5,204.7,350.3z"/>
	</g>
	<g>
		<path class="st8" d="M248.2,86.9c-6.9-1.4-17.7,18.8-19.5,23.7c-1,2.8-1.7,5.5-2.1,9c-0.6,5.2,4.2,9.9,11.7,11.5
			c8.4,1.7,15.3-1.4,16.6-5.6c0.7-2.1,0.9-2.6,1.4-9.2C256.7,113.4,255.1,88.3,248.2,86.9z"/>
	</g>
	<g>
		<path class="st9" d="M244.9,102.4c-6.9-1.4-12.6,3.9-15.4,8.4c-1.6,2.5-2.5,5.3-2.9,8.9c-0.6,5.2,4.2,9.9,11.7,11.5
			c8.4,1.7,15.3-1.4,16.6-5.6l0,0c0.7-2,1.1-3.5,0.5-9.4C255.2,113.2,251.8,103.8,244.9,102.4z"/>
	</g>
	<g>
		<path class="st10" d="M244.2,104.1c-6.1-1.3-9.8,1-12.2,4.4c-1.7,2.4-3.3,5.4-3.7,8.9c-0.2,1.8,4.1,3.6,11.8,5.2
			c8.6,1.8,13.3,1.6,13.9-0.1c0.7-2.1,0.9-3.3,0.3-9.2C253.2,109.2,250.3,105.4,244.2,104.1z"/>
	</g>
	<g>
		<path class="st11" d="M240.3,120.9c-10.4-2.2-11.8-5-11.8-5s-0.2,0.6-0.3,1.6c-0.2,1.8,4.1,3.6,11.8,5.2
			c8.6,1.8,13.1,1.5,13.9-0.1c0.2-0.4,0.5-1.8,0.5-1.8S251,123.3,240.3,120.9z"/>
	</g>
	<g>
		<path class="st12" d="M204.9,349.8l-21.3-4.4c-1-0.2-1.6-1.2-1.4-2.1l43-207.1c0.2-1,1.2-1.6,2.1-1.4l21.3,4.4
			c1,0.2,1.6,1.2,1.4,2.1l-43,207.1C206.8,349.4,205.8,350,204.9,349.8z"/>
	</g>
	
		<rect x="118.4" y="242.4" transform="matrix(0.2033 -0.9791 0.9791 0.2033 -60.3776 412.0145)" class="st0" width="209.1" height="1.4"/>
	
		<rect x="113.9" y="241.5" transform="matrix(0.2033 -0.9791 0.9791 0.2033 -63.0686 406.824)" class="st0" width="209.1" height="1.4"/>
	
		<rect x="109.4" y="240.5" transform="matrix(0.2033 -0.9791 0.9791 0.2033 -65.7597 401.6334)" class="st0" width="209.1" height="1.4"/>
	
		<rect x="104.8" y="239.6" transform="matrix(0.2033 -0.9791 0.9791 0.2033 -68.4507 396.4429)" class="st0" width="209.1" height="1.4"/>
	<g>
		<path class="st13" d="M235.5,94.8c0.1,0.2,1.6,0.1,2.3,0c0.2-0.3,0.8-1.1,1.6-2.2c0.8-1.1,3.7-3.6,5-4.7l-1.6-0.3
			c-0.4-0.1-1.6,0.1-2.2,0.5c-0.8,0.5-2.8,2.4-3.5,3.4S235.3,94.6,235.5,94.8z"/>
	</g>
	<path class="st11" d="M239.1,106.7c2.1-1.9,6.3-5.6,6.4-5.4l0,0.9l-7,5.7l-4.9,8.9l-0.5,0.1l6.8-13.6L239.1,106.7z"/>
	<path class="st8" d="M239.6,90.2c-0.2,0.3-0.1,0.7,0.3,0.7l0.4,0.1c0.2,0,0.3,0,0.4-0.1l0.1-0.1c0.3-0.3,0.1-0.7-0.3-0.8l-0.4,0
		C239.9,90,239.7,90,239.6,90.2L239.6,90.2z"/>
	<path class="st8" d="M237.8,92.1c-0.2,0.3-0.1,0.7,0.3,0.7l0.4,0.1c0.2,0,0.3,0,0.4-0.1l0.1-0.1c0.3-0.3,0.1-0.7-0.3-0.8l-0.4,0
		C238.1,91.9,237.9,92,237.8,92.1L237.8,92.1z"/>
	<path class="st11" d="M249.9,190.8l-0.9-0.2c-0.5-0.1-0.8-0.6-0.7-1.1l3.3-16c0.1-0.5,0.6-0.8,1.1-0.7l0.9,0.2L249.9,190.8z"/>
	<path class="st14" d="M245.7,211.2l-0.9-0.2c-0.5-0.1-0.8-0.6-0.7-1.1l2.8-13.3c0.1-0.5,0.6-0.8,1.1-0.7l0.9,0.2L245.7,211.2z"/>
	<path class="st13" d="M245.8,210.8l-0.4-0.1c-0.5-0.1-0.8-0.6-0.7-1.1l2.6-12.4c0.1-0.5,0.6-0.8,1.1-0.7l0.4,0.1L245.8,210.8z"/>
	<path class="st14" d="M254.3,168.6l-1.1-0.2c-0.5-0.1-0.8-0.6-0.7-1.1l1.7-8c0.1-0.5,0.6-0.8,1.1-0.7l1.1,0.2L254.3,168.6z"/>
	<path class="st14" d="M257.2,153.5l-1.1-0.2c-0.5-0.1-0.8-0.6-0.7-1.1l1.7-8c0.1-0.5,0.6-0.8,1.1-0.7l1.1,0.2L257.2,153.5z"/>
	<path class="st13" d="M254.3,168.3l-0.7-0.1c-0.5-0.1-0.8-0.6-0.7-1.1l1.5-7.1c0.1-0.4,0.5-0.7,0.9-0.7l0.8,0.1L254.3,168.3z"/>
	<path class="st13" d="M257.2,153.2l-0.7-0.1c-0.5-0.1-0.8-0.6-0.7-1.1l1.5-7.1c0.1-0.4,0.5-0.7,0.9-0.7l0.8,0.1L257.2,153.2z"/>
	<path class="st14" d="M210.6,159.6l1.1,0.2c0.5,0.1,1-0.2,1.1-0.7l1.7-8c0.1-0.5-0.2-1-0.7-1.1l-1.1-0.2L210.6,159.6z"/>
	<path class="st14" d="M214,144.5l1.1,0.2c0.5,0.1,1-0.2,1.1-0.7l1.7-8c0.1-0.5-0.2-1-0.7-1.1l-1.1-0.2L214,144.5z"/>
	<path class="st13" d="M210.7,159.3l0.7,0.1c0.5,0.1,1-0.2,1.1-0.7l1.5-7.1c0.1-0.4-0.2-0.9-0.6-1l-0.8-0.3L210.7,159.3z"/>
	<path class="st13" d="M214,144.2l0.7,0.1c0.5,0.1,1-0.2,1.1-0.7l1.5-7.1c0.1-0.4-0.2-0.9-0.6-1l-0.8-0.3L214,144.2z"/>
	<path class="st14" d="M241.2,233l-0.9-0.2c-0.5-0.1-0.8-0.6-0.7-1.1l2.8-13.3c0.1-0.5,0.6-0.8,1.1-0.7l0.9,0.2L241.2,233z"/>
	<path class="st13" d="M241.2,232.5l-0.4-0.1c-0.5-0.1-0.8-0.6-0.7-1.1l2.6-12.4c0.1-0.5,0.6-0.8,1.1-0.7l0.4,0.1L241.2,232.5z"/>
	<path class="st14" d="M197.3,223.8l0.9,0.2c0.5,0.1,1-0.2,1.1-0.7L202,210c0.1-0.5-0.2-1-0.7-1.1l-0.9-0.2L197.3,223.8z"/>
	<path class="st13" d="M197.4,223.4l0.4,0.1c0.5,0.1,1-0.2,1.1-0.7l2.6-12.4c0.1-0.5-0.2-1-0.7-1.1l-0.4-0.1L197.4,223.4z"/>
	<path class="st14" d="M201.8,202.1l0.9,0.2c0.5,0.1,1-0.2,1.1-0.7l2.8-13.3c0.1-0.5-0.2-1-0.7-1.1l-0.9-0.2L201.8,202.1z"/>
	<path class="st13" d="M201.9,201.7l0.4,0.1c0.5,0.1,1-0.2,1.1-0.7l2.6-12.4c0.1-0.5-0.2-1-0.7-1.1l-0.4-0.1L201.9,201.7z"/>
	<path class="st14" d="M236.6,254.7l-0.9-0.2c-0.5-0.1-0.8-0.6-0.7-1.1l2.8-13.3c0.1-0.5,0.6-0.8,1.1-0.7l0.9,0.2L236.6,254.7z"/>
	<path class="st13" d="M236.7,254.2l-0.4-0.1c-0.5-0.1-0.8-0.6-0.7-1.1l2.6-12.4c0.1-0.5,0.6-0.8,1.1-0.7l0.4,0.1L236.7,254.2z"/>
	<path class="st14" d="M192.7,245.6l0.9,0.2c0.5,0.1,1-0.2,1.1-0.7l2.8-13.3c0.1-0.5-0.2-1-0.7-1.1l-0.9-0.2L192.7,245.6z"/>
	<path class="st13" d="M192.8,245.1l0.4,0.1c0.5,0.1,1-0.2,1.1-0.7l2.6-12.4c0.1-0.5-0.2-1-0.7-1.1l-0.4-0.1L192.8,245.1z"/>
	<path class="st14" d="M232.2,276l-0.9-0.2c-0.5-0.1-0.8-0.6-0.7-1.1l2.8-13.3c0.1-0.5,0.6-0.8,1.1-0.7l0.9,0.2L232.2,276z"/>
	<path class="st13" d="M232.3,275.5l-0.4-0.1c-0.5-0.1-0.8-0.6-0.7-1.1l2.6-12.4c0.1-0.5,0.6-0.8,1.1-0.7l0.4,0.1L232.3,275.5z"/>
	<path class="st14" d="M188.3,266.8l0.9,0.2c0.5,0.1,1-0.2,1.1-0.7L193,253c0.1-0.5-0.2-1-0.7-1.1l-0.9-0.2L188.3,266.8z"/>
	<path class="st13" d="M188.4,266.4l0.4,0.1c0.5,0.1,1-0.2,1.1-0.7l2.6-12.4c0.1-0.5-0.2-1-0.7-1.1l-0.4-0.1L188.4,266.4z"/>
	<path class="st14" d="M227.7,297.7l-0.9-0.2c-0.5-0.1-0.8-0.6-0.7-1.1l2.8-13.3c0.1-0.5,0.6-0.8,1.1-0.7l0.9,0.2L227.7,297.7z"/>
	<path class="st13" d="M227.8,297.2l-0.4-0.1c-0.5-0.1-0.8-0.6-0.7-1.1l2.6-12.4c0.1-0.5,0.6-0.8,1.1-0.7l0.4,0.1L227.8,297.2z"/>
	<path class="st14" d="M183.8,288.6l0.9,0.2c0.5,0.1,1-0.2,1.1-0.7l2.8-13.3c0.1-0.5-0.2-1-0.7-1.1l-0.9-0.2L183.8,288.6z"/>
	<path class="st13" d="M183.9,288.1l0.4,0.1c0.5,0.1,1-0.2,1.1-0.7l2.6-12.4c0.1-0.5-0.2-1-0.7-1.1l-0.4-0.1L183.9,288.1z"/>
	<path class="st14" d="M223.2,319.4l-0.9-0.2c-0.5-0.1-0.8-0.6-0.7-1.1l2.8-13.3c0.1-0.5,0.6-0.8,1.1-0.7l0.9,0.2L223.2,319.4z"/>
	<path class="st13" d="M223.3,319l-0.4-0.1c-0.5-0.1-0.8-0.6-0.7-1.1l2.6-12.4c0.1-0.5,0.6-0.8,1.1-0.7l0.4,0.1L223.3,319z"/>
	<path class="st14" d="M179.3,310.3l0.9,0.2c0.5,0.1,1-0.2,1.1-0.7l2.8-13.3c0.1-0.5-0.2-1-0.7-1.1l-0.9-0.2L179.3,310.3z"/>
	<path class="st13" d="M179.4,309.9l0.4,0.1c0.5,0.1,1-0.2,1.1-0.7l2.6-12.4c0.1-0.5-0.2-1-0.7-1.1l-0.4-0.1L179.4,309.9z"/>
	<path class="st11" d="M209.7,164l0.9,0.2c0.5,0.1,0.8,0.6,0.7,1.1l-3.3,16c-0.1,0.5-0.6,0.8-1.1,0.7l-0.9-0.2L209.7,164z"/>
	<circle class="st13" cx="238.1" cy="132.8" r="0.7"/>
	<path class="st12" d="M246.7,101.6l-3.5-0.7c-0.5-0.1-0.8-0.6-0.7-1.1l0.4-1.8c0.1-0.5,0.6-0.8,1.1-0.7l3.5,0.7
		c0.5,0.1,0.8,0.6,0.7,1.1l-0.4,1.8C247.7,101.3,247.2,101.7,246.7,101.6z"/>
	<g>
		<path class="st13" d="M256.4,99.2c-0.2,0.1-1.5-0.5-2.1-0.9c-0.1-0.3-0.3-1.3-0.6-2.7c-0.3-1.4-1.9-4.8-2.7-6.3l1.6,0.3
			c0.4,0.1,1.5,0.8,1.8,1.3c0.5,0.8,1.6,3.3,1.8,4.5C256.5,96.7,256.7,99,256.4,99.2z"/>
	</g>
	<path class="st8" d="M254.6,93.3c0.1,0.3-0.2,0.6-0.5,0.6l-0.4-0.1c-0.2,0-0.3-0.1-0.3-0.3l0-0.1c-0.1-0.4,0.2-0.7,0.6-0.6l0.4,0.1
		C254.4,93,254.5,93.1,254.6,93.3L254.6,93.3z"/>
	<path class="st8" d="M255.4,95.8c0.1,0.3-0.2,0.6-0.5,0.6l-0.4-0.1c-0.2,0-0.3-0.1-0.3-0.3l0-0.1c-0.1-0.4,0.2-0.7,0.6-0.6l0.4,0.1
		C255.3,95.5,255.4,95.6,255.4,95.8L255.4,95.8z"/>
	<path class="st8" d="M250,123.5l-1.8-0.4c-0.2-0.1-0.4-0.3-0.4-0.5l0,0c0.1-0.2,0.3-0.4,0.5-0.4l1.8,0.4c0.2,0.1,0.4,0.3,0.4,0.5
		l0,0C250.5,123.4,250.2,123.6,250,123.5z"/>
	<path class="st8" d="M232.3,119.8l-1.8-0.4c-0.2-0.1-0.4-0.3-0.4-0.5l0,0c0.1-0.2,0.3-0.4,0.5-0.4l1.8,0.4c0.2,0.1,0.4,0.3,0.4,0.5
		l0,0C232.8,119.7,232.5,119.9,232.3,119.8z"/>
	<path class="st11" d="M176.4,349c0.2-0.7,0.9-1.2,1.6-1.1l31.5,6.5c0.7,0.2,1.2,0.9,1.1,1.6c-0.2,0.7-0.9,1.2-1.6,1.1l-31.5-6.5
		C176.7,350.5,176.2,349.7,176.4,349z"/>
</g>
</svg>
