<svg xmlns="http://www.w3.org/2000/svg" preserveAspectRatio="xMaxYMin slice" xml:space="preserve" id="Слой_1" x="0"
	y="0" version="1.1" viewBox="0 0 757 3045.4" data-hero-bg-tablet>
	<style>
		.st0 {
			fill: #fff
		}

		.st1 {
			fill: #ff1301
		}

		.st2 {
			fill: #394556
		}
	</style>
	<path d="m324.7 2955.4-164.1-1023h13.6l164.1 1023h-13.6zm-37.7 0-164.1-1023h13.6l164.1 1023H287z" class="st0" />
	<path d="m327.4 2955.4-164.1-1023h8.2l164.1 1023h-8.2zm-37.7 0-164.1-1023h8.2l164.1 1023h-8.2z" class="st1" />
	<path d="m297.9 2955.4 173.6-1023h15.7l-173.6 1023h-15.7zm-43.5 0 173.7-1023h15.7l-173.7 1023h-15.7z" class="st0" />
	<path d="m301.1 2955.4 173.6-1023h9.4l-173.6 1023h-9.4zm-43.5 0 173.7-1023h9.4L267 2955.4h-9.4z" class="st2" />
	<path d="m241.1 2955.4 381.3-1023h14.4l-381.3 1023h-14.4zm-39.8 0 381.3-1023H597l-381.3 1023h-14.4z" class="st0" />
	<path d="m244 2955.4 381.3-1023h8.6l-381.3 1023H244zm-39.8 0 381.3-1023h8.6l-381.3 1023h-8.6z" class="st1" />
	<path d="m161 2955.4 211.7-1023h15.8l-211.7 1023H161zm-43.7 0 211.7-1023h15.8l-211.7 1023h-15.8z" class="st0" />
	<path d="m164.2 2955.4 211.7-1023h9.5l-211.7 1023h-9.5zm-43.7 0 211.7-1023h9.5L130 2955.4h-9.5z" class="st2" />
	<path d="m-75.4 2955.4 71.2-1023h15.5l-71.2 1023h-15.5zm42.9 0 71.3-1023h15.5l-71.3 1023h-15.5z" class="st0" />
	<path d="m-72.3 2955.4 71.2-1023h9.3l-71.2 1023h-9.3zm42.9 0 71.3-1023h9.3l-71.3 1023h-9.3z" class="st2" />
	<path d="m143.8 2955.4-34.6-1023h13.5l34.6 1023h-13.5zm-37.3 0-34.6-1023h13.5l34.6 1023h-13.5z" class="st0" />
	<path d="m146.5 2955.4-34.6-1023h8.1l34.6 1023h-8.1zm-37.3 0-34.6-1023h8.1l34.6 1023h-8.1z" class="st2" />
	<path d="m21.7 2955.4-144.1-1023h13.6l144.1 1023H21.7z" class="st0" />
	<path d="m24.4 2955.4-144.1-1023h8.2l144.1 1023h-8.2z" class="st1" />
	<path data-hero-path fill="none" stroke="transparent" stroke-miterlimit="10" d="M128.1 3044.9 757 0" />
</svg>
