<svg width="567" height="426" viewBox="0 0 567 426" fill="none" xmlns="http://www.w3.org/2000/svg">
<path d="M328.1 212.6H239.5L345.8 70.9004H434.4L328.1 212.6Z" fill="#737A85"/>
<path d="M328.1 212.601H239.5L345.8 354.301H434.4L328.1 212.601Z" fill="#737A85"/>
<path d="M400.8 70.9004H379.5L273.2 212.6L379.5 354.3H400.8L294.5 212.6L400.8 70.9004Z" fill="#CACCC7"/>
<path d="M194.8 212.6H106.3L212.6 70.9004H301.2L194.8 212.6Z" fill="#737A85"/>
<path d="M194.8 212.601H106.3L212.6 354.301H301.2L194.8 212.601Z" fill="#737A85"/>
<path d="M267.5 70.9004H246.2L139.9 212.6L246.2 354.3H267.5L161.2 212.6L267.5 70.9004Z" fill="#CACCC7"/>
<path d="M221.8 70.9004H133.2L239.5 212.6L133.2 354.3H221.8L328.1 212.6L221.8 70.9004Z" fill="#FF1301"/>
<path d="M88.6 70.9004H0L106.3 212.6L0 354.3H88.6L194.9 212.6L88.6 70.9004Z" fill="#FF1301"/>
<path d="M425.2 184.5L426.7 183.2C428.3 181.8 429.1 180.9 429.1 179.8C429.1 178.8 428.5 178.3 427.4 178.3C426.6 178.3 426 178.6 425.4 178.9V177.7C426.2 177.3 427 177.2 427.5 177.2C429.1 177.2 430.2 178 430.2 179.6C430.2 181.3 428.9 182.6 426.9 184.2L426.5 184.5H430.2V185.6H424.9V184.5H425.2Z" fill="#1C2C3E"/>
<path d="M431.9 181.5C431.9 178.5 433 177.2 434.9 177.2C436.9 177.2 437.9 178.5 437.9 181.5C437.9 184.5 436.8 185.8 434.9 185.8C433 185.7 431.9 184.4 431.9 181.5ZM436.7 181.5C436.7 179 436 178.3 434.9 178.3C433.8 178.3 433.1 179 433.1 181.5C433.1 184 433.8 184.7 434.9 184.7C436 184.6 436.7 184 436.7 181.5Z" fill="#1C2C3E"/>
<path d="M439.7 181.5C439.7 178.5 440.8 177.2 442.7 177.2C444.7 177.2 445.7 178.5 445.7 181.5C445.7 184.5 444.6 185.8 442.7 185.8C440.8 185.7 439.7 184.4 439.7 181.5ZM444.5 181.5C444.5 179 443.8 178.3 442.7 178.3C441.6 178.3 440.9 179 440.9 181.5C440.9 184 441.6 184.7 442.7 184.7C443.8 184.6 444.5 184 444.5 181.5Z" fill="#1C2C3E"/>
<path d="M447 185.401V184.201C447.6 184.501 448.3 184.701 449 184.701C450.3 184.701 451.1 184.201 451.1 183.201C451.1 182.201 450.2 181.801 449 181.801H448.1V180.801H448.9C450.2 180.801 450.9 180.401 450.9 179.601C450.9 178.801 450.3 178.301 449.1 178.301C448.4 178.301 447.7 178.501 447.1 178.701V177.501C447.7 177.301 448.4 177.101 449.2 177.101C451.2 177.101 452.2 177.901 452.2 179.201C452.2 180.301 451.5 181.001 450.5 181.101C451.8 181.301 452.4 182.101 452.4 183.101C452.4 184.801 450.9 185.501 449.2 185.501C448.6 185.701 447.8 185.601 447 185.401Z" fill="#1C2C3E"/>
<path d="M459.8 180.9H454V181.9H459.8V180.9Z" fill="#1C2C3E"/>
<path d="M460.5 184.5L462 183.2C463.6 181.8 464.4 180.9 464.4 179.8C464.4 178.8 463.8 178.3 462.7 178.3C461.9 178.3 461.3 178.6 460.7 178.9V177.7C461.5 177.3 462.3 177.2 462.8 177.2C464.4 177.2 465.5 178 465.5 179.6C465.5 181.3 464.2 182.6 462.2 184.2L461.8 184.5H465.5V185.6H460.2V184.5H460.5Z" fill="#1C2C3E"/>
<path d="M467.2 181.5C467.2 178.5 468.3 177.2 470.2 177.2C472.2 177.2 473.2 178.5 473.2 181.5C473.2 184.5 472.1 185.8 470.2 185.8C468.3 185.7 467.2 184.4 467.2 181.5ZM472.1 181.5C472.1 179 471.4 178.3 470.3 178.3C469.2 178.3 468.5 179 468.5 181.5C468.5 184 469.2 184.7 470.3 184.7C471.4 184.6 472.1 184 472.1 181.5Z" fill="#1C2C3E"/>
<path d="M474.5 184.5L476 183.2C477.6 181.8 478.4 180.9 478.4 179.8C478.4 178.8 477.8 178.3 476.7 178.3C475.9 178.3 475.3 178.6 474.7 178.9V177.7C475.5 177.3 476.3 177.2 476.8 177.2C478.4 177.2 479.5 178 479.5 179.6C479.5 181.3 478.2 182.6 476.2 184.2L475.8 184.5H479.5V185.6H474.2V184.5H474.5Z" fill="#1C2C3E"/>
<path d="M481.2 185.401V184.201C481.8 184.501 482.5 184.701 483.2 184.701C484.5 184.701 485.3 184.201 485.3 183.201C485.3 182.201 484.4 181.801 483.2 181.801H482.3V180.801H483.1C484.4 180.801 485.1 180.401 485.1 179.601C485.1 178.801 484.5 178.301 483.3 178.301C482.6 178.301 481.9 178.501 481.3 178.701V177.501C481.9 177.301 482.6 177.101 483.4 177.101C485.4 177.101 486.4 177.901 486.4 179.201C486.4 180.301 485.7 181.001 484.7 181.101C486 181.301 486.6 182.101 486.6 183.101C486.6 184.801 485.1 185.501 483.4 185.501C482.7 185.701 481.9 185.601 481.2 185.401Z" fill="#1C2C3E"/>
<path d="M425.2 207.3C427.1 205.7 428.8 204.2 430.4 202.6C431.1 201.8 431.7 201.1 432.2 200.4C432.6 199.7 432.9 199.1 432.9 198.5C432.9 197.7 432.7 197.1 432.2 196.8C431.7 196.5 431.2 196.3 430.4 196.3C428.7 196.4 427.2 196.8 425.8 197.5L425.6 193.9C426.8 193.5 427.9 193.1 428.7 193C429.5 192.9 430.2 192.9 430.7 192.9C432.7 192.9 434.3 193.3 435.5 194.1C436.7 194.9 437.3 196.2 437.4 198C437.4 198.9 437.2 199.7 436.8 200.5C436.4 201.3 435.9 202.1 435.4 202.8C434.2 204.3 433.1 205.4 432.1 206.2L430.9 207.3H437.8V210.6H425.2V207.3Z" fill="#FF1301"/>
<path d="M440.6 208.1C440.1 207.2 439.8 206.2 439.7 205.2C439.5 204.1 439.4 203 439.4 201.9C439.4 199.5 439.8 197.4 440.6 195.7C441.1 194.8 441.8 194.2 442.7 193.7C443.6 193.2 444.7 193 446.2 193C447.6 193 448.8 193.3 449.7 193.7C450.6 194.2 451.3 194.9 451.7 195.7C452.2 196.6 452.5 197.5 452.7 198.6C452.8 199.7 452.9 200.8 452.9 201.9C452.9 203 452.8 204.1 452.7 205.2C452.5 206.3 452.2 207.2 451.7 208.1C450.8 209.9 449 210.9 446.1 210.9C443.3 210.9 441.5 209.9 440.6 208.1ZM447.4 207.2C447.6 207 447.7 206.8 447.8 206.6C447.9 206.4 448 206.1 448 205.8C448.2 204.6 448.4 203.3 448.3 201.8C448.3 200.3 448.2 199 448 197.8C447.9 197.5 447.9 197.3 447.8 197C447.7 196.8 447.5 196.6 447.4 196.4C447.1 196.1 446.6 195.9 446.1 195.9C445.6 195.9 445.2 196.1 444.9 196.4C444.7 196.6 444.6 196.8 444.5 197C444.4 197.2 444.3 197.5 444.2 197.8C444.1 198.1 444.1 198.4 444 198.7C443.9 199 443.9 199.3 443.9 199.7C443.8 200.4 443.8 201.1 443.8 201.8C443.8 202.5 443.8 203.2 443.9 203.8C443.9 204.5 444 205.2 444.2 205.7C444.3 206 444.4 206.2 444.5 206.5C444.6 206.7 444.7 206.9 444.9 207.1C445.2 207.5 445.6 207.6 446.1 207.6C446.7 207.8 447.1 207.6 447.4 207.2Z" fill="#FF1301"/>
<path d="M476.9 193.101V210.601H472.3V196.401H468V198.501C468 199.901 467.9 202.401 467.8 204.201C467.7 206.101 467.4 208.101 466.3 209.301C465.5 210.301 464 210.801 462.2 210.801C461.7 210.801 460.9 210.701 460.3 210.601V207.001C460.6 207.101 460.9 207.101 461.2 207.101C461.7 207.101 462.2 207.001 462.6 206.601C463.1 206.201 463.2 205.701 463.3 205.101C463.5 203.801 463.6 202.701 463.6 201.401C463.7 198.501 463.7 197.401 463.7 196.301V193.101H476.9Z" fill="#FF1301"/>
<path d="M480.8 193.101H493.1V196.401H485.4V200.001H492.7V203.301H485.4V207.301H493.4V210.601H480.8V193.101Z" fill="#FF1301"/>
<path d="M499.5 196.601H495.2V193.101H508.4V196.601H504.1V210.601H499.5V196.601Z" fill="#FF1301"/>
<path d="M434.7 218.001C437.8 218.001 442.8 218.301 445.6 221.001C446.8 222.201 448.1 224.301 448.1 227.901C448.1 230.101 447.5 232.301 445.9 234.101C443 237.301 438.3 237.501 436.2 237.501H433.1V248.001H425.1V218.001H434.7ZM433.2 231.801H435.3C436.2 231.801 438 231.701 439.1 230.701C440.1 229.801 440.3 228.601 440.3 227.701C440.3 226.601 440.1 225.401 438.9 224.501C437.7 223.601 436.2 223.601 435.4 223.601H433.3V231.801H433.2Z" fill="#FF1301"/>
<path d="M475.7 229.501H477.9L484.7 218.001H493.2L484.3 232.001L494.4 248.001H485.5L477.9 235.001H475.7V248.001H467.7V235.001H465.5L458 248.001H449.1L459.1 232.001L450.2 218.001H458.7L465.5 229.501H467.7V218.001H475.7V229.501Z" fill="#FF1301"/>
<path d="M498.5 242.401C499.4 240.801 500.4 238.401 501 236.401C501.8 233.701 502.3 230.001 502.3 224.401V218.001H524.6V242.401H528.2V255.001H520.5V248.001H503.5V255.001H495.8V242.301H498.5V242.401ZM509.5 223.701V225.901C509.5 228.801 509.5 232.501 508.3 236.801C507.7 239.101 507 240.701 506.1 242.401H516.7V223.701H509.5Z" fill="#FF1301"/>
</svg>
