<?xml version="1.0" encoding="utf-8"?>
<!-- Generator: Adobe Illustrator 24.3.0, SVG Export Plug-In . SVG Version: 6.00 Build 0)  -->
<svg version="1.1" id="Слой_1" xmlns="http://www.w3.org/2000/svg" xmlns:xlink="http://www.w3.org/1999/xlink" x="0px"
	y="0px" viewBox="0 0 101 1734" style="enable-background:new 0 0 101 1734;" xml:space="preserve">
	<style type="text/css">
		.st0 {
			fill: url(#SVGID_1_);
		}

		.st1 {
			opacity: 0.47;
			fill: #FFFFFF;
		}

		.st2 {
			fill: #CDCFD6;
		}

		.st3 {
			fill: #EBEDEE;
		}

		.st4 {
			fill: #FFFFFF;
		}

		.st5 {
			fill: #394A58;
		}

		.st6 {
			fill: #9BA4AB;
		}

		.st7 {
			fill: #D7DBDE;
		}

		.st8 {
			fill: url(#SVGID_2_);
		}

		.st9 {
			opacity: 0.47;
		}

		.st10 {
			opacity: 0.7;
		}

		.st11 {
			fill: #E21A1A;
		}

		.st12 {
			fill: #4B5C69;
		}

		.st13 {
			fill: #C3C9CD;
		}

		.st14 {
			fill: url(#SVGID_3_);
		}
	</style>
	<g>
		<g>
			<linearGradient id="SVGID_1_" gradientUnits="userSpaceOnUse" x1="0.9109" y1="866.9045" x2="99.8722" y2="866.9045">
				<stop offset="0.2612" style="stop-color:#C0C2CC" />
				<stop offset="1" style="stop-color:#CBCDD5" />
			</linearGradient>
			<path class="st0" d="M91.9,1114.2H52.4H12.9c-8.3,0-11-6.5-11-17.1c-2.2-161.2,0-464.5,0-470c0-7.5,4-7.5,7.5-7.5h83.8
			c4.3,0,6.7,2.8,6.7,7.5v15.7l0,455.8C99.9,1103.7,99.9,1114.2,91.9,1114.2z" />
		</g>
		<g>
			<path class="st1" d="M83.3,1114.2H50.8H18.3c-6.8,0-9.1-6.5-9.1-17.1c-1.8-161.2,0-464.5,0-470c0-7.5,3.3-7.5,6.2-7.5h69
			c3.6,0,5.5,2.8,5.5,7.5v15.7l0,455.8C89.9,1103.7,89.9,1114.2,83.3,1114.2z" />
		</g>
		<g>
			<path class="st2" d="M25.6,627.6h49.2c2.3,0,4.1,1.8,4.1,4V1100c0,2.2-1.8,4-4.1,4H25.6c-2.3,0-4.1-1.8-4.1-4V631.6
			C21.6,629.4,23.4,627.6,25.6,627.6z" />
		</g>
		<g>
			<path class="st3" d="M26.9,627.6h48c2.2,0,4,1.8,4,4v467c0,2.2-1.8,4-4,4h-48c-2.2,0-4-1.8-4-4v-467
			C22.9,629.4,24.7,627.6,26.9,627.6z" />
		</g>
		<rect x="34.1" y="635.6" class="st4" width="3.1" height="461.8" />
		<rect x="44.3" y="635.6" class="st4" width="3.1" height="461.8" />
		<rect x="54.5" y="635.6" class="st4" width="3.1" height="461.8" />
		<rect x="64.7" y="635.6" class="st4" width="3.1" height="461.8" />
		<path class="st5" d="M0.9,991.6h2c1.1,0,2,0.9,2,2v36c0,1.1-0.9,2-2,2h-2V991.6z" />
		<path class="st5" d="M1.9,648.2h2c1.1,0,2,0.9,2,2v36c0,1.1-0.9,2-2,2h-2V648.2z" />
		<path class="st6" d="M0.9,945.6h2c1.1,0,2,0.9,2,2v30c0,1.1-0.9,2-2,2h-2V945.6z" />
		<path class="st7" d="M0.9,946.6h1c1.1,0,2,0.9,2,2v28c0,1.1-0.9,2-2,2h-1V946.6z" />
		<path class="st6" d="M0.9,896.6h2c1.1,0,2,0.9,2,2v30c0,1.1-0.9,2-2,2h-2V896.6z" />
		<path class="st7" d="M0.9,897.6h1c1.1,0,2,0.9,2,2v28c0,1.1-0.9,2-2,2h-1V897.6z" />
		<path class="st6" d="M99.9,896.6h-2c-1.1,0-2,0.9-2,2v30c0,1.1,0.9,2,2,2h2V896.6z" />
		<path class="st7" d="M99.9,897.6h-1c-1.1,0-2,0.9-2,2v28c0,1.1,0.9,2,2,2h1V897.6z" />
		<path class="st6" d="M99.9,944.2h-2c-1.1,0-2,0.9-2,2v30c0,1.1,0.9,2,2,2h2V944.2z" />
		<path class="st7" d="M99.9,945.2h-1c-1.1,0-2,0.9-2,2v28c0,1.1,0.9,2,2,2h1V945.2z" />
		<path class="st6" d="M0.9,847.6h2c1.1,0,2,0.9,2,2v30c0,1.1-0.9,2-2,2h-2V847.6z" />
		<path class="st7" d="M0.9,848.6h1c1.1,0,2,0.9,2,2v28c0,1.1-0.9,2-2,2h-1V848.6z" />
		<path class="st6" d="M99.9,847.6h-2c-1.1,0-2,0.9-2,2v30c0,1.1,0.9,2,2,2h2V847.6z" />
		<path class="st7" d="M99.9,848.6h-1c-1.1,0-2,0.9-2,2v28c0,1.1,0.9,2,2,2h1V848.6z" />
		<path class="st6" d="M0.9,799.6h2c1.1,0,2,0.9,2,2v30c0,1.1-0.9,2-2,2h-2V799.6z" />
		<path class="st7" d="M0.9,800.6h1c1.1,0,2,0.9,2,2v28c0,1.1-0.9,2-2,2h-1V800.6z" />
		<path class="st6" d="M99.9,799.6h-2c-1.1,0-2,0.9-2,2v30c0,1.1,0.9,2,2,2h2V799.6z" />
		<path class="st7" d="M99.9,800.6h-1c-1.1,0-2,0.9-2,2v28c0,1.1,0.9,2,2,2h1V800.6z" />
		<path class="st6" d="M0.9,750.6h2c1.1,0,2,0.9,2,2v30c0,1.1-0.9,2-2,2h-2V750.6z" />
		<path class="st7" d="M0.9,751.6h1c1.1,0,2,0.9,2,2v28c0,1.1-0.9,2-2,2h-1V751.6z" />
		<path class="st6" d="M99.9,750.6h-2c-1.1,0-2,0.9-2,2v30c0,1.1,0.9,2,2,2h2V750.6z" />
		<path class="st7" d="M99.9,751.6h-1c-1.1,0-2,0.9-2,2v28c0,1.1,0.9,2,2,2h1V751.6z" />
		<path class="st6" d="M0.9,701.6h2c1.1,0,2,0.9,2,2v30c0,1.1-0.9,2-2,2h-2V701.6z" />
		<path class="st7" d="M0.9,702.6h1c1.1,0,2,0.9,2,2v28c0,1.1-0.9,2-2,2h-1V702.6z" />
		<path class="st6" d="M99.9,701.6h-2c-1.1,0-2,0.9-2,2v30c0,1.1,0.9,2,2,2h2V701.6z" />
		<path class="st7" d="M99.9,702.6h-1c-1.1,0-2,0.9-2,2v28c0,1.1,0.9,2,2,2h1V702.6z" />
		<path class="st5" d="M99.9,1031.6h-2c-1.1,0-2-0.9-2-2v-36c0-1.1,0.9-2,2-2h2V1031.6z" />
		<path class="st5" d="M99.9,688.2h-2c-1.1,0-2-0.9-2-2v-36c0-1.1,0.9-2,2-2h2V688.2z" />
		<path class="st6" d="M100.4,1063.2h-2.5c-1.1,0-2-0.9-2-2v-18c0-1.1,0.9-2,2-2h2.5V1063.2z" />
		<path class="st7" d="M100.4,1062.6h-1.5c-1.1,0-2-0.9-2-2v-16.1c0-1,0.7-1.8,1.7-2l1.8-0.3V1062.6z" />
		<path class="st6" d="M0.9,1041.2h2.5c1.1,0,2,0.9,2,2v18c0,1.1-0.9,2-2,2H0.9V1041.2z" />
		<path class="st7" d="M0.9,1041.8h1.5c1.1,0,2,0.9,2,2v16.1c0,1-0.7,1.8-1.7,2l-1.8,0.2V1041.8z" />
		<path class="st5"
			d="M11.9,616.2c0-1.7,1.3-3,3-3h71c1.7,0,3,1.3,3,3c0,1.7-1.3,3-3,3h-71C13.3,619.2,11.9,617.9,11.9,616.2z" />
		<path class="st5"
			d="M11.9,1117.2c0-1.6,1.3-3,3-3h71c1.7,0,3,1.4,3,3c0,1.7-1.3,3-3,3h-71C13.3,1120.2,11.9,1118.9,11.9,1117.2z" />
	</g>
	<g>
		<linearGradient id="SVGID_2_" gradientUnits="userSpaceOnUse" x1="0.4893" y1="303.7038" x2="99.0856" y2="303.7038">
			<stop offset="0.2612" style="stop-color:#C0C2CC" />
			<stop offset="1" style="stop-color:#CBCDD5" />
		</linearGradient>
		<path class="st8" d="M4.9,77.2c7.5-45.5,22.8-77,44-77c21.2,0,36.7,30,44.5,73.5c1.5,8.2,5,21.7,5.5,56c2.2,161.2,0,464.5,0,470
		c0,7.5-4,7.5-7.5,7.5H7.6c-4.3,0-6.7-2.8-6.7-7.5l0-15.7l0-455.8c0.6-30.3,2.5-41.8,3.9-50.5L4.9,77.2z" />
		<g class="st9">
			<path class="st4" d="M13.2,85.2C19.4,40.4,32,9.4,49.4,9.4c17.5,0,30.2,29.5,36.6,72.4c1.2,8,4.1,21.4,4.5,55.2
			c1.8,158.7,0,457.5,0,462.9c0,7.4-3.3,7.4-6.2,7.4h-69c-3.6,0-5.5-2.7-5.5-7.4l0-15.5l0-448.9c0.5-29.8,2-41.2,3.2-49.8L13.2,85.2
			z" />
		</g>
		<g class="st10">
			<path class="st2" d="M73.8,600.3H24.5c-2.3,0-4.1-1.8-4.1-4V128.2c0-2.2,1.8-4,4.1-4h49.3c2.3,0,4.1,1.8,4.1,4v468.1
			C77.9,598.5,76.1,600.3,73.8,600.3z" />
		</g>
		<g>
			<path class="st11" d="M49.6,11.2c-15.5,0-29.7,48.6-31.5,60c-1,6.5-1.2,12.6-0.5,20.5c1,11.5,13.5,19.5,30.5,19.5
			c19,0,32.5-10,33.5-19.5c0.5-4.7,0.7-6-1-20.5C79.8,64.7,65.1,11.2,49.6,11.2z" />
		</g>
		<g>
			<path class="st12" d="M49.5,46.2c-15.5,0-25.5,14-29.5,25c-2.2,6.2-3,12.6-2.4,20.5c1,11.5,13.5,19.5,30.5,19.5
			c19,0,32.5-10,33.5-19.5l0,0c0.5-4.7,0.8-8-3.2-20.5C76.5,65,65,46.2,49.5,46.2z" />
		</g>
		<g>
			<path class="st13" d="M48.6,50.2c-13.8,0-20.7,6.5-24.5,15c-2.7,6-4.8,13.1-4.1,21c0.4,4,10.4,6,27.8,6c19.4,0,29.5-2.5,29.9-6.5
			c0.5-4.7,0.5-7.5-3.6-20C70.4,57.2,62.4,50.2,48.6,50.2z" />
		</g>
		<g>
			<path class="st5" d="M47.8,88.2c-23.4,0-27.8-5.5-27.8-5.5s-0.2,1.5,0,3.5c0.4,4,10.4,6,27.8,6c19.4,0,29-2.6,29.9-6.5
			c0.2-1,0.2-4,0.2-4S71.9,88.7,47.8,88.2z" />
		</g>
		<g>
			<path class="st3" d="M73.9,599.2h-48c-2.2,0-4-1.8-4-4v-467c0-2.2,1.8-4,4-4h48c2.2,0,4,1.8,4,4v467
			C77.9,597.4,76.1,599.2,73.9,599.2z" />
		</g>
		<rect x="63.6" y="129.4" class="st4" width="3.1" height="461.8" />
		<rect x="53.4" y="129.4" class="st4" width="3.1" height="461.8" />
		<rect x="43.2" y="129.4" class="st4" width="3.1" height="461.8" />
		<rect x="32.9" y="129.4" class="st4" width="3.1" height="461.8" />
		<g>
			<path class="st7" d="M25.7,34.1c0.4,0.4,3.5-0.5,5-1c0.3-0.7,1.3-2.7,2.5-5.5c1.2-2.8,6.3-9.5,8.7-12.5h-3.7c-1,0-3.5,1-4.5,2
			c-1.5,1.5-5,6.5-6,9S25.2,33.6,25.7,34.1z" />
		</g>
		<path class="st5" d="M38.9,58.2c3.7-5,11.1-14.9,11.5-14.5l0.5,2L38.4,61.2l-6.5,21.5l-1,0.5l8.5-32.5L38.9,58.2z" />
		<path class="st11" d="M32.4,22.2c-0.3,0.7,0.2,1.4,0.9,1.4h0.8c0.4,0,0.7-0.2,0.9-0.5l0.1-0.2c0.4-0.7-0.2-1.6-1-1.5l-0.9,0.1
		C32.9,21.6,32.6,21.8,32.4,22.2L32.4,22.2z" />
		<path class="st11" d="M29.4,27.2c-0.3,0.7,0.2,1.4,0.9,1.4h0.8c0.4,0,0.7-0.2,0.9-0.5l0.1-0.2c0.4-0.7-0.2-1.6-1-1.5l-0.9,0.1
		C29.9,26.6,29.6,26.8,29.4,27.2L29.4,27.2z" />
		<path class="st5" d="M99.9,235.2h-2c-1.1,0-2-0.9-2-2v-36c0-1.1,0.9-2,2-2h2V235.2z" />
		<path class="st6" d="M99.9,281.2h-2c-1.1,0-2-0.9-2-2v-30c0-1.1,0.9-2,2-2h2V281.2z" />
		<path class="st7" d="M99.9,280.2h-1c-1.1,0-2-0.9-2-2v-28c0-1.1,0.9-2,2-2h1V280.2z" />
		<path class="st6" d="M99.4,185.2h-2.5c-1.1,0-2-0.9-2-2v-18c0-1.1,0.9-2,2-2h2.5V185.2z" />
		<path class="st6" d="M98.9,151.2h-2.5c-1.1,0-2-0.9-2-2v-18c0-1.1,0.9-2,2-2h2.5V151.2z" />
		<path class="st7" d="M99.4,184.6h-1.5c-1.1,0-2-0.9-2-2v-16.1c0-1,0.7-1.8,1.7-2l1.8-0.3V184.6z" />
		<path class="st7" d="M98.9,150.6h-1.5c-1.1,0-2-0.9-2-2v-16.1c0-1,0.7-1.8,1.7-2l1.8-0.3V150.6z" />
		<path class="st6" d="M0.9,185.2h2.5c1.1,0,2-0.9,2-2v-18c0-1.1-0.9-2-2-2H0.9L0.9,185.2z" />
		<path class="st6" d="M1.4,151.2h2.5c1.1,0,2-0.9,2-2v-18c0-1.1-0.9-2-2-2H1.4V151.2z" />
		<path class="st7" d="M0.9,184.6h1.5c1.1,0,2-0.9,2-2v-16.1c0-1-0.7-1.8-1.7-2l-1.8-0.3L0.9,184.6z" />
		<path class="st7" d="M1.4,150.6h1.5c1.1,0,2-0.9,2-2v-16.1c0-1-0.7-1.8-1.7-2l-1.8-0.3V150.6z" />
		<path class="st6" d="M99.9,330.2h-2c-1.1,0-2-0.9-2-2v-30c0-1.1,0.9-2,2-2h2V330.2z" />
		<path class="st7" d="M99.9,329.2h-1c-1.1,0-2-0.9-2-2v-28c0-1.1,0.9-2,2-2h1V329.2z" />
		<path class="st6" d="M0.9,330.2h2c1.1,0,2-0.9,2-2v-30c0-1.1-0.9-2-2-2h-2L0.9,330.2z" />
		<path class="st7" d="M0.9,329.2h1c1.1,0,2-0.9,2-2v-28c0-1.1-0.9-2-2-2h-1L0.9,329.2z" />
		<path class="st6" d="M0.9,281.2h2c1.1,0,2-0.9,2-2l0-30c0-1.1-0.9-2-2-2h-2L0.9,281.2z" />
		<path class="st7" d="M0.9,280.2h1c1.1,0,2-0.9,2-2v-28c0-1.1-0.9-2-2-2h-1L0.9,280.2z" />
		<path class="st6" d="M99.9,379.2h-2c-1.1,0-2-0.9-2-2v-30c0-1.1,0.9-2,2-2h2V379.2z" />
		<path class="st7" d="M99.9,378.2h-1c-1.1,0-2-0.9-2-2v-28c0-1.1,0.9-2,2-2h1V378.2z" />
		<path class="st6" d="M0.9,379.2h2c1.1,0,2-0.9,2-2l0-30c0-1.1-0.9-2-2-2h-2L0.9,379.2z" />
		<path class="st7" d="M0.9,378.2h1c1.1,0,2-0.9,2-2v-28c0-1.1-0.9-2-2-2h-1L0.9,378.2z" />
		<path class="st6" d="M99.9,427.2h-2c-1.1,0-2-0.9-2-2v-30c0-1.1,0.9-2,2-2h2V427.2z" />
		<path class="st7" d="M99.9,426.2h-1c-1.1,0-2-0.9-2-2v-28c0-1.1,0.9-2,2-2h1V426.2z" />
		<path class="st6" d="M0.9,427.2h2c1.1,0,2-0.9,2-2l0-30c0-1.1-0.9-2-2-2h-2L0.9,427.2z" />
		<path class="st7" d="M0.9,426.2h1c1.1,0,2-0.9,2-2l0-28c0-1.1-0.9-2-2-2h-1L0.9,426.2z" />
		<path class="st6" d="M99.9,476.2h-2c-1.1,0-2-0.9-2-2v-30c0-1.1,0.9-2,2-2h2V476.2z" />
		<path class="st7" d="M99.9,475.2h-1c-1.1,0-2-0.9-2-2v-28c0-1.1,0.9-2,2-2h1V475.2z" />
		<path class="st6" d="M0.9,476.2h2c1.1,0,2-0.9,2-2v-30c0-1.1-0.9-2-2-2h-2L0.9,476.2z" />
		<path class="st7" d="M0.9,475.2h1c1.1,0,2-0.9,2-2v-28c0-1.1-0.9-2-2-2h-1L0.9,475.2z" />
		<path class="st6" d="M99.9,525.2h-2c-1.1,0-2-0.9-2-2v-30c0-1.1,0.9-2,2-2h2V525.2z" />
		<path class="st7" d="M99.9,524.2h-1c-1.1,0-2-0.9-2-2v-28c0-1.1,0.9-2,2-2h1V524.2z" />
		<path class="st6" d="M0.9,525.2h2c1.1,0,2-0.9,2-2v-30c0-1.1-0.9-2-2-2h-2L0.9,525.2z" />
		<path class="st7" d="M0.9,524.2h1c1.1,0,2-0.9,2-2v-28c0-1.1-0.9-2-2-2h-1L0.9,524.2z" />
		<path class="st5" d="M0.9,195.2h2c1.1,0,2,0.9,2,2l0,36c0,1.1-0.9,2-2,2h-2L0.9,195.2z" />
		<circle class="st7" cx="48.4" cy="115.1" r="1.5" />
		<path class="st3"
			d="M52.9,43.6h-8c-1.1,0-2-0.9-2-2v-4c0-1.1,0.9-2,2-2h8c1.1,0,2,0.9,2,2v4C54.9,42.7,54,43.6,52.9,43.6z" />
		<g>
			<path class="st7" d="M72.9,34.1c-0.4,0.4-3.5-0.5-5-1c-0.3-0.7-1.3-2.7-2.5-5.5s-6.3-9.5-8.7-12.5h3.7c1,0,3.5,1,4.5,2
			c1.5,1.5,5,6.5,6,9S73.4,33.6,72.9,34.1z" />
		</g>
		<path class="st11" d="M66.2,22.2c0.3,0.7-0.2,1.4-0.9,1.4h-0.8c-0.4,0-0.7-0.2-0.9-0.5l-0.1-0.2c-0.4-0.7,0.2-1.6,1-1.5l0.9,0.1
		C65.7,21.6,66,21.8,66.2,22.2L66.2,22.2z" />
		<path class="st11" d="M69.2,27.2c0.3,0.7-0.2,1.4-0.9,1.4h-0.8c-0.4,0-0.7-0.2-0.9-0.5l-0.1-0.2c-0.4-0.7,0.2-1.6,1-1.5l0.9,0.1
		C68.7,26.6,69,26.8,69.2,27.2L69.2,27.2z" />
		<path class="st11"
			d="M69.9,89.6h-4c-0.6,0-1-0.4-1-1l0,0c0-0.6,0.4-1,1-1h4c0.6,0,1,0.4,1,1l0,0C70.9,89.2,70.5,89.6,69.9,89.6z" />
		<path class="st11"
			d="M29.9,89.6h-4c-0.6,0-1-0.4-1-1l0,0c0-0.6,0.4-1,1-1h4c0.6,0,1,0.4,1,1l0,0C30.9,89.2,30.5,89.6,29.9,89.6z" />
		<path class="st5"
			d="M11.9,610.2c0-1.7,1.3-3,3-3h71c1.7,0,3,1.3,3,3c0,1.7-1.3,3-3,3h-71C13.3,613.2,11.9,611.9,11.9,610.2z" />
	</g>
	<g>

		<linearGradient id="SVGID_3_" gradientUnits="userSpaceOnUse" x1="411.2922" y1="-816.2925" x2="509.8885"
			y2="-816.2925" gradientTransform="matrix(-1 0 0 -1 511.4452 613.4076)">
			<stop offset="0.2612" style="stop-color:#C0C2CC" />
			<stop offset="1" style="stop-color:#CBCDD5" />
		</linearGradient>
		<path class="st14" d="M95.7,1656.2c-7.5,45.5-22.8,77-44,77c-21.2,0-36.7-30-44.5-73.5c-1.5-8.2-5-21.7-5.5-56
		c-2.2-161.2,0-464.5,0-470c0-7.5,4-7.5,7.5-7.5H93c4.3,0,6.7,2.8,6.7,7.5l0,15.7l0,455.8c-0.6,30.3-2.5,41.8-3.9,50.5L95.7,1656.2z
		" />
		<g class="st9">
			<path class="st4" d="M87.4,1648.2c-6.2,44.8-18.7,75.8-36.2,75.8c-17.5,0-30.2-29.5-36.6-72.4c-1.2-8-4.1-21.4-4.5-55.2
			c-1.8-158.7,0-457.5,0-462.9c0-7.4,3.3-7.4,6.2-7.4h69c3.6,0,5.5,2.7,5.5,7.4v15.5l0,448.9c-0.5,29.8-2,41.2-3.2,49.8L87.4,1648.2
			z" />
		</g>
		<g class="st10">
			<path class="st2" d="M26.8,1133.1h49.3c2.3,0,4.1,1.8,4.1,4v468.1c0,2.2-1.8,4-4.1,4H26.8c-2.3,0-4.1-1.8-4.1-4v-468.1
			C22.7,1134.9,24.6,1133.1,26.8,1133.1z" />
		</g>
		<g>
			<path class="st11" d="M51.1,1722.2c15.5,0,29.7-48.6,31.5-60c1-6.5,1.2-12.6,0.5-20.5c-1-11.5-13.5-19.5-30.5-19.5
			c-19,0-32.5,10-33.5,19.5c-0.5,4.7-0.7,6,1,20.5C20.8,1668.7,35.6,1722.2,51.1,1722.2z" />
		</g>
		<g>
			<path class="st12" d="M51.2,1687.2c15.5,0,25.5-14,29.5-25c2.2-6.2,3-12.6,2.4-20.5c-1-11.5-13.5-19.5-30.5-19.5
			c-19,0-32.5,10-33.5,19.5l0,0c-0.5,4.7-0.8,8,3.2,20.5C24.2,1668.4,35.7,1687.2,51.2,1687.2z" />
		</g>
		<g>
			<path class="st13" d="M52,1683.2c13.8,0,20.7-6.5,24.5-15c2.7-6,4.8-13.1,4.1-21c-0.4-4-10.4-6-27.8-6c-19.4,0-29.5,2.5-29.9,6.5
			c-0.5,4.7-0.5,7.5,3.6,20C30.2,1676.2,38.3,1683.2,52,1683.2z" />
		</g>
		<g>
			<path class="st5" d="M52.9,1645.2c23.4,0,27.8,5.5,27.8,5.5s0.2-1.5,0-3.5c-0.4-4-10.4-6-27.8-6c-19.4,0-29,2.6-29.9,6.5
			c-0.2,1-0.2,4-0.2,4S28.7,1644.7,52.9,1645.2z" />
		</g>
		<g>
			<path class="st3" d="M26.7,1134.2h48c2.2,0,4,1.8,4,4v467c0,2.2-1.8,4-4,4h-48c-2.2,0-4-1.8-4-4v-467
			C22.7,1136,24.5,1134.2,26.7,1134.2z" />
		</g>
		<rect x="33.9" y="1142.2" class="st4" width="3.1" height="461.8" />
		<rect x="44.1" y="1142.2" class="st4" width="3.1" height="461.8" />
		<rect x="54.3" y="1142.2" class="st4" width="3.1" height="461.8" />
		<rect x="64.6" y="1142.2" class="st4" width="3.1" height="461.8" />
		<g>
			<path class="st7" d="M74.9,1699.3c-0.4-0.4-3.5,0.5-5,1c-0.3,0.7-1.3,2.7-2.5,5.5c-1.2,2.8-6.3,9.5-8.7,12.5h3.7c1,0,3.5-1,4.5-2
			c1.5-1.5,5-6.5,6-9S75.4,1699.8,74.9,1699.3z" />
		</g>
		<path class="st5"
			d="M61.7,1675.2c-3.7,5-11.1,14.9-11.5,14.5l-0.5-2l12.5-15.5l6.5-21.5l1-0.5l-8.5,32.5L61.7,1675.2z" />
		<path class="st11" d="M68.2,1711.2c0.3-0.7-0.2-1.4-0.9-1.4h-0.8c-0.4,0-0.7,0.2-0.9,0.5l-0.1,0.2c-0.4,0.7,0.2,1.6,1,1.5l0.9-0.1
		C67.7,1711.8,68,1711.6,68.2,1711.2L68.2,1711.2z" />
		<path class="st11" d="M71.2,1706.2c0.3-0.7-0.2-1.4-0.9-1.4h-0.8c-0.4,0-0.7,0.2-0.9,0.5l-0.1,0.2c-0.4,0.7,0.2,1.6,1,1.5l0.9-0.1
		C70.7,1706.8,71,1706.6,71.2,1706.2L71.2,1706.2z" />
		<path class="st5" d="M0.7,1498.2h2c1.1,0,2,0.9,2,2v36c0,1.1-0.9,2-2,2h-2V1498.2z" />
		<path class="st6" d="M0.7,1452.2h2c1.1,0,2,0.9,2,2v30c0,1.1-0.9,2-2,2h-2V1452.2z" />
		<path class="st7" d="M0.7,1453.2h1c1.1,0,2,0.9,2,2v28c0,1.1-0.9,2-2,2h-1V1453.2z" />
		<path class="st6" d="M1.2,1548.2h2.5c1.1,0,2,0.9,2,2v18c0,1.1-0.9,2-2,2H1.2V1548.2z" />
		<path class="st6" d="M1.7,1582.2h2.5c1.1,0,2,0.9,2,2v18c0,1.1-0.9,2-2,2H1.7V1582.2z" />
		<path class="st7" d="M1.2,1548.8h1.5c1.1,0,2,0.9,2,2v16.1c0,1-0.7,1.8-1.7,2l-1.8,0.3V1548.8z" />
		<path class="st7" d="M1.7,1582.8h1.5c1.1,0,2,0.9,2,2v16.1c0,1-0.7,1.8-1.7,2l-1.8,0.3V1582.8z" />
		<path class="st6" d="M99.7,1548.2h-2.5c-1.1,0-2,0.9-2,2v18c0,1.1,0.9,2,2,2h2.5L99.7,1548.2z" />
		<path class="st6" d="M99.2,1582.2h-2.5c-1.1,0-2,0.9-2,2v18c0,1.1,0.9,2,2,2h2.5V1582.2z" />
		<path class="st7" d="M99.7,1548.8h-1.5c-1.1,0-2,0.9-2,2v16.1c0,1,0.7,1.8,1.7,2l1.8,0.3L99.7,1548.8z" />
		<path class="st7" d="M99.2,1582.8h-1.5c-1.1,0-2,0.9-2,2v16.1c0,1,0.7,1.8,1.7,2l1.8,0.3V1582.8z" />
		<path class="st6" d="M0.7,1403.2h2c1.1,0,2,0.9,2,2v30c0,1.1-0.9,2-2,2h-2V1403.2z" />
		<path class="st7" d="M0.7,1404.2h1c1.1,0,2,0.9,2,2v28c0,1.1-0.9,2-2,2h-1V1404.2z" />
		<path class="st6" d="M99.7,1403.2h-2c-1.1,0-2,0.9-2,2v30c0,1.1,0.9,2,2,2h2L99.7,1403.2z" />
		<path class="st7" d="M99.7,1404.2h-1c-1.1,0-2,0.9-2,2v28c0,1.1,0.9,2,2,2h1L99.7,1404.2z" />
		<path class="st6" d="M99.7,1452.2h-2c-1.1,0-2,0.9-2,2l0,30c0,1.1,0.9,2,2,2h2L99.7,1452.2z" />
		<path class="st7" d="M99.7,1453.2h-1c-1.1,0-2,0.9-2,2v28c0,1.1,0.9,2,2,2h1L99.7,1453.2z" />
		<path class="st6" d="M0.7,1354.2h2c1.1,0,2,0.9,2,2v30c0,1.1-0.9,2-2,2h-2V1354.2z" />
		<path class="st7" d="M0.7,1355.2h1c1.1,0,2,0.9,2,2v28c0,1.1-0.9,2-2,2h-1V1355.2z" />
		<path class="st6" d="M99.7,1354.2h-2c-1.1,0-2,0.9-2,2l0,30c0,1.1,0.9,2,2,2h2L99.7,1354.2z" />
		<path class="st7" d="M99.7,1355.2h-1c-1.1,0-2,0.9-2,2v28c0,1.1,0.9,2,2,2h1L99.7,1355.2z" />
		<path class="st6" d="M0.7,1306.2h2c1.1,0,2,0.9,2,2v30c0,1.1-0.9,2-2,2h-2V1306.2z" />
		<path class="st7" d="M0.7,1307.2h1c1.1,0,2,0.9,2,2v28c0,1.1-0.9,2-2,2h-1V1307.2z" />
		<path class="st6" d="M99.7,1306.2h-2c-1.1,0-2,0.9-2,2l0,30c0,1.1,0.9,2,2,2h2L99.7,1306.2z" />
		<path class="st7" d="M99.7,1307.2h-1c-1.1,0-2,0.9-2,2l0,28c0,1.1,0.9,2,2,2h1L99.7,1307.2z" />
		<path class="st6" d="M0.7,1257.2h2c1.1,0,2,0.9,2,2v30c0,1.1-0.9,2-2,2h-2V1257.2z" />
		<path class="st7" d="M0.7,1258.2h1c1.1,0,2,0.9,2,2v28c0,1.1-0.9,2-2,2h-1V1258.2z" />
		<path class="st6" d="M99.7,1257.2h-2c-1.1,0-2,0.9-2,2v30c0,1.1,0.9,2,2,2h2L99.7,1257.2z" />
		<path class="st7" d="M99.7,1258.2h-1c-1.1,0-2,0.9-2,2v28c0,1.1,0.9,2,2,2h1L99.7,1258.2z" />
		<path class="st6" d="M0.7,1208.2h2c1.1,0,2,0.9,2,2v30c0,1.1-0.9,2-2,2h-2V1208.2z" />
		<path class="st7" d="M0.7,1209.2h1c1.1,0,2,0.9,2,2v28c0,1.1-0.9,2-2,2h-1V1209.2z" />
		<path class="st6" d="M99.7,1208.2h-2c-1.1,0-2,0.9-2,2v30c0,1.1,0.9,2,2,2h2L99.7,1208.2z" />
		<path class="st7" d="M99.7,1209.2h-1c-1.1,0-2,0.9-2,2v28c0,1.1,0.9,2,2,2h1L99.7,1209.2z" />
		<path class="st5" d="M99.7,1538.2h-2c-1.1,0-2-0.9-2-2l0-36c0-1.1,0.9-2,2-2h2L99.7,1538.2z" />
		<circle class="st7" cx="52.2" cy="1618.3" r="1.5" />
		<path class="st3" d="M47.7,1689.8h8c1.1,0,2,0.9,2,2v4c0,1.1-0.9,2-2,2h-8c-1.1,0-2-0.9-2-2v-4
		C45.7,1690.7,46.6,1689.8,47.7,1689.8z" />
		<g>
			<path class="st7" d="M27.7,1699.3c0.4-0.4,3.5,0.5,5,1c0.3,0.7,1.3,2.7,2.5,5.5c1.2,2.8,6.3,9.5,8.7,12.5h-3.7c-1,0-3.5-1-4.5-2
			c-1.5-1.5-5-6.5-6-9S27.2,1699.8,27.7,1699.3z" />
		</g>
		<path class="st11" d="M34.5,1711.2c-0.3-0.7,0.2-1.4,0.9-1.4h0.8c0.4,0,0.7,0.2,0.9,0.5l0.1,0.2c0.4,0.7-0.2,1.6-1,1.5l-0.9-0.1
		C34.9,1711.8,34.6,1711.6,34.5,1711.2L34.5,1711.2z" />
		<path class="st11" d="M31.5,1706.2c-0.3-0.7,0.2-1.4,0.9-1.4h0.8c0.4,0,0.7,0.2,0.9,0.5l0.1,0.2c0.4,0.7-0.2,1.6-1,1.5l-0.9-0.1
		C31.9,1706.8,31.6,1706.6,31.5,1706.2L31.5,1706.2z" />
		<path class="st11" d="M30.7,1643.8h4c0.6,0,1,0.4,1,1l0,0c0,0.6-0.4,1-1,1h-4c-0.6,0-1-0.4-1-1l0,0
		C29.7,1644.2,30.2,1643.8,30.7,1643.8z" />
		<path class="st11" d="M70.7,1643.8h4c0.6,0,1,0.4,1,1l0,0c0,0.6-0.4,1-1,1h-4c-0.6,0-1-0.4-1-1l0,0
		C69.7,1644.2,70.2,1643.8,70.7,1643.8z" />
		<path class="st5"
			d="M88.7,1123.2c0,1.7-1.3,3-3,3h-71c-1.7,0-3-1.3-3-3c0-1.7,1.3-3,3-3h71C87.4,1120.2,88.7,1121.5,88.7,1123.2z" />
	</g>
</svg>
