<svg width="1200" height="718" viewBox="0 0 1200 718" fill="none" xmlns="http://www.w3.org/2000/svg">
<mask id="mask0_161_44595" style="mask-type:luminance" maskUnits="userSpaceOnUse" x="0" y="0" width="1200" height="718">
<rect width="1200" height="718" fill="white"/>
</mask>
<g mask="url(#mask0_161_44595)">
<rect y="163" width="1200" height="557" fill="#5F6E79"/>
<rect width="1200" height="163" transform="matrix(1 0 0 -1 0 163)" fill="#EBEDEE"/>
<rect x="3" y="618" width="1196" height="4" fill="#4B5C69"/>
<rect y="271" width="1196" height="4" fill="#4B5C69"/>
<rect y="222" width="1196" height="4" fill="#4B5C69"/>
<rect y="174" width="1196" height="4" fill="#4B5C69"/>
<rect x="2" y="319" width="1196" height="4" fill="#4B5C69"/>
<rect x="2" y="367" width="1196" height="4" fill="#4B5C69"/>
<rect x="2" y="415" width="1196" height="4" fill="#4B5C69"/>
<rect x="2" y="463" width="1196" height="4" fill="#4B5C69"/>
<rect x="2" y="511" width="1196" height="4" fill="#4B5C69"/>
<rect x="2" y="559" width="1196" height="4" fill="#4B5C69"/>
<rect x="4" y="605" width="1196" height="4" fill="#4B5C69"/>
<rect x="1" y="257" width="1196" height="4" fill="#4B5C69"/>
<rect x="1" y="209" width="1196" height="4" fill="#4B5C69"/>
<rect x="1" y="161" width="1196" height="4" fill="#4B5C69"/>
<rect x="3" y="305" width="1196" height="4" fill="#4B5C69"/>
<rect x="3" y="353" width="1196" height="4" fill="#4B5C69"/>
<rect x="3" y="401" width="1196" height="4" fill="#4B5C69"/>
<rect x="3" y="450" width="1196" height="4" fill="#4B5C69"/>
<rect x="3" y="498" width="1196" height="4" fill="#4B5C69"/>
<rect x="3" y="546" width="1196" height="4" fill="#4B5C69"/>
<path fill-rule="evenodd" clip-rule="evenodd" d="M-27.5502 471.086C-37.7706 468.425 -48.8092 467 -68 467V463C-48.5897 463 -37.191 464.442 -26.5424 467.215C-20.4385 468.804 -14.5159 470.857 -7.48059 473.295C-2.44587 475.04 3.15871 476.982 9.80745 479.094C18.3332 481.801 25.9176 485.18 33.4013 488.689C34.8592 489.373 36.3117 490.06 37.7661 490.749C43.8017 493.607 49.8713 496.48 56.5066 499.144C72.8888 505.721 92.689 511 123 511V515C92.1509 515 71.8461 509.613 55.0164 502.856C48.2579 500.143 42.0548 497.206 36.0103 494.344C34.5674 493.66 33.1335 492.981 31.7032 492.311C24.2573 488.82 16.8649 485.532 8.59674 482.906C1.6697 480.706 -4.00206 478.738 -9.02728 476.994C-15.8907 474.612 -21.548 472.648 -27.5502 471.086Z" fill="#4B5C69"/>
<path fill-rule="evenodd" clip-rule="evenodd" d="M423.45 327.086C413.229 324.425 402.191 323 383 323V319C402.41 319 413.809 320.442 424.458 323.215C430.562 324.804 436.484 326.857 443.519 329.295C448.554 331.04 454.159 332.982 460.807 335.094C469.333 337.801 476.918 341.18 484.401 344.689C485.859 345.373 487.312 346.06 488.766 346.749C494.802 349.607 500.871 352.48 507.507 355.144C523.889 361.721 543.689 367 574 367V371C543.151 371 522.846 365.613 506.016 358.856C499.258 356.143 493.055 353.206 487.01 350.344C485.567 349.66 484.134 348.981 482.703 348.311C475.257 344.82 467.865 341.532 459.597 338.906C452.67 336.706 446.998 334.738 441.973 332.994C435.109 330.612 429.452 328.648 423.45 327.086Z" fill="#4B5C69"/>
<path fill-rule="evenodd" clip-rule="evenodd" d="M973.45 279.086C963.229 276.425 952.191 275 933 275V271C952.41 271 963.809 272.442 974.458 275.215C980.562 276.804 986.484 278.857 993.519 281.295C998.554 283.04 1004.16 284.982 1010.81 287.094C1019.33 289.801 1026.92 293.18 1034.4 296.689C1035.86 297.373 1037.31 298.06 1038.77 298.749C1044.8 301.607 1050.87 304.48 1057.51 307.144C1073.89 313.721 1093.69 319 1124 319V323C1093.15 323 1072.85 317.613 1056.02 310.856C1049.26 308.143 1043.05 305.206 1037.01 302.344C1035.57 301.66 1034.13 300.981 1032.7 300.311C1025.26 296.82 1017.86 293.532 1009.6 290.906C1002.67 288.706 996.998 286.738 991.973 284.994C985.109 282.612 979.452 280.648 973.45 279.086Z" fill="#4B5C69"/>
<path fill-rule="evenodd" clip-rule="evenodd" d="M1145.45 327.086C1135.23 324.425 1124.19 323 1105 323V319C1124.41 319 1135.81 320.442 1146.46 323.215C1152.56 324.804 1158.48 326.857 1165.52 329.295C1170.55 331.04 1176.16 332.982 1182.81 335.094C1191.33 337.801 1198.92 341.18 1206.4 344.689C1207.86 345.373 1209.31 346.06 1210.77 346.749C1216.8 349.607 1222.87 352.48 1229.51 355.144C1245.89 361.721 1265.69 367 1296 367V371C1265.15 371 1244.85 365.613 1228.02 358.856C1221.26 356.143 1215.05 353.206 1209.01 350.344C1207.57 349.66 1206.13 348.981 1204.7 348.311C1197.26 344.82 1189.86 341.532 1181.6 338.906C1174.67 336.706 1169 334.738 1163.97 332.994C1157.11 330.612 1151.45 328.648 1145.45 327.086Z" fill="#4B5C69"/>
<path fill-rule="evenodd" clip-rule="evenodd" d="M21.6418 464.189C6.35427 458.434 -9.58236 454 -28.5 454V450C-8.91764 450 7.52436 454.6 23.0511 460.445C29.0141 462.69 34.8692 465.129 40.7008 467.559C42.4415 468.284 44.1801 469.009 45.9188 469.727C53.5043 472.859 61.1283 475.887 69.1068 478.428C74.8377 480.252 79.9452 482.013 84.7867 483.682C94.2607 486.947 102.716 489.862 112.829 492.219C128.009 495.757 146.847 498 178 498V502C146.653 502 127.491 499.743 111.921 496.114C101.614 493.712 92.8441 490.691 83.2418 487.383C78.4336 485.726 73.4167 483.998 67.8932 482.239C59.7503 479.646 52.0011 476.566 44.392 473.424C42.6271 472.695 40.8716 471.963 39.1208 471.234C33.3015 468.81 27.5335 466.406 21.6418 464.189Z" fill="#4B5C69"/>
<path fill-rule="evenodd" clip-rule="evenodd" d="M177.55 423.086C187.771 420.425 198.809 419 218 419V415C198.59 415 187.191 416.442 176.542 419.215C170.438 420.804 164.516 422.857 157.481 425.295C152.446 427.04 146.841 428.982 140.193 431.094C131.667 433.801 124.082 437.18 116.599 440.689C115.141 441.373 113.688 442.06 112.234 442.749C106.198 445.607 100.129 448.48 93.4934 451.144C77.1112 457.721 57.311 463 27 463V467C57.8491 467 78.1539 461.613 94.9836 454.856C101.742 452.143 107.945 449.206 113.99 446.344C115.433 445.66 116.867 444.981 118.297 444.311C125.743 440.82 133.135 437.532 141.403 434.906C148.33 432.706 154.002 430.738 159.027 428.994C165.891 426.612 171.548 424.648 177.55 423.086Z" fill="#4B5C69"/>
<path fill-rule="evenodd" clip-rule="evenodd" d="M128.358 416.189C143.646 410.434 159.582 406 178.5 406V402C158.918 402 142.476 406.6 126.949 412.445C120.986 414.69 115.131 417.129 109.299 419.559C107.558 420.284 105.82 421.009 104.081 421.727C96.4957 424.859 88.8717 427.887 80.8932 430.428C75.1623 432.252 70.0548 434.013 65.2133 435.682C55.7393 438.947 47.2843 441.862 37.171 444.219C21.991 447.757 3.1532 450 -28 450V454C3.3468 454 22.509 451.743 38.079 448.114C48.3864 445.712 57.1559 442.691 66.7582 439.383C71.5664 437.726 76.5833 435.998 82.1068 434.239C90.2497 431.646 97.9989 428.566 105.608 425.424C107.373 424.695 109.128 423.963 110.879 423.234C116.698 420.81 122.467 418.406 128.358 416.189Z" fill="#4B5C69"/>
<path fill-rule="evenodd" clip-rule="evenodd" d="M473.568 320.159C458.784 313.911 443.375 309 424.5 309V305C444.125 305 460.095 310.122 475.125 316.475C480.13 318.59 484.992 320.821 489.836 323.044C499.645 327.545 509.384 332.013 520.107 335.428C522.216 336.099 524.247 336.751 526.217 337.384C539.944 341.791 550.706 345.246 564.232 347.699C579.689 350.502 598.805 352 630 352V356C598.695 356 579.311 354.498 563.518 351.635C549.717 349.132 538.696 345.593 524.984 341.189C523.015 340.557 520.99 339.907 518.893 339.239C507.945 335.753 497.815 331.107 487.875 326.549C483.085 324.352 478.34 322.176 473.568 320.159Z" fill="#4B5C69"/>
<path fill-rule="evenodd" clip-rule="evenodd" d="M1023.84 271.668C1009.18 265.67 993.891 261 975 261V257C994.609 257 1010.44 261.863 1025.35 267.966C1030.53 270.083 1035.54 272.325 1040.55 274.563C1050.08 278.827 1059.59 283.079 1070.11 286.428C1074.6 287.858 1078.73 289.234 1082.67 290.546C1093.53 294.16 1102.92 297.285 1114.29 299.711C1129.73 303.005 1148.83 305 1180 305V309C1148.67 309 1129.27 306.995 1113.46 303.623C1101.85 301.147 1092.18 297.927 1081.24 294.287C1077.34 292.986 1073.27 291.632 1068.89 290.239C1058.18 286.828 1048.29 282.41 1038.62 278.087C1033.66 275.873 1028.76 273.684 1023.84 271.668Z" fill="#4B5C69"/>
<path fill-rule="evenodd" clip-rule="evenodd" d="M1195.84 319.668C1181.18 313.67 1165.89 309 1147 309V305C1166.61 305 1182.44 309.863 1197.35 315.966C1202.53 318.083 1207.54 320.325 1212.55 322.563C1222.08 326.827 1231.59 331.079 1242.11 334.428C1246.6 335.858 1250.73 337.234 1254.67 338.546C1265.53 342.16 1274.92 345.285 1286.29 347.711C1301.73 351.005 1320.83 353 1352 353V357C1320.67 357 1301.27 354.995 1285.46 351.623C1273.85 349.147 1264.18 345.927 1253.24 342.287C1249.34 340.986 1245.27 339.632 1240.89 338.239C1230.18 334.828 1220.29 330.41 1210.62 326.087C1205.66 323.873 1200.76 321.684 1195.84 319.668Z" fill="#4B5C69"/>
<path fill-rule="evenodd" clip-rule="evenodd" d="M829.55 230.086C839.771 227.425 850.809 226 870 226V222C850.59 222 839.191 223.442 828.542 226.215C822.438 227.804 816.516 229.857 809.481 232.295C804.446 234.04 798.841 235.982 792.193 238.094C783.667 240.801 776.082 244.18 768.599 247.689C767.141 248.373 765.688 249.06 764.234 249.749C758.198 252.607 752.129 255.48 745.493 258.144C729.111 264.721 709.311 270 679 270V274C709.849 274 730.154 268.613 746.984 261.856C753.742 259.143 759.945 256.206 765.99 253.344C767.433 252.66 768.867 251.981 770.297 251.311C777.743 247.82 785.135 244.532 793.403 241.906C800.33 239.706 806.002 237.738 811.027 235.994C817.891 233.612 823.548 231.648 829.55 230.086Z" fill="#4B5C69"/>
<path fill-rule="evenodd" clip-rule="evenodd" d="M769.161 223.668C783.815 217.67 799.109 213 818 213V209C798.391 209 782.556 213.863 767.646 219.966C762.474 222.083 757.46 224.325 752.453 226.563C742.918 230.827 733.411 235.079 722.893 238.428C718.4 239.858 714.266 241.234 710.326 242.546C699.466 246.16 690.08 249.285 678.708 251.711C663.266 255.005 644.167 257 613 257V261C644.333 261 663.734 258.995 679.542 255.623C691.148 253.147 700.821 249.927 711.756 246.287C715.663 244.986 719.731 243.632 724.107 242.239C734.821 238.828 744.708 234.41 754.38 230.087C759.336 227.873 764.235 225.684 769.161 223.668Z" fill="#4B5C69"/>
<path d="M128.913 140.323H-249.402V239.119H128.913V140.323Z" fill="#D7DBDE"/>
<path d="M128.876 140.105C128.876 134.234 124.116 129.474 118.245 129.474H-238.913C-244.784 129.474 -249.544 134.234 -249.544 140.105H128.876Z" fill="#AFB7BC"/>
<path fill-rule="evenodd" clip-rule="evenodd" d="M55.784 154.392V229.81H58.442V154.392C58.442 152.924 57.252 151.734 55.784 151.734H-174.458C-175.926 151.734 -177.116 152.924 -177.116 154.392V231.471H-174.458V154.392L55.784 154.392Z" fill="#AFB7BC"/>
<rect width="1.99344" height="79.7374" transform="matrix(-1 0 0 1 0.30011 151.734)" fill="#AFB7BC"/>
<circle cx="107.114" cy="256.558" r="17.4426" fill="#4B5C69"/>
<circle cx="38.0083" cy="256.558" r="17.4426" fill="#4B5C69"/>
<ellipse cx="107.114" cy="256.557" rx="13.4557" ry="13.4557" fill="#394A58"/>
<ellipse cx="38.0083" cy="256.557" rx="13.4557" ry="13.4557" fill="#394A58"/>
<path d="M72.2287 269.519L72.3948 269.515C81.6974 269.515 84.0233 269.515 87.1796 266.524C90.3358 263.534 96.15 260.046 99.6385 260.046H111.931C115.42 260.046 115.118 258.816 115.586 256.391C117.414 246.922 114.257 245.593 109.938 244.597C105.619 243.6 84.6876 242.271 72.3948 242.271C60.1019 242.271 41.8288 243.766 33.6889 244.597C25.5491 245.427 29.0376 253.235 29.7021 256.391C30.3665 259.547 31.6955 260.046 33.6889 260.046C35.6824 260.046 40.1676 260.378 45.6495 260.046C51.1315 259.714 53.6233 263.202 57.444 266.524C61.2303 269.817 66.1585 269.683 72.2287 269.519Z" fill="#4B5C69"/>
<rect width="25.9147" height="11.6284" rx="5.81419" transform="matrix(-1 0 0 1 85.3521 252.404)" fill="#394A58"/>
<path d="M126.384 217.85H128.876V242.27H25.0512C20.2337 242.27 -2.85695 251.573 -9.00337 251.573H-113.493C-120.47 251.573 -144.059 242.27 -148.544 242.27H-249.545V218.016H-247.385L-245.059 226.655H124.225L126.384 217.85Z" fill="#87929B"/>
<path d="M123.726 246.921C125.055 248.516 125.609 252.68 125.72 254.563H128.71V249.745H130.869L132.697 254.563H140.172C141.273 254.563 142.166 253.67 142.166 252.569V242.27C142.166 241.169 141.273 240.277 140.172 240.277H132.697L130.869 244.928H128.71V242.104H118.909C119.961 243.045 122.397 245.327 123.726 246.921Z" fill="#394A58"/>
<path d="M1084.12 257.999V246.626V245.407H943.179L947.037 251.094V257.999C947.037 262.061 950.287 264.498 953.13 264.498H1006.14C1008.57 264.498 1011.01 263.076 1011.01 260.03V253.937H1022.59V259.42C1022.59 262.264 1024.21 264.498 1027.66 264.498C1031.12 264.498 1072.34 264.701 1076.2 264.498C1080.06 264.295 1084.12 260.233 1084.12 257.999Z" fill="#394A58"/>
<path d="M808.124 257.999V246.626V245.407H667.181L671.039 251.094V257.999C671.039 262.061 674.289 264.498 677.132 264.498H730.138C732.575 264.498 735.012 263.076 735.012 260.03V253.937H746.588V259.42C746.588 262.264 748.213 264.498 751.666 264.498C755.118 264.498 796.345 264.701 800.204 264.498C804.063 264.295 808.124 260.233 808.124 257.999Z" fill="#394A58"/>
<path d="M931.196 245.407H916.98V252.922C916.98 256.847 920.163 260.03 924.088 260.03C928.014 260.03 931.196 256.847 931.196 252.922V245.407Z" fill="#394A58"/>
<path d="M839.4 245.407H825.184V252.922C825.184 256.847 828.366 260.03 832.292 260.03C836.218 260.03 839.4 256.847 839.4 252.922V245.407Z" fill="#394A58"/>
<circle cx="21.3244" cy="21.3244" r="21.3244" transform="matrix(-1 0 0 1 1072.95 231.191)" fill="#4B5C69"/>
<circle cx="21.3244" cy="21.3244" r="21.3244" transform="matrix(-1 0 0 1 796.954 231.191)" fill="#4B5C69"/>
<circle cx="21.3244" cy="21.3244" r="21.3244" transform="matrix(-1 0 0 1 994.967 231.191)" fill="#4B5C69"/>
<circle cx="21.3244" cy="21.3244" r="21.3244" transform="matrix(-1 0 0 1 718.969 231.191)" fill="#4B5C69"/>
<ellipse cx="16.4502" cy="16.4502" rx="16.4502" ry="16.4502" transform="matrix(-1 0 0 1 1068.08 236.065)" fill="#394A58"/>
<ellipse cx="16.4502" cy="16.4502" rx="16.4502" ry="16.4502" transform="matrix(-1 0 0 1 792.081 236.065)" fill="#394A58"/>
<ellipse cx="16.4502" cy="16.4502" rx="16.4502" ry="16.4502" transform="matrix(-1 0 0 1 990.092 236.065)" fill="#394A58"/>
<ellipse cx="16.4502" cy="16.4502" rx="16.4502" ry="16.4502" transform="matrix(-1 0 0 1 714.095 236.065)" fill="#394A58"/>
<path d="M645.247 242.776H648.091V239.324H643.623V236.278C643.623 234.653 641.998 234.382 641.186 234.45H631.437V236.278L629.203 238.308V242.776L631.437 244.198V247.447H641.186L645.247 242.776Z" fill="#394A58"/>
<rect width="65.8008" height="16.6533" transform="matrix(-1 0 0 1 910.887 245.407)" fill="#394A58"/>
<path d="M646.872 245.407H1092.45L1106.67 267.95H1117.02L1109.91 255.155V245.407L1119.46 227.738V190.167L1104.23 132.083L1083.51 125.584H1040.66L1025.63 138.988H942.976L929.978 125.584H822.544L809.952 139.395H637.936V219.412H640.373V225.098H646.872V245.407Z" fill="#87929B"/>
<path d="M637.936 201.54H960.645C964.3 201.54 966.347 203.368 971.814 211.491C976.325 218.193 979.938 220.224 986.437 220.224H1119.46V210.476H986.031C981.748 210.476 975.3 201.751 968.164 192.096C966.501 189.846 964.801 187.545 963.082 185.293C960.679 182.145 958.551 179.313 956.641 176.771C945.364 161.761 941.681 156.86 934.04 156.86H637.936V201.54Z" fill="#D7DBDE"/>
<path d="M637.936 156.861H934.04C941.681 156.861 945.364 161.762 956.641 176.771C958.551 179.313 960.679 182.145 963.082 185.293C964.801 187.546 966.501 189.846 968.164 192.096C975.3 201.751 981.748 210.476 986.031 210.476H1119.46V190.167L1109.23 151.175C1032.29 151.192 955.34 151.386 878.393 151.58C798.241 151.782 718.089 151.984 637.936 151.986V156.861Z" fill="#E21A1A"/>
<path d="M1112.76 249.421H1109.91V245.968H1114.38V242.922C1114.38 241.298 1116.01 241.027 1116.82 241.095H1126.57V242.922L1128.8 244.953V249.421L1126.57 250.843V254.092H1116.82L1112.76 249.421Z" fill="#394A58"/>
<rect width="57.2711" height="31.2757" transform="matrix(-1 0 0 1 904.795 125.584)" fill="#73808A"/>
<path d="M1113.16 220.63H1119.46V228.551L1109.51 245.61L1113.16 220.63Z" fill="#E21A1A"/>
<rect width="46.7105" height="4.46796" rx="2" transform="matrix(-1 0 0 1 1015.88 130.458)" fill="#E21A1A"/>
<path d="M960.847 101.824C961.822 102.311 990.092 120.575 1004.11 129.647H996.388L954.349 101.824C956.109 101.62 959.873 101.336 960.847 101.824Z" fill="#E21A1A"/>
<rect width="5.28031" height="4.06178" transform="matrix(-1 0 0 1 1010.6 134.927)" fill="#87929B"/>
<rect width="5.28031" height="4.06178" transform="matrix(-1 0 0 1 977.298 134.927)" fill="#87929B"/>
<path d="M1018.52 76.4371L959.629 101.62H954.146L952.521 96.9491L1002.89 76.4371V74H1005.93V76.4371L959.629 97.9645H961.457L1014.87 76.4371V74H1018.52V76.4371Z" fill="#D7DBDE"/>
<rect width="10.5606" height="1.21853" transform="matrix(-1 0 0 1 1015.88 74)" fill="#D7DBDE"/>
<path d="M1018.52 169.859C1018.52 167.167 1016.34 164.984 1013.65 164.984H1008.78C1006.08 164.984 1003.9 167.167 1003.9 169.859V182.856C1003.9 185.548 1006.08 187.73 1008.78 187.73H1013.65C1016.34 187.73 1018.52 185.548 1018.52 182.856V169.859Z" fill="#4B5C69"/>
<rect width="14.6224" height="3.6556" rx="1.8278" transform="matrix(-1 0 0 1 1018.52 222.255)" fill="#73808A"/>
<rect width="14.6224" height="3.6556" rx="1.8278" transform="matrix(-1 0 0 1 1018.52 230.785)" fill="#73808A"/>
<path fill-rule="evenodd" clip-rule="evenodd" d="M1005.12 161.328H1016.9C1019.37 161.328 1021.37 163.329 1021.37 165.796V214.131C1021.37 216.599 1019.37 218.599 1016.9 218.599H1005.12C1002.65 218.599 1000.65 216.599 1000.65 214.131V165.796C1000.65 163.329 1002.65 161.328 1005.12 161.328ZM1016.9 160.922C1019.59 160.922 1021.77 163.104 1021.77 165.796V214.131C1021.77 216.823 1019.59 219.006 1016.9 219.006H1005.12C1002.43 219.006 1000.25 216.823 1000.25 214.131V165.796C1000.25 163.104 1002.43 160.922 1005.12 160.922H1016.9Z" fill="#9BA4AB"/>
<rect width="1.62471" height="58.8958" rx="0.812356" transform="matrix(-1 0 0 1 1026.24 174.732)" fill="#73808A"/>
<rect width="1.62471" height="58.8958" rx="0.812356" transform="matrix(-1 0 0 1 997.403 174.732)" fill="#73808A"/>
<rect width="4.87414" height="1.62471" rx="0.812356" transform="matrix(-1 0 0 1 1006.75 190.167)" fill="#73808A"/>
<path d="M1105.24 185.293L1107.88 182.043L1096.51 158.688H1069.7V185.293H1105.24Z" fill="#4B5C69"/>
<path d="M1085.75 185.293V165.999L1081.89 158.688H1069.7V185.293H1085.75Z" fill="#394A58"/>
<path d="M813.973 171.623V172.347H820.28C820.7 172.347 821.335 172.347 821.745 172.762C822.165 173.177 822.165 173.795 822.165 174.218V180.44C822.165 180.855 822.165 181.482 821.745 181.888C821.326 182.303 820.691 182.303 820.28 182.303H817.234C816.707 182.303 816.028 182.303 815.76 181.729C815.501 181.164 815.867 180.643 816.18 180.229L820.28 174.836H813.973L811.454 178.155C811.034 178.711 810.667 179.196 810.667 179.814C810.667 180.44 811.007 180.891 811.454 181.473L812.088 182.303C812.713 183.132 813.348 183.962 814.187 184.377C815.027 184.792 816.028 184.792 817.395 184.792H820.128C821.701 184.792 824.068 184.792 825.641 183.238C827.213 181.676 827.213 179.399 827.213 178.569V176.08C827.213 175.251 827.213 172.965 825.641 171.412C824.068 169.858 821.701 169.858 820.128 169.858H815.769C815.349 169.858 814.822 169.858 814.402 170.273C813.973 170.688 813.973 171.209 813.973 171.623Z" fill="#E21A1A"/>
<path d="M806.415 174.845H812.713L805.155 184.801H798.848L806.415 174.845Z" fill="#E21A1A"/>
<path d="M781.829 176.601C781.829 176.187 781.829 175.666 782.249 175.251C782.668 174.836 783.196 174.836 783.615 174.836H794.175C795.542 174.836 796.543 174.836 797.383 175.251C798.222 175.666 798.857 176.495 799.491 177.325L800.116 178.155C800.563 178.746 800.903 179.196 800.903 179.814C800.903 180.441 800.536 180.917 800.116 181.473L797.597 184.792H791.29L795.39 179.39C795.703 178.976 796.078 178.455 795.81 177.881C795.542 177.307 794.863 177.307 794.336 177.307H789.405V189.761H784.366V177.325H781.847V176.601" fill="#E21A1A"/>
<rect width="4.46796" height="62.9576" transform="matrix(-1 0 0 1 637.936 151.174)" fill="#73808A"/>
<path d="M633.468 150.971C633.468 149.737 632.468 148.737 631.234 148.737C630 148.737 629 149.737 629 150.971V214.335C629 215.568 630 216.569 631.234 216.569C632.468 216.569 633.468 215.568 633.468 214.335V150.971Z" fill="#394A58"/>
<path d="M174.061 257.999V246.626V245.407H315.004L311.146 251.094V257.999C311.146 262.061 307.896 264.498 305.053 264.498H252.047C249.61 264.498 247.173 263.076 247.173 260.03V253.937H235.597V259.42C235.597 262.264 233.972 264.498 230.519 264.498C227.067 264.498 185.84 264.701 181.981 264.498C178.122 264.295 174.061 260.233 174.061 257.999Z" fill="#394A58"/>
<path d="M450.059 257.999V246.626V245.407H591.003L587.144 251.094V257.999C587.144 262.061 583.895 264.498 581.051 264.498H528.045C525.608 264.498 523.171 263.076 523.171 260.03V253.937H511.595V259.42C511.595 262.264 509.97 264.498 506.518 264.498C503.065 264.498 461.838 264.701 457.979 264.498C454.121 264.295 450.059 260.233 450.059 257.999Z" fill="#394A58"/>
<path d="M326.987 245.407H341.203V252.922C341.203 256.847 338.021 260.03 334.095 260.03C330.169 260.03 326.987 256.847 326.987 252.922V245.407Z" fill="#394A58"/>
<path d="M418.783 245.407H432.999V252.922C432.999 256.847 429.817 260.03 425.891 260.03C421.965 260.03 418.783 256.847 418.783 252.922V245.407Z" fill="#394A58"/>
<circle cx="206.555" cy="252.515" r="21.3244" fill="#4B5C69"/>
<circle cx="482.553" cy="252.515" r="21.3244" fill="#4B5C69"/>
<circle cx="284.541" cy="252.515" r="21.3244" fill="#4B5C69"/>
<circle cx="560.539" cy="252.515" r="21.3244" fill="#4B5C69"/>
<ellipse cx="206.555" cy="252.515" rx="16.4502" ry="16.4502" fill="#394A58"/>
<ellipse cx="482.553" cy="252.515" rx="16.4502" ry="16.4502" fill="#394A58"/>
<ellipse cx="284.541" cy="252.515" rx="16.4502" ry="16.4502" fill="#394A58"/>
<ellipse cx="560.539" cy="252.515" rx="16.4502" ry="16.4502" fill="#394A58"/>
<path d="M612.936 242.776H610.093V239.324H614.561V236.278C614.561 234.653 616.185 234.382 616.998 234.45H626.746V236.278L628.98 238.308V242.776L626.746 244.198V247.447H616.998L612.936 242.776Z" fill="#394A58"/>
<rect x="347.296" y="245.407" width="65.8008" height="16.6533" fill="#394A58"/>
<path d="M611.311 245.407H165.734L151.518 267.95H141.16L148.268 255.155V245.407L138.723 227.738V190.167L153.955 132.083L174.67 125.584H217.522L232.55 138.988H315.207L328.205 125.584H435.639L448.231 139.395H620.247V219.412H617.81V225.098H611.311V245.407Z" fill="#87929B"/>
<path d="M620.247 201.54H297.539C293.883 201.54 291.836 203.368 286.369 211.491C281.858 218.193 278.245 220.224 271.746 220.224H138.723V210.476H272.153C276.435 210.476 282.883 201.751 290.019 192.096C291.682 189.846 293.383 187.545 295.102 185.293C297.504 182.145 299.632 179.313 301.542 176.771C312.819 161.761 316.502 156.86 324.143 156.86H620.247V201.54Z" fill="#D7DBDE"/>
<path d="M620.247 156.861H324.143C316.502 156.861 312.819 161.762 301.542 176.771C299.632 179.313 297.504 182.145 295.102 185.293C293.383 187.546 291.682 189.846 290.019 192.096C282.883 201.751 276.435 210.476 272.153 210.476H138.723V190.167L148.948 151.175C225.896 151.192 302.843 151.386 379.79 151.58C459.943 151.782 540.095 151.984 620.247 151.986V156.861Z" fill="#E21A1A"/>
<path d="M145.425 249.421H148.268V245.968H143.8V242.922C143.8 241.298 142.176 241.027 141.363 241.095H131.615V242.922L129.381 244.953V249.421L131.615 250.843V254.092H141.363L145.425 249.421Z" fill="#394A58"/>
<rect x="353.388" y="125.584" width="57.2711" height="31.2757" fill="#73808A"/>
<path d="M145.019 220.63H138.723V228.551L148.674 245.61L145.019 220.63Z" fill="#E21A1A"/>
<rect x="242.299" y="130.458" width="46.7105" height="4.46796" rx="2" fill="#E21A1A"/>
<path d="M297.336 101.824C296.361 102.311 268.091 120.575 254.078 129.647H261.795L303.835 101.824C302.075 101.62 298.311 101.336 297.336 101.824Z" fill="#E21A1A"/>
<rect x="247.579" y="134.927" width="5.28031" height="4.06178" fill="#87929B"/>
<rect x="280.885" y="134.927" width="5.28031" height="4.06178" fill="#87929B"/>
<path d="M239.658 76.4371L298.554 101.62H304.037L305.662 96.9491L255.296 76.4371V74H252.25V76.4371L298.554 97.9645H296.726L243.314 76.4371V74H239.658V76.4371Z" fill="#D7DBDE"/>
<rect x="242.299" y="74" width="10.5606" height="1.21853" fill="#D7DBDE"/>
<rect x="239.658" y="164.984" width="14.6224" height="22.746" rx="7.31121" fill="#4B5C69"/>
<rect x="239.658" y="222.255" width="14.6224" height="3.6556" rx="1.8278" fill="#73808A"/>
<rect x="239.658" y="230.785" width="14.6224" height="3.6556" rx="1.8278" fill="#73808A"/>
<path fill-rule="evenodd" clip-rule="evenodd" d="M253.062 161.328H241.283C238.815 161.328 236.815 163.329 236.815 165.796V214.131C236.815 216.599 238.815 218.599 241.283 218.599H253.062C255.53 218.599 257.53 216.599 257.53 214.131V165.796C257.53 163.329 255.53 161.328 253.062 161.328ZM241.283 160.922C238.591 160.922 236.409 163.104 236.409 165.796V214.131C236.409 216.823 238.591 219.006 241.283 219.006H253.062C255.754 219.006 257.936 216.823 257.936 214.131V165.796C257.936 163.104 255.754 160.922 253.062 160.922H241.283Z" fill="#9BA4AB"/>
<rect x="231.941" y="174.732" width="1.62471" height="58.8958" rx="0.812356" fill="#73808A"/>
<rect x="260.779" y="174.732" width="1.62471" height="58.8958" rx="0.812356" fill="#73808A"/>
<rect x="251.437" y="190.167" width="4.87414" height="1.62471" rx="0.812356" fill="#73808A"/>
<path d="M152.939 185.293L150.299 182.043L161.672 158.688H188.48V185.293H152.939Z" fill="#4B5C69"/>
<path d="M172.436 185.293V165.999L176.294 158.688H188.48V185.293H172.436Z" fill="#394A58"/>
<path d="M463.113 171.623V172.347H469.42C469.84 172.347 470.475 172.347 470.886 172.762C471.305 173.176 471.305 173.794 471.305 174.218V180.44C471.305 180.855 471.305 181.482 470.886 181.888C470.466 182.302 469.831 182.302 469.42 182.302H466.374C465.847 182.302 465.168 182.302 464.9 181.729C464.641 181.164 465.007 180.643 465.32 180.228L469.42 174.836H463.113L460.594 178.154C460.174 178.71 459.807 179.196 459.807 179.814C459.807 180.44 460.147 180.89 460.594 181.473L461.228 182.302C461.853 183.132 462.488 183.962 463.327 184.377C464.167 184.791 465.168 184.791 466.535 184.791H469.268C470.841 184.791 473.208 184.791 474.781 183.238C476.353 181.676 476.353 179.399 476.353 178.569V176.08C476.353 175.251 476.353 172.965 474.781 171.411C473.208 169.858 470.841 169.858 469.268 169.858H464.909C464.489 169.858 463.962 169.858 463.542 170.273C463.113 170.688 463.113 171.208 463.113 171.623Z" fill="#E21A1A"/>
<path d="M455.555 174.845H461.854L454.295 184.8H447.988L455.555 174.845Z" fill="#E21A1A"/>
<path d="M430.969 176.601C430.969 176.186 430.969 175.666 431.389 175.251C431.808 174.836 432.336 174.836 432.755 174.836H443.315C444.682 174.836 445.683 174.836 446.523 175.251C447.363 175.666 447.997 176.495 448.631 177.325L449.257 178.154C449.703 178.746 450.043 179.196 450.043 179.814C450.043 180.44 449.676 180.917 449.257 181.473L446.737 184.792H440.43L444.53 179.39C444.843 178.975 445.218 178.455 444.95 177.881C444.682 177.307 444.003 177.307 443.476 177.307H438.545V189.761H433.506V177.325H430.987V176.601" fill="#E21A1A"/>
<rect x="620.247" y="151.174" width="4.46796" height="62.9576" fill="#73808A"/>
<path d="M624.715 150.971C624.715 149.737 625.715 148.737 626.949 148.737C628.183 148.737 629.183 149.737 629.183 150.971V214.335C629.183 215.568 628.183 216.569 626.949 216.569C625.715 216.569 624.715 215.568 624.715 214.335V150.971Z" fill="#394A58"/>
<path d="M1418.88 298.996C1418.88 298.446 1418.43 298 1417.88 298H1041.78C1041.23 298 1040.79 298.446 1040.79 298.996V332.885C1040.79 333.435 1041.23 333.882 1041.78 333.882H1417.88C1418.43 333.882 1418.88 333.435 1418.88 332.885V298.996Z" fill="#D7DBDE"/>
<circle cx="1130.99" cy="352.654" r="17.4426" fill="#4B5C69"/>
<circle cx="1061.89" cy="352.654" r="17.4426" fill="#4B5C69"/>
<ellipse cx="1130.99" cy="352.653" rx="13.4557" ry="13.4557" fill="#394A58"/>
<ellipse cx="1061.89" cy="352.653" rx="13.4557" ry="13.4557" fill="#394A58"/>
<path d="M1096.11 365.616L1096.27 365.612C1105.58 365.612 1107.9 365.612 1111.06 362.622C1114.21 359.631 1120.03 356.143 1123.52 356.143H1135.81C1139.3 356.143 1139 354.913 1139.46 352.488C1141.29 343.02 1138.13 341.691 1133.82 340.694C1129.5 339.697 1108.57 338.368 1096.27 338.368C1083.98 338.368 1065.71 339.863 1057.57 340.694C1049.43 341.524 1052.92 349.332 1053.58 352.488C1054.24 355.645 1055.57 356.143 1057.57 356.143C1059.56 356.143 1064.05 356.475 1069.53 356.143C1075.01 355.811 1077.5 359.299 1081.32 362.622C1085.11 365.914 1090.04 365.781 1096.11 365.616Z" fill="#4B5C69"/>
<rect width="25.9147" height="11.6284" rx="5.81419" transform="matrix(-1 0 0 1 1109.23 348.501)" fill="#394A58"/>
<path d="M1416.38 313.948H1418.88V338.368H1315.05C1310.23 338.368 1287.14 347.671 1281 347.671H1176.51C1169.53 347.671 1145.94 338.368 1141.46 338.368H1040.46V314.115H1042.62L1044.94 322.753H1414.23L1416.38 313.948Z" fill="#87929B"/>
<path d="M1045.44 343.02C1044.11 344.614 1043.56 348.778 1043.45 350.661H1040.46V345.844H1038.3L1036.47 350.661H1028.99C1027.89 350.661 1027 349.769 1027 348.668V338.368C1027 337.267 1027.89 336.375 1028.99 336.375H1036.47L1038.3 341.026H1040.46V338.202H1050.26C1049.2 339.143 1046.77 341.425 1045.44 343.02Z" fill="#394A58"/>
<rect width="49.8359" height="14.2863" transform="matrix(-1 0 0 1 1223.52 302.983)" fill="#C3C9CD"/>
<rect width="49.5037" height="14.2863" transform="matrix(-1 0 0 1 1160.73 302.983)" fill="#C3C9CD"/>
<rect width="50.1681" height="14.2863" transform="matrix(-1 0 0 1 1098.6 302.983)" fill="#C3C9CD"/>
<path d="M1026.88 298.996C1026.88 298.446 1026.43 298 1025.88 298H649.785C649.235 298 648.788 298.446 648.788 298.996V332.885C648.788 333.435 649.235 333.882 649.785 333.882H1025.88C1026.43 333.882 1026.88 333.435 1026.88 332.885V298.996Z" fill="#D7DBDE"/>
<circle cx="1005.12" cy="352.654" r="17.4426" fill="#4B5C69"/>
<circle cx="936.01" cy="352.654" r="17.4426" fill="#4B5C69"/>
<ellipse cx="1005.12" cy="352.653" rx="13.4557" ry="13.4557" fill="#394A58"/>
<ellipse cx="936.01" cy="352.653" rx="13.4557" ry="13.4557" fill="#394A58"/>
<path d="M970.229 365.616L970.395 365.612C979.698 365.612 982.024 365.612 985.18 362.622C988.337 359.631 994.151 356.143 997.639 356.143H1009.93C1013.42 356.143 1013.12 354.913 1013.59 352.488C1015.41 343.02 1012.26 341.691 1007.94 340.694C1003.62 339.697 982.688 338.368 970.395 338.368C958.103 338.368 939.829 339.863 931.69 340.694C923.55 341.524 927.038 349.332 927.703 352.488C928.367 355.645 929.696 356.143 931.69 356.143C933.683 356.143 938.168 356.475 943.65 356.143C949.132 355.811 951.624 359.299 955.445 362.622C959.231 365.914 964.159 365.781 970.229 365.616Z" fill="#4B5C69"/>
<rect width="25.9147" height="11.6284" rx="5.81419" transform="matrix(-1 0 0 1 983.353 348.501)" fill="#394A58"/>
<circle cx="738.993" cy="352.654" r="17.4426" fill="#4B5C69"/>
<circle cx="669.887" cy="352.654" r="17.4426" fill="#4B5C69"/>
<ellipse cx="738.993" cy="352.653" rx="13.4557" ry="13.4557" fill="#394A58"/>
<ellipse cx="669.887" cy="352.653" rx="13.4557" ry="13.4557" fill="#394A58"/>
<path d="M704.107 365.616L704.273 365.612C713.576 365.612 715.902 365.612 719.058 362.622C722.214 359.631 728.028 356.143 731.517 356.143H743.81C747.298 356.143 746.996 354.913 747.464 352.488C749.292 343.02 746.135 341.691 741.816 340.694C737.497 339.697 716.566 338.368 704.273 338.368C691.98 338.368 673.707 339.863 665.567 340.694C657.427 341.524 660.916 349.332 661.58 352.488C662.245 355.645 663.574 356.143 665.567 356.143C667.561 356.143 672.046 356.475 677.528 356.143C683.01 355.811 685.502 359.299 689.322 362.622C693.109 365.914 698.037 365.781 704.107 365.616Z" fill="#4B5C69"/>
<rect width="25.9147" height="11.6284" rx="5.81419" transform="matrix(-1 0 0 1 717.231 348.501)" fill="#394A58"/>
<path d="M1024.39 313.948H1026.88V338.368H923.052C918.235 338.368 895.144 347.671 888.998 347.671H784.508C777.531 347.671 753.942 338.368 749.457 338.368H648.456V314.115H650.616L652.942 322.753H1022.23L1024.39 313.948Z" fill="#87929B"/>
<path d="M653.439 343.02C652.11 344.614 651.557 348.778 651.446 350.661H648.456V345.844H646.296L644.469 350.661H636.993C635.892 350.661 635 349.769 635 348.668V338.368C635 337.267 635.892 336.375 636.993 336.375H644.469L646.296 341.026H648.456V338.202H658.257C657.205 339.143 654.768 341.425 653.439 343.02Z" fill="#394A58"/>
<path d="M1021.73 343.02C1023.06 344.614 1023.61 348.778 1023.72 350.661H1026.71V345.844H1028.87L1030.7 350.661H1038.17C1039.27 350.661 1040.17 349.769 1040.17 348.668V338.368C1040.17 337.267 1039.27 336.375 1038.17 336.375H1030.7L1028.87 341.026H1026.71V338.202H1016.91C1017.96 339.143 1020.4 341.425 1021.73 343.02Z" fill="#394A58"/>
<rect width="49.1714" height="14.2863" transform="matrix(-1 0 0 1 1018.9 302.983)" fill="#C3C9CD"/>
<rect width="50.1681" height="14.2863" transform="matrix(-1 0 0 1 956.775 302.983)" fill="#C3C9CD"/>
<rect width="49.1714" height="14.2863" transform="matrix(-1 0 0 1 893.648 302.983)" fill="#C3C9CD"/>
<rect width="49.8359" height="14.2863" transform="matrix(-1 0 0 1 831.519 302.983)" fill="#C3C9CD"/>
<rect width="49.5037" height="14.2863" transform="matrix(-1 0 0 1 768.727 302.983)" fill="#C3C9CD"/>
<rect width="50.1681" height="14.2863" transform="matrix(-1 0 0 1 706.598 302.983)" fill="#C3C9CD"/>
<circle cx="512.113" cy="353.015" r="17.4426" fill="#5F6E79"/>
<circle cx="443.008" cy="353.015" r="17.4426" fill="#5F6E79"/>
<ellipse cx="512.113" cy="353.015" rx="13.4557" ry="13.4557" fill="#394A58"/>
<ellipse cx="443.008" cy="353.015" rx="13.4557" ry="13.4557" fill="#394A58"/>
<path d="M477.228 365.976L477.394 365.971C486.696 365.971 489.022 365.971 492.179 362.981C495.335 359.991 501.149 356.503 504.638 356.503H516.93C520.419 356.503 520.117 355.273 520.585 352.848C522.413 343.379 519.256 342.05 514.937 341.053C510.618 340.057 489.687 338.728 477.394 338.728C465.101 338.728 446.828 340.223 438.688 341.053C430.548 341.884 434.037 349.692 434.701 352.848C435.366 356.004 436.694 356.503 438.688 356.503C440.681 356.503 445.167 356.835 450.649 356.503C456.13 356.17 458.622 359.659 462.443 362.981C466.229 366.274 471.158 366.14 477.228 365.976Z" fill="#5F6E79"/>
<rect width="25.9147" height="11.6284" rx="5.81419" transform="matrix(-1 0 0 1 490.352 348.862)" fill="#394A58"/>
<circle cx="245.99" cy="353.015" r="17.4426" fill="#5F6E79"/>
<circle cx="176.884" cy="353.015" r="17.4426" fill="#5F6E79"/>
<ellipse cx="245.989" cy="353.014" rx="13.4557" ry="13.4557" fill="#394A58"/>
<ellipse cx="176.884" cy="353.014" rx="13.4557" ry="13.4557" fill="#394A58"/>
<path d="M211.105 365.976L211.271 365.971C220.573 365.971 222.899 365.971 226.055 362.981C229.212 359.991 235.026 356.503 238.514 356.503H250.807C254.296 356.503 253.994 355.273 254.462 352.848C256.29 343.379 253.133 342.05 248.814 341.053C244.495 340.057 223.564 338.728 211.271 338.728C198.978 338.728 180.705 340.223 172.565 341.053C164.425 341.884 167.913 349.692 168.578 352.848C169.242 356.004 170.571 356.503 172.565 356.503C174.558 356.503 179.044 356.835 184.525 356.503C190.007 356.17 192.499 359.659 196.32 362.981C200.106 366.274 205.034 366.14 211.105 365.976Z" fill="#5F6E79"/>
<rect width="25.9147" height="11.6284" rx="5.81419" transform="matrix(-1 0 0 1 224.229 348.861)" fill="#394A58"/>
<path d="M531.384 314.309H533.876V338.729H430.051C425.234 338.729 402.143 348.032 395.997 348.032H291.508C284.531 348.032 260.942 338.729 256.456 338.729H155.456V314.475H157.615L159.941 323.114H529.225L531.384 314.309Z" fill="#87929B"/>
<path d="M160.439 343.38C159.11 344.975 158.556 349.139 158.446 351.022H155.456V346.204H153.296L151.469 351.022H143.993C142.892 351.022 142 350.129 142 349.028V338.729C142 337.628 142.892 336.736 143.993 336.736H151.469L153.296 341.387H155.456V338.563H165.257C164.205 339.504 161.768 341.786 160.439 343.38Z" fill="#394A58"/>
<path d="M528.726 343.38C530.055 344.975 530.609 349.139 530.72 351.022H533.71V346.204H535.869L537.697 351.022H545.172C546.273 351.022 547.166 350.129 547.166 349.028V338.729C547.166 337.628 546.273 336.736 545.172 336.736H537.697L535.869 341.387H533.71V338.563H523.909C524.961 339.504 527.397 341.786 528.726 343.38Z" fill="#394A58"/>
<path d="M182.035 216.965H512.281C526.567 216.965 536.534 245.869 536.534 272.116C536.534 298.363 523.245 322.949 512.281 322.949H182.035C174.061 322.949 158.446 308.33 158.446 272.116C158.446 245.205 169.41 216.965 182.035 216.965Z" fill="#D7DBDE"/>
<path d="M491.018 311.984L494.008 322.948H463.11L465.768 311.984H475.403V216.632H483.377V311.984H491.018Z" fill="#87929B"/>
<path d="M225.557 311.984L228.548 322.948H197.649L200.307 311.984H209.942V216.632H217.916V311.984H225.557Z" fill="#87929B"/>
<rect width="34.2206" height="5.64807" transform="matrix(-1 0 0 1 364.102 206)" fill="#D7DBDE"/>
<rect width="22.9245" height="5.64807" transform="matrix(-1 0 0 1 358.454 211.316)" fill="#AFB7BC"/>
<path d="M374.401 212.977C374.401 212.243 373.806 211.648 373.072 211.648L-nan -nanL373.072 211.648C372.338 211.648 371.743 212.243 371.743 212.977V322.948H374.401V212.977Z" fill="#87929B"/>
<path d="M396.993 212.977C396.993 212.243 396.398 211.648 395.664 211.648L-nan -nanL395.664 211.648C394.931 211.648 394.336 212.243 394.336 212.977V322.948H396.993V212.977Z" fill="#87929B"/>
<rect width="22.5923" height="2.65791" transform="matrix(-1 0 0 1 395.664 307.333)" fill="#87929B"/>
<rect width="22.5923" height="2.65791" transform="matrix(-1 0 0 1 395.664 290.389)" fill="#87929B"/>
<rect width="22.5923" height="2.65791" transform="matrix(-1 0 0 1 395.664 273.445)" fill="#87929B"/>
<rect width="22.5923" height="2.65791" transform="matrix(-1 0 0 1 395.664 256.501)" fill="#87929B"/>
<rect width="22.5923" height="2.65791" transform="matrix(-1 0 0 1 395.664 239.556)" fill="#87929B"/>
<rect width="22.5923" height="2.65791" transform="matrix(-1 0 0 1 395.664 222.612)" fill="#87929B"/>
<rect width="378.421" height="109.639" rx="4" transform="matrix(-1 0 0 1 138.876 226)" fill="#D7DBDE"/>
<rect width="47.5102" height="90.3691" transform="matrix(-1 0 0 1 126.915 234.638)" fill="#C3C9CD"/>
<rect width="48.5069" height="90.3691" transform="matrix(-1 0 0 1 67.1122 234.638)" fill="#C3C9CD"/>
<rect width="47.5102" height="90.3691" transform="matrix(-1 0 0 1 6.31152 234.638)" fill="#C3C9CD"/>
<circle cx="117.113" cy="353.083" r="17.4426" fill="#5F6E79"/>
<circle cx="48.0077" cy="353.083" r="17.4426" fill="#5F6E79"/>
<ellipse cx="117.113" cy="353.083" rx="13.4557" ry="13.4557" fill="#394A58"/>
<ellipse cx="48.0078" cy="353.083" rx="13.4557" ry="13.4557" fill="#394A58"/>
<path d="M82.2282 366.045L82.3944 366.041C91.6969 366.041 94.0229 366.041 97.1791 363.051C100.335 360.061 106.15 356.572 109.638 356.572H121.931C125.419 356.572 125.117 355.342 125.585 352.918C127.413 343.449 124.257 342.12 119.937 341.123C115.618 340.126 94.6872 338.797 82.3944 338.797C70.1015 338.797 51.8284 340.292 43.6885 341.123C35.5486 341.954 39.0371 349.761 39.7016 352.918C40.3661 356.074 41.6951 356.572 43.6885 356.572C45.6819 356.572 50.1672 356.904 55.6491 356.572C61.1311 356.24 63.6228 359.728 67.4436 363.051C71.2299 366.343 76.1581 366.21 82.2282 366.045Z" fill="#5F6E79"/>
<rect width="25.9147" height="11.6284" rx="5.81419" transform="matrix(-1 0 0 1 95.3519 348.93)" fill="#394A58"/>
<path d="M136.384 314.377H138.876V338.797H35.0512C30.2337 338.797 7.14308 348.099 0.996658 348.099H-103.493C-110.47 348.099 -134.059 338.797 -138.544 338.797H-239.545V314.543H-237.385L-235.059 323.181H134.225L136.384 314.377Z" fill="#87929B"/>
<path d="M133.726 343.448C135.055 345.043 135.609 349.207 135.72 351.09H138.71V346.272H140.869L142.697 351.09H150.172C151.273 351.09 152.166 350.197 152.166 349.096V338.797C152.166 337.696 151.273 336.803 150.172 336.803H142.697L140.869 341.455H138.71V338.631H128.909C129.961 339.572 132.397 341.853 133.726 343.448Z" fill="#394A58"/>
<path d="M1014.3 304.865V281.608H694.025V304.865L788.381 398.557H828.914L848.184 371.313H858.151L880.744 398.557H920.612L1014.3 304.865Z" fill="#D7DBDE"/>
<path d="M1014.3 304.865L912.639 369.32H890.379L854.663 344.402L826.339 369.32H795.358L694.025 304.865L788.381 398.557H830.576L849.845 371.313H859.813L882.405 398.557H920.612L1014.3 304.865Z" fill="#C3C9CD"/>
<path d="M918.602 266.99H940.563C940.73 265.311 942.146 264 943.869 264H991.379C993.102 264 994.519 265.311 994.685 266.99H1006.31C1007.09 267.433 1009.18 268.917 1011.31 271.309C1013.44 273.701 1014.19 279.394 1014.3 281.941H694.357C694.357 281.941 694.357 275.462 696.688 271.309C699.018 267.156 701.282 266.99 703.679 266.99H712.315C712.481 265.311 713.898 264 715.621 264H763.131C764.854 264 766.27 265.311 766.437 266.99H788.398C788.564 265.311 789.981 264 791.704 264H839.214C840.936 264 842.353 265.311 842.52 266.99H864.48C864.647 265.311 866.064 264 867.786 264H915.297C917.019 264 918.436 265.311 918.602 266.99Z" fill="#AFB7BC"/>
<path d="M1008.66 367.99V370.981V371.977H990.216L964.467 354.036L969.949 348.721L997.193 367.99L999.353 361.346V320.148L1006.33 313.171V361.346L1008.66 367.99Z" fill="#394A58"/>
<path d="M699.34 367.99V370.981V371.977H717.78L743.528 354.036L738.046 348.721L710.803 367.99L708.643 361.346V320.148L701.666 313.171V361.346L699.34 367.99Z" fill="#394A58"/>
<circle cx="1021.11" cy="401.38" r="17.4426" fill="#4B5C69"/>
<circle cx="952.009" cy="401.38" r="17.4426" fill="#4B5C69"/>
<ellipse cx="1021.11" cy="401.379" rx="13.4557" ry="13.4557" fill="#394A58"/>
<ellipse cx="952.009" cy="401.379" rx="13.4557" ry="13.4557" fill="#394A58"/>
<path d="M986.229 414.341L986.395 414.336C995.698 414.336 998.024 414.336 1001.18 411.346C1004.34 408.356 1010.15 404.868 1013.64 404.868H1025.93C1029.42 404.868 1029.12 403.638 1029.59 401.213C1031.41 391.744 1028.26 390.415 1023.94 389.418C1019.62 388.422 998.688 387.093 986.395 387.093C974.103 387.093 955.829 388.588 947.689 389.418C939.55 390.249 943.038 398.057 943.703 401.213C944.367 404.369 945.696 404.868 947.689 404.868C949.683 404.868 954.168 405.2 959.65 404.868C965.132 404.535 967.624 408.024 971.445 411.346C975.231 414.639 980.159 414.505 986.229 414.341Z" fill="#4B5C69"/>
<rect width="25.9147" height="11.6284" rx="5.81419" transform="matrix(-1 0 0 1 999.353 397.226)" fill="#394A58"/>
<circle cx="754.991" cy="401.38" r="17.4426" fill="#4B5C69"/>
<circle cx="685.885" cy="401.38" r="17.4426" fill="#4B5C69"/>
<ellipse cx="754.991" cy="401.379" rx="13.4557" ry="13.4557" fill="#394A58"/>
<ellipse cx="685.885" cy="401.379" rx="13.4557" ry="13.4557" fill="#394A58"/>
<path d="M720.105 414.341L720.271 414.336C729.573 414.336 731.899 414.336 735.056 411.346C738.212 408.356 744.026 404.868 747.515 404.868H759.807C763.296 404.868 762.994 403.638 763.462 401.213C765.29 391.744 762.133 390.415 757.814 389.418C753.495 388.422 732.564 387.093 720.271 387.093C707.978 387.093 689.705 388.588 681.565 389.418C673.425 390.249 676.914 398.057 677.578 401.213C678.243 404.369 679.572 404.868 681.565 404.868C683.558 404.868 688.044 405.2 693.526 404.868C699.008 404.535 701.499 408.024 705.32 411.346C709.106 414.639 714.035 414.505 720.105 414.341Z" fill="#4B5C69"/>
<rect width="25.9147" height="11.6284" rx="5.81419" transform="matrix(-1 0 0 1 733.229 397.226)" fill="#394A58"/>
<path d="M1040.38 362.674H1042.88V387.093H939.052C934.235 387.093 911.144 396.396 904.997 396.396H800.508C793.531 396.396 769.942 387.093 765.457 387.093H664.456V362.84H666.616L668.941 371.478H1038.23L1040.38 362.674Z" fill="#87929B"/>
<path d="M669.439 391.745C668.11 393.34 667.556 397.504 667.446 399.386H664.456V394.569H662.296L660.469 399.386H652.993C651.892 399.386 651 398.494 651 397.393V387.094C651 385.993 651.892 385.1 652.993 385.1H660.469L662.296 389.751H664.456V386.927H674.257C673.205 387.869 670.768 390.15 669.439 391.745Z" fill="#394A58"/>
<path d="M1037.73 391.745C1039.06 393.34 1039.61 397.504 1039.72 399.386H1042.71V394.569H1044.87L1046.7 399.386H1054.17C1055.27 399.386 1056.17 398.494 1056.17 397.393V387.094C1056.17 385.993 1055.27 385.1 1054.17 385.1H1046.7L1044.87 389.751H1042.71V386.927H1032.91C1033.96 387.869 1036.4 390.15 1037.73 391.745Z" fill="#394A58"/>
<path d="M1015.96 275.961C1015.96 275.227 1015.37 274.632 1014.64 274.632L-nan -nanL1014.64 274.632C1013.9 274.632 1013.31 275.227 1013.31 275.961V385.932H1015.96V275.961Z" fill="#87929B"/>
<path d="M672.429 275.961C672.429 275.227 671.834 274.632 671.1 274.632L-nan -nanL671.1 274.632C670.366 274.632 669.771 275.227 669.771 275.961V385.932H672.429V275.961Z" fill="#87929B"/>
<path d="M1038.56 275.961C1038.56 275.227 1037.96 274.632 1037.23 274.632L-nan -nanL1037.23 274.632C1036.49 274.632 1035.9 275.227 1035.9 275.961V385.932H1038.56V275.961Z" fill="#87929B"/>
<path d="M695.022 275.961C695.022 275.227 694.427 274.632 693.693 274.632L-nan -nanL693.693 274.632C692.959 274.632 692.364 275.227 692.364 275.961V385.932H695.022V275.961Z" fill="#87929B"/>
<rect width="22.5923" height="2.65791" transform="matrix(-1 0 0 1 1037.23 370.316)" fill="#87929B"/>
<rect width="22.5923" height="2.65791" transform="matrix(-1 0 0 1 693.693 370.316)" fill="#87929B"/>
<rect width="22.5923" height="2.65791" transform="matrix(-1 0 0 1 1037.23 353.372)" fill="#87929B"/>
<rect width="22.5923" height="2.65791" transform="matrix(-1 0 0 1 693.693 353.372)" fill="#87929B"/>
<rect width="22.5923" height="2.65791" transform="matrix(-1 0 0 1 1037.23 336.429)" fill="#87929B"/>
<rect width="22.5923" height="2.65791" transform="matrix(-1 0 0 1 693.693 336.429)" fill="#87929B"/>
<rect width="22.5923" height="2.65791" transform="matrix(-1 0 0 1 1037.23 319.484)" fill="#87929B"/>
<rect width="22.5923" height="2.65791" transform="matrix(-1 0 0 1 693.693 319.484)" fill="#87929B"/>
<rect width="22.5923" height="2.65791" transform="matrix(-1 0 0 1 1037.23 302.54)" fill="#87929B"/>
<rect width="22.5923" height="2.65791" transform="matrix(-1 0 0 1 693.693 302.54)" fill="#87929B"/>
<rect width="22.5923" height="2.65791" transform="matrix(-1 0 0 1 1037.23 285.596)" fill="#87929B"/>
<rect width="22.5923" height="2.65791" transform="matrix(-1 0 0 1 693.693 285.596)" fill="#87929B"/>
<path d="M934.899 368.157V371.646H923.935V368.157L925.596 363.008V357.027H926.427V282.273H931.909V357.027H932.739V363.008L934.899 368.157Z" fill="#394A58"/>
<path d="M861.141 368.157V371.646H850.177V368.157L851.838 363.008V357.027H852.669V282.273H858.151V357.027H858.981V363.008L861.141 368.157Z" fill="#394A58"/>
<path d="M787.385 368.157V371.646H776.421V368.157L778.082 363.008V357.027H778.912V282.273H784.394V357.027H785.225V363.008L787.385 368.157Z" fill="#394A58"/>
<path d="M648.913 285.323H270.598V384.119H648.913V285.323Z" fill="#D7DBDE"/>
<path d="M648.876 285.105C648.876 279.234 644.116 274.474 638.245 274.474H281.087C275.216 274.474 270.456 279.234 270.456 285.105H648.876Z" fill="#AFB7BC"/>
<path fill-rule="evenodd" clip-rule="evenodd" d="M575.784 299.392V374.81H578.442V299.392C578.442 297.924 577.252 296.734 575.784 296.734H345.542C344.074 296.734 342.884 297.924 342.884 299.392V376.471H345.542V299.392L575.784 299.392Z" fill="#AFB7BC"/>
<rect width="1.99344" height="79.7374" transform="matrix(-1 0 0 1 460.497 296.734)" fill="#AFB7BC"/>
<rect width="1.99344" height="79.7374" transform="matrix(-1 0 0 1 520.3 296.734)" fill="#AFB7BC"/>
<rect width="1.99344" height="79.7374" transform="matrix(-1 0 0 1 400.694 296.734)" fill="#AFB7BC"/>
<path d="M468.139 335.938C468.139 334.653 467.097 333.612 465.813 333.612H453.52C452.236 333.612 451.194 334.653 451.194 335.938V337.267C451.194 338.551 452.236 339.592 453.52 339.592H465.813C467.097 339.592 468.139 338.551 468.139 337.267V335.938Z" fill="#AFB7BC"/>
<circle cx="627.114" cy="401.558" r="17.4426" fill="#4B5C69"/>
<circle cx="558.008" cy="401.558" r="17.4426" fill="#4B5C69"/>
<ellipse cx="627.114" cy="401.557" rx="13.4557" ry="13.4557" fill="#394A58"/>
<ellipse cx="558.008" cy="401.557" rx="13.4557" ry="13.4557" fill="#394A58"/>
<path d="M592.229 414.519L592.395 414.515C601.697 414.515 604.023 414.515 607.18 411.524C610.336 408.534 616.15 405.046 619.639 405.046H631.931C635.42 405.046 635.118 403.816 635.586 401.391C637.414 391.922 634.257 390.593 629.938 389.597C625.619 388.6 604.688 387.271 592.395 387.271C580.102 387.271 561.829 388.766 553.689 389.597C545.549 390.427 549.038 398.235 549.702 401.391C550.367 404.547 551.695 405.046 553.689 405.046C555.682 405.046 560.168 405.378 565.65 405.046C571.131 404.714 573.623 408.202 577.444 411.524C581.23 414.817 586.159 414.683 592.229 414.519Z" fill="#4B5C69"/>
<rect width="25.9147" height="11.6284" rx="5.81419" transform="matrix(-1 0 0 1 605.352 397.404)" fill="#394A58"/>
<circle cx="360.992" cy="401.558" r="17.4426" fill="#4B5C69"/>
<circle cx="291.886" cy="401.558" r="17.4426" fill="#4B5C69"/>
<ellipse cx="360.992" cy="401.557" rx="13.4557" ry="13.4557" fill="#394A58"/>
<ellipse cx="291.886" cy="401.557" rx="13.4557" ry="13.4557" fill="#394A58"/>
<path d="M326.106 414.519L326.272 414.515C335.574 414.515 337.9 414.515 341.056 411.524C344.213 408.534 350.027 405.046 353.515 405.046H365.808C369.297 405.046 368.995 403.816 369.463 401.391C371.291 391.922 368.134 390.593 363.815 389.597C359.496 388.6 338.565 387.271 326.272 387.271C313.979 387.271 295.706 388.766 287.566 389.597C279.426 390.427 282.914 398.235 283.579 401.391C284.243 404.547 285.572 405.046 287.566 405.046C289.559 405.046 294.044 405.378 299.526 405.046C305.008 404.714 307.5 408.202 311.321 411.524C315.107 414.817 320.035 414.683 326.106 414.519Z" fill="#4B5C69"/>
<rect width="25.9147" height="11.6284" rx="5.81419" transform="matrix(-1 0 0 1 339.23 397.404)" fill="#394A58"/>
<path d="M646.384 362.85H648.876V387.27H545.051C540.234 387.27 517.143 396.573 510.997 396.573H406.507C399.53 396.573 375.941 387.27 371.456 387.27H270.455V363.016H272.615L274.941 371.655H644.225L646.384 362.85Z" fill="#87929B"/>
<path d="M275.439 391.921C274.11 393.516 273.556 397.68 273.446 399.563H270.456V394.745H268.296L266.469 399.563H258.993C257.892 399.563 257 398.67 257 397.569V387.27C257 386.169 257.892 385.277 258.993 385.277H266.469L268.296 389.928H270.456V387.104H280.257C279.205 388.045 276.768 390.327 275.439 391.921Z" fill="#394A58"/>
<path d="M643.726 391.921C645.055 393.516 645.609 397.68 645.72 399.563H648.71V394.745H650.869L652.697 399.563H660.172C661.273 399.563 662.166 398.67 662.166 397.569V387.27C662.166 386.169 661.273 385.277 660.172 385.277H652.697L650.869 389.928H648.71V387.104H638.909C639.961 388.045 642.397 390.327 643.726 391.921Z" fill="#394A58"/>
<path d="M252.913 285.323H-125.402V384.119H252.913V285.323Z" fill="#D7DBDE"/>
<path d="M252.876 285.105C252.876 279.234 248.116 274.474 242.245 274.474H-114.913C-120.784 274.474 -125.544 279.234 -125.544 285.105H252.876Z" fill="#AFB7BC"/>
<path fill-rule="evenodd" clip-rule="evenodd" d="M179.784 299.392V374.81H182.442V299.392C182.442 297.924 181.252 296.734 179.784 296.734H-50.4578C-51.9257 296.734 -53.1157 297.924 -53.1157 299.392V376.471H-50.4578V299.392L179.784 299.392Z" fill="#AFB7BC"/>
<rect width="1.99344" height="79.7374" transform="matrix(-1 0 0 1 64.4972 296.734)" fill="#AFB7BC"/>
<rect width="1.99344" height="79.7374" transform="matrix(-1 0 0 1 124.3 296.734)" fill="#AFB7BC"/>
<rect width="1.99344" height="79.7374" transform="matrix(-1 0 0 1 4.69373 296.734)" fill="#AFB7BC"/>
<path d="M72.1385 335.938C72.1385 334.653 71.0973 333.612 69.8129 333.612H57.52C56.2356 333.612 55.1943 334.653 55.1943 335.938V337.267C55.1943 338.551 56.2356 339.592 57.52 339.592H69.8129C71.0973 339.592 72.1385 338.551 72.1385 337.267V335.938Z" fill="#AFB7BC"/>
<circle cx="231.114" cy="401.558" r="17.4426" fill="#4B5C69"/>
<circle cx="162.008" cy="401.558" r="17.4426" fill="#4B5C69"/>
<ellipse cx="231.114" cy="401.557" rx="13.4557" ry="13.4557" fill="#394A58"/>
<ellipse cx="162.008" cy="401.557" rx="13.4557" ry="13.4557" fill="#394A58"/>
<path d="M196.229 414.519L196.395 414.515C205.697 414.515 208.023 414.515 211.18 411.524C214.336 408.534 220.15 405.046 223.639 405.046H235.931C239.42 405.046 239.118 403.816 239.586 401.391C241.414 391.922 238.257 390.593 233.938 389.597C229.619 388.6 208.688 387.271 196.395 387.271C184.102 387.271 165.829 388.766 157.689 389.597C149.549 390.427 153.038 398.235 153.702 401.391C154.367 404.547 155.695 405.046 157.689 405.046C159.682 405.046 164.168 405.378 169.65 405.046C175.131 404.714 177.623 408.202 181.444 411.524C185.23 414.817 190.159 414.683 196.229 414.519Z" fill="#4B5C69"/>
<rect width="25.9147" height="11.6284" rx="5.81419" transform="matrix(-1 0 0 1 209.352 397.404)" fill="#394A58"/>
<path d="M250.384 362.85H252.876V387.27H149.051C144.234 387.27 121.143 396.573 114.997 396.573H10.5074C3.53036 396.573 -20.0586 387.27 -24.5439 387.27H-125.545V363.016H-123.385L-121.059 371.655H248.225L250.384 362.85Z" fill="#87929B"/>
<path d="M247.726 391.921C249.055 393.516 249.609 397.68 249.72 399.563H252.71V394.745H254.869L256.697 399.563H264.172C265.273 399.563 266.166 398.67 266.166 397.569V387.27C266.166 386.169 265.273 385.277 264.172 385.277H256.697L254.869 389.928H252.71V387.104H242.909C243.961 388.045 246.397 390.327 247.726 391.921Z" fill="#394A58"/>
<rect x="186" y="512" width="16" height="23" fill="#C3C9CD"/>
<rect x="205" y="512" width="17" height="23" fill="#C3C9CD"/>
<rect x="180" y="516" width="49" height="14" fill="#87929B"/>
<rect x="190" y="535" width="2" height="8" fill="#394A58"/>
<rect x="209" y="535" width="2" height="8" fill="#394A58"/>
<rect x="197" y="535" width="2" height="8" fill="#394A58"/>
<rect x="216" y="535" width="2" height="8" fill="#394A58"/>
<path fill-rule="evenodd" clip-rule="evenodd" d="M325 321H345V538H325V321ZM329 516C329 514.895 329.895 514 331 514H339C340.105 514 341 514.895 341 516V526C341 527.105 340.105 528 339 528H331C329.895 528 329 527.105 329 526V516ZM331 494C329.895 494 329 494.895 329 496V506C329 507.105 329.895 508 331 508H339C340.105 508 341 507.105 341 506V496C341 494.895 340.105 494 339 494H331ZM329 476C329 474.895 329.895 474 331 474H339C340.105 474 341 474.895 341 476V486C341 487.105 340.105 488 339 488H331C329.895 488 329 487.105 329 486V476ZM331 454C329.895 454 329 454.895 329 456V466C329 467.105 329.895 468 331 468H339C340.105 468 341 467.105 341 466V456C341 454.895 340.105 454 339 454H331ZM329 436C329 434.895 329.895 434 331 434H339C340.105 434 341 434.895 341 436V446C341 447.105 340.105 448 339 448H331C329.895 448 329 447.105 329 446V436ZM331 414C329.895 414 329 414.895 329 416V426C329 427.105 329.895 428 331 428H339C340.105 428 341 427.105 341 426V416C341 414.895 340.105 414 339 414H331ZM329 396C329 394.895 329.895 394 331 394H339C340.105 394 341 394.895 341 396V406C341 407.105 340.105 408 339 408H331C329.895 408 329 407.105 329 406V396ZM331 374C329.895 374 329 374.895 329 376V386C329 387.105 329.895 388 331 388H339C340.105 388 341 387.105 341 386V376C341 374.895 340.105 374 339 374H331ZM329 356C329 354.895 329.895 354 331 354H339C340.105 354 341 354.895 341 356V366C341 367.105 340.105 368 339 368H331C329.895 368 329 367.105 329 366V356ZM331 334C329.895 334 329 334.895 329 336V346C329 347.105 329.895 348 331 348H339C340.105 348 341 347.105 341 346V336C341 334.895 340.105 334 339 334H331Z" fill="#AFB7BC"/>
<g filter="url(#filter0_d_161_44595)">
<path d="M940.01 517.977H935.022L933.287 525.568L936.757 526.869L941.095 531.207H953.241V526.869L956.06 525.568V519.495L953.241 517.977V515.157H942.83L940.01 517.977Z" fill="#394A58"/>
<path d="M295.836 535.325L288.679 543.133L286.51 542.483L283.039 550.725H280.22L279.569 547.471L278.702 542.483L283.039 529.035L283.69 520.793L295.836 511.033H467.182L468.701 514.504L484.1 518.408C488.727 518.552 499.109 519.188 503.621 520.577C509.26 522.312 507.308 525.565 503.621 527.517C500.671 529.079 500.656 531.927 501.018 533.156H519.02V523.396H565.218V539.229H561.748V543.133H545.698L543.746 541.181H501.018L497.981 552.894H447.445C445.71 552.894 441.517 546.387 439.637 543.133H437.251L433.998 552.894H383.678L378.907 548.122L373.918 546.604C373.195 545.809 371.359 543.611 369.797 541.181C368.235 538.752 366.833 532.506 366.327 529.686C366.11 532.217 365.459 538.058 364.592 541.181C363.724 544.305 361.483 547.11 360.471 548.122H356.566V552.894H304.729C303.283 551.231 299.784 546.951 297.354 543.133C294.925 539.316 295.33 536.337 295.836 535.325Z" fill="#394A58"/>
<circle cx="329.672" cy="536.844" r="22.7739" fill="#4B5C69"/>
<circle cx="409.489" cy="536.844" r="22.7739" fill="#4B5C69"/>
<circle cx="470.653" cy="536.844" r="22.7739" fill="#4B5C69"/>
<circle cx="329.672" cy="536.844" r="17.5684" fill="#394A58"/>
<circle cx="409.489" cy="536.844" r="17.5684" fill="#394A58"/>
<circle cx="470.653" cy="536.844" r="17.5684" fill="#394A58"/>
<path d="M896.566 535.326L903.723 543.134L905.892 542.483L909.363 550.725H912.182L912.833 547.472L913.701 542.483L909.363 529.036L908.712 520.794L896.566 511.033H725.22L723.702 514.504L708.302 518.408C703.675 518.552 693.293 519.189 688.782 520.577C683.142 522.312 685.094 525.565 688.782 527.517C691.731 529.079 691.746 531.928 691.384 533.157H673.382V523.396H627.184V539.23H630.654V543.134H646.704L648.656 541.182H691.384L694.421 552.894H744.957C746.692 552.894 750.886 546.387 752.765 543.134H755.151L758.405 552.894H808.724L813.496 548.122L818.484 546.604C819.207 545.809 821.044 543.611 822.605 541.182C824.167 538.752 825.569 532.506 826.075 529.686C826.292 532.217 826.943 538.058 827.811 541.182C828.678 544.305 830.919 547.11 831.932 548.122H835.836V552.894H887.673C889.119 551.231 892.618 546.951 895.048 543.134C897.477 539.316 897.072 536.338 896.566 535.326Z" fill="#394A58"/>
<circle cx="22.7739" cy="22.7739" r="22.7739" transform="matrix(-1 0 0 1 885.504 514.07)" fill="#4B5C69"/>
<circle cx="22.7739" cy="22.7739" r="22.7739" transform="matrix(-1 0 0 1 805.687 514.07)" fill="#4B5C69"/>
<circle cx="22.7739" cy="22.7739" r="22.7739" transform="matrix(-1 0 0 1 744.523 514.07)" fill="#4B5C69"/>
<circle cx="17.5684" cy="17.5684" r="17.5684" transform="matrix(-1 0 0 1 880.299 519.276)" fill="#394A58"/>
<circle cx="17.5684" cy="17.5684" r="17.5684" transform="matrix(-1 0 0 1 800.482 519.276)" fill="#394A58"/>
<circle cx="17.5684" cy="17.5684" r="17.5684" transform="matrix(-1 0 0 1 739.318 519.276)" fill="#394A58"/>
<path d="M512.275 522.095L483.428 511.033H706.178L677.548 522.095H628.332V545.736H564.329V522.095H512.275Z" fill="#4B5C69"/>
<path d="M264.386 543.354H278.267L282.822 529.473L283.907 521.448L295.619 511.905L895.33 511.254L908.344 521.448V529.69L912.682 543.137C915.935 543.065 923.093 542.964 925.695 543.137C928.949 543.354 930.033 542.053 930.684 539.45C931.335 536.847 932.636 531.859 933.504 528.822C934.198 526.393 934.66 516.098 934.805 511.254H935.673C935.817 510.386 936.236 507.827 936.757 504.53C937.408 500.409 939.793 480.889 939.577 468.743C939.36 456.597 931.552 435.992 925.912 424.28C920.273 412.567 905.741 404.108 894.246 400.204C885.049 397.081 873.93 397.168 869.52 397.602V416.688H730.925V406.277H725.069V396.517H718.996L716.61 394.131H683.642L681.907 396.517H677.786L676.051 394.131H641.781L638.962 396.517H631.804L629.418 394.131H595.149L593.631 396.517H589.076L587.341 394.131H551.554V396.517H545.047V407.579H464.796V414.086L320.128 414.953V397.168C318.61 397.023 312.32 397.255 299.306 399.337C283.039 401.94 271.327 414.086 261.567 429.919C251.806 445.752 252.023 465.923 252.457 479.804C252.804 490.909 254.481 505.832 255.277 511.905H256.361C256.723 517.255 257.706 528.822 258.747 532.293C260.048 536.631 262.217 543.354 264.386 543.354Z" fill="#D7DBDE"/>
<path d="M608.197 443.298V444.071H614.933C615.381 444.071 616.059 444.071 616.498 444.514C616.946 444.957 616.946 445.617 616.946 446.069V452.715C616.946 453.158 616.946 453.827 616.498 454.26C616.049 454.704 615.372 454.704 614.933 454.704H611.679C611.116 454.704 610.391 454.704 610.105 454.091C609.828 453.488 610.22 452.931 610.554 452.488L614.933 446.729H608.197L605.506 450.273C605.058 450.867 604.667 451.386 604.667 452.045C604.667 452.715 605.029 453.195 605.506 453.817L606.184 454.704C606.852 455.59 607.529 456.476 608.426 456.919C609.323 457.362 610.391 457.362 611.851 457.362H614.771C616.45 457.362 618.978 457.362 620.658 455.703C622.337 454.034 622.337 451.602 622.337 450.716V448.058C622.337 447.172 622.337 444.731 620.658 443.072C618.978 441.413 616.45 441.413 614.771 441.413H610.115C609.666 441.413 609.103 441.413 608.655 441.856C608.197 442.299 608.197 442.855 608.197 443.298Z" fill="#E21A1A"/>
<path d="M600.125 446.739H606.851L598.78 457.371H592.043L600.125 446.739Z" fill="#E21A1A"/>
<path d="M573.868 448.615C573.868 448.172 573.868 447.616 574.316 447.173C574.765 446.73 575.328 446.73 575.776 446.73H587.054C588.514 446.73 589.582 446.73 590.479 447.173C591.376 447.616 592.053 448.502 592.731 449.388L593.399 450.274C593.876 450.906 594.238 451.386 594.238 452.046C594.238 452.715 593.847 453.224 593.399 453.818L590.708 457.362H583.972L588.351 451.594C588.685 451.151 589.086 450.595 588.8 449.982C588.514 449.369 587.788 449.369 587.225 449.369H581.959V462.669H576.577V449.388H573.887V448.615" fill="#E21A1A"/>
<path fill-rule="evenodd" clip-rule="evenodd" d="M258.118 529.256H282.822L282.857 529.213L283.907 521.448L295.619 511.904L295.774 511.904H255.277C255.277 511.904 255.277 511.904 255.277 511.904H256.361C256.648 516.156 257.328 524.335 258.118 529.256Z" fill="#E21A1A"/>
<path fill-rule="evenodd" clip-rule="evenodd" d="M934.791 511.687H895.981L896.022 511.796L908.344 521.448V529.473H933.319C933.382 529.247 933.444 529.03 933.503 528.822C934.177 526.463 934.633 516.687 934.791 511.687Z" fill="#E21A1A"/>
<path d="M252.495 480.888H420.767L457.639 426.448H727.454L761.073 480.888H939.197C939.477 476.587 939.641 472.341 939.577 468.742C939.36 456.596 931.552 435.991 925.912 424.279C925.737 423.914 925.553 423.553 925.36 423.194H803.801V435.34H747.192V423.194H438.769V434.473H382.593V423.194H266.005C264.478 425.344 263.001 427.591 261.567 429.918C251.806 445.751 252.023 465.922 252.457 479.804C252.468 480.161 252.481 480.523 252.495 480.888Z" fill="#E21A1A"/>
<rect x="385.413" y="420.592" width="50.7532" height="12.1461" fill="#394A58"/>
<rect x="749.945" y="420.592" width="50.7532" height="12.1461" fill="#394A58"/>
<path d="M255.248 511.687H495.509H895.884H934.791C934.796 511.538 934.801 511.393 934.805 511.253H935.672C935.817 510.386 936.236 507.826 936.757 504.53C937.013 502.908 937.537 498.903 938.066 493.902H751.312L738.733 473.731H442.239L427.056 494.553H253.405C254.021 501.539 254.777 508.063 255.248 511.687Z" fill="#87929B"/>
<path d="M250.939 517.977H255.927L257.662 525.568L254.192 526.869L249.854 531.207H237.708V526.869L234.888 525.568V519.495L237.708 517.977V515.157H248.119L250.939 517.977Z" fill="#394A58"/>
<path d="M347.239 440C347.239 437.187 349.519 434.906 352.332 434.906H357.762C360.575 434.906 362.855 437.187 362.855 440V454.106C362.855 456.918 360.575 459.199 357.762 459.199H352.332C349.519 459.199 347.239 456.918 347.239 454.106V440Z" fill="#4B5C69"/>
<path d="M296.486 427.834C296.486 426.709 297.398 425.797 298.523 425.797H308.764C309.889 425.797 310.801 426.709 310.801 427.834V450.221C310.801 451.346 309.889 452.258 308.764 452.258H298.523C297.398 452.258 296.486 451.346 296.486 450.221V427.834Z" fill="#4B5C69"/>
<path d="M282.542 427.115C282.841 426.322 283.6 425.797 284.448 425.797H290.979C292.104 425.797 293.016 426.709 293.016 427.834V450.22C293.016 451.346 292.104 452.258 290.979 452.258H276.007C274.583 452.258 273.598 450.834 274.101 449.502L282.542 427.115Z" fill="#4B5C69"/>
<path d="M347.239 500.06C347.239 498.982 348.113 498.108 349.191 498.108H360.903C361.981 498.108 362.855 498.982 362.855 500.06C362.855 501.138 361.982 502.012 360.903 502.012H349.191C348.113 502.012 347.239 501.138 347.239 500.06Z" fill="#73808A"/>
<path d="M347.239 507.132C347.239 506.054 348.113 505.18 349.191 505.18H360.903C361.981 505.18 362.855 506.054 362.855 507.132C362.855 508.21 361.982 509.084 360.903 509.084H349.191C348.113 509.084 347.239 508.21 347.239 507.132Z" fill="#73808A"/>
<path fill-rule="evenodd" clip-rule="evenodd" d="M361.554 431.002H348.974C346.339 431.002 344.203 433.139 344.203 435.774V487.395C344.203 490.03 346.339 492.166 348.974 492.166H361.554C364.19 492.166 366.326 490.03 366.326 487.395V435.774C366.326 433.139 364.19 431.002 361.554 431.002ZM348.974 430.569C346.1 430.569 343.769 432.899 343.769 435.774V487.395C343.769 490.27 346.1 492.6 348.974 492.6H361.554C364.429 492.6 366.76 490.27 366.76 487.395V435.774C366.76 432.899 364.429 430.569 361.554 430.569H348.974Z" fill="#9BA4AB"/>
<rect x="338.997" y="445.317" width="1.73515" height="62.8992" rx="0.867575" fill="#73808A"/>
<rect x="369.796" y="445.317" width="1.73515" height="62.8992" rx="0.867575" fill="#73808A"/>
<rect x="359.819" y="461.801" width="5.20545" height="1.73515" rx="0.867575" fill="#73808A"/>
<path d="M843.058 438.981C843.058 436.731 841.234 434.906 838.984 434.906H831.517C829.266 434.906 827.442 436.731 827.442 438.981V455.124C827.442 457.374 829.266 459.199 831.517 459.199H838.984C841.234 459.199 843.058 457.374 843.058 455.124V438.981Z" fill="#4B5C69"/>
<path d="M893.812 427.834C893.812 426.709 892.9 425.797 891.774 425.797H881.534C880.409 425.797 879.497 426.709 879.497 427.834V450.221C879.497 451.346 880.409 452.258 881.534 452.258H891.774C892.9 452.258 893.812 451.346 893.812 450.221V427.834Z" fill="#4B5C69"/>
<path d="M907.756 427.115C907.457 426.322 906.698 425.797 905.85 425.797H899.319C898.194 425.797 897.282 426.709 897.282 427.834V450.22C897.282 451.346 898.194 452.258 899.319 452.258H914.291C915.715 452.258 916.699 450.834 916.197 449.502L907.756 427.115Z" fill="#4B5C69"/>
<path d="M843.058 500.06C843.058 498.982 842.184 498.108 841.106 498.108H829.394C828.316 498.108 827.442 498.982 827.442 500.06C827.442 501.138 828.316 502.012 829.394 502.012H841.106C842.184 502.012 843.058 501.138 843.058 500.06Z" fill="#73808A"/>
<path d="M843.058 507.132C843.058 506.054 842.184 505.18 841.106 505.18H829.394C828.316 505.18 827.442 506.054 827.442 507.132C827.442 508.21 828.316 509.084 829.394 509.084H841.106C842.184 509.084 843.058 508.21 843.058 507.132Z" fill="#73808A"/>
<path fill-rule="evenodd" clip-rule="evenodd" d="M828.743 431.002H841.323C843.958 431.002 846.095 433.139 846.095 435.774V487.395C846.095 490.03 843.958 492.166 841.323 492.166H828.743C826.108 492.166 823.972 490.03 823.972 487.395V435.774C823.972 433.139 826.108 431.002 828.743 431.002ZM841.323 430.569C844.198 430.569 846.529 432.899 846.529 435.774V487.395C846.529 490.27 844.198 492.6 841.323 492.6H828.743C825.868 492.6 823.538 490.27 823.538 487.395V435.774C823.538 432.899 825.868 430.569 828.743 430.569H841.323Z" fill="#9BA4AB"/>
<rect width="1.73515" height="62.8992" rx="0.867575" transform="matrix(-1 0 0 1 851.3 445.317)" fill="#73808A"/>
<rect width="1.73515" height="62.8992" rx="0.867575" transform="matrix(-1 0 0 1 820.501 445.317)" fill="#73808A"/>
<rect width="5.20545" height="1.73515" rx="0.867575" transform="matrix(-1 0 0 1 830.479 461.801)" fill="#73808A"/>
<path d="M540.709 436.944C540.709 435.819 541.621 434.907 542.746 434.907H563.397C564.522 434.907 565.434 435.819 565.434 436.944V450.222C565.434 451.347 564.522 452.259 563.397 452.259H542.746C541.621 452.259 540.709 451.347 540.709 450.222V436.944Z" fill="#4B5C69"/>
<path d="M633.106 436.944C633.106 435.819 634.018 434.907 635.143 434.907H655.794C656.919 434.907 657.831 435.819 657.831 436.944V450.222C657.831 451.347 656.919 452.259 655.794 452.259H635.143C634.018 452.259 633.106 451.347 633.106 450.222V436.944Z" fill="#4B5C69"/>
<rect x="357.216" y="405.409" width="49.8856" height="4.77166" rx="2" fill="#E21A1A"/>
<path d="M415.995 374.827C414.954 375.348 384.762 394.854 369.796 404.542H378.038L422.935 374.827C421.056 374.611 417.036 374.307 415.995 374.827Z" fill="#E21A1A"/>
<rect x="781.896" y="405.73" width="51.1869" height="3.4703" fill="#E21A1A"/>
<rect x="759.339" y="402.26" width="61.1641" height="3.4703" fill="#E21A1A"/>
<rect x="762.376" y="400.091" width="73.7439" height="2.16894" fill="#D7DBDE"/>
<rect x="764.545" y="396.187" width="73.7439" height="2.16894" fill="#D7DBDE"/>
<rect x="816.599" y="409.201" width="8.67575" height="7.37439" fill="#EBEDEE"/>
<rect x="785.8" y="409.201" width="8.67575" height="7.37439" fill="#EBEDEE"/>
<rect x="362.857" y="410.068" width="5.63924" height="4.33788" fill="#EBEDEE"/>
<rect x="398.428" y="410.068" width="5.63924" height="4.33788" fill="#EBEDEE"/>
<path d="M354.398 347.603L417.298 374.498H423.154L424.889 369.509L371.099 347.603V345H367.846V347.603L417.298 370.593H415.346L358.303 347.603V345H354.398V347.603Z" fill="#D7DBDE"/>
<rect x="357.218" y="345" width="11.2785" height="1.30136" fill="#D7DBDE"/>
<path d="M953.615 423.332C953.615 420.96 955.538 419.037 957.91 419.037H1759.5C1761.88 419.037 1763.8 420.96 1763.8 423.332V527.491C1763.8 529.863 1761.88 531.786 1759.5 531.786H957.91C955.538 531.786 953.615 529.863 953.615 527.491V423.332Z" fill="#D7DBDE"/>
<path d="M953.615 426.016C953.615 422.162 956.74 419.037 960.595 419.037H1756.82C1760.67 419.037 1763.8 422.162 1763.8 426.016H953.615Z" fill="#73808A"/>
<path d="M953.615 510.847V526.954C953.615 529.326 955.538 531.249 957.91 531.249H967.038L966.897 538.01C966.827 541.371 969.533 544.135 972.895 544.135H985.27C988.608 544.135 991.304 541.41 991.269 538.072L991.198 531.249H1727.02V538.135C1727.02 541.448 1729.71 544.135 1733.02 544.135H1744.79C1748.15 544.135 1750.86 541.371 1750.79 538.01L1750.64 531.249H1759.5C1761.88 531.249 1763.8 529.326 1763.8 526.954V452.861H1714.94C1707.31 452.861 1698.53 465.879 1689.3 479.578C1679.04 494.792 1668.21 510.847 1657.76 510.847H964.085V463.499L954.152 463.599L953.615 510.847Z" fill="#87929B"/>
<path d="M995.225 510.848V508.969C995.225 508.969 1617.76 508.969 1640.58 508.969C1663.4 508.969 1681.65 450.715 1702.33 450.715C1723 450.715 1763.8 450.715 1763.8 450.715V452.862H1714.94C1707.31 452.862 1698.53 465.88 1689.3 479.579C1679.04 494.793 1668.22 510.848 1657.76 510.848H995.225Z" fill="#E21A1A"/>
<path d="M1121.09 433.832V437.591H1153.85C1156.03 437.591 1159.32 437.591 1161.46 439.745C1163.64 441.899 1163.64 445.108 1163.64 447.308V479.623C1163.64 481.777 1163.64 485.031 1161.46 487.14C1159.28 489.294 1155.98 489.294 1153.85 489.294H1138.03C1135.29 489.294 1131.76 489.294 1130.37 486.315C1129.02 483.381 1130.93 480.677 1132.55 478.523L1153.85 450.517H1121.09L1108.01 467.751C1105.83 470.639 1103.92 473.16 1103.92 476.368C1103.92 479.623 1105.69 481.96 1108.01 484.986L1111.3 489.294C1114.55 493.603 1117.84 497.912 1122.2 500.066C1126.57 502.22 1131.76 502.22 1138.86 502.22H1153.06C1161.22 502.22 1173.52 502.22 1181.69 494.153C1189.85 486.04 1189.85 474.214 1189.85 469.905V456.98C1189.85 452.671 1189.85 440.799 1181.69 432.732C1173.52 424.665 1161.22 424.665 1153.06 424.665H1130.42C1128.24 424.665 1125.5 424.665 1123.32 426.819C1121.09 428.973 1121.09 431.678 1121.09 433.832Z" fill="#E21A1A"/>
<path d="M1081.84 450.562H1114.55L1075.3 502.266H1042.54L1081.84 450.562Z" fill="#E21A1A"/>
<path d="M954.153 459.685C954.153 457.531 954.153 454.826 956.333 452.672C958.514 450.518 961.251 450.518 963.432 450.518H1018.27C1025.37 450.518 1030.57 450.518 1034.93 452.672C1039.29 454.826 1042.59 459.135 1045.88 463.444L1049.13 467.752C1051.45 470.823 1053.21 473.161 1053.21 476.37C1053.21 479.624 1051.31 482.099 1049.13 484.987L1036.04 502.221H1003.29L1024.58 474.169C1026.21 472.015 1028.16 469.311 1026.77 466.331C1025.37 463.352 1021.85 463.352 1019.11 463.352H996.182V523.732H963.571V463.444H954.245V459.685" fill="#E21A1A"/>
<path d="M1109.32 551.115C1092.05 550.936 1057.24 550.686 1056.16 551.115L1055.09 550.31L1040.86 530.981H1060.19V527.223H1105.02V530.981H1114.42H1124.62L1109.32 551.115Z" fill="#394A58"/>
<circle cx="1040.32" cy="547.626" r="16.3755" fill="#4B5C69"/>
<circle cx="1123.54" cy="547.626" r="16.3755" fill="#4B5C69"/>
<circle cx="1040.33" cy="547.624" r="12.6172" fill="#394A58"/>
<circle cx="1123.54" cy="547.624" r="12.6172" fill="#394A58"/>
<rect x="1136.16" y="528.026" width="16.6439" height="7.51662" fill="#394A58"/>
<path d="M1182.07 544.939L1139.65 547.892V543.865L1155.49 542.523V530.98H1174.28V541.449H1182.07V540.376H1185.82V536.886L1182.07 533.396V530.98H1215.62V544.939H1231.73L1240.59 543.06V546.55L1230.92 549.234H1215.62V551.919H1191.46V547.892H1185.82V546.55H1182.07V544.939Z" fill="#394A58"/>
<path d="M1085.69 467.894C1085.69 464.929 1088.1 462.525 1091.06 462.525H1111.46C1114.43 462.525 1116.83 464.929 1116.83 467.894V484.001C1116.83 486.966 1114.43 489.37 1111.46 489.37H1091.06C1088.1 489.37 1085.69 486.966 1085.69 484.001V467.894Z" fill="#4B5C69"/>
<path d="M1144.22 467.894C1144.22 464.929 1146.62 462.525 1149.58 462.525H1169.99C1172.95 462.525 1175.36 464.929 1175.36 467.894V484.001C1175.36 486.966 1172.95 489.37 1169.99 489.37H1149.58C1146.62 489.37 1144.22 486.966 1144.22 484.001V467.894Z" fill="#4B5C69"/>
<path d="M971.869 471.653C971.869 467.205 975.475 463.6 979.923 463.6C984.371 463.6 987.976 467.205 987.976 471.653V482.391C987.976 486.839 984.371 490.445 979.923 490.445C975.475 490.445 971.869 486.839 971.869 482.391V471.653Z" fill="#4B5C69"/>
<path fill-rule="evenodd" clip-rule="evenodd" d="M996.031 453.398H964.353V523.732H996.031V453.398ZM963.817 452.861V524.269H996.568V452.861H963.817Z" fill="#4B5C69"/>
<path d="M969.722 540.644C969.722 539.902 970.323 539.302 971.064 539.302H986.634C987.375 539.302 987.976 539.902 987.976 540.644C987.976 541.385 987.375 541.986 986.634 541.986H971.064C970.323 541.986 969.722 541.385 969.722 540.644Z" fill="#394A58"/>
<path d="M969.722 535.274C969.722 534.533 970.323 533.932 971.064 533.932H986.634C987.375 533.932 987.976 534.533 987.976 535.274C987.976 536.016 987.375 536.617 986.634 536.617H971.064C970.323 536.617 969.722 536.016 969.722 535.274Z" fill="#394A58"/>
<rect x="943.951" y="450.715" width="9.66422" height="64.965" fill="#394A58"/>
</g>
<rect x="179" y="555" width="59" height="17" fill="#87929B"/>
<rect x="188" y="550" width="19" height="27" fill="#C3C9CD"/>
<rect x="210" y="550" width="20" height="27" fill="#C3C9CD"/>
<rect x="193" y="577" width="2" height="9" fill="#394A58"/>
<rect x="214" y="577" width="2" height="9" fill="#394A58"/>
<rect x="201" y="577" width="2" height="9" fill="#394A58"/>
<rect x="222" y="577" width="2" height="9" fill="#394A58"/>
<path d="M139.876 549.996C139.876 549.446 139.43 549 138.88 549H-237.215C-237.766 549 -238.212 549.446 -238.212 549.996V583.885C-238.212 584.435 -237.766 584.882 -237.215 584.882H138.88C139.43 584.882 139.876 584.435 139.876 583.885V549.996Z" fill="#D7DBDE"/>
<circle cx="118.115" cy="603.654" r="17.4426" fill="#4B5C69"/>
<circle cx="49.0101" cy="603.654" r="17.4426" fill="#4B5C69"/>
<ellipse cx="118.115" cy="603.653" rx="13.4557" ry="13.4557" fill="#394A58"/>
<ellipse cx="49.0095" cy="603.653" rx="13.4557" ry="13.4557" fill="#394A58"/>
<path d="M83.2292 616.616L83.3953 616.612C92.6979 616.612 95.0238 616.612 98.1801 613.622C101.336 610.631 107.151 607.143 110.639 607.143H122.932C126.42 607.143 126.118 605.913 126.586 603.488C128.414 594.02 125.257 592.691 120.938 591.694C116.619 590.697 95.6882 589.368 83.3953 589.368C71.1025 589.368 52.8293 590.863 44.6894 591.694C36.5496 592.524 40.0381 600.332 40.7026 603.488C41.3671 606.645 42.696 607.143 44.6894 607.143C46.6829 607.143 51.1681 607.475 56.65 607.143C62.132 606.811 64.6238 610.299 68.4445 613.622C72.2308 616.914 77.159 616.781 83.2292 616.616Z" fill="#4B5C69"/>
<rect width="25.9147" height="11.6284" rx="5.81419" transform="matrix(-1 0 0 1 96.3531 599.501)" fill="#394A58"/>
<path d="M137.385 564.948H139.877V589.368H36.0519C31.2344 589.368 8.14381 598.671 1.99739 598.671H-102.492C-109.469 598.671 -133.058 589.368 -137.543 589.368H-238.544V565.115H-236.384L-234.059 573.753H135.225L137.385 564.948Z" fill="#87929B"/>
<path d="M134.727 594.02C136.056 595.614 136.609 599.778 136.72 601.661H139.71V596.844H141.87L143.697 601.661H151.173C152.273 601.661 153.166 600.769 153.166 599.668V589.368C153.166 588.267 152.273 587.375 151.173 587.375H143.697L141.87 592.026H139.71V589.202H129.909C130.961 590.143 133.398 592.425 134.727 594.02Z" fill="#394A58"/>
<rect width="49.1714" height="14.2863" transform="matrix(-1 0 0 1 131.903 553.983)" fill="#C3C9CD"/>
<rect width="50.1681" height="14.2863" transform="matrix(-1 0 0 1 69.7744 553.983)" fill="#C3C9CD"/>
<rect width="49.1714" height="14.2863" transform="matrix(-1 0 0 1 6.64819 553.983)" fill="#C3C9CD"/>
<g filter="url(#filter1_ddd_161_44595)">
<path d="M360.5 398.5L325 351H344.5L379 398.5H360.5Z" fill="#EBEDEE"/>
</g>
<g filter="url(#filter2_dd_161_44595)">
<path d="M360.5 368.5L325 321H344.5L379 368.5H360.5Z" fill="#EBEDEE"/>
</g>
<g filter="url(#filter3_f_161_44595)">
<path d="M347.771 440.203C347.771 437.666 349.828 435.61 352.364 435.61H357.795C360.331 435.61 362.388 437.666 362.388 440.203V454.309C362.388 456.846 360.331 458.902 357.795 458.902H352.364C349.828 458.902 347.771 456.846 347.771 454.309V440.203Z" fill="#30FDFD" stroke="#30FDFD"/>
<path d="M297.018 428.037C297.018 427.188 297.706 426.5 298.555 426.5H308.796C309.645 426.5 310.333 427.188 310.333 428.037V450.424C310.333 451.273 309.645 451.961 308.796 451.961H298.555C297.706 451.961 297.018 451.273 297.018 450.424V428.037Z" stroke="#30FDFD"/>
<path d="M283.042 427.495C283.267 426.896 283.84 426.5 284.48 426.5H291.011C291.86 426.5 292.548 427.188 292.548 428.037V450.424C292.548 451.273 291.86 451.961 291.011 451.961H276.039C274.965 451.961 274.222 450.887 274.601 449.882L283.042 427.495Z" stroke="#30FDFD"/>
<path d="M347.271 500.263C347.271 499.185 348.145 498.311 349.223 498.311H360.935C362.014 498.311 362.888 499.185 362.888 500.263C362.888 501.341 362.014 502.215 360.935 502.215H349.223C348.145 502.215 347.271 501.341 347.271 500.263Z" fill="#30FDFD"/>
<path d="M347.271 507.336C347.271 506.258 348.145 505.384 349.223 505.384H360.935C362.014 505.384 362.888 506.258 362.888 507.336C362.888 508.414 362.014 509.288 360.935 509.288H349.223C348.145 509.288 347.271 508.414 347.271 507.336Z" fill="#30FDFD"/>
<path fill-rule="evenodd" clip-rule="evenodd" d="M361.586 431.206H349.007C346.371 431.206 344.235 433.342 344.235 435.977V487.598C344.235 490.233 346.371 492.37 349.007 492.37H361.586C364.222 492.37 366.358 490.233 366.358 487.598V435.977C366.358 433.342 364.222 431.206 361.586 431.206ZM349.007 430.772C346.132 430.772 343.801 433.103 343.801 435.977V487.598C343.801 490.473 346.132 492.804 349.007 492.804H361.586C364.461 492.804 366.792 490.473 366.792 487.598V435.977C366.792 433.103 364.461 430.772 361.586 430.772H349.007Z" fill="#30FDFD"/>
<rect x="339.029" y="445.521" width="1.73515" height="62.8992" rx="0.867575" fill="#30FDFD"/>
<rect x="369.828" y="445.521" width="1.73515" height="62.8992" rx="0.867575" fill="#30FDFD"/>
<rect x="359.851" y="462.004" width="5.20545" height="1.73515" rx="0.867575" fill="#30FDFD"/>
<g filter="url(#filter4_f_161_44595)">
<circle cx="329.672" cy="536.844" r="22.7739" stroke="url(#paint0_linear_161_44595)" stroke-width="3"/>
</g>
<g filter="url(#filter5_f_161_44595)">
<circle cx="409.489" cy="536.844" r="22.7739" stroke="url(#paint1_linear_161_44595)" stroke-width="3"/>
</g>
<g filter="url(#filter6_f_161_44595)">
<circle cx="329.671" cy="536.844" r="17.5684" stroke="url(#paint2_linear_161_44595)" stroke-width="3"/>
</g>
<g filter="url(#filter7_f_161_44595)">
<circle cx="409.489" cy="536.844" r="17.5684" stroke="url(#paint3_linear_161_44595)" stroke-width="3"/>
</g>
<path d="M273.5 480H421.5" stroke="url(#paint4_linear_161_44595)" stroke-width="3"/>
<g filter="url(#filter8_f_161_44595)">
<path d="M421.5 416H319.5V397.5C314.833 397.334 303.3 397.9 294.5 401.5" stroke="url(#paint5_linear_161_44595)" stroke-width="3"/>
</g>
<g filter="url(#filter9_f_161_44595)">
<path d="M273.5 494H421.5" stroke="url(#paint6_linear_161_44595)" stroke-width="3"/>
</g>
<g filter="url(#filter10_f_161_44595)">
<path d="M273.5 513H421.5" stroke="url(#paint7_linear_161_44595)" stroke-width="3"/>
</g>
<g filter="url(#filter11_f_161_44595)">
<path d="M273.5 423H381.5V434.5H438.5" stroke="url(#paint8_linear_161_44595)" stroke-width="3"/>
</g>
<g filter="url(#filter12_f_161_44595)">
<rect x="384.413" y="420.592" width="50.7532" height="12.1461" fill="url(#paint9_linear_161_44595)"/>
</g>
</g>
<g filter="url(#filter13_d_161_44595)">
<path fill-rule="evenodd" clip-rule="evenodd" d="M360 368H380V585H360V368ZM364 563C364 561.895 364.895 561 366 561H374C375.105 561 376 561.895 376 563V573C376 574.105 375.105 575 374 575H366C364.895 575 364 574.105 364 573V563ZM366 541C364.895 541 364 541.895 364 543V553C364 554.105 364.895 555 366 555H374C375.105 555 376 554.105 376 553V543C376 541.895 375.105 541 374 541H366ZM364 523C364 521.895 364.895 521 366 521H374C375.105 521 376 521.895 376 523V533C376 534.105 375.105 535 374 535H366C364.895 535 364 534.105 364 533V523ZM366 501C364.895 501 364 501.895 364 503V513C364 514.105 364.895 515 366 515H374C375.105 515 376 514.105 376 513V503C376 501.895 375.105 501 374 501H366ZM364 483C364 481.895 364.895 481 366 481H374C375.105 481 376 481.895 376 483V493C376 494.105 375.105 495 374 495H366C364.895 495 364 494.105 364 493V483ZM366 461C364.895 461 364 461.895 364 463V473C364 474.105 364.895 475 366 475H374C375.105 475 376 474.105 376 473V463C376 461.895 375.105 461 374 461H366ZM364 443C364 441.895 364.895 441 366 441H374C375.105 441 376 441.895 376 443V453C376 454.105 375.105 455 374 455H366C364.895 455 364 454.105 364 453V443ZM366 421C364.895 421 364 421.895 364 423V433C364 434.105 364.895 435 366 435H374C375.105 435 376 434.105 376 433V423C376 421.895 375.105 421 374 421H366ZM364 403C364 401.895 364.895 401 366 401H374C375.105 401 376 401.895 376 403V413C376 414.105 375.105 415 374 415H366C364.895 415 364 414.105 364 413V403ZM366 381C364.895 381 364 381.895 364 383V393C364 394.105 364.895 395 366 395H374C375.105 395 376 394.105 376 393V383C376 381.895 375.105 381 374 381H366Z" fill="#C3C9CD"/>
</g>
</g>
<defs>
<filter id="filter0_d_161_44595" x="216.888" y="323" width="1575.11" height="255.001" filterUnits="userSpaceOnUse" color-interpolation-filters="sRGB">
<feFlood flood-opacity="0" result="BackgroundImageFix"/>
<feColorMatrix in="SourceAlpha" type="matrix" values="0 0 0 0 0 0 0 0 0 0 0 0 0 0 0 0 0 0 127 0" result="hardAlpha"/>
<feOffset dy="-4"/>
<feGaussianBlur stdDeviation="9"/>
<feComposite in2="hardAlpha" operator="out"/>
<feColorMatrix type="matrix" values="0 0 0 0 0.223529 0 0 0 0 0.290196 0 0 0 0 0.345098 0 0 0 0.2 0"/>
<feBlend mode="normal" in2="BackgroundImageFix" result="effect1_dropShadow_161_44595"/>
<feBlend mode="normal" in="SourceGraphic" in2="effect1_dropShadow_161_44595" result="shape"/>
</filter>
<filter id="filter1_ddd_161_44595" x="241" y="331" width="222" height="345.5" filterUnits="userSpaceOnUse" color-interpolation-filters="sRGB">
<feFlood flood-opacity="0" result="BackgroundImageFix"/>
<feColorMatrix in="SourceAlpha" type="matrix" values="0 0 0 0 0 0 0 0 0 0 0 0 0 0 0 0 0 0 127 0" result="hardAlpha"/>
<feOffset dy="44"/>
<feGaussianBlur stdDeviation="27"/>
<feComposite in2="hardAlpha" operator="out"/>
<feColorMatrix type="matrix" values="0 0 0 0 0 0 0 0 0 0.76 0 0 0 0 1 0 0 0 1 0"/>
<feBlend mode="normal" in2="BackgroundImageFix" result="effect1_dropShadow_161_44595"/>
<feColorMatrix in="SourceAlpha" type="matrix" values="0 0 0 0 0 0 0 0 0 0 0 0 0 0 0 0 0 0 127 0" result="hardAlpha"/>
<feOffset dy="14"/>
<feGaussianBlur stdDeviation="17"/>
<feComposite in2="hardAlpha" operator="out"/>
<feColorMatrix type="matrix" values="0 0 0 0 0 0 0 0 0 0.760784 0 0 0 0 1 0 0 0 0.9 0"/>
<feBlend mode="normal" in2="effect1_dropShadow_161_44595" result="effect2_dropShadow_161_44595"/>
<feColorMatrix in="SourceAlpha" type="matrix" values="0 0 0 0 0 0 0 0 0 0 0 0 0 0 0 0 0 0 127 0" result="hardAlpha"/>
<feOffset dy="194"/>
<feGaussianBlur stdDeviation="42"/>
<feComposite in2="hardAlpha" operator="out"/>
<feColorMatrix type="matrix" values="0 0 0 0 0 0 0 0 0 0.760784 0 0 0 0 1 0 0 0 1 0"/>
<feBlend mode="normal" in2="effect2_dropShadow_161_44595" result="effect3_dropShadow_161_44595"/>
<feBlend mode="normal" in="SourceGraphic" in2="effect3_dropShadow_161_44595" result="shape"/>
</filter>
<filter id="filter2_dd_161_44595" x="271" y="301" width="162" height="165.5" filterUnits="userSpaceOnUse" color-interpolation-filters="sRGB">
<feFlood flood-opacity="0" result="BackgroundImageFix"/>
<feColorMatrix in="SourceAlpha" type="matrix" values="0 0 0 0 0 0 0 0 0 0 0 0 0 0 0 0 0 0 127 0" result="hardAlpha"/>
<feOffset dy="44"/>
<feGaussianBlur stdDeviation="27"/>
<feComposite in2="hardAlpha" operator="out"/>
<feColorMatrix type="matrix" values="0 0 0 0 0 0 0 0 0 0.76 0 0 0 0 1 0 0 0 1 0"/>
<feBlend mode="normal" in2="BackgroundImageFix" result="effect1_dropShadow_161_44595"/>
<feColorMatrix in="SourceAlpha" type="matrix" values="0 0 0 0 0 0 0 0 0 0 0 0 0 0 0 0 0 0 127 0" result="hardAlpha"/>
<feOffset dy="14"/>
<feGaussianBlur stdDeviation="17"/>
<feComposite in2="hardAlpha" operator="out"/>
<feColorMatrix type="matrix" values="0 0 0 0 0 0 0 0 0 0.760784 0 0 0 0 1 0 0 0 0.9 0"/>
<feBlend mode="normal" in2="effect1_dropShadow_161_44595" result="effect2_dropShadow_161_44595"/>
<feBlend mode="normal" in="SourceGraphic" in2="effect2_dropShadow_161_44595" result="shape"/>
</filter>
<filter id="filter3_f_161_44595" x="272.5" y="394.975" width="167" height="167.143" filterUnits="userSpaceOnUse" color-interpolation-filters="sRGB">
<feFlood flood-opacity="0" result="BackgroundImageFix"/>
<feBlend mode="normal" in="SourceGraphic" in2="BackgroundImageFix" result="shape"/>
<feGaussianBlur stdDeviation="0.5" result="effect1_foregroundBlur_161_44595"/>
</filter>
<filter id="filter4_f_161_44595" x="303.398" y="510.57" width="52.5477" height="52.5476" filterUnits="userSpaceOnUse" color-interpolation-filters="sRGB">
<feFlood flood-opacity="0" result="BackgroundImageFix"/>
<feBlend mode="normal" in="SourceGraphic" in2="BackgroundImageFix" result="shape"/>
<feGaussianBlur stdDeviation="1" result="effect1_foregroundBlur_161_44595"/>
</filter>
<filter id="filter5_f_161_44595" x="383.215" y="510.57" width="52.5477" height="52.5476" filterUnits="userSpaceOnUse" color-interpolation-filters="sRGB">
<feFlood flood-opacity="0" result="BackgroundImageFix"/>
<feBlend mode="normal" in="SourceGraphic" in2="BackgroundImageFix" result="shape"/>
<feGaussianBlur stdDeviation="1" result="effect1_foregroundBlur_161_44595"/>
</filter>
<filter id="filter6_f_161_44595" x="308.603" y="515.775" width="42.1368" height="42.1367" filterUnits="userSpaceOnUse" color-interpolation-filters="sRGB">
<feFlood flood-opacity="0" result="BackgroundImageFix"/>
<feBlend mode="normal" in="SourceGraphic" in2="BackgroundImageFix" result="shape"/>
<feGaussianBlur stdDeviation="1" result="effect1_foregroundBlur_161_44595"/>
</filter>
<filter id="filter7_f_161_44595" x="388.42" y="515.775" width="42.1368" height="42.1367" filterUnits="userSpaceOnUse" color-interpolation-filters="sRGB">
<feFlood flood-opacity="0" result="BackgroundImageFix"/>
<feBlend mode="normal" in="SourceGraphic" in2="BackgroundImageFix" result="shape"/>
<feGaussianBlur stdDeviation="1" result="effect1_foregroundBlur_161_44595"/>
</filter>
<filter id="filter8_f_161_44595" x="291.932" y="393.975" width="131.568" height="25.5256" filterUnits="userSpaceOnUse" color-interpolation-filters="sRGB">
<feFlood flood-opacity="0" result="BackgroundImageFix"/>
<feBlend mode="normal" in="SourceGraphic" in2="BackgroundImageFix" result="shape"/>
<feGaussianBlur stdDeviation="1" result="effect1_foregroundBlur_161_44595"/>
</filter>
<filter id="filter9_f_161_44595" x="271.5" y="490.5" width="152" height="7" filterUnits="userSpaceOnUse" color-interpolation-filters="sRGB">
<feFlood flood-opacity="0" result="BackgroundImageFix"/>
<feBlend mode="normal" in="SourceGraphic" in2="BackgroundImageFix" result="shape"/>
<feGaussianBlur stdDeviation="1" result="effect1_foregroundBlur_161_44595"/>
</filter>
<filter id="filter10_f_161_44595" x="271.5" y="509.5" width="152" height="7" filterUnits="userSpaceOnUse" color-interpolation-filters="sRGB">
<feFlood flood-opacity="0" result="BackgroundImageFix"/>
<feBlend mode="normal" in="SourceGraphic" in2="BackgroundImageFix" result="shape"/>
<feGaussianBlur stdDeviation="1" result="effect1_foregroundBlur_161_44595"/>
</filter>
<filter id="filter11_f_161_44595" x="271.5" y="419.5" width="169" height="18.5" filterUnits="userSpaceOnUse" color-interpolation-filters="sRGB">
<feFlood flood-opacity="0" result="BackgroundImageFix"/>
<feBlend mode="normal" in="SourceGraphic" in2="BackgroundImageFix" result="shape"/>
<feGaussianBlur stdDeviation="1" result="effect1_foregroundBlur_161_44595"/>
</filter>
<filter id="filter12_f_161_44595" x="382.413" y="418.592" width="54.7532" height="16.146" filterUnits="userSpaceOnUse" color-interpolation-filters="sRGB">
<feFlood flood-opacity="0" result="BackgroundImageFix"/>
<feBlend mode="normal" in="SourceGraphic" in2="BackgroundImageFix" result="shape"/>
<feGaussianBlur stdDeviation="1" result="effect1_foregroundBlur_161_44595"/>
</filter>
<filter id="filter13_d_161_44595" x="318" y="320" width="64" height="265" filterUnits="userSpaceOnUse" color-interpolation-filters="sRGB">
<feFlood flood-opacity="0" result="BackgroundImageFix"/>
<feColorMatrix in="SourceAlpha" type="matrix" values="0 0 0 0 0 0 0 0 0 0 0 0 0 0 0 0 0 0 127 0" result="hardAlpha"/>
<feOffset dx="-20" dy="-26"/>
<feGaussianBlur stdDeviation="11"/>
<feComposite in2="hardAlpha" operator="out"/>
<feColorMatrix type="matrix" values="0 0 0 0 0 0 0 0 0 0.760784 0 0 0 0 1 0 0 0 1 0"/>
<feBlend mode="normal" in2="BackgroundImageFix" result="effect1_dropShadow_161_44595"/>
<feBlend mode="normal" in="SourceGraphic" in2="effect1_dropShadow_161_44595" result="shape"/>
</filter>
<linearGradient id="paint0_linear_161_44595" x1="352.001" y1="495.003" x2="307.053" y2="514.074" gradientUnits="userSpaceOnUse">
<stop stop-color="#00F9FF" stop-opacity="0"/>
<stop offset="0.322917" stop-color="#00C2FF" stop-opacity="0.6"/>
<stop offset="0.65625" stop-color="#00C2FF" stop-opacity="0.67"/>
<stop offset="1" stop-color="#00C2FF" stop-opacity="0"/>
</linearGradient>
<linearGradient id="paint1_linear_161_44595" x1="427.002" y1="550.998" x2="386.87" y2="514.068" gradientUnits="userSpaceOnUse">
<stop stop-color="#00F9FF" stop-opacity="0"/>
<stop offset="0.322917" stop-color="#00C2FF" stop-opacity="0.6"/>
<stop offset="0.65625" stop-color="#00C2FF" stop-opacity="0.67"/>
<stop offset="1" stop-color="#00C2FF" stop-opacity="0"/>
</linearGradient>
<linearGradient id="paint2_linear_161_44595" x1="346.897" y1="504.567" x2="312.223" y2="519.278" gradientUnits="userSpaceOnUse">
<stop stop-color="#00F9FF" stop-opacity="0"/>
<stop offset="0.322917" stop-color="#00C2FF" stop-opacity="0.6"/>
<stop offset="0.65625" stop-color="#00C2FF" stop-opacity="0.67"/>
<stop offset="1" stop-color="#00C2FF" stop-opacity="0"/>
</linearGradient>
<linearGradient id="paint3_linear_161_44595" x1="405.005" y1="544.497" x2="392.044" y2="519.273" gradientUnits="userSpaceOnUse">
<stop stop-color="#00F9FF" stop-opacity="0"/>
<stop offset="0.322917" stop-color="#00C2FF" stop-opacity="0.6"/>
<stop offset="0.65625" stop-color="#00C2FF" stop-opacity="0.67"/>
<stop offset="1" stop-color="#00C2FF" stop-opacity="0"/>
</linearGradient>
<linearGradient id="paint4_linear_161_44595" x1="422" y1="480" x2="274" y2="480" gradientUnits="userSpaceOnUse">
<stop stop-color="#00C2FF" stop-opacity="0"/>
<stop offset="0.322917" stop-color="#00C2FF" stop-opacity="0.6"/>
<stop offset="0.65625" stop-color="#00C2FF" stop-opacity="0.94"/>
<stop offset="1" stop-color="#00C2FF" stop-opacity="0"/>
</linearGradient>
<linearGradient id="paint5_linear_161_44595" x1="422" y1="415.999" x2="274" y2="415.999" gradientUnits="userSpaceOnUse">
<stop stop-color="#00C2FF" stop-opacity="0"/>
<stop offset="0.322917" stop-color="#00C2FF" stop-opacity="0.6"/>
<stop offset="0.65625" stop-color="#00C2FF" stop-opacity="0.67"/>
<stop offset="1" stop-color="#00C2FF" stop-opacity="0"/>
</linearGradient>
<linearGradient id="paint6_linear_161_44595" x1="422" y1="494" x2="274" y2="494" gradientUnits="userSpaceOnUse">
<stop stop-color="#00C2FF" stop-opacity="0"/>
<stop offset="0.322917" stop-color="#00C2FF" stop-opacity="0.6"/>
<stop offset="0.65625" stop-color="#00C2FF" stop-opacity="0.67"/>
<stop offset="1" stop-color="#00C2FF" stop-opacity="0"/>
</linearGradient>
<linearGradient id="paint7_linear_161_44595" x1="422" y1="513" x2="274" y2="513" gradientUnits="userSpaceOnUse">
<stop stop-color="#00C2FF" stop-opacity="0"/>
<stop offset="0.322917" stop-color="#00C2FF" stop-opacity="0.6"/>
<stop offset="0.65625" stop-color="#00C2FF" stop-opacity="0.67"/>
<stop offset="1" stop-color="#00C2FF" stop-opacity="0"/>
</linearGradient>
<linearGradient id="paint8_linear_161_44595" x1="422" y1="423" x2="274" y2="423" gradientUnits="userSpaceOnUse">
<stop stop-color="#00C2FF" stop-opacity="0"/>
<stop offset="0.322917" stop-color="#00C2FF" stop-opacity="0.6"/>
<stop offset="0.65625" stop-color="#00C2FF" stop-opacity="0.67"/>
<stop offset="1" stop-color="#00C2FF" stop-opacity="0"/>
</linearGradient>
<linearGradient id="paint9_linear_161_44595" x1="421.426" y1="433.046" x2="395.306" y2="391.252" gradientUnits="userSpaceOnUse">
<stop stop-color="#00F9FF" stop-opacity="0"/>
<stop offset="0.322917" stop-color="#00C2FF" stop-opacity="0.6"/>
<stop offset="0.65625" stop-color="#00C2FF" stop-opacity="0.67"/>
<stop offset="1" stop-color="#00C2FF" stop-opacity="0"/>
</linearGradient>
</defs>
</svg>
