<svg width="372" height="440" viewBox="0 0 372 440" fill="none" xmlns="http://www.w3.org/2000/svg">
<mask id="mask0_161_46704" style="mask-type:alpha" maskUnits="userSpaceOnUse" x="0" y="0" width="372" height="440">
<rect width="372" height="440" fill="#EBEDEE"/>
</mask>
<g mask="url(#mask0_161_46704)">
<rect y="110" width="372" height="330" fill="#5F6E79"/>
<rect width="372" height="108" transform="matrix(1 0 0 -1 0 108)" fill="#EBEDEE"/>
<rect y="181" width="371" height="4" fill="#4B5C69"/>
<rect y="132" width="371" height="4" fill="#4B5C69"/>
<rect x="1" y="229" width="371" height="4" fill="#4B5C69"/>
<rect x="1" y="277" width="371" height="4" fill="#4B5C69"/>
<rect x="1" y="325" width="371" height="4" fill="#4B5C69"/>
<rect x="1" y="373" width="371" height="4" fill="#4B5C69"/>
<rect x="1" y="421" width="371" height="4" fill="#4B5C69"/>
<rect y="167" width="371" height="4" fill="#4B5C69"/>
<rect y="119" width="371" height="4" fill="#4B5C69"/>
<rect x="1" y="215" width="371" height="4" fill="#4B5C69"/>
<rect x="1" y="263" width="371" height="4" fill="#4B5C69"/>
<rect x="1" y="311" width="371" height="4" fill="#4B5C69"/>
<rect x="1" y="360" width="371" height="4" fill="#4B5C69"/>
<rect x="1" y="408" width="371" height="4" fill="#4B5C69"/>
<circle cx="256.99" cy="165.015" r="17.4426" fill="#5F6E79"/>
<circle cx="187.884" cy="165.015" r="17.4426" fill="#5F6E79"/>
<ellipse cx="256.99" cy="165.014" rx="13.4557" ry="13.4557" fill="#394A58"/>
<ellipse cx="187.884" cy="165.014" rx="13.4557" ry="13.4557" fill="#394A58"/>
<path d="M222.105 177.976L222.271 177.971C231.573 177.971 233.899 177.971 237.056 174.981C240.212 171.991 246.026 168.503 249.515 168.503H261.807C265.296 168.503 264.994 167.273 265.462 164.848C267.29 155.379 264.133 154.05 259.814 153.054C255.495 152.057 234.564 150.728 222.271 150.728C209.978 150.728 191.705 152.223 183.565 153.054C175.425 153.884 178.914 161.692 179.578 164.848C180.243 168.004 181.572 168.503 183.565 168.503C185.558 168.503 190.044 168.835 195.526 168.503C201.008 168.17 203.499 171.659 207.32 174.981C211.106 178.274 216.035 178.14 222.105 177.976Z" fill="#5F6E79"/>
<rect width="25.9147" height="11.6284" rx="5.81419" transform="matrix(-1 0 0 1 235.229 160.861)" fill="#394A58"/>
<path d="M542.385 126.309H544.876V150.729H441.052C436.234 150.729 413.143 160.032 406.997 160.032H302.508C295.531 160.032 271.942 150.729 267.457 150.729H166.456V126.475H168.615L170.941 135.114H540.225L542.385 126.309Z" fill="#87929B"/>
<path d="M171.439 155.38C170.11 156.975 169.557 161.139 169.446 163.022H166.456V158.204H164.296L162.469 163.022H154.993C153.893 163.022 153 162.129 153 161.028V150.729C153 149.628 153.893 148.736 154.993 148.736H162.469L164.296 153.387H166.456V150.563H176.257C175.205 151.504 172.768 153.786 171.439 155.38Z" fill="#394A58"/>
<path d="M193.035 28.9646H523.281C537.567 28.9646 547.534 57.8694 547.534 84.1163C547.534 110.363 534.245 134.949 523.281 134.949H193.035C185.061 134.949 169.446 120.33 169.446 84.1163C169.446 57.2049 180.41 28.9646 193.035 28.9646Z" fill="#D7DBDE"/>
<path d="M236.558 123.984L239.548 134.948H208.649L211.307 123.984H220.942V28.6316H228.916V123.984H236.558Z" fill="#87929B"/>
<rect width="34.2206" height="5.64807" transform="matrix(-1 0 0 1 375.102 18)" fill="#EBEDEE"/>
<rect width="22.9245" height="5.64807" transform="matrix(-1 0 0 1 369.454 23.3164)" fill="#AFB7BC"/>
<path d="M513.876 160.996C513.876 160.446 513.43 160 512.88 160H136.785C136.234 160 135.788 160.446 135.788 160.996V194.885C135.788 195.435 136.234 195.882 136.785 195.882H512.88C513.43 195.882 513.876 195.435 513.876 194.885V160.996Z" fill="#D7DBDE"/>
<circle cx="225.993" cy="214.654" r="17.4426" fill="#4B5C69"/>
<circle cx="156.887" cy="214.654" r="17.4426" fill="#4B5C69"/>
<ellipse cx="225.993" cy="214.653" rx="13.4557" ry="13.4557" fill="#394A58"/>
<ellipse cx="156.887" cy="214.653" rx="13.4557" ry="13.4557" fill="#394A58"/>
<path d="M191.107 227.616L191.273 227.612C200.575 227.612 202.901 227.612 206.058 224.622C209.214 221.632 215.028 218.143 218.517 218.143H230.809C234.298 218.143 233.996 216.913 234.464 214.488C236.292 205.02 233.135 203.691 228.816 202.694C224.497 201.697 203.566 200.368 191.273 200.368C178.98 200.368 160.707 201.863 152.567 202.694C144.427 203.525 147.916 211.332 148.58 214.488C149.245 217.645 150.573 218.143 152.567 218.143C154.56 218.143 159.046 218.475 164.528 218.143C170.009 217.811 172.501 221.299 176.322 224.622C180.108 227.914 185.036 227.781 191.107 227.616Z" fill="#4B5C69"/>
<rect width="25.9147" height="11.6284" rx="5.81419" transform="matrix(-1 0 0 1 204.231 210.501)" fill="#394A58"/>
<path d="M511.385 175.949H513.877V200.368H410.052C405.234 200.368 382.144 209.671 375.997 209.671H271.508C264.531 209.671 240.942 200.368 236.457 200.368H135.456V176.115H137.616L139.941 184.753H509.225L511.385 175.949Z" fill="#87929B"/>
<path d="M140.439 205.02C139.11 206.614 138.556 210.778 138.446 212.661H135.455V207.844H133.296L131.469 212.661H123.993C122.892 212.661 122 211.769 122 210.668V200.368C122 199.267 122.892 198.375 123.993 198.375H131.469L133.296 203.026H135.455V200.202H145.256C144.204 201.144 141.768 203.425 140.439 205.02Z" fill="#394A58"/>
<rect width="49.1714" height="14.2863" transform="matrix(-1 0 0 1 380.648 164.983)" fill="#C3C9CD"/>
<rect width="49.8359" height="14.2863" transform="matrix(-1 0 0 1 318.519 164.983)" fill="#C3C9CD"/>
<rect width="49.5037" height="14.2863" transform="matrix(-1 0 0 1 255.726 164.983)" fill="#C3C9CD"/>
<rect width="50.1681" height="14.2863" transform="matrix(-1 0 0 1 193.598 164.983)" fill="#C3C9CD"/>
<path d="M121.877 160.996C121.877 160.446 121.43 160 120.88 160H-255.215C-255.765 160 -256.212 160.446 -256.212 160.996V194.885C-256.212 195.435 -255.765 195.882 -255.215 195.882H120.88C121.43 195.882 121.877 195.435 121.877 194.885V160.996Z" fill="#D7DBDE"/>
<circle cx="100.115" cy="214.654" r="17.4426" fill="#4B5C69"/>
<circle cx="31.0102" cy="214.654" r="17.4426" fill="#4B5C69"/>
<ellipse cx="100.115" cy="214.653" rx="13.4557" ry="13.4557" fill="#394A58"/>
<ellipse cx="31.0096" cy="214.653" rx="13.4557" ry="13.4557" fill="#394A58"/>
<path d="M65.2294 227.616L65.3955 227.612C74.6981 227.612 77.024 227.612 80.1803 224.622C83.3365 221.632 89.1507 218.143 92.6392 218.143H104.932C108.421 218.143 108.118 216.913 108.587 214.488C110.415 205.02 107.258 203.691 102.939 202.694C98.6194 201.697 77.6883 200.368 65.3955 200.368C53.1026 200.368 34.8295 201.863 26.6896 202.694C18.5498 203.525 22.0383 211.332 22.7028 214.488C23.3672 217.645 24.6962 218.143 26.6896 218.143C28.6831 218.143 33.1683 218.475 38.6502 218.143C44.1322 217.811 46.624 221.299 50.4447 224.622C54.231 227.914 59.1592 227.781 65.2294 227.616Z" fill="#4B5C69"/>
<rect width="25.9147" height="11.6284" rx="5.81419" transform="matrix(-1 0 0 1 78.3533 210.501)" fill="#394A58"/>
<path d="M119.385 175.949H121.877V200.368H18.0521C13.2346 200.368 -9.856 209.671 -16.0024 209.671H-120.492C-127.469 209.671 -151.058 200.368 -155.543 200.368H-256.544V176.115H-254.384L-252.058 184.753H117.226L119.385 175.949Z" fill="#87929B"/>
<path d="M116.727 205.02C118.056 206.614 118.61 210.778 118.72 212.661H121.71V207.844H123.87L125.697 212.661H133.173C134.274 212.661 135.166 211.769 135.166 210.668V200.368C135.166 199.267 134.274 198.375 133.173 198.375H125.697L123.87 203.026H121.71V200.202H111.909C112.962 201.144 115.398 203.425 116.727 205.02Z" fill="#394A58"/>
<rect width="49.1714" height="14.2863" transform="matrix(-1 0 0 1 113.904 164.983)" fill="#C3C9CD"/>
<rect width="50.1681" height="14.2863" transform="matrix(-1 0 0 1 51.7745 164.983)" fill="#C3C9CD"/>
<rect x="1" y="263" width="372" height="35" fill="#4B5C69"/>
<rect width="372" height="5" transform="matrix(1 0 0 -1 1 263)" fill="#394A58"/>
<rect x="244" y="241" width="58" height="20" fill="#4B5C69"/>
<path d="M244 241H302V240C302 237.239 299.762 235 297 235H249C246.239 235 244 237.239 244 240V241Z" fill="#73808A"/>
<path d="M289 288H256.5C253.739 288 251.5 285.761 251.5 283V280.163C251.5 277.798 250.662 275.509 249.134 273.704L248.996 273.541C247.096 271.295 244.304 270 241.362 270H232C229 261 225 257.5 217 257.5C216.5 250.5 232 247 242 248C247.174 248.518 258 252.5 258.5 257.5H286.5C288 252.5 294.6 247.601 305 248.001C315.4 248.401 324.5 250.5 327.5 257.5C320 257.5 317 261.523 317 270H299.5L294 276.5V283C294 285.761 291.762 288 289 288Z" fill="#394A58"/>
<path d="M259 268C259 266.895 259.896 266 261 266H284C285.105 266 286 266.895 286 268V280C286 281.105 285.105 282 284 282H261C259.896 282 259 281.105 259 280V268Z" fill="#87929B"/>
<path d="M282 243H286V253C286 254.657 284.657 256 283 256H282V243Z" fill="#394A58"/>
<path d="M268 243H272V256H268V243Z" fill="#394A58"/>
<path d="M259 235H263V256H262C260.343 256 259 254.657 259 253V235Z" fill="#394A58"/>
<path d="M261 251H284V256H261V251Z" fill="#394A58"/>
<path d="M252 230C252 228.895 252.896 228 254 228H258C259.105 228 260 228.895 260 230V234C260 235.105 259.105 236 258 236H254C252.896 236 252 235.105 252 234V230Z" fill="#D9D9D9"/>
<path d="M261 230C261 228.895 261.896 228 263 228H267C268.105 228 269 228.895 269 230V234C269 235.105 268.105 236 267 236H263C261.896 236 261 235.105 261 234V230Z" fill="#D9D9D9"/>
<path d="M253 232C253 230.895 253.896 230 255 230H257C258.105 230 259 230.895 259 232V233C259 234.105 258.105 235 257 235H255C253.896 235 253 234.105 253 233V232Z" fill="#394A58"/>
<path d="M262 232C262 230.895 262.896 230 264 230H266C267.105 230 268 230.895 268 232V233C268 234.105 267.105 235 266 235H264C262.896 235 262 234.105 262 233V232Z" fill="#394A58"/>
<rect x="272" y="232" width="10" height="18" rx="2" fill="#9BA4AB"/>
<rect x="272" y="218" width="10" height="13" rx="2" fill="#9BA4AB"/>
<rect x="275" y="194" width="4" height="22" rx="2" fill="#9BA4AB"/>
<path d="M244 188C244 186.895 244.896 186 246 186H250C251.105 186 252 186.895 252 188V192C252 193.105 251.105 194 250 194H246C244.896 194 244 193.105 244 192V188Z" fill="#D9D9D9"/>
<path d="M245 190C245 188.895 245.896 188 247 188H249C250.105 188 251 188.895 251 190V191C251 192.105 250.105 193 249 193H247C245.896 193 245 192.105 245 191V190Z" fill="#394A58"/>
<rect x="246" y="206" width="4" height="45" fill="#394A58"/>
<rect x="244" y="196" width="8" height="10" fill="#394A58"/>
<rect x="288" y="237" width="9" height="5" fill="#4B5C69"/>
<path d="M290 234.5C290 233.119 291.119 232 292.5 232C293.881 232 295 233.119 295 234.5V237H290V234.5Z" fill="#FFA723"/>
<path d="M242 255C237.487 255 235.384 256.446 234.186 258.502C233.691 259.351 232.067 259.448 231.445 258.686C230.332 257.323 228.841 256.292 227.185 255.672C226.225 255.312 225.946 253.769 226.893 253.376C229.923 252.118 234.181 250.77 238.5 250.5C243.155 250.209 247.564 252.37 250.455 254.403C251.265 254.972 250.728 256.07 249.752 255.905C247.097 255.455 243.889 255 242 255Z" fill="#4B5C69"/>
<path d="M303.85 254.526C308.363 254.526 310.465 255.973 311.664 258.028C312.159 258.878 313.783 258.974 314.405 258.213C315.518 256.85 317.009 255.819 318.665 255.199C319.625 254.839 319.904 253.295 318.957 252.902C315.927 251.644 311.669 250.296 307.35 250.026C302.694 249.736 298.286 251.896 295.394 253.929C294.585 254.499 295.122 255.596 296.097 255.431C298.753 254.981 301.961 254.526 303.85 254.526Z" fill="#4B5C69"/>
<path d="M123.123 408.999V397.626V396.407H-17.8212L-13.9625 402.094V408.999C-13.9625 413.061 -10.7131 415.498 -7.86986 415.498H45.1364C47.5735 415.498 50.0105 414.076 50.0105 411.03V404.937H61.5866V410.42C61.5866 413.264 63.2113 415.498 66.6638 415.498C70.1163 415.498 111.343 415.701 115.202 415.498C119.061 415.295 123.123 411.233 123.123 408.999Z" fill="#394A58"/>
<circle cx="21.3244" cy="21.3244" r="21.3244" transform="matrix(-1 0 0 1 111.953 382.191)" fill="#4B5C69"/>
<circle cx="21.3244" cy="21.3244" r="21.3244" transform="matrix(-1 0 0 1 33.9668 382.191)" fill="#4B5C69"/>
<ellipse cx="16.4502" cy="16.4502" rx="16.4502" ry="16.4502" transform="matrix(-1 0 0 1 107.079 387.065)" fill="#394A58"/>
<ellipse cx="16.4502" cy="16.4502" rx="16.4502" ry="16.4502" transform="matrix(-1 0 0 1 29.0922 387.065)" fill="#394A58"/>
<path d="M-314.128 396.407H131.449L145.666 418.95H156.023L148.915 406.155V396.407L158.46 378.738V341.167L143.228 283.083L122.513 276.584H79.6616L64.633 289.988H-18.0242L-31.0219 276.584H-138.456L-151.048 290.395H-323.064V370.412H-320.627V376.098H-314.128V396.407Z" fill="#87929B"/>
<path d="M-323.064 352.54H-0.355484C3.30011 352.54 5.34726 354.368 10.8144 362.491C15.3248 369.193 18.938 371.224 25.4368 371.224H158.46V361.476H25.0306C20.7484 361.476 14.2999 352.751 7.16412 343.096C5.50105 340.846 3.80063 338.545 2.08157 336.293C-0.320526 333.145 -2.44861 330.313 -4.35878 327.771C-15.6361 312.762 -19.3186 307.86 -26.9602 307.86H-323.064V352.54Z" fill="#D7DBDE"/>
<path d="M-323.064 307.86H-26.9602C-19.3186 307.86 -15.6361 312.762 -4.35878 327.771C-2.44861 330.313 -0.320526 333.145 2.08157 336.293C3.80063 338.545 5.50105 340.846 7.16412 343.096C14.2999 352.751 20.7484 361.476 25.0306 361.476H158.46V341.167L148.235 302.175C71.2874 302.192 -5.65985 302.386 -82.607 302.58C-162.759 302.782 -242.911 302.984 -323.064 302.986V307.86Z" fill="#E21A1A"/>
<path d="M151.758 400.421H148.915V396.968H153.383V393.922C153.383 392.298 155.008 392.027 155.82 392.094H165.568V393.922L167.802 395.953V400.421L165.568 401.843V405.092H155.82L151.758 400.421Z" fill="#394A58"/>
<path d="M152.164 371.63H158.46V379.551L148.509 396.61L152.164 371.63Z" fill="#E21A1A"/>
<rect width="46.7105" height="4.46796" rx="2" transform="matrix(-1 0 0 1 54.8849 281.458)" fill="#E21A1A"/>
<path d="M-0.152496 252.824C0.82233 253.311 29.0923 271.575 43.1055 280.647H35.3881L-6.65135 252.824C-4.89124 252.62 -1.12732 252.336 -0.152496 252.824Z" fill="#E21A1A"/>
<rect width="5.28031" height="4.06178" transform="matrix(-1 0 0 1 49.6044 285.927)" fill="#87929B"/>
<rect width="5.28031" height="4.06178" transform="matrix(-1 0 0 1 16.2982 285.927)" fill="#87929B"/>
<path d="M57.525 227.437L-1.3708 252.62H-6.85421L-8.47892 247.949L41.8872 227.437V225H44.9335V227.437L-1.3708 248.965H0.457001L53.8694 227.437V225H57.525V227.437Z" fill="#D7DBDE"/>
<rect width="10.5606" height="1.21853" transform="matrix(-1 0 0 1 54.8849 225)" fill="#D7DBDE"/>
<path d="M57.5245 320.858C57.5245 318.167 55.3423 315.984 52.6504 315.984H47.7763C45.0843 315.984 42.9021 318.167 42.9021 320.858V333.856C42.9021 336.548 45.0843 338.73 47.7763 338.73H52.6504C55.3423 338.73 57.5245 336.548 57.5245 333.856V320.858Z" fill="#4B5C69"/>
<rect width="14.6224" height="3.6556" rx="1.8278" transform="matrix(-1 0 0 1 57.5245 373.255)" fill="#73808A"/>
<rect width="14.6224" height="3.6556" rx="1.8278" transform="matrix(-1 0 0 1 57.5245 381.785)" fill="#73808A"/>
<path fill-rule="evenodd" clip-rule="evenodd" d="M44.1204 312.328H55.8995C58.3671 312.328 60.3675 314.329 60.3675 316.796V365.132C60.3675 367.599 58.3671 369.599 55.8995 369.599H44.1204C41.6528 369.599 39.6524 367.599 39.6524 365.132V316.796C39.6524 314.329 41.6528 312.328 44.1204 312.328ZM55.8995 311.922C58.5915 311.922 60.7737 314.104 60.7737 316.796V365.132C60.7737 367.823 58.5915 370.006 55.8995 370.006H44.1204C41.4285 370.006 39.2462 367.823 39.2462 365.132V316.796C39.2462 314.104 41.4285 311.922 44.1204 311.922H55.8995Z" fill="#9BA4AB"/>
<rect width="1.62471" height="58.8958" rx="0.812356" transform="matrix(-1 0 0 1 65.2418 325.732)" fill="#73808A"/>
<rect width="1.62471" height="58.8958" rx="0.812356" transform="matrix(-1 0 0 1 36.4031 325.732)" fill="#73808A"/>
<rect width="4.87414" height="1.62471" rx="0.812356" transform="matrix(-1 0 0 1 45.7451 341.167)" fill="#73808A"/>
<path d="M144.244 336.293L146.884 333.044L135.511 309.688H108.704V336.293H144.244Z" fill="#4B5C69"/>
<path d="M124.747 336.293V317L120.889 309.688H108.703V336.293H124.747Z" fill="#394A58"/>
</g>
</svg>
