<?xml version="1.0" encoding="utf-8"?>
<!-- Generator: Adobe Illustrator 24.3.0, SVG Export Plug-In . SVG Version: 6.00 Build 0)  -->
<svg version="1.1" id="Слой_1" xmlns="http://www.w3.org/2000/svg" xmlns:xlink="http://www.w3.org/1999/xlink" x="0px" y="0px"
	 viewBox="0 0 372 440" style="enable-background:new 0 0 372 440;" xml:space="preserve">
<style type="text/css">
	.st0{fill:#EBEDEE;}
	.st1{clip-path:url(#SVGID_2_);fill:#5F6E79;}
	.st2{clip-path:url(#SVGID_2_);fill:#4B5C69;}
	.st3{clip-path:url(#SVGID_2_);fill-rule:evenodd;clip-rule:evenodd;fill:#4B5C69;}
	.st4{clip-path:url(#SVGID_2_);fill-rule:evenodd;clip-rule:evenodd;fill:#AFB7BC;}
	.st5{clip-path:url(#SVGID_2_);fill:#394A58;}
	.st6{clip-path:url(#SVGID_2_);}
	.st7{fill:none;stroke:url(#SVGID_3_);stroke-width:3;}
	.st8{fill:none;stroke:url(#SVGID_4_);stroke-width:3;}
	.st9{fill:none;stroke:url(#SVGID_5_);stroke-width:3;}
	.st10{fill:none;stroke:url(#SVGID_6_);stroke-width:3;}
	.st11{fill:none;stroke:url(#SVGID_7_);stroke-width:3;}
	.st12{clip-path:url(#SVGID_2_);fill:url(#SVGID_8_);stroke:url(#SVGID_9_);stroke-width:2;}
	.st13{clip-path:url(#SVGID_2_);fill:url(#SVGID_10_);stroke:url(#SVGID_11_);stroke-width:2;}
	.st14{clip-path:url(#SVGID_2_);fill:url(#SVGID_12_);stroke:url(#SVGID_13_);}
	.st15{clip-path:url(#SVGID_2_);fill:none;stroke:url(#SVGID_14_);}
	.st16{clip-path:url(#SVGID_2_);fill:none;stroke:url(#SVGID_15_);}
	.st17{clip-path:url(#SVGID_2_);fill:none;stroke:url(#SVGID_16_);}
	.st18{clip-path:url(#SVGID_2_);fill:#D7DBDE;}
	.st19{clip-path:url(#SVGID_2_);fill-rule:evenodd;clip-rule:evenodd;fill:#E21A1A;}
	.st20{clip-path:url(#SVGID_2_);fill:#E21A1A;}
	.st21{clip-path:url(#SVGID_2_);fill:#87929B;}
	.st22{clip-path:url(#SVGID_2_);fill:#73808A;}
	.st23{clip-path:url(#SVGID_2_);fill-rule:evenodd;clip-rule:evenodd;fill:#9BA4AB;}
	.st24{clip-path:url(#SVGID_2_);fill:#EBEDEE;}
	.st25{fill:#87929B;}
	.st26{clip-path:url(#SVGID_2_);fill:#C3C9CD;}
	.st27{fill:#30FDFD;}
	.st28{fill:none;stroke:url(#SVGID_17_);stroke-width:3;}
	.st29{fill:none;stroke:url(#SVGID_18_);stroke-width:3;}
	.st30{fill:none;stroke:url(#SVGID_19_);stroke-width:3;}
	.st31{fill:none;stroke:url(#SVGID_20_);stroke-width:3;}
	.st32{fill:none;stroke:url(#SVGID_21_);stroke-width:3;}
	.st33{fill:none;stroke:url(#SVGID_22_);stroke-width:3;}
	.st34{fill:none;stroke:url(#SVGID_23_);stroke-width:3;}
	.st35{fill:none;stroke:url(#SVGID_24_);stroke-width:3;}
	.st36{fill:none;stroke:url(#SVGID_25_);stroke-width:3;}
	.st37{fill:none;stroke:url(#SVGID_26_);stroke-width:3;}
	.st38{fill:none;stroke:url(#SVGID_27_);stroke-width:3;}
	.st39{fill:none;stroke:url(#SVGID_28_);stroke-width:3;}
	.st40{fill-rule:evenodd;clip-rule:evenodd;fill:#C3C9CD;}
</style>
<g>
	<defs>
		<rect id="SVGID_1_" y="0" width="372" height="440"/>
	</defs>
	<clipPath id="SVGID_2_">
		<use xlink:href="#SVGID_1_"  style="overflow:visible;"/>
	</clipPath>
	<rect y="0" class="st0" width="372" height="440"/>
	<rect y="200" class="st1" width="372" height="240"/>
	<rect y="273" class="st2" width="372" height="5"/>
	<rect y="328" class="st2" width="372" height="4"/>
	<rect y="382" class="st2" width="372" height="5"/>
	<rect y="437" class="st2" width="372" height="4"/>
	<rect y="257" class="st2" width="372" height="5"/>
	<rect y="313" class="st2" width="372" height="5"/>
	<rect y="367" class="st2" width="372" height="5"/>
	<rect y="422" class="st2" width="372" height="4"/>
	<path class="st3" d="M-85.9,336.6c-11.6-3-24.2-4.6-46-4.6v-4c22,0,34.9,1.6,47,4.8c6.9,1.8,13.6,4.1,21.6,6.9
		c5.7,2,12.1,4.2,19.6,6.6c9.7,3.1,18.3,6.9,26.7,10.9c1.7,0.8,3.3,1.6,4.9,2.3c6.9,3.2,13.7,6.5,21.3,9.5
		c18.6,7.5,41.1,13.5,75.6,13.5v4c-35,0-58-6.1-77.1-13.8c-7.7-3.1-14.7-6.4-21.6-9.7c-1.6-0.8-3.3-1.5-4.9-2.3
		c-8.5-4-16.9-7.7-26.3-10.7c-7.8-2.5-14.3-4.7-20-6.7C-72.7,340.7-79.1,338.4-85.9,336.6z"/>
	<path class="st3" d="M-30.1,328.8c-17.4-6.5-35.5-11.6-57-11.6v-4c22.2,0,40.8,5.2,58.4,11.8c6.8,2.5,13.4,5.3,20,8.1
		c2,0.8,4,1.6,5.9,2.5c8.6,3.6,17.3,7,26.3,9.9c6.5,2.1,12.3,4.1,17.8,6c10.8,3.7,20.4,7,31.9,9.7c17.3,4,38.7,6.6,74,6.6v4
		c-35.6,0-57.3-2.6-74.9-6.7c-11.7-2.7-21.6-6.1-32.5-9.9c-5.5-1.9-11.2-3.8-17.4-5.8c-9.2-2.9-18-6.4-26.7-10c-2-0.8-4-1.7-6-2.5
		C-16.8,334.1-23.4,331.3-30.1,328.8z"/>
	<path class="st3" d="M146.7,282.2c11.6-3,24.2-4.6,46-4.6v-4c-22,0-34.9,1.6-47,4.8c-6.9,1.8-13.6,4.1-21.6,6.9
		c-5.7,2-12.1,4.2-19.6,6.6c-9.7,3.1-18.3,6.9-26.7,10.9c-1.7,0.8-3.3,1.6-4.9,2.3c-6.9,3.2-13.7,6.5-21.3,9.5
		C32.9,322,10.4,328-24.1,328v4c35,0,58-6.1,77.1-13.8c7.7-3.1,14.7-6.4,21.6-9.7c1.6-0.8,3.3-1.5,4.9-2.3c8.5-4,16.9-7.7,26.3-10.7
		c7.8-2.5,14.3-4.7,20-6.7C133.5,286.2,139.9,283.9,146.7,282.2z"/>
	<path class="st3" d="M90.9,274.3c17.4-6.5,35.5-11.6,57-11.6v-4c-22.2,0-40.8,5.2-58.4,11.8c-6.8,2.5-13.4,5.3-20,8.1
		c-2,0.8-4,1.6-5.9,2.5c-8.6,3.6-17.3,7-26.3,9.9c-6.5,2.1-12.3,4.1-17.8,6c-10.8,3.7-20.4,7-31.9,9.7c-17.3,4-38.7,6.6-74,6.6v4
		c35.6,0,57.3-2.6,74.9-6.7c11.7-2.7,21.6-6.1,32.5-9.9c5.5-1.9,11.2-3.8,17.4-5.8c9.2-2.9,18-6.4,26.7-10c2-0.8,4-1.7,6-2.5
		C77.6,279.6,84.2,276.9,90.9,274.3z"/>
	<path class="st4" d="M220,15h28v317h-28V15z M225.6,299.9c0-1.6,1.3-2.9,2.8-2.9h11.2c1.5,0,2.8,1.3,2.8,2.9v14.6
		c0,1.6-1.3,2.9-2.8,2.9h-11.2c-1.5,0-2.8-1.3-2.8-2.9V299.9z M228.4,267.7c-1.5,0-2.8,1.3-2.8,2.9v14.6c0,1.6,1.3,2.9,2.8,2.9h11.2
		c1.5,0,2.8-1.3,2.8-2.9v-14.6c0-1.6-1.3-2.9-2.8-2.9H228.4z M225.6,241.4c0-1.6,1.3-2.9,2.8-2.9h11.2c1.5,0,2.8,1.3,2.8,2.9V256
		c0,1.6-1.3,2.9-2.8,2.9h-11.2c-1.5,0-2.8-1.3-2.8-2.9V241.4z M228.4,209.3c-1.5,0-2.8,1.3-2.8,2.9v14.6c0,1.6,1.3,2.9,2.8,2.9h11.2
		c1.5,0,2.8-1.3,2.8-2.9v-14.6c0-1.6-1.3-2.9-2.8-2.9H228.4z M225.6,183c0-1.6,1.3-2.9,2.8-2.9h11.2c1.5,0,2.8,1.3,2.8,2.9v14.6
		c0,1.6-1.3,2.9-2.8,2.9h-11.2c-1.5,0-2.8-1.3-2.8-2.9V183z M228.4,150.9c-1.5,0-2.8,1.3-2.8,2.9v14.6c0,1.6,1.3,2.9,2.8,2.9h11.2
		c1.5,0,2.8-1.3,2.8-2.9v-14.6c0-1.6-1.3-2.9-2.8-2.9H228.4z M225.6,124.6c0-1.6,1.3-2.9,2.8-2.9h11.2c1.5,0,2.8,1.3,2.8,2.9v14.6
		c0,1.6-1.3,2.9-2.8,2.9h-11.2c-1.5,0-2.8-1.3-2.8-2.9V124.6z M228.4,92.4c-1.5,0-2.8,1.3-2.8,2.9V110c0,1.6,1.3,2.9,2.8,2.9h11.2
		c1.5,0,2.8-1.3,2.8-2.9V95.3c0-1.6-1.3-2.9-2.8-2.9H228.4z M225.6,66.1c0-1.6,1.3-2.9,2.8-2.9h11.2c1.5,0,2.8,1.3,2.8,2.9v14.6
		c0,1.6-1.3,2.9-2.8,2.9h-11.2c-1.5,0-2.8-1.3-2.8-2.9V66.1z M228.4,34c-1.5,0-2.8,1.3-2.8,2.9v14.6c0,1.6,1.3,2.9,2.8,2.9h11.2
		c1.5,0,2.8-1.3,2.8-2.9V36.9c0-1.6-1.3-2.9-2.8-2.9H228.4z"/>
	<path class="st5" d="M72.6,325.9l-9.6,10l-2.9-0.8l-4.7,10.5h-3.8l-0.9-4.2l-1.2-6.4l5.8-17.2l0.9-10.5l16.3-12.5h229.8l2,4.4
		l20.7,5c6.2,0.2,20.1,1,26.2,2.8c7.6,2.2,4.9,6.4,0,8.9c-4,2-4,5.6-3.5,7.2h24.1v-12.5h62v20.2h-4.7v5h-21.5l-2.6-2.5h-57.3
		l-4.1,15h-67.8c-2.3,0-8-8.3-10.5-12.5h-3.2l-4.4,12.5h-67.5l-6.4-6.1l-6.7-1.9c-1-1-3.4-3.8-5.5-6.9c-2.1-3.1-4-11.1-4.7-14.7
		c-0.3,3.2-1.2,10.7-2.3,14.7c-1.2,4-4.2,7.6-5.5,8.9H154v6.1H84.5c-1.9-2.1-6.6-7.6-9.9-12.5C71.3,331,71.9,327.2,72.6,325.9z"/>
	<ellipse class="st2" cx="117.9" cy="327.8" rx="30.5" ry="29.1"/>
	<ellipse class="st2" cx="225" cy="327.8" rx="30.5" ry="29.1"/>
	<ellipse class="st2" cx="307" cy="327.8" rx="30.5" ry="29.1"/>
	<ellipse class="st5" cx="117.9" cy="327.8" rx="23.6" ry="22.4"/>
	<ellipse class="st5" cx="225" cy="327.8" rx="23.6" ry="22.4"/>
	<ellipse class="st5" cx="307" cy="327.8" rx="23.6" ry="22.4"/>
	<g class="st6">
		
			<linearGradient id="SVGID_3_" gradientUnits="userSpaceOnUse" x1="242.3758" y1="96.0267" x2="241.5268" y2="125.6617" gradientTransform="matrix(1 0 0 -1 0 442.0013)">
			<stop  offset="0" style="stop-color:#00F9FF;stop-opacity:0"/>
			<stop  offset="0.3229" style="stop-color:#00C2FF;stop-opacity:0.6"/>
			<stop  offset="0.6562" style="stop-color:#00C2FF;stop-opacity:0.67"/>
			<stop  offset="1" style="stop-color:#00C2FF;stop-opacity:0"/>
		</linearGradient>
		<path class="st7" d="M72.6,325.9l-9.6,10l-2.9-0.8l-4.7,10.5h-3.8l-0.9-4.2l-1.2-6.4l5.8-17.2l0.9-10.5l16.3-12.5h229.8l2,4.4
			l20.7,5c6.2,0.2,20.1,1,26.2,2.8c7.6,2.2,4.9,6.4,0,8.9c-4,2-4,5.6-3.5,7.2h24.1v-12.5h62v20.2h-4.7v5h-21.5l-2.6-2.5h-57.3
			l-4.1,15h-67.8c-2.3,0-8-8.3-10.5-12.5h-3.2l-4.4,12.5h-67.5l-6.4-6.1l-6.7-1.9c-1-1-3.4-3.8-5.5-6.9c-2.1-3.1-4-11.1-4.7-14.7
			c-0.3,3.2-1.2,10.7-2.3,14.7c-1.2,4-4.2,7.6-5.5,8.9H154v6.1H84.5c-1.9-2.1-6.6-7.6-9.9-12.5C71.3,331,71.9,327.2,72.6,325.9z"/>
	</g>
	<g class="st6">
		
			<linearGradient id="SVGID_4_" gradientUnits="userSpaceOnUse" x1="139.1243" y1="93.708" x2="87.72" y2="143.377" gradientTransform="matrix(1 0 0 -1 0 442.0013)">
			<stop  offset="0" style="stop-color:#00F9FF;stop-opacity:0"/>
			<stop  offset="0.3229" style="stop-color:#00C2FF;stop-opacity:0.6"/>
			<stop  offset="0.6562" style="stop-color:#00C2FF;stop-opacity:0.67"/>
			<stop  offset="1" style="stop-color:#00C2FF;stop-opacity:0"/>
		</linearGradient>
		<ellipse class="st8" cx="117.9" cy="327.8" rx="30.5" ry="29.1"/>
	</g>
	<g class="st6">
		
			<linearGradient id="SVGID_5_" gradientUnits="userSpaceOnUse" x1="246.1672" y1="93.7079" x2="194.7632" y2="143.3769" gradientTransform="matrix(1 0 0 -1 0 442.0013)">
			<stop  offset="0" style="stop-color:#00F9FF;stop-opacity:0"/>
			<stop  offset="0.3229" style="stop-color:#00C2FF;stop-opacity:0.6"/>
			<stop  offset="0.6562" style="stop-color:#00C2FF;stop-opacity:0.67"/>
			<stop  offset="1" style="stop-color:#00C2FF;stop-opacity:0"/>
		</linearGradient>
		<ellipse class="st9" cx="225" cy="327.8" rx="30.5" ry="29.1"/>
	</g>
	<ellipse class="st2" cx="307" cy="327.8" rx="30.5" ry="29.1"/>
	<g class="st6">
		
			<linearGradient id="SVGID_6_" gradientUnits="userSpaceOnUse" x1="134.2828" y1="98.3869" x2="94.6283" y2="136.7029" gradientTransform="matrix(1 0 0 -1 0 442.0013)">
			<stop  offset="0" style="stop-color:#00F9FF;stop-opacity:0"/>
			<stop  offset="0.3229" style="stop-color:#00C2FF;stop-opacity:0.6"/>
			<stop  offset="0.6562" style="stop-color:#00C2FF;stop-opacity:0.67"/>
			<stop  offset="1" style="stop-color:#00C2FF;stop-opacity:0"/>
		</linearGradient>
		<ellipse class="st10" cx="117.9" cy="327.8" rx="23.6" ry="22.4"/>
	</g>
	<g class="st6">
		
			<linearGradient id="SVGID_7_" gradientUnits="userSpaceOnUse" x1="241.3265" y1="98.3865" x2="201.6715" y2="136.7025" gradientTransform="matrix(1 0 0 -1 0 442.0013)">
			<stop  offset="0" style="stop-color:#00F9FF;stop-opacity:0"/>
			<stop  offset="0.3229" style="stop-color:#00C2FF;stop-opacity:0.6"/>
			<stop  offset="0.6562" style="stop-color:#00C2FF;stop-opacity:0.67"/>
			<stop  offset="1" style="stop-color:#00C2FF;stop-opacity:0"/>
		</linearGradient>
		<ellipse class="st11" cx="225" cy="327.8" rx="23.6" ry="22.4"/>
	</g>
	<ellipse class="st5" cx="307" cy="327.8" rx="23.6" ry="22.4"/>
	
		<linearGradient id="SVGID_8_" gradientUnits="userSpaceOnUse" x1="162.1693" y1="143.8629" x2="137.9023" y2="129.8159" gradientTransform="matrix(1 0 0 -1 0 442.0013)">
		<stop  offset="0" style="stop-color:#00C2FF;stop-opacity:0"/>
		<stop  offset="0.3229" style="stop-color:#00C2FF;stop-opacity:0.6"/>
		<stop  offset="0.6562" style="stop-color:#00C2FF;stop-opacity:0.67"/>
		<stop  offset="1" style="stop-color:#00C2FF;stop-opacity:0"/>
	</linearGradient>
	
		<linearGradient id="SVGID_9_" gradientUnits="userSpaceOnUse" x1="141.7666" y1="137.5853" x2="141.7666" y2="126.1213" gradientTransform="matrix(1 0 0 -1 0 442.0013)">
		<stop  offset="0" style="stop-color:#0C86AC"/>
		<stop  offset="1" style="stop-color:#0C88B0;stop-opacity:0"/>
	</linearGradient>
	<path class="st12" d="M138,309c-1-2.1,0.2-4.9,1.9-4.6l2.1,0.4c2.2,0.4,3.9,3,3.9,6.2v0.8c0,2.3-1.3,4.1-2.9,4.1
		c-0.9,0-1.8-0.6-2.4-1.7L138,309z"/>
	
		<linearGradient id="SVGID_10_" gradientUnits="userSpaceOnUse" x1="181.4377" y1="143.8629" x2="205.7047" y2="129.8159" gradientTransform="matrix(1 0 0 -1 0 442.0013)">
		<stop  offset="0" style="stop-color:#00C2FF;stop-opacity:0"/>
		<stop  offset="0.3229" style="stop-color:#00C2FF;stop-opacity:0.6"/>
		<stop  offset="0.6562" style="stop-color:#00C2FF;stop-opacity:0.67"/>
		<stop  offset="1" style="stop-color:#00C2FF;stop-opacity:0"/>
	</linearGradient>
	
		<linearGradient id="SVGID_11_" gradientUnits="userSpaceOnUse" x1="201.8404" y1="137.5853" x2="201.8404" y2="126.1213" gradientTransform="matrix(1 0 0 -1 0 442.0013)">
		<stop  offset="0" style="stop-color:#0C86AC"/>
		<stop  offset="1" style="stop-color:#0C88B0;stop-opacity:0"/>
	</linearGradient>
	<path class="st13" d="M205.6,309c1-2.1-0.2-4.9-1.9-4.6l-2.1,0.4c-2.2,0.4-3.9,3-3.9,6.2v0.8c0,2.3,1.3,4.1,2.9,4.1
		c0.9,0,1.8-0.6,2.4-1.7L205.6,309z"/>
	
		<linearGradient id="SVGID_12_" gradientUnits="userSpaceOnUse" x1="192.232" y1="133.6048" x2="149.6836" y2="133.6048" gradientTransform="matrix(1 0 0 -1 0 442.0013)">
		<stop  offset="0" style="stop-color:#00C2FF;stop-opacity:0"/>
		<stop  offset="0.3229" style="stop-color:#00C2FF;stop-opacity:0.6"/>
		<stop  offset="0.6562" style="stop-color:#00C2FF;stop-opacity:0.67"/>
		<stop  offset="1" style="stop-color:#00C2FF;stop-opacity:0"/>
	</linearGradient>
	
		<linearGradient id="SVGID_13_" gradientUnits="userSpaceOnUse" x1="170.879" y1="140.7703" x2="170.879" y2="126.4392" gradientTransform="matrix(1 0 0 -1 0 442.0013)">
		<stop  offset="0" style="stop-color:#0C86AC"/>
		<stop  offset="1" style="stop-color:#0C88B0;stop-opacity:0"/>
	</linearGradient>
	<path class="st14" d="M159.7,315.6H153c-1.5-3-4.1-9.3-3.2-10.8c1.1-1.9,9.9-3.5,20.6-3.5c10.8,0,18.8,1.9,21.1,3.5
		c1.8,1.3-0.8,7.7-2.3,10.8h-7.3l-4.4-6.1h-14L159.7,315.6z"/>
	
		<linearGradient id="SVGID_14_" gradientUnits="userSpaceOnUse" x1="165.5979" y1="128.6693" x2="165.5979" y2="117.8413" gradientTransform="matrix(1 0 0 -1 0 442.0013)">
		<stop  offset="0" style="stop-color:#0C86AC"/>
		<stop  offset="1" style="stop-color:#0C88B0;stop-opacity:0.36"/>
	</linearGradient>
	<path class="st15" d="M167.9,324.2h-4.1l4.1-2.5l-4.1-1.2l4.1-2.2l-4.1-1.2l4.1-2.2l-4.1-1.5h4.1"/>
	
		<linearGradient id="SVGID_15_" gradientUnits="userSpaceOnUse" x1="171.1009" y1="128.6693" x2="171.1009" y2="117.8413" gradientTransform="matrix(1 0 0 -1 0 442.0013)">
		<stop  offset="0" style="stop-color:#0C86AC"/>
		<stop  offset="1" style="stop-color:#0C88B0;stop-opacity:0.36"/>
	</linearGradient>
	<path class="st16" d="M173.4,324.2h-4.1l4.1-2.5l-4.1-1.2l4.1-2.2l-4.1-1.2l4.1-2.2l-4.1-1.5h4.1"/>
	
		<linearGradient id="SVGID_16_" gradientUnits="userSpaceOnUse" x1="176.6035" y1="128.6693" x2="176.6035" y2="117.8413" gradientTransform="matrix(1 0 0 -1 0 442.0013)">
		<stop  offset="0" style="stop-color:#0C86AC"/>
		<stop  offset="1" style="stop-color:#0C88B0;stop-opacity:0.36"/>
	</linearGradient>
	<path class="st17" d="M178.9,324.2h-4.1l4.1-2.5l-4.1-1.2l4.1-2.2l-4.1-1.2l4.1-2.2l-4.1-1.5h4.1"/>
	<path class="st2" d="M362.8,309l-38.7-14.1h298.7L584.5,309h-66v30.2h-85.8V309H362.8z"/>
	<path class="st18" d="M30.4,336.1H49l6.1-17.7l1.5-10.2L72.3,296l804.3-0.8l17.5,13v10.5l5.8,17.2c4.4-0.1,14-0.2,17.5,0
		c4.4,0.3,5.8-1.4,6.7-4.7c0.9-3.3,2.6-9.7,3.8-13.6c0.9-3.1,1.6-16.3,1.7-22.4h1.2c0.2-1.1,0.8-4.4,1.5-8.6
		c0.9-5.3,4.1-30.2,3.8-45.7c-0.3-15.5-10.8-41.8-18.3-56.8c-7.6-15-27.1-25.8-42.5-30.8c-12.3-4-27.2-3.9-33.2-3.3v24.4H656.1
		v-13.3h-7.9v-12.5h-8.1l-3.2-3h-44.2l-2.3,3h-5.5l-2.3-3h-46l-3.8,3h-9.6l-3.2-3h-46l-2,3h-6.1l-2.3-3h-48v3h-8.7v14.1H299.2v8.3
		l-194,1.1v-22.7c-2-0.2-10.5,0.1-27.9,2.8c-21.8,3.3-37.5,18.8-50.6,39.1c-13.1,20.2-12.8,46-12.2,63.7c0.5,14.2,2.7,33.2,3.8,41
		h1.5c0.5,6.8,1.8,21.6,3.2,26C24.6,327.6,27.5,336.1,30.4,336.1z"/>
	<path class="st19" d="M22,318.1h33.1l0-0.1l1.4-9.9L72.3,296H19.6C20,301.4,20.9,311.9,22,318.1z"/>
	<path class="st20" d="M14.4,256.4h225.7l49.4-69.5h361.9l45.1,69.5h238.9c0.4-5.5,0.6-10.9,0.5-15.5c-0.3-15.5-10.8-41.8-18.3-56.8
		c-0.2-0.5-0.5-0.9-0.7-1.4h-163v15.5h-75.9v-15.5H264.3v14.4h-75.3v-14.4H32.6c-2,2.7-4,5.6-6,8.6c-13.1,20.2-12.8,46-12.2,63.7
		C14.4,255.4,14.4,255.9,14.4,256.4z"/>
	<rect x="192.7" y="179.3" class="st5" width="68.1" height="15.5"/>
	<path class="st21" d="M18.1,295.7h322.2h536.9h52.2c0-0.2,0-0.4,0-0.6h1.2c0.2-1.1,0.8-4.4,1.5-8.6c0.3-2.1,1-7.2,1.8-13.6H683.4
		l-16.9-25.8H268.9l-20.4,26.6H15.7C16.5,282.7,17.5,291.1,18.1,295.7z"/>
	<path class="st5" d="M12.4,303.7H19l2.3,9.7l-4.7,1.7l-5.8,5.5H-5.4v-5.5l-3.8-1.7v-7.8l3.8-1.9v-3.6h14L12.4,303.7z"/>
	<path class="st2" d="M141.5,204.1c0-3.6,3.1-6.5,6.8-6.5h7.3c3.8,0,6.8,2.9,6.8,6.5v18c0,3.6-3.1,6.5-6.8,6.5h-7.3
		c-3.8,0-6.8-2.9-6.8-6.5V204.1z"/>
	<path class="st2" d="M66.9,195.8c0-1.4,1.2-2.6,2.7-2.6h13.7c1.5,0,2.7,1.2,2.7,2.6v28.6c0,1.4-1.2,2.6-2.7,2.6H69.6
		c-1.5,0-2.7-1.2-2.7-2.6V195.8z"/>
	<path class="st2" d="M48.2,194.9c0.4-1,1.4-1.7,2.6-1.7h8.8c1.5,0,2.7,1.2,2.7,2.6v28.6c0,1.4-1.2,2.6-2.7,2.6H39.4
		c-1.9,0-3.2-1.8-2.6-3.5L48.2,194.9z"/>
	<path class="st22" d="M141.5,280.8c0-1.4,1.2-2.5,2.6-2.5h15.7c1.4,0,2.6,1.1,2.6,2.5c0,1.4-1.2,2.5-2.6,2.5h-15.7
		C142.7,283.3,141.5,282.2,141.5,280.8z"/>
	<path class="st22" d="M141.5,289.9c0-1.4,1.2-2.5,2.6-2.5h15.7c1.4,0,2.6,1.1,2.6,2.5c0,1.4-1.2,2.5-2.6,2.5h-15.7
		C142.7,292.4,141.5,291.3,141.5,289.9z"/>
	<path class="st23" d="M160.7,192.6h-16.9c-3.5,0-6.4,2.7-6.4,6.1v65.9c0,3.4,2.9,6.1,6.4,6.1h16.9c3.5,0,6.4-2.7,6.4-6.1v-65.9
		C167.1,195.4,164.2,192.6,160.7,192.6z M143.8,192.1c-3.9,0-7,3-7,6.6v65.9c0,3.7,3.1,6.6,7,6.6h16.9c3.9,0,7-3,7-6.6v-65.9
		c0-3.7-3.1-6.6-7-6.6H143.8z"/>
	<path class="st22" d="M131.6,210.9L131.6,210.9c0.6,0,1.2,0.5,1.2,1.2v78c0,0.6-0.5,1.2-1.2,1.2l0,0c-0.6,0-1.2-0.5-1.2-1.2v-78
		C130.4,211.4,131,210.9,131.6,210.9z"/>
	<path class="st22" d="M172.9,210.9L172.9,210.9c0.6,0,1.2,0.5,1.2,1.2v78c0,0.6-0.5,1.2-1.2,1.2l0,0c-0.6,0-1.2-0.5-1.2-1.2v-78
		C171.8,211.4,172.3,210.9,172.9,210.9z"/>
	<path class="st22" d="M159.5,232h4.8c0.6,0,1.1,0.5,1.1,1.1v0c0,0.6-0.5,1.1-1.1,1.1h-4.8c-0.6,0-1.1-0.5-1.1-1.1v0
		C158.4,232.5,158.9,232,159.5,232z"/>
	<path class="st20" d="M156.9,160h62.9c1.1,0,2,0.9,2,2v2.1c0,1.1-0.9,2-2,2h-62.9c-1.1,0-2-0.9-2-2V162
		C154.9,160.8,155.8,160,156.9,160z"/>
	<path class="st20" d="M233.7,120.9c-1.4,0.7-41.9,25.6-62,38h11.1l60.2-38C240.5,120.6,235.1,120.2,233.7,120.9z"/>
	<rect x="173.8" y="160.5" class="st24" width="7.6" height="5.5"/>
	<rect x="221.5" y="160.5" class="st24" width="7.6" height="5.5"/>
	<path class="st18" d="M162.4,80.7l84.4,34.4h7.9l2.3-6.4l-72.1-28v-3.3h-4.4v3.3l66.3,29.4h-2.6l-76.5-29.4v-3.3h-5.2V80.7z"/>
	<rect x="166.2" y="77.4" class="st18" width="15.1" height="1.7"/>
	<g class="st6">
		<rect x="63" y="343.2" class="st25" width="116.1" height="33.4"/>
	</g>
	<rect x="80.7" y="333.4" class="st26" width="37.4" height="53.1"/>
	<rect x="124" y="333.4" class="st26" width="39.3" height="53.1"/>
	<rect x="90.6" y="386.5" class="st5" width="3.9" height="17.7"/>
	<rect x="131.9" y="386.5" class="st5" width="3.9" height="17.7"/>
	<rect x="106.3" y="386.5" class="st5" width="3.9" height="17.7"/>
	<rect x="147.6" y="386.5" class="st5" width="3.9" height="17.7"/>
	<g class="st6">
		<path class="st0" d="M271.1,128.3l-51.9-69.4h28.5l50.4,69.4H271.1z"/>
	</g>
	<g class="st6">
		<path class="st0" d="M271.1,84.4L219.3,15h28.5l50.4,69.4H271.1z"/>
	</g>
	<g class="st6">
		<path class="st27" d="M271.5,221.1h5.1c0.7,0,1.3,0.6,1.3,1.3l0,0c0,0.7-0.6,1.3-1.3,1.3h-5.1c-0.7,0-1.3-0.6-1.3-1.3l0,0
			C270.2,221.6,270.8,221.1,271.5,221.1z"/>
		<g>
			
				<linearGradient id="SVGID_17_" gradientUnits="userSpaceOnUse" x1="337.5257" y1="219.6628" x2="290.0067" y2="262.2088" gradientTransform="matrix(-0.4879 -0.8729 -0.8729 0.4879 669.1278 491.0622)">
				<stop  offset="0" style="stop-color:#00F9FF;stop-opacity:0"/>
				<stop  offset="0.3229" style="stop-color:#00C2FF;stop-opacity:0.6"/>
				<stop  offset="0.6562" style="stop-color:#00C2FF;stop-opacity:0.67"/>
				<stop  offset="1" style="stop-color:#00C2FF;stop-opacity:0"/>
			</linearGradient>
			
				<ellipse transform="matrix(0.8729 -0.4879 0.4879 0.8729 -121.6308 191.6146)" class="st28" cx="307" cy="329.3" rx="27" ry="26.3"/>
		</g>
		<g>
			
				<linearGradient id="SVGID_18_" gradientUnits="userSpaceOnUse" x1="319.8405" y1="231.9078" x2="304.7455" y2="261.2849" gradientTransform="matrix(-0.4879 -0.8729 -0.8729 0.4879 667.8669 491.0364)">
				<stop  offset="0" style="stop-color:#00F9FF;stop-opacity:0"/>
				<stop  offset="0.3229" style="stop-color:#00C2FF;stop-opacity:0.6"/>
				<stop  offset="0.6562" style="stop-color:#00C2FF;stop-opacity:0.67"/>
				<stop  offset="1" style="stop-color:#00C2FF;stop-opacity:0"/>
			</linearGradient>
			<circle class="st29" cx="306.3" cy="329.6" r="20.5"/>
		</g>
		<g>
			
				<linearGradient id="SVGID_19_" gradientUnits="userSpaceOnUse" x1="340.335" y1="259.0013" x2="241.32" y2="259.0013" gradientTransform="matrix(1 0 0 -1 0 442.0013)">
				<stop  offset="0" style="stop-color:#00C2FF;stop-opacity:0"/>
				<stop  offset="0.3229" style="stop-color:#00C2FF;stop-opacity:0.6"/>
				<stop  offset="0.6562" style="stop-color:#00C2FF;stop-opacity:0.67"/>
				<stop  offset="1" style="stop-color:#00C2FF;stop-opacity:0"/>
			</linearGradient>
			<path class="st30" d="M245,183h95"/>
		</g>
		<g>
			
				<linearGradient id="SVGID_20_" gradientUnits="userSpaceOnUse" x1="280.335" y1="246.0013" x2="181.32" y2="246.0013" gradientTransform="matrix(1 0 0 -1 0 442.0013)">
				<stop  offset="0" style="stop-color:#00C2FF;stop-opacity:0"/>
				<stop  offset="0.3229" style="stop-color:#00C2FF;stop-opacity:0.6"/>
				<stop  offset="0.6562" style="stop-color:#00C2FF;stop-opacity:0.67"/>
				<stop  offset="1" style="stop-color:#00C2FF;stop-opacity:0"/>
			</linearGradient>
			<path class="st31" d="M185,196h95"/>
		</g>
		<g>
			
				<linearGradient id="SVGID_21_" gradientUnits="userSpaceOnUse" x1="261.23" y1="262.0013" x2="193.23" y2="262.0013" gradientTransform="matrix(1 0 0 -1 0 442.0013)">
				<stop  offset="0" style="stop-color:#00C2FF;stop-opacity:0"/>
				<stop  offset="0.3229" style="stop-color:#00C2FF;stop-opacity:0.6"/>
				<stop  offset="0.6562" style="stop-color:#00C2FF;stop-opacity:0.67"/>
				<stop  offset="1" style="stop-color:#00C2FF;stop-opacity:0"/>
			</linearGradient>
			<path class="st32" d="M193,180h68"/>
		</g>
		<g>
			
				<linearGradient id="SVGID_22_" gradientUnits="userSpaceOnUse" x1="261.23" y1="262.0013" x2="193.23" y2="262.0013" gradientTransform="matrix(1 0 0 -1 0 442.0013)">
				<stop  offset="0" style="stop-color:#00C2FF;stop-opacity:0"/>
				<stop  offset="0.3229" style="stop-color:#00C2FF;stop-opacity:0.6"/>
				<stop  offset="0.6562" style="stop-color:#00C2FF;stop-opacity:0.67"/>
				<stop  offset="1" style="stop-color:#00C2FF;stop-opacity:0"/>
			</linearGradient>
			<path class="st33" d="M193,180h68"/>
		</g>
		<g>
			
				<linearGradient id="SVGID_23_" gradientUnits="userSpaceOnUse" x1="261.23" y1="257.0013" x2="193.23" y2="257.0013" gradientTransform="matrix(1 0 0 -1 0 442.0013)">
				<stop  offset="0" style="stop-color:#00C2FF;stop-opacity:0"/>
				<stop  offset="0.3229" style="stop-color:#00C2FF;stop-opacity:0.6"/>
				<stop  offset="0.6562" style="stop-color:#00C2FF;stop-opacity:0.67"/>
				<stop  offset="1" style="stop-color:#00C2FF;stop-opacity:0"/>
			</linearGradient>
			<path class="st34" d="M193,185h68"/>
		</g>
		<g>
			
				<linearGradient id="SVGID_24_" gradientUnits="userSpaceOnUse" x1="261.23" y1="252.0013" x2="193.23" y2="252.0013" gradientTransform="matrix(1 0 0 -1 0 442.0013)">
				<stop  offset="0" style="stop-color:#00C2FF;stop-opacity:0"/>
				<stop  offset="0.3229" style="stop-color:#00C2FF;stop-opacity:0.6"/>
				<stop  offset="0.6562" style="stop-color:#00C2FF;stop-opacity:0.67"/>
				<stop  offset="1" style="stop-color:#00C2FF;stop-opacity:0"/>
			</linearGradient>
			<path class="st35" d="M193,190h68"/>
		</g>
		<g>
			
				<linearGradient id="SVGID_25_" gradientUnits="userSpaceOnUse" x1="261.23" y1="245.0013" x2="193.23" y2="245.0013" gradientTransform="matrix(1 0 0 -1 0 442.0013)">
				<stop  offset="0" style="stop-color:#00C2FF;stop-opacity:0"/>
				<stop  offset="0.3229" style="stop-color:#00C2FF;stop-opacity:0.6"/>
				<stop  offset="0.6562" style="stop-color:#00C2FF;stop-opacity:0.67"/>
				<stop  offset="1" style="stop-color:#00C2FF;stop-opacity:0"/>
			</linearGradient>
			<path class="st36" d="M193,197h68"/>
		</g>
		<g>
			
				<linearGradient id="SVGID_26_" gradientUnits="userSpaceOnUse" x1="361.03" y1="146.3973" x2="144.731" y2="146.3973" gradientTransform="matrix(1 0 0 -1 0 442.0013)">
				<stop  offset="0" style="stop-color:#00C2FF;stop-opacity:0"/>
				<stop  offset="0.3229" style="stop-color:#00C2FF;stop-opacity:0.6"/>
				<stop  offset="0.6562" style="stop-color:#00C2FF;stop-opacity:0.67"/>
				<stop  offset="1" style="stop-color:#00C2FF;stop-opacity:0"/>
			</linearGradient>
			<path class="st37" d="M144,295.6h216.3"/>
		</g>
		<g>
			
				<linearGradient id="SVGID_27_" gradientUnits="userSpaceOnUse" x1="361.03" y1="146.3973" x2="144.731" y2="146.3973" gradientTransform="matrix(1 0 0 -1 0 442.0013)">
				<stop  offset="0" style="stop-color:#00C2FF;stop-opacity:0"/>
				<stop  offset="0.3229" style="stop-color:#00C2FF;stop-opacity:0.6"/>
				<stop  offset="0.6562" style="stop-color:#00C2FF;stop-opacity:0.67"/>
				<stop  offset="1" style="stop-color:#00C2FF;stop-opacity:0"/>
			</linearGradient>
			<path class="st38" d="M144,295.6h216.3"/>
		</g>
		<g>
			
				<linearGradient id="SVGID_28_" gradientUnits="userSpaceOnUse" x1="361.03" y1="269.3728" x2="144.731" y2="269.3728" gradientTransform="matrix(1 0 0 -1 0 442.0013)">
				<stop  offset="0" style="stop-color:#00C2FF;stop-opacity:0"/>
				<stop  offset="0.3229" style="stop-color:#00C2FF;stop-opacity:0.6"/>
				<stop  offset="0.6562" style="stop-color:#00C2FF;stop-opacity:0.67"/>
				<stop  offset="1" style="stop-color:#00C2FF;stop-opacity:0"/>
			</linearGradient>
			<path class="st39" d="M144,173h157.8l43.8-0.7H429"/>
		</g>
	</g>
	<g class="st6">
		<path class="st40" d="M270.4,83.7h29.2v317.1h-29.2V83.7z M276.3,368.7c0-1.6,1.3-2.9,2.9-2.9h11.7c1.6,0,2.9,1.3,2.9,2.9v14.6
			c0,1.6-1.3,2.9-2.9,2.9h-11.7c-1.6,0-2.9-1.3-2.9-2.9V368.7z M279.2,336.5c-1.6,0-2.9,1.3-2.9,2.9v14.6c0,1.6,1.3,2.9,2.9,2.9
			h11.7c1.6,0,2.9-1.3,2.9-2.9v-14.6c0-1.6-1.3-2.9-2.9-2.9H279.2z M276.3,310.2c0-1.6,1.3-2.9,2.9-2.9h11.7c1.6,0,2.9,1.3,2.9,2.9
			v14.6c0,1.6-1.3,2.9-2.9,2.9h-11.7c-1.6,0-2.9-1.3-2.9-2.9V310.2z M279.2,278.1c-1.6,0-2.9,1.3-2.9,2.9v14.6
			c0,1.6,1.3,2.9,2.9,2.9h11.7c1.6,0,2.9-1.3,2.9-2.9V281c0-1.6-1.3-2.9-2.9-2.9H279.2z M276.3,251.8c0-1.6,1.3-2.9,2.9-2.9h11.7
			c1.6,0,2.9,1.3,2.9,2.9v14.6c0,1.6-1.3,2.9-2.9,2.9h-11.7c-1.6,0-2.9-1.3-2.9-2.9V251.8z M279.2,219.6c-1.6,0-2.9,1.3-2.9,2.9
			v14.6c0,1.6,1.3,2.9,2.9,2.9h11.7c1.6,0,2.9-1.3,2.9-2.9v-14.6c0-1.6-1.3-2.9-2.9-2.9H279.2z M276.3,193.3c0-1.6,1.3-2.9,2.9-2.9
			h11.7c1.6,0,2.9,1.3,2.9,2.9v14.6c0,1.6-1.3,2.9-2.9,2.9h-11.7c-1.6,0-2.9-1.3-2.9-2.9V193.3z M279.2,161.1
			c-1.6,0-2.9,1.3-2.9,2.9v14.6c0,1.6,1.3,2.9,2.9,2.9h11.7c1.6,0,2.9-1.3,2.9-2.9v-14.6c0-1.6-1.3-2.9-2.9-2.9H279.2z M276.3,134.8
			c0-1.6,1.3-2.9,2.9-2.9h11.7c1.6,0,2.9,1.3,2.9,2.9v14.6c0,1.6-1.3,2.9-2.9,2.9h-11.7c-1.6,0-2.9-1.3-2.9-2.9V134.8z M279.2,102.7
			c-1.6,0-2.9,1.3-2.9,2.9v14.6c0,1.6,1.3,2.9,2.9,2.9h11.7c1.6,0,2.9-1.3,2.9-2.9v-14.6c0-1.6-1.3-2.9-2.9-2.9H279.2z"/>
	</g>
</g>
</svg>
