<svg width="372" height="440" viewBox="0 0 372 440" fill="none" xmlns="http://www.w3.org/2000/svg">
<mask id="mask0_161_45816" style="mask-type:alpha" maskUnits="userSpaceOnUse" x="0" y="0" width="372" height="440">
<rect width="372" height="440" fill="#EBEDEE"/>
</mask>
<g mask="url(#mask0_161_45816)">
<rect y="267" width="372" height="173" fill="#5F6E79"/>
<rect x="-1" y="314" width="373" height="4" fill="#4B5C69"/>
<rect x="-1" y="362" width="373" height="4" fill="#4B5C69"/>
<rect x="-1" y="410" width="373" height="4" fill="#4B5C69"/>
<rect x="-1" y="300" width="373" height="4" fill="#4B5C69"/>
<rect x="-1" y="348" width="373" height="4" fill="#4B5C69"/>
<rect x="-1" y="397" width="373" height="4" fill="#4B5C69"/>
<path fill-rule="evenodd" clip-rule="evenodd" d="M62.4498 418.086C52.2294 415.425 41.1908 414 22 414V410C41.4103 410 52.809 411.442 63.4576 414.215C69.5615 415.804 75.4841 417.857 82.5194 420.295C87.5541 422.04 93.1587 423.982 99.8074 426.094C108.333 428.801 115.918 432.18 123.401 435.689C124.859 436.373 126.312 437.06 127.766 437.749C133.802 440.607 139.871 443.48 146.507 446.144C162.889 452.721 182.689 458 213 458V462C182.151 462 161.846 456.613 145.016 449.856C138.258 447.143 132.055 444.206 126.01 441.344C124.567 440.66 123.133 439.981 121.703 439.311C114.257 435.82 106.865 432.532 98.5967 429.906C91.6697 427.706 85.9979 425.738 80.9727 423.994C74.1093 421.612 68.452 419.648 62.4498 418.086Z" fill="#4B5C69"/>
<path fill-rule="evenodd" clip-rule="evenodd" d="M111.642 411.189C96.3543 405.434 80.4176 401 61.5 401V397C81.0824 397 97.5244 401.6 113.051 407.445C119.014 409.69 124.869 412.129 130.701 414.559C132.442 415.284 134.18 416.009 135.919 416.727C143.504 419.859 151.128 422.887 159.107 425.428C164.838 427.252 169.945 429.013 174.787 430.682C184.261 433.947 192.716 436.862 202.829 439.219C218.009 442.757 236.847 445 268 445V449C236.653 449 217.491 446.743 201.921 443.114C191.614 440.712 182.844 437.691 173.242 434.383C168.434 432.726 163.417 430.998 157.893 429.239C149.75 426.646 142.001 423.566 134.392 420.424C132.627 419.695 130.872 418.963 129.121 418.234C123.302 415.81 117.533 413.406 111.642 411.189Z" fill="#4B5C69"/>
<path fill-rule="evenodd" clip-rule="evenodd" d="M267.55 370.086C277.771 367.425 288.809 366 308 366V362C288.59 362 277.191 363.442 266.542 366.215C260.438 367.804 254.516 369.857 247.481 372.295C242.446 374.04 236.841 375.982 230.193 378.094C221.667 380.801 214.082 384.18 206.599 387.689C205.141 388.373 203.688 389.06 202.234 389.749C196.198 392.607 190.129 395.48 183.493 398.144C167.111 404.721 147.311 410 117 410V414C147.849 414 168.154 408.613 184.984 401.856C191.742 399.143 197.945 396.206 203.99 393.344C205.433 392.66 206.867 391.981 208.297 391.311C215.743 387.82 223.135 384.532 231.403 381.906C238.33 379.706 244.002 377.738 249.027 375.994C255.891 373.612 261.548 371.648 267.55 370.086Z" fill="#4B5C69"/>
<path fill-rule="evenodd" clip-rule="evenodd" d="M218.358 363.189C233.646 357.434 249.582 353 268.5 353V349C248.918 349 232.476 353.6 216.949 359.445C210.986 361.69 205.131 364.129 199.299 366.559C197.558 367.284 195.82 368.009 194.081 368.727C186.496 371.859 178.872 374.887 170.893 377.428C165.162 379.252 160.055 381.013 155.213 382.682C145.739 385.947 137.284 388.862 127.171 391.219C111.991 394.757 93.1532 397 62 397V401C93.3468 401 112.509 398.743 128.079 395.114C138.386 392.712 147.156 389.691 156.758 386.383C161.566 384.726 166.583 382.998 172.107 381.239C180.25 378.646 187.999 375.566 195.608 372.424C197.373 371.695 199.128 370.963 200.879 370.234C206.698 367.81 212.467 365.406 218.358 363.189Z" fill="#4B5C69"/>
<path d="M-715.555 217.256H242.654L240.034 227.738H-712.935L-715.555 217.256Z" fill="#D7DBDE"/>
<path d="M242.654 34.6986L-715.555 34.6985L-712.935 24.2167L240.034 24.2168L242.654 34.6986Z" fill="#D7DBDE"/>
<path fill-rule="evenodd" clip-rule="evenodd" d="M-715.555 191.051H244.401V209.395H-715.555V191.051ZM229.552 199.786C229.552 201.233 228.379 202.406 226.932 202.406C225.484 202.406 224.311 201.233 224.311 199.786C224.311 198.338 225.484 197.165 226.932 197.165C228.379 197.165 229.552 198.338 229.552 199.786ZM-707.694 202.406C-706.246 202.406 -705.073 201.233 -705.073 199.786C-705.073 198.338 -706.246 197.165 -707.694 197.165C-709.141 197.165 -710.314 198.338 -710.314 199.786C-710.314 201.233 -709.141 202.406 -707.694 202.406ZM239.16 199.786C239.16 201.233 237.987 202.406 236.54 202.406C235.093 202.406 233.919 201.233 233.919 199.786C233.919 198.338 235.093 197.165 236.54 197.165C237.987 197.165 239.16 198.338 239.16 199.786ZM-698.085 202.406C-696.638 202.406 -695.465 201.233 -695.465 199.786C-695.465 198.338 -696.638 197.165 -698.085 197.165C-699.533 197.165 -700.706 198.338 -700.706 199.786C-700.706 201.233 -699.533 202.406 -698.085 202.406Z" fill="#73808A"/>
<rect x="-715.555" y="205.027" width="959.956" height="4.36741" fill="#5F6E79"/>
<rect x="-715.555" y="186.684" width="959.956" height="7.86133" fill="#5F6E79"/>
<rect x="-6.28789" y="209.394" width="19.2166" height="7.86133" fill="#AFB7BC"/>
<rect x="-6.28789" y="213.761" width="19.2166" height="3.49393" fill="#D7DBDE"/>
<rect width="8.73482" height="2.62044" transform="matrix(1 0 0 -1 -1.047 209.394)" fill="#394A58"/>
<rect x="42.627" y="209.394" width="19.2166" height="7.86133" fill="#AFB7BC"/>
<rect x="42.627" y="213.761" width="19.2166" height="3.49393" fill="#D7DBDE"/>
<rect width="8.73482" height="2.62044" transform="matrix(1 0 0 -1 47.8679 209.394)" fill="#394A58"/>
<rect x="91.542" y="209.394" width="19.2166" height="7.86133" fill="#AFB7BC"/>
<rect x="91.542" y="213.761" width="19.2166" height="3.49393" fill="#D7DBDE"/>
<rect width="8.73482" height="2.62044" transform="matrix(1 0 0 -1 96.7829 209.394)" fill="#394A58"/>
<rect x="140.457" y="209.394" width="19.2166" height="7.86133" fill="#AFB7BC"/>
<rect x="140.457" y="213.761" width="19.2166" height="3.49393" fill="#D7DBDE"/>
<rect width="8.73482" height="2.62044" transform="matrix(1 0 0 -1 145.698 209.394)" fill="#394A58"/>
<rect x="189.372" y="209.394" width="19.2166" height="7.86133" fill="#AFB7BC"/>
<rect x="189.372" y="213.761" width="19.2166" height="3.49393" fill="#D7DBDE"/>
<rect width="8.73482" height="2.62044" transform="matrix(1 0 0 -1 194.613 209.394)" fill="#394A58"/>
<rect x="213.456" y="189.804" width="26.0779" height="16.4696" fill="#EBEDEE" stroke="#4B5C69"/>
<rect x="215.576" y="191.924" width="0.873482" height="11.3553" fill="#394A58"/>
<rect x="219.944" y="191.924" width="0.873482" height="11.3553" fill="#394A58"/>
<rect x="225.185" y="191.924" width="0.873482" height="11.3553" fill="#394A58"/>
<rect x="226.932" y="191.924" width="0.873482" height="11.3553" fill="#394A58"/>
<rect x="228.679" y="191.924" width="0.873482" height="11.3553" fill="#394A58"/>
<rect x="230.426" y="191.924" width="0.873482" height="11.3553" fill="#394A58"/>
<rect x="235.667" y="191.924" width="0.873482" height="11.3553" fill="#394A58"/>
<rect x="232.173" y="191.924" width="2.62044" height="11.3553" fill="#394A58"/>
<rect x="221.691" y="191.924" width="2.62044" height="11.3553" fill="#394A58"/>
<rect x="217.323" y="191.924" width="1.74696" height="11.3553" fill="#394A58"/>
<rect x="215.576" y="204.153" width="20.9636" height="0.873482" rx="0.436741" fill="#AFB7BC"/>
<path fill-rule="evenodd" clip-rule="evenodd" d="M-715.555 155.238H244.401V173.581H-715.555V155.238ZM229.552 163.973C229.552 165.421 228.379 166.594 226.932 166.594C225.484 166.594 224.311 165.421 224.311 163.973C224.311 162.526 225.484 161.353 226.932 161.353C228.379 161.353 229.552 162.526 229.552 163.973ZM-707.694 166.594C-706.246 166.594 -705.073 165.421 -705.073 163.973C-705.073 162.526 -706.246 161.353 -707.694 161.353C-709.141 161.353 -710.314 162.526 -710.314 163.973C-710.314 165.421 -709.141 166.594 -707.694 166.594ZM239.16 163.973C239.16 165.421 237.987 166.594 236.54 166.594C235.093 166.594 233.92 165.421 233.92 163.973C233.92 162.526 235.093 161.353 236.54 161.353C237.987 161.353 239.16 162.526 239.16 163.973ZM-698.085 166.594C-696.638 166.594 -695.465 165.421 -695.465 163.973C-695.465 162.526 -696.638 161.353 -698.085 161.353C-699.533 161.353 -700.706 162.526 -700.706 163.973C-700.706 165.421 -699.533 166.594 -698.085 166.594Z" fill="#73808A"/>
<rect x="-715.555" y="169.214" width="959.956" height="4.36741" fill="#5F6E79"/>
<rect x="-715.555" y="150.871" width="959.956" height="7.86133" fill="#5F6E79"/>
<rect x="-6.2879" y="173.582" width="19.2166" height="7.86133" fill="#AFB7BC"/>
<rect x="-6.2879" y="177.949" width="19.2166" height="3.49393" fill="#D7DBDE"/>
<rect width="8.73482" height="2.62044" transform="matrix(1 0 0 -1 -1.04701 173.582)" fill="#394A58"/>
<rect x="42.6271" y="173.582" width="19.2166" height="7.86133" fill="#AFB7BC"/>
<rect x="42.6271" y="177.949" width="19.2166" height="3.49393" fill="#D7DBDE"/>
<rect width="8.73482" height="2.62044" transform="matrix(1 0 0 -1 47.868 173.582)" fill="#394A58"/>
<rect x="91.5421" y="173.582" width="19.2166" height="7.86133" fill="#AFB7BC"/>
<rect x="91.5421" y="177.949" width="19.2166" height="3.49393" fill="#D7DBDE"/>
<rect width="8.73482" height="2.62044" transform="matrix(1 0 0 -1 96.7829 173.582)" fill="#394A58"/>
<rect x="140.457" y="173.582" width="19.2166" height="7.86133" fill="#AFB7BC"/>
<rect x="140.457" y="177.949" width="19.2166" height="3.49393" fill="#D7DBDE"/>
<rect width="8.73482" height="2.62044" transform="matrix(1 0 0 -1 145.698 173.582)" fill="#394A58"/>
<rect x="189.372" y="173.582" width="19.2166" height="7.86133" fill="#AFB7BC"/>
<rect x="189.372" y="177.949" width="19.2166" height="3.49393" fill="#D7DBDE"/>
<rect width="8.73482" height="2.62044" transform="matrix(1 0 0 -1 194.613 173.582)" fill="#394A58"/>
<rect x="213.456" y="153.991" width="26.0779" height="16.4696" fill="#EBEDEE" stroke="#4B5C69"/>
<rect x="215.576" y="156.111" width="0.873482" height="11.3553" fill="#394A58"/>
<rect x="219.944" y="156.111" width="0.873482" height="11.3553" fill="#394A58"/>
<rect x="225.185" y="156.111" width="0.873482" height="11.3553" fill="#394A58"/>
<rect x="226.932" y="156.111" width="0.873482" height="11.3553" fill="#394A58"/>
<rect x="228.679" y="156.111" width="0.873482" height="11.3553" fill="#394A58"/>
<rect x="230.426" y="156.111" width="0.873482" height="11.3553" fill="#394A58"/>
<rect x="235.667" y="156.111" width="0.873482" height="11.3553" fill="#394A58"/>
<rect x="232.173" y="156.111" width="2.62044" height="11.3553" fill="#394A58"/>
<rect x="221.691" y="156.111" width="2.62044" height="11.3553" fill="#394A58"/>
<rect x="217.323" y="156.111" width="1.74696" height="11.3553" fill="#394A58"/>
<rect x="215.576" y="168.34" width="20.9636" height="0.873482" rx="0.436741" fill="#AFB7BC"/>
<path fill-rule="evenodd" clip-rule="evenodd" d="M-715.555 119.426H244.401V137.769H-715.555V119.426ZM229.552 128.161C229.552 129.609 228.379 130.782 226.932 130.782C225.484 130.782 224.311 129.609 224.311 128.161C224.311 126.714 225.484 125.541 226.932 125.541C228.379 125.541 229.552 126.714 229.552 128.161ZM-707.694 130.782C-706.246 130.782 -705.073 129.609 -705.073 128.161C-705.073 126.714 -706.246 125.541 -707.694 125.541C-709.141 125.541 -710.314 126.714 -710.314 128.161C-710.314 129.609 -709.141 130.782 -707.694 130.782ZM239.16 128.161C239.16 129.609 237.987 130.782 236.54 130.782C235.093 130.782 233.919 129.609 233.919 128.161C233.919 126.714 235.093 125.541 236.54 125.541C237.987 125.541 239.16 126.714 239.16 128.161ZM-698.085 130.782C-696.638 130.782 -695.465 129.609 -695.465 128.161C-695.465 126.714 -696.638 125.541 -698.085 125.541C-699.533 125.541 -700.706 126.714 -700.706 128.161C-700.706 129.609 -699.533 130.782 -698.085 130.782Z" fill="#73808A"/>
<rect x="-715.555" y="133.402" width="959.956" height="4.36741" fill="#5F6E79"/>
<rect x="-715.555" y="115.058" width="959.956" height="7.86133" fill="#5F6E79"/>
<rect x="-6.2879" y="137.769" width="19.2166" height="7.86133" fill="#AFB7BC"/>
<rect x="-6.2879" y="142.136" width="19.2166" height="3.49393" fill="#D7DBDE"/>
<rect width="8.73482" height="2.62044" transform="matrix(1 0 0 -1 -1.04701 137.769)" fill="#394A58"/>
<rect x="42.6271" y="137.769" width="19.2166" height="7.86133" fill="#AFB7BC"/>
<rect x="42.6271" y="142.136" width="19.2166" height="3.49393" fill="#D7DBDE"/>
<rect width="8.73482" height="2.62044" transform="matrix(1 0 0 -1 47.868 137.769)" fill="#394A58"/>
<rect x="91.5421" y="137.769" width="19.2166" height="7.86133" fill="#AFB7BC"/>
<rect x="91.5421" y="142.136" width="19.2166" height="3.49393" fill="#D7DBDE"/>
<rect width="8.73482" height="2.62044" transform="matrix(1 0 0 -1 96.7829 137.769)" fill="#394A58"/>
<rect x="140.457" y="137.769" width="19.2166" height="7.86133" fill="#AFB7BC"/>
<rect x="140.457" y="142.136" width="19.2166" height="3.49393" fill="#D7DBDE"/>
<rect width="8.73482" height="2.62044" transform="matrix(1 0 0 -1 145.698 137.769)" fill="#394A58"/>
<rect x="189.372" y="137.769" width="19.2166" height="7.86133" fill="#AFB7BC"/>
<rect x="189.372" y="142.136" width="19.2166" height="3.49393" fill="#D7DBDE"/>
<rect width="8.73482" height="2.62044" transform="matrix(1 0 0 -1 194.613 137.769)" fill="#394A58"/>
<rect x="213.456" y="118.18" width="26.0779" height="16.4696" fill="#EBEDEE" stroke="#4B5C69"/>
<rect x="215.576" y="120.3" width="0.873482" height="11.3553" fill="#394A58"/>
<rect x="219.944" y="120.3" width="0.873482" height="11.3553" fill="#394A58"/>
<rect x="225.185" y="120.3" width="0.873482" height="11.3553" fill="#394A58"/>
<rect x="226.932" y="120.3" width="0.873482" height="11.3553" fill="#394A58"/>
<rect x="228.679" y="120.3" width="0.873482" height="11.3553" fill="#394A58"/>
<rect x="230.426" y="120.3" width="0.873482" height="11.3553" fill="#394A58"/>
<rect x="235.667" y="120.3" width="0.873482" height="11.3553" fill="#394A58"/>
<rect x="232.173" y="120.3" width="2.62044" height="11.3553" fill="#394A58"/>
<rect x="221.691" y="120.3" width="2.62044" height="11.3553" fill="#394A58"/>
<rect x="217.323" y="120.3" width="1.74696" height="11.3553" fill="#394A58"/>
<rect x="215.576" y="132.529" width="20.9636" height="0.873482" rx="0.436741" fill="#AFB7BC"/>
<path fill-rule="evenodd" clip-rule="evenodd" d="M-715.555 83.613H244.401V101.956H-715.555V83.613ZM229.552 92.3482C229.552 93.7954 228.379 94.9687 226.932 94.9687C225.484 94.9687 224.311 93.7954 224.311 92.3482C224.311 90.901 225.484 89.7278 226.932 89.7278C228.379 89.7278 229.552 90.901 229.552 92.3482ZM-707.694 94.9687C-706.246 94.9687 -705.073 93.7954 -705.073 92.3482C-705.073 90.901 -706.246 89.7278 -707.694 89.7278C-709.141 89.7278 -710.314 90.901 -710.314 92.3482C-710.314 93.7954 -709.141 94.9687 -707.694 94.9687ZM239.16 92.3482C239.16 93.7954 237.987 94.9687 236.54 94.9687C235.093 94.9687 233.92 93.7954 233.92 92.3482C233.92 90.901 235.093 89.7278 236.54 89.7278C237.987 89.7278 239.16 90.901 239.16 92.3482ZM-698.085 94.9687C-696.638 94.9687 -695.465 93.7954 -695.465 92.3482C-695.465 90.901 -696.638 89.7278 -698.085 89.7278C-699.533 89.7278 -700.706 90.901 -700.706 92.3482C-700.706 93.7954 -699.533 94.9687 -698.085 94.9687Z" fill="#73808A"/>
<rect x="-715.555" y="97.5894" width="959.956" height="4.36741" fill="#5F6E79"/>
<rect x="-715.555" y="79.2461" width="959.956" height="7.86133" fill="#5F6E79"/>
<rect x="-6.2879" y="101.957" width="19.2166" height="7.86133" fill="#AFB7BC"/>
<rect x="-6.2879" y="106.324" width="19.2166" height="3.49393" fill="#D7DBDE"/>
<rect width="8.73482" height="2.62044" transform="matrix(1 0 0 -1 -1.04701 101.957)" fill="#394A58"/>
<rect x="42.627" y="101.957" width="19.2166" height="7.86133" fill="#AFB7BC"/>
<rect x="42.627" y="106.324" width="19.2166" height="3.49393" fill="#D7DBDE"/>
<rect width="8.73482" height="2.62044" transform="matrix(1 0 0 -1 47.8679 101.957)" fill="#394A58"/>
<rect x="91.5421" y="101.957" width="19.2166" height="7.86133" fill="#AFB7BC"/>
<rect x="91.5421" y="106.324" width="19.2166" height="3.49393" fill="#D7DBDE"/>
<rect width="8.73482" height="2.62044" transform="matrix(1 0 0 -1 96.783 101.957)" fill="#394A58"/>
<rect x="140.457" y="101.957" width="19.2166" height="7.86133" fill="#AFB7BC"/>
<rect x="140.457" y="106.324" width="19.2166" height="3.49393" fill="#D7DBDE"/>
<rect width="8.73482" height="2.62044" transform="matrix(1 0 0 -1 145.698 101.957)" fill="#394A58"/>
<rect x="189.372" y="101.957" width="19.2166" height="7.86133" fill="#AFB7BC"/>
<rect x="189.372" y="106.324" width="19.2166" height="3.49393" fill="#D7DBDE"/>
<rect width="8.73482" height="2.62044" transform="matrix(1 0 0 -1 194.613 101.957)" fill="#394A58"/>
<rect x="213.456" y="82.3665" width="26.0779" height="16.4696" fill="#EBEDEE" stroke="#4B5C69"/>
<rect x="215.576" y="84.4869" width="0.873482" height="11.3553" fill="#394A58"/>
<rect x="219.944" y="84.4869" width="0.873482" height="11.3553" fill="#394A58"/>
<rect x="225.185" y="84.4869" width="0.873482" height="11.3553" fill="#394A58"/>
<rect x="226.932" y="84.4869" width="0.873482" height="11.3553" fill="#394A58"/>
<rect x="228.679" y="84.4869" width="0.873482" height="11.3553" fill="#394A58"/>
<rect x="230.426" y="84.4869" width="0.873482" height="11.3553" fill="#394A58"/>
<rect x="235.667" y="84.4869" width="0.873482" height="11.3553" fill="#394A58"/>
<rect x="232.173" y="84.4869" width="2.62044" height="11.3553" fill="#394A58"/>
<rect x="221.691" y="84.4869" width="2.62044" height="11.3553" fill="#394A58"/>
<rect x="217.323" y="84.4869" width="1.74696" height="11.3553" fill="#394A58"/>
<rect x="215.576" y="96.7155" width="20.9636" height="0.873482" rx="0.436741" fill="#AFB7BC"/>
<path fill-rule="evenodd" clip-rule="evenodd" d="M-715.555 47.8016H244.401V66.1448H-715.555V47.8016ZM229.552 56.5368C229.552 57.984 228.379 59.1573 226.932 59.1573C225.484 59.1573 224.311 57.984 224.311 56.5368C224.311 55.0896 225.484 53.9164 226.932 53.9164C228.379 53.9164 229.552 55.0896 229.552 56.5368ZM-707.694 59.1573C-706.246 59.1573 -705.073 57.984 -705.073 56.5368C-705.073 55.0896 -706.246 53.9164 -707.694 53.9164C-709.141 53.9164 -710.314 55.0896 -710.314 56.5368C-710.314 57.984 -709.141 59.1573 -707.694 59.1573ZM239.16 56.5368C239.16 57.984 237.987 59.1573 236.54 59.1573C235.093 59.1573 233.92 57.984 233.92 56.5368C233.92 55.0896 235.093 53.9164 236.54 53.9164C237.987 53.9164 239.16 55.0896 239.16 56.5368ZM-698.085 59.1573C-696.638 59.1573 -695.465 57.984 -695.465 56.5368C-695.465 55.0896 -696.638 53.9164 -698.085 53.9164C-699.533 53.9164 -700.706 55.0896 -700.706 56.5368C-700.706 57.984 -699.533 59.1573 -698.085 59.1573Z" fill="#73808A"/>
<rect x="-715.555" y="61.777" width="959.956" height="4.36741" fill="#5F6E79"/>
<rect x="-715.555" y="43.4336" width="959.956" height="7.86133" fill="#5F6E79"/>
<rect x="-6.2879" y="66.1442" width="19.2166" height="7.86133" fill="#AFB7BC"/>
<rect x="-6.2879" y="70.5116" width="19.2166" height="3.49393" fill="#D7DBDE"/>
<rect width="8.73482" height="2.62044" transform="matrix(1 0 0 -1 -1.04701 66.1442)" fill="#394A58"/>
<rect x="42.6271" y="66.1442" width="19.2166" height="7.86133" fill="#AFB7BC"/>
<rect x="42.6271" y="70.5116" width="19.2166" height="3.49393" fill="#D7DBDE"/>
<rect width="8.73482" height="2.62044" transform="matrix(1 0 0 -1 47.868 66.1442)" fill="#394A58"/>
<rect x="91.5421" y="66.1442" width="19.2166" height="7.86133" fill="#AFB7BC"/>
<rect x="91.5421" y="70.5116" width="19.2166" height="3.49393" fill="#D7DBDE"/>
<rect width="8.73482" height="2.62044" transform="matrix(1 0 0 -1 96.7829 66.1442)" fill="#394A58"/>
<rect x="140.457" y="66.1442" width="19.2166" height="7.86133" fill="#AFB7BC"/>
<rect x="140.457" y="70.5116" width="19.2166" height="3.49393" fill="#D7DBDE"/>
<rect width="8.73482" height="2.62044" transform="matrix(1 0 0 -1 145.698 66.1442)" fill="#394A58"/>
<rect x="189.372" y="66.1442" width="19.2166" height="7.86133" fill="#AFB7BC"/>
<rect x="189.372" y="70.5116" width="19.2166" height="3.49393" fill="#D7DBDE"/>
<rect width="8.73482" height="2.62044" transform="matrix(1 0 0 -1 194.613 66.1442)" fill="#394A58"/>
<rect x="213.456" y="46.5543" width="26.0779" height="16.4696" fill="#EBEDEE" stroke="#4B5C69"/>
<rect x="215.576" y="48.6747" width="0.873482" height="11.3553" fill="#394A58"/>
<rect x="219.944" y="48.6747" width="0.873482" height="11.3553" fill="#394A58"/>
<rect x="225.185" y="48.6747" width="0.873482" height="11.3553" fill="#394A58"/>
<rect x="226.932" y="48.6747" width="0.873482" height="11.3553" fill="#394A58"/>
<rect x="228.679" y="48.6747" width="0.873482" height="11.3553" fill="#394A58"/>
<rect x="230.426" y="48.6747" width="0.873482" height="11.3553" fill="#394A58"/>
<rect x="235.666" y="48.6747" width="0.873482" height="11.3553" fill="#394A58"/>
<rect x="232.173" y="48.6747" width="2.62044" height="11.3553" fill="#394A58"/>
<rect x="221.691" y="48.6747" width="2.62044" height="11.3553" fill="#394A58"/>
<rect x="217.323" y="48.6747" width="1.74696" height="11.3553" fill="#394A58"/>
<rect x="215.576" y="60.9032" width="20.9636" height="0.873482" rx="0.436741" fill="#AFB7BC"/>
<path d="M-681.489 5.87305H208.589L217.323 24.2162H-690.224L-681.489 5.87305Z" fill="#D7DBDE"/>
<circle cx="45.8578" cy="45.8578" r="45.8578" transform="matrix(-1 0 0 1 67.9581 272.283)" fill="#4B5C69"/>
<circle cx="45.8578" cy="45.8578" r="45.8578" transform="matrix(-1 0 0 1 249.642 272.283)" fill="#4B5C69"/>
<circle cx="35.376" cy="35.376" r="35.376" transform="matrix(-1 0 0 1 57.4763 282.765)" fill="#394A58"/>
<circle cx="35.376" cy="35.376" r="35.376" transform="matrix(-1 0 0 1 239.16 282.765)" fill="#394A58"/>
<path d="M113.818 352.219L113.381 352.207C88.9236 352.207 82.8086 352.207 74.5105 344.346C66.2124 336.485 50.9265 327.313 41.7549 327.313H9.43612C0.26456 327.313 1.05883 324.08 -0.171842 317.705C-4.97765 292.811 3.32208 289.317 14.6773 286.696C26.0326 284.076 81.062 280.582 113.381 280.582C145.7 280.582 193.741 284.513 215.141 286.696C236.542 288.88 227.37 309.407 225.623 317.705C223.876 326.003 220.382 327.313 215.141 327.313C209.9 327.313 198.109 328.187 183.696 327.313C169.284 326.44 162.732 335.611 152.687 344.346C142.733 353.002 129.776 352.651 113.818 352.219Z" fill="#4B5C69"/>
<rect x="79.3133" y="307.223" width="68.1316" height="30.5719" rx="7" fill="#394A58"/>
<path d="M-728.22 216.382H-734.772V280.583H-461.809C-449.143 280.583 -388.436 305.04 -372.277 305.04H-97.5667C-79.2236 305.04 -17.2064 280.583 -5.4144 280.583H260.124V216.819H254.446L248.332 239.529H-722.543L-728.22 216.382Z" fill="#87929B"/>
<path d="M247.022 292.811C250.516 297.004 251.972 307.952 252.263 312.902H260.124V300.236H265.802L270.606 312.902H290.259C293.154 312.902 295.5 310.555 295.5 307.661V280.583C295.5 277.688 293.154 275.342 290.259 275.342H270.606L265.802 287.571H260.124V280.146H234.356C237.122 282.621 243.528 288.619 247.022 292.811Z" fill="#394A58"/>
<rect x="183.258" y="236.472" width="59.3968" height="6.98785" fill="#87929B"/>
<path d="M169.282 230.795V239.967H198.107V230.795L193.739 217.256V201.533H191.556V5H177.143V201.533H174.96V217.256L169.282 230.795Z" fill="#394A58"/>
</g>
</svg>
