<svg width="372" height="440" viewBox="0 0 372 440" fill="none" xmlns="http://www.w3.org/2000/svg">
<mask id="mask0_161_45725" style="mask-type:alpha" maskUnits="userSpaceOnUse" x="0" y="0" width="372" height="440">
<rect width="372" height="440" fill="#EBEDEE"/>
</mask>
<g mask="url(#mask0_161_45725)">
<rect width="372" height="440" fill="#D7DBDE"/>
<rect x="-159" y="20" width="400" height="234" fill="#394A58"/>
<rect x="-150" y="25" width="386" height="224" fill="#9BA4AB"/>
<mask id="mask1_161_45725" style="mask-type:alpha" maskUnits="userSpaceOnUse" x="-150" y="25" width="386" height="224">
<rect x="-150" y="25" width="386" height="224" fill="#9BA4AB"/>
</mask>
<g mask="url(#mask1_161_45725)">
<path d="M155 174.5L158.5 160.5L176.5 163L166 194V199.5L143.5 276L122.5 269L143.5 207L149 189L155 174.5Z" fill="#5F6E79"/>
<path d="M108.5 171L-10 142.5L-16 140L-5.5 134.5L113 163L108.5 171Z" fill="#394A58"/>
<path d="M-84 197.5L147.5 280L168.5 290L160.5 315L137.5 310L39.5 272.5L-100 216L-139.5 195L-120.5 179.5L-84 197.5Z" fill="#AFB7BC"/>
<path d="M97 294L40.5 273L54.5 248L109.5 266.5L97 294Z" fill="#4B5C69"/>
<path d="M191.5 166L-36 116L-24.5 109L194.5 154L191.5 166Z" fill="#AFB7BC"/>
<path d="M173.5 242L-94 160.5L-75.5 145L181 218L173.5 242Z" fill="#AFB7BC"/>
<path d="M198.5 138.5L-6.5 100L4.5 94.5L203.5 128L198.5 138.5Z" fill="#AFB7BC"/>
<path d="M205 113L14.5 84L24.5 78.5L208 105.5L205 113Z" fill="#AFB7BC"/>
<path d="M211.5 94L33.5 71L42.5 66L214.5 86.5L211.5 94Z" fill="#AFB7BC"/>
<path d="M212.5 77.5L51 60.5L57.5 56L215.5 71.5L212.5 77.5Z" fill="#AFB7BC"/>
<path d="M215 64L64 49L69.5 44.5L219.5 58.5L215 64Z" fill="#AFB7BC"/>
<path d="M219 52.5L75.5 39.5L79 35.5L220.5 47.5L219 52.5Z" fill="#AFB7BC"/>
<path d="M222.5 40L85 32.5L91 29L224.5 35.5L222.5 40Z" fill="#AFB7BC"/>
<path d="M225 28.5L93.5 26.5L98 22L225 24.5V28.5Z" fill="#AFB7BC"/>
<path d="M23 130L0.5 125L9 117L32 121L23 130Z" fill="#4B5C69"/>
<path d="M44 109.5L19.5 105.5L27 98.5L50.5 102L44 109.5Z" fill="#4B5C69"/>
<path d="M62.9194 92L40 88.3636L47.0161 82L69 85.1818L62.9194 92Z" fill="#4B5C69"/>
<path d="M78.5 75.5L55 73L62.0161 67L84 70.1818L78.5 75.5Z" fill="#4B5C69"/>
<path d="M92.5 65.5L69 63L74.5 57.5L98 60.1818L92.5 65.5Z" fill="#4B5C69"/>
<path d="M103.5 53L80 50.5L85.5 45L109 47.6818L103.5 53Z" fill="#4B5C69"/>
<path d="M112.879 43L91 40.8125L96.1207 36L118 38.3466L112.879 43Z" fill="#4B5C69"/>
<path d="M119.879 36L98 33.8125L103.121 29L125 31.3466L119.879 36Z" fill="#4B5C69"/>
<path d="M127.879 28L106 25.8125L111.121 21L133 23.3466L127.879 28Z" fill="#4B5C69"/>
<path d="M156 158L103.5 147.5L109 138.5L161 147.5L156 158Z" fill="#4B5C69"/>
<path d="M163 131L120 124L124 115L166.5 121.5L163 131Z" fill="#4B5C69"/>
<path d="M171.5 107L133 102.5L137.5 95L175.5 98.5L171.5 107Z" fill="#4B5C69"/>
<path d="M180.235 90L144 85.5L148.235 78L184 81.5L180.235 90Z" fill="#4B5C69"/>
<path d="M186 74L153 70.5L156 65.5L188 68L186 74Z" fill="#4B5C69"/>
<path d="M191 61.5L161 58.5L163 53.5L193 55.5L191 61.5Z" fill="#4B5C69"/>
<path d="M196 49.5L167.5 48L170.5 44.5L197 45L196 49.5Z" fill="#4B5C69"/>
<path d="M199.5 39L172.5 38L175.5 34.5H200.5L199.5 39Z" fill="#4B5C69"/>
<path d="M205 27.5L178 26.5L181 23H206L205 27.5Z" fill="#4B5C69"/>
<path d="M126 227.5L-55.5 172L-37 157L135 204.5L126 227.5Z" fill="#4B5C69"/>
<path d="M-120 209V198L106 20H122L-120 209Z" fill="#5F6E79"/>
<path d="M60 297H44L189 23H201L60 297Z" fill="#5F6E79"/>
<path d="M129 19L-125 231V211L123 19H129Z" fill="#394A58"/>
<path d="M195 33L75 294L58.5 298L195 33Z" fill="#394A58"/>
</g>
<path d="M108.5 242C106.1 241.6 103.833 236.5 103 234L104.5 231.5C105.5 234.333 108.2 239.9 111 239.5C113.8 239.1 115.833 235.667 116.5 234L119 235C118.5 235.833 117.3 237.8 116.5 239C115.5 240.5 111.5 242.5 108.5 242Z" fill="#73808A"/>
<path d="M68.5253 215.125L83.5253 225.125C90.5254 225.125 94.5253 217.625 94.0253 216.125C93.5253 214.625 87.5253 210.625 85.0253 208.625C82.5253 206.625 73.5253 201.125 73.0253 199.625C72.5253 198.125 78.0253 198.625 78.0253 196.125C78.0253 193.625 69.5253 193.625 63.5253 194.625C57.5253 195.625 50.5253 203.125 51.0253 209.625C51.5253 216.125 51.5253 222.125 55.5253 222.625C59.5253 223.125 59.0253 219.625 60.0253 216.125C61.0253 212.625 67.0253 214.125 68.5253 215.125Z" fill="#394A58"/>
<path d="M94 233.5C92.8 233.1 86.1667 228.667 83 226.5C84.8333 226 88.9 225 90.5 225C92.1 225 101.167 227 105.5 228C105.167 229.333 104.2 232.3 103 233.5C101.5 235 95.5 234 94 233.5Z" fill="#394A58"/>
<path d="M229.5 204C229.5 203 230.5 195.5 230.5 195.5C230.5 195.5 222.5 196.5 220.5 195.5C218.5 194.5 226.5 177 226.5 177C224.5 169.167 220.7 152.2 221.5 147C222.3 141.8 227.167 135.5 229.5 133L272 153.5L309 199L312.5 215.5L272 270.5L259.5 225.5C259.5 225.5 246.5 229 240 226.5C233.5 224 239 216.5 239 216.5C239 216.5 233.5 212.5 232.5 210.5C231.5 208.5 238.5 207 236.5 206C234.5 205 229.5 205 229.5 204Z" fill="white"/>
<path d="M224 135C226.8 136.2 225.167 141.834 224 144.5L233 164.5C241.333 162.5 258.9 158.5 262.5 158.5C267 158.5 273.5 162 280 170.5C286.5 179 291 190.5 296.5 199.5C300.9 206.7 316.667 200.833 324 197C324 197 335.5 159.501 332.5 144.5C329.5 129.5 298.6 113.4 287 109C272.5 103.5 251 111 237 114.5C225.8 117.3 219.667 125 216.5 129.5C218.833 130.167 221.2 133.8 224 135Z" fill="#5F6E79"/>
<path d="M215 190C211.276 190.324 205.349 190.774 201.346 190.065C201.122 190.026 200.919 189.907 200.784 189.722C198.348 186.372 195.809 175.785 195 168.5C193.667 156.5 195.5 149.5 198.5 144.5C200.771 140.715 214.268 140.81 221.784 141.396C222.414 141.446 222.828 142.066 222.625 142.666C220.88 147.813 218 153.416 218 165.5C218 174.219 221.65 183.219 223.539 188.247C223.774 188.873 223.331 189.537 222.664 189.574L215 190Z" fill="#5F6E79"/>
<path d="M263.33 157.926C265.699 163.562 267.619 176.018 260.344 183.192C243.806 194.717 236.711 176.203 240.814 163.388C244.918 150.572 260.961 152.29 263.33 157.926Z" fill="#394A58"/>
<path d="M355.043 440L360 406.769H333.726C327.381 406.769 311.915 404.923 304.974 404L302 440H355.043Z" fill="white"/>
<path d="M187.5 227.5L201.5 231C200.833 234.667 199.5 243.1 199.5 247.5C199.5 251.9 206.833 261.667 210.5 266L209 270.5C203.167 268.5 191.4 264.4 191 264C190.5 263.5 181.5 257.5 175 257.5C168.5 257.5 156.5 250 148 247.5C139.5 245 118 231 116.5 230C115 229 108.5 228 104.5 228.5C100.5 229 94 225 89 225.5C84 226 79 227 74.5 227.5C70 228 69.5 223 69.5 222C69.5 221 72.5 220 76 220C79.5 220 84 216.5 85.5 215C87 213.5 85 211 84 209C83 207 81 206.5 80 205.5C79.2 204.7 76 202.5 74.5 201.5C76.3333 201 80.4 200.1 82 200.5C84 201 94.5 204.5 102 207.5C109.5 210.5 111.5 212.5 122.5 213.5C131.3 214.3 169.5 223.167 187.5 227.5Z" fill="white"/>
<path d="M312.5 219L311.5 210C305.833 213 272 224.5 272 224.5C272 224.5 269 226 269 241.5L263 226.5C265 223.5 239.7 232.5 234.5 232.5C227 232.5 204.333 228.5 199 229.5C198 232 193.9 238.8 193.5 244C193 250.5 193.5 265.5 193.5 265.5C200.5 267.5 209 273.5 209 278C209 280.5 205 298 202.5 303C200 308 205 331 205 337C205 343 207 378.5 207.5 393C207.9 404.6 212.667 429.833 215 441H298.5V407C304.5 407.833 320.2 409.5 335 409.5H364V383.5C364 378 367.5 330.5 371.5 298C375.5 265.5 362.892 246.562 348.5 237.5C335 229 318.167 221.833 312.5 219Z" fill="#EBEDEE"/>
<path d="M327 267C324.2 267.4 318.167 269.5 315.5 270.5L304.5 247L315.5 267C317.667 266 322.8 263.9 326 263.5C329.2 263.1 336 265.667 339 267C336.167 266.833 329.8 266.6 327 267Z" fill="#C3C9CD"/>
<path d="M221.5 311L225 297L219 307.5H213.5L221.5 311Z" fill="#C3C9CD"/>
<path d="M222.5 141H231.5C233 141 233.65 147.049 231.5 153.5C228 164 233.5 175.5 233 182C232.6 187.2 230.167 188.833 229 189C226.833 189.5 223.25 189.937 222.5 189C220.5 186.5 216.5 180 217 165C217.213 158.604 217 148.5 222.5 141Z" fill="#394A58"/>
<path d="M313.5 150.5V167.5C299.5 159 289.5 152 268 150.5C230.5 152.5 225.5 180 217 174C208.5 168 213 159.5 219.5 150.5C226 141.5 254 132 270 133.5C282.8 134.7 302 140.5 313.5 150.5Z" fill="#4B5C69"/>
<path d="M258.987 169.738C258.987 172.738 253.987 175.738 249.487 175.738C242.987 175.738 245.987 159.738 247.487 150.238C248.987 140.738 257.487 138.738 263.487 137.238C269.487 135.738 274.487 141.738 267.487 143.738C260.487 145.738 258.987 166.738 258.987 169.738Z" fill="#AFB7BC"/>
<path d="M312.5 171.501C305.37 165.798 309.167 156.001 312.5 151.001C315.833 146 323.7 148.001 330.5 148.001C335.75 148.001 338.434 150.833 335 168C334 173 331.5 175 326 175.5C320.5 176 317.5 175.5 312.5 171.501Z" fill="#73808A"/>
<path d="M129.5 212.5C128.3 212.5 126.333 213.167 125.5 213.5C122.5 215.5 117.5 225 116.5 228.5C115.5 232 115.5 232.5 116.5 234C117.3 235.2 119.833 235.833 121 236C121.333 234.333 122.4 229.8 124 225C125.6 220.2 131 216.333 133.5 215C132.667 214.167 130.7 212.5 129.5 212.5Z" fill="#5F6E79"/>
<path d="M288.5 338.5C288.5 347.833 294 365.8 294 369C294 372.2 297.667 396.667 299 406.5C295.333 406.333 292 399.5 280.5 401C277.991 401.327 264 402.5 255 403.5C257.5 400.667 266.4 399.2 270 398C273.6 396.8 278 391.667 280.5 390C271.833 390.833 263.8 388.4 259 390C255.06 391.313 248.942 389.46 245.125 389.583C244.465 389.729 243.759 389.868 243 390C243.567 389.731 244.291 389.61 245.125 389.583C254.465 387.524 254.533 384.247 263.5 383.5C273.1 382.7 278.833 380.167 280.5 379C273.167 378.5 267 376.5 262 376.5C255.881 376.5 245.833 373 239.5 375C249 367.5 266.9 370.6 272.5 369C278.1 367.4 281.987 367 282.5 357C282.833 350.5 283.7 336.5 284.5 332.5C285.3 328.5 287.5 321.833 288.5 319V338.5Z" fill="#C3C9CD"/>
<path d="M267 350C267.333 342.833 268 328.1 268 326.5C268 324.917 273.545 304.938 276.407 294.828C272.938 301.385 265.7 314.7 264.5 315.5C263.3 316.3 245 316.833 236 317C238 317.5 242.2 318.5 243 318.5H264.5V325.5L263.5 348L229.5 346.5C232.5 347.167 238.7 348.6 239.5 349C240.3 349.4 258.167 349.833 267 350Z" fill="#C3C9CD"/>
<path d="M248.5 311.5C251.7 311.9 253.167 309 253.5 307.5C251.403 307.126 247.467 307.402 248.5 311.5Z" fill="#C3C9CD"/>
<path d="M295.5 230C296.3 228.8 302.667 225.167 311.5 219L283.5 245L273 237L270.5 242L258 237L262.5 227.5L269 239.5L270.5 227.5L278 239.5C283.5 236.833 294.7 231.2 295.5 230Z" fill="#C3C9CD"/>
<path d="M338.581 332.998V333.408H342.148C342.386 333.408 342.744 333.408 342.977 333.642C343.214 333.877 343.214 334.226 343.214 334.466V337.985C343.214 338.22 343.214 338.574 342.977 338.804C342.739 339.039 342.381 339.039 342.148 339.039H340.425C340.127 339.039 339.743 339.039 339.591 338.714C339.445 338.395 339.652 338.1 339.829 337.866L342.148 334.815H338.581L337.156 336.692C336.918 337.007 336.711 337.281 336.711 337.631C336.711 337.985 336.903 338.24 337.156 338.569L337.514 339.039C337.868 339.508 338.227 339.977 338.702 340.212C339.177 340.446 339.743 340.446 340.516 340.446H342.062C342.952 340.446 344.291 340.446 345.18 339.568C346.069 338.684 346.069 337.396 346.069 336.927V335.519C346.069 335.05 346.069 333.757 345.18 332.879C344.291 332 342.952 332 342.062 332H339.596C339.359 332 339.061 332 338.823 332.235C338.581 332.469 338.581 332.764 338.581 332.998Z" fill="#E21A1A"/>
<path d="M334.306 334.821H337.868L333.593 340.452H330.026L334.306 334.821Z" fill="#E21A1A"/>
<path d="M320.4 335.814C320.4 335.579 320.4 335.285 320.637 335.05C320.875 334.816 321.173 334.816 321.41 334.816H327.383C328.156 334.816 328.722 334.816 329.197 335.05C329.672 335.285 330.031 335.754 330.39 336.223L330.744 336.693C330.996 337.027 331.188 337.282 331.188 337.631C331.188 337.986 330.981 338.255 330.744 338.57L329.319 340.447H325.751L328.07 337.392C328.247 337.157 328.46 336.862 328.308 336.538C328.156 336.213 327.772 336.213 327.474 336.213H324.685V343.257H321.835V336.223H320.41V335.814" fill="#E21A1A"/>
<path d="M352.5 337.5C352.5 341.017 350.441 344.255 347.004 346.635C343.569 349.013 338.796 350.5 333.5 350.5C328.204 350.5 323.431 349.013 319.996 346.635C316.559 344.255 314.5 341.017 314.5 337.5C314.5 333.983 316.559 330.745 319.996 328.365C323.431 325.987 328.204 324.5 333.5 324.5C338.796 324.5 343.569 325.987 347.004 328.365C350.441 330.745 352.5 333.983 352.5 337.5Z" stroke="#E21A1A"/>
<path fill-rule="evenodd" clip-rule="evenodd" d="M329.5 395C321.055 395 303.586 392.66 296.914 391.493L297.086 390.508C303.747 391.674 321.145 394 329.5 394C337.906 394 355.804 393.666 363.929 392.505L364.071 393.495C355.863 394.668 337.894 395 329.5 395Z" fill="#C3C9CD"/>
<path d="M338.884 414.29C335.348 411.581 314.821 408.968 305 408L360 409.452L357.545 423C352.798 421.226 342.42 417 338.884 414.29Z" fill="#AFB7BC"/>
<path d="M241 295C243 288.6 261.167 256.167 270.5 241.5H267C265 246.5 260.7 253.5 259.5 255.5C258 258 243 285 241 291.5C239.4 296.7 235.333 311.833 234.5 318C235.833 313 239 301.4 241 295Z" fill="#C3C9CD"/>
</g>
</svg>
