<svg width="372" height="440" viewBox="0 0 372 440" fill="none" xmlns="http://www.w3.org/2000/svg">
<mask id="mask0_161_46497" style="mask-type:alpha" maskUnits="userSpaceOnUse" x="0" y="0" width="372" height="440">
<rect width="372" height="440" fill="#EBEDEE"/>
</mask>
<g mask="url(#mask0_161_46497)">
<rect y="153" width="372" height="287" fill="#5F6E79"/>
<rect width="372" height="153" transform="matrix(1 0 0 -1 0 153)" fill="#EBEDEE"/>
<rect y="210" width="372" height="5" fill="#4B5C69"/>
<rect y="271" width="372" height="5" fill="#4B5C69"/>
<rect y="331" width="372" height="5" fill="#4B5C69"/>
<rect y="391" width="372" height="5" fill="#4B5C69"/>
<rect y="193" width="372" height="5" fill="#4B5C69"/>
<rect y="253" width="372" height="5" fill="#4B5C69"/>
<rect y="313" width="372" height="5" fill="#4B5C69"/>
<rect y="375" width="372" height="5" fill="#4B5C69"/>
<circle cx="200.154" cy="201.147" r="14.2444" fill="#4B5C69"/>
<circle cx="143.72" cy="201.147" r="14.2444" fill="#4B5C69"/>
<circle cx="200.154" cy="201.147" r="10.9885" fill="#394A58"/>
<circle cx="143.719" cy="201.147" r="10.9885" fill="#394A58"/>
<path d="M171.665 211.732L171.801 211.728C179.398 211.728 181.297 211.728 183.875 209.287C186.452 206.845 191.2 203.996 194.049 203.996H204.088C206.937 203.996 206.69 202.991 207.073 201.011C208.565 193.279 205.987 192.193 202.46 191.379C198.933 190.565 181.84 189.48 171.801 189.48C161.762 189.48 146.839 190.701 140.192 191.379C133.544 192.058 136.393 198.434 136.936 201.011C137.479 203.589 138.564 203.996 140.192 203.996C141.82 203.996 145.483 204.267 149.959 203.996C154.436 203.724 156.471 206.573 159.591 209.287C162.683 211.975 166.708 211.866 171.665 211.732Z" fill="#4B5C69"/>
<rect width="21.1631" height="9.49626" rx="4.74813" transform="matrix(-1 0 0 1 182.383 197.756)" fill="#394A58"/>
<path d="M215.892 169.539H217.927V189.481H133.139C129.205 189.481 110.348 197.078 105.328 197.078H19.9977C14.3 197.078 -4.96388 189.481 -8.62674 189.481H-91.1086V169.674H-89.345L-87.4457 176.729H214.128L215.892 169.539Z" fill="#87929B"/>
<path d="M213.721 193.281C214.807 194.583 215.259 197.983 215.349 199.521H217.791V195.587H219.555L221.047 199.521H227.152C228.051 199.521 228.78 198.792 228.78 197.893V189.482C228.78 188.583 228.051 187.854 227.152 187.854H221.047L219.555 191.653H217.791V189.346H209.787C210.646 190.115 212.636 191.978 213.721 193.281Z" fill="#394A58"/>
<path d="M-69.4029 90.0426H200.291C211.958 90.0426 220.098 113.648 220.098 135.082C220.098 156.516 209.245 176.594 200.291 176.594H-69.4029C-75.9146 176.594 -88.6667 164.656 -88.6667 135.082C-88.6667 113.105 -79.7131 90.0426 -69.4029 90.0426Z" fill="#D7DBDE"/>
<path d="M182.927 167.641L185.369 176.594H160.136L162.307 167.641H170.175V89.7712H176.687V167.641H182.927Z" fill="#87929B"/>
<rect width="27.9461" height="4.61247" transform="matrix(-1 0 0 1 79.2815 81.0888)" fill="#D7DBDE"/>
<rect width="18.7212" height="4.61247" transform="matrix(-1 0 0 1 74.6689 85.4301)" fill="#AFB7BC"/>
<path d="M87.6924 86.7866C87.6924 86.1873 87.2065 85.7014 86.6071 85.7014L-nan -nanL86.6071 85.7014C86.0077 85.7014 85.5218 86.1873 85.5218 86.7866V176.594H87.6924V86.7866Z" fill="#87929B"/>
<path d="M106.142 86.7866C106.142 86.1873 105.656 85.7014 105.057 85.7014L-nan -nanL105.057 85.7014C104.458 85.7014 103.972 86.1873 103.972 86.7866V176.594H106.142V86.7866Z" fill="#87929B"/>
<rect width="18.4499" height="2.17057" transform="matrix(-1 0 0 1 105.057 163.841)" fill="#87929B"/>
<rect width="18.4499" height="2.17057" transform="matrix(-1 0 0 1 105.057 150.005)" fill="#87929B"/>
<rect width="18.4499" height="2.17057" transform="matrix(-1 0 0 1 105.057 136.167)" fill="#87929B"/>
<rect width="18.4499" height="2.17057" transform="matrix(-1 0 0 1 105.057 122.331)" fill="#87929B"/>
<rect width="18.4499" height="2.17057" transform="matrix(-1 0 0 1 105.057 108.493)" fill="#87929B"/>
<rect width="18.4499" height="2.17057" transform="matrix(-1 0 0 1 105.057 94.6552)" fill="#87929B"/>
<path d="M251.483 273.817H262.156V251.845L266.55 242.428H292.917V236.778H66.9167L65.0334 254.983V271.933H70.0556V266.911V258.75L76.9612 251.845V264.4C76.9612 267.916 80.7278 268.795 82.6112 268.795L94.5389 273.817H117.767C120.278 273.817 122.161 270.469 122.789 268.795H131.578C133.461 268.795 136.6 273.817 138.483 273.817H177.406C180.921 273.817 182.219 270.469 182.428 268.795H189.961C190.38 270.469 191.593 273.817 193.1 273.817H223.233H234.533C236.542 273.817 238.719 270.469 239.556 268.795H247.089C247.717 270.469 249.474 273.817 251.483 273.817Z" fill="#394A58"/>
<circle cx="273.456" cy="261.261" r="16.95" fill="#4B5C69"/>
<circle cx="156.689" cy="261.261" r="16.95" fill="#4B5C69"/>
<circle cx="215.7" cy="261.261" r="16.95" fill="#4B5C69"/>
<circle cx="98.9334" cy="261.261" r="16.95" fill="#4B5C69"/>
<circle cx="273.456" cy="261.261" r="13.1833" fill="#394A58"/>
<circle cx="156.689" cy="261.261" r="13.1833" fill="#394A58"/>
<circle cx="215.7" cy="261.261" r="13.1833" fill="#394A58"/>
<circle cx="98.9334" cy="261.261" r="13.1833" fill="#394A58"/>
<path d="M247.089 258.75H117.767L146.017 243.683H218.839L247.089 258.75Z" fill="#5F6E79"/>
<rect x="292.917" y="236.778" width="87.8889" height="32.6444" fill="#87929B"/>
<rect x="66.9167" y="229.245" width="536.122" height="7.53333" fill="#E3AB33"/>
<path d="M66.9167 229.245H603.039V149.285H578.556L577.3 146.378H528.961L528.333 149.285L464.928 150.772L464.457 133.479C464.457 133.479 460.533 131.311 455.511 131.311C450.489 131.311 446.408 133.479 446.408 133.479L445.467 150.772H173.639V146.378H112.117V165.211H66.9167V229.245Z" fill="#73808A"/>
<path d="M66.9167 229.245H207.392C210.636 229.245 213.68 227.678 215.566 225.038L222.488 215.347C224.138 213.038 226.801 211.667 229.64 211.667H448.728C451.425 211.667 453.973 212.905 455.639 215.026L463.795 225.406C465.699 227.829 468.611 229.245 471.693 229.245H603.039V221.711H477.041C473.341 221.711 469.829 220.079 467.443 217.25L431.023 174.067C428.638 171.238 425.126 169.606 421.426 169.606H258.894C255.372 169.606 252.012 171.085 249.634 173.682L209.388 217.635C207.01 220.232 203.65 221.711 200.128 221.711H66.9167V229.245Z" fill="#D7DBDE"/>
<path d="M66.9167 171.489H107.643C109.708 171.489 111.705 170.701 113.104 169.183C113.156 169.126 113.209 169.069 113.262 169.011C115.005 167.104 117.417 165.839 120 165.839H171.128C180.544 165.839 269.989 164.583 272.828 164.583C381.119 164.583 489.411 164.583 597.703 164.583C598.223 164.583 598.645 164.162 598.645 163.642C598.645 163.122 599.066 162.7 599.586 162.7H603.039V221.711H477.041C473.341 221.711 469.829 220.079 467.443 217.25L431.023 174.067C428.638 171.238 425.126 169.606 421.426 169.606H258.894C255.372 169.606 252.012 171.085 249.634 173.682L209.388 217.635C207.01 220.232 203.65 221.711 200.128 221.711H66.9167V171.489Z" fill="#E21A1A"/>
<path d="M338.166 182.28V183.101H345.32C345.796 183.101 346.516 183.101 346.982 183.571C347.458 184.042 347.458 184.743 347.458 185.223V192.281C347.458 192.751 347.458 193.462 346.982 193.923C346.506 194.393 345.786 194.393 345.32 194.393H341.864C341.267 194.393 340.496 194.393 340.192 193.742C339.899 193.102 340.314 192.511 340.669 192.041L345.32 185.924H338.166L335.308 189.688C334.832 190.319 334.416 190.869 334.416 191.57C334.416 192.281 334.801 192.791 335.308 193.452L336.028 194.393C336.737 195.334 337.456 196.275 338.409 196.746C339.361 197.216 340.496 197.216 342.047 197.216H345.148C346.931 197.216 349.617 197.216 351.4 195.454C353.184 193.682 353.184 191.1 353.184 190.159V187.336C353.184 186.394 353.184 183.802 351.4 182.04C349.617 180.278 346.931 180.278 345.148 180.278H340.203C339.726 180.278 339.128 180.278 338.652 180.748C338.166 181.219 338.166 181.809 338.166 182.28Z" fill="#E21A1A"/>
<path d="M329.593 185.935H336.737L328.164 197.227H321.01L329.593 185.935Z" fill="#E21A1A"/>
<path d="M301.706 187.927C301.706 187.456 301.706 186.866 302.182 186.395C302.658 185.925 303.256 185.925 303.732 185.925H315.71C317.26 185.925 318.395 185.925 319.348 186.395C320.301 186.866 321.02 187.807 321.739 188.748L322.449 189.689C322.955 190.36 323.341 190.87 323.341 191.571C323.341 192.282 322.925 192.822 322.449 193.453L319.591 197.217H312.437L317.088 191.09C317.443 190.62 317.868 190.029 317.564 189.378C317.26 188.728 316.49 188.728 315.892 188.728H310.299V202.853H304.583V188.748H301.726V187.927" fill="#E21A1A"/>
<path d="M117.139 171.489C117.139 170.102 118.263 168.978 119.65 168.978H162.339C163.726 168.978 164.85 170.102 164.85 171.489V186.556C164.85 187.942 163.726 189.067 162.339 189.067H119.65C118.263 189.067 117.139 187.942 117.139 186.556V171.489Z" fill="#87929B"/>
<path fill-rule="evenodd" clip-rule="evenodd" d="M162.339 170.233H119.65C118.957 170.233 118.394 170.796 118.394 171.489V186.556C118.394 187.249 118.957 187.811 119.65 187.811H162.339C163.032 187.811 163.594 187.249 163.594 186.556V171.489C163.594 170.796 163.032 170.233 162.339 170.233ZM119.65 168.978C118.263 168.978 117.139 170.102 117.139 171.489V186.556C117.139 187.942 118.263 189.067 119.65 189.067H162.339C163.726 189.067 164.85 187.942 164.85 186.556V171.489C164.85 170.102 163.726 168.978 162.339 168.978H119.65Z" fill="#394A58"/>
<rect x="132.206" y="170.233" width="1.25556" height="18.8333" fill="#394A58"/>
<rect x="148.528" y="170.233" width="1.25556" height="18.8333" fill="#394A58"/>
<rect x="109.606" y="165.211" width="2.51111" height="65.2889" fill="#5F6E79"/>
<rect x="171.128" y="147.633" width="2.51111" height="81.6111" fill="#5F6E79"/>
<rect x="49.3389" y="268.167" width="17.5778" height="6.27778" fill="#394A58"/>
<rect x="49.3389" y="260.633" width="17.5778" height="6.27778" fill="#394A58"/>
<rect x="49.3389" y="253.1" width="17.5778" height="6.27778" fill="#394A58"/>
<rect x="49.3389" y="245.567" width="17.5778" height="6.27778" fill="#394A58"/>
<rect x="49.3389" y="238.033" width="17.5778" height="6.27778" fill="#394A58"/>
<rect x="49.3389" y="230.5" width="17.5778" height="6.27778" fill="#394A58"/>
<rect width="17.5778" height="1.25556" transform="matrix(1 0 0 -1 49.3389 268.167)" fill="#5F6E79"/>
<rect width="17.5778" height="1.25556" transform="matrix(1 0 0 -1 49.3389 260.633)" fill="#5F6E79"/>
<rect width="17.5778" height="1.25556" transform="matrix(1 0 0 -1 49.3389 253.1)" fill="#5F6E79"/>
<rect width="17.5778" height="1.25556" transform="matrix(1 0 0 -1 49.3389 245.567)" fill="#5F6E79"/>
<rect width="17.5778" height="1.25556" transform="matrix(1 0 0 -1 49.3389 238.033)" fill="#5F6E79"/>
<rect width="17.5778" height="1.25556" transform="matrix(1 0 0 -1 49.3389 230.5)" fill="#5F6E79"/>
<rect x="46.8278" y="202.878" width="2.51111" height="51.4778" fill="#E3AA33"/>
<rect x="325.561" y="201.622" width="1.25556" height="27.6222" fill="#E3AA33"/>
<rect x="274.083" y="201.622" width="1.25556" height="27.6222" fill="#E3AA33"/>
<rect x="222.606" y="201.622" width="1.25556" height="27.6222" fill="#E3AA33"/>
<rect x="171.128" y="201.622" width="1.25556" height="27.6222" fill="#E3AA33"/>
<rect x="605.55" y="201.622" width="1.25556" height="434.422" transform="rotate(90 605.55 201.622)" fill="#E3AA33"/>
<rect x="605.55" y="215.433" width="1.25556" height="434.422" transform="rotate(90 605.55 215.433)" fill="#E3AA33"/>
<rect x="64.4056" y="202.878" width="2.51111" height="51.4778" fill="#E3AA33"/>
<path d="M401.338 302.447V283.454H139.784V302.447L216.839 378.959H249.941L265.677 356.711H273.817L292.267 378.959H324.825L401.338 302.447Z" fill="#D7DBDE"/>
<path d="M401.338 302.447L318.314 355.084H300.135L270.968 334.735L247.838 355.084H222.537L139.784 302.447L216.839 378.96H251.297L267.034 356.712H275.174L293.623 378.96H324.825L401.338 302.447Z" fill="#C3C9CD"/>
<path d="M323.184 271.517H341.118C341.254 270.146 342.411 269.075 343.818 269.075H382.617C384.024 269.075 385.181 270.146 385.317 271.517H394.813C395.447 271.878 397.151 273.09 398.891 275.044C400.631 276.997 401.248 281.646 401.338 283.726H140.055C140.055 283.726 140.055 278.435 141.958 275.044C143.862 271.652 145.711 271.517 147.668 271.517H154.72C154.856 270.146 156.013 269.075 157.42 269.075H196.219C197.626 269.075 198.783 270.146 198.919 271.517H216.853C216.989 270.146 218.146 269.075 219.553 269.075H258.352C259.758 269.075 260.915 270.146 261.051 271.517H278.985C279.122 270.146 280.278 269.075 281.685 269.075H320.484C321.891 269.075 323.048 270.146 323.184 271.517Z" fill="#AFB7BC"/>
<path d="M396.725 353.998V356.44V357.254H381.667L360.639 342.602L365.116 338.261L387.365 353.998L389.128 348.571V314.927L394.826 309.23V348.571L396.725 353.998Z" fill="#394A58"/>
<path d="M144.124 353.998V356.44V357.254H159.183L180.21 342.602L175.733 338.261L153.485 353.998L151.721 348.571V314.927L146.024 309.23V348.571L144.124 353.998Z" fill="#394A58"/>
<circle cx="350.465" cy="381.265" r="14.2444" fill="#4B5C69"/>
<circle cx="350.465" cy="381.265" r="10.9885" fill="#394A58"/>
<path d="M378.411 391.849L378.547 391.845C386.144 391.845 388.043 391.845 390.621 389.404C393.198 386.962 397.946 384.113 400.795 384.113H410.834C413.683 384.113 413.436 383.108 413.819 381.128C415.311 373.396 412.733 372.31 409.206 371.496C405.679 370.682 388.586 369.597 378.547 369.597C368.508 369.597 353.585 370.818 346.938 371.496C340.29 372.175 343.139 378.551 343.682 381.128C344.225 383.706 345.31 384.113 346.938 384.113C348.566 384.113 352.229 384.384 356.705 384.113C361.182 383.841 363.217 386.69 366.337 389.404C369.429 392.092 373.454 391.983 378.411 391.849Z" fill="#4B5C69"/>
<rect width="21.1631" height="9.49626" rx="4.74813" transform="matrix(-1 0 0 1 389.129 377.873)" fill="#394A58"/>
<circle cx="189.571" cy="381.265" r="14.2444" fill="#4B5C69"/>
<circle cx="133.136" cy="381.265" r="14.2444" fill="#4B5C69"/>
<circle cx="189.571" cy="381.265" r="10.9885" fill="#394A58"/>
<circle cx="133.136" cy="381.265" r="10.9885" fill="#394A58"/>
<path d="M161.082 391.849L161.217 391.845C168.814 391.845 170.714 391.845 173.291 389.404C175.869 386.962 180.617 384.113 183.466 384.113H193.505C196.354 384.113 196.107 383.108 196.489 381.128C197.982 373.396 195.404 372.31 191.877 371.496C188.349 370.682 171.256 369.597 161.217 369.597C151.178 369.597 136.256 370.818 129.608 371.496C122.961 372.175 125.81 378.551 126.352 381.128C126.895 383.706 127.98 384.113 129.608 384.113C131.236 384.113 134.899 384.384 139.376 384.113C143.853 383.841 145.888 386.69 149.008 389.404C152.1 392.092 156.124 391.983 161.082 391.849Z" fill="#4B5C69"/>
<rect width="21.1631" height="9.49626" rx="4.74813" transform="matrix(-1 0 0 1 171.799 377.873)" fill="#394A58"/>
<path d="M422.637 349.656H424.672V369.598H339.884C335.95 369.598 317.093 377.195 312.074 377.195H226.743C221.045 377.195 201.781 369.598 198.118 369.598H115.637V349.792H117.4L119.299 356.846H420.874L422.637 349.656Z" fill="#87929B"/>
<path d="M119.706 373.397C118.621 374.699 118.168 378.099 118.078 379.637H115.636V375.703H113.872L112.38 379.637H106.275C105.376 379.637 104.647 378.908 104.647 378.009V369.598C104.647 368.699 105.376 367.97 106.275 367.97H112.38L113.872 371.769H115.636V369.462H123.64C122.781 370.231 120.791 372.094 119.706 373.397Z" fill="#394A58"/>
<path d="M122.148 278.842C122.148 278.243 121.662 277.757 121.062 277.757L-nan -nanL121.062 277.757C120.463 277.757 119.977 278.243 119.977 278.842V368.65H122.148V278.842Z" fill="#87929B"/>
<path d="M140.598 278.842C140.598 278.243 140.112 277.757 139.512 277.757L-nan -nanL139.512 277.757C138.913 277.757 138.427 278.243 138.427 278.842V368.65H140.598V278.842Z" fill="#87929B"/>
<rect width="18.4499" height="2.17057" transform="matrix(-1 0 0 1 139.512 355.897)" fill="#87929B"/>
<rect width="18.4499" height="2.17057" transform="matrix(-1 0 0 1 139.512 342.06)" fill="#87929B"/>
<rect width="18.4499" height="2.17057" transform="matrix(-1 0 0 1 139.512 328.223)" fill="#87929B"/>
<rect width="18.4499" height="2.17057" transform="matrix(-1 0 0 1 139.512 314.385)" fill="#87929B"/>
<rect width="18.4499" height="2.17057" transform="matrix(-1 0 0 1 139.512 300.549)" fill="#87929B"/>
<rect width="18.4499" height="2.17057" transform="matrix(-1 0 0 1 139.512 286.711)" fill="#87929B"/>
<path d="M336.492 354.135V356.984H327.539V354.135L328.895 349.93V345.046H329.573V283.998H334.05V345.046H334.729V349.93L336.492 354.135Z" fill="#394A58"/>
<path d="M276.258 354.135V356.984H267.305V354.135L268.661 349.93V345.046H269.34V283.998H273.816V345.046H274.495V349.93L276.258 354.135Z" fill="#394A58"/>
<path d="M216.025 354.135V356.984H207.072V354.135L208.428 349.93V345.046H209.107V283.998H213.584V345.046H214.262V349.93L216.025 354.135Z" fill="#394A58"/>
<path d="M102.943 286.489H-206.006V367.17H102.943V286.489Z" fill="#D7DBDE"/>
<path d="M102.913 286.311C102.913 281.516 99.0259 277.629 94.2308 277.629H-197.44C-202.235 277.629 -206.122 281.516 -206.122 286.311H102.913Z" fill="#AFB7BC"/>
<path fill-rule="evenodd" clip-rule="evenodd" d="M43.2228 297.978V359.568H45.3934V297.978C45.3934 296.779 44.4216 295.807 43.2228 295.807H-144.803C-146.002 295.807 -146.974 296.779 -146.974 297.978V360.925H-144.803V297.978L43.2228 297.978Z" fill="#AFB7BC"/>
<circle cx="85.1411" cy="381.411" r="14.2444" fill="#4B5C69"/>
<circle cx="28.7063" cy="381.411" r="14.2444" fill="#4B5C69"/>
<circle cx="85.1416" cy="381.411" r="10.9885" fill="#394A58"/>
<circle cx="28.7063" cy="381.411" r="10.9885" fill="#394A58"/>
<path d="M56.6523 391.997L56.7879 391.993C64.3848 391.993 66.2843 391.993 68.8619 389.552C71.4394 387.11 76.1876 384.261 79.0364 384.261H89.0753C91.9242 384.261 91.6775 383.257 92.0598 381.276C93.5526 373.544 90.9745 372.458 87.4473 371.644C83.9201 370.83 66.8268 369.745 56.7879 369.745C46.749 369.745 31.8263 370.966 25.179 371.644C18.5316 372.323 21.3805 378.699 21.9231 381.276C22.4657 383.854 23.551 384.261 25.179 384.261C26.8069 384.261 30.4697 384.532 34.9465 384.261C39.4233 383.989 41.4583 386.838 44.5785 389.552C47.6705 392.24 51.6951 392.131 56.6523 391.997Z" fill="#4B5C69"/>
<rect width="21.1631" height="9.49626" rx="4.74813" transform="matrix(-1 0 0 1 67.3694 378.02)" fill="#394A58"/>
<path d="M100.878 349.802H102.913V369.744H18.1249C14.1907 369.744 -4.66616 377.341 -9.68562 377.341H-95.0163C-100.714 377.341 -119.978 369.744 -123.641 369.744H-206.123V349.938H-204.359L-202.46 356.992H99.1144L100.878 349.802Z" fill="#87929B"/>
<path d="M98.7075 373.542C99.7928 374.845 100.245 378.245 100.335 379.783H102.777V375.849H104.541L106.033 379.783H112.138C113.037 379.783 113.766 379.054 113.766 378.155V369.744C113.766 368.845 113.037 368.116 112.138 368.116H106.033L104.541 371.914H102.777V369.608H94.7733C95.6325 370.377 97.6222 372.24 98.7075 373.542Z" fill="#394A58"/>
</g>
</svg>
