<svg width="993" height="426" viewBox="0 0 993 426" fill="none" xmlns="http://www.w3.org/2000/svg">
<path d="M370.1 198.8H281.5L387.8 57.0996H476.4L370.1 198.8Z" fill="#737A85"/>
<path d="M370.1 198.8H281.5L387.8 340.5H476.4L370.1 198.8Z" fill="#737A85"/>
<path d="M442.8 57.0996H421.5L315.2 198.8L421.5 340.5H442.8L336.5 198.8L442.8 57.0996Z" fill="#CACCC7"/>
<path d="M236.8 198.8H148.3L254.6 57.0996H343.2L236.8 198.8Z" fill="#737A85"/>
<path d="M236.8 198.8H148.3L254.6 340.5H343.2L236.8 198.8Z" fill="#737A85"/>
<path d="M309.5 57.0996H288.2L181.9 198.8L288.2 340.5H309.5L203.2 198.8L309.5 57.0996Z" fill="#CACCC7"/>
<path d="M263.8 57.0996H175.2L281.5 198.8L175.2 340.5H263.8L370.1 198.8L263.8 57.0996Z" fill="#FF1301"/>
<path d="M130.6 57.0996H42L148.3 198.8L42 340.5H130.6L236.9 198.8L130.6 57.0996Z" fill="#FF1301"/>
<path d="M538.1 86.4L544.1 81C550.3 75.5 553.7 71.9 553.7 67.4C553.7 63.5 551.2 61.4 547.1 61.4C544.1 61.4 541.3 62.6 539.3 63.8V58.9C542.6 57.4 545.6 57 547.9 57C554.1 57 558.9 60.2 558.9 66.6C558.9 73.4 553.6 78.6 545.8 85.1L544.4 86.3V86.4H559.4V90.8H538.2V86.4H538.1Z" fill="#1C2C3E"/>
<path d="M564.9 74.1996C564.9 62.1996 569.3 57.0996 577.1 57.0996C584.9 57.0996 589.3 62.1996 589.3 74.1996C589.3 86.1996 585 91.2996 577.1 91.2996C569.3 91.3996 564.9 86.1996 564.9 74.1996ZM584.2 74.1996C584.2 64.0996 581.3 61.3996 577.1 61.3996C572.9 61.3996 570 63.9996 570 74.1996C570 84.1996 572.8 86.9996 577.1 86.9996C581.5 86.9996 584.2 84.2996 584.2 74.1996Z" fill="#1C2C3E"/>
<path d="M596 74.1996C596 62.1996 600.4 57.0996 608.2 57.0996C616 57.0996 620.4 62.1996 620.4 74.1996C620.4 86.1996 616.1 91.2996 608.2 91.2996C600.3 91.3996 596 86.1996 596 74.1996ZM615.2 74.1996C615.2 64.0996 612.3 61.3996 608.1 61.3996C603.9 61.3996 601 63.9996 601 74.1996C601 84.1996 603.8 86.9996 608.1 86.9996C612.5 86.9996 615.2 84.2996 615.2 74.1996Z" fill="#1C2C3E"/>
<path d="M625.3 89.8V85.1C627.9 86.2 630.6 87 633.5 87C638.8 87 641.8 84.8 641.8 81.1C641.8 77 638.3 75.7 633.4 75.7H629.8V71.5H633.1C638.3 71.5 641.1 70 641.1 66.5C641.1 63.3 638.6 61.4 633.8 61.4C630.8 61.4 628 62.2 625.9 63.1V58.4C628.5 57.4 631.2 57 634.3 57C642.1 57 646.2 60.2 646.2 65.6C646.2 70.1 643.5 72.6 639.4 73.4V73.5C644.7 74.3 646.9 77.4 646.9 81.6C646.9 88.6 640.7 91.3 634.1 91.3C631.5 91.4 628.4 90.9 625.3 89.8Z" fill="#1C2C3E"/>
<path d="M676.4 72H653.1V75.9H676.4V72Z" fill="#1C2C3E"/>
<path d="M679.4 86.4L685.4 81C691.6 75.5 695 71.9 695 67.4C695 63.5 692.5 61.4 688.4 61.4C685.4 61.4 682.6 62.6 680.6 63.8V58.9C683.9 57.4 686.9 57 689.2 57C695.4 57 700.2 60.2 700.2 66.6C700.2 73.4 694.9 78.6 687.1 85.1L685.7 86.3V86.4H700.7V90.8H679.5V86.4H679.4Z" fill="#1C2C3E"/>
<path d="M706.3 74.1996C706.3 62.1996 710.7 57.0996 718.5 57.0996C726.3 57.0996 730.7 62.1996 730.7 74.1996C730.7 86.1996 726.4 91.2996 718.5 91.2996C710.6 91.3996 706.3 86.1996 706.3 74.1996ZM725.6 74.1996C725.6 64.0996 722.7 61.3996 718.5 61.3996C714.3 61.3996 711.4 63.9996 711.4 74.1996C711.4 84.1996 714.2 86.9996 718.5 86.9996C722.8 86.9996 725.6 84.2996 725.6 74.1996Z" fill="#1C2C3E"/>
<path d="M735.2 86.4L741.2 81C747.4 75.5 750.8 71.9 750.8 67.4C750.8 63.5 748.3 61.4 744.2 61.4C741.2 61.4 738.4 62.6 736.4 63.8V58.9C739.7 57.4 742.7 57 745 57C751.2 57 756 60.2 756 66.6C756 73.4 750.7 78.6 742.9 85.1L741.5 86.3V86.4H756.5V90.8H735.3V86.4H735.2Z" fill="#1C2C3E"/>
<path d="M761.9 89.8V85.1C764.5 86.2 767.2 87 770.1 87C775.4 87 778.4 84.8 778.4 81.1C778.4 77 774.9 75.7 770 75.7H766.4V71.5H769.7C774.9 71.5 777.7 70 777.7 66.5C777.7 63.3 775.2 61.4 770.4 61.4C767.4 61.4 764.6 62.2 762.5 63.1V58.4C765.1 57.4 767.8 57 770.9 57C778.7 57 782.8 60.2 782.8 65.6C782.8 70.1 780.1 72.6 776 73.4V73.5C781.3 74.3 783.5 77.4 783.5 81.6C783.5 88.6 777.3 91.3 770.7 91.3C768.1 91.4 764.9 90.9 761.9 89.8Z" fill="#1C2C3E"/>
<path d="M538.1 177.6C545.6 171.2 552.5 165 558.8 158.8C561.7 155.7 564.1 152.8 566 150C567.7 147.3 568.6 144.7 568.7 142.4C568.7 139.2 567.8 137 565.9 135.5C564 134.2 561.7 133.5 558.8 133.5C551.9 133.7 545.8 135.3 540.5 138.3L539.8 123.8C544.8 122 549 120.8 552.4 120.3C555.8 119.9 558.5 119.7 560.5 119.7C568.4 119.7 574.9 121.4 579.8 124.7C584.7 128 587.2 133.2 587.3 140.2C587.2 143.7 586.5 147 585 150.3C583.5 153.6 581.5 156.8 579.2 159.7C574.2 165.7 569.8 170.2 566 173.3L561 177.7H588.6V190.9H538.1V177.6Z" fill="#FF1301"/>
<path d="M599.7 180.8C597.8 177.3 596.6 173.4 595.9 169.1C595.2 164.8 594.8 160.4 594.8 155.9C594.6 146.4 596.2 138 599.7 130.9C601.7 127.4 604.5 124.7 608 122.7C611.6 120.8 616.2 119.8 621.9 119.7C627.6 119.8 632.3 120.8 636 122.7C639.6 124.7 642.3 127.4 644.2 130.9C646.1 134.3 647.4 138.1 648.1 142.5C648.7 146.8 649 151.3 649 155.9C649 160.4 648.7 164.8 648.1 169.1C647.4 173.4 646.1 177.3 644.2 180.8C640.6 188.1 633.2 191.9 621.9 192.1C610.7 191.9 603.3 188.1 599.7 180.8ZM627 177.3C627.6 176.6 628.2 175.8 628.7 174.9C629.1 173.9 629.4 172.9 629.7 171.8C630.6 167 631.1 161.7 631 155.9C631.1 150 630.6 144.7 629.7 139.8C629.4 138.7 629.1 137.6 628.7 136.7C628.2 135.8 627.6 135 627 134.3C625.7 133 624 132.3 621.9 132.3C619.8 132.3 618.2 133 617 134.3C616.4 135 615.9 135.8 615.5 136.7C615 137.6 614.6 138.7 614.3 139.8C614 141 613.8 142.2 613.6 143.4C613.4 144.7 613.2 146 613.1 147.4C612.9 150.2 612.8 153 612.8 155.9C612.8 158.6 612.9 161.4 613.1 164.1C613.3 166.9 613.7 169.5 614.3 171.8C614.6 172.9 615 173.9 615.5 174.9C615.9 175.8 616.4 176.6 617 177.3C618.2 178.8 619.8 179.5 621.9 179.5C624 179.5 625.7 178.8 627 177.3Z" fill="#FF1301"/>
<path d="M744.9 120.9V190.9H726.3V134.1H709.2V142.5C709.2 148.1 708.9 158.3 708.4 165.4C707.8 172.9 706.7 181 702.4 185.7C699 189.5 693.1 191.7 686 191.7C683.8 191.7 680.7 191.3 678.2 190.9V176.5C679.3 176.8 680.8 177 681.9 177C684 177 685.8 176.5 687.5 175C689.4 173.3 689.9 171.4 690.3 168.9C691.3 163.6 691.4 159.4 691.6 154.1C692 142.6 692.1 137.9 692.1 133.6V120.9H744.9Z" fill="#FF1301"/>
<path d="M760.4 120.9H809.6V134.1H779V148.6H807.9V161.8H779V177.7H810.7V190.9H760.4V120.9Z" fill="#FF1301"/>
<path d="M835.1 134.7H817.9V120.9H870.9V134.7H853.7V190.9H835.1V134.7Z" fill="#FF1301"/>
<path d="M576.2 220.3C588.6 220.3 608.5 221.3 619.8 232.3C624.6 236.9 629.9 245.5 629.9 259.8C629.9 268.6 627.5 277.5 621 284.7C609.3 297.4 590.8 298.4 582.4 298.4H570V340.5H538.1V220.3H576.2ZM570 275.8H578.2C582 275.8 588.8 275.3 593.3 271.3C597.2 267.7 597.9 262.7 597.9 259.3C597.9 254.8 597 250.2 592.2 246.6C587.6 243.2 581.2 243 578.1 243H570V275.8Z" fill="#FF1301"/>
<path d="M740.2 266.5H748.7L776.2 220.3H810.2L774.7 276.3L814.7 340.5H779.1L748.7 288.5H740.2V340.5H708.2V288.5H699.5L669.3 340.5H633.7L673.7 276.3L638.2 220.3H672.2L699.5 266.5H708.2V220.3H740.2V266.5Z" fill="#FF1301"/>
<path d="M831.4 317.9C834.8 311.4 839.1 301.8 841.5 294C844.8 283.2 846.8 268.4 846.8 245.9V220.3H936.1V317.8H950.5V368.5H919.6V340.5H851.8V368.5H820.9V317.8H831.4V317.9ZM875.3 243V251.8C875.3 263.5 875.1 278.2 870.7 295.6C868.3 304.7 865.6 311.4 861.9 317.9H904.1V243H875.3Z" fill="#FF1301"/>
</svg>
