<svg width="80" height="49" viewBox="0 0 80 49" fill="none" xmlns="http://www.w3.org/2000/svg">
<path d="M80 0H0V49H80V0Z" fill="#E21A1A"/>
<path d="M51.7586 14.594V15.4817H59.4956C60.0106 15.4817 60.7887 15.4817 61.2928 15.9906C61.8079 16.4994 61.8079 17.2573 61.8079 17.7769V25.4095C61.8079 25.9183 61.8079 26.687 61.2928 27.185C60.7778 27.6938 59.9997 27.6938 59.4956 27.6938H55.7586C55.112 27.6938 54.2791 27.6938 53.9504 26.9901C53.6326 26.2972 54.0819 25.6585 54.4654 25.1497L59.4956 18.5348H51.7586L48.6682 22.6055C48.1531 23.2875 47.7038 23.883 47.7038 24.6408C47.7038 25.4095 48.1202 25.9616 48.6682 26.6762L49.4463 27.6938C50.2134 28.7115 50.9915 29.7292 52.0216 30.238C53.0517 30.7469 54.2791 30.7469 55.9559 30.7469H59.3093C61.238 30.7469 64.1422 30.7469 66.0709 28.8414C67.9997 26.9252 67.9997 24.132 67.9997 23.1143V20.0613C67.9997 19.0436 67.9997 16.2396 66.0709 14.3341C64.1422 12.4287 61.238 12.4287 59.3093 12.4287H53.9613C53.4463 12.4287 52.7997 12.4287 52.2846 12.9375C51.7586 13.4464 51.7586 14.0851 51.7586 14.594Z" fill="white"/>
<path d="M42.4875 18.5459H50.2135L40.9422 30.758H33.2053L42.4875 18.5459Z" fill="white"/>
<path d="M12.3287 20.7004C12.3287 20.1916 12.3287 19.5528 12.8438 19.044C13.3588 18.5352 14.0054 18.5352 14.5205 18.5352H27.4739C29.1506 18.5352 30.378 18.5352 31.4082 19.044C32.4383 19.5528 33.2164 20.5705 33.9945 21.5882L34.7616 22.6059C35.3095 23.3312 35.726 23.8834 35.726 24.6412C35.726 25.4099 35.2766 25.9945 34.7616 26.6766L31.6712 30.7473H23.9342L28.9643 24.1215C29.3479 23.6127 29.8082 22.974 29.4794 22.2702C29.1506 21.5665 28.3177 21.5665 27.6712 21.5665H21.6219V36.8425H15.441V21.5882H12.3506V20.7004" fill="white"/>
</svg>
