<svg xmlns="http://www.w3.org/2000/svg" fill="none" viewBox="0 0 1909 55">
  <path fill="#EBEDEE" d="M256.14 6.14V46.7H.3c.12-.47 1.02-5.62 2.42-6.67 25.52-40.03 92-35.86 92-35.86h159.45c1.04 0 1.97.81 1.97 1.97Z"/>
  <path fill="#D7DBDE" d="M23.23 49.02s29.2-25.5 77.4-34.65c21.44-3.83 39.05-2.78 45.2-2.78h110.2v35.69l-232.8 1.74Z"/>
  <path fill="#73808A" d="M118.7 27.81h-17.84l-2.2-7.53c5.45-1.05 11.7-2.09 18.77-2.78l1.28 10.31Z"/>
  <path fill="#73808A" d="M143.04 16.85v11.13H92.97c-11.24 0-20.02.81-20.02.81l21.42-7.72c6.67-1.76 25.98-4.92 39.63-4.22h9.04Z"/>
  <path fill="#73808A" d="M141.42 16.85h26.69V28.1h-26.69V16.85Z"/>
  <path fill="#73808A" d="M168.1 16.85h25.3V28.1h-25.3V16.85Zm25.3 0h25.27V28.1H193.4V16.85Z"/>
  <path fill="#73808A" d="M217.97 16.85h25.99V28.1h-25.99V16.85Z"/>
  <path fill="#73808A" d="M98.94 4.56s-22.7 2.89-34.07 10.19c-37.92 9.83-38.97 5.97-38.97 5.97C43.16 6.35 81.03 3.86 98.94 4.56Z" opacity=".7"/>
  <path fill="#EBEDEE" d="M233.89 0h-73.81c-8.93 0-10.32 4.17-10.32 4.17h94.44S242.81 0 233.9 0Z"/>
  <path fill="#5F6E79" d="M256.08 46.68v2.27c0 1.25-1.13 2.16-2.4 2.16H4.59C.67 50.55-.47 48.27.16 46.57h255.92v.11Z"/>
  <path fill="#E21A1A" d="M61.71 16.15S14.66 30.55 6.23 46.7H.62c0-2.1-.05-6.66 1.5-8.58C9.58 28.94 23.3 20.47 23.3 20.47s4 5.86 38.41-4.32Z"/>
  <path fill="#9BA4AB" d="m244.66 51.27-1.33 2.8H9.04l-3.24-2.8h238.86Z"/>
  <path fill="#358EBF" d="M39.94 38.98s17.5-8.06 43.92-8.76c26.42-.7 172.26 0 172.26 0v3.48H83.86s-27 .99-43.92 5.28Z"/>
  <path fill="#E21A1A" d="M38.64 39.51s15.99-6.49 42.4-7.18c26.43-.7 175.1 0 175.1 0v3.48H81.04s-25.48-.58-42.4 3.7Z"/>
  <path fill="#EBEDEE" d="M261.14 4.17V46.7h273.23V5.68c0-.81-.7-1.5-1.5-1.5H261.14Z"/>
  <path fill="#D7DBDE" d="M261.14 11.59v35.69l273.23.8v-36.5H261.14Z"/>
  <path fill="#EBEDEE" d="M333.9 0h127.6c8.92 0 10.31 4.17 10.31 4.17h-148.1c-.11 0 1.28-4.17 10.2-4.17Z"/>
  <path fill="#5F6E79" d="M261.14 46.7v2.32a2.2 2.2 0 0 0 2.2 2.2h268.83c1.16 0 2.09-.93 2.09-2.09V46.7H261.14Z"/>
  <path fill="#358EBF" d="M261.14 30.4v3.74h273.23v-3.71c-50.29-.12-273.23-.03-273.23-.03Z"/>
  <path fill="#E21A1A" d="M261.14 32.33v3.47h273.23v-3.7c-50.29-.12-273.23.23-273.23.23Z"/>
  <path fill="#9BA4AB" d="M272.26 51.33 273.3 54h249.72l-1.05-2.67h-249.7Z"/>
  <path fill="#73808A" d="M345.38 16.69H323.6V27.8h21.78V16.69Zm-25.26 0h-21.79V27.8h21.79V16.69Zm-25.38 0h-21.78V27.8h21.78V16.7Zm126.42 0h-21.78V27.8h21.78V16.69Zm-25.26 0h-21.78V27.8h21.78V16.69Zm-25.26 0h-21.78V27.8h21.78V16.69Zm126.42 0h-21.78V27.8h21.78V16.69Zm25.26 0h-21.78V27.8h21.78V16.69Zm-50.52 0h-21.79V27.8h21.79V16.69Zm-25.38 0h-21.78V27.8h21.78V16.69Z"/>
  <path fill="#EBEDEE" d="M539.37 4.17V46.7h273.24V5.68c0-.81-.7-1.5-1.5-1.5H539.36Z"/>
  <path fill="#D7DBDE" d="M539.37 11.59v35.69l273.24.8v-36.5H539.37Z"/>
  <path fill="#EBEDEE" d="M612.14 0h127.58c8.92 0 10.31 4.17 10.31 4.17H601.95c-.12 0 1.27-4.17 10.2-4.17Z"/>
  <path fill="#5F6E79" d="M539.37 46.7v2.32a2.2 2.2 0 0 0 2.2 2.2h268.84c1.16 0 2.08-.93 2.08-2.09V46.7H539.37Z"/>
  <path fill="#358EBF" d="M539.37 30.4v3.74h273.24v-3.71c-50.3-.12-273.24-.03-273.24-.03Z"/>
  <path fill="#E21A1A" d="M539.37 32.33v3.47h273.24v-3.7c-50.3-.12-273.24.23-273.24.23Z"/>
  <path fill="#9BA4AB" d="m550.5 51.33 1.04 2.67h249.71l-1.04-2.67H550.5Z"/>
  <path fill="#73808A" d="M623.61 16.69h-21.78V27.8h21.78V16.69Zm-25.26 0h-21.78V27.8h21.78V16.69Zm-25.37 0h-21.79V27.8h21.79V16.7Zm126.42 0h-21.8V27.8h21.79V16.69Zm-25.26 0h-21.79V27.8h21.79V16.69Zm-25.26 0h-21.79V27.8h21.78V16.69Zm126.42 0h-21.8V27.8h21.79V16.69Zm25.26 0h-21.79V27.8h21.79V16.69Zm-50.53 0h-21.78V27.8h21.78V16.69Zm-25.37 0h-21.79V27.8h21.79V16.69Z"/>
  <path fill="#EBEDEE" d="M817.6 4.17V46.7h273.24V5.68c0-.81-.69-1.5-1.5-1.5H817.61Z"/>
  <path fill="#D7DBDE" d="M817.6 11.59v35.69l273.24.8v-36.5H817.61Z"/>
  <path fill="#EBEDEE" d="M890.38 0h127.58c8.92 0 10.31 4.17 10.31 4.17H880.18c-.11 0 1.28-4.17 10.2-4.17Z"/>
  <path fill="#5F6E79" d="M817.6 46.7v2.32a2.2 2.2 0 0 0 2.21 2.2h268.83c1.16 0 2.09-.93 2.09-2.09V46.7H817.61Z"/>
  <path fill="#358EBF" d="M817.6 30.4v3.74h273.24v-3.71c-50.29-.12-273.23-.03-273.23-.03Z"/>
  <path fill="#E21A1A" d="M817.6 32.33v3.47h273.24v-3.7c-50.29-.12-273.23.23-273.23.23Z"/>
  <path fill="#9BA4AB" d="m828.73 51.33 1.04 2.67h249.72l-1.05-2.67h-249.7Z"/>
  <path fill="#73808A" d="M901.85 16.69h-21.78V27.8h21.78V16.69Zm-25.26 0H854.8V27.8h21.79V16.69Zm-25.38 0h-21.78V27.8h21.78V16.7Zm126.42 0h-21.78V27.8h21.78V16.69Zm-25.26 0H930.6V27.8h21.78V16.69Zm-25.26 0h-21.78V27.8h21.78V16.69Zm126.42 0h-21.78V27.8h21.78V16.69Zm25.26 0h-21.78V27.8h21.78V16.69Zm-50.52 0h-21.78V27.8h21.78V16.69Zm-25.38 0h-21.78V27.8h21.78V16.69Z"/>
  <path fill="#EBEDEE" d="M1095.84 4.17V46.7h273.24V5.68c0-.81-.7-1.5-1.51-1.5h-271.73Z"/>
  <path fill="#D7DBDE" d="M1095.84 11.59v35.69l273.24.8v-36.5h-273.24Z"/>
  <path fill="#EBEDEE" d="M1168.61 0h127.58c8.92 0 10.32 4.17 10.32 4.17h-148.09c-.12 0 1.27-4.17 10.19-4.17Z"/>
  <path fill="#5F6E79" d="M1095.84 46.7v2.32a2.2 2.2 0 0 0 2.2 2.2h268.84c1.16 0 2.08-.93 2.08-2.09V46.7h-273.12Z"/>
  <path fill="#358EBF" d="M1095.84 30.4v3.74h273.24v-3.71c-50.29-.12-273.24-.03-273.24-.03Z"/>
  <path fill="#E21A1A" d="M1095.84 32.33v3.47h273.24v-3.7a153979 153979 0 0 0-273.24.23Z"/>
  <path fill="#9BA4AB" d="m1106.97 51.33 1.04 2.67h249.71l-1.04-2.67h-249.71Z"/>
  <path fill="#73808A" d="M1180.08 16.69h-21.78V27.8h21.78V16.69Zm-25.26 0h-21.78V27.8h21.78V16.69Zm-25.37 0h-21.79V27.8h21.79V16.7Zm126.42 0h-21.79V27.8h21.79V16.69Zm-25.26 0h-21.79V27.8h21.79V16.69Zm-25.26 0h-21.79V27.8h21.79V16.69Zm126.42 0h-21.79V27.8h21.79V16.69Zm25.26 0h-21.79V27.8h21.79V16.69Zm-50.52 0h-21.79V27.8h21.79V16.69Zm-25.38 0h-21.79V27.8h21.79V16.69Z"/>
  <path fill="#EBEDEE" d="M1374.08 4.17V46.7h273.23V5.68c0-.81-.69-1.5-1.5-1.5h-271.73Z"/>
  <path fill="#D7DBDE" d="M1374.08 11.59v35.69l273.23.8v-36.5h-273.23Z"/>
  <path fill="#EBEDEE" d="M1446.85 0h127.58c8.92 0 10.31 4.17 10.31 4.17h-148.09c-.11 0 1.28-4.17 10.2-4.17Z"/>
  <path fill="#5F6E79" d="M1374.08 46.7v2.32a2.2 2.2 0 0 0 2.2 2.2h268.83c1.16 0 2.09-.93 2.09-2.09V46.7h-273.12Z"/>
  <path fill="#358EBF" d="M1374.08 30.4v3.74h273.23v-3.71c-50.29-.12-273.23-.03-273.23-.03Z"/>
  <path fill="#E21A1A" d="M1374.08 32.33v3.47h273.23v-3.7c-50.29-.12-273.23.23-273.23.23Z"/>
  <path fill="#9BA4AB" d="m1385.2 51.33 1.05 2.67h249.71l-1.05-2.67H1385.2Z"/>
  <path fill="#73808A" d="M1458.32 16.69h-21.78V27.8h21.78V16.69Zm-25.26 0h-21.79V27.8h21.79V16.69Zm-25.38 0h-21.78V27.8h21.78V16.7Zm126.42 0h-21.78V27.8h21.78V16.69Zm-25.26 0h-21.78V27.8h21.78V16.69Zm-25.26 0h-21.78V27.8h21.78V16.69Zm126.42 0h-21.78V27.8H1610V16.69Zm25.26 0h-21.78V27.8h21.78V16.69Zm-50.52 0h-21.78V27.8h21.78V16.69Zm-25.38 0h-21.78V27.8h21.78V16.69Z"/>
  <path fill="#EBEDEE" d="M1652.31 6.14V46.7h255.84c-.12-.47-1.02-5.62-2.42-6.67-25.52-40.03-92-35.86-92-35.86h-159.45c-1.04 0-1.97.81-1.97 1.97Z"/>
  <path fill="#D7DBDE" d="M1885.22 49.02s-29.2-25.5-77.4-34.65c-21.44-3.83-39.05-2.78-45.19-2.78h-110.2v35.69l232.79 1.74Z"/>
  <path fill="#73808A" d="M1789.74 27.81h17.85l2.2-7.53a205.84 205.84 0 0 0-18.77-2.78l-1.28 10.31Z"/>
  <path fill="#73808A" d="M1765.41 16.85v11.13h50.08c11.23 0 20.01.81 20.01.81l-21.42-7.72c-6.67-1.76-25.98-4.92-39.63-4.22h-9.04Z"/>
  <path fill="#73808A" d="M1767.03 16.85h-26.69V28.1h26.69V16.85Zm-26.69 0h-25.28V28.1h25.28V16.85Zm-25.28 0h-25.28V28.1h25.28V16.85Z"/>
  <path fill="#73808A" d="M1690.48 16.85h-25.98V28.1h25.98V16.85Z"/>
  <path fill="#73808A" d="M1809.52 4.56s22.7 2.89 34.06 10.19c37.92 9.83 38.97 5.97 38.97 5.97-17.26-14.37-55.13-16.86-73.03-16.16Z" opacity=".7"/>
  <path fill="#EBEDEE" d="M1674.56 0h73.81c8.93 0 10.32 4.17 10.32 4.17h-94.44S1665.64 0 1674.56 0Z"/>
  <path fill="#5F6E79" d="M1652.37 46.68v2.27c0 1.25 1.13 2.16 2.4 2.16h249.1c3.91-.56 5.05-2.84 4.42-4.54h-255.92v.11Z"/>
  <path fill="#E21A1A" d="M1846.74 16.15s47.05 14.4 55.48 30.55h5.61c0-2.1.05-6.66-1.5-8.58-7.46-9.18-21.18-17.65-21.18-17.65s-4 5.86-38.41-4.32Z"/>
  <path fill="#9BA4AB" d="m1663.79 51.27 1.33 2.8h234.29l3.24-2.8h-238.86Z"/>
  <path fill="#358EBF" d="M1868.51 38.98s-17.5-8.06-43.92-8.76c-26.42-.7-172.26 0-172.26 0v3.48h172.26s27 .99 43.92 5.28Z"/>
  <path fill="#E21A1A" d="M1869.81 39.51s-15.99-6.49-42.41-7.18c-26.42-.7-175.09 0-175.09 0v3.48h175.09s25.49-.58 42.41 3.7Z"/>
</svg>
