<?xml version="1.0" encoding="utf-8"?>
<!-- Generator: Adobe Illustrator 24.3.0, SVG Export Plug-In . SVG Version: 6.00 Build 0)  -->
<svg version="1.1" id="Слой_1" xmlns="http://www.w3.org/2000/svg" xmlns:xlink="http://www.w3.org/1999/xlink" x="0px" y="0px"
	 viewBox="0 0 372 440" style="enable-background:new 0 0 372 440;" xml:space="preserve">
<style type="text/css">
	.st0{clip-path:url(#SVGID_2_);}
	.st1{fill:url(#SVGID_3_);}
	.st2{opacity:0.5;clip-path:url(#SVGID_2_);}
	.st3{fill:#394A58;}
	.st4{clip-path:url(#SVGID_2_);fill:#EBEDEE;}
	.st5{clip-path:url(#SVGID_2_);fill:#AFB7BC;}
	.st6{clip-path:url(#SVGID_2_);fill:#87929B;}
	.st7{opacity:0.3;clip-path:url(#SVGID_2_);fill:#D7DBDE;enable-background:new    ;}
	.st8{clip-path:url(#SVGID_2_);fill:#5F6E79;}
	.st9{clip-path:url(#SVGID_2_);fill:#D7DBDE;}
	.st10{clip-path:url(#SVGID_2_);fill:#C3C9CD;}
	.st11{opacity:0.5;clip-path:url(#SVGID_2_);fill:#87929B;enable-background:new    ;}
	.st12{opacity:0.3;clip-path:url(#SVGID_2_);}
	.st13{fill:#C3C9CD;}
	.st14{fill:#EBEDEE;}
	.st15{clip-path:url(#SVGID_2_);fill:#FFFFFF;filter:url(#Adobe_OpacityMaskFilter);}
	.st16{clip-path:url(#SVGID_2_);mask:url(#mask1_161_43744_1_);}
	.st17{opacity:0.5;}
	.st18{opacity:0.6;clip-path:url(#SVGID_2_);fill:#D7DBDE;enable-background:new    ;}
	.st19{opacity:0.6;clip-path:url(#SVGID_2_);fill:#EBEDEE;enable-background:new    ;}
	.st20{fill:#87929B;}
	.st21{opacity:0.5;clip-path:url(#SVGID_2_);fill:#4B5C69;enable-background:new    ;}
	.st22{clip-path:url(#SVGID_2_);fill:#73808A;}
	.st23{clip-path:url(#SVGID_2_);fill:url(#SVGID_4_);}
	.st24{clip-path:url(#SVGID_2_);fill:#9BA4AB;}
	.st25{opacity:0.3;clip-path:url(#SVGID_2_);fill:#AFB7BC;enable-background:new    ;}
	.st26{fill:#D7DBDE;}
	.st27{opacity:0.8;clip-path:url(#SVGID_2_);}
	.st28{fill:#4B5C69;}
	.st29{opacity:0.4;clip-path:url(#SVGID_2_);}
	.st30{opacity:0.8;clip-path:url(#SVGID_2_);fill:url(#SVGID_5_);enable-background:new    ;}
	.st31{clip-path:url(#SVGID_2_);fill:#E21A1A;}
	.st32{clip-path:url(#SVGID_2_);fill:none;stroke:#E21A1A;stroke-width:3;stroke-dasharray:6,6;}
	.st33{clip-path:url(#SVGID_2_);fill:none;stroke:#4B5C69;}
	.st34{clip-path:url(#SVGID_2_);fill:none;stroke:#5F6E79;}
</style>
<g>
	<defs>
		<rect id="SVGID_1_" y="0" width="372" height="440"/>
	</defs>
	<clipPath id="SVGID_2_">
		<use xlink:href="#SVGID_1_"  style="overflow:visible;"/>
	</clipPath>
	<g class="st0">
		
			<linearGradient id="SVGID_3_" gradientUnits="userSpaceOnUse" x1="186.5" y1="173.2973" x2="186.5" y2="316.7523" gradientTransform="matrix(1 0 0 -1 0 442.0013)">
			<stop  offset="0" style="stop-color:#DDE2E7"/>
			<stop  offset="1" style="stop-color:#F1F1F1;stop-opacity:0"/>
		</linearGradient>
		<path class="st1" d="M186.5,407C312.7,407,415,316.1,415,204C415,91.9,312.7,1,186.5,1S-42,91.9-42,204
			C-42,316.1,60.3,407,186.5,407z"/>
	</g>
	<g class="st2">
		<path class="st3" d="M221.4,53.9l7,5.3c0,0,10.1,40.2,9.8,40.7c-0.3,0.4-66.5,3.3-66.5,3.3L221.4,53.9z"/>
	</g>
	<g class="st2">
		<path class="st3" d="M87.7,163.9l7.1,35.3L63,197.1l-0.2-8.8L87.7,163.9z"/>
	</g>
	<g class="st2">
		<path class="st3" d="M314.5,224.7l3-97l79.9-11.4l11.9,89.4l10.8-10.3l23.2,50.8l-45.3,7.3l-10.3-27.2L314.5,224.7z"/>
	</g>
	<path class="st4" d="M62.6,164.9l25-1l2.9,32.6l-29.3-1.4L62.6,164.9z"/>
	<path class="st4" d="M137.7,99.8l26.8-2.5l0.9-36.8l-10.2-9.9l-13-1.2c0,0-21.3,48.2-20,47.8c0.4-0.1,3.7,1.7,4.7,2.5
		C131.7,99.7,137.7,99.8,137.7,99.8z"/>
	<g class="st2">
		<path class="st3" d="M123.2,97.4c1.3,0.6,2.6,1.4,3.9,2.2c4.6,0.1,10.7,0.2,10.7,0.2l26.8-2.5l0.9-36.8l-10.2-10l-0.4,0L141.1,99
			L123.2,97.4z"/>
	</g>
	<path class="st5" d="M150.5,98.8l24.1-0.7l24.3-39.1l-12.8-23.9l-15.9-4.3c0,0-32.7,61.5-31,61.2C140.2,91.9,150.5,98.8,150.5,98.8
		z"/>
	<g class="st2">
		<path class="st3" d="M139.2,91.6c-0.1,0.3-0.1,0.5,0,0.5c1-0.2,11.2,6.7,11.2,6.7l24.1-0.7l24.3-39.1l-12.5-23.4L156.9,96
			L139.2,91.6z"/>
	</g>
	<path class="st6" d="M180.7,97.2l19.3-1.9l25.3-38.1l-4.1-18l-15.7-6.9c0,0-44.7,55.2-42.9,55.2c0.9,0,5.2,6.3,8.5,9.6
		C175.2,97,180.7,97.2,180.7,97.2z"/>
	<g class="st2">
		<path class="st3" d="M162.9,87.4c0.9,0,5.2,6.3,8.5,9.6c2.2,0,6-0.5,8.1-0.4l-16.6-9.5C162.8,87.3,162.8,87.4,162.9,87.4z"/>
	</g>
	<g class="st2">
		<path class="st3" d="M200,95.3l25.3-38.1l-4-17.8c-9.2,12.8-38.6,52.5-41.9,57C180.2,96.4,200,95.3,200,95.3z"/>
	</g>
	<path class="st7" d="M165.3,89l6.7,7.9l6.6-0.4L165.3,89z"/>
	<path class="st8" d="M261.5,91.7L239.6,93l-3.1-68L223,27.3l4.7,66.4c-52.7,3.2-149,9.1-152.5,9.5v14.5l189.4-9.9L261.5,91.7z"/>
	<g class="st2">
		<path class="st3" d="M261.6,92.4l-0.1-0.7l-5.8,0.4L239.6,93l-3.1-68l-2.6,0.4l3.5,64.6l-9.7,3.6v0.1h-0.2l-0.5,0.2l32.3-1.1
			l0.4,10.5L76.9,115.2l-1.1,1.9l188.6-9.3h0.2L261.6,92.4z"/>
	</g>
	<path class="st4" d="M204.6,105.7l18.5-0.8l2.2,24.1l-21.7-1L204.6,105.7z"/>
	<path class="st4" d="M241.8,103l17.3-6.5l9.6,22.3l-20.9,5.8L241.8,103z"/>
	<path class="st9" d="M314.7,119.8l82.7-3.4l9.8,108l-97.1-4.6L314.7,119.8z"/>
	<path class="st10" d="M318.6,124.3l75.4-3.1l8.9,98.5l-88.5-4.2L318.6,124.3z"/>
	<path class="st4" d="M321.1,127.2l70.7-2.9l8.4,92.4l-83-3.9L321.1,127.2z"/>
	<path class="st11" d="M320.7,130.3c20.7,0,37.5-16.8,37.5-37.5c0-20.7-16.8-37.5-37.5-37.5c-20.7,0-37.5,16.8-37.5,37.5
		C283.2,113.5,300,130.3,320.7,130.3z"/>
	<path class="st9" d="M317.5,127.7c20.7,0,37.5-16.8,37.5-37.5c0-20.7-16.8-37.5-37.5-37.5c-20.7,0-37.5,16.8-37.5,37.5
		C280,110.9,296.8,127.7,317.5,127.7z"/>
	<g class="st12">
		<path class="st13" d="M317.5,125c19.2,0,34.8-15.6,34.8-34.8c0-19.2-15.6-34.8-34.8-34.8c-19.2,0-34.8,15.6-34.8,34.8
			C282.8,109.4,298.3,125,317.5,125z"/>
	</g>
	<path class="st9" d="M317.5,121.4c17.2,0,31.2-14,31.2-31.2c0-17.2-14-31.2-31.2-31.2c-17.2,0-31.2,14-31.2,31.2
		C286.4,107.5,300.3,121.4,317.5,121.4z"/>
	<g class="st0">
		<path class="st14" d="M295.8,111c5.5,5.9,13.1,9.4,21.2,9.7c4,0.1,8-0.5,11.7-1.9c3.7-1.4,7.2-3.5,10.1-6.2c2.9-2.7,5.3-6,7-9.6
			c1.7-3.6,2.6-7.6,2.7-11.6c0.1-4-0.5-8-1.9-11.7s-3.5-7.2-6.2-10.1C327,91.8,284.4,98.6,295.8,111z"/>
	</g>
	<path class="st6" d="M317.5,92.7c1.3,0,2.4-1.1,2.4-2.4c0-1.3-1.1-2.4-2.4-2.4c-1.3,0-2.4,1.1-2.4,2.4
		C315.1,91.6,316.2,92.7,317.5,92.7z"/>
	<path class="st6" d="M314.7,85.7l-6.9-16.6l3.4-6.9l6.5,4.5l0.2,17.9L314.7,85.7z"/>
	<path class="st6" d="M321.9,90.2l-0.4,2.2l23.5,4.5l1.9-2.2l-1.5-2.4L321.9,90.2z"/>
	<g class="st12">
		<path class="st3" d="M244.7,105.5l0.6,2.4l14.4-4.6l-0.9-1.9L244.7,105.5z"/>
	</g>
	<g class="st12">
		<path class="st3" d="M246.1,111.9l0.6,1.7l12.5-3.3l-0.8-1.4L246.1,111.9z"/>
	</g>
	<g class="st12">
		<path class="st3" d="M206.3,117l-0.2,2.4l15.1,0.9l-0.1-2.1L206.3,117z"/>
	</g>
	<g class="st12">
		<path class="st3" d="M210.4,108.5l0,1.6l10-0.5l-0.2-1.4L210.4,108.5z"/>
	</g>
	<g class="st12">
		<path class="st3" d="M216,114l-0.8-2.2l-6.9,0.1l0.1-0.1l-4-4.3l-0.6,12.8l3.4-6.3L216,114z"/>
	</g>
	<path class="st4" d="M190,100.4l15.8,9.6l-11.5,21.3l-17.5-12.8L190,100.4z"/>
	<g class="st12">
		<path class="st3" d="M189.7,104.6l-1.4,2l12.9,7.9l0.9-1.9L189.7,104.6z"/>
	</g>
	<g class="st12">
		<path class="st3" d="M186.5,110l-1.4,2l12.9,7.9l0.9-1.9L186.5,110z"/>
	</g>
	<g class="st12">
		<path class="st3" d="M182.2,114.6l-1.4,2l6.8,3.9l0.9-1.9L182.2,114.6z"/>
	</g>
	<g class="st12">
		<path class="st3" d="M249.1,116.7l0.6,2.4l7.5-2.4l-0.8-1.9L249.1,116.7z"/>
	</g>
	<path class="st9" d="M357.4,154c5.6,0,10.1-4.5,10.1-10.1c0-5.6-4.5-10.1-10.1-10.1c-5.6,0-10.1,4.5-10.1,10.1
		C347.3,149.5,351.8,154,357.4,154z"/>
	<g class="st12">
		<path class="st3" d="M328.5,163.5l0.4,3l59.7,1.9l0.4-3.2L328.5,163.5z"/>
	</g>
	<g class="st12">
		<path class="st3" d="M328.5,170.6l0.2,3.4l59.7,2.4v-3.2L328.5,170.6z"/>
	</g>
	<g class="st12">
		<path class="st3" d="M329.2,178.2l0.2,2.6l28.2,1.7l0.4-2.4L329.2,178.2z"/>
	</g>
	<g class="st12">
		<path class="st3" d="M346.2,188.7l-0.2,2.2l43.7,3.9l0.4-2.8L346.2,188.7z"/>
	</g>
	<g class="st12">
		<path class="st3" d="M65,169.6l0.3,3.4l20.7,0.9v-3.4L65,169.6z"/>
	</g>
	<g class="st12">
		<path class="st3" d="M65,177l0.3,2.6l20.7,2.3V179L65,177z"/>
	</g>
	<g class="st12">
		<path class="st3" d="M75.6,189.1l-0.3,2.6l12.4,1.2l-0.6-4L75.6,189.1z"/>
	</g>
	<path class="st6" d="M500,328.9c-14.8,29.9-176,90.8-253,104.6C137.5,424.3,60.6,386.4,8.9,332.3c94.7-49.4,121.3-47.1,207.1-62.1
		C322.9,269.4,402.3,299,500,328.9z"/>
	<path class="st4" d="M498,326.1C483.2,356,322,410,245.1,423.8c-109.5-9.2-186.4-40.2-238.2-94.3c94.7-49.4,121.3-47.1,207.1-62.1
		C321,266.6,400.4,296.2,498,326.1z"/>
	<defs>
		<filter id="Adobe_OpacityMaskFilter" filterUnits="userSpaceOnUse" x="96.9" y="353.4" width="90.3" height="82.5">
			<feColorMatrix  type="matrix" values="1 0 0 0 0  0 1 0 0 0  0 0 1 0 0  0 0 0 1 0"/>
		</filter>
	</defs>
	<mask maskUnits="userSpaceOnUse" x="96.9" y="353.4" width="90.3" height="82.5" id="mask1_161_43744_1_">
		<path class="st15" d="M498,326.1c-14.8,29.9-176,83.9-252.9,97.7c-109.5-9.2-186.4-40.2-238.2-94.3
			c94.7-49.4,121.3-47.1,207.1-62.1C321,266.6,400.4,296.2,498,326.1z"/>
	</mask>
	<g class="st16">
		<g class="st17">
			<path class="st14" d="M96.9,366.2c0,0,12.6,71,14.7,69.7c2-1.3,75.7-15.3,75.7-15.3l-34.2-67.2L96.9,366.2z"/>
		</g>
	</g>
	<path class="st9" d="M94,364.3c0,0,12.6,71,14.6,69.7c2-1.3,75.7-15.3,75.7-15.3L153.1,353L94,364.3z"/>
	<path class="st18" d="M108.6,434c2-1.3,75.7-15.3,75.7-15.3l-8.6-18.1L104.4,419C106.3,428,108,434.4,108.6,434z"/>
	<g class="st2">
		<path class="st14" d="M74,367.9l61.9,46.4l58-31.6L121,346.6L74,367.9z"/>
	</g>
	<path class="st9" d="M73.3,365.6l63.2,45.4l59.3-33.2l-72.8-36.1L73.3,365.6z"/>
	<g class="st12">
		<path class="st3" d="M91.5,374.3l4.3,4.4l39.6-22.7l-6.3-3.9L91.5,374.3z"/>
	</g>
	<g class="st12">
		<path class="st3" d="M102.6,381.6l7.2,4.8l37.7-23.2l-7.7-2.9L102.6,381.6z"/>
	</g>
	<g class="st12">
		<path class="st3" d="M116.7,389.8l4.8,3.9l12.6-9.2l-5.3-3.4L116.7,389.8z"/>
	</g>
	<path class="st19" d="M136.1,410.4l57.7-32.3l-18.6-9.2l-52,32.3L136.1,410.4z"/>
	<g class="st0">
		<path class="st20" d="M285.3,143.7l-1.8,0.2l-25.2,11.3l4.5,34.8l6.6-1.2c7.3-2.3,18.7-6,25.5-8.9c-0.4-3.4-1.1-8.6-1.9-14.3
			C290,158.4,287.4,151.1,285.3,143.7z"/>
	</g>
	<path class="st21" d="M141.5,341.5l100.5,61.9l161.4-69.6l-106.8-45.5L141.5,341.5z"/>
	<path class="st10" d="M141.6,332.4l-1.2,0.3c-0.9,0.2,0.2,0-0.6-0.5c-0.8-0.5-1.3-1.2-1.5-2.1L103.9,172c-0.9-3.9-0.7-4,1-7.1
		L278,144.7l22.2,139L141.6,332.4z"/>
	<path class="st4" d="M104.9,164.9L141,331.8l159.8-48.3l-24.2-138.9L104.9,164.9z"/>
	<path class="st22" d="M113.3,170.3l34.5,147.9l147.8-38.5l-21.3-128.3L113.3,170.3z"/>
	
		<linearGradient id="SVGID_4_" gradientUnits="userSpaceOnUse" x1="116.171" y1="206.1608" x2="291.953" y2="206.1608" gradientTransform="matrix(1 0 0 -1 0 442.0013)">
		<stop  offset="0" style="stop-color:#EDF2F5"/>
		<stop  offset="1" style="stop-color:#E8EEF1"/>
	</linearGradient>
	<path class="st23" d="M116.2,173.6l33.3,142.7L292,279.1l-20.5-123.7L116.2,173.6z"/>
	<path class="st10" d="M141,331.8l3.2,9.7l98,60.4l162.7-69.5l1.6-4.4l-105.7-44.5L141,331.8z"/>
	<path class="st9" d="M143.2,330.8l99.2,60l160.1-63.1l-104.7-43.8L143.2,330.8z"/>
	<path class="st8" d="M176.8,331.6l58.9,34.8l118.2-44.8l-0.9-2l-57.1-13.3l-4.4-12.6L176.8,331.6z"/>
	<path class="st9" d="M179.3,330.7l56.4,33.4l117.2-44.5l-15.8-6.8l-1.7,0.9l-0.9-1.9l-15.6-6.7l-1.3,0.9l-1.5-1.8l-12.5-5.2
		l-1.7,0.6l-1.8-1.9l-8.8-4L179.3,330.7z"/>
	<g class="st2">
		<path class="st3" d="M141,331.8l159.8-48.3l3.5,1.6l-159.5,48.7L141,331.8z"/>
	</g>
	<g class="st2">
		<path class="st3" d="M159.2,325.8l1.5,2.7l20.5-5.6l-1.4-2.7L159.2,325.8z"/>
	</g>
	<g class="st2">
		<path class="st3" d="M253.9,297.5l1.5,1.9l16.7-4.8l-1.2-1.9L253.9,297.5z"/>
	</g>
	<g class="st2">
		<path class="st13" d="M251.2,147.4l30.2-2.8c-1.8,16,2.7,38.3,3.4,42.2c-11,6.7-25.5,14.4-25.5,14.4L251.2,147.4z"/>
	</g>
	<path class="st4" d="M252,147.4l33.3-3.7c0,0,8.9,31,14.8,32.5c5.9,1.5-37.7,14.8-37.7,14.8L252,147.4z"/>
	<path class="st24" d="M249.9,358.6l-55.5-33l3.7-1.1l54.7,33.1L249.9,358.6z"/>
	<path class="st24" d="M267.3,351.8l-55.2-32.5l3.1-1l55,32.6L267.3,351.8z"/>
	<path class="st24" d="M284.3,345.5l-54.7-31.4l2.4-1l55.1,31.4L284.3,345.5z"/>
	<path class="st24" d="M300.4,339.4l-54.3-30.6l2.6-1l54.5,30.7L300.4,339.4z"/>
	<path class="st24" d="M317.7,333.2L264,302.9l2-0.8l53.7,30.4L317.7,333.2z"/>
	<path class="st24" d="M334.3,326.9l-54.1-29.7l2.4-0.6l54,29.3L334.3,326.9z"/>
	<path class="st24" d="M335.4,313.7L223.1,357l-3.5-2.4l114.9-43.1L335.4,313.7z"/>
	<path class="st24" d="M317.7,306.1l-109,42l-3.4-2.1l110.8-41.8L317.7,306.1z"/>
	<path class="st24" d="M302,299.7L194,339.6l-3.5-2.4l109.6-39.6L302,299.7z"/>
	<path class="st8" d="M280.2,353l19,10.2l47.8-18.2l-21.5-9.5L280.2,353z"/>
	<g class="st2">
		<path class="st3" d="M208,378.2l-0.5-6.3l15.1,10.2l-1.8,4L208,378.2z"/>
	</g>
	<g class="st2">
		<path class="st3" d="M212.1,378.1l-0.1-3.4l10.6,7.3l-0.6,1.8L212.1,378.1z"/>
	</g>
	<path class="st25" d="M242.5,390.8l-0.2,11.1L406,331v-4.5L242.5,390.8z"/>
	<g class="st2">
		<path class="st26" d="M115.4,357.6c0.1-7.5-13.9-13.8-31.4-14.2c-17.5-0.4-31.8,5.4-31.9,12.9c-0.1,7.5,13.9,13.8,31.4,14.2
			S115.3,365.1,115.4,357.6z"/>
	</g>
	<path class="st10" d="M114.8,305.7c-5.7-9.6-53.6-14.5-63.6,0v7.3c-1.4-0.5-2.9-0.9-4.4-1.2c-11.6-1.9-21,5.6-21,16.7
		c0,11.1,9.4,21.6,21,23.5c1.5,0.2,3,0.3,4.4,0.3v3.8c8.6,17.1,55.3,17.1,63.6,0C115.2,341.5,115.2,320.1,114.8,305.7z M49.5,344
		c-6.7-1.1-12.2-7.2-12.2-13.7c0-6.5,5.5-10.8,12.2-9.7c0.6,0.1,1.2,0.2,1.7,0.4v23.1C50.6,344.1,50,344.1,49.5,344z"/>
	<g class="st27">
		<path class="st28" d="M61,309.6c13.3,6,32.4,6,44.8,0.5C91.7,303.9,71.9,304.7,61,309.6z"/>
	</g>
	<g class="st29">
		<path class="st3" d="M50.9,344.1c-0.5,0-1-0.1-1.4-0.1c-6.7-1.1-12.2-7.2-12.2-13.7s5.5-10.8,12.2-9.7c0.5,0.1,1,0.2,1.4,0.3
			c0,0-1.9-3.4-2.9-3.4c-7.5-2.4-16.9-1.2-17.2,12.3c0,8.2,9.4,17.4,17.2,17.4c1,0,1.9-0.1,2.9-0.3V344.1z"/>
	</g>
	<path class="st8" d="M111.7,306.7c-16.2-11.7-47.8-9.6-56.7-0.6C69.6,316.9,98.9,316.6,111.7,306.7z"/>
	<g class="st0">
		<path class="st26" d="M85.8,306.5c-12.7-24.6-58.7-8-58.7-25.7c0-8.8,21.8-12.2,28.2-12.2c7.6,0,17.2,1.7,24.9,1.7
			c6.5,0,12.8-1.9,11.1-8.9c-5.8-13.3-20.1-10.5-29.7-11.9c-14.4-1.3-36.8-5.2-36.8-19.6c0-12.5,15.4-15.8,27.9-15.8
			c31.2,0,42.7,8.6,58.4,25.8c-31.2-30-68.3-17.4-68.3-11.5c0,8.6,55.6,9.7,55.6,35c0,22.3-55,5.3-52.8,16.9
			c9.2,2.9,22.2,4.1,30.5,10.3C81.5,294.9,84.9,300.2,85.8,306.5z"/>
	</g>
	
		<linearGradient id="SVGID_5_" gradientUnits="userSpaceOnUse" x1="58.9361" y1="131.4369" x2="76.2876" y2="131.4369" gradientTransform="matrix(1 0 0 -1 0 442.0013)">
		<stop  offset="0" style="stop-color:#ECECEC"/>
		<stop  offset="1" style="stop-color:#9BA4AB"/>
	</linearGradient>
	<path class="st30" d="M81.5,310.4c5.2,2.3,12.6,2.3,17.4,0.2C93.4,308.2,85.7,308.5,81.5,310.4z"/>
	<path class="st31" d="M141.8,202.5c0.1,5.4,7.3,13.8,7.3,13.8s7-8.6,6.9-14c0-0.1,0-0.3,0-0.4c0-0.9-0.2-1.9-0.5-2.8
		c-0.4-0.9-0.9-1.7-1.6-2.3c-0.7-0.7-1.5-1.2-2.3-1.5c-0.9-0.4-1.8-0.5-2.8-0.5c-0.9,0-1.9,0.2-2.7,0.6c-0.9,0.4-1.6,0.9-2.3,1.6
		c-0.7,0.7-1.2,1.5-1.5,2.4c-0.3,0.9-0.5,1.8-0.5,2.8C141.8,202.2,141.8,202.3,141.8,202.5z M144.3,202c0-0.9,0.2-1.8,0.7-2.6
		c0.5-0.8,1.2-1.4,2-1.7s1.8-0.5,2.7-0.3c0.9,0.2,1.7,0.6,2.4,1.2c0.7,0.6,1.1,1.5,1.3,2.3c0.2,0.9,0.1,1.8-0.2,2.7
		c-0.3,0.8-0.9,1.6-1.7,2.1c-0.8,0.5-1.6,0.8-2.6,0.8c-1.2,0-2.4-0.4-3.3-1.3C144.9,204.4,144.4,203.2,144.3,202z"/>
	<path class="st31" d="M261.2,247.9c0.1,5.4,7.3,13.8,7.3,13.8s7-8.6,6.9-14c0-0.1,0-0.3,0-0.4c0-0.9-0.2-1.9-0.5-2.8
		c-0.4-0.9-0.9-1.7-1.6-2.3c-0.7-0.7-1.5-1.2-2.4-1.5c-0.9-0.4-1.8-0.5-2.8-0.5c-0.9,0-1.9,0.2-2.7,0.6c-0.9,0.4-1.6,0.9-2.3,1.6
		c-0.7,0.7-1.2,1.5-1.5,2.4c-0.3,0.9-0.5,1.8-0.5,2.8C261.2,247.7,261.2,247.8,261.2,247.9z M263.7,247.5c0-0.9,0.2-1.8,0.7-2.6
		c0.5-0.8,1.2-1.4,2-1.7c0.8-0.4,1.8-0.5,2.7-0.3c0.9,0.2,1.7,0.6,2.4,1.2c0.7,0.6,1.1,1.5,1.3,2.3c0.2,0.9,0.1,1.8-0.2,2.7
		c-0.3,0.8-0.9,1.6-1.7,2.1c-0.8,0.5-1.6,0.8-2.6,0.8c-1.2,0-2.4-0.4-3.3-1.3C264.2,249.9,263.7,248.7,263.7,247.5z"/>
	<path class="st32" d="M149.7,219.2c2.2,7.8,2.2,12.2,15.5,18.3c16.8,7.8,65.5-45.5,65.5-14c0,10.3-26.1,30.9-17.7,42.2
		c6.9,9.3,39.6,14.7,53.4,0"/>
	<path class="st33" d="M132.7,243.7c4.7,0,11.2-3.1,20.3,0c12.9,4.4,16.5,23.8,16.5,40.3c0,19.4,21.5,19.6,46.1,15.3"/>
	<path class="st33" d="M212.6,161.5c4.7,0,14-3.1,23.1,0c12.9,4.4,24.6,24.2,13.8,40.4c-10.8,16.2,9.3,29.4,33.8,25.1"/>
	<path class="st31" d="M240,175.2l-7.7,1c-1.6,0.2-3.1-0.8-3.6-2.4c-0.5-1.9,0.8-3.9,2.8-4.1l7.7-0.8c1.6-0.2,3.1,0.9,3.5,2.5
		C243.1,173.2,241.8,175,240,175.2z"/>
	<path class="st34" d="M217.3,177.9l-81.6,10.2c-1.4,0.2-2.7-0.7-3.1-2.1c-0.4-1.6,0.7-3.3,2.4-3.5l81.7-10c1.4-0.2,2.7,0.8,3,2.1
		C219.9,176.3,218.9,177.7,217.3,177.9z"/>
	<path class="st5" d="M196.2,200l-32.8,4.1c-0.8,0.1-1.5-0.3-1.8-1c-0.6-1.1,0.2-2.5,1.4-2.6l32.8-3.9c0.8-0.1,1.5,0.3,1.8,1.1
		C198,198.8,197.3,199.9,196.2,200z"/>
	<path class="st5" d="M255,254.6l-32.8,4.1c-0.8,0.1-1.5-0.3-1.8-1c-0.6-1.1,0.2-2.5,1.4-2.6l32.8-3.9c0.8-0.1,1.5,0.3,1.8,1
		C256.8,253.3,256.1,254.4,255,254.6z"/>
	<path class="st5" d="M181.6,209.7l-17.5,2.2c-0.8,0.1-1.5-0.3-1.8-1c-0.6-1.1,0.2-2.5,1.4-2.6l17.5-1.9c0.8-0.1,1.5,0.3,1.8,1.1
		C183.3,208.5,182.7,209.6,181.6,209.7z"/>
	<path class="st5" d="M255,261.9l-17.5,2.2c-0.8,0.1-1.5-0.3-1.8-1c-0.6-1.1,0.2-2.5,1.4-2.6l17.5-1.9c0.8-0.1,1.5,0.3,1.8,1.1
		C256.8,260.6,256.1,261.7,255,261.9z"/>
</g>
</svg>
