<svg width="372" height="440" viewBox="0 0 372 440" fill="none" xmlns="http://www.w3.org/2000/svg">
<mask id="mask0_161_43610" style="mask-type:alpha" maskUnits="userSpaceOnUse" x="0" y="0" width="372" height="440">
<rect width="372" height="440" fill="#EBEDEE"/>
</mask>
<g mask="url(#mask0_161_43610)">
<g filter="url(#filter0_i_161_43610)">
<path d="M480.986 284.092V238.88H471.799V253.868H464.376V258.453H459.735V267.37H458.314V250.152H453.6V238.139H450.565V229.098H437.744V259.403H436.72V261.591H434.499V265.855H433.818V257.627H431.57V251.886H430.119V247.566H423.993V261.415H422.46V265.983H421.84V252.241H415.743V256.526H413.282V256.188H407.143V257.627H407.044V251.886H406.261V243.161H397.601V253.333H396.603V239.342H388.563V245.015H386.658V250.811H385.245V242.656H383.186V236.517H374.483V245.481H367.231V263.521H366.413V257.524H360.741V257.836H355.886V264.63H355.617V264.45H352.35V267.905H351.884V257.519H347.273V262.931H344.593V264.587H342.915V267.807H342.401V261.591H342.059V250.747H335.051V250.297H326.865V258.949H325.688V232.916H314.138V246.483H307.412V250.631H303.204V258.705H301.916V243.122H297.656V232.244H294.908V224.059H283.306V253.2H278.601V260.786H277.569V237.968H267.445V249.861H261.546V253.495H257.86V260.572H256.729V246.911H252.996V237.377H250.586V230.202H240.415V262.931H236.455V284.092H480.986Z" fill="url(#paint0_linear_161_43610)"/>
<path d="M255.368 199.636H157.26V277.199H255.368V199.636Z" fill="url(#paint1_linear_161_43610)"/>
<path d="M173.609 64.0562H113.461V277.204H173.609V64.0562Z" fill="url(#paint2_linear_161_43610)"/>
<path d="M143.54 139.385H78.4256V281.87H143.54V139.385Z" fill="url(#paint3_linear_161_43610)"/>
<path d="M104.706 160.991H52.1484V281.87H104.706V160.991Z" fill="url(#paint4_linear_161_43610)"/>
<path d="M94.7789 165.285H46.8915V277.199H94.7789V165.285Z" fill="url(#paint5_linear_161_43610)"/>
<path d="M49.811 114.277H17.6948V274.284H49.811V114.277Z" fill="url(#paint6_linear_161_43610)"/>
<path d="M27.6225 60.5503H-0.991852V277.2H27.6225V60.5503Z" fill="url(#paint7_linear_161_43610)"/>
<path d="M13 0H-47V274H13V0Z" fill="url(#paint8_linear_161_43610)"/>
<path d="M222.374 151.65H179.744V274.284H222.374V151.65Z" fill="url(#paint9_linear_161_43610)"/>
<path d="M247.774 163.911V155.152H242.226V142.891H235.804V155.152H229.965V163.911H220.911V284.207H258.87V163.911H247.774Z" fill="url(#paint10_linear_161_43610)"/>
<path d="M481.076 272.588H-194.468V317.967H481.076V272.588Z" fill="#73808A"/>
<path d="M480.991 301.729H-106.878V317.886H480.991V301.729Z" fill="#394A58"/>
<path d="M394.538 297.981H-293V451H394.538V297.981Z" fill="url(#paint11_linear_161_43610)"/>
<path d="M49.811 114.277H17.6948V117.779H49.811V114.277Z" fill="url(#paint12_linear_161_43610)"/>
<path d="M52.1484 193.694H19.8354V272.529H52.1484V193.694Z" fill="url(#paint13_linear_161_43610)"/>
<path d="M129.519 64.0562H113.461V139.389H129.519V64.0562Z" fill="url(#paint14_linear_161_43610)"/>
</g>
<path d="M141.586 378.446C140.552 380.512 127.057 420.526 120.438 440.275L26.1614 439.952C40.4213 413.262 71.1042 356.362 79.757 342.285C90.573 324.689 87.5058 313.712 86.2143 305.317C84.9229 296.923 81.2099 279.165 79.757 269.641C78.3041 260.116 81.8556 252.852 84.1157 247.686C86.3758 242.52 87.8286 234.448 88.9587 228.314C90.0887 222.179 93.1559 212.009 94.6088 209.103C96.0617 206.198 99.1289 204.906 102.519 203.776C105.231 202.872 109.03 201.032 110.591 200.225C111.398 198.933 113.787 195.543 116.886 192.314C120.761 188.279 124.474 188.279 126.088 187.794C127.38 187.407 128.456 187.956 128.833 188.279V209.103C127.81 211.74 125.216 217.789 123.021 220.888C120.825 223.988 117.371 225.731 115.918 226.215V233.157C115.918 235.901 114.304 240.26 113.496 244.134C112.689 248.009 113.658 248.17 115.111 249.3C116.564 250.43 119.147 247.847 123.021 244.134C126.12 241.164 130.232 236.17 131.093 235.255L223.432 310.645C213.154 320.976 191.21 342.963 185.657 348.258C178.715 354.877 164.509 364.563 160.796 367.307C157.083 370.052 151.11 371.827 147.882 373.926C144.653 376.025 142.877 375.863 141.586 378.446Z" fill="#D7DBDE"/>
<path d="M126.088 187.956C125.389 189.839 123.247 194.284 120.277 196.996C116.144 200.354 112.313 200.225 110.914 199.74C112.044 197.803 114.982 193.251 117.694 190.539C120.406 187.827 124.42 187.687 126.088 187.956Z" fill="#EBEDEE"/>
<path d="M113.174 250.269V246.556C114.142 249.462 115.918 249.784 117.532 248.816C119.147 247.847 120.115 246.556 123.667 243.004C126.508 240.163 129.478 237.3 130.608 236.224L217.62 304.51L216.006 318.393C205.89 319.846 183.429 322.913 174.518 323.559C165.607 324.205 139.272 325.55 127.218 326.142C127.38 324.366 127.832 319.975 128.348 316.617C128.994 312.42 127.702 295.631 127.218 290.95C126.734 286.268 122.375 273.192 119.631 265.766C116.887 258.34 113.174 250.914 113.174 250.269Z" fill="#C3C9CD"/>
<rect x="130.77" y="92.0649" width="115.909" height="223.1" rx="19" fill="#4B5C69"/>
<rect x="133.676" y="95.2935" width="109.451" height="216.642" rx="18" fill="white"/>
<path d="M218 299C219.104 299 220 298.104 220 297V287C220 285.896 219.104 285 218 285C198.667 285.001 179.333 285 160 285C158.895 285 158 285.895 158 287L158 297C158 298.105 158.895 299 160 299C179.333 299 198.667 298.999 218 299Z" fill="#E21A1A"/>
<path d="M240.176 141V120C240.176 118.895 239.28 118 238.176 118H138.176C137.071 118 136.176 118.895 136.176 120V141C136.176 142.105 137.071 143 138.176 143H238.176C239.28 143 240.176 142.105 240.176 141Z" fill="#9BA4AB"/>
<path d="M164.515 122.808H146.212C145.575 122.808 145.059 123.324 145.059 123.961V124.513C145.059 125.15 145.575 125.666 146.212 125.666H164.515C165.152 125.666 165.668 125.15 165.668 124.513V123.961C165.668 123.324 165.152 122.808 164.515 122.808Z" fill="#EBEDEE"/>
<path d="M164.736 132.982H145.989C145.739 132.982 145.501 132.883 145.324 132.707C145.148 132.531 145.049 132.292 145.049 132.043C145.049 131.794 145.148 131.555 145.324 131.379C145.501 131.202 145.739 131.104 145.989 131.104H164.736C164.985 131.104 165.224 131.202 165.4 131.379C165.576 131.555 165.675 131.794 165.675 132.043C165.675 132.292 165.576 132.531 165.4 132.707C165.224 132.883 164.985 132.982 164.736 132.982Z" fill="#EBEDEE"/>
<path d="M156.438 135.528H145.773C145.378 135.528 145.059 135.848 145.059 136.242V136.676C145.059 137.071 145.378 137.39 145.773 137.39H156.438C156.832 137.39 157.152 137.071 157.152 136.676V136.242C157.152 135.848 156.832 135.528 156.438 135.528Z" fill="#EBEDEE"/>
<path d="M178.175 135.528H160.94C160.446 135.528 160.046 135.928 160.046 136.423V136.495C160.046 136.99 160.446 137.39 160.94 137.39H178.175C178.669 137.39 179.07 136.99 179.07 136.495V136.423C179.07 135.928 178.669 135.528 178.175 135.528Z" fill="#EBEDEE"/>
<path d="M194.287 132.982H169.696C169.447 132.982 169.208 132.883 169.032 132.707C168.856 132.531 168.757 132.292 168.757 132.043C168.757 131.794 168.856 131.555 169.032 131.379C169.208 131.202 169.447 131.104 169.696 131.104H194.287C194.536 131.104 194.775 131.202 194.952 131.379C195.128 131.555 195.227 131.794 195.227 132.043C195.227 132.292 195.128 132.531 194.952 132.707C194.775 132.883 194.536 132.982 194.287 132.982Z" fill="#EBEDEE"/>
<path d="M182.354 122.808H169.21C168.664 122.808 168.221 123.25 168.221 123.796V124.677C168.221 125.223 168.664 125.666 169.21 125.666H182.354C182.9 125.666 183.342 125.223 183.342 124.677V123.796C183.342 123.25 182.9 122.808 182.354 122.808Z" fill="#EBEDEE"/>
<path d="M241.176 233C242.28 233 243.176 233.896 243.176 235V275C243.176 276.104 242.28 277 241.176 277C206.509 276.996 171.842 277 137.176 277C136.071 277 135.176 276.105 135.176 275L135.176 235C135.176 233.895 136.071 233 137.176 233C171.842 233 206.509 233.004 241.176 233Z" fill="#9BA4AB"/>
<path d="M193.476 241.446H173.439C172.741 241.446 172.175 242.012 172.175 242.71V243.311C172.175 244.009 172.741 244.575 173.439 244.575H193.476C194.174 244.575 194.739 244.009 194.739 243.311V242.71C194.739 242.012 194.174 241.446 193.476 241.446Z" fill="#EBEDEE"/>
<path d="M193.717 252.593H173.192C172.922 252.592 172.663 252.484 172.472 252.293C172.281 252.101 172.173 251.842 172.173 251.572C172.174 251.302 172.282 251.043 172.473 250.852C172.664 250.661 172.922 250.553 173.192 250.552H193.717C193.987 250.553 194.246 250.661 194.437 250.852C194.628 251.043 194.736 251.302 194.737 251.572C194.736 251.842 194.629 252.101 194.438 252.293C194.247 252.484 193.988 252.592 193.717 252.593Z" fill="#EBEDEE"/>
<path d="M194.545 293.041H174.019C173.749 293.04 173.49 292.932 173.299 292.74C173.108 292.549 173.001 292.29 173 292.019C173.001 291.749 173.109 291.491 173.3 291.3C173.491 291.109 173.749 291.001 174.019 291H194.545C194.815 291.001 195.073 291.109 195.264 291.3C195.455 291.491 195.563 291.749 195.564 292.019C195.563 292.29 195.456 292.549 195.265 292.74C195.074 292.932 194.815 293.04 194.545 293.041Z" fill="#EBEDEE"/>
<path d="M184.63 255.374H172.955C172.523 255.374 172.173 255.724 172.173 256.156V256.633C172.173 257.065 172.523 257.415 172.955 257.415H184.63C185.062 257.415 185.412 257.065 185.412 256.633V256.156C185.412 255.724 185.062 255.374 184.63 255.374Z" fill="#EBEDEE"/>
<path d="M208.43 255.374H189.56C189.02 255.374 188.581 255.813 188.581 256.353V256.433C188.581 256.974 189.02 257.413 189.56 257.413H208.43C208.971 257.413 209.409 256.974 209.409 256.433V256.353C209.409 255.813 208.971 255.374 208.43 255.374Z" fill="#EBEDEE"/>
<path d="M226.059 252.593H199.148C198.877 252.592 198.618 252.484 198.428 252.293C198.237 252.101 198.129 251.842 198.128 251.572C198.13 251.302 198.237 251.043 198.428 250.852C198.619 250.661 198.878 250.553 199.148 250.552H226.059C226.329 250.553 226.588 250.661 226.779 250.852C226.969 251.043 227.077 251.302 227.078 251.572C227.078 251.842 226.97 252.101 226.779 252.293C226.588 252.484 226.329 252.592 226.059 252.593Z" fill="#EBEDEE"/>
<path d="M193.717 262.239H173.192C172.922 262.238 172.663 262.131 172.472 261.94C172.281 261.749 172.173 261.49 172.173 261.22C172.173 260.949 172.281 260.69 172.472 260.499C172.663 260.308 172.922 260.201 173.192 260.2H193.717C193.988 260.201 194.247 260.308 194.438 260.499C194.629 260.69 194.736 260.949 194.737 261.22C194.736 261.49 194.629 261.749 194.438 261.94C194.247 262.131 193.988 262.238 193.717 262.239Z" fill="#EBEDEE"/>
<path d="M226.059 262.239H199.148C198.878 262.238 198.619 262.131 198.428 261.94C198.237 261.749 198.129 261.49 198.128 261.22C198.129 260.949 198.237 260.69 198.428 260.499C198.619 260.308 198.878 260.201 199.148 260.2H226.059C226.329 260.201 226.588 260.308 226.779 260.499C226.97 260.69 227.078 260.949 227.078 261.22C227.078 261.49 226.97 261.749 226.779 261.94C226.588 262.131 226.329 262.238 226.059 262.239Z" fill="#EBEDEE"/>
<path d="M193.717 267.265H173.192C172.922 267.265 172.663 267.157 172.472 266.966C172.281 266.775 172.173 266.516 172.173 266.246C172.173 265.976 172.281 265.717 172.472 265.526C172.663 265.335 172.922 265.227 173.192 265.227H193.717C193.988 265.227 194.247 265.335 194.438 265.526C194.629 265.717 194.736 265.976 194.737 266.246C194.736 266.516 194.629 266.775 194.438 266.966C194.247 267.157 193.988 267.265 193.717 267.265Z" fill="#EBEDEE"/>
<path d="M226.059 267.265H199.148C198.878 267.265 198.619 267.157 198.428 266.966C198.237 266.775 198.129 266.516 198.128 266.246C198.129 265.976 198.237 265.717 198.428 265.526C198.619 265.335 198.878 265.227 199.148 265.227H226.059C226.329 265.227 226.588 265.335 226.779 265.526C226.97 265.717 227.078 265.976 227.078 266.246C227.078 266.516 226.97 266.775 226.779 266.966C226.588 267.157 226.329 267.265 226.059 267.265Z" fill="#EBEDEE"/>
<path d="M213.007 241.446H198.617C198.019 241.446 197.534 241.931 197.534 242.529V243.492C197.534 244.09 198.019 244.575 198.617 244.575H213.007C213.605 244.575 214.09 244.09 214.09 243.492V242.529C214.09 241.931 213.605 241.446 213.007 241.446Z" fill="#EBEDEE"/>
<mask id="mask1_161_43610" style="mask-type:alpha" maskUnits="userSpaceOnUse" x="145" y="244" width="19" height="19">
<path d="M145.797 253.622C145.796 255.25 146.242 256.848 147.086 258.24C147.93 259.633 149.14 260.767 150.584 261.519C152.029 262.272 153.651 262.613 155.276 262.507C156.901 262.401 158.466 261.851 159.8 260.917C159.873 260.868 159.943 260.814 160.016 260.762C161.234 259.855 162.199 258.651 162.821 257.266C163.442 255.88 163.699 254.359 163.566 252.846C163.433 251.333 162.916 249.88 162.063 248.623C161.21 247.367 160.05 246.35 158.693 245.668C157.336 244.987 155.827 244.664 154.31 244.73C152.793 244.796 151.318 245.25 150.026 246.047C148.733 246.844 147.666 247.958 146.926 249.284C146.186 250.61 145.797 252.103 145.797 253.622Z" fill="white"/>
</mask>
<g mask="url(#mask1_161_43610)">
<path d="M145.797 253.622C145.796 255.25 146.242 256.848 147.086 258.24C147.93 259.633 149.14 260.767 150.584 261.519C152.029 262.272 153.651 262.613 155.276 262.507C156.901 262.401 158.466 261.851 159.8 260.917C159.873 260.868 159.943 260.814 160.016 260.762C161.234 259.855 162.199 258.651 162.821 257.266C163.442 255.88 163.699 254.359 163.566 252.846C163.433 251.333 162.916 249.88 162.063 248.623C161.21 247.367 160.05 246.35 158.693 245.668C157.336 244.987 155.827 244.664 154.31 244.73C152.793 244.796 151.318 245.25 150.026 246.047C148.733 246.844 147.666 247.958 146.926 249.284C146.186 250.61 145.797 252.103 145.797 253.622Z" fill="white"/>
<rect width="30.9735" height="7.80189" transform="matrix(-1 0 0 1 152.091 248.555)" fill="#EBEDEE"/>
<path d="M152.637 257.839L159.269 258.775V255.382L158.8 254.914C158.696 254.159 158.27 252.074 157.396 249.764C156.522 247.455 153.547 245.993 152.169 245.551V248.594H143.977C144.315 248.698 145.124 248.961 145.654 249.179C146.317 249.452 147.176 250.662 147.878 251.559C148.44 252.276 150.452 254.562 151.389 255.616C148.073 255.668 141.324 255.741 140.856 255.616C140.271 255.46 138.516 253.353 137.111 251.286C135.988 249.632 134.589 248.802 134.029 248.594H121.117C121.676 248.815 122.982 249.413 123.731 250.037C124.667 250.818 126.618 253.47 126.852 254.094C127.039 254.594 128.75 255.733 129.582 256.24L151.779 256.045L152.169 256.825L152.637 257.839Z" fill="#E21A1A"/>
<path d="M157.981 253.978L158.644 254.368V253.627L157.981 253.354V253.978Z" fill="#EBEDEE"/>
<path d="M155.992 248.75C156.724 249.574 157.59 251.632 157.957 252.623C157.973 252.667 158.005 252.702 158.046 252.723C158.18 252.79 158.332 252.676 158.3 252.53C158.114 251.683 157.702 250.194 157.084 248.984C156.934 248.69 156.736 248.411 156.509 248.15C155.96 247.517 155.435 248.123 155.992 248.75Z" fill="url(#paint15_linear_161_43610)"/>
<path d="M129.543 256.786H152.091L151.818 255.967L129.543 256.201V256.786Z" fill="#73808A"/>
<rect width="1.87245" height="2.18453" rx="0.936227" transform="matrix(-1 0 0 1 152.091 250.739)" fill="url(#paint16_linear_161_43610)"/>
<circle cx="1.59939" cy="1.59939" r="1.59939" transform="matrix(-1 0 0 1 151.31 257.372)" fill="#5F6E79"/>
<rect width="2.18453" height="1.95047" transform="matrix(-1 0 0 1 146.629 256.825)" fill="#5F6E79"/>
<path d="M148.814 257.839H147.176L145.576 258.659L143.899 257.839H142.261V259.79H148.814V257.839Z" fill="#5F6E79"/>
<path d="M152.051 245.942V248.594H121V245.356H121.585H147.37L148.502 247.307C148.463 246.956 148.494 246.23 148.931 246.137C149.477 246.02 151.193 245.942 151.661 245.942H152.051Z" fill="#73808A"/>
</g>
<path d="M134 112C134 102.611 141.611 95 151 95H226C235.389 95 243 102.611 243 112H134Z" fill="#E21A1A"/>
<rect x="144" y="102" width="4" height="4" rx="2" fill="#EBEDEE"/>
<rect x="154" y="102" width="36" height="4" rx="2" fill="#EBEDEE"/>
<rect x="221" y="102" width="11" height="4" rx="2" fill="#EBEDEE"/>
<path d="M246.678 159.867V187.149C249.315 185.588 255.848 181.595 260.884 178.109C267.18 173.75 270.57 170.36 275.252 165.678C279.933 160.997 278.48 156.315 275.252 152.602C272.023 148.889 266.05 150.019 260.884 151.957C256.752 153.506 249.692 157.876 246.678 159.867Z" fill="#AFB7BC"/>
<path d="M259.27 218.951C257.849 221.405 256.095 222.987 255.395 223.471C254.911 223.471 253.587 223.568 252.167 223.956C250.746 224.343 249.207 225.624 248.615 226.216H247.324C245.871 225.678 242.804 225.086 241.351 223.471C240.033 222.007 237.992 220.523 237.476 214.592C237.154 210.88 239.683 204.261 241.028 202.646C240.867 203.131 239.64 205.714 239.252 207.005C238.768 208.619 238.606 210.718 238.768 213.14C238.929 215.561 239.898 216.207 241.028 219.274L241.04 219.306C242.163 222.354 242.813 224.119 245.387 224.601C247.97 225.086 248.615 223.956 251.521 222.503C254.427 221.05 255.88 219.758 257.817 217.983C259.367 216.562 261.53 212.548 262.176 210.718C261.799 212.44 260.69 216.497 259.27 218.951Z" fill="#AFB7BC"/>
<path d="M257.494 283.04C255.04 285.752 249.369 289.658 246.84 291.273V288.206C244.741 289.066 240.834 291.208 237.477 290.95C233.279 290.627 229.082 286.914 227.952 282.394C227.048 278.778 231.073 273.569 233.118 272.385C232.257 273.354 230.374 275.775 229.728 277.712C228.921 280.134 229.405 280.134 231.019 283.685C232.311 286.527 235.432 288.528 236.831 289.174C237.746 289.228 239.963 289.206 241.512 288.69C243.062 288.173 245.71 286.86 246.84 286.268C248.669 285.031 253.265 281.91 257.01 279.327C260.324 277.041 261.523 275.43 261.792 274.716C261.814 274.635 261.835 274.557 261.853 274.484C261.847 274.546 261.827 274.623 261.792 274.716C261.295 276.554 259.844 280.443 257.494 283.04Z" fill="#AFB7BC"/>
<path d="M257.979 250.43C254.879 254.176 249.261 257.91 246.84 259.309V255.273C246.086 255.381 244.289 256.306 242.481 256.565C240.221 256.888 236.024 255.596 233.118 250.43C231.302 247.202 232.634 241.067 233.764 239.614L233.757 239.634C233.431 240.557 232.733 242.534 233.118 244.457C233.602 246.879 234.409 248.009 235.539 249.623C236.669 251.237 236.992 252.045 240.382 253.498C243.772 254.95 246.355 253.982 253.781 248.816C259.722 244.683 263.037 239.883 263.952 238C263.252 240.583 261.078 246.685 257.979 250.43Z" fill="#AFB7BC"/>
<path d="M247.97 285.461C238.122 291.757 236.185 289.336 231.988 285.461C226.499 278.681 230.858 274.322 234.409 271.255C237.961 268.188 247.97 260.762 253.62 259.309C259.27 257.856 262.014 265.928 262.337 271.255C262.66 276.582 257.817 279.165 247.97 285.461Z" fill="#D7DBDE"/>
<path d="M253.62 248.978C244.902 256.403 241.028 255.435 236.024 251.076C226.176 239.158 241.997 230.574 247.97 226.377C253.943 222.18 257.171 222.18 262.337 229.767C267.503 237.354 262.337 241.552 253.62 248.978Z" fill="#D7DBDE"/>
<path d="M249.584 223.794C244.257 227.184 239.898 221.211 238.768 214.108C237.477 199.902 249.584 193.606 253.62 194.736C257.656 195.866 263.79 200.063 262.337 209.265C260.884 218.467 254.911 220.404 249.584 223.794Z" fill="#D7DBDE"/>
<path d="M238.929 272.062C241.512 270.609 244.741 270.932 246.355 273.515C249.584 279.811 242.804 283.524 241.028 284.816C239.252 286.107 238.929 282.071 237.799 280.457C236.669 278.843 235.701 278.035 234.571 277.39C233.441 276.744 232.472 275.937 233.441 275.452C234.409 274.968 236.347 273.515 238.929 272.062Z" fill="#EBEDEE"/>
<path d="M247.97 248.332C244.58 251.399 245.064 249.3 245.064 248.332C245.064 244.268 239.898 240.906 237.799 240.26C235.701 239.614 235.539 239.13 236.347 238.323C237.154 237.516 238.929 235.902 241.351 234.449C243.772 232.996 249.1 230.574 252.49 235.902C255.858 241.195 251.417 245.214 248.034 248.274L247.97 248.332Z" fill="#EBEDEE"/>
<path d="M257.817 206.682C260.4 213.14 255.073 217.337 252.813 218.79C250.714 220.386 253.297 214.915 250.553 211.364C248.646 208.897 247.163 207.489 245.064 206.682C242.965 205.875 244.095 204.422 246.355 203.454C248.615 202.485 255.234 200.225 257.817 206.682Z" fill="#EBEDEE"/>
<path d="M68.6182 381.029C54.1538 410.604 43.3271 432.311 39.7218 439.468V439.952H26C42.0894 410.518 75.6243 349.259 81.0485 339.702C87.8286 327.756 87.9901 320.169 87.3443 313.228C86.8278 307.674 84.4386 294.77 83.3085 289.013C85.6224 297.73 90.573 317.037 91.8645 324.528C93.4788 333.891 86.6986 344.061 68.6182 381.029Z" fill="#C3C9CD"/>
<path d="M128.025 379.253C128.51 377.8 119.308 373.926 110.268 366.823C107.039 364.415 96.546 356.169 98.3218 358.913C100.098 361.657 108.331 369.567 114.304 372.958C120.277 376.348 127.541 380.706 128.025 379.253Z" fill="#C3C9CD"/>
<path d="M305.117 409.441C304.6 417.706 314.157 432.687 319 439.145V440.275H231.342C223.001 434.409 205.158 421.549 200.508 417.028C194.697 411.378 192.114 400.401 188.724 395.719C185.334 391.038 176.455 382.32 173.711 379.253C170.966 376.186 169.191 371.182 166.769 367.792C164.832 365.079 160.043 358.159 157.89 355.038C159.558 352.993 163.444 348.743 165.639 348.097C168.383 347.29 176.132 350.357 183.074 356.653C190.015 362.949 200.186 377.962 208.096 384.903C216.006 391.845 214.392 371.666 214.069 358.267C213.746 344.868 209.71 323.882 208.096 313.712C206.481 303.541 199.54 280.134 197.926 272.223C196.311 264.313 198.087 260.762 204.706 258.179C211.324 255.596 212.616 262.376 215.683 270.609C218.137 277.196 227.145 306.501 231.342 320.33C231.773 316.133 232.763 306.77 233.279 302.896C233.925 298.053 237.315 294.662 244.58 292.725C250.391 291.176 254.535 300.582 255.557 305.156C258.14 301.766 261.098 298.86 269.117 298.86C277.027 298.86 278.158 310.268 278.965 316.94C280.956 315.272 286.1 312.033 290.749 312.42C296.561 312.904 297.529 325.98 298.337 332.922C299.144 339.864 304.148 350.68 305.117 355.038C306.085 359.397 306.247 371.827 307.538 382.32C308.83 392.813 305.762 399.109 305.117 409.441Z" fill="#D7DBDE"/>
<path d="M225.208 309.514C225.53 310.483 221.495 312.097 218.589 312.905C216.652 313.227 211.486 313.227 211.486 312.582C211.486 311.936 214.714 312.582 218.589 311.936C222.463 311.29 224.885 308.546 225.208 309.514Z" fill="#C3C9CD"/>
<path d="M221.495 306.932C221.636 307.497 218.912 308.869 217.298 309.192C215.619 309.579 212.616 309.999 212.616 308.708C212.616 308.223 213.746 308.546 216.813 308.062C219.88 307.577 221.172 305.64 221.495 306.932Z" fill="#C3C9CD"/>
<path d="M179.2 378.123C178.419 379.165 176.94 381.675 176.133 380.706C175.864 380.383 177.077 379.738 178.231 377.962C180.329 374.733 179.37 371.42 180.169 371.02C181.932 370.138 180.169 376.832 179.2 378.123Z" fill="#C3C9CD"/>
<path d="M215.522 282.071C215.522 282.717 212.939 282.071 210.194 282.717C206.966 283.524 206.159 284.977 205.836 284.493C205.513 284.009 207.45 282.071 210.194 281.587C212.939 281.103 215.522 281.426 215.522 282.071Z" fill="#C3C9CD"/>
<path d="M177.262 373.926C177.101 374.733 176.939 375.702 175.809 377.316C175.387 377.962 174.357 378.769 173.872 378.446C173.388 378.123 174.679 376.993 175.164 376.348C175.648 375.702 176.132 374.895 176.132 373.926C176.132 372.957 177.424 373.119 177.262 373.926Z" fill="#C3C9CD"/>
<path d="M280.902 329.855C280.256 327.66 279.234 320.331 278.803 316.941L279.61 316.295C279.879 318.232 280.514 322.752 280.902 325.335C281.386 328.564 282.839 333.891 283.162 334.537C283.485 335.183 283.808 337.12 283.162 337.281C282.516 337.443 281.709 332.6 280.902 329.855Z" fill="#C3C9CD"/>
<path d="M208.419 270.771C209.71 270.513 209.495 269.479 209.226 268.995C208.311 268.457 206.029 267.058 204.221 265.766C201.961 264.152 199.701 261.246 199.378 261.408C199.056 261.569 199.056 261.892 198.733 262.376C198.41 262.861 199.056 265.444 200.993 268.349C202.93 271.255 206.804 271.094 208.419 270.771Z" fill="#C3C9CD"/>
<path d="M165.801 353.747C165.026 352.585 164.509 353.371 164.348 354.07C164.24 354.77 164.025 356.588 164.025 358.267C164.025 360.366 162.572 361.496 162.895 362.303C163.153 362.949 163.971 363.756 164.348 364.079C164.563 363.917 165.335 363.899 165.801 363.433C166.446 362.787 167.271 361.949 167.415 360.366C167.576 358.59 166.769 355.2 165.801 353.747Z" fill="#C3C9CD"/>
<path d="M234.571 332.923C233.925 330.824 231.019 320.331 231.181 320.008C231.45 316.241 232.246 307.481 233.279 302.573C234.312 297.666 238.337 294.932 240.221 294.179C239.414 294.932 237.477 296.794 236.185 298.215C234.571 299.99 234.571 302.412 234.571 306.77V306.77C234.571 311.129 235.378 315.649 236.185 320.008C236.992 324.367 237.315 338.088 236.669 338.088C236.024 338.088 235.216 335.021 234.571 332.923Z" fill="#C3C9CD"/>
<path d="M231.342 430.091C240.253 434.482 242.965 438.499 246.678 440.275L231.342 440.598C225.423 436.185 212.035 426.295 205.836 422.033C199.637 417.771 197.495 414.123 196.634 411.863C198.141 413.316 203.835 418.014 207.127 419.597C214.876 423.325 220.203 424.602 231.342 430.091Z" fill="#C3C9CD"/>
<path d="M213.907 390.715C206.159 391.49 199.379 381.19 198.248 374.41C201.961 378.607 209.226 387.163 211.486 386.195C215.481 384.483 213.907 365.209 213.746 354.877C213.658 349.227 211.325 333.245 210.517 328.079C212.401 334.052 216.458 347.935 217.62 355.684C219.073 365.37 223.593 389.746 213.907 390.715Z" fill="#C3C9CD"/>
<path d="M164.509 353.908C166.769 356.975 166.285 360.527 165.316 361.98C163.541 365.531 157.245 358.751 155.469 357.137C153.693 355.523 155.63 353.585 157.729 351.487C159.828 349.388 162.249 350.841 164.509 353.908Z" fill="#EBEDEE"/>
<path d="M211.002 261.73C212.455 266.089 211.325 268.188 208.257 269.802C203.737 270.448 201.477 268.188 199.701 263.829C197.926 259.47 199.701 257.049 203.576 255.596C207.45 254.143 209.549 257.372 211.002 261.73Z" fill="#EBEDEE"/>
<path d="M259.431 321.784C260.4 326.304 262.014 333.084 261.369 333.245C260.4 333.245 259.431 327.272 258.463 323.075C257.688 319.717 256.257 309.515 255.557 304.995C256.041 304.349 257.25 302.757 258.786 301.605C260.723 300.152 263.306 299.452 264.92 299.183C263.467 300.098 260.045 302.476 257.978 305.318C255.396 308.869 258.463 317.264 259.431 321.784Z" fill="#C3C9CD"/>
<path d="M70.7325 151.003H209.674C214.221 151.003 217.907 154.689 217.907 159.235V214.883C217.907 219.43 214.221 223.116 209.674 223.116H70.7325C66.1858 223.116 62.5 219.43 62.5 214.883V159.235C62.5 154.689 66.1858 151.003 70.7325 151.003Z" fill="#5F6E79" stroke="#EBEDEE"/>
<mask id="mask2_161_43610" style="mask-type:alpha" maskUnits="userSpaceOnUse" x="76" y="161" width="47" height="46">
<path d="M122.111 184.298C122.121 189.3 120.469 194.163 117.413 198.123C116.434 199.392 115.324 200.555 114.102 201.592C110.162 204.928 105.201 206.82 100.04 206.953C94.8791 207.086 89.8273 205.453 85.7207 202.324C81.6141 199.196 78.6988 194.758 77.4574 189.747C76.216 184.736 76.7228 179.451 78.894 174.767C81.0652 170.083 84.7706 166.281 89.397 163.99C94.0234 161.698 99.2935 161.055 104.335 162.167C109.377 163.279 113.888 166.078 117.121 170.103C120.355 174.127 122.118 179.135 122.118 184.298H122.111Z" fill="white"/>
</mask>
<g mask="url(#mask2_161_43610)">
<path d="M122.111 184.298C122.121 189.3 120.469 194.163 117.413 198.123C116.434 199.392 115.324 200.555 114.102 201.592C110.162 204.928 105.201 206.82 100.04 206.953C94.8791 207.086 89.8273 205.453 85.7207 202.324C81.6141 199.196 78.6988 194.758 77.4574 189.747C76.216 184.736 76.7228 179.451 78.894 174.767C81.0652 170.083 84.7706 166.281 89.397 163.99C94.0234 161.698 99.2935 161.055 104.335 162.167C109.377 163.279 113.888 166.078 117.121 170.103C120.355 174.127 122.118 179.135 122.118 184.298H122.111Z" fill="white"/>
<path d="M240.156 166.113V193.188H83.3401C83.4267 192.885 83.6 192.625 83.8599 192.408C106.776 164.337 132.421 164.77 132.421 164.77H238.813C239.549 164.814 240.156 165.42 240.156 166.113Z" fill="white"/>
<path opacity="0.4" d="M124.927 165.723C124.927 165.723 123.151 169.838 115.57 174.733C104.913 181.621 95.4698 180.581 95.4698 180.581C106.949 170.921 117.952 167.152 124.927 165.723Z" fill="#D7DBDE"/>
<path d="M84.6392 194.747C84.6392 194.747 104.133 177.722 136.362 171.614C150.701 169.015 162.441 169.752 166.556 169.752C170.671 169.752 240.112 169.752 240.112 169.752V193.62L84.6392 194.747Z" fill="white"/>
<path d="M240.156 193.231V194.834C240.156 195.657 239.463 196.35 238.64 196.35H85.9826C83.5567 195.96 82.8636 194.444 83.2968 193.274H240.156V193.231Z" fill="#5AA0D1"/>
<path d="M94.863 188.422C94.863 188.422 105.563 184.09 123.194 183.613C140.825 183.137 240.156 183.613 240.156 183.613V185.909H123.237C123.237 185.909 106.213 185.519 94.863 188.422Z" fill="#E21A1A"/>
<path d="M107.296 178.762C107.296 178.762 94.9498 182.79 88.3653 187.296C92.3507 183.137 95.4696 180.581 95.4696 180.581C95.4696 180.581 101.708 180.928 107.296 178.762Z" fill="#E21A1A"/>
<path d="M91.7874 196.305C91.7874 196.305 91.7874 198.081 89.8813 198.081C94.1266 198.081 104.177 198.081 104.177 198.081L104.87 196.305H91.7874Z" fill="#E21A1A"/>
<path d="M232.661 196.305L231.968 198.081C231.968 198.081 107.988 198.081 106.212 198.081L106.905 196.305H232.661Z" fill="#D7DBDE"/>
</g>
<path d="M163.375 168.863H137.631C136.734 168.863 136.008 169.589 136.008 170.486V171.261C136.008 172.157 136.734 172.884 137.631 172.884H163.375C164.271 172.884 164.998 172.157 164.998 171.261V170.486C164.998 169.589 164.271 168.863 163.375 168.863Z" fill="white"/>
<path d="M163.685 187.333H137.314C136.966 187.331 136.634 187.192 136.389 186.947C136.143 186.701 136.005 186.369 136.003 186.022C136.004 185.675 136.143 185.342 136.388 185.097C136.634 184.851 136.966 184.713 137.314 184.711H163.682C164.03 184.713 164.362 184.851 164.608 185.097C164.853 185.342 164.992 185.675 164.993 186.022C164.992 186.369 164.854 186.701 164.609 186.947C164.364 187.192 164.031 187.331 163.685 187.333Z" fill="white"/>
<path d="M152.014 190.915H137.011C136.457 190.915 136.008 191.364 136.008 191.918V192.533C136.008 193.087 136.457 193.536 137.011 193.536H152.014C152.568 193.536 153.017 193.087 153.017 192.533V191.918C153.017 191.364 152.568 190.915 152.014 190.915Z" fill="white"/>
<path d="M182.59 190.915H158.346C157.651 190.915 157.087 191.479 157.087 192.174V192.277C157.087 192.973 157.651 193.536 158.346 193.536H182.59C183.285 193.536 183.848 192.973 183.848 192.277V192.174C183.848 191.479 183.285 190.915 182.59 190.915Z" fill="white"/>
<path d="M205.238 187.333H170.665C170.318 187.331 169.985 187.193 169.74 186.947C169.494 186.702 169.356 186.369 169.354 186.022C169.356 185.675 169.494 185.342 169.74 185.097C169.985 184.851 170.318 184.713 170.665 184.711H205.238C205.585 184.713 205.918 184.851 206.163 185.097C206.409 185.342 206.547 185.675 206.548 186.022C206.547 186.369 206.408 186.701 206.163 186.947C205.917 187.192 205.585 187.331 205.238 187.333Z" fill="white"/>
<path d="M163.685 199.737H137.314C136.966 199.735 136.634 199.597 136.388 199.351C136.143 199.106 136.004 198.773 136.003 198.426C136.003 198.078 136.141 197.744 136.386 197.498C136.632 197.251 136.965 197.112 137.314 197.111H163.682C164.03 197.112 164.362 197.251 164.608 197.496C164.853 197.742 164.992 198.074 164.993 198.421C164.993 198.769 164.855 199.103 164.61 199.349C164.365 199.595 164.032 199.735 163.685 199.737Z" fill="white"/>
<path d="M205.238 199.737H170.665C170.318 199.735 169.985 199.597 169.74 199.351C169.494 199.106 169.356 198.773 169.354 198.426C169.354 198.078 169.492 197.744 169.738 197.498C169.984 197.251 170.317 197.112 170.665 197.111H205.238C205.585 197.112 205.918 197.251 206.163 197.496C206.409 197.742 206.547 198.074 206.548 198.421C206.548 198.769 206.411 199.103 206.165 199.35C205.919 199.596 205.586 199.735 205.238 199.737Z" fill="white"/>
<path d="M188.468 168.863H169.979C169.211 168.863 168.589 169.485 168.589 170.253V171.493C168.589 172.261 169.211 172.884 169.979 172.884H188.468C189.236 172.884 189.859 172.261 189.859 171.493V170.253C189.859 169.485 189.236 168.863 188.468 168.863Z" fill="white"/>
</g>
<defs>
<filter id="filter0_i_161_43610" x="-293" y="0" width="774.076" height="451" filterUnits="userSpaceOnUse" color-interpolation-filters="sRGB">
<feFlood flood-opacity="0" result="BackgroundImageFix"/>
<feBlend mode="normal" in="SourceGraphic" in2="BackgroundImageFix" result="shape"/>
<feColorMatrix in="SourceAlpha" type="matrix" values="0 0 0 0 0 0 0 0 0 0 0 0 0 0 0 0 0 0 127 0" result="hardAlpha"/>
<feOffset dx="1"/>
<feComposite in2="hardAlpha" operator="arithmetic" k2="-1" k3="1"/>
<feColorMatrix type="matrix" values="0 0 0 0 1 0 0 0 0 1 0 0 0 0 1 0 0 0 1 0"/>
<feBlend mode="normal" in2="shape" result="effect1_innerShadow_161_43610"/>
</filter>
<linearGradient id="paint0_linear_161_43610" x1="358.72" y1="318.725" x2="358.72" y2="146.658" gradientUnits="userSpaceOnUse">
<stop stop-color="#EBEDEE"/>
<stop offset="1" stop-color="#AFB7BC"/>
</linearGradient>
<linearGradient id="paint1_linear_161_43610" x1="206.312" y1="93.2354" x2="206.312" y2="262.961" gradientUnits="userSpaceOnUse">
<stop stop-color="#EBEDEE"/>
<stop offset="1" stop-color="#9BA4AB"/>
</linearGradient>
<linearGradient id="paint2_linear_161_43610" x1="143.535" y1="36.0241" x2="143.535" y2="265.782" gradientUnits="userSpaceOnUse">
<stop stop-color="#EBEDEE"/>
<stop offset="1" stop-color="#4B5C69"/>
</linearGradient>
<linearGradient id="paint3_linear_161_43610" x1="110.983" y1="-33.3199" x2="110.983" y2="319.556" gradientUnits="userSpaceOnUse">
<stop stop-color="#EBEDEE"/>
<stop offset="1" stop-color="#73808A"/>
</linearGradient>
<linearGradient id="paint4_linear_161_43610" x1="78.4253" y1="43.6871" x2="78.4253" y2="306.901" gradientUnits="userSpaceOnUse">
<stop stop-color="#EBEDEE"/>
<stop offset="1" stop-color="#4B5C69"/>
</linearGradient>
<linearGradient id="paint5_linear_161_43610" x1="70.8352" y1="129.847" x2="70.8352" y2="246.65" gradientUnits="userSpaceOnUse">
<stop stop-color="#EBEDEE"/>
<stop offset="1" stop-color="#4B5C69"/>
</linearGradient>
<linearGradient id="paint6_linear_161_43610" x1="33.7529" y1="41.3883" x2="33.7529" y2="322.771" gradientUnits="userSpaceOnUse">
<stop stop-color="#EBEDEE"/>
<stop offset="1" stop-color="#87929B"/>
</linearGradient>
<linearGradient id="paint7_linear_161_43610" x1="13.3153" y1="46.5343" x2="13.3153" y2="236.581" gradientUnits="userSpaceOnUse">
<stop stop-color="#EBEDEE"/>
<stop offset="1" stop-color="#73858A"/>
</linearGradient>
<linearGradient id="paint8_linear_161_43610" x1="-17" y1="-108.152" x2="-17" y2="385.64" gradientUnits="userSpaceOnUse">
<stop stop-color="#EBEDEE"/>
<stop offset="1" stop-color="#4B5C69"/>
</linearGradient>
<linearGradient id="paint9_linear_161_43610" x1="201.059" y1="128.678" x2="201.059" y2="283.107" gradientUnits="userSpaceOnUse">
<stop stop-color="#EBEDEE"/>
<stop offset="1" stop-color="#5F6E79"/>
</linearGradient>
<linearGradient id="paint10_linear_161_43610" x1="239.893" y1="103.472" x2="239.893" y2="253.607" gradientUnits="userSpaceOnUse">
<stop stop-color="#EBEDEE"/>
<stop offset="1" stop-color="#87929B"/>
</linearGradient>
<linearGradient id="paint11_linear_161_43610" x1="90.5175" y1="439.627" x2="8.34786" y2="295.223" gradientUnits="userSpaceOnUse">
<stop stop-color="#FAFCFD"/>
<stop offset="1" stop-color="#C3C9CD"/>
</linearGradient>
<linearGradient id="paint12_linear_161_43610" x1="33.7529" y1="-87.3202" x2="33.7529" y2="379.896" gradientUnits="userSpaceOnUse">
<stop stop-color="#EBEDEE"/>
<stop offset="1" stop-color="#87929B"/>
</linearGradient>
<linearGradient id="paint13_linear_161_43610" x1="35.9919" y1="5.75734" x2="35.9919" y2="377.782" gradientUnits="userSpaceOnUse">
<stop stop-color="#EBEDEE"/>
<stop offset="1" stop-color="#87929B"/>
</linearGradient>
<linearGradient id="paint14_linear_161_43610" x1="121.492" y1="-78.1462" x2="121.492" y2="387.752" gradientUnits="userSpaceOnUse">
<stop stop-color="#D7DBDE"/>
<stop offset="1" stop-color="#87929B"/>
</linearGradient>
<linearGradient id="paint15_linear_161_43610" x1="156.07" y1="246.176" x2="156.07" y2="252.885" gradientUnits="userSpaceOnUse">
<stop stop-color="#D2D7DA"/>
<stop offset="1" stop-color="#73808A"/>
</linearGradient>
<linearGradient id="paint16_linear_161_43610" x1="0.936227" y1="0" x2="0.936227" y2="2.18453" gradientUnits="userSpaceOnUse">
<stop stop-color="#D2D7DA"/>
<stop offset="1" stop-color="#73808A"/>
</linearGradient>
</defs>
</svg>
