<?xml version="1.0" encoding="utf-8"?>
<!-- Generator: Adobe Illustrator 24.3.0, SVG Export Plug-In . SVG Version: 6.00 Build 0)  -->
<svg version="1.1" id="Слой_1" xmlns="http://www.w3.org/2000/svg" xmlns:xlink="http://www.w3.org/1999/xlink" x="0px" y="0px"
	 viewBox="0 0 372 440" style="enable-background:new 0 0 372 440;" xml:space="preserve">
<style type="text/css">
	.st0{fill:#EBEDEE;}
	.st1{clip-path:url(#SVGID_2_);fill:#87929B;}
	.st2{clip-path:url(#SVGID_2_);fill:#D7DBDE;}
	.st3{clip-path:url(#SVGID_2_);}
	.st4{fill:#D7DBDE;}
	.st5{fill:#73808A;}
	.st6{opacity:0.7;fill:#73808A;enable-background:new    ;}
	.st7{fill:#5F6E79;}
	.st8{fill:#E21A1A;}
	.st9{fill:#9BA4AB;}
	.st10{fill:#358EBF;}
	.st11{clip-path:url(#SVGID_2_);fill:#C3C9CD;}
	.st12{clip-path:url(#SVGID_2_);fill:#5F6E79;}
	.st13{clip-path:url(#SVGID_2_);fill:none;stroke:#D7DBDE;stroke-width:10;}
	.st14{clip-path:url(#SVGID_2_);fill:none;stroke:#FFFFFF;stroke-width:20;}
	.st15{clip-path:url(#SVGID_2_);fill:none;stroke:#D7DBDE;stroke-width:20;}
	.st16{opacity:0.7;clip-path:url(#SVGID_2_);fill:#D7DBDE;enable-background:new    ;}
	.st17{opacity:0.5;clip-path:url(#SVGID_2_);fill:#394A58;enable-background:new    ;}
	.st18{clip-path:url(#SVGID_2_);fill:#394A58;}
	.st19{opacity:0.4;clip-path:url(#SVGID_2_);}
	.st20{fill:#394A58;}
	.st21{clip-path:url(#SVGID_2_);fill:#9BA4AB;}
	.st22{clip-path:url(#SVGID_2_);fill:url(#SVGID_3_);}
	.st23{clip-path:url(#SVGID_2_);fill:#AFB7BC;}
	.st24{clip-path:url(#SVGID_2_);fill:#FFFFFF;}
	.st25{clip-path:url(#SVGID_2_);fill:#73808A;}
	.st26{clip-path:url(#SVGID_2_);fill:#EBEDEE;}
	.st27{fill:#87929B;}
	.st28{clip-path:url(#SVGID_2_);fill:#4B5C69;}
	.st29{opacity:0.5;clip-path:url(#SVGID_2_);}
	.st30{fill:#4B5C69;}
	.st31{opacity:0.3;clip-path:url(#SVGID_2_);fill:#FFFFFF;enable-background:new    ;}
	.st32{fill:#C3C9CD;}
</style>
<g>
	<defs>
		<rect id="SVGID_1_" y="0" width="372" height="440"/>
	</defs>
	<clipPath id="SVGID_2_">
		<use xlink:href="#SVGID_1_"  style="overflow:visible;"/>
	</clipPath>
	<rect y="0" class="st0" width="372" height="440"/>
	<path class="st1" d="M0,311h372v14H0V311z"/>
	<path class="st2" d="M0,328h372v14H0V328z"/>
	<g class="st3">
		<path class="st0" d="M397.9,275.6v57.7H33.7c0.2-0.7,1.4-8,3.4-9.5c36.3-57,131-51.1,131-51.1h227
			C396.6,272.8,397.9,274,397.9,275.6z"/>
		<path class="st4" d="M66.3,336.7c0,0,41.6-36.3,110.2-49.3c30.5-5.4,55.6-4,64.3-4s156.9,0,156.9,0v50.8L66.3,336.7z"/>
		<path class="st5" d="M202.3,306.5h-25.4l-3.1-10.7c7.8-1.5,16.7-3,26.7-4L202.3,306.5z"/>
		<path class="st5" d="M236.9,290.9v15.8c0,0-55.3,0-71.3,0s-28.5,1.2-28.5,1.2l30.5-11c9.5-2.5,37-7,56.4-6H236.9z"/>
		<path class="st5" d="M234.6,290.9h38v16h-38V290.9z"/>
		<path class="st5" d="M272.6,290.9h36v16h-36V290.9z"/>
		<path class="st5" d="M308.6,290.9h36v16h-36V290.9z"/>
		<path class="st5" d="M343.6,290.9h37v16h-37V290.9z"/>
		<path class="st6" d="M174.1,273.4c0,0-32.3,4.1-48.5,14.5c-54,14-55.5,8.5-55.5,8.5C94.7,275.9,148.6,272.4,174.1,273.4z"/>
		<path class="st0" d="M366.2,266.9H261.1c-12.7,0-14.7,5.9-14.7,5.9h134.5C380.9,272.8,378.9,266.9,366.2,266.9z"/>
		<path class="st7" d="M397.8,333.3v3.2c0,1.8-1.6,3.1-3.4,3.1H39.8c-5.6-0.8-7.2-4-6.3-6.5h364.4V333.3z"/>
		<path class="st8" d="M121.1,289.9c0,0-67,20.5-79,43.5c-3.3,0-8,0-8,0c0-3-0.1-9.5,2.1-12.2C46.9,308.1,66.4,296,66.4,296
			S72.1,304.4,121.1,289.9z"/>
		<path class="st9" d="M381.6,339.9l-1.9,4c0,0-328.8,0-333.6,0l-4.6-4H381.6z"/>
		<path class="st10" d="M90.1,322.4c0,0,24.9-11.5,62.5-12.5c37.6-1,245.3,0,245.3,0v4.9H152.6C152.6,314.9,114.2,316.3,90.1,322.4z
			"/>
		<path class="st8" d="M88.3,323.1c0,0,22.8-9.2,60.4-10.2c37.6-1,249.3,0,249.3,0v4.9H148.6C148.6,317.9,112.3,317,88.3,323.1z"/>
	</g>
	<path class="st1" d="M0,342h372v23H0V342z"/>
	<path class="st11" d="M0,360.3h372V440H0V360.3z"/>
	<path class="st12" d="M282.4,47.6c-45.5,74.4-78.3,176.5,27.1,320.3v25.6h1099.1V368V117.7c-177.5,11.1-298.5,9.8-412.9-17.4
		C773.6,47.6,756.5-27.8,535.8-42.1l-1.1-0.1C458-47.1,344.7-54.4,282.4,47.6z"/>
	<path class="st13" d="M253.9,221.3h-25l-57.6,35.3H88.6L41,276.8h-67.6"/>
	<path class="st14" d="M312.3,369.4c-105.4-143.8-72.5-245.9-27.1-320.3c62.6-102.5,176.7-94.6,253.4-89.7
		C703.8-30,776.4,49.1,998.5,101.7c124.2,29.4,256.3,28.5,459.9,14.2"/>
	<path class="st15" d="M309.4,368c-105.4-143.8-72.5-245.9-27.1-320.3C345-54.9,459.1-47,535.8-42.1
		c165.2,10.7,237.8,89.7,459.9,142.4c124.2,29.4,256.3,28.5,459.9,14.2"/>
	<g class="st3">
		<path class="st0" d="M185.2,237.3c-5.7,3-15.7,10.2-17.1,20.9c-1.4,10.7-4.8,34.9-4.8,34.9c-4.2,21.8-15.2,62.9-15.9,70.2H193
			V249.1L185.2,237.3z"/>
	</g>
	<path class="st16" d="M178.4,280.5c-4.9,20.7-7.5,32.4-8.2,36.8c-0.8,4.4,6.5,25.7,6.5,25.7s-7.3,5.6-7.9,5.5c-0.6,0-4.2-0.9-6,0.6
		c-1.9,1.5-7.1,8.2-7.1,8.2h39v-76.8H178.4z"/>
	<g class="st3">
		<path class="st5" d="M308.1,177.4c0,5.5-1.6,11-4.7,15.6c-3.1,4.6-7.4,8.2-12.6,10.3c-5.1,2.1-10.7,2.7-16.2,1.6
			c-5.4-1.1-10.4-3.7-14.3-7.7c-3.9-3.9-6.6-8.9-7.7-14.3c-1.1-5.4-0.5-11.1,1.6-16.2c2.1-5.1,5.7-9.5,10.3-12.6
			c4.6-3.1,10-4.7,15.6-4.7c7.4,0,14.5,3,19.8,8.2C305.1,162.9,308,170,308.1,177.4z"/>
	</g>
	<path class="st17" d="M252.1,177.4c0,4.4,1,8.7,3,12.6c2,3.9,4.8,7.3,8.3,9.9c14.3-14.4,24.2-41.3,24.2-41.3l-6.9-9.1h-0.6
		c-3.7,0-7.3,0.7-10.7,2.1c-3.4,1.4-6.5,3.5-9.1,6.1c-2.6,2.6-4.7,5.7-6.1,9.1C252.8,170.1,252.1,173.7,252.1,177.4z"/>
	<path class="st18" d="M319.8,394.5H184.1c0,0-8.4,43-12.3,127.2H352C352,521.7,344,455.9,319.8,394.5z"/>
	<g class="st19">
		<path class="st20" d="M322.7,402c-0.9-2.5-1.9-5-2.9-7.5H184.1c0,0-0.6,2.9-1.5,8.6C206.6,410.5,242.7,415.2,322.7,402z"/>
	</g>
	<path class="st11" d="M185,395.6c0,0,59.3,4.3,115.4,0l2.4-165.9l-25.9-11.2l-59.8,4L204.6,238L185,395.6z"/>
	<path class="st21" d="M287.8,260.2c-1.1,4.5-30.9,23.1-51,31.9l1.1-13.2l-2-0.2l-1.1,13c-14.6-11.8-30.4-27.8-32.6-34.3l-0.4,3.6
		c5.4,9,21.3,23.9,32.8,33.1c-0.5,5.6-4.8,54.2-4.2,103.3h2c-0.6-48.8,3.6-97.2,4.2-103.1c18.3-7.9,51.7-27.6,53.1-33.7
		c0.9-3.8-1.4-25-3-37.9l-2.1-0.9C286.3,236.1,288.6,256.9,287.8,260.2z"/>
	
		<linearGradient id="SVGID_3_" gradientUnits="userSpaceOnUse" x1="246.4835" y1="284.6203" x2="246.4835" y2="148.3383" gradientTransform="matrix(1 0 0 -1 0 442.0013)">
		<stop  offset="0" style="stop-color:#E1E1E1"/>
		<stop  offset="0.6927" style="stop-color:#F7F9FB"/>
	</linearGradient>
	<path class="st22" d="M266.9,157.4c0,0-1.4,10.6-2,21.7c-0.6,11.1-0.7,22.1,0.2,25.2c0.9,3.1,7.1,10.7,15,13.6
		c-11,22.1-44.4,75.8-44.4,75.8l-22.9-71.7c0,0,10.3-7.1,12.6-9.4c2.3-2.3,2.8-4.8,2.8-8.2s-3.4-46.9-3.4-46.9L266.9,157.4z"/>
	<path class="st23" d="M267.9,169.8v-12.4H231c0,0,3.4,43.5,3.4,46.9c0.1,2.1-0.3,4.3-1.2,6.2c3.3,3,6.5,4.5,8.2,4
		C245,213.4,261.8,191.2,267.9,169.8z"/>
	<g class="st3">
		<path class="st0" d="M271.7,212.8c0,0-12.6,85.1-14.9,155.9c-2.3,70.7-1.7,85.1-1.5,94.2c0.2,9.1,6.8,18.2,25.2,18.4
			c26.7,0.3,59.1-5.4,62.1-6.2c3-0.8,3.8-3.1,2.6-6.2c-1.1-3.1-32.7-99.8-32.7-99.8s17.7-112.4,19-118.8c1.2-6.4,0.2-11.4-4.5-13.6
			C322.3,234.5,271.7,212.8,271.7,212.8z"/>
	</g>
	<path class="st16" d="M312.6,369c0,0,4.4-27.9,9-56.7l-61.7,5.2c-1.4,17-2.5,34.5-3,51.1c-0.1,4.8-0.3,9.3-0.4,13.6
		c6.6-0.6,20.1-1.9,23.7-2.4c11,1.8,17.6,3,24.5,1.8c2.8-0.5,7.3-1.1,11.7-1.6C314,373.3,312.6,369,312.6,369z"/>
	<g class="st3">
		<path class="st0" d="M217.6,218.5c0,0-7.9,58-10.4,121.7c-2.5,63.7-4.3,117.5-4.3,122.8s-4.4,15.6-12.3,15.6
			c-5.7,0-11.4-0.7-17-2.1c-1.6-0.5-1.9-2-1.9-5.3c0-3.3,12.3-122.6,12.3-122.6c-6.1-16.5-10.3-29.9-10-36.2
			c0.2-6.3,11.2-75.1,11.2-75.1L217.6,218.5z"/>
	</g>
	<path class="st16" d="M186.2,343.1l-2.2,5.3c0,0,0,0.1,0,0.1c0,0-2.1,19.9-4.5,43.6l25.6,0.5c0.6-16,1.3-33.8,2-52.5v-0.3
		L186.2,343.1z"/>
	<g class="st3">
		<path class="st5" d="M177.5,145.6c2.3,3.1,0.7,7.6-2.1,14.3c-2.8,6.8-3.1,15.1,3.9,19.5c7.1,4.4,8.7,8,6,12.9
			c-2.7,4.9-6.4,18.9,12.2,18c-6.9-3.4-7.9-8.8-3.7-11.2c4.2-2.4,12.6-6.2,10.2-14.7v-49.8h-24.1L177.5,145.6z"/>
	</g>
	<path class="st24" d="M186.3,151.1c0.8,16.9,0.9,19.5,5.7,28.6c4.8,9.1,17.4,22.1,20.8,22.2c3.4,0.2,25.6-4.9,37.8-18.3
		c12.2-13.4,14.8-21.1,14.8-21.1c5.4-3.6,9.4-8.9,11.5-15.1c3.2-10.1,5.7-37.8-14.9-52.4c-20.6-14.6-50.5-9.6-64.3-0.8
		C184.1,102.9,171.1,128.1,186.3,151.1z"/>
	<path class="st23" d="M199.3,149.5c-0.2,0.9-0.3,1.8-0.2,2.7c-1.5,3.8-4.5,9.6-4.3,10.9c0.2,1.3,1.4,3.6,3.2,4.3
		c1.8,0.7,2.9,0.4,2.6,0c-0.2-0.4-3.4-3.6-3.1-5.3c0.3-1.7,2.8-8.7,2.8-9.6C200.1,151.5,199.5,148.9,199.3,149.5z"/>
	<path class="st23" d="M203,166c-0.5-0.4-0.9-1.6-0.2-1.8c0.7-0.2,3.1,0.7,2.9,1.2c-0.4,0.3-0.8,0.5-1.3,0.6
		C204,166.2,203.5,166.2,203,166z"/>
	<path class="st18" d="M229.4,144.6c0,2.6-1.7,4.5-3.7,4.3c-2-0.2-3.6-2.4-3.5-4.9c0-2.5,1.7-4.5,3.7-4.3
		C227.9,139.9,229.4,142.1,229.4,144.6z"/>
	<path class="st18" d="M235.5,132.7c-3.1-1.2-6.4-1.7-9.7-1.5c-5.2,0.3-7.8,1.5-9.3,2.3c-3,1.6-3.4,5.2-1.2,4.5c0,0,6-3.8,11.5-4.8
		C229.7,132.8,232.6,132.6,235.5,132.7z"/>
	<path class="st18" d="M187.8,140.4c-2.1,0.1-4.2,0.6-6.2,1.3c0.2,0.8,0.7,1.8,1,2.5c2.8-0.4,8.7-1.3,8.5-1.6
		c-0.4-0.6-0.8-1.1-1.4-1.5C189.2,140.7,188.5,140.5,187.8,140.4z"/>
	<path class="st18" d="M232.7,141.4c0,0-0.2-0.2-0.5-0.5c-0.4-0.4-1-0.8-1.5-1.1c-0.4-0.2-0.8-0.4-1.2-0.6c-0.5-0.2-0.9-0.3-1.4-0.4
		c-0.5-0.1-1.1-0.2-1.7-0.2c-0.6,0-1.1,0.1-1.7,0.2c-0.3,0.1-0.6,0.1-0.8,0.3c-0.3,0.1-0.5,0.2-0.8,0.3c-0.5,0.3-0.9,0.6-1.4,0.9
		c-0.7,0.6-1.3,1.3-1.8,2.1c-0.3,0.5-0.6,1.1-0.8,1.7c-0.1,0.2-0.1,0.4-0.2,0.7v0.1c0,0.1,0,0.2,0,0.3c0,0.1,0.1,0.2,0.1,0.2
		c0.1,0.1,0.2,0.2,0.4,0.2c0.1,0,0.3-0.1,0.4-0.2c0,0,0.2-0.2,0.4-0.5c0.3-0.3,0.7-0.7,1.1-1.2c0.3-0.2,0.5-0.5,0.8-0.7
		c0.3-0.2,0.6-0.4,0.9-0.7c0.3-0.2,0.7-0.4,1-0.6c0.4-0.2,0.7-0.3,1.1-0.4c0.4-0.1,0.8-0.2,1.2-0.2c0.4,0,0.8,0,1.2,0
		c0.4,0.1,0.8,0,1.1,0.1c0.3,0,0.7,0.1,1,0.2c0.3,0.1,0.6,0.2,0.9,0.2l0.7,0.2c0.4,0.1,0.6,0.2,0.6,0.2c0.1,0,0.2,0,0.3,0
		c0.1,0,0.2-0.1,0.3-0.1c0.1-0.1,0.1-0.1,0.1-0.2c0-0.1,0-0.1,0-0.2c0-0.1,0-0.1,0-0.2C232.8,141.5,232.7,141.4,232.7,141.4
		L232.7,141.4z"/>
	<path class="st18" d="M192.1,149.6c0.1,0,0.2,0,0.3,0s0.2-0.1,0.2-0.1c0.1,0,0.1-0.1,0.1-0.2c0-0.1,0.1-0.1,0.1-0.2
		c0-0.1,0-0.1,0-0.2c0-0.1-0.1-0.1-0.1-0.2c-0.1-0.2-0.3-0.3-0.4-0.4c-0.4-0.4-0.8-0.7-1.2-1c-0.3-0.2-0.6-0.4-1-0.5
		c-0.4-0.2-0.8-0.3-1.2-0.4l-0.7-0.1c-0.3,0-0.5,0-0.8,0c-0.3,0-0.5,0.1-0.8,0.2c-0.8,0.2-1.6,0.6-2.3,1c0.4,1,0.9,1.8,1.2,2.4
		l1.5-0.8c0.1-0.1,0.2-0.1,0.4-0.1c0.1-0.1,0.2-0.1,0.4-0.1l0.4-0.1h0.4c0.3,0,0.6,0,0.9,0.1c0.3,0,0.6,0.1,0.8,0.2
		c0.3,0.1,0.5,0.1,0.7,0.2l0.6,0.2C191.7,149.5,191.9,149.5,192.1,149.6z"/>
	<path class="st18" d="M191.1,150.1c0.4,2-0.2,3.8-1.4,4c-1.2,0.2-2.5-1.3-3-3.3c-0.4-2,0.2-3.8,1.4-4
		C189.3,146.6,190.6,148.1,191.1,150.1z"/>
	<path class="st25" d="M203.1,177.9c-0.9,0.9,3,10.1,13.1,9.5c12-0.7,13.8-13.8,10.6-15.5C223.7,170.3,208.1,172.6,203.1,177.9z"/>
	<path class="st18" d="M228.1,176.4c-10.5-3.3-18.9,2.6-21,8.4c2.6,2,5.9,2.9,9.1,2.6c3-0.1,5.8-1.2,8-3.3
		C226.4,182.1,227.8,179.4,228.1,176.4z"/>
	<path class="st26" d="M227.8,173.2c-0.2-0.5-0.5-1-1-1.3c-3-1.6-18.7,0.7-23.8,6c-0.1,0.1-0.2,0.5-0.1,0.9c1,0.3,2.8,0.5,6.1-0.4
		C214.4,177,223.7,175.3,227.8,173.2z"/>
	<g class="st3">
		<path class="st5" d="M294.7,127.3c-1.4-28.2-19.5-50.4-46.9-53.5c-29.6-3.3-47.3,7.3-53.4,13.8c-18.2,3.7-31,21.3-29.4,36.4
			c1.3,12.8,9.1,23.5,20.1,24.9c-2.8-14,0.5-29.2,15.3-38.9c7.6,19,43.1,33.3,69,28.6c0,0-4.9,24.2-4.4,40.5
			C281.7,171.2,296,153.8,294.7,127.3z"/>
	</g>
	<path class="st24" d="M263.8,146.6c0.4-8.4,3.4-14,7.4-13.9c4,0,8.7,6,8.3,12.8c-0.4,6.8-4.5,11.4-7.2,13.9
		c-2.7,2.5-7.4,3.4-7.8,3.1C264,162.3,263.8,146.6,263.8,146.6z"/>
	<path class="st25" d="M265,139.2c-1.8,3.2-6.3,14.6-4.6,20.7c-5.7-5-6.9-18.2,3-22.1L265,139.2z"/>
	<path class="st24" d="M231.2,347.3c0,0,45.8,2.6,47.8,2.3c6.5-1,34-11.2,35.2-11.3c1.1-0.1,10.2,8,11.5,9.1c0.6,0.5,1,1.1,1.2,1.7
		c0.3,0.7,0.4,1.4,0.3,2.1c-0.1,1.2-2.1,3.9-2.1,3.9c0.7,1,1.4,2,1.9,3.1c0.3,0.8-3.4,5.2-3.4,5.2s1.2,1.4,0.8,2.3
		c-0.4,0.8-2.8,3.4-3.4,4.2c0,1.6-0.4,3.1-1.1,4.4c-1.1,0.9-2.4,1.3-3.8,1.2c-2.1,0-9.9-0.8-9.9-0.8s-6.7,2.3-10.4,2.1
		c-3.7-0.2-17.9-3.2-17.9-3.2l-56.3,6.7v-30.7L231.2,347.3z"/>
	<g class="st3">
		<path class="st0" d="M235.5,347.3v40c0,2.1-2.4,2.6-3.8,2.5c-1.4-0.1-58.5-3.4-63.2-4.3c-4.7-0.9-14.5-7.6-17.2-9
			s-4-10.8-3.9-13.3c0.1-2.5,32.5-19.4,38.8-20.1C192.4,342.4,235.5,347.3,235.5,347.3z"/>
	</g>
	<path class="st11" d="M318.9,361.2c1.6,0.6,3.2,1.3,4.7,2.1l0.9-1.1c-1.6-1.1-3.2-2.4-4.6-3.7c-0.5-0.8-0.1-4.5,0.3-5.4
		c0.5-1,4.2,1,4.9,2c0,0,0.6-0.8,1.1-1.7c-1.7-1.7-4.1-4.5-4.6-6.8c-0.2-1.1-0.3-2.1-0.4-3.2c-3-2.5-6.3-5.3-7-5.2
		c-1.1,0.1-28.6,10.3-35.2,11.3c-0.7,0.1-6.1-0.1-13.1-0.4c13.1,18.4,19,20.4,24,23.5c2.7,1.6,5.6,2.9,8.5,3.9
		c2.6-0.4,5.2-1.1,7.7-1.9l2.8,0.3c1.6-1.8,3.2-3.7,3.5-3.9c1.7-0.7,3.6-1.1,5.5-1c1,0.1,2,0.3,3,0.6c0-0.3,0-0.5,0-0.8
		c0.1-0.1,0.3-0.3,0.4-0.5c-2-0.7-3.9-1.5-5.8-2.5c-0.8-0.6,0.2-3,0.6-4c0.2-0.5,0.6-0.9,1.1-1.2S318.3,361.2,318.9,361.2z"/>
	<g class="st19">
		<path class="st27" d="M250.7,183.7c12.2-13.3,14.8-21.1,14.8-21.1c1.6-1,3.1-2.3,4.4-3.6l-16.7-11.7c-0.7-0.5-1.5-0.7-2.3-0.5
			c-0.8,0.1-1.6,0.6-2,1.3l-34.1,48.5c-0.5,0.7-0.7,1.5-0.5,2.4c0.1,0.8,0.6,1.6,1.3,2l0.9,0.6C224,200,240.7,194.6,250.7,183.7z"/>
	</g>
	<path class="st28" d="M239.6,208.6c-0.2,0.3-0.5,0.6-0.9,0.9c-0.3,0.2-0.7,0.4-1.1,0.4c-0.4,0.1-0.8,0.1-1.2,0
		c-0.4-0.1-0.8-0.3-1.1-0.5l-21.1-14.8c-0.3-0.2-0.6-0.5-0.9-0.9s-0.4-0.7-0.4-1.1c-0.1-0.4-0.1-0.8,0-1.2c0.1-0.4,0.3-0.8,0.5-1.1
		l34.1-48.5c0.2-0.3,0.5-0.6,0.9-0.8c0.3-0.2,0.7-0.4,1.1-0.4c0.4-0.1,0.8-0.1,1.2,0c0.4,0.1,0.8,0.3,1.1,0.5l21.1,14.8
		c0.3,0.2,0.6,0.5,0.9,0.9c0.2,0.3,0.4,0.7,0.5,1.1c0.1,0.4,0.1,0.8,0,1.2c-0.1,0.4-0.3,0.8-0.5,1.1L239.6,208.6z"/>
	<g class="st29">
		<path class="st30" d="M241.9,152.2c-1.8,2-2,3.8-1.4,7.7c0.6,3.9,3.7,21.2,3.7,21.2s-4.4-9.2-5.6-10.4c-1.2-1.2-3.4-2.5-8.7-4
			l-12,17.2c1.9,3,6.4,10,6.8,10.9c0,0,0.3,3.5,0.8,7.9l9.7,6.8c0.3,0.2,0.7,0.4,1.1,0.5c0.4,0.1,0.8,0.1,1.2,0
			c0.4-0.1,0.8-0.2,1.1-0.4c0.3-0.2,0.7-0.5,0.9-0.9l14.9-21.1c-2.1-9.2-8.3-34.5-8.8-35.8C245.1,150.3,243.7,150.2,241.9,152.2z"/>
	</g>
	<g class="st3">
		<path class="st30" d="M250,153.8c-0.4,0.6-1.1,1-1.8,1.2c-0.7,0.1-1.5,0-2.1-0.5c-0.6-0.4-1-1.1-1.2-1.8c-0.1-0.7,0-1.5,0.5-2.1
			l2.7-3.9c0.2-0.3,0.5-0.6,0.8-0.8c0.3-0.2,0.7-0.3,1-0.4c0.4-0.1,0.7-0.1,1.1,0c0.4,0.1,0.7,0.2,1,0.4c0.6,0.4,1,1.1,1.2,1.8
			s0,1.5-0.5,2.1L250,153.8z"/>
	</g>
	<path class="st24" d="M290.4,297.8c0,0-35-73-35.1-73.3c-0.1-0.3,1.3-18.7,1.5-21.6c0.2-2.9,1.5-8.7,1.2-13
		c-0.3-4.3-4.5-37.9-4.9-39.4c-0.4-1.5-1.8-1.8-3.8,0c-2,1.8-2.4,3.6-2.3,7.4c0.1,3.9,1.3,21.5,1.3,21.5s-3.3-9.6-4.3-11
		c-1-1.3-3.3-3-9-5.4c-3.6-0.3-4.9,2.2-5.4,5.3c-3.3-0.4-4.9,1.7-4.3,4.4c-4,0-4.4,4.3-4.2,4.8c0.2,0.5,5.9,11.9,6.2,13.1
		c0,0,1.2,18.5,1.5,24c0.3,5.5,3.5,13.5,4.7,15.5c1.2,2,13.4,55,13.4,55c5.1,22.1,10.5,43.4,19.5,51c8.9,7.6,15.4,9.8,18.2,8.7
		c2.8-1.1,10.8-9,13.5-15.8C300.7,322.4,290.4,297.8,290.4,297.8z"/>
	<path class="st31" d="M290.4,297.8c0,0-35-73-35.1-73.3c-0.1-0.3,1.3-18.7,1.5-21.6c0.2-2.9,1.5-8.7,1.2-13c0,0,0-0.1,0-0.2
		c0,0-0.1,0-0.1,0c0,0,0,0.1-0.1,0.1c0,0-0.1,0.4-0.2,1.3c-0.1,1.2-0.3,2.4-0.6,3.6c-0.2,0.8-0.3,1.6-0.5,2.6
		c-0.2,0.9-0.5,2-0.7,3.1c-0.1,0.5-0.2,1.1-0.3,1.7l-0.1,0.4c0,0.1,0,0.2,0,0.3v0.2c0,0.3-0.1,0.6-0.1,0.9c-0.2,1.2-0.4,2.5-0.5,3.9
		c-0.4,2.7-0.8,5.6-1.1,8.7c-0.2,1.6-0.4,3.2-0.5,4.8c0,0.5-0.1,1-0.1,1.5c-0.1,0.5-0.1,1-0.1,1.4v0.3v0.2c0-0.1,0.3,1.2,0.2,0.7
		l0.3,0.6c0.2,0.4,0.3,0.8,0.5,1.2l4.2,9.6c1.5,3.2,3,6.5,4.6,9.8s3.2,6.5,4.7,9.7c1.6,3.2,3.2,6.3,4.7,9.4l2.3,4.5l2.3,4.2
		c0.7,1.4,1.4,2.7,2.1,4l2.1,3.7l2,3.4l1.8,3.1c1.1,2,2.1,3.6,3,4.9c0.8,1.3,1.5,2.4,2,3.2l0.7,1.1c0,0,0.1,0.1,0.1,0.1
		c0,0,0.1,0,0.1,0L290.4,297.8z"/>
	<path class="st31" d="M246.3,281c-0.4-2.6-0.9-6.4-1.8-10.8c-0.4-2.2-0.8-4.7-1.4-7.2c-0.5-2.6-1-5.3-1.6-8
		c-0.6-2.8-1.2-5.7-1.9-8.6c-0.7-2.9-1.4-5.9-2.1-8.8c-0.4-1.5-0.8-3-1.2-4.4c-0.1-0.4-0.2-0.7-0.3-1.2l-0.4-1.2
		c-0.1-0.4-0.3-0.7-0.4-1.1v-0.1v-0.1c0.1,0.2-0.1-0.3-0.1-0.2l-0.1-0.2l-0.2-0.4c-1.2-2.5-2.3-5.1-3.1-7.8c-0.2-0.7-0.4-1.3-0.6-2
		c-0.2-0.7-0.3-1.2-0.4-1.8c-0.2-0.6-0.2-1.3-0.3-2v-0.2v-0.1v-0.1l0-0.5c0-0.3-0.1-0.7-0.1-1c-0.2-2.6-0.5-5-0.8-7.3
		c-0.5-4.5-1.1-8.3-1.4-10.9c-0.2-1.3-0.4-2.4-0.5-3.1c-0.1-0.7-0.2-1.1-0.2-1.1s1.2,18.5,1.5,24c0.3,5.5,3.5,13.5,4.7,15.5
		c1.2,2,13.4,55,13.4,55s0-0.4-0.1-1.1C246.8,283.4,246.5,282.3,246.3,281z"/>
	<path class="st23" d="M226.5,173.3c0,0,0.2,0.3,0.6,0.8c0.4,0.5,1,1.3,1.6,2.3c0.6,0.9,1.4,2.1,2.2,3.3c0.4,0.6,0.8,1.2,1.2,1.9
		l0.1,0.2l0.1,0.1v0.1v0.1l0.2,0.5l0.4,1.1c0.3,0.7,0.6,1.4,0.8,2.2c0.3,0.7,0.5,1.4,0.7,2.1c0.5,1.4,0.8,2.7,1.1,3.8
		c0.6,2.2,1,3.7,1,3.7c0,0,0,0.1,0,0.1c0,0,0,0.1,0,0.1c0,0-0.1,0.1-0.1,0.1c0,0-0.1,0-0.1,0c-0.1,0-0.2,0-0.2,0
		c-0.1,0-0.1-0.1-0.2-0.2c0,0-0.2-0.4-0.4-1s-0.6-1.5-1.1-2.5l-1.5-3.6c-0.3-0.7-0.5-1.3-0.8-2s-0.5-1.4-0.8-2.1l-0.4-1.1l-0.2-0.5
		v-0.1c0.1,0.1,0,0,0,0.1l-0.1-0.1l-0.1-0.2c-0.4-0.6-0.8-1.3-1.1-1.9c-0.7-1.2-1.4-2.4-1.9-3.4c-0.5-1-1-1.9-1.3-2.5
		c-0.3-0.6-0.4-1-0.4-1c0-0.1,0-0.2,0-0.3c0-0.1,0.1-0.2,0.2-0.2c0.1,0,0.2,0,0.2,0C226.3,173.2,226.4,173.2,226.5,173.3
		L226.5,173.3z"/>
	<path class="st23" d="M231.6,168.1c0,0,1.4,1,3.4,2.7c1.1,1,2.2,2,3.2,3.1c0.3,0.3,0.6,0.7,0.8,1c0.1,0.1,0.2,0.2,0.2,0.3l0.1,0.3
		l0.3,0.6c0.4,0.7,0.7,1.6,1,2.5c0.6,1.6,1.1,3.3,1.6,4.8c0.5,1.5,0.9,3,1.2,4.2c0.6,2.5,1,4.2,1,4.2c0,0,0,0.1,0,0.1
		c0,0,0,0.1,0,0.1c0,0-0.1,0.1-0.1,0.1c0,0-0.1,0-0.1,0c-0.1,0-0.2,0-0.2,0c-0.1,0-0.1-0.1-0.1-0.2l-0.5-1.1l-1.1-2.8
		c-0.9-2.4-2.1-5.6-3.3-8.8c-0.3-0.8-0.5-1.5-0.9-2.3l-0.3-0.6l-0.1-0.3l-0.1-0.2c-0.2-0.3-0.4-0.6-0.7-0.9c-1-1.2-2-2.3-2.9-3.2
		l-2.1-2.3l-0.8-0.9c0,0-0.1-0.1-0.1-0.1c0,0,0-0.1,0-0.1c0-0.1,0-0.1,0-0.1c0,0,0-0.1,0.1-0.1c0.1-0.1,0.1-0.1,0.2-0.1
		S231.5,168.1,231.6,168.1z"/>
	<path class="st23" d="M249.1,180.3c0.3,0.3,0.5,0.7,0.7,1.1c0.4,0.8,0.8,1.7,1.1,2.5c0.3,0.9,0.5,1.8,0.7,2.7
		c0.1,0.4,0.1,0.9,0.1,1.3c0,0.1,0,0.2-0.1,0.2c-0.1,0.1-0.2,0.1-0.2,0.1c-0.1,0-0.2-0.1-0.3-0.1c-0.3-0.3-0.5-0.7-0.7-1.1
		c-0.5-0.8-0.8-1.6-1.1-2.5c-0.3-0.9-0.6-1.8-0.7-2.7c-0.1-0.4-0.1-0.9-0.1-1.3c0-0.1,0-0.1,0-0.2c0,0,0.1-0.1,0.1-0.1
		c0,0,0.1-0.1,0.1-0.1c0.1,0,0.1,0,0.2,0c0.1,0,0.1,0,0.2,0S249.1,180.3,249.1,180.3z"/>
	<g class="st3">
		<path class="st0" d="M274.8,265.2c0,0-14.8,30.1-17.5,35.9c-2.7,5.8-4.6,7.3-4.6,7.3l-2.6-9.8c0,0-1.9,15.2-1.9,16.4
			c0,1.3,8.2,9.4,8.2,9.4s10.4,19.4,17,27.6c6.5,8.2,19.5,17.6,24.5,21s8.4,3,11.7-1.8c3.3-4.7,16.8-26.7,19.9-42.7
			c3.1-16,10.7-54.2,10.2-64.5c-0.5-10.3-10.1-25.9-11.1-26.5c-1-0.6-25.2,29-28.2,35.8S294,292,294,292s-15.2-24.2-16.2-25.8
			c-0.3-0.5-0.8-0.8-1.4-1C275.9,265.1,275.3,265,274.8,265.2z"/>
	</g>
	<path class="st2" d="M300.9,273.6c2.7-6.1,22.6-29.9,28.2-35.6c-0.2-0.2-0.5-0.4-0.8-0.6c-6.4,6.4-25.9,30.3-28.4,35.8
		c-3,6.7-6.4,18.6-6.4,18.7l1,0.3C294.5,292.1,297.9,280.3,300.9,273.6z"/>
	<path class="st2" d="M249.2,313.8c1.3-1.7,2.5-3.5,3.5-5.4l-2-7.5C250.3,304.4,249.5,310.9,249.2,313.8z"/>
	<path class="st2" d="M259.4,329.9c4.5-5.3,19.8-27.6,25.4-52.4l-0.8-1.2c-5.3,24.7-20.4,46.8-25.2,52.7
		C259,329.3,259.2,329.6,259.4,329.9z"/>
	<path class="st2" d="M293.5,291.9c0,0,9.3,16.2,10.5,17.7c2.4,3.9,5.2,12.4,5.8,20.3c0.6,7.8-4.3,24.5-4,25.1
		c0.2,0.6,4.2-5,5.5-9.9c1.3-4.9-0.3-9.7-0.7-11.3s1-6,0.7-8c-0.4-1.9-3.1-12.5-3.5-13.6c-0.4-1.1,2.1,0.2,3.9,2.3
		c1.8,2.1,4.1,7.7,4.7,13.8c0.6,6.1,0.2,11.5,0.5,11.1c1.5-3.6,2.1-7.4,1.8-11.2c-0.5-5.1-5.6-14.3-5.6-14.3
		c-2.8-6.2-4.9-9.8-7-10.7s-5-1.8-5.8-2.6c-0.8-0.8-5.6-9.4-5.6-9.4L293.5,291.9z"/>
	<g class="st3">
		<path class="st32" d="M88,6.8c42,0,76,25.9,76,57.8c0,20.8-14.5,39-36.2,49.2c0,0,0,0.1,0,0.1l0.4,1.8c0.3,1.2,0.6,2.4,1,3.6
			c0.2,0.6,0.4,1.2,0.6,1.7c0.2,0.6,0.5,1.1,0.7,1.7c0.2,0.6,0.5,1.1,0.8,1.6c0.3,0.5,0.5,1,0.8,1.6c0.5,1,1,1.9,1.6,2.8
			c0.6,0.8,1.1,1.7,1.6,2.3l1.4,1.7l1.2,1.5v0c0.1,0.1,0.1,0.1,0.1,0.2c0,0.1,0,0.2,0,0.2c0,0.1,0,0.2-0.1,0.2s-0.1,0.1-0.2,0.2
			c-0.1,0-0.1,0.1-0.2,0.1c-0.1,0-0.2,0-0.2,0l-2-0.3l-2.3-0.4c-0.9-0.1-1.9-0.4-3-0.7c-1.2-0.3-2.4-0.6-3.6-1.1l-2-0.7
			c-0.7-0.2-1.4-0.5-2-0.8l-2.1-1c-0.7-0.3-1.4-0.7-2.1-1.1c-1.4-0.8-2.9-1.6-4.2-2.5l-2.1-1.4l-2-1.5c-1.3-1-2.5-2.1-3.7-3.2
			c-6,1.1-12.1,1.7-18.2,1.7C46,122.3,12,96.5,12,64.6S46,6.8,88,6.8z"/>
	</g>
	<path class="st2" d="M53,46h35c1.7,0,3,1.3,3,3l0,0c0,1.7-1.3,3-3,3H53c-1.7,0-3-1.3-3-3l0,0C50,47.3,51.3,46,53,46z"/>
	<path class="st2" d="M53,82h20c1.7,0,3,1.3,3,3l0,0c0,1.7-1.3,3-3,3H53c-1.7,0-3-1.3-3-3l0,0C50,83.3,51.3,82,53,82z"/>
	<path class="st2" d="M53,64h51c1.7,0,3,1.3,3,3l0,0c0,1.7-1.3,3-3,3H53c-1.7,0-3-1.3-3-3l0,0C50,65.3,51.3,64,53,64z"/>
	<path class="st2" d="M115.8,77.5c-0.7-0.1-1.2-0.7-1.1-1.4c0.5-4.9,3.9-7.6,7-10.1c2.7-2.2,5-4.2,5.4-7.4c0.4-4.1-3-6.3-7.6-6.8
		c-1.5-0.2-2.9-0.1-4.3,0.2c-2,0.4-4-1.1-3.8-3.1c0.1-1,0.8-1.9,1.8-2.2c3.3-0.9,6.4-0.9,8.7-0.6c8.2,0.9,12.8,5.4,12.1,12.5
		c-0.5,5.1-3.3,7.6-6.8,10.2c-5,3.7-6.4,5.5-6.6,8.1c-0.1,0.6-0.6,1-1.2,0.9L115.8,77.5z M116.2,90.5c-2.7-0.3-4.2-2.1-3.9-4.7
		c0.3-2.5,2.1-4,4.8-3.7c2.7,0.3,4.2,2.1,3.9,4.6C120.8,89.4,118.9,90.8,116.2,90.5z"/>
</g>
</svg>
