<?xml version="1.0" encoding="utf-8"?>
<!-- Generator: Adobe Illustrator 24.3.0, SVG Export Plug-In . SVG Version: 6.00 Build 0)  -->
<svg version="1.1" id="Слой_1" xmlns="http://www.w3.org/2000/svg" xmlns:xlink="http://www.w3.org/1999/xlink" x="0px" y="0px"
	 viewBox="0 0 372 441" style="enable-background:new 0 0 372 441;" xml:space="preserve">
<style type="text/css">
	.st0{fill:#EBEDEE;}
	.st1{clip-path:url(#SVGID_2_);fill:#C3C9CD;}
	.st2{clip-path:url(#SVGID_2_);fill:#AFB7BC;}
	.st3{clip-path:url(#SVGID_2_);fill:#EBEDEE;stroke:#5F6E79;stroke-width:4;}
	.st4{clip-path:url(#SVGID_2_);fill:#E21A1A;}
	.st5{clip-path:url(#SVGID_2_);fill-rule:evenodd;clip-rule:evenodd;fill:#E21A1A;}
	.st6{clip-path:url(#SVGID_2_);fill:#9BA4AB;}
	.st7{clip-path:url(#SVGID_2_);fill:#FFFFFF;}
	.st8{clip-path:url(#SVGID_2_);fill:#EBEDEE;}
	.st9{clip-path:url(#SVGID_2_);}
	.st10{fill:#5F6E79;}
	.st11{fill:#4B5C69;}
	.st12{fill:#394A58;}
	.st13{clip-path:url(#SVGID_2_);fill:#394A58;}
	.st14{clip-path:url(#SVGID_2_);fill-rule:evenodd;clip-rule:evenodd;fill:#D7DBDE;}
	.st15{clip-path:url(#SVGID_2_);fill:#D7DBDE;}
	.st16{clip-path:url(#SVGID_2_);fill:#73808A;}
	.st17{opacity:0.5;clip-path:url(#SVGID_2_);fill:#394A58;enable-background:new    ;}
	.st18{clip-path:url(#SVGID_2_);fill:url(#SVGID_3_);}
	.st19{fill:#73808A;}
	.st20{clip-path:url(#SVGID_2_);fill:#87929B;}
	.st21{clip-path:url(#SVGID_2_);fill:#5F6E79;}
</style>
<g>
	<defs>
		<rect id="SVGID_1_" y="0" width="372" height="441"/>
	</defs>
	<clipPath id="SVGID_2_">
		<use xlink:href="#SVGID_1_"  style="overflow:visible;"/>
	</clipPath>
	<rect y="0" class="st0" width="372" height="441"/>
	<path class="st1" d="M97,0h533c11,0,20,9,20,20v280c0,11-9,20-20,20H97c-11,0-20-9-20-20V20C77,9,86,0,97,0z"/>
	<rect x="77" y="320" class="st2" width="313" height="170"/>
	<path class="st3" d="M101.5,20h505c4.4,0,8,3.6,8,8v264c0,4.4-3.6,8-8,8h-505c-4.4,0-8-3.6-8-8V28C93.5,23.6,97.1,20,101.5,20z"/>
	<circle class="st4" cx="139.2" cy="73.5" r="3.8"/>
	<path class="st5" d="M139.2,65.5c3,0,5.5,2.1,6.3,3.1c0.8,1,2.2,1.1,3.2,0.3c1-0.8,1.1-2.2,0.3-3.2c-1.3-1.6-5-4.8-9.9-4.8
		c-2.5,0-4.7,0.8-6.4,1.8c-1.7,0.9-3.1,2.1-3.9,2.9c-0.9,0.9-0.8,2.3,0.1,3.2c0.9,0.9,2.3,0.8,3.2-0.1c0.5-0.5,1.4-1.3,2.7-2
		C136.2,66,137.7,65.5,139.2,65.5z"/>
	<path class="st5" d="M139.2,56.5c6.8,0,11.3,4.8,12.2,5.9c0.8,1,2.2,1.1,3.2,0.3c1-0.8,1.1-2.2,0.3-3.2c-1.2-1.5-6.8-7.6-15.7-7.6
		c-4.1,0-7.6,1.4-10.3,2.9c-2.6,1.5-4.5,3.2-5.3,4c-0.9,0.9-0.8,2.3,0.1,3.2c0.9,0.9,2.3,0.8,3.2-0.1c0.5-0.5,2-1.9,4.2-3.2
		C133.4,57.6,136.1,56.5,139.2,56.5z"/>
	<path class="st1" d="M234,362.5l-5-6.5c-0.8-0.5-3.5-1.5-7.5-1.5s-22.3,3-31,4.5l7,12.5L234,370V362.5z"/>
	<path class="st6" d="M238,354c-0.2-3-1-4.5-2.5-5c-3.2,0-4,4.7-4.5,7c-0.7,4.3-1,13,3,13S238.3,359,238,354z"/>
	<path class="st7" d="M281.7,371.4c-16.4-9.2-31.1-5.4-31.1-5.4h-67l-1.6-20l32.7,6.2h17.1c3.1,0,27.6,4.9,38.2,7.7
		C278.5,362.2,298,380.7,281.7,371.4z"/>
	<path class="st8" d="M232,359.5c-0.4-4,2.2-9.2,3.5-10.5l-20-1.5l-11.5,6l-1.5,15.5h31C233,367.7,232.4,363.5,232,359.5z"/>
	<g class="st9">
		<path class="st10" d="M217.6,395.1c-85,16.5-99,33.5-122,33.5c-14,0-31-6-24-17s36-28,101-38s130.5-1.5,125.5,6
			c-3,4.5-6.5,6.7-17,10.5C274.5,392.4,239.8,390.8,217.6,395.1z"/>
	</g>
	<g class="st9">
		<path class="st0" d="M102,260c0,0-4.5,38.5,33.5,133c22,70,134.7,60.9,178,46.5c-9.1-18.5-28-37-97.5-33.5
			c-40-10-50.5-71.5-50.5-85.5c4.5-33.5,0-35-24.5-53.5S102,260,102,260z"/>
	</g>
	<g class="st9">
		<path class="st11" d="M175.9,441H321c-9.6-21.1-53.2-60.1-152-33.8C169,419.3,169,432.4,175.9,441z"/>
	</g>
	<g class="st9">
		<path class="st12" d="M16,270.1c-8.9-30.1-26.6-94.2-7.5-133.6c38.3-36.4,63.9,9.2,56.3,39.4c-5.9,23.5-1.7,67.5,17.1,101.7
			C96.9,305,163.4,385.4,177,443H81.9C51.6,392.8,26.8,306.4,16,270.1z"/>
	</g>
	<path class="st13" d="M77.7,158.7c-7.1,2.1-12.5,5.3-14.5,23.7l-1.3,21.5c-0.4,6.4,1.9,27.2,9.8,27.7c8.6-4.5,11.7-11.1,10.7-19.9
		c-1-8.6-1.3-19.6,2-32.4C86.5,171.4,85,162.2,77.7,158.7z"/>
	<g class="st9">
		<path class="st10" d="M232.6,410.1c-85,16.5-99,33.5-122,33.5c-14,0-31-6-24-17s36-28,101-38s130.5-1.5,125.5,6
			c-3,4.5-6.5,6.7-17,10.5C289.5,407.4,254.8,405.8,232.6,410.1z"/>
	</g>
	<path class="st14" d="M227.1,352.7c0.7-1.7,1.5-3.1,2-4h0.9c-0.5,0.8-1.3,2.8-2,4.4c-0.7,1.6-1.3,3.4-1.5,4.9
		c-0.2,1.5,0,3.6,0.3,5.7c0.3,2,0.8,4,1.1,5.1h-1.1c-0.3-1.2-0.6-2.9-1-5c-0.3-2.1-0.6-4.3-0.4-6
		C225.7,356.3,226.4,354.4,227.1,352.7z"/>
	<path class="st1" d="M222.6,355.3c1.4-1.7,1.9-3.9,0.9-7.3l-8-0.5l-11.1,6.4L203,369h10.7C213.3,367.7,220.1,358.3,222.6,355.3z"/>
	<path class="st15" d="M182.5,338.5l-16-35.5c-1,2.2-3.2,14.4-4,18s2.3,20.2,4,28L182.5,338.5z"/>
	<path class="st7" d="M275.9,371.3c0.8,1.7-4.6,1.7-8.4,1.7c-3.6-1.1-11.3-3.4-13.8-3.4H240c-3.1,0-9.2-4.3-6.1-8.5
		c3.1-4.3,14.5-0.9,16.8,0.9c2.3,1.7,9.2,1.7,13,3.4C267.5,367,275.2,369.6,275.9,371.3z"/>
	<path class="st15" d="M264.5,365.5l2.5,0.5c-0.8-1.2-3.9-3.7-5.5-4.5s-9.7-2.8-14-3.5c2.5,0.7,8.1,2.2,10.5,3
		S263.3,364.3,264.5,365.5z"/>
	<path class="st15" d="M232.5,362.5c0,1.6,0.8,2.8,1.5,3.5c1-0.5,0-3,0-3.5c0-0.4-0.3-4.2-0.5-6
		C233.3,357.7,232.5,360.5,232.5,362.5z"/>
	<path class="st16" d="M46,227.2c0,5.5,1.6,11,4.7,15.6c3.1,4.6,7.4,8.2,12.6,10.3c5.1,2.1,10.7,2.7,16.2,1.6
		c5.4-1.1,10.4-3.7,14.3-7.7c3.9-3.9,6.6-8.9,7.7-14.3c1.1-5.4,0.5-11.1-1.6-16.2c-2.1-5.1-5.7-9.5-10.3-12.6
		c-4.6-3.1-10-4.7-15.6-4.7c-7.4,0-14.5,3-19.8,8.2C49,212.6,46,219.8,46,227.2z"/>
	<path class="st17" d="M102,227.2c0,4.4-1,8.7-3,12.6c-2,3.9-4.8,7.3-8.3,9.9c-14.3-14.4-24.2-41.3-24.2-41.3l6.9-9.1h0.6
		c3.7,0,7.3,0.7,10.7,2.1c3.4,1.4,6.5,3.5,9.1,6.1c2.6,2.6,4.7,5.7,6.1,9.1C101.2,219.9,102,223.5,102,227.2z"/>
	
		<linearGradient id="SVGID_3_" gradientUnits="userSpaceOnUse" x1="105.6849" y1="234.8503" x2="105.6849" y2="98.5682" gradientTransform="matrix(1 0 0 -1 0 442.0013)">
		<stop  offset="0" style="stop-color:#E1E1E1"/>
		<stop  offset="0.6927" style="stop-color:#F7F9FB"/>
	</linearGradient>
	<path class="st18" d="M87.2,207.2c0,0,1.4,10.6,2,21.7c0.6,11.1,0.7,22.1-0.2,25.2c-0.9,3.1-7.1,10.7-15,13.6
		c11,22.1,44.4,75.8,44.4,75.8l19.1-59.9l-2.5-11c0,0-4.1-7.9-6.4-10.2c-2.3-2.3-2.8-4.8-2.8-8.2c0-3.4,3.4-46.9,3.4-46.9
		L87.2,207.2z"/>
	<path class="st15" d="M118.1,261.8c-6.8-5.3-22.2-33.4-29.1-46.8c10.8,11.8,30.2,31.5,34.7,38.3c4.5,6.8,8.8,7.6,10.3,8.5
		C130.4,261.2,124.8,267.1,118.1,261.8z"/>
	<g class="st9">
		<path class="st19" d="M169.3,199.3c-2.2,2.9-0.6,7.1,2,13.4c2.6,6.3,2.9,14.1-3.7,18.3c-6.6,4.1-8.2,7.5-5.6,12.1
			c2.6,4.6,6,17.7-11.5,16.9c6.5-3.2,7.5-8.3,3.5-10.5c-4-2.2-11.8-5.8-9.5-13.8V189H167L169.3,199.3z"/>
	</g>
	<path class="st7" d="M161.5,204.5c-3.6,9-2.8,11.5-0.7,18.5c0.4,1.4,0.7,2.8,0.7,5.2c-1.6,6.1-4.7,1.4-6.2,4.1
		c-1.8,3.4,0.1,2.8-4.5,6.2c-3,2.2-2.4,3.1-5.2,4.7c-3.7,2.1-2.8,13.7-9.4,13.7c-10.4,0-24-9.2-35.5-21.8
		c-11.5-12.6-14-19.9-14-19.9c-5.1-3.4-8.9-8.4-10.8-14.2c-3-9.5-5.4-35.6,14-49.4c19.4-13.7,47.7-9,60.7-0.8
		C163.7,159.1,175.9,182.8,161.5,204.5z"/>
	<path class="st2" d="M139,234l4,4.9c0,0,3,3.5,4.5,3.1c1.5-0.4,2-1.8,2-1.8s1,0,2-1.3c1-1.3,0-1.3,0-1.3s-4,0-7-0.9
		C141.5,235.8,139,234,139,234z"/>
	<path class="st2" d="M158.7,231c0.5-0.3,0.2-1.2-0.5-1.4c-2.9,0-5.5-0.9-5.3-0.5c0.4,0.3,2.5,1.6,3.8,1.4
		C157.3,230.6,158.3,231.1,158.7,231z"/>
	<path class="st13" d="M147.4,206.3c-1.5,1.9-1.3,4.3,0.3,5.3c1.6,1,4.1,0.3,5.5-1.7c1.4-1.9-0.5-1.7-2.1-2.7
		S147.7,205.9,147.4,206.3z"/>
	<path class="st13" d="M141,197.3c2.9-1,6-1.5,9.1-1.3c4.9,0.3,8,0,10.3,0.5c2.8,1.4,1.6,5.1-0.5,4.4c0,0-5.6-2.2-10.8-3.1
		C146.4,197.4,143.7,197.3,141,197.3z"/>
	<path class="st13" d="M142.1,207.8c0,0,0.2-0.2,0.5-0.5c0.4-0.4,0.9-0.8,1.4-1.1c0.3-0.2,0.7-0.4,1.1-0.6c0.4-0.2,0.9-0.3,1.3-0.4
		c0.5-0.1,1-0.2,1.6-0.2c0.5,0,1.1,0.1,1.6,0.2c0.3,0.1,0.5,0.1,0.8,0.3c0.3,0.1,0.5,0.2,0.7,0.3c0.5,0.3,0.9,0.6,1.3,0.9
		c0.7,0.6,1.2,1.3,1.7,2.1c0.3,0.5,0.6,1.1,0.7,1.7c0.1,0.2,0.1,0.4,0.1,0.7v0.1c0,0.1,0,0.2,0,0.3s-0.1,0.2-0.1,0.2
		c-0.1,0.1-0.2,0.2-0.4,0.2c-0.1,0-0.3-0.1-0.4-0.2c0,0-0.2-0.2-0.4-0.5c-0.3-0.3-0.6-0.7-1.1-1.2c-0.2-0.2-0.5-0.5-0.8-0.7
		c-0.3-0.2-0.6-0.4-0.9-0.7c-0.3-0.2-0.6-0.4-1-0.6c-0.3-0.2-0.7-0.3-1.1-0.4c-0.4-0.1-0.7-0.2-1.1-0.2c-0.4,0-0.7,0-1.1,0
		c-0.4,0.1-0.7,0-1.1,0.1c-0.3,0-0.6,0.1-0.9,0.2c-0.3,0.1-0.6,0.2-0.8,0.2l-0.6,0.2c-0.4,0.1-0.6,0.2-0.6,0.2c-0.1,0-0.2,0-0.3,0
		c-0.1,0-0.2-0.1-0.2-0.1c-0.1-0.1-0.1-0.1-0.1-0.2s0-0.1,0-0.2c0-0.1,0-0.1,0-0.2S142.1,207.8,142.1,207.8L142.1,207.8z"/>
	<path class="st8" d="M204.6,223.8c0.2-0.5,0.5-1,1-1.3c3-1.6,18.7,0.7,23.8,6c0.1,0.1,0.2,0.5,0.1,0.9c-1,0.3-2.8,0.5-6.1-0.4
		C218,227.6,208.7,225.9,204.6,223.8z"/>
	<path class="st16" d="M60.1,181.8c1.3-26.5,18.5-47.4,44.4-50.3c28-3.1,44.8,6.9,50.5,13c17.3,3.4,29.3,20,27.9,34.2
		c-1.2,12.1-8.6,22.1-19,23.4c2.6-13.2-0.5-27.5-14.5-36.6c-7.2,17.8-40.8,31.3-65.3,26.9c0,0,3.4,23.2,2.9,38.5
		C71.2,223.6,58.9,206.8,60.1,181.8z"/>
	<path class="st7" d="M88,200c-0.3-7.9-3-13.1-6.6-13c-3.6,0-7.8,5.7-7.4,12c0.4,6.4,4,10.6,6.4,13c2.4,2.4,6.6,3.1,7,2.9
		C87.9,214.8,88,200,88,200z"/>
	<path class="st16" d="M87,193.3c1.8,3,6.3,13.9,4.6,19.7c5.7-4.7,6.9-17.4-3-21L87,193.3z"/>
	<path class="st20" d="M246.5,272l9.5-7.5l0.5,4l-10.5,6L246.5,272z"/>
	<path class="st13" d="M228.6,288.7l-9.5-9.2c-1.2-1.1-1.2-3-0.1-4.2l33.8-37.5c0.7-0.8,1.8-1.1,2.8-0.9l17.3,3.5
		c2.3,0.5,3.2,3.3,1.6,5l-41.6,43.2C231.7,289.8,229.8,289.8,228.6,288.7z"/>
	<path class="st21" d="M230.7,286.3l-9.5-8.9c-0.4-0.4-0.4-1-0.1-1.4l33-36.9c0.2-0.3,0.6-0.4,1-0.3l16.2,3.8c0.8,0.2,1,1.1,0.5,1.7
		l-39.7,42C231.8,286.7,231.1,286.7,230.7,286.3z"/>
	<path class="st20" d="M244.2,251.6c0.2-0.1,0.4-0.1,0.6,0l6.7,2c1.4,0.4,1.3,2.3,0,2.7c-0.3,0.1-0.6,0.1-0.9,0l-6.5-2.6
		C243.1,253.3,243.1,251.9,244.2,251.6z"/>
	<path class="st20" d="M226.5,272.4c0.6-0.3,1.4-0.2,1.9,0.1l3,1.9c1.5,1,1.2,3.3-0.6,3.8c-0.6,0.2-1.2,0.1-1.7-0.3l-3-1.9
		C224.8,275.2,225,273.1,226.5,272.4z"/>
	<path class="st20" d="M241.2,255.1c0.2-0.1,0.4,0,0.5,0l3,1.2c0.7,0.3,0.5,1.2-0.2,1.2c0,0-0.1,0-0.1,0l-3.2-0.7
		C240.4,256.6,240.4,255.3,241.2,255.1z"/>
	<path class="st20" d="M238,258.5c0.3-0.3,0.7-0.4,1.1-0.3l11.4,4.2c0.7,0.2,0.9,1.1,0.4,1.6l-10.8,11.3c-0.4,0.4-0.9,0.4-1.3,0.1
		l-8.4-6.3c-0.5-0.3-0.5-1-0.2-1.5L238,258.5z"/>
	<path class="st20" d="M251.7,246.3c0.8,0.7,0.8,2.1-0.1,3.2c-0.9,1-2.3,1.3-3.1,0.6c-0.8-0.7-0.8-2.1,0.1-3.2
		C249.5,245.8,250.9,245.6,251.7,246.3z"/>
	<path class="st7" d="M242.7,317.8c-2.5,4.6-16.5,22.2-22.7,30.2c-0.9-10.3-5.3-25.1-7.9-31c4.4-4.8,10.4-9.6,12.3-13.5
		c2.4-4.9,2.8-12.7,4.8-13.3c1.6-0.5,3.9-2.7,4.9-3.8c1.8-2.3,5.9-7.4,8-9.2c2.7-2.3,11.4-6.6,12.8-8.7c0.4-0.6,2.3-8.3,2.7-13
		c0.4-4.7,0.7-10.7,3.2-14.3c2.5-3.6,5.1,2.4,3.9,6.7c-1.2,4.2,4.3,23.2,2.3,27.3c-2,4.1-4.6,12.6-10,19.2
		C251.7,301,245.9,312.1,242.7,317.8z"/>
	<path class="st7" d="M223,266.5c-0.5,1-0.7,3,0,4.5l21.5-24c0.1-4.5,0-11.9-3.5-11.4c-4.3,0.6-2.6,7.8-2.8,10.9
		c-0.2,2.5-0.1,4.8-0.8,8c-0.8-1.4-3.1-3.6-5.4-0.9c-2.3,2.7-1.2,4.4,0,6c-1.6-0.9-4.6-1.1-5.5,0.5c-0.9,1.5-0.6,3.8,0,5.4
		C225.1,264.5,223.5,265.5,223,266.5z"/>
	<path class="st8" d="M70,269l20.5-18c2,7.6,13.8,15.2,19.5,18l32,28l18,68l-10,24l-11.5-45.5l-17-24c-7-16.8-23-51.4-31-55
		S73.5,266,70,269z"/>
	<path class="st2" d="M132,261.5l5,25c0,0-12.5-6-20.5-12s-26.5-21-26.5-21l50.5,43.5l17,37L146,302c0,0-1.5-6.5-3.5-12
		S132,261.5,132,261.5z"/>
	<path class="st8" d="M113.5,382.8c-6.9-7.7-25.5-37.2-33.7-48.4C70,320.8,59.5,314.8,59.5,290c0-19.7,16.8-29.9,31.4-28.3
		c14.6,1.6,21.2,30.3,25.3,45.3c3.3,11.9,15.8,28.3,21.6,35c2.8-0.2,9.1-0.1,11.3,2.2c2.3,2.3,4.9,6.8,5.9,8.8
		c9.1-5.2,29-16.4,35.3-20.1c6.3-3.6,16.8-13.6,21.3-18.1c2.3,6.7,7,21,8,27.6c1,6.5,0.4,4.4,1,11.3c-5.2,5.4-13.5,14.9-23,22.1
		c-3.3,2.6-10.8,7.6-38.5,25.8C131.4,419.6,120.4,390.5,113.5,382.8z"/>
	<path class="st14" d="M83.7,265.5c-3.3-0.8-7.9-0.8-9.7-0.5l2.5-1.5c1.9-0.3,4,0.2,7.4,1.1c3.4,0.8,7.1,2.5,10,5.6
		c3.5,3.8,7.8,9.9,11.6,16.2c3.8,6.3,7.2,12.7,9,16.9c1.7,4.2,5.9,10.5,10,16.1c4.1,5.6,7.9,10.3,8.9,11.3
		c1.6,1.6,12.1,11.7,17.6,16.4l-1,0.5c-5.5-4.7-15.7-14.5-17.4-16.1c-1-1-4.9-5.8-9-11.4c-4.1-5.6-8.3-12-10.1-16.3
		c-1.7-4.2-5.1-10.6-8.9-16.8c-3.8-6.2-8-12.3-11.5-16C90.4,267.9,86.9,266.3,83.7,265.5z"/>
	<path class="st15" d="M213.5,345.5c-1.2-4-5.8-18-8-24.5l0.5-0.5c0.8,2.7,3.1,9.6,5.5,16s4.3,17,5,21.5l-1,1
		C215.3,356.2,214.7,349.5,213.5,345.5z"/>
	<path class="st15" d="M148,361.5c2.2-5.6,6.3-8.6,7.5-9l-4.6-6l-2.1,2.5c-0.4,2.7-1.7,9.1-4.1,12.8c-3,4.7-6,8.5-5.7,11.9l1.2,14.4
		c0.1-1.4,0.6-5.7,1.1-12C141.8,368.3,145.2,368.5,148,361.5z"/>
	<path class="st15" d="M156.3,398.1c-4.9,2.9-8.2,6.1-15,6.7c2.8,1.4,8.2,2.3,10.7,0.7c18.2-11.1,33.7-21.7,46.4-30.7
		c3.3-2.4,10-8.4,16.2-14.9c0.5-3.1-0.1-3.7-0.4-6.6c-0.2-2.9-5-8.5-5.3-12.3c-0.2,2.6,2.9,11.6-0.5,17.7
		c-4.3,7.6-6.2,9.8-10.3,13.6C194,376,179.9,384,176,386.6C172.1,389.3,162.4,394.5,156.3,398.1z"/>
</g>
</svg>
