<svg width="372" height="440" viewBox="0 0 372 440" fill="none" xmlns="http://www.w3.org/2000/svg">
<mask id="mask0_161_44245" style="mask-type:alpha" maskUnits="userSpaceOnUse" x="0" y="0" width="372" height="440">
<rect width="372" height="440" fill="#EBEDEE"/>
</mask>
<g mask="url(#mask0_161_44245)">
<rect width="372" height="9" fill="#C3C9CD"/>
<rect y="20" width="372" height="17" fill="#D7DBDE"/>
<rect y="50" width="372" height="37" fill="#D7DBDE"/>
<path d="M18.567 -0.5L178.171 297.086H185.247L32.3259 -0.5H18.567Z" fill="#C3C9CD"/>
<path d="M77.9269 -0.5L178.171 297.086H185.247L93.2583 -0.5H77.9269Z" fill="#C3C9CD"/>
<path d="M345.243 -0.5L185.64 297.086H178.564L331.484 -0.5H345.243Z" fill="#C3C9CD"/>
<path d="M285.883 -0.5L185.64 297.086H178.564L270.552 -0.5H285.883Z" fill="#C3C9CD"/>
<rect x="-982" y="144" width="1495" height="142" fill="#C3C9CD"/>
<path d="M508.5 300H-978.5L-981.5 291H512L508.5 300Z" fill="#394A58"/>
<path d="M-979 121H496L498 144H-982L-979 121Z" fill="#9BA4AB"/>
<path d="M300.5 346.5C293.7 346.5 292 339.5 280.5 336L267 317V300H374V317H380.5L373 331.5C362 331.5 354.506 346.5 347.5 346.5H300.5Z" fill="#394A58"/>
<circle cx="255" cy="333" r="30" fill="#394A58"/>
<circle cx="392" cy="333" r="30" fill="#394A58"/>
<path d="M276.5 165.5C293.3 147.5 307.188 144.5 312.5 144.5H64.5C45.5 144.5 40 158.5 30 168.5C22 176.5 -38.6667 248.833 -68 284H163C178 284 181 275 188 268C195 261 255.5 188 276.5 165.5Z" fill="#E21A1A"/>
<rect x="-83" y="187" width="121" height="63" rx="6" fill="url(#paint0_linear_161_44245)"/>
<rect x="200" y="187" width="121" height="63" rx="6" fill="url(#paint1_linear_161_44245)"/>
<rect x="345" y="187" width="121" height="63" rx="6" fill="url(#paint2_linear_161_44245)"/>
<rect x="-982" y="284" width="1495" height="7" fill="#E21A1A"/>
<path d="M89 158C89 154.686 91.6863 152 95 152H145C148.314 152 151 154.686 151 158V206H89V158Z" fill="url(#paint3_linear_161_44245)"/>
<rect x="89" y="206" width="61" height="36" fill="#87929B"/>
<path fill-rule="evenodd" clip-rule="evenodd" d="M88 156C88 153.239 90.2386 151 93 151H147C149.761 151 152 153.239 152 156V243H88V156ZM93 153C91.3431 153 90 154.343 90 156V241H150V156C150 154.343 148.657 153 147 153H93Z" fill="#394A58"/>
<rect x="118" y="152" width="3" height="91" fill="#394A58"/>
<path d="M166 153H206C209.314 153 212 155.686 212 159V234H166V153Z" fill="url(#paint4_linear_161_44245)"/>
<path d="M212 289L166 289L166 233L212 233L212 289Z" fill="#E21A1A"/>
<path fill-rule="evenodd" clip-rule="evenodd" d="M206 154.022H168V285.978H209V157.044C209 155.375 207.657 154.022 206 154.022ZM165 151V289H212V157.044C212 153.706 209.314 151 206 151H165Z" fill="#394A58"/>
<path d="M72 153H32C28.6863 153 26 155.686 26 159V234H72V153Z" fill="url(#paint5_linear_161_44245)"/>
<path d="M26 289L72 289L72 233L26 233L26 289Z" fill="#E21A1A"/>
<path fill-rule="evenodd" clip-rule="evenodd" d="M32 154.022H70V285.978H29V157.044C29 155.375 30.3431 154.022 32 154.022ZM73 151V289H26V157.044C26 153.706 28.6863 151 32 151H73Z" fill="#394A58"/>
<rect x="75" y="153" width="89" height="134" stroke="#4B5C69" stroke-width="4"/>
<rect x="77" y="243" width="85" height="42" fill="#AFB7BC"/>
<rect width="9" height="88" transform="matrix(1 0 0 -1 153 243)" fill="#87929B"/>
<rect width="9" height="88" transform="matrix(1 0 0 -1 78 243)" fill="#87929B"/>
<path d="M84 155H88V242.716L84 251V155Z" fill="#73808A"/>
<path d="M77 154.5H79V278L77 284.5V154.5Z" fill="#73808A"/>
<path d="M162 154.5H160V278L162 284.5V154.5Z" fill="#73808A"/>
<path d="M156 155H152V242.716L156 251V155Z" fill="#73808A"/>
<rect width="382" height="151" transform="matrix(1 0 0 -1 -5 440)" fill="#D7DBDE"/>
<path d="M254.734 225.503C254.398 224.678 254.356 224.332 253.894 222.964C253.648 221.916 253.472 220.853 253.366 219.782C253.298 219.465 253.159 219.168 252.959 218.911C252.758 218.654 252.501 218.445 252.208 218.298C251.785 218.11 251.329 218.006 250.865 217.993C250.244 217.919 249.707 217.993 248.994 217.993C248.629 217.993 248.27 217.908 247.945 217.746C247.663 217.607 247.427 217.392 247.263 217.127C247.1 216.861 247.016 216.556 247.022 216.246C247.058 215.704 247.016 215.16 246.896 214.63C246.772 214.176 246.579 213.743 246.325 213.344C246.143 213.119 246.058 212.832 246.087 212.546C246.117 212.26 246.26 211.996 246.484 211.811C246.04 211.564 245.519 211.152 245.645 210.682C245.704 210.517 246.04 210.229 246.107 210.072C246.165 209.964 246.199 209.845 246.205 209.722C246.21 209.6 246.188 209.478 246.14 209.365C246.092 209.252 246.019 209.151 245.926 209.07C245.833 208.988 245.723 208.928 245.603 208.893C245.259 208.801 244.903 208.754 244.546 208.753C244.227 208.753 243.95 208.399 243.875 208.094C243.823 207.754 243.875 207.407 244.026 207.096C244.464 206.385 244.862 205.65 245.217 204.895C245.62 204.306 245.833 203.611 245.83 202.901C245.754 202.175 245.049 201.153 244.882 200.428C244.786 199.759 244.855 199.078 245.083 198.441C245.754 195.968 246.526 193.842 248.532 192.234C247.357 191.245 248.222 189.572 250.781 188.616C252.233 188.072 253.76 187.791 255.254 187.363C255.958 187.103 256.69 186.923 257.436 186.827C261.22 186.58 263.637 187.437 264.418 188.896C264.624 188.706 264.888 188.589 265.169 188.564C265.451 188.538 265.732 188.606 265.97 188.756C266.14 188.894 266.32 189.021 266.507 189.135C267.706 189.773 268.767 190.636 269.629 191.674C270.56 192.618 271.165 193.827 271.358 195.128C271.363 195.37 271.411 195.61 271.5 195.836C271.636 196.134 271.836 196.399 272.088 196.611C272.608 197.03 272.998 197.584 273.212 198.21C273.753 199.786 274.036 201.436 274.051 203.098C274.008 204.536 273.683 205.952 273.095 207.269C272.872 208.111 272.592 208.938 272.256 209.742C271.608 210.734 271.213 211.866 271.106 213.039C270.921 213.856 270.488 214.597 269.864 215.166C269.801 216.337 269.926 217.511 270.233 218.645C270.357 219.213 270.545 219.766 270.795 220.293C270.883 220.24 270.982 220.207 271.084 220.195C271.187 220.183 271.291 220.193 271.389 220.224C271.487 220.256 271.577 220.307 271.653 220.376C271.729 220.445 271.788 220.529 271.828 220.623C272.667 222.23 273.053 224.39 273.993 225.956C278.826 234.059 279.372 242.219 277.87 251.509C277.349 254.683 275.705 258.747 274.706 261.805C273.59 265.217 273.17 268.869 271.601 272.471C269.083 278.315 270.174 280.937 269 289.163C268.622 291.768 266.205 296.351 263.595 299.277C262.079 300.725 260.315 301.9 258.384 302.747C257.04 303.306 255.631 303.696 254.188 303.91C250.093 304.272 245.914 303.638 243.145 303.357C239.553 302.995 232.294 302.022 230.062 301.288C228.531 300.858 226.929 300.724 225.346 300.893C223.436 301.059 221.511 300.936 219.639 300.53C217.776 300.035 207.605 300.035 206.12 299.92C204.635 299.805 203.544 301.255 202.302 300.53C201.06 299.805 200.439 300.406 200.07 301.14C199.7 301.874 199.23 302.838 198.332 303.085C197.435 303.333 196.344 306.135 195.916 308.567C195.614 310.215 192.467 315.458 191.35 317.346C189.971 319.603 188.76 321.956 187.725 324.385C186.425 327.946 183.353 335.101 183.068 336.263C182.094 336.329 180.189 335.348 179.283 335.167C179.257 336.632 179.077 338.09 178.746 339.519C178.566 340.403 178.115 341.211 177.454 341.835L177.857 342.107C177.581 342.993 177.221 343.851 176.782 344.671L168.659 342.495C168.659 342.017 168.76 341.44 168.777 340.896C168.013 341.151 165.756 340.896 164.942 340.896C164.069 340.895 163.199 340.818 162.34 340.665C159.247 340.014 156.206 339.141 153.243 338.052C151.033 337.254 148.91 336.237 146.908 335.018C147.008 334.671 147.167 334.342 147.378 334.046L147.806 334.145C147.847 333.663 148.018 333.201 148.299 332.804C148.58 332.408 148.963 332.091 149.408 331.886C150.088 331.647 150.813 331.557 151.532 331.622L155.064 332.109C155.426 331.969 155.825 331.951 156.197 332.059C157.009 332.167 157.828 332.214 158.648 332.199C160.259 332.199 160.687 332.199 162.298 332.199C162.96 332.17 163.61 332.024 164.22 331.771C164.589 331.573 165.445 331.392 165.672 331.045C164.742 330.705 163.849 330.277 163.003 329.768C166.981 321.591 171.865 311.435 174.97 302.896C178.545 293.054 186.173 278.167 189.588 274.573C189.414 274.598 189.236 274.588 189.065 274.543C188.895 274.498 188.736 274.419 188.598 274.31C188.46 274.202 188.347 274.067 188.264 273.914C188.182 273.76 188.133 273.592 188.12 273.419C188.002 273.419 188.019 273.188 188.212 272.933C188.604 272.518 189.021 272.127 189.462 271.762C189.529 271.588 189.646 271.436 189.798 271.325C190.572 270.759 191.304 270.139 191.988 269.471C192.557 268.833 193.25 268.314 194.027 267.946C194.581 267.682 195.051 267.426 195.748 267.064C196.352 266.779 197.016 266.635 197.686 266.643C199.172 266.569 200.741 266.215 202.293 266.231C203.074 266.231 203.728 266.355 204.383 266.404C205.178 266.425 205.97 266.513 206.749 266.668C207.475 266.813 208.192 266.998 208.898 267.22C208.956 267.006 208.998 266.742 209.393 266.775C210.333 266.841 212.011 267.212 212.8 267.336C213.519 267.467 214.25 267.528 214.982 267.517C215.821 267.517 216.937 267.27 217.768 267.154C218.599 267.039 220.89 266.577 221.804 266.412C228.937 265.085 231.547 266.412 236.297 265.028C236.982 264.794 237.721 264.754 238.428 264.912C238.555 264.967 238.696 264.98 238.831 264.948C238.966 264.917 239.087 264.844 239.175 264.739C239.252 264.627 239.351 264.531 239.466 264.458C239.582 264.384 239.711 264.334 239.847 264.311C240.082 264.311 240.342 264.121 240.3 263.923C240.16 263.259 240.29 262.567 240.661 261.994C241.718 258.639 242.028 256.991 243.077 253.644C243.478 252.288 243.806 250.912 244.059 249.523C244.663 246.291 247.147 243.753 248.389 240.695C248.884 239.483 249.178 238.222 249.64 236.977C250.367 235.227 251.266 233.551 252.325 231.973C253.093 230.691 253.659 229.301 254.003 227.852C254.113 227.415 254.155 225.956 254.734 225.503Z" fill="#87929B"/>
<path d="M274.395 310.694L197.242 305.525C197.037 305.501 196.848 305.404 196.712 305.252C196.576 305.1 196.502 304.904 196.503 304.701C196.503 304.701 196.503 302.764 196.503 301.676C196.525 301.349 196.616 301.031 196.769 300.74C196.922 300.449 197.134 300.193 197.393 299.986C200.196 298.247 203.491 297.43 206.8 297.653C224.305 298.725 275 302.162 275 302.162C275.103 302.169 275.205 302.195 275.298 302.24C275.391 302.285 275.475 302.347 275.543 302.424C275.612 302.5 275.664 302.59 275.698 302.686C275.731 302.783 275.745 302.885 275.738 302.987L275.243 309.993C275.213 310.191 275.11 310.371 274.954 310.5C274.798 310.629 274.599 310.698 274.395 310.694Z" fill="#87929B"/>
<path d="M210.584 352.444C212.646 352.444 214.661 353.045 216.375 354.17C218.089 355.295 219.425 356.894 220.214 358.764C221.003 360.635 221.209 362.693 220.807 364.679C220.405 366.665 219.412 368.489 217.954 369.921C216.497 371.353 214.64 372.328 212.618 372.723C210.596 373.118 208.5 372.915 206.596 372.14C204.691 371.366 203.064 370.053 201.918 368.37C200.773 366.686 200.162 364.707 200.162 362.682C200.162 359.967 201.26 357.363 203.215 355.443C205.169 353.523 207.82 352.444 210.584 352.444ZM202.008 359.352L208.914 361.157C209.112 360.942 209.352 360.768 209.619 360.646L210.005 353.648C208.263 353.753 206.586 354.342 205.171 355.346C203.755 356.35 202.659 357.728 202.008 359.319V359.352ZM211.163 353.648L211.541 360.646C211.81 360.77 212.052 360.943 212.254 361.157L219.152 359.352C218.513 357.749 217.421 356.359 216.007 355.343C214.592 354.327 212.912 353.728 211.163 353.615V353.648ZM219.807 362.715C219.805 361.955 219.704 361.199 219.505 360.465L212.842 362.987C212.81 363.277 212.719 363.557 212.573 363.811L216.459 369.705C217.515 368.847 218.364 367.768 218.943 366.548C219.522 365.328 219.817 363.996 219.807 362.649V362.715ZM215.519 370.356L211.021 364.916C210.878 364.949 210.731 364.966 210.584 364.965C210.435 364.966 210.286 364.949 210.14 364.916L205.642 370.356C207.116 371.282 208.83 371.774 210.58 371.774C212.33 371.774 214.044 371.282 215.519 370.356ZM204.702 369.697L208.587 363.803C208.449 363.546 208.358 363.267 208.319 362.979L201.656 360.456C201.461 361.191 201.359 361.947 201.353 362.707C201.363 364.031 201.668 365.337 202.246 366.533C202.825 367.73 203.663 368.787 204.702 369.631V369.697Z" fill="#5F6E79"/>
<path d="M156.316 339.088L182 345.956C182.425 346.07 182.675 346.5 182.56 346.918L181.312 351.419C181.196 351.837 180.758 352.083 180.333 351.969L154.649 345.101C154.225 344.987 153.974 344.557 154.09 344.139L155.337 339.638C155.453 339.22 155.891 338.974 156.316 339.088Z" fill="#87929B"/>
<path d="M276.267 291.9C277.316 286.633 281.604 264.945 283.257 255.375C283.307 255.188 283.312 254.993 283.271 254.804C283.23 254.615 283.144 254.438 283.021 254.287C282.898 254.136 282.74 254.016 282.561 253.936C282.382 253.856 282.187 253.818 281.99 253.826C279.338 253.669 274.79 253.232 272.021 253.001C271.879 252.979 271.735 252.987 271.597 253.024C271.459 253.062 271.331 253.128 271.221 253.219C271.112 253.31 271.024 253.423 270.964 253.551C270.903 253.678 270.872 253.817 270.871 253.958C269.738 260.733 265.29 285.174 264.292 290.639C264.261 290.783 264.263 290.931 264.297 291.074C264.33 291.218 264.395 291.352 264.487 291.468C264.579 291.584 264.695 291.679 264.828 291.746C264.961 291.814 265.107 291.852 265.257 291.859L274.731 292.93C274.902 292.972 275.079 292.979 275.252 292.948C275.425 292.918 275.59 292.852 275.735 292.755C275.88 292.657 276.003 292.531 276.094 292.383C276.186 292.236 276.245 292.071 276.267 291.9Z" fill="#87929B"/>
<path d="M272.381 292.658V338.514H277.106V341.811H203.208C203.406 342.714 203.664 343.603 203.98 344.473C203.312 344.32 202.612 344.392 201.991 344.679C201.531 344.889 201.133 345.209 200.833 345.611C200.382 344.368 200.034 343.092 199.793 341.794H182.262L181.113 345.693L177.865 344.82L183.924 324.336C185.157 320.165 189.471 316.917 193.742 316.917H199.449V289.93C199.449 287.835 200.295 285.825 201.803 284.343C203.31 282.861 205.355 282.027 207.488 282.025H264.342C264.843 282.025 265.344 282.072 265.836 282.165L265.282 285.462C264.973 285.396 264.658 285.363 264.342 285.363H207.454C206.214 285.365 205.025 285.851 204.149 286.713C203.272 287.576 202.78 288.744 202.78 289.963V305.929L269.008 310.339V292.271L272.381 292.658ZM202.797 338.514H269.016V313.62L202.788 309.21V338.06C202.788 338.233 202.797 338.374 202.797 338.514ZM199.44 338.514C199.44 338.365 199.44 338.233 199.44 338.093V320.223H193.734C190.973 320.223 187.96 322.539 187.146 325.284L183.236 338.473L199.44 338.514Z" fill="#5F6E79"/>
<path d="M207.84 363.918C208.183 364.633 208.801 365.185 209.558 365.453C210.315 365.72 211.149 365.681 211.877 365.344C212.605 365.008 213.166 364.401 213.439 363.657C213.711 362.914 213.671 362.094 213.329 361.38L206.003 346.114C205.834 345.76 205.596 345.442 205.302 345.178C205.008 344.915 204.664 344.711 204.29 344.579C203.916 344.446 203.519 344.388 203.121 344.406C202.724 344.425 202.334 344.521 201.974 344.688C201.514 344.897 201.116 345.217 200.816 345.619C200.493 346.051 200.294 346.561 200.241 347.095C200.188 347.629 200.282 348.167 200.514 348.652L207.84 363.918Z" fill="#87929B"/>
<path d="M287.344 246.596C287.344 246.596 288.452 246.596 290.323 246.596C292.841 246.596 294.989 247.19 297.532 247.305C298.572 247.355 299.99 247.132 301.014 247.083C302.018 247.12 303.004 247.35 303.918 247.759C305.806 248.583 306.477 246.011 306.477 244.462C306.513 243.747 306.267 243.047 305.79 242.507C305.313 241.966 304.643 241.627 303.918 241.56H287.344C286.505 241.56 286.505 241.84 286.505 242.302V245.846C286.488 246.193 286.522 246.596 287.344 246.596Z" fill="#87929B"/>
<path d="M213.06 280.632H251.36C252.037 280.632 252.585 281.171 252.585 281.835V285.52C252.585 286.185 252.037 286.723 251.36 286.723H213.06C212.383 286.723 211.835 286.185 211.835 285.52V281.835C211.835 281.171 212.383 280.632 213.06 280.632Z" fill="#87929B"/>
<path d="M278.314 337.055H286.924C287.601 337.055 288.15 337.593 288.15 338.258V341.943C288.15 342.607 287.601 343.146 286.924 343.146H278.314C277.638 343.146 277.089 342.607 277.089 341.943V338.258C277.089 337.593 277.638 337.055 278.314 337.055Z" fill="#87929B"/>
<path d="M210.584 349.37C213.258 349.37 215.872 350.148 218.095 351.608C220.318 353.067 222.051 355.141 223.074 357.567C224.098 359.994 224.365 362.664 223.844 365.24C223.322 367.816 222.035 370.182 220.144 372.039C218.253 373.896 215.844 375.161 213.222 375.673C210.599 376.186 207.881 375.923 205.411 374.918C202.941 373.912 200.829 372.21 199.344 370.027C197.858 367.843 197.065 365.275 197.065 362.649C197.065 359.127 198.49 355.749 201.025 353.259C203.56 350.769 206.999 349.37 210.584 349.37ZM210.584 372.887C212.646 372.887 214.661 372.286 216.375 371.161C218.089 370.036 219.425 368.438 220.214 366.567C221.002 364.696 221.209 362.638 220.807 360.652C220.405 358.666 219.412 356.842 217.954 355.41C216.497 353.978 214.64 353.003 212.618 352.608C210.596 352.213 208.5 352.416 206.596 353.191C204.691 353.965 203.064 355.278 201.918 356.961C200.773 358.645 200.162 360.624 200.162 362.649C200.162 365.364 201.26 367.968 203.215 369.888C205.169 371.808 207.82 372.887 210.584 372.887Z" fill="#87929B"/>
<path d="M273.212 253.092L276.569 253.397L277.106 250.438C277.349 249.132 278.042 247.949 279.069 247.087C280.097 246.226 281.395 245.738 282.745 245.706L286.471 245.789V242.492L282.754 242.409C280.594 242.441 278.513 243.211 276.869 244.588C275.225 245.965 274.122 247.861 273.749 249.951L273.212 253.092Z" fill="#5F6E79"/>
<path d="M264.292 296.507C271.978 296.453 279.507 298.643 285.925 302.798C292.342 306.954 297.359 312.887 300.338 319.847C303.318 326.807 304.126 334.479 302.66 341.89C301.194 349.302 297.521 356.119 292.105 361.477C286.689 366.834 279.776 370.492 272.241 371.984C264.707 373.477 256.89 372.739 249.784 369.862C242.677 366.985 236.601 362.1 232.324 355.826C228.048 349.553 225.765 342.173 225.765 334.623C225.746 329.635 226.728 324.693 228.654 320.078C230.58 315.463 233.413 311.266 236.991 307.726C240.568 304.187 244.821 301.374 249.505 299.449C254.19 297.524 259.214 296.525 264.292 296.507ZM227.72 334.623C227.72 335.818 227.779 336.988 227.897 338.151L253.911 337.096L258.711 334.623L253.911 332.15L227.897 331.095C227.779 332.257 227.72 333.436 227.72 334.623ZM261.288 344.679L261.514 339.354L256.966 342.206L242.893 363.984C244.841 365.374 246.924 366.572 249.111 367.561L261.288 344.679ZM249.539 367.759C252.922 369.233 256.517 370.184 260.197 370.578L261.237 345.85L249.539 367.759ZM249.086 301.733C246.899 302.723 244.816 303.921 242.868 305.311L256.966 327.039L261.548 329.891L261.321 324.566L249.086 301.733ZM261.237 323.429L260.197 298.7C256.525 299.102 252.939 300.058 249.564 301.536L261.237 323.429ZM254.054 331.672L259.475 331.894L256.571 327.394L234.501 313.653C233.116 315.578 231.927 317.632 230.951 319.785L254.054 331.672ZM230.733 320.23C229.287 323.535 228.348 327.033 227.947 330.608L252.896 331.622L230.733 320.23ZM259.827 334.054C259.878 333.663 259.983 333.28 260.138 332.916L259.802 332.389L255.086 332.199L259.282 334.351L259.827 334.054ZM255.086 337.046L259.802 336.856L260.138 336.329C259.983 335.965 259.878 335.583 259.827 335.191L259.265 334.895L255.086 337.046ZM257.553 327.979L260.071 331.894H260.708C260.95 331.584 261.232 331.307 261.548 331.07V330.443L257.553 327.979ZM260.717 337.277H260.079L257.562 341.184L261.548 338.711V338.085C261.238 337.86 260.959 337.596 260.717 337.302V337.277ZM259.475 337.335L254.054 337.549L230.951 349.46C231.931 351.616 233.123 353.672 234.509 355.601L256.58 341.852L259.475 337.335ZM252.896 337.598L227.947 338.612C228.348 342.188 229.287 345.685 230.733 348.99L252.896 337.598ZM234.786 313.224L255.95 326.413L242.524 305.558C239.57 307.73 236.962 310.322 234.786 313.249V313.224ZM260.692 298.618L261.783 324.418L264.3 329.133L266.818 324.41L267.875 298.618C266.683 298.502 265.483 298.444 264.267 298.444C263.05 298.444 261.875 298.502 260.692 298.618ZM263.679 339.008C263.277 338.962 262.885 338.859 262.513 338.703L261.984 339.041L261.783 343.665L263.973 339.544L263.679 339.008ZM263.973 329.685L261.783 325.564L262.001 330.188L262.53 330.526C262.901 330.37 263.294 330.267 263.696 330.221L263.973 329.685ZM264.812 330.237C265.211 330.283 265.601 330.386 265.97 330.542L266.507 330.204L266.7 325.58L264.518 329.702L264.812 330.237ZM264.518 339.56L266.7 343.682L266.507 339.057L265.97 338.719C265.601 338.876 265.211 338.978 264.812 339.024L264.518 339.56ZM279.481 367.537C281.665 366.547 283.745 365.349 285.691 363.959L271.651 342.206L267.036 339.354L267.254 344.679L279.481 367.537ZM267.346 345.85L268.395 370.578C272.067 370.176 275.653 369.219 279.028 367.743L267.346 345.85ZM300.863 334.623C300.863 333.436 300.804 332.257 300.687 331.095L274.672 332.15L269.864 334.623L274.672 337.096L300.687 338.151C300.804 336.988 300.863 335.818 300.863 334.623ZM267.296 324.566L267.078 329.891L271.66 327.039L285.691 305.286C283.745 303.897 281.665 302.698 279.481 301.709L267.296 324.566ZM279.045 301.486C275.67 300.01 272.084 299.053 268.412 298.65L267.363 323.379L279.045 301.486ZM269.125 331.87L274.547 331.647L297.649 319.785C296.668 317.631 295.473 315.577 294.083 313.653L272.012 327.394L269.125 331.87ZM268.714 334.062L269.276 334.351L273.472 332.199L268.765 332.389L268.429 332.916C268.577 333.284 268.673 333.669 268.714 334.062ZM268.412 336.329L268.748 336.856L273.456 337.046L269.26 334.895L268.697 335.191C268.668 335.58 268.587 335.962 268.454 336.329H268.412ZM275.646 331.622L300.603 330.608C300.21 327.031 299.271 323.533 297.817 320.23L275.646 331.622ZM275.646 337.623L297.85 349.015C299.293 345.711 300.221 342.212 300.603 338.637L275.646 337.623ZM274.488 337.574L269.067 337.359L271.97 341.852L294.041 355.601C295.43 353.673 296.624 351.616 297.607 349.46L274.488 337.574ZM270.988 341.242L268.471 337.335H267.833C267.592 337.645 267.31 337.922 266.994 338.159V338.785L270.988 341.242ZM267.875 331.944H268.513L271.03 328.028L267.053 330.501V331.128C267.362 331.363 267.639 331.637 267.875 331.944ZM286.102 305.566L272.675 326.421L293.831 313.232C291.657 310.313 289.049 307.732 286.094 305.575L286.102 305.566ZM293.806 355.988L272.65 342.8L286.077 363.654C289.026 361.495 291.628 358.914 293.797 355.997L293.806 355.988ZM267.875 370.628L266.784 344.811L264.267 340.088L261.749 344.803L260.658 370.628C261.844 370.743 263.044 370.801 264.258 370.801C265.509 370.801 266.709 370.743 267.875 370.628ZM242.465 363.671L255.892 342.816L234.728 356.005C236.913 358.924 239.529 361.508 242.49 363.671H242.465Z" fill="#5F6E79"/>
<path d="M264.292 293.441C272.59 293.441 280.703 295.859 287.603 300.387C294.503 304.916 299.881 311.353 303.057 318.884C306.232 326.415 307.063 334.702 305.444 342.697C303.825 350.692 299.829 358.035 293.961 363.799C288.093 369.563 280.617 373.489 272.478 375.079C264.338 376.669 255.902 375.853 248.235 372.733C240.568 369.614 234.015 364.331 229.404 357.554C224.794 350.776 222.333 342.808 222.333 334.656C222.333 329.244 223.418 323.884 225.527 318.884C227.636 313.884 230.726 309.34 234.622 305.513C238.519 301.686 243.144 298.65 248.235 296.579C253.326 294.507 258.782 293.441 264.292 293.441ZM264.292 372.738C271.978 372.792 279.507 370.603 285.925 366.447C292.342 362.292 297.359 356.358 300.338 349.399C303.318 342.439 304.126 334.767 302.66 327.355C301.194 319.944 297.521 313.127 292.105 307.769C286.689 302.411 279.776 298.754 272.241 297.261C264.707 295.768 256.89 296.507 249.784 299.384C242.677 302.261 236.601 307.146 232.324 313.419C228.048 319.693 225.765 327.073 225.765 334.623C225.746 339.611 226.728 344.553 228.654 349.168C230.58 353.783 233.413 357.98 236.991 361.52C240.568 365.059 244.821 367.872 249.505 369.797C254.19 371.721 259.214 372.721 264.292 372.738Z" fill="#87929B"/>
<path d="M264.309 299.384C283.517 299.384 299.092 315.161 299.092 334.615C299.092 354.068 283.517 369.853 264.309 369.853C245.1 369.853 229.525 354.093 229.525 334.615C229.525 315.137 245.1 299.384 264.309 299.384ZM264.309 366.803C281.847 366.803 296.063 352.403 296.063 334.656C296.063 316.909 281.847 302.508 264.309 302.508C246.77 302.508 232.562 316.909 232.562 334.656C232.562 352.403 246.787 366.803 264.317 366.803H264.309Z" fill="#5F6E79"/>
<g clip-path="url(#clip0_161_44245)">
<path d="M319.932 255.282C319.793 255.265 319.802 255.273 319.932 255.282V255.282Z" fill="#87929B"/>
<path d="M345.235 165.626C344.72 164.483 344.342 163.283 344.109 162.051C343.965 161.486 343.93 160.898 344.006 160.32C344.672 160.406 344.508 159.731 345.027 159.766C345.546 159.801 345.893 159.619 346.334 158.9C346.533 158.589 346.602 158.208 346.784 157.879C347.165 157.178 347.962 156.814 348.516 156.234C349.07 155.654 349.217 154.503 348.516 154.2C348.895 153.857 349.162 153.407 349.279 152.909C349.397 152.411 349.36 151.889 349.173 151.412C348.785 150.465 348.14 149.644 347.312 149.04C347.562 149.054 347.81 148.985 348.017 148.845C348.225 148.705 348.381 148.501 348.462 148.264C348.544 148.027 348.545 147.771 348.468 147.533C348.39 147.295 348.236 147.089 348.031 146.946C347.797 146.772 347.468 146.669 347.373 146.392C347.278 146.115 347.667 145.664 347.823 145.275C347.92 144.921 347.902 144.545 347.771 144.201C347.373 142.652 346.966 141.102 346.568 139.553C346.117 137.341 345.319 135.214 344.205 133.251C343.644 132.256 342.858 131.406 341.909 130.77C340.961 130.134 339.876 129.73 338.742 129.589C336.578 127.858 333.488 128.17 330.796 128.758C328.448 129.271 326.17 130.062 324.009 131.113C323.464 131.416 322.882 131.649 322.278 131.805C321.556 131.866 320.839 131.97 320.131 132.117C318.728 132.61 318.096 134.194 317.638 135.58C317.293 136.476 317.08 137.418 317.006 138.376C316.973 138.853 317.042 139.331 317.209 139.779C317.377 140.227 317.638 140.634 317.975 140.973C318.205 141.136 318.404 141.338 318.564 141.57C318.945 142.314 318.027 143.093 317.949 143.933C317.889 144.608 318.382 145.188 318.633 145.82C318.812 146.339 318.883 146.889 318.843 147.437C318.803 147.985 318.652 148.518 318.399 149.006C317.958 150.001 317.309 150.884 316.815 151.854C316.608 152.278 316.443 152.849 316.815 153.187C317.188 153.525 317.75 153.377 318.131 153.654C318.512 153.931 318.477 154.71 318.425 155.299C318.373 155.888 318.728 156.676 319.291 156.502C319.114 156.606 318.979 156.769 318.911 156.962C318.843 157.156 318.846 157.367 318.919 157.558C319.023 157.948 319.256 158.294 319.386 158.675C319.715 159.636 319.317 160.761 319.776 161.67C320.313 162.735 321.758 162.943 322.944 162.787C324.172 162.52 325.429 162.412 326.684 162.467C328.277 162.666 328.718 163.514 329.488 165.548C329.946 167.385 330.199 169.266 330.242 171.158C331.739 170.664 334.128 169.331 336.795 168.379C340.101 167.167 344.023 165.834 345.235 165.626Z" fill="#87929B"/>
<path d="M310.972 242.228C310.513 241.657 308.6 239.285 307.51 238.038C307.214 238.235 306.89 238.387 306.549 238.488C306.103 238.57 305.651 238.605 305.198 238.592C303.398 238.67 301.736 239.674 299.935 239.674C299.438 239.609 298.933 239.666 298.463 239.839C298.159 240.03 297.902 240.288 297.71 240.592L296.983 241.587H298.663C298.31 242.319 297.895 243.02 297.425 243.682C296.783 244.688 296.218 245.741 295.737 246.833H293.295C293.376 248.281 293.788 249.69 294.499 250.954C294.611 251.166 294.765 251.352 294.953 251.501C295.141 251.65 295.358 251.758 295.589 251.819C295.802 251.91 296.033 251.947 296.263 251.926C296.493 251.905 296.713 251.826 296.905 251.698C297.351 251.388 297.738 251.001 298.048 250.555C297.956 250.74 297.902 250.941 297.89 251.147C297.877 251.353 297.906 251.56 297.974 251.754C298.043 251.949 298.15 252.128 298.289 252.28C298.428 252.433 298.596 252.555 298.784 252.642C299.151 252.814 299.567 252.852 299.959 252.75C300.351 252.647 300.695 252.409 300.931 252.079C300.981 252.433 301.146 252.76 301.401 253.01C301.655 253.261 301.985 253.42 302.34 253.465C302.694 253.509 303.053 253.435 303.362 253.255C303.67 253.075 303.911 252.799 304.047 252.469C304.038 252.75 304.134 253.024 304.317 253.239C304.499 253.453 304.755 253.592 305.034 253.629C305.631 253.741 306.176 253.239 306.687 252.91C307.198 252.581 307.553 251.845 308.02 251.43C308.578 250.762 309.084 250.053 309.535 249.309C311.015 247.534 311.517 246.037 312.695 244.331C312.072 243.578 311.284 242.617 310.972 242.228Z" fill="#87929B"/>
<path d="M307.146 237.631C308.098 238.661 310.453 241.587 310.963 242.228C311.474 242.868 313.214 244.989 313.56 245.439C313.664 245.587 313.846 245.612 314.08 245.327C314.842 244.401 316.677 242.591 316.962 242.159C316.582 244.643 316.218 248.963 316.097 250.365C315.984 252.382 315.655 254.364 315.404 257.671C315.153 260.978 315.067 262.718 314.764 266.128C316.808 266.428 318.87 266.598 320.936 266.639C322.97 266.639 331.549 266.83 333.583 266.7C333.86 265.67 334.994 257.55 335.271 256.399C335.557 257.645 336.587 265.756 336.795 266.605C341.062 266.336 347.295 265.791 349.676 265.289C352.572 264.722 355.401 263.851 358.116 262.692C354.748 249.915 356.384 241.05 355.397 227.841C354.783 219.781 353.19 211.791 353.181 203.706C353.181 199.906 353.528 196.114 353.606 192.314C353.735 186.107 353.112 179.745 350.533 174.135C349.87 172.696 348.965 171.382 347.858 170.249C347.642 169.984 347.331 169.813 346.992 169.773C347.045 169.589 347.053 169.396 347.015 169.209C346.977 169.022 346.895 168.847 346.776 168.699C346.341 168.054 346.028 167.335 345.849 166.578C345.702 165.981 345.849 165.505 345.183 165.713C344.014 165.92 340.093 167.253 336.708 168.465C334.042 169.418 331.653 170.751 330.155 171.244C329.775 171.383 329.464 171.666 329.289 172.032C327.056 175.901 324.191 179.537 321.81 183.433C319.43 187.328 317.482 191.639 317.283 196.201C317.292 198.793 317.5 201.38 317.906 203.94C318.557 208.534 318.557 213.196 317.906 217.79C317.378 221.4 316.305 222.811 317.04 226.378C313.975 229.657 310.667 232.701 307.146 235.484C306.993 235.599 306.864 235.743 306.767 235.908C306.67 236.073 306.608 236.256 306.583 236.445C306.608 236.899 306.81 237.325 307.146 237.631Z" fill="#87929B"/>
<path d="M374.71 363.835C374.295 362.883 374.26 362.831 373.845 361.879C373.991 361.615 374.058 361.314 374.035 361.013C373.979 359.825 373.599 358.676 372.936 357.689C372.524 357.016 372.01 356.411 371.412 355.897C371.213 356.07 370.997 356.235 370.772 356.399L370.633 356.503C370.408 356.659 370.174 356.806 369.932 356.953L369.793 357.031C369.568 357.161 369.343 357.291 369.101 357.412L368.962 357.49C368.703 357.62 368.434 357.749 368.157 357.871L367.941 357.966C367.655 358.087 367.378 358.208 367.075 358.321L366.963 358.364L366.149 358.658L365.907 358.745L365.041 359.039L364.799 359.108C364.539 359.195 364.27 359.273 364.011 359.342L363.829 359.394L362.911 359.645L362.66 359.706L361.751 359.922H361.63L360.765 360.104H360.6L359.682 360.286H359.587C356.99 360.788 354.939 361.022 354.393 361.074L351.978 356.373L351.649 355.732L350.913 356.139L350.758 356.217L350.091 356.555L349.892 356.65C349.65 356.771 349.399 356.884 349.139 356.996L349 357.057L348.083 357.429L347.91 357.481C347.659 357.576 347.408 357.663 347.156 357.732L346.845 357.827L346.213 357.992L345.867 358.061L345.226 358.174L344.923 358.217C344.613 358.251 344.301 358.269 343.988 358.269C341.919 358.269 337.738 357.948 335.886 357.948C335.835 358.134 335.795 358.322 335.764 358.511C335.764 358.702 335.591 358.797 335.436 359.005C335.28 359.212 334.968 359.585 335.262 360C333.912 360.554 332.934 361.731 331.748 362.597C330.011 363.677 328.073 364.393 326.052 364.701C325.307 364.797 324.591 365.048 323.948 365.436C323.415 365.868 322.996 366.424 322.728 367.055C322.208 368.068 321.923 369.418 322.728 370.249C323.188 370.663 323.76 370.932 324.372 371.02C328.631 371.998 333.072 371.808 337.435 371.609C338.638 371.604 339.837 371.45 341.002 371.15C341.281 371.062 341.553 370.952 341.815 370.821C341.6 371.164 341.423 371.53 341.287 371.912C340.906 372.976 340.785 374.344 341.642 375.08C342.151 375.435 342.753 375.634 343.374 375.651C347.702 376.11 352.099 375.383 356.41 374.656C357.596 374.511 358.759 374.22 359.873 373.79C361.319 373.158 363.18 371.271 364.651 370.561C365.251 370.414 365.871 370.367 366.487 370.423C369.144 370.163 371.083 369.012 373.732 367.592C374.228 367.384 374.659 367.046 374.979 366.614C375.472 365.774 375.1 364.718 374.71 363.835ZM399.97 368.769C400.178 368.674 400.377 368.587 400.576 368.518H400.637L399.97 368.769Z" fill="#87929B"/>
<path d="M372.434 352.72C372.244 351.758 371.917 350.828 371.464 349.958C370.929 349.16 370.351 348.392 369.733 347.656C366.573 343.379 364.998 338.454 363.327 333.407C362.219 330.048 361.154 326.69 358.921 323.945C354.722 318.751 352.601 312.692 349.399 306.866C348.542 305.483 347.938 303.959 347.615 302.365C347.479 300.949 347.546 299.52 347.814 298.123C349.225 288.203 350.273 276.066 350.836 265.038L349.762 265.289C347.382 265.791 341.106 266.336 336.881 266.604C336.673 265.739 335.643 257.645 335.358 256.398C335.081 257.55 333.947 265.67 333.67 266.7C331.635 266.83 323.057 266.639 321.022 266.639H320.598C320.97 272.82 321.412 279.624 321.724 284.125C322.304 292.418 322.944 300.91 325.593 308.701C326.225 313.307 326.926 317.721 327.714 321.79C328.779 327.33 330.12 332.81 331.471 338.289C332.588 342.843 333.289 347.309 334.12 351.923C334.336 353.118 334.795 356.174 334.985 357.654C335.037 357.966 335.6 358.009 335.964 358.018C337.816 358.018 342.023 358.338 344.066 358.338C346.715 358.338 349.684 356.97 351.727 355.801L352.056 356.442L354.437 361.151C355.778 361.021 367.032 359.706 371.438 355.879C371.969 355.498 372.366 354.959 372.572 354.339C372.663 353.796 372.615 353.239 372.434 352.72Z" fill="#87929B"/>
</g>
</g>
<defs>
<linearGradient id="paint0_linear_161_44245" x1="-22.5" y1="187" x2="-22.5" y2="250" gradientUnits="userSpaceOnUse">
<stop stop-color="#5F6E79"/>
<stop offset="1" stop-color="#394A58"/>
</linearGradient>
<linearGradient id="paint1_linear_161_44245" x1="260.5" y1="187" x2="260.5" y2="250" gradientUnits="userSpaceOnUse">
<stop stop-color="#5F6E79"/>
<stop offset="1" stop-color="#394A58"/>
</linearGradient>
<linearGradient id="paint2_linear_161_44245" x1="405.5" y1="187" x2="405.5" y2="250" gradientUnits="userSpaceOnUse">
<stop stop-color="#5F6E79"/>
<stop offset="1" stop-color="#394A58"/>
</linearGradient>
<linearGradient id="paint3_linear_161_44245" x1="120" y1="152" x2="120" y2="206" gradientUnits="userSpaceOnUse">
<stop stop-color="#5F6E79"/>
<stop offset="1" stop-color="#394A58"/>
</linearGradient>
<linearGradient id="paint4_linear_161_44245" x1="189" y1="153" x2="189" y2="234" gradientUnits="userSpaceOnUse">
<stop stop-color="#5F6E79"/>
<stop offset="1" stop-color="#394A58"/>
</linearGradient>
<linearGradient id="paint5_linear_161_44245" x1="49" y1="153" x2="49" y2="234" gradientUnits="userSpaceOnUse">
<stop stop-color="#5F6E79"/>
<stop offset="1" stop-color="#394A58"/>
</linearGradient>
<clipPath id="clip0_161_44245">
<rect width="107.341" height="247.499" fill="white" transform="translate(293.295 128.291)"/>
</clipPath>
</defs>
</svg>
