<svg width="1200" height="512" viewBox="0 0 1200 512" fill="none" xmlns="http://www.w3.org/2000/svg">
<g clip-path="url(#clip0_161_44016)">
<rect width="1200" height="512" fill="white"/>
<rect y="377" width="1200" height="135" fill="#C3C9CD"/>
<rect y="377" width="1200" height="11" fill="#D7DBDE"/>
<rect width="1200" height="377" transform="matrix(1 0 0 -1 0 377)" fill="white"/>
<rect width="1200" height="11" fill="#C3C9CD"/>
<rect x="202.375" y="307" width="188.124" height="64" fill="#EBEDEE"/>
<rect x="202.375" y="235" width="188.124" height="64" fill="#EBEDEE"/>
<rect x="202.375" y="163" width="188.124" height="63" fill="#EBEDEE"/>
<rect x="202.375" y="90" width="188.124" height="64" fill="#EBEDEE"/>
<rect x="202.375" y="18" width="188.124" height="64" fill="#EBEDEE"/>
<rect y="307" width="188.124" height="64" fill="#EBEDEE"/>
<rect y="235" width="188.124" height="64" fill="#EBEDEE"/>
<rect y="163" width="188.124" height="63" fill="#EBEDEE"/>
<rect y="90" width="188.124" height="64" fill="#EBEDEE"/>
<rect y="18" width="188.124" height="64" fill="#EBEDEE"/>
<rect x="404.751" y="307" width="188.124" height="64" fill="#EBEDEE"/>
<rect x="404.751" y="235" width="188.124" height="64" fill="#EBEDEE"/>
<rect x="404.751" y="163" width="188.124" height="63" fill="#EBEDEE"/>
<rect x="404.751" y="90" width="188.124" height="64" fill="#EBEDEE"/>
<rect x="404.751" y="18" width="188.124" height="64" fill="#EBEDEE"/>
<rect x="607.126" y="307" width="188.124" height="64" fill="#EBEDEE"/>
<rect x="607.126" y="235" width="188.124" height="64" fill="#EBEDEE"/>
<rect x="607.126" y="163" width="188.124" height="63" fill="#EBEDEE"/>
<rect x="607.126" y="90" width="188.124" height="64" fill="#EBEDEE"/>
<rect x="607.126" y="18" width="188.124" height="64" fill="#EBEDEE"/>
<rect x="809.501" y="307" width="188.124" height="64" fill="#EBEDEE"/>
<rect x="809.501" y="235" width="188.124" height="64" fill="#EBEDEE"/>
<rect x="809.501" y="163" width="188.124" height="63" fill="#EBEDEE"/>
<rect x="809.501" y="90" width="188.124" height="64" fill="#EBEDEE"/>
<rect x="809.501" y="18" width="188.124" height="64" fill="#EBEDEE"/>
<rect x="1011.88" y="307" width="188.124" height="64" fill="#EBEDEE"/>
<rect x="1011.88" y="235" width="188.124" height="64" fill="#EBEDEE"/>
<rect x="1011.88" y="163" width="188.124" height="63" fill="#EBEDEE"/>
<rect x="1011.88" y="90" width="188.124" height="64" fill="#EBEDEE"/>
<rect x="1011.88" y="18" width="188.124" height="64" fill="#EBEDEE"/>
<path d="M645 -0.5L848 378H857L662.5 -0.5H645Z" fill="#C3C9CD"/>
<path d="M720.5 -0.5L848 378H857L740 -0.5H720.5Z" fill="#C3C9CD"/>
<path d="M1060.5 -0.5L857.5 378H848.5L1043 -0.5H1060.5Z" fill="#C3C9CD"/>
<path d="M985 -0.5L857.5 378H848.5L965.5 -0.5H985Z" fill="#C3C9CD"/>
<path d="M101.5 -0.5L304.5 378H313.5L119 -0.5H101.5Z" fill="#C3C9CD"/>
<path d="M177 -0.5L304.5 378H313.5L196.5 -0.5H177Z" fill="#C3C9CD"/>
<path d="M517 -0.5L314 378H305L499.5 -0.5H517Z" fill="#C3C9CD"/>
<path d="M441.5 -0.5L314 378H305L422 -0.5H441.5Z" fill="#C3C9CD"/>
<rect x="827" y="135" width="373" height="243" fill="#5F6E79"/>
<g filter="url(#filter0_i_161_44016)">
<path d="M757 82H1200V137H1103V378H1061V137H827V378H757V82Z" fill="#D7DBDE"/>
</g>
<path d="M825.504 118V106.8H827.104V111.472H827.872L832.256 106.8H834.16L829.232 112.096L834.576 118H832.464L827.856 112.784H827.104V118H825.504ZM836.34 111.504L836.148 110.176C837.044 109.824 838.404 109.712 838.964 109.712C839.988 109.712 840.836 109.984 841.364 110.512C842.084 111.232 842.132 112.16 842.132 113.04V116.352C842.132 116.72 842.132 117.6 842.196 118H840.788V116.896H840.756C840.084 117.808 839.012 118.128 838.084 118.128C837.348 118.128 836.612 117.904 836.132 117.552C835.652 117.2 835.236 116.608 835.236 115.696C835.236 115.136 835.428 114.128 836.516 113.52C836.9 113.296 837.748 112.976 839.604 112.976C839.892 112.976 840.356 112.992 840.628 113.008V112.56C840.628 112.24 840.612 111.76 840.148 111.36C839.684 110.96 839.044 110.928 838.66 110.928C837.828 110.928 836.932 111.136 836.34 111.504ZM840.628 114.816V114.112C840.34 114.096 840.052 114.08 839.764 114.08C838.58 114.08 837.876 114.224 837.428 114.528C836.948 114.848 836.836 115.28 836.836 115.616C836.836 116.096 837.06 116.4 837.268 116.56C837.572 116.8 838.004 116.912 838.436 116.912C839.044 116.912 839.684 116.688 840.084 116.272C840.356 115.984 840.628 115.504 840.628 114.816ZM849.999 118H848.671L846.175 111.376V118H844.671V109.84H846.959L849.295 115.68H849.375L851.695 109.84H853.999V118H852.495V111.376L849.999 118ZM863.441 114.256H857.617C857.633 114.976 857.905 115.632 858.305 116.064C858.737 116.544 859.441 116.912 860.353 116.912C861.217 116.912 862.209 116.528 862.817 116.096V117.6L862.593 117.68C862.145 117.84 861.585 118.128 860.241 118.128C859.249 118.128 858.001 117.952 857.073 116.96C856.577 116.432 856.017 115.456 856.017 113.888C856.017 112.16 856.689 111.168 857.281 110.64C857.777 110.192 858.593 109.712 859.841 109.712C861.265 109.712 862.081 110.288 862.545 110.864C863.153 111.616 863.441 112.784 863.441 113.824V114.256ZM857.617 113.136H861.841C861.857 112.56 861.665 112.032 861.377 111.664C861.121 111.344 860.625 110.928 859.761 110.928C858.993 110.928 858.465 111.296 858.129 111.744C857.841 112.144 857.665 112.656 857.617 113.136ZM865.452 109.84H866.892V111.008H866.924C867.756 109.84 869.02 109.712 869.628 109.712C870.668 109.712 871.548 110.032 872.22 110.8C872.812 111.488 873.212 112.56 873.212 113.856C873.212 116.4 871.804 118.128 869.132 118.128C868.348 118.128 867.356 117.856 866.988 117.568H866.956V121.584H865.452V109.84ZM866.956 112.72V116.032C867.516 116.656 868.54 116.912 869.324 116.912C870.044 116.912 870.54 116.576 870.86 116.224C871.308 115.728 871.612 114.896 871.612 113.808C871.612 113.168 871.516 112.288 870.94 111.632C870.572 111.2 870.044 110.928 869.372 110.928C868.22 110.928 867.324 111.76 866.956 112.72ZM875.637 111.504L875.445 110.176C876.341 109.824 877.701 109.712 878.261 109.712C879.285 109.712 880.133 109.984 880.661 110.512C881.381 111.232 881.429 112.16 881.429 113.04V116.352C881.429 116.72 881.429 117.6 881.493 118H880.085V116.896H880.053C879.381 117.808 878.309 118.128 877.381 118.128C876.645 118.128 875.909 117.904 875.429 117.552C874.949 117.2 874.533 116.608 874.533 115.696C874.533 115.136 874.725 114.128 875.813 113.52C876.197 113.296 877.045 112.976 878.901 112.976C879.189 112.976 879.653 112.992 879.925 113.008V112.56C879.925 112.24 879.909 111.76 879.445 111.36C878.981 110.96 878.341 110.928 877.957 110.928C877.125 110.928 876.229 111.136 875.637 111.504ZM879.925 114.816V114.112C879.637 114.096 879.349 114.08 879.061 114.08C877.877 114.08 877.173 114.224 876.725 114.528C876.245 114.848 876.133 115.28 876.133 115.616C876.133 116.096 876.357 116.4 876.565 116.56C876.869 116.8 877.301 116.912 877.733 116.912C878.341 116.912 878.981 116.688 879.381 116.272C879.653 115.984 879.925 115.504 879.925 114.816ZM886.582 118L889.526 113.728L886.87 109.84H888.742L890.518 112.752L892.326 109.84H894.006L891.382 113.728L894.262 118H892.406L890.39 114.8L888.374 118H886.582ZM895.702 109.84H897.142V111.008H897.174C898.006 109.84 899.27 109.712 899.878 109.712C900.918 109.712 901.798 110.032 902.47 110.8C903.062 111.488 903.462 112.56 903.462 113.856C903.462 116.4 902.054 118.128 899.382 118.128C898.598 118.128 897.606 117.856 897.238 117.568H897.206V121.584H895.702V109.84ZM897.206 112.72V116.032C897.766 116.656 898.79 116.912 899.574 116.912C900.294 116.912 900.79 116.576 901.11 116.224C901.558 115.728 901.862 114.896 901.862 113.808C901.862 113.168 901.766 112.288 901.19 111.632C900.822 111.2 900.294 110.928 899.622 110.928C898.47 110.928 897.574 111.76 897.206 112.72ZM905.887 111.504L905.695 110.176C906.591 109.824 907.951 109.712 908.511 109.712C909.535 109.712 910.383 109.984 910.911 110.512C911.631 111.232 911.679 112.16 911.679 113.04V116.352C911.679 116.72 911.679 117.6 911.743 118H910.335V116.896H910.303C909.631 117.808 908.559 118.128 907.631 118.128C906.895 118.128 906.159 117.904 905.679 117.552C905.199 117.2 904.783 116.608 904.783 115.696C904.783 115.136 904.975 114.128 906.063 113.52C906.447 113.296 907.295 112.976 909.151 112.976C909.439 112.976 909.903 112.992 910.175 113.008V112.56C910.175 112.24 910.159 111.76 909.695 111.36C909.231 110.96 908.591 110.928 908.207 110.928C907.375 110.928 906.479 111.136 905.887 111.504ZM910.175 114.816V114.112C909.887 114.096 909.599 114.08 909.311 114.08C908.127 114.08 907.423 114.224 906.975 114.528C906.495 114.848 906.383 115.28 906.383 115.616C906.383 116.096 906.607 116.4 906.815 116.56C907.119 116.8 907.551 116.912 907.983 116.912C908.591 116.912 909.231 116.688 909.631 116.272C909.903 115.984 910.175 115.504 910.175 114.816ZM915.77 109.84V113.152H919.93V109.84H921.434V118H919.93V114.368H915.77V118H914.266V109.84H915.77ZM930.832 114.256H925.008C925.024 114.976 925.296 115.632 925.696 116.064C926.128 116.544 926.832 116.912 927.744 116.912C928.608 116.912 929.6 116.528 930.208 116.096V117.6L929.984 117.68C929.536 117.84 928.976 118.128 927.632 118.128C926.64 118.128 925.392 117.952 924.464 116.96C923.968 116.432 923.408 115.456 923.408 113.888C923.408 112.16 924.08 111.168 924.672 110.64C925.168 110.192 925.984 109.712 927.232 109.712C928.656 109.712 929.472 110.288 929.936 110.864C930.544 111.616 930.832 112.784 930.832 113.824V114.256ZM925.008 113.136H929.232C929.248 112.56 929.056 112.032 928.768 111.664C928.512 111.344 928.016 110.928 927.152 110.928C926.384 110.928 925.856 111.296 925.52 111.744C925.232 112.144 925.056 112.656 925.008 113.136ZM934.395 109.84V113.152H938.555V109.84H940.059V118H938.555V114.368H934.395V118H932.891V109.84H934.395ZM944.081 109.84V116L948.465 109.84H949.969V118H948.465V111.84L944.081 118H942.577V109.84H944.081ZM958.386 109.84V118H956.882V114.784H955.394L953.746 118H951.97L953.89 114.512C953.186 114.368 952.786 113.968 952.626 113.776C952.386 113.488 952.13 112.992 952.13 112.256C952.13 111.488 952.514 110.88 952.962 110.496C953.41 110.128 954.114 109.84 954.834 109.84H958.386ZM956.882 110.976H955.202C954.818 110.976 954.45 111.024 954.098 111.376C953.778 111.696 953.73 112.064 953.73 112.32C953.73 112.656 953.842 112.992 954.098 113.248C954.466 113.632 954.946 113.664 955.202 113.664H956.882V110.976Z" fill="#E21A1A"/>
<path d="M1167 273C1167 264.716 1173.72 258 1182 258H1200V290H1167V273Z" fill="#9BA4AB"/>
<rect x="1136" y="293" width="64" height="85" fill="#AFB7BC"/>
<g filter="url(#filter1_di_161_44016)">
<rect x="837" y="147" width="65" height="69" rx="3" fill="#AFB7BC"/>
</g>
<circle cx="886" cy="182" r="8" fill="#D7DBDE"/>
<rect x="874" y="178" width="21" height="8" rx="2" fill="#394A58"/>
<circle cx="850.5" cy="200.5" r="4.5" fill="#D7DBDE"/>
<circle cx="877.5" cy="200.5" r="4.5" fill="#D7DBDE"/>
<circle cx="863.5" cy="200.5" r="4.5" fill="#D7DBDE"/>
<circle cx="890.5" cy="200.5" r="4.5" fill="#D7DBDE"/>
<circle cx="850.5" cy="200.5" r="3.5" fill="#73808A"/>
<circle cx="877.5" cy="200.5" r="3.5" fill="#73808A"/>
<circle cx="863.5" cy="200.5" r="3.5" fill="#73808A"/>
<circle cx="890.5" cy="200.5" r="3.5" fill="#73808A"/>
<circle cx="851.5" cy="162.5" r="5.5" fill="#608470"/>
<rect x="874" y="181" width="9" height="1" fill="#AFB7BC"/>
<g filter="url(#filter2_di_161_44016)">
<rect x="837" y="224" width="65" height="69" rx="3" fill="#AFB7BC"/>
</g>
<circle cx="886" cy="259" r="8" fill="#D7DBDE"/>
<rect x="874" y="255" width="21" height="8" rx="2" fill="#394A58"/>
<circle cx="850.5" cy="277.5" r="4.5" fill="#D7DBDE"/>
<circle cx="877.5" cy="277.5" r="4.5" fill="#D7DBDE"/>
<circle cx="863.5" cy="277.5" r="4.5" fill="#D7DBDE"/>
<circle cx="890.5" cy="277.5" r="4.5" fill="#D7DBDE"/>
<circle cx="850.5" cy="277.5" r="3.5" fill="#73808A"/>
<circle cx="877.5" cy="277.5" r="3.5" fill="#73808A"/>
<circle cx="863.5" cy="277.5" r="3.5" fill="#73808A"/>
<circle cx="890.5" cy="277.5" r="3.5" fill="#73808A"/>
<circle cx="851.5" cy="239.5" r="5.5" fill="#608470"/>
<rect x="874" y="258" width="9" height="1" fill="#AFB7BC"/>
<g filter="url(#filter3_di_161_44016)">
<rect x="837" y="301" width="65" height="69" rx="3" fill="#AFB7BC"/>
</g>
<circle cx="886" cy="336" r="8" fill="#D7DBDE"/>
<rect x="874" y="332" width="21" height="8" rx="2" fill="#394A58"/>
<circle cx="850.5" cy="354.5" r="4.5" fill="#D7DBDE"/>
<circle cx="877.5" cy="354.5" r="4.5" fill="#D7DBDE"/>
<circle cx="863.5" cy="354.5" r="4.5" fill="#D7DBDE"/>
<circle cx="890.5" cy="354.5" r="4.5" fill="#D7DBDE"/>
<circle cx="850.5" cy="354.5" r="3.5" fill="#73808A"/>
<circle cx="877.5" cy="354.5" r="3.5" fill="#73808A"/>
<circle cx="863.5" cy="354.5" r="3.5" fill="#73808A"/>
<circle cx="890.5" cy="354.5" r="3.5" fill="#73808A"/>
<circle cx="851.5" cy="316.5" r="5.5" fill="#608470"/>
<rect x="874" y="335" width="9" height="1" fill="#AFB7BC"/>
<g filter="url(#filter4_di_161_44016)">
<rect x="912" y="147" width="65" height="69" rx="3" fill="#AFB7BC"/>
</g>
<circle cx="961" cy="182" r="8" fill="#D7DBDE"/>
<rect x="949" y="178" width="21" height="8" rx="2" fill="#394A58"/>
<circle cx="925.5" cy="200.5" r="4.5" fill="#D7DBDE"/>
<circle cx="952.5" cy="200.5" r="4.5" fill="#D7DBDE"/>
<circle cx="938.5" cy="200.5" r="4.5" fill="#D7DBDE"/>
<circle cx="965.5" cy="200.5" r="4.5" fill="#D7DBDE"/>
<circle cx="925.5" cy="200.5" r="3.5" fill="#73808A"/>
<circle cx="952.5" cy="200.5" r="3.5" fill="#73808A"/>
<circle cx="938.5" cy="200.5" r="3.5" fill="#73808A"/>
<circle cx="965.5" cy="200.5" r="3.5" fill="#73808A"/>
<circle cx="926.5" cy="162.5" r="5.5" fill="#608470"/>
<rect x="949" y="181" width="9" height="1" fill="#AFB7BC"/>
<g filter="url(#filter5_di_161_44016)">
<rect x="912" y="224" width="65" height="69" rx="3" fill="#AFB7BC"/>
</g>
<circle cx="961" cy="259" r="8" fill="#D7DBDE"/>
<rect x="949" y="255" width="21" height="8" rx="2" fill="#394A58"/>
<circle cx="925.5" cy="277.5" r="4.5" fill="#D7DBDE"/>
<circle cx="952.5" cy="277.5" r="4.5" fill="#D7DBDE"/>
<circle cx="938.5" cy="277.5" r="4.5" fill="#D7DBDE"/>
<circle cx="965.5" cy="277.5" r="4.5" fill="#D7DBDE"/>
<circle cx="925.5" cy="277.5" r="3.5" fill="#73808A"/>
<circle cx="952.5" cy="277.5" r="3.5" fill="#73808A"/>
<circle cx="938.5" cy="277.5" r="3.5" fill="#73808A"/>
<circle cx="965.5" cy="277.5" r="3.5" fill="#73808A"/>
<circle cx="926.5" cy="239.5" r="5.5" fill="#608470"/>
<rect x="949" y="258" width="9" height="1" fill="#AFB7BC"/>
<g filter="url(#filter6_di_161_44016)">
<rect x="912" y="301" width="65" height="69" rx="3" fill="#AFB7BC"/>
</g>
<circle cx="961" cy="336" r="8" fill="#D7DBDE"/>
<rect x="949" y="332" width="21" height="8" rx="2" fill="#394A58"/>
<circle cx="925.5" cy="354.5" r="4.5" fill="#D7DBDE"/>
<circle cx="952.5" cy="354.5" r="4.5" fill="#D7DBDE"/>
<circle cx="938.5" cy="354.5" r="4.5" fill="#D7DBDE"/>
<circle cx="965.5" cy="354.5" r="4.5" fill="#D7DBDE"/>
<circle cx="925.5" cy="354.5" r="3.5" fill="#73808A"/>
<circle cx="952.5" cy="354.5" r="3.5" fill="#73808A"/>
<circle cx="938.5" cy="354.5" r="3.5" fill="#73808A"/>
<circle cx="965.5" cy="354.5" r="3.5" fill="#73808A"/>
<circle cx="926.5" cy="316.5" r="5.5" fill="#CA5D5D"/>
<rect x="949" y="335" width="9" height="1" fill="#AFB7BC"/>
<g filter="url(#filter7_di_161_44016)">
<rect x="987" y="147" width="65" height="69" rx="3" fill="#AFB7BC"/>
</g>
<circle cx="1036" cy="182" r="8" fill="#D7DBDE"/>
<rect x="1024" y="178" width="21" height="8" rx="2" fill="#394A58"/>
<circle cx="1000.5" cy="200.5" r="4.5" fill="#D7DBDE"/>
<circle cx="1027.5" cy="200.5" r="4.5" fill="#D7DBDE"/>
<circle cx="1013.5" cy="200.5" r="4.5" fill="#D7DBDE"/>
<circle cx="1040.5" cy="200.5" r="4.5" fill="#D7DBDE"/>
<circle cx="1000.5" cy="200.5" r="3.5" fill="#73808A"/>
<circle cx="1027.5" cy="200.5" r="3.5" fill="#73808A"/>
<circle cx="1013.5" cy="200.5" r="3.5" fill="#73808A"/>
<circle cx="1040.5" cy="200.5" r="3.5" fill="#73808A"/>
<circle cx="1001.5" cy="162.5" r="5.5" fill="#CA5D5D"/>
<rect x="1024" y="181" width="9" height="1" fill="#AFB7BC"/>
<g filter="url(#filter8_di_161_44016)">
<rect x="987" y="224" width="65" height="69" rx="3" fill="#AFB7BC"/>
</g>
<circle cx="1036" cy="259" r="8" fill="#D7DBDE"/>
<rect x="1024" y="255" width="21" height="8" rx="2" fill="#394A58"/>
<circle cx="1000.5" cy="277.5" r="4.5" fill="#D7DBDE"/>
<circle cx="1027.5" cy="277.5" r="4.5" fill="#D7DBDE"/>
<circle cx="1013.5" cy="277.5" r="4.5" fill="#D7DBDE"/>
<circle cx="1040.5" cy="277.5" r="4.5" fill="#D7DBDE"/>
<circle cx="1000.5" cy="277.5" r="3.5" fill="#73808A"/>
<circle cx="1027.5" cy="277.5" r="3.5" fill="#73808A"/>
<circle cx="1013.5" cy="277.5" r="3.5" fill="#73808A"/>
<circle cx="1040.5" cy="277.5" r="3.5" fill="#73808A"/>
<circle cx="1001.5" cy="239.5" r="5.5" fill="#608470"/>
<rect x="1024" y="258" width="9" height="1" fill="#AFB7BC"/>
<g filter="url(#filter9_di_161_44016)">
<rect x="987" y="301" width="65" height="69" rx="3" fill="#AFB7BC"/>
</g>
<circle cx="1036" cy="336" r="8" fill="#D7DBDE"/>
<rect x="1024" y="332" width="21" height="8" rx="2" fill="#394A58"/>
<circle cx="1000.5" cy="354.5" r="4.5" fill="#D7DBDE"/>
<circle cx="1027.5" cy="354.5" r="4.5" fill="#D7DBDE"/>
<circle cx="1013.5" cy="354.5" r="4.5" fill="#D7DBDE"/>
<circle cx="1040.5" cy="354.5" r="4.5" fill="#D7DBDE"/>
<circle cx="1000.5" cy="354.5" r="3.5" fill="#73808A"/>
<circle cx="1027.5" cy="354.5" r="3.5" fill="#73808A"/>
<circle cx="1013.5" cy="354.5" r="3.5" fill="#73808A"/>
<circle cx="1040.5" cy="354.5" r="3.5" fill="#73808A"/>
<circle cx="1001.5" cy="316.5" r="5.5" fill="#CA5D5D"/>
<rect x="1024" y="335" width="9" height="1" fill="#AFB7BC"/>
<path opacity="0.3" d="M1004.75 309C930.752 309 932.753 409.001 1004.75 409.001H1109.75C1147.75 409.001 1199.5 374.5 1199.5 374.5V239C1199.5 239 1197 245.5 1156 267.5C1115 289.5 1090 309 1004.75 309Z" fill="#AFB7BC"/>
<path d="M1004.75 409.001C932.753 409.001 930.752 309 1004.75 309" stroke="#394A58" stroke-width="7"/>
<path opacity="0.5" d="M976.753 309C902.752 309 904.753 409.001 976.753 409.001H1081.75C1119.75 409.001 1199.75 354 1199.75 354V239C1199.75 239 1159.75 267 1119.75 286C1079.75 305 1064.75 309 976.753 309Z" fill="#AFB7BC"/>
<path fill-rule="evenodd" clip-rule="evenodd" d="M1176.61 258.343C1161.55 267.753 1141.42 279.581 1121.25 289.162C1101.17 298.703 1087.07 304.619 1066.84 308.075C1046.76 311.507 1020.73 312.5 976.753 312.5C959.083 312.5 946.279 318.446 937.921 327.062C929.526 335.717 925.386 347.303 925.502 358.966C925.619 370.631 929.994 382.247 938.475 390.931C946.916 399.573 959.611 405.501 976.753 405.501V412.501C957.894 412.501 943.339 405.929 933.467 395.821C923.636 385.755 918.636 372.371 918.503 359.036C918.369 345.698 923.105 332.283 932.897 322.188C942.726 312.055 957.422 305.5 976.753 305.5C1020.77 305.5 1046.24 304.494 1065.66 301.175C1084.93 297.882 1098.34 292.298 1118.25 282.839C1138.08 273.42 1157.95 261.748 1172.9 252.407C1180.36 247.741 1186.58 243.667 1190.93 240.761C1193.11 239.309 1194.82 238.148 1195.98 237.353C1196.56 236.955 1197 236.649 1197.3 236.442C1198.59 235.55 1199.93 234.5 1199.93 234.5V243.128C1198.75 243.938 1197.02 245.113 1194.82 246.583C1190.42 249.521 1184.14 253.634 1176.61 258.343Z" fill="#394A58"/>
<path d="M1081.75 409.001C1119.75 409.001 1199.75 354 1199.75 354V435H976.753H951L976.753 409.001H1081.75Z" fill="#AFB7BC"/>
<path fill-rule="evenodd" clip-rule="evenodd" d="M1200 358C1197.72 359.515 1192.61 362.954 1188.54 365.546C1180.41 370.727 1169.16 377.641 1156.7 384.56C1144.26 391.473 1130.56 398.424 1117.52 403.655C1104.58 408.851 1091.95 412.501 1081.75 412.501H978.212L955 435H946.05L972.359 408.461C974.237 406.567 976.794 405.501 979.461 405.501H1081.75C1090.56 405.501 1102.17 402.276 1114.92 397.159C1127.57 392.078 1141 385.278 1153.3 378.441C1165.6 371.609 1176.72 364.773 1184.78 359.642C1188.8 357.078 1192.06 354.942 1194.3 353.449L1200 349.5V358Z" fill="#87929B"/>
<path d="M99.9171 291.2C98.4554 286.089 102.293 281 107.609 281H109.85C112.987 281 115.834 282.833 117.132 285.687L148.066 353.687C150.475 358.984 146.603 365 140.784 365H127.056C123.485 365 120.347 362.633 119.365 359.2L99.9171 291.2Z" fill="#87929B"/>
<path d="M185 388L177 362H185L192 388H185Z" fill="#87929B"/>
<path d="M134 388L139 362H132L128 388H134Z" fill="#87929B"/>
<path d="M118.776 326.474C117.853 321.551 121.63 317 126.639 317H193.306C197.986 317 201.667 321 201.278 325.664L198.611 357.664C198.266 361.811 194.8 365 190.639 365H132.639C128.79 365 125.486 362.258 124.776 358.474L118.776 326.474Z" fill="#AFB7BC"/>
<rect x="263" y="342" width="61" height="20" rx="5" fill="#AFB7BC"/>
<rect x="252" y="328" width="11" height="34" rx="5" fill="#87929B"/>
<rect x="446" y="328" width="11" height="34" rx="5" fill="#87929B"/>
<path d="M266.493 311.432C266.782 308.907 268.919 307 271.461 307H315.539C318.081 307 320.218 308.907 320.507 311.432L323.364 336.432C323.703 339.399 321.382 342 318.396 342H268.604C265.618 342 263.297 339.399 263.636 336.432L266.493 311.432Z" fill="#87929B"/>
<path d="M327.493 311.432C327.782 308.907 329.919 307 332.461 307H376.539C379.081 307 381.218 308.907 381.507 311.432L384.364 336.432C384.703 339.399 382.382 342 379.396 342H329.604C326.618 342 324.297 339.399 324.636 336.432L327.493 311.432Z" fill="#87929B"/>
<path d="M388.493 311.432C388.782 308.907 390.919 307 393.461 307H437.539C440.081 307 442.218 308.907 442.507 311.432L445.364 336.432C445.703 339.399 443.382 342 440.396 342H390.604C387.618 342 385.297 339.399 385.636 336.432L388.493 311.432Z" fill="#87929B"/>
<rect x="324" y="342" width="61" height="20" rx="5" fill="#AFB7BC"/>
<rect x="385" y="342" width="61" height="20" rx="5" fill="#AFB7BC"/>
<rect x="269" y="361" width="6" height="27" fill="#AFB7BC"/>
<rect x="327" y="361" width="6" height="27" fill="#AFB7BC"/>
<rect x="436" y="361" width="6" height="27" fill="#AFB7BC"/>
<rect x="376" y="361" width="6" height="27" fill="#AFB7BC"/>
<path d="M666 335H724L714 396H676L666 335Z" fill="#87929B"/>
<g filter="url(#filter10_i_161_44016)">
<path d="M707.286 218.169L707.526 216.756L707.886 217.552C708.233 217.373 708.59 217.215 708.956 217.079L709.328 216.935L709.576 216.853L709.879 216.741L710.183 216.656L710.764 216.502L711.057 216.487L711.477 216.467L711.812 216.451L712.301 216.427L712.595 216.413C712.845 216.387 713.097 216.375 713.35 216.376L713.629 216.363L714.206 216.405L714.499 216.391C714.785 216.418 715.068 216.465 715.346 216.532L715.342 216.448L715.237 216.299L715.234 216.229L715.025 215.973L714.935 215.851L714.743 215.65L714.61 215.503C714.607 215.433 714.478 215.369 714.39 215.303L714.228 215.129L713.848 214.811L713.6 214.613L713.098 214.076L712.809 213.894L712.476 213.672L712.086 213.425L711.669 213.206L711.094 212.912L710.648 212.667L710.191 212.479L709.706 212.306L709.221 212.12L709.067 212.127C707.33 211.607 705.537 211.294 703.726 211.194C702.526 211.869 702.378 212.283 702.378 212.283L702.568 211.867C700.913 212.133 699.301 212.621 697.777 213.318L697.679 213.323L697.106 213.645L697.008 213.649C696.813 213.78 696.628 213.924 696.455 214.083L696.307 214.216C696.19 214.333 696.084 214.46 695.989 214.596L695.871 214.755C695.758 214.928 695.673 215.116 695.617 215.314L695.28 214.714L692.873 216.512L693.056 215.648L691.918 215.591L693.031 215.131L694.507 209.454L693.35 208.991L694.982 209.123L695.262 208.535C696.064 206.75 697.105 205.083 698.356 203.578L697.564 202.846L698.57 203.358C699.546 201.757 700.722 200.287 702.071 198.984L701.531 197.959L702.392 198.674C702.392 198.674 704.307 193.943 706.395 193.379C703.317 193.504 700.265 193.995 697.303 194.842L697.343 195.667L696.809 195.342C696.809 195.342 692.574 197.579 691.287 199.365C691.201 199.608 691.141 199.821 691.067 200.021L690.983 200.319L690.911 200.561C690.895 200.633 690.875 200.704 690.851 200.774C690.857 200.83 690.86 200.886 690.859 200.942L690.864 201.04L690.868 201.123L690.34 200.056C688.9 201.529 687.791 203.293 687.088 205.23C687.323 205.655 687.461 206.127 687.491 206.612L686.634 205.701C686.301 206.199 686.058 206.751 685.915 207.333C685.924 207.515 685.809 207.745 685.75 207.986L685.759 208.167C685.714 208.394 685.669 208.634 685.626 208.889C685.626 208.889 685.63 208.972 685.632 209.014C685.646 209.308 685.564 209.634 685.538 209.972L685.551 210.238C685.565 210.531 685.58 210.839 685.526 211.164C685.523 211.252 685.527 211.341 685.538 211.429C685.549 211.639 685.559 211.863 685.57 212.087C684.049 209.609 682.029 206.946 682.029 206.946L680.125 207.263L680.571 206.625C680.092 205.806 679.452 205.093 678.69 204.529L677.683 204.858L678.301 203.721C676.64 202.471 674.722 201.606 672.686 201.19L671.58 202.351C671.671 201.872 671.788 201.398 671.931 200.932C665.238 200.415 660.817 202.871 658.742 205.452C658.436 205.811 658.159 206.195 657.915 206.599C660.19 206.127 662.552 206.299 664.734 207.096L666.36 206.527L665.785 207.382L669.724 209.462L672.012 208.384C671.67 208.813 671.301 209.219 670.908 209.601C671.815 210.117 675.05 212.974 675.05 212.974L677.593 211.688C677.593 211.688 677.613 212.093 676.373 213.4C676.511 213.412 676.648 213.434 676.783 213.465C676.973 213.51 677.158 213.571 677.338 213.648C677.463 213.707 677.584 213.776 677.698 213.855C677.765 213.909 677.825 213.972 677.875 214.042L677.879 214.112L679.156 213.574L678.101 214.648C679.573 215.882 680.821 217.363 681.787 219.024L681.791 219.108L682.874 218.916L682.432 219.624C684.053 220.854 685.436 222.368 686.515 224.093L686.166 223.816L685.949 223.672C685.783 223.543 685.609 223.425 685.427 223.319L685.109 223.124L684.534 222.815L684.522 222.858C684.278 222.744 684.021 222.63 683.75 222.531L683.478 222.418C683.107 222.282 682.709 222.147 682.282 222.027L681.956 221.945L681.233 221.756L681.302 221.753C679.219 221.305 677.087 221.121 674.957 221.205L675.011 222.309L674.092 221.569C674.092 221.569 671.625 221.828 666.964 224.801L667.866 226.074L666.177 225.049C666.177 225.049 661.895 227.764 660.433 228.816L660.78 230.201L659.789 229.702C658.756 230.502 657.836 231.438 657.052 232.483C656.788 232.832 656.513 233.21 656.253 233.629C655.993 234.048 655.733 234.481 655.477 234.97C655.234 235.458 655.006 235.96 654.795 236.516C655.005 236.804 655.097 237.16 655.053 237.513C655.046 237.591 655.009 237.662 654.951 237.714L654.829 237.804L654.732 237.809L654.55 237.818C653.582 239.987 653.173 242.364 653.361 244.733C653.549 247.101 654.328 249.384 655.626 251.373C656.405 248.88 657.781 246.615 659.636 244.775L658.897 243.409L659.778 243.941L662.182 240.363L661.497 239.219L662.461 239.467L666.59 235.315L666.75 235.167L666.135 233.165L667.332 234.438C667.871 233.854 668.494 233.352 669.179 232.948L669.133 231.997L669.818 232.538C671.472 231.165 673.301 230.016 675.256 229.122L675.384 227.715L675.891 228.349C677.031 227.814 678.248 227.466 679.498 227.319C679.897 227.272 680.299 227.253 680.7 227.261L681.125 226.19L681.456 226.944L683.091 226.865L682.993 226.87L682.236 227.159L682.083 227.166C680.135 228.168 678.588 229.806 677.698 231.807L678.457 231.854L677.235 232.67L677.515 233.245C676.536 235.312 675.804 237.488 675.335 239.727L676.437 239.926L675.464 240.646L675.971 240.705C675.809 240.828 675.673 240.982 675.572 241.159C675.459 241.355 675.366 241.561 675.294 241.775C675.299 241.887 675.236 242.016 675.2 242.144C675.208 242.181 675.21 242.219 675.205 242.256C675.179 242.396 675.163 242.537 675.156 242.679L675.161 242.791C675.17 242.972 675.18 243.182 675.191 243.42L675.195 243.49C675.191 243.705 675.202 243.919 675.226 244.133L675.237 244.357C675.246 244.552 675.256 244.762 675.267 244.986C675.271 245.07 675.275 245.153 675.279 245.237C675.283 245.321 675.377 245.807 675.448 246.112C675.442 246.145 675.443 246.178 675.452 246.21L676.044 246.265L675.356 247.7L676.04 247.919C676.531 251.518 677.579 255.018 679.147 258.294C680.356 251.999 681.589 250.846 681.589 250.846L681.049 250.115L681.816 250.331L682.247 248.81L683.034 245.969L682.347 245.666L683.708 244.844L684.533 242.786L683.658 242.071L685.192 242.502L687.815 235.9L686.909 234.543L688.355 235.482L688.532 235.081C688.775 235.77 688.991 236.46 689.14 236.929L689.522 236.729L689.528 236.854C689.536 237.008 689.642 237.171 689.706 237.35C690.776 240.192 691.485 243.157 691.814 246.175L692.475 245.933C693.166 249.689 693.565 253.493 693.67 257.311L694.177 257.356C694.196 257.748 694.22 258.251 694.244 258.755C694.328 262.401 694.148 266.049 693.708 269.67L694.287 269.782L694.182 271.945L693.772 281.13L694.345 281.102C694.357 281.354 694.371 281.648 694.387 281.983C694.411 284.21 694.257 287.988 693.02 290.206L694.199 290.261C694.202 292.807 693.74 295.332 692.836 297.712L693.797 297.876C693.814 298.225 693.681 298.666 693.607 299.16C693.214 302.354 692.449 305.491 691.327 308.506L692.177 308.703L691.985 309.651L689.783 320.311L689.894 320.305L689.745 320.985L687.441 331.285L690.757 331.475L691.938 329.54L691.704 331.639L685.606 332.158C682.842 332.213 680.094 332.605 677.425 333.325C672.288 334.582 681.819 333.224 689.439 333.473C697.058 333.721 707.565 333.997 704.962 333.198C702.36 332.399 703.665 332.448 709.956 332.452C715.49 332.465 711.388 331.065 706.461 330.869C707.419 330.273 708.508 329.917 709.633 329.833C708.434 329.543 707.181 329.565 705.994 329.897C705.994 329.897 708.677 327.441 710.84 327.266C709.48 327.18 708.116 327.341 706.814 327.741C707.861 326.485 709.299 325.616 710.898 325.273C709.043 325.069 707.169 325.433 705.526 326.318C706.643 324.981 707.856 323.728 709.156 322.569C708.514 322.597 707.887 322.769 707.32 323.07C706.753 323.371 706.26 323.795 705.877 324.311C706.506 322.742 707.272 321.233 708.167 319.8C707.028 320.377 706.016 321.175 705.189 322.149C704.363 323.123 703.74 324.252 703.356 325.47C703.014 326.426 702.91 327.45 703.052 328.456C702.63 328.762 702.251 329.124 701.927 329.533C702.248 328.042 702.772 326.602 703.485 325.253C702.537 325.72 701.726 326.426 701.133 327.301C701.178 325.337 701.195 323.094 701.106 321.248L701.084 320.787C701.076 320.633 701.069 320.493 701.062 320.34C701.063 320.213 701.057 320.087 701.044 319.962C701.037 319.822 701.031 319.696 701.025 319.585C701.016 319.524 701.013 319.463 701.017 319.403C701.139 317.295 701.341 313.081 701.307 310.055L701.349 310.053C701.663 306.711 701.405 303.34 700.587 300.084C700.503 299.808 700.406 299.546 700.31 299.299L701.552 299.477C701.608 297 701.389 294.524 700.901 292.095C700.893 292.072 700.892 292.048 700.897 292.025C700.888 291.829 700.809 291.651 700.758 291.471C700.758 291.471 700.758 291.471 700.754 291.387L701.271 291.362L702.217 291.218C702.217 291.218 701.989 288.525 701.648 285.822L701.641 285.668C701.628 285.403 701.615 285.137 701.602 284.872C701.589 284.606 701.595 284.718 701.59 284.634C701.586 284.55 701.568 284.172 701.557 283.949C701.547 283.725 701.549 283.767 701.544 283.669C701.539 283.571 701.524 283.25 701.514 283.054L701.501 282.788L701.39 282.233C701.382 282.196 701.381 282.159 701.385 282.121C701.385 282.121 701.371 281.842 701.281 281.706L701.269 281.468L701.26 281.286L701.4 281.28L702.291 280.872C702.291 280.872 701.881 275.286 701.384 271.667L701.377 271.541C701.374 271.471 701.371 271.401 701.367 271.331C701.364 271.261 701.351 270.996 701.344 270.842C701.336 270.688 701.334 270.646 701.33 270.562C701.321 270.507 701.318 270.45 701.322 270.394L701.651 270.252C701.494 266.463 700.917 262.703 699.932 259.04C699.832 258.709 699.733 258.391 699.62 258.088L700.151 258.062C700.151 258.062 699.184 252.265 697.677 246.887C697.594 246.61 697.524 246.32 697.426 246.044L697.419 245.89C697.412 245.75 697.335 245.614 697.287 245.476L697.421 245.358L697.907 244.97C697.907 244.97 696.306 240.843 694.862 237.633L694.47 236.769C694.359 236.509 694.25 236.276 694.141 236.057C694.141 236.057 694.141 236.057 694.137 235.973L693.843 235.398L694.417 235.104L693.567 233.744C693.755 233.832 693.951 233.902 694.151 233.954L694.908 232.516L694.886 234.367L696.351 235.697L697.41 234.413L696.98 235.961C698.464 237.495 699.852 239.117 701.138 240.819L701.365 241.159L701.455 241.294C701.545 241.431 701.627 241.572 701.7 241.717C702.447 241.232 702.721 241.093 702.721 241.093L702.43 242.032C702.43 242.032 703.822 244.165 704.537 245.616C704.629 245.785 704.712 245.959 704.786 246.136C704.844 246.27 704.888 246.408 704.918 246.55C705.547 246.1 706.218 245.711 706.921 245.388L706.308 246.904C706.308 246.904 710.655 249.889 711.343 253.667C711.338 253.644 711.337 253.621 711.339 253.597L711.332 253.458C711.325 253.421 711.323 253.383 711.327 253.346C711.327 253.346 711.321 253.22 711.317 253.136C711.313 253.052 711.312 253.038 711.309 252.982C711.307 252.926 711.3 252.786 711.295 252.689C711.299 252.628 711.296 252.567 711.286 252.507C711.28 252.367 711.272 252.199 711.264 252.045L711.258 251.92C711.247 251.696 711.236 251.472 711.225 251.234L711.215 251.025C711.206 250.843 711.197 250.661 711.188 250.465L711.172 250.144C711.163 249.962 711.155 249.78 711.146 249.599C711.137 249.417 711.134 249.347 711.128 249.221C711.121 249.095 711.109 248.844 711.1 248.648C711.09 248.452 711.087 248.382 711.08 248.242C711.073 248.103 711.059 247.795 711.048 247.571C711.037 247.348 711.036 247.334 711.03 247.208L710.852 246.137C710.847 246.025 710.842 245.928 710.837 245.816L710.671 244.997L710.563 244.512C710.552 244.274 710.443 244.041 710.375 243.806C710.308 243.571 710.358 243.442 710.237 243.266L709.274 242.192C708.939 241.023 708.528 239.877 708.044 238.762L707.209 238.592L707.389 237.966C706.514 235.688 705.199 233.604 703.52 231.833L702.559 231.95L702.722 230.975C702.722 230.975 699.384 227.437 698.589 226.648L697.438 227.166L697.402 226.425C697.081 226.24 696.74 226.092 696.386 225.984L695.873 225.813L695.705 225.821L695.824 225.661C695.916 225.53 696.035 225.398 696.141 225.267C696.803 224.376 697.672 223.66 698.674 223.183L698.471 221.595L699.546 222.664L699.895 222.367C700.894 221.487 702.021 220.766 703.239 220.229L702.863 218.846L703.82 219.514C704.936 218.969 706.095 218.52 707.286 218.169ZM688.601 226.08L688.311 225.59L688.204 225.693C688.194 225.497 688.185 225.302 688.246 225.116L688.581 225.955C688.581 225.955 688.555 225.998 688.571 226.04L688.601 226.08ZM693.55 330.709L693.715 331.514L692.862 331.555L693.55 330.709ZM704.001 330.694L703.701 330.877L703.338 330.894C703.414 330.722 703.543 330.492 703.685 330.247C703.769 330.408 703.866 330.563 703.973 330.709L704.001 330.694ZM685.448 213.031L685.462 213.325L685.196 213.338C685.289 213.243 685.373 213.14 685.448 213.031Z" fill="#87929B"/>
</g>
<path d="M157.595 304.126C156.107 305.363 156.5 306.711 156.547 307.985C156.547 308.659 156.469 309.954 155.809 309.507C153.881 308.217 150.79 309.407 149.679 306.648C149.138 305.39 148.956 304.005 149.154 302.649C149.352 301.293 149.922 300.02 150.8 298.971C154.468 294.233 159.025 290.49 163.594 286.704C166.837 284.019 170.368 281.76 173.752 279.296C174.463 278.801 175.067 278.165 175.527 277.429C175.987 276.692 176.294 275.869 176.429 275.01C177.833 267.781 177.618 260.342 179.31 253.145C179.997 250.244 180.52 247.306 181.615 244.526C183.255 240.361 184.712 236.133 185.335 231.685C185.958 227.236 187.834 223.26 189.526 219.28C191.302 215.1 188.74 212.083 187.551 208.692C187.163 207.587 185.707 207.444 184.607 207.223C182.155 206.734 180.814 205.544 180.798 202.78C180.798 200.642 179.714 198.536 180.552 196.335C180.618 196.123 180.616 195.895 180.545 195.684C180.475 195.473 180.34 195.29 180.159 195.161C178.064 193.482 178.807 192.071 180.531 190.717C181.16 190.222 181.778 189.628 181.788 188.796C181.83 185.942 183.449 183.531 184.004 180.809C184.942 176.202 191.208 172.342 197.143 172.027C198.889 171.924 200.639 172.12 202.319 172.606C203.646 173.04 205.011 173.346 206.395 173.522C214.065 174.269 218.293 179.577 217.507 187.311C216.81 194.203 214.426 200.473 210.974 206.381C209.554 208.808 209.926 210.772 212.022 212.357C220.687 218.948 223.154 227.962 222.5 238.366C222.285 241.841 223.484 245.258 223.443 248.801C223.322 258.878 223.254 268.961 223.469 279.038C223.715 290.416 224.139 301.794 224.93 313.155C225.218 317.31 225.082 317.315 220.996 317.894C217.711 318.352 217.496 319.4 218.277 322.517C219.278 326.523 221.724 326.687 225.119 326.887C230.557 327.213 235.948 328.298 241.359 329.145C243.549 329.493 244.036 331.083 243.801 333.078C242.701 342.382 241.763 351.711 240.474 360.983C239.667 366.801 239.851 372.192 242.004 377.899C245.21 386.413 248.757 394.747 252.094 403.171C253.906 407.736 256.966 411.322 258.978 415.634C260.204 418.266 260.659 421.046 261.817 423.637C262.472 425.09 261.241 425.7 260.125 426.037C256.95 427.006 253.613 428.96 250.601 428.559C245.32 427.864 241.024 430.839 236.063 431.055C231.002 431.281 225.957 431.413 220.87 431.397C220.26 431.395 219.65 431.346 219.047 431.25C217.879 431.066 217.14 430.402 217.088 429.144C217.035 427.885 217.612 426.89 218.948 426.685C220.832 426.338 222.754 426.246 224.663 426.411C230.394 427.038 234.69 422.815 234.266 417.087C234.219 416.492 234.177 415.739 233.821 415.355C228.901 410.021 226.837 403.077 223.469 396.88C220.792 391.957 218.366 386.876 215.951 381.843C215.613 381.038 215.058 380.343 214.35 379.838C213.641 379.332 212.806 379.034 211.938 378.979C204.838 378.115 197.744 377.218 190.658 376.288C189.18 376.099 188.305 376.657 187.336 377.773C179.075 387.224 173.574 398.407 167.691 409.332C166.041 412.357 165.391 415.83 165.836 419.251C166.36 422.863 164.877 426.348 165.679 429.955C166.014 431.471 164.568 431.929 163.227 431.982C158.711 432.166 154.431 430.929 150.13 429.739C149.213 429.486 148.328 428.949 147.406 428.891C138.332 428.322 130.447 424.621 123.055 419.64C122.175 419.051 120.342 418.677 121.243 417.008C122.05 415.528 123.543 414.76 125.266 415.602C128.541 417.182 132.03 417.15 135.524 417.129C136.395 417.123 137.261 417.004 138.101 416.776C139.72 416.329 140.6 415.565 140.014 413.538C139.249 410.906 141.061 408.615 141.936 406.399C145.551 397.406 149.161 388.414 155.641 380.864C159.665 376.183 160.959 370.002 161.839 364.052C163.746 351.148 165.15 338.17 166.795 325.228C167.319 321.185 168.497 320.284 172.453 320.727C178.315 321.385 180.311 318.742 178.064 313.213C177.231 311.186 177.136 309.149 177.152 307.037C177.152 303.099 177.466 299.14 176.948 295.218C176.733 293.612 176.162 293.185 174.852 294.433C172.447 296.723 170.027 298.998 167.56 301.22C166.596 302.083 165.595 303.031 164.118 301.946C163.07 301.178 162.31 301.973 161.671 302.704C160.789 303.68 160.104 304.819 159.654 306.058C159.392 306.811 159.612 308.164 158.402 307.954C157.281 307.764 157.354 306.516 157.354 305.547C157.438 305.221 157.517 304.8 157.595 304.126Z" fill="#87929B"/>
<path d="M748.322 424.63C747.691 423.944 748.139 423.401 748.395 422.909C750.497 418.842 751.489 414.44 752.375 410.003C752.582 408.819 752.92 407.662 753.381 406.551C754.222 404.662 755.748 403.609 757.901 403.753C759.839 403.885 760.862 402.945 761.863 401.368C766.708 393.722 768.147 385.014 770.026 376.451C770.889 372.51 772.27 368.724 775.277 366.134C780.277 361.823 781.721 356.365 782.47 350.215C783.517 341.66 783.385 333.111 783.417 324.543C783.417 323.4 783.343 322.284 782.74 321.272C781.09 318.511 780.455 315.397 779.514 312.388C777.864 307.037 779.235 302.469 782.681 298.302C787 293.083 787.479 293.707 780.779 290.937C778.065 289.812 776.95 288.031 776.867 285.248C776.73 280.372 777.992 275.708 778.892 270.986C779.075 270.019 779.299 269.079 779.089 268.085C777.576 260.95 778.91 254.104 781.205 247.339C782.237 244.275 783.156 241.171 784.088 238.071C784.449 236.86 784.13 236.359 782.717 236.824C781.008 237.393 779.386 238.279 777.471 238.18C775.926 238.098 774.646 237.33 774.916 235.92C775.592 232.454 773.75 229.427 773.577 226.119C773.394 222.662 774.276 219.743 776.707 217.303C777.401 216.667 777.956 215.899 778.34 215.044C778.723 214.19 778.927 213.267 778.938 212.332C779.011 209.21 781.387 207.434 783.75 205.888C785.807 204.533 788.023 203.629 790.642 204.533C791.785 204.912 793.046 204.582 794.253 204.343C798.133 203.579 801.803 204.054 805.221 206.15C807.639 207.646 810.637 208.247 812.36 210.823C812.927 211.668 813.416 212.477 813.274 213.534C813.173 214.51 813.311 215.496 813.676 216.408C814.07 217.473 814.246 218.604 814.195 219.736C814.144 220.868 813.867 221.98 813.379 223.005C812.465 224.976 812.712 226.77 813.777 228.586C815.294 231.18 815.852 233.982 815.975 236.996C816.098 239.91 816.949 242.744 819.037 245.008C819.747 245.795 820.286 246.718 820.623 247.719C823.278 255.03 824.22 262.631 824.165 270.313C824.138 273.711 822.634 275.198 819.197 275.577C816.277 275.898 816.135 276.029 816.875 278.74C817.224 280.013 817.308 281.343 817.121 282.648C816.935 283.954 816.483 285.209 815.792 286.337C815.395 287.037 814.75 287.936 815.459 288.596C816.167 289.256 816.793 288.257 817.456 288.004C819.332 287.374 821.103 286.473 822.712 285.329C823.291 284.97 823.946 284.747 824.627 284.678C825.321 284.552 826.085 284.678 826.386 285.397C826.747 286.255 825.984 286.554 825.404 286.91C825.106 287.091 824.837 287.322 824.384 287.656C824.867 287.872 825.398 287.959 825.925 287.909C826.452 287.858 826.956 287.671 827.387 287.367C829.179 286.255 831.135 286.395 833.072 286.291C833.685 286.26 834.402 286.215 834.608 286.938C834.786 287.584 834.151 287.814 833.694 288.054C832.017 288.958 830.403 290.033 828.626 290.629C824.681 291.949 821.254 294.181 817.657 296.142C817.214 296.338 816.836 296.654 816.568 297.055C816.3 297.455 816.153 297.922 816.144 298.402C815.934 301.321 816.601 303.865 817.566 306.721C820.024 313.951 823.918 320.558 826.395 327.747C827.441 330.673 828.805 333.477 830.463 336.111C832.748 339.844 833.785 344.006 835.225 348.041C835.732 349.46 835.728 350.594 833.685 350.567C832.145 350.567 831.4 351.249 831.902 352.826C832.666 355.136 832.085 357.458 831.957 359.763C831.5 367.983 833.744 375.881 834.869 383.902C835.677 389.673 835.134 395.484 836.002 401.218C836.358 403.564 836.77 405.737 838.662 407.689C839.937 409.013 839.914 411.521 840.572 413.469C841.815 417.152 843.004 420.929 845.344 424.052C845.999 424.881 846.855 425.534 847.832 425.95C848.81 426.367 849.878 426.533 850.938 426.433C853.095 426.266 853.131 426.56 852.912 428.607C852.546 431.996 850.353 432.9 847.496 433.239C846.893 433.311 846.294 433.424 845.695 433.541C840.696 434.536 836.349 434.314 833.927 428.747C833.013 426.673 831.185 424.969 829.718 423.162C829.211 422.534 828.47 421.887 827.556 422.181C826.505 422.525 826.473 423.537 826.446 424.441C826.344 426.998 826.497 429.559 826.903 432.086C827.003 432.696 827.195 433.677 826.272 433.749C825.349 433.822 825.486 432.846 825.358 432.213C825.211 431.551 825.123 430.879 825.093 430.202C825.146 425.372 823.984 420.605 821.711 416.329C820.28 413.618 820.797 412.339 823.109 410.455C825.682 408.358 826.039 406.948 824.887 403.762C822.556 397.319 820.28 390.852 817.917 384.422C815.879 378.877 814.992 373.238 816.089 367.368C816.362 366.261 816.329 365.101 815.993 364.01C815.12 361.768 814.494 359.44 814.124 357.065C813.905 355.533 813.132 354.702 811.313 354.955C808.975 355.258 806.62 355.424 804.261 355.452C802.836 355.483 802.036 356.026 801.519 357.327C800.016 361.141 797.004 363.997 794.801 367.372C793.531 369.32 792.013 371.091 791.026 373.247C786.667 382.858 781.568 392.125 775.775 400.965C775.03 402.1 774.404 403.311 773.769 404.508C773.526 404.96 773.106 405.606 773.257 405.963C774.591 409.167 771.543 411.264 771.324 413.894C771.177 415.701 770.044 417.355 770.643 419.212C770.995 420.306 770.208 421.228 770.085 422.272C769.77 424.983 770.999 426.79 773.079 428.291C773.993 428.932 775.149 429.497 774.495 430.966C773.842 432.434 772.978 434.129 771.127 433.822C767.142 433.144 762.864 433.171 759.674 430.012C758.979 429.325 758.509 428.761 758.591 427.721C758.879 424.106 757.718 420.744 756.831 417.328C756.732 416.804 756.463 416.326 756.066 415.965C755.669 415.604 755.165 415.38 754.628 415.326C753.39 415.163 753.166 416.23 752.768 416.98C751.722 418.986 750.739 421.024 749.702 423.035C749.382 423.663 749.158 424.432 748.322 424.63ZM801.629 239.486C805.556 242.454 808.838 246.173 811.281 250.421C812.154 243.205 808.164 240.367 801.629 239.486Z" fill="#9BA4AB"/>
<path d="M562.369 336.16C561.719 340.214 561.539 343.451 562.323 346.813C563.799 353.15 563.112 359.501 561.437 365.723C560.256 370.09 558.858 374.402 557.428 378.696C556.372 381.874 555.841 384.876 557.917 387.92C558.983 389.461 558.872 391.425 558.881 393.27C558.881 394.88 558.881 396.498 559.001 398.099C559.112 399.321 559.398 400.446 557.617 400.566C556.15 400.663 555.122 400.492 554.988 398.611C554.817 396.185 553.756 395.599 551.943 397.176C547.302 401.207 541.983 401.429 536.341 400.631C534.496 400.377 532.697 400.059 530.833 400.17C529.91 400.239 529.103 399.911 529.011 398.846C528.986 398.652 529.004 398.455 529.063 398.268C529.121 398.082 529.22 397.91 529.352 397.766C529.483 397.621 529.645 397.506 529.825 397.43C530.005 397.354 530.199 397.318 530.395 397.324C536.793 397.453 540.05 392.836 543.45 388.621C547.002 384.207 548.063 378.862 548.483 373.337C548.857 368.264 548.585 363.232 548.17 358.182C547.953 356.351 547.953 354.501 548.17 352.671C548.829 348.409 548.696 344.148 547.339 340.158C545.674 335.265 546.347 330.473 546.721 325.584C547.402 316.335 549.148 307.195 551.925 298.346C552.068 297.95 552.119 297.526 552.073 297.107C552.027 296.689 551.887 296.286 551.662 295.929C551.32 295.348 550.901 294.638 550.956 294.029C551.459 288.527 549.821 283.053 550.914 277.532C551.676 273.681 549.858 272.03 546.098 272.805C543.224 273.395 543.021 273.317 542.255 270.457C541.024 265.882 539.658 261.353 538.044 256.898C537.758 256.119 537.144 255.468 536.816 254.698C536.355 253.591 535.271 252.494 536.669 251.221C536.918 250.99 536.701 250.206 536.641 249.685C536.244 246.392 535.313 243.228 534.445 240.041C534.044 238.579 534.487 237.915 535.917 237.574C540.7 236.424 545.603 235.842 550.522 235.84C552.1 235.84 552.654 236.624 552.829 238.077C553.147 240.95 553.576 243.809 554.015 247.056C555.703 244.035 556.45 241.485 554.43 238.667C553.452 237.283 554.43 235.771 555.532 235.037C559.661 232.321 559.444 228.295 559.158 224.185C559.181 223.725 559.092 223.267 558.9 222.848C556.16 218.697 556.93 213.905 556.446 209.386C556.021 205.475 558.928 201.153 562.221 199.77C566.014 198.178 569.981 199.092 573.233 202.168C577.118 205.857 577.722 210.764 576.924 215.358C576.31 218.96 577.846 220.989 579.567 223.328C580.245 224.25 581.389 225.048 581.292 226.21C581.048 229.046 582.524 230.55 584.637 232.146C587.866 234.585 588.554 238.524 589.02 242.227C589.813 248.564 591.663 254.68 592.844 260.897C593.711 265.467 591.049 270.088 586.884 270.785C585.684 270.988 584.605 270.665 583.498 270.356C580.121 269.434 579.166 270.07 580.181 273.381C580.79 275.365 580.891 277.265 581.154 279.234C581.496 281.284 582.049 283.293 582.806 285.23C584.817 290.889 583.673 296.368 581.422 301.524C579.682 305.472 579.613 309.544 579.244 313.616C579.041 315.812 579.396 318.058 579.47 320.276C579.53 322.015 579.932 323.823 578.086 325.082C577.487 325.492 577.667 326.355 577.685 327.037C577.842 331.808 578.91 336.504 580.831 340.873C581.336 341.915 582.139 342.783 583.138 343.368C590.016 348.008 594.8 354.4 598.546 361.664C600.059 364.597 601.557 367.54 603.039 370.491C604.861 374.107 607.482 376.99 611.246 378.53C615.32 380.195 617.428 383.64 619.61 387.058C620.408 388.312 619.9 389.493 618.821 390.286C617.534 391.245 617.151 389.853 616.514 389.207C615.799 388.483 615.412 387.035 614.097 387.5C612.538 388.049 612.252 389.705 611.943 391.093C610.794 396.425 607.256 399.178 602.195 400.276C600.94 400.552 599.602 400.465 598.301 400.483C597.683 400.483 597.037 400.359 596.825 399.63C596.75 399.328 596.768 399.01 596.878 398.718C596.987 398.426 597.183 398.175 597.439 397.997C598.112 397.369 598.857 396.821 599.658 396.365C601.729 395.336 602.112 393.662 601.886 391.559C601.092 384.18 598.029 378.124 592.715 372.779C586.016 366.045 579.203 359.349 573.671 351.536C573.508 351.275 573.304 351.042 573.067 350.844C568.145 347.252 564.353 342.755 562.369 336.16Z" fill="#87929B"/>
</g>
<defs>
<filter id="filter0_i_161_44016" x="757" y="82" width="443" height="296" filterUnits="userSpaceOnUse" color-interpolation-filters="sRGB">
<feFlood flood-opacity="0" result="BackgroundImageFix"/>
<feBlend mode="normal" in="SourceGraphic" in2="BackgroundImageFix" result="shape"/>
<feColorMatrix in="SourceAlpha" type="matrix" values="0 0 0 0 0 0 0 0 0 0 0 0 0 0 0 0 0 0 127 0" result="hardAlpha"/>
<feOffset dx="1" dy="1"/>
<feComposite in2="hardAlpha" operator="arithmetic" k2="-1" k3="1"/>
<feColorMatrix type="matrix" values="0 0 0 0 1 0 0 0 0 1 0 0 0 0 1 0 0 0 1 0"/>
<feBlend mode="normal" in2="shape" result="effect1_innerShadow_161_44016"/>
</filter>
<filter id="filter1_di_161_44016" x="837" y="147" width="66" height="70" filterUnits="userSpaceOnUse" color-interpolation-filters="sRGB">
<feFlood flood-opacity="0" result="BackgroundImageFix"/>
<feColorMatrix in="SourceAlpha" type="matrix" values="0 0 0 0 0 0 0 0 0 0 0 0 0 0 0 0 0 0 127 0" result="hardAlpha"/>
<feOffset dx="1" dy="1"/>
<feComposite in2="hardAlpha" operator="out"/>
<feColorMatrix type="matrix" values="0 0 0 0 0.273003 0 0 0 0 0.319828 0 0 0 0 0.354167 0 0 0 1 0"/>
<feBlend mode="normal" in2="BackgroundImageFix" result="effect1_dropShadow_161_44016"/>
<feBlend mode="normal" in="SourceGraphic" in2="effect1_dropShadow_161_44016" result="shape"/>
<feColorMatrix in="SourceAlpha" type="matrix" values="0 0 0 0 0 0 0 0 0 0 0 0 0 0 0 0 0 0 127 0" result="hardAlpha"/>
<feOffset dx="1" dy="1"/>
<feComposite in2="hardAlpha" operator="arithmetic" k2="-1" k3="1"/>
<feColorMatrix type="matrix" values="0 0 0 0 1 0 0 0 0 1 0 0 0 0 1 0 0 0 1 0"/>
<feBlend mode="normal" in2="shape" result="effect2_innerShadow_161_44016"/>
</filter>
<filter id="filter2_di_161_44016" x="837" y="224" width="66" height="70" filterUnits="userSpaceOnUse" color-interpolation-filters="sRGB">
<feFlood flood-opacity="0" result="BackgroundImageFix"/>
<feColorMatrix in="SourceAlpha" type="matrix" values="0 0 0 0 0 0 0 0 0 0 0 0 0 0 0 0 0 0 127 0" result="hardAlpha"/>
<feOffset dx="1" dy="1"/>
<feComposite in2="hardAlpha" operator="out"/>
<feColorMatrix type="matrix" values="0 0 0 0 0.273003 0 0 0 0 0.319828 0 0 0 0 0.354167 0 0 0 1 0"/>
<feBlend mode="normal" in2="BackgroundImageFix" result="effect1_dropShadow_161_44016"/>
<feBlend mode="normal" in="SourceGraphic" in2="effect1_dropShadow_161_44016" result="shape"/>
<feColorMatrix in="SourceAlpha" type="matrix" values="0 0 0 0 0 0 0 0 0 0 0 0 0 0 0 0 0 0 127 0" result="hardAlpha"/>
<feOffset dx="1" dy="1"/>
<feComposite in2="hardAlpha" operator="arithmetic" k2="-1" k3="1"/>
<feColorMatrix type="matrix" values="0 0 0 0 1 0 0 0 0 1 0 0 0 0 1 0 0 0 1 0"/>
<feBlend mode="normal" in2="shape" result="effect2_innerShadow_161_44016"/>
</filter>
<filter id="filter3_di_161_44016" x="837" y="301" width="66" height="70" filterUnits="userSpaceOnUse" color-interpolation-filters="sRGB">
<feFlood flood-opacity="0" result="BackgroundImageFix"/>
<feColorMatrix in="SourceAlpha" type="matrix" values="0 0 0 0 0 0 0 0 0 0 0 0 0 0 0 0 0 0 127 0" result="hardAlpha"/>
<feOffset dx="1" dy="1"/>
<feComposite in2="hardAlpha" operator="out"/>
<feColorMatrix type="matrix" values="0 0 0 0 0.273003 0 0 0 0 0.319828 0 0 0 0 0.354167 0 0 0 1 0"/>
<feBlend mode="normal" in2="BackgroundImageFix" result="effect1_dropShadow_161_44016"/>
<feBlend mode="normal" in="SourceGraphic" in2="effect1_dropShadow_161_44016" result="shape"/>
<feColorMatrix in="SourceAlpha" type="matrix" values="0 0 0 0 0 0 0 0 0 0 0 0 0 0 0 0 0 0 127 0" result="hardAlpha"/>
<feOffset dx="1" dy="1"/>
<feComposite in2="hardAlpha" operator="arithmetic" k2="-1" k3="1"/>
<feColorMatrix type="matrix" values="0 0 0 0 1 0 0 0 0 1 0 0 0 0 1 0 0 0 1 0"/>
<feBlend mode="normal" in2="shape" result="effect2_innerShadow_161_44016"/>
</filter>
<filter id="filter4_di_161_44016" x="912" y="147" width="66" height="70" filterUnits="userSpaceOnUse" color-interpolation-filters="sRGB">
<feFlood flood-opacity="0" result="BackgroundImageFix"/>
<feColorMatrix in="SourceAlpha" type="matrix" values="0 0 0 0 0 0 0 0 0 0 0 0 0 0 0 0 0 0 127 0" result="hardAlpha"/>
<feOffset dx="1" dy="1"/>
<feComposite in2="hardAlpha" operator="out"/>
<feColorMatrix type="matrix" values="0 0 0 0 0.273003 0 0 0 0 0.319828 0 0 0 0 0.354167 0 0 0 1 0"/>
<feBlend mode="normal" in2="BackgroundImageFix" result="effect1_dropShadow_161_44016"/>
<feBlend mode="normal" in="SourceGraphic" in2="effect1_dropShadow_161_44016" result="shape"/>
<feColorMatrix in="SourceAlpha" type="matrix" values="0 0 0 0 0 0 0 0 0 0 0 0 0 0 0 0 0 0 127 0" result="hardAlpha"/>
<feOffset dx="1" dy="1"/>
<feComposite in2="hardAlpha" operator="arithmetic" k2="-1" k3="1"/>
<feColorMatrix type="matrix" values="0 0 0 0 1 0 0 0 0 1 0 0 0 0 1 0 0 0 1 0"/>
<feBlend mode="normal" in2="shape" result="effect2_innerShadow_161_44016"/>
</filter>
<filter id="filter5_di_161_44016" x="912" y="224" width="66" height="70" filterUnits="userSpaceOnUse" color-interpolation-filters="sRGB">
<feFlood flood-opacity="0" result="BackgroundImageFix"/>
<feColorMatrix in="SourceAlpha" type="matrix" values="0 0 0 0 0 0 0 0 0 0 0 0 0 0 0 0 0 0 127 0" result="hardAlpha"/>
<feOffset dx="1" dy="1"/>
<feComposite in2="hardAlpha" operator="out"/>
<feColorMatrix type="matrix" values="0 0 0 0 0.273003 0 0 0 0 0.319828 0 0 0 0 0.354167 0 0 0 1 0"/>
<feBlend mode="normal" in2="BackgroundImageFix" result="effect1_dropShadow_161_44016"/>
<feBlend mode="normal" in="SourceGraphic" in2="effect1_dropShadow_161_44016" result="shape"/>
<feColorMatrix in="SourceAlpha" type="matrix" values="0 0 0 0 0 0 0 0 0 0 0 0 0 0 0 0 0 0 127 0" result="hardAlpha"/>
<feOffset dx="1" dy="1"/>
<feComposite in2="hardAlpha" operator="arithmetic" k2="-1" k3="1"/>
<feColorMatrix type="matrix" values="0 0 0 0 1 0 0 0 0 1 0 0 0 0 1 0 0 0 1 0"/>
<feBlend mode="normal" in2="shape" result="effect2_innerShadow_161_44016"/>
</filter>
<filter id="filter6_di_161_44016" x="912" y="301" width="66" height="70" filterUnits="userSpaceOnUse" color-interpolation-filters="sRGB">
<feFlood flood-opacity="0" result="BackgroundImageFix"/>
<feColorMatrix in="SourceAlpha" type="matrix" values="0 0 0 0 0 0 0 0 0 0 0 0 0 0 0 0 0 0 127 0" result="hardAlpha"/>
<feOffset dx="1" dy="1"/>
<feComposite in2="hardAlpha" operator="out"/>
<feColorMatrix type="matrix" values="0 0 0 0 0.273003 0 0 0 0 0.319828 0 0 0 0 0.354167 0 0 0 1 0"/>
<feBlend mode="normal" in2="BackgroundImageFix" result="effect1_dropShadow_161_44016"/>
<feBlend mode="normal" in="SourceGraphic" in2="effect1_dropShadow_161_44016" result="shape"/>
<feColorMatrix in="SourceAlpha" type="matrix" values="0 0 0 0 0 0 0 0 0 0 0 0 0 0 0 0 0 0 127 0" result="hardAlpha"/>
<feOffset dx="1" dy="1"/>
<feComposite in2="hardAlpha" operator="arithmetic" k2="-1" k3="1"/>
<feColorMatrix type="matrix" values="0 0 0 0 1 0 0 0 0 1 0 0 0 0 1 0 0 0 1 0"/>
<feBlend mode="normal" in2="shape" result="effect2_innerShadow_161_44016"/>
</filter>
<filter id="filter7_di_161_44016" x="987" y="147" width="66" height="70" filterUnits="userSpaceOnUse" color-interpolation-filters="sRGB">
<feFlood flood-opacity="0" result="BackgroundImageFix"/>
<feColorMatrix in="SourceAlpha" type="matrix" values="0 0 0 0 0 0 0 0 0 0 0 0 0 0 0 0 0 0 127 0" result="hardAlpha"/>
<feOffset dx="1" dy="1"/>
<feComposite in2="hardAlpha" operator="out"/>
<feColorMatrix type="matrix" values="0 0 0 0 0.273003 0 0 0 0 0.319828 0 0 0 0 0.354167 0 0 0 1 0"/>
<feBlend mode="normal" in2="BackgroundImageFix" result="effect1_dropShadow_161_44016"/>
<feBlend mode="normal" in="SourceGraphic" in2="effect1_dropShadow_161_44016" result="shape"/>
<feColorMatrix in="SourceAlpha" type="matrix" values="0 0 0 0 0 0 0 0 0 0 0 0 0 0 0 0 0 0 127 0" result="hardAlpha"/>
<feOffset dx="1" dy="1"/>
<feComposite in2="hardAlpha" operator="arithmetic" k2="-1" k3="1"/>
<feColorMatrix type="matrix" values="0 0 0 0 1 0 0 0 0 1 0 0 0 0 1 0 0 0 1 0"/>
<feBlend mode="normal" in2="shape" result="effect2_innerShadow_161_44016"/>
</filter>
<filter id="filter8_di_161_44016" x="987" y="224" width="66" height="70" filterUnits="userSpaceOnUse" color-interpolation-filters="sRGB">
<feFlood flood-opacity="0" result="BackgroundImageFix"/>
<feColorMatrix in="SourceAlpha" type="matrix" values="0 0 0 0 0 0 0 0 0 0 0 0 0 0 0 0 0 0 127 0" result="hardAlpha"/>
<feOffset dx="1" dy="1"/>
<feComposite in2="hardAlpha" operator="out"/>
<feColorMatrix type="matrix" values="0 0 0 0 0.273003 0 0 0 0 0.319828 0 0 0 0 0.354167 0 0 0 1 0"/>
<feBlend mode="normal" in2="BackgroundImageFix" result="effect1_dropShadow_161_44016"/>
<feBlend mode="normal" in="SourceGraphic" in2="effect1_dropShadow_161_44016" result="shape"/>
<feColorMatrix in="SourceAlpha" type="matrix" values="0 0 0 0 0 0 0 0 0 0 0 0 0 0 0 0 0 0 127 0" result="hardAlpha"/>
<feOffset dx="1" dy="1"/>
<feComposite in2="hardAlpha" operator="arithmetic" k2="-1" k3="1"/>
<feColorMatrix type="matrix" values="0 0 0 0 1 0 0 0 0 1 0 0 0 0 1 0 0 0 1 0"/>
<feBlend mode="normal" in2="shape" result="effect2_innerShadow_161_44016"/>
</filter>
<filter id="filter9_di_161_44016" x="987" y="301" width="66" height="70" filterUnits="userSpaceOnUse" color-interpolation-filters="sRGB">
<feFlood flood-opacity="0" result="BackgroundImageFix"/>
<feColorMatrix in="SourceAlpha" type="matrix" values="0 0 0 0 0 0 0 0 0 0 0 0 0 0 0 0 0 0 127 0" result="hardAlpha"/>
<feOffset dx="1" dy="1"/>
<feComposite in2="hardAlpha" operator="out"/>
<feColorMatrix type="matrix" values="0 0 0 0 0.273003 0 0 0 0 0.319828 0 0 0 0 0.354167 0 0 0 1 0"/>
<feBlend mode="normal" in2="BackgroundImageFix" result="effect1_dropShadow_161_44016"/>
<feBlend mode="normal" in="SourceGraphic" in2="effect1_dropShadow_161_44016" result="shape"/>
<feColorMatrix in="SourceAlpha" type="matrix" values="0 0 0 0 0 0 0 0 0 0 0 0 0 0 0 0 0 0 127 0" result="hardAlpha"/>
<feOffset dx="1" dy="1"/>
<feComposite in2="hardAlpha" operator="arithmetic" k2="-1" k3="1"/>
<feColorMatrix type="matrix" values="0 0 0 0 1 0 0 0 0 1 0 0 0 0 1 0 0 0 1 0"/>
<feBlend mode="normal" in2="shape" result="effect2_innerShadow_161_44016"/>
</filter>
<filter id="filter10_i_161_44016" x="653.317" y="193.379" width="62.0298" height="140.488" filterUnits="userSpaceOnUse" color-interpolation-filters="sRGB">
<feFlood flood-opacity="0" result="BackgroundImageFix"/>
<feBlend mode="normal" in="SourceGraphic" in2="BackgroundImageFix" result="shape"/>
<feColorMatrix in="SourceAlpha" type="matrix" values="0 0 0 0 0 0 0 0 0 0 0 0 0 0 0 0 0 0 127 0" result="hardAlpha"/>
<feOffset dx="1" dy="1"/>
<feComposite in2="hardAlpha" operator="arithmetic" k2="-1" k3="1"/>
<feColorMatrix type="matrix" values="0 0 0 0 1 0 0 0 0 1 0 0 0 0 1 0 0 0 1 0"/>
<feBlend mode="normal" in2="shape" result="effect1_innerShadow_161_44016"/>
</filter>
<clipPath id="clip0_161_44016">
<rect width="1200" height="512" fill="white"/>
</clipPath>
</defs>
</svg>
