<svg width="1200" height="718" viewBox="0 0 1200 718" fill="none" xmlns="http://www.w3.org/2000/svg">
<mask id="mask0_161_47834" style="mask-type:luminance" maskUnits="userSpaceOnUse" x="0" y="0" width="1200" height="718">
<rect width="1200" height="718" fill="white"/>
</mask>
<g mask="url(#mask0_161_47834)">
<rect y="163" width="1200" height="557" fill="#5F6E79"/>
<rect width="1200" height="163" transform="matrix(1 0 0 -1 0 163)" fill="#EBEDEE"/>
<rect x="2" y="618" width="1197" height="4" fill="#4B5C69"/>
<rect y="271" width="1197" height="4" fill="#4B5C69"/>
<rect y="222" width="1197" height="4" fill="#4B5C69"/>
<rect y="174" width="1197" height="4" fill="#4B5C69"/>
<rect x="2" y="319" width="1196" height="4" fill="#4B5C69"/>
<rect x="2" y="367" width="1196" height="4" fill="#4B5C69"/>
<rect x="2" y="415" width="1196" height="4" fill="#4B5C69"/>
<rect x="2" y="463" width="1196" height="4" fill="#4B5C69"/>
<rect x="2" y="559" width="1196" height="4" fill="#4B5C69"/>
<rect x="3" y="605" width="1197" height="4" fill="#4B5C69"/>
<rect x="1" y="257" width="1197" height="4" fill="#4B5C69"/>
<rect x="1" y="209" width="1197" height="4" fill="#4B5C69"/>
<rect x="1" y="161" width="1197" height="4" fill="#4B5C69"/>
<rect x="2" y="305" width="1197" height="4" fill="#4B5C69"/>
<rect x="2" y="353" width="1197" height="4" fill="#4B5C69"/>
<rect x="2" y="401" width="1197" height="4" fill="#4B5C69"/>
<rect x="2" y="450" width="1197" height="4" fill="#4B5C69"/>
<rect x="2" y="546" width="1197" height="4" fill="#4B5C69"/>
<path fill-rule="evenodd" clip-rule="evenodd" d="M516.45 327.086C506.229 324.425 495.191 323 476 323V319C495.41 319 506.809 320.442 517.458 323.215C523.562 324.804 529.484 326.857 536.519 329.295C541.554 331.04 547.159 332.982 553.807 335.094C562.333 337.801 569.918 341.18 577.401 344.689C578.859 345.373 580.312 346.06 581.766 346.749C587.802 349.607 593.871 352.48 600.507 355.144C616.889 361.721 636.689 367 667 367V371C636.151 371 615.846 365.613 599.016 358.856C592.258 356.143 586.055 353.206 580.01 350.344C578.567 349.66 577.134 348.981 575.703 348.311C568.257 344.82 560.865 341.532 552.597 338.906C545.67 336.706 539.998 334.738 534.973 332.994C528.109 330.612 522.452 328.648 516.45 327.086Z" fill="#4B5C69"/>
<path fill-rule="evenodd" clip-rule="evenodd" d="M1066.45 279.086C1056.23 276.425 1045.19 275 1026 275V271C1045.41 271 1056.81 272.442 1067.46 275.215C1073.56 276.804 1079.48 278.857 1086.52 281.295C1091.55 283.04 1097.16 284.982 1103.81 287.094C1112.33 289.801 1119.92 293.18 1127.4 296.689C1128.86 297.373 1130.31 298.06 1131.77 298.749C1137.8 301.607 1143.87 304.48 1150.51 307.144C1166.89 313.721 1186.69 319 1217 319V323C1186.15 323 1165.85 317.613 1149.02 310.856C1142.26 308.143 1136.05 305.206 1130.01 302.344C1128.57 301.66 1127.13 300.981 1125.7 300.311C1118.26 296.82 1110.86 293.532 1102.6 290.906C1095.67 288.706 1090 286.738 1084.97 284.994C1078.11 282.612 1072.45 280.648 1066.45 279.086Z" fill="#4B5C69"/>
<path fill-rule="evenodd" clip-rule="evenodd" d="M270.55 423.086C280.771 420.425 291.809 419 311 419V415C291.59 415 280.191 416.442 269.542 419.215C263.438 420.804 257.516 422.857 250.481 425.295C245.446 427.04 239.841 428.982 233.193 431.094C224.667 433.801 217.082 437.18 209.599 440.689C208.141 441.373 206.688 442.06 205.234 442.749C199.198 445.607 193.129 448.48 186.493 451.144C170.111 457.721 150.311 463 120 463V467C150.849 467 171.154 461.613 187.984 454.856C194.742 452.143 200.945 449.206 206.99 446.344C208.433 445.66 209.867 444.981 211.297 444.311C218.743 440.82 226.135 437.532 234.403 434.906C241.33 432.706 247.002 430.738 252.027 428.994C258.891 426.612 264.548 424.648 270.55 423.086Z" fill="#4B5C69"/>
<path fill-rule="evenodd" clip-rule="evenodd" d="M221.358 416.189C236.646 410.434 252.582 406 271.5 406V402C251.918 402 235.476 406.6 219.949 412.445C213.986 414.69 208.131 417.129 202.299 419.559C200.558 420.284 198.82 421.009 197.081 421.727C189.496 424.859 181.872 427.887 173.893 430.428C168.162 432.252 163.055 434.013 158.213 435.682C148.739 438.947 140.284 441.862 130.171 444.219C114.991 447.757 96.1532 450 65 450V454C96.3468 454 115.509 451.743 131.079 448.114C141.386 445.712 150.156 442.691 159.758 439.383C164.566 437.726 169.583 435.998 175.107 434.239C183.25 431.646 190.999 428.566 198.608 425.424C200.373 424.695 202.128 423.963 203.879 423.234C209.698 420.81 215.467 418.406 221.358 416.189Z" fill="#4B5C69"/>
<path fill-rule="evenodd" clip-rule="evenodd" d="M566.568 320.159C551.784 313.911 536.375 309 517.5 309V305C537.125 305 553.095 310.122 568.125 316.475C573.13 318.59 577.992 320.821 582.836 323.044C592.645 327.545 602.384 332.013 613.107 335.428C615.216 336.099 617.247 336.751 619.217 337.384C632.944 341.791 643.706 345.246 657.232 347.699C672.689 350.502 691.805 352 723 352V356C691.695 356 672.311 354.498 656.518 351.635C642.717 349.132 631.696 345.593 617.984 341.189C616.015 340.557 613.99 339.907 611.893 339.239C600.945 335.753 590.815 331.107 580.875 326.549C576.085 324.352 571.34 322.176 566.568 320.159Z" fill="#4B5C69"/>
<path fill-rule="evenodd" clip-rule="evenodd" d="M1116.84 271.668C1102.18 265.67 1086.89 261 1068 261V257C1087.61 257 1103.44 261.863 1118.35 267.966C1123.53 270.083 1128.54 272.325 1133.55 274.563C1143.08 278.827 1152.59 283.079 1163.11 286.428C1167.6 287.858 1171.73 289.234 1175.67 290.546C1186.53 294.16 1195.92 297.285 1207.29 299.711C1222.73 303.005 1241.83 305 1273 305V309C1241.67 309 1222.27 306.995 1206.46 303.623C1194.85 301.147 1185.18 297.927 1174.24 294.287C1170.34 292.986 1166.27 291.632 1161.89 290.239C1151.18 286.828 1141.29 282.41 1131.62 278.087C1126.66 275.873 1121.76 273.684 1116.84 271.668Z" fill="#4B5C69"/>
<path fill-rule="evenodd" clip-rule="evenodd" d="M922.55 230.086C932.771 227.425 943.809 226 963 226V222C943.59 222 932.191 223.442 921.542 226.215C915.438 227.804 909.516 229.857 902.481 232.295C897.446 234.04 891.841 235.982 885.193 238.094C876.667 240.801 869.082 244.18 861.599 247.689C860.141 248.373 858.688 249.06 857.234 249.749C851.198 252.607 845.129 255.48 838.493 258.144C822.111 264.721 802.311 270 772 270V274C802.849 274 823.154 268.613 839.984 261.856C846.742 259.143 852.945 256.206 858.99 253.344C860.433 252.66 861.867 251.981 863.297 251.311C870.743 247.82 878.135 244.532 886.403 241.906C893.33 239.706 899.002 237.738 904.027 235.994C910.891 233.612 916.548 231.648 922.55 230.086Z" fill="#4B5C69"/>
<path fill-rule="evenodd" clip-rule="evenodd" d="M862.161 223.668C876.815 217.67 892.109 213 911 213V209C891.391 209 875.556 213.863 860.646 219.966C855.474 222.083 850.46 224.325 845.453 226.563C835.918 230.827 826.411 235.079 815.893 238.428C811.4 239.858 807.266 241.234 803.326 242.546C792.466 246.16 783.08 249.285 771.708 251.711C756.266 255.005 737.167 257 706 257V261C737.333 261 756.734 258.995 772.542 255.623C784.148 253.147 793.821 249.927 804.756 246.287C808.663 244.986 812.731 243.632 817.107 242.239C827.821 238.828 837.708 234.41 847.38 230.087C852.336 227.873 857.235 225.684 862.161 223.668Z" fill="#4B5C69"/>
<circle cx="1137.99" cy="256.557" r="17.4426" fill="#5F6E79"/>
<circle cx="1068.88" cy="256.557" r="17.4426" fill="#5F6E79"/>
<ellipse cx="1137.99" cy="256.557" rx="13.4557" ry="13.4557" fill="#394A58"/>
<ellipse cx="1068.88" cy="256.557" rx="13.4557" ry="13.4557" fill="#394A58"/>
<path d="M1103.1 269.519L1103.27 269.514C1112.57 269.514 1114.9 269.514 1118.06 266.524C1121.21 263.534 1127.03 260.045 1130.51 260.045H1142.81C1146.3 260.045 1145.99 258.816 1146.46 256.391C1148.29 246.922 1145.13 245.593 1140.81 244.596C1136.49 243.6 1115.56 242.271 1103.27 242.271C1090.98 242.271 1072.7 243.766 1064.56 244.596C1056.42 245.427 1059.91 253.235 1060.58 256.391C1061.24 259.547 1062.57 260.045 1064.56 260.045C1066.56 260.045 1071.04 260.378 1076.53 260.045C1082.01 259.713 1084.5 263.202 1088.32 266.524C1092.11 269.817 1097.03 269.683 1103.1 269.519Z" fill="#5F6E79"/>
<rect width="25.9147" height="11.6284" rx="5.81419" transform="matrix(-1 0 0 1 1116.23 252.404)" fill="#394A58"/>
<path d="M1423.38 217.852H1425.88V242.272H1322.05C1317.23 242.272 1294.14 251.574 1288 251.574H1183.51C1176.53 251.574 1152.94 242.272 1148.46 242.272H1047.46V218.018H1049.62L1051.94 226.657H1421.22L1423.38 217.852Z" fill="#87929B"/>
<path d="M1052.44 246.923C1051.11 248.518 1050.56 252.682 1050.45 254.565H1047.46V249.747H1045.3L1043.47 254.565H1035.99C1034.89 254.565 1034 253.672 1034 252.571V242.272C1034 241.171 1034.89 240.278 1035.99 240.278H1043.47L1045.3 244.93H1047.46V242.106H1057.26C1056.2 243.047 1053.77 245.328 1052.44 246.923Z" fill="#394A58"/>
<path d="M1074.03 120.508H1404.28C1418.57 120.508 1428.53 149.412 1428.53 175.659C1428.53 201.906 1415.24 226.492 1404.28 226.492H1074.03C1066.06 226.492 1050.45 211.873 1050.45 175.659C1050.45 148.748 1061.41 120.508 1074.03 120.508Z" fill="#D7DBDE"/>
<path d="M1117.56 215.527L1120.55 226.491H1089.65L1092.31 215.527H1101.94V120.175H1109.92V215.527H1117.56Z" fill="#87929B"/>
<path d="M1002.5 160.042V136.786H682.222V160.042L776.578 253.734H817.111L836.381 226.49H846.348L868.94 253.734H908.809L1002.5 160.042Z" fill="#D7DBDE"/>
<path d="M1002.5 160.042L900.835 224.496H878.575L842.859 199.578L814.536 224.496H783.555L682.222 160.042L776.578 253.733H818.772L838.042 226.49H848.009L870.601 253.733H908.809L1002.5 160.042Z" fill="#C3C9CD"/>
<path d="M906.799 122.167H928.76C928.926 120.488 930.343 119.177 932.066 119.177H979.576C981.299 119.177 982.715 120.488 982.882 122.167H994.51C995.287 122.61 997.373 124.094 999.504 126.486C1001.63 128.878 1002.39 134.571 1002.5 137.118H682.554C682.554 137.118 682.554 130.639 684.884 126.486C687.215 122.333 689.479 122.167 691.876 122.167H700.511C700.678 120.488 702.094 119.177 703.817 119.177H751.327C753.05 119.177 754.467 120.488 754.633 122.167H776.594C776.761 120.488 778.177 119.177 779.9 119.177H827.41C829.133 119.177 830.549 120.488 830.716 122.167H852.677C852.843 120.488 854.26 119.177 855.983 119.177H903.493C905.216 119.177 906.632 120.488 906.799 122.167Z" fill="#AFB7BC"/>
<path d="M996.852 223.168V226.158V227.154H978.412L952.664 209.213L958.146 203.898L985.39 223.168L987.549 216.523V175.325L994.526 168.348V216.523L996.852 223.168Z" fill="#394A58"/>
<path d="M687.537 223.168V226.158V227.154H705.976L731.725 209.213L726.243 203.898L698.999 223.168L696.84 216.523V175.325L689.862 168.348V216.523L687.537 223.168Z" fill="#394A58"/>
<circle cx="1009.31" cy="256.557" r="17.4426" fill="#5F6E79"/>
<circle cx="940.205" cy="256.557" r="17.4426" fill="#5F6E79"/>
<ellipse cx="1009.31" cy="256.556" rx="13.4557" ry="13.4557" fill="#394A58"/>
<ellipse cx="940.205" cy="256.556" rx="13.4557" ry="13.4557" fill="#394A58"/>
<path d="M974.426 269.518L974.592 269.513C983.894 269.513 986.22 269.513 989.377 266.523C992.533 263.533 998.347 260.045 1001.84 260.045H1014.13C1017.62 260.045 1017.31 258.815 1017.78 256.39C1019.61 246.921 1016.45 245.592 1012.13 244.595C1007.82 243.599 986.885 242.27 974.592 242.27C962.299 242.27 944.026 243.765 935.886 244.595C927.746 245.426 931.235 253.234 931.899 256.39C932.564 259.546 933.893 260.045 935.886 260.045C937.879 260.045 942.365 260.377 947.847 260.045C953.328 259.712 955.82 263.201 959.641 266.523C963.427 269.816 968.356 269.682 974.426 269.518Z" fill="#5F6E79"/>
<rect width="25.9147" height="11.6284" rx="5.81419" transform="matrix(-1 0 0 1 987.55 252.403)" fill="#394A58"/>
<circle cx="743.187" cy="256.557" r="17.4426" fill="#5F6E79"/>
<circle cx="674.081" cy="256.557" r="17.4426" fill="#5F6E79"/>
<ellipse cx="743.187" cy="256.556" rx="13.4557" ry="13.4557" fill="#394A58"/>
<ellipse cx="674.082" cy="256.556" rx="13.4557" ry="13.4557" fill="#394A58"/>
<path d="M708.301 269.518L708.467 269.513C717.77 269.513 720.096 269.513 723.252 266.523C726.408 263.533 732.223 260.045 735.711 260.045H748.004C751.492 260.045 751.19 258.815 751.658 256.39C753.486 246.921 750.329 245.592 746.01 244.595C741.691 243.599 720.76 242.27 708.467 242.27C696.174 242.27 677.901 243.765 669.761 244.595C661.622 245.426 665.11 253.234 665.775 256.39C666.439 259.546 667.768 260.045 669.761 260.045C671.755 260.045 676.24 260.377 681.722 260.045C687.204 259.712 689.696 263.201 693.517 266.523C697.303 269.816 702.231 269.682 708.301 269.518Z" fill="#5F6E79"/>
<rect width="25.9147" height="11.6284" rx="5.81419" transform="matrix(-1 0 0 1 721.425 252.403)" fill="#394A58"/>
<path d="M1028.58 217.851H1031.07V242.27H927.248C922.431 242.27 899.34 251.573 893.194 251.573H788.705C781.728 251.573 758.139 242.27 753.653 242.27H652.653V218.017H654.812L657.138 226.655H1026.42L1028.58 217.851Z" fill="#87929B"/>
<path d="M657.636 246.922C656.307 248.517 655.753 252.681 655.642 254.563H652.652V249.746H650.492L648.665 254.563H641.19C640.089 254.563 639.196 253.671 639.196 252.57V242.27C639.196 241.169 640.089 240.277 641.19 240.277H648.665L650.492 244.928H652.652V242.104H662.453C661.401 243.046 658.965 245.327 657.636 246.922Z" fill="#394A58"/>
<path d="M1025.92 246.922C1027.25 248.517 1027.81 252.681 1027.92 254.563H1030.91V249.746H1033.07L1034.89 254.563H1042.37C1043.47 254.563 1044.36 253.671 1044.36 252.57V242.27C1044.36 241.169 1043.47 240.277 1042.37 240.277H1034.89L1033.07 244.928H1030.91V242.104H1021.11C1022.16 243.046 1024.59 245.327 1025.92 246.922Z" fill="#394A58"/>
<path d="M1004.16 131.137C1004.16 130.403 1003.57 129.808 1002.83 129.808L-nan -nanL1002.83 129.808C1002.1 129.808 1001.5 130.403 1001.5 131.137V241.109H1004.16V131.137Z" fill="#87929B"/>
<path d="M660.626 131.137C660.626 130.403 660.031 129.808 659.297 129.808L-nan -nanL659.297 129.808C658.563 129.808 657.968 130.403 657.968 131.137V241.109H660.626V131.137Z" fill="#87929B"/>
<path d="M1026.75 131.137C1026.75 130.403 1026.16 129.808 1025.42 129.808L-nan -nanL1025.42 129.808C1024.69 129.808 1024.1 130.403 1024.1 131.137V241.109H1026.75V131.137Z" fill="#87929B"/>
<path d="M683.218 131.137C683.218 130.403 682.623 129.808 681.889 129.808L-nan -nanL681.889 129.808C681.155 129.808 680.56 130.403 680.56 131.137V241.109H683.218V131.137Z" fill="#87929B"/>
<rect width="22.5923" height="2.65791" transform="matrix(-1 0 0 1 1025.42 225.494)" fill="#87929B"/>
<rect width="22.5923" height="2.65791" transform="matrix(-1 0 0 1 681.889 225.494)" fill="#87929B"/>
<rect width="22.5923" height="2.65791" transform="matrix(-1 0 0 1 1025.42 208.549)" fill="#87929B"/>
<rect width="22.5923" height="2.65791" transform="matrix(-1 0 0 1 681.889 208.549)" fill="#87929B"/>
<rect width="22.5923" height="2.65791" transform="matrix(-1 0 0 1 1025.42 191.605)" fill="#87929B"/>
<rect width="22.5923" height="2.65791" transform="matrix(-1 0 0 1 681.889 191.605)" fill="#87929B"/>
<rect width="22.5923" height="2.65791" transform="matrix(-1 0 0 1 1025.42 174.661)" fill="#87929B"/>
<rect width="22.5923" height="2.65791" transform="matrix(-1 0 0 1 681.889 174.661)" fill="#87929B"/>
<rect width="22.5923" height="2.65791" transform="matrix(-1 0 0 1 1025.42 157.716)" fill="#87929B"/>
<rect width="22.5923" height="2.65791" transform="matrix(-1 0 0 1 681.889 157.716)" fill="#87929B"/>
<rect width="22.5923" height="2.65791" transform="matrix(-1 0 0 1 1025.42 140.772)" fill="#87929B"/>
<rect width="22.5923" height="2.65791" transform="matrix(-1 0 0 1 681.889 140.772)" fill="#87929B"/>
<path d="M923.095 223.334V226.823H912.131V223.334L913.792 218.184V212.204H914.623V137.45H920.105V212.204H920.936V218.184L923.095 223.334Z" fill="#394A58"/>
<path d="M849.337 223.334V226.823H838.373V223.334L840.035 218.184V212.204H840.865V137.45H846.347V212.204H847.178V218.184L849.337 223.334Z" fill="#394A58"/>
<path d="M775.581 223.334V226.823H764.617V223.334L766.278 218.184V212.204H767.109V137.45H772.591V212.204H773.421V218.184L775.581 223.334Z" fill="#394A58"/>
<rect width="378.421" height="109.639" rx="4" transform="matrix(-1 0 0 1 634.34 129.474)" fill="#D7DBDE"/>
<rect width="47.5102" height="90.3691" transform="matrix(-1 0 0 1 622.379 138.112)" fill="#C3C9CD"/>
<rect width="48.5069" height="90.3691" transform="matrix(-1 0 0 1 562.577 138.112)" fill="#C3C9CD"/>
<rect width="47.5102" height="90.3691" transform="matrix(-1 0 0 1 501.776 138.112)" fill="#C3C9CD"/>
<rect width="48.1747" height="90.3691" transform="matrix(-1 0 0 1 441.974 138.112)" fill="#C3C9CD"/>
<rect width="47.8425" height="90.3691" transform="matrix(-1 0 0 1 381.506 138.112)" fill="#C3C9CD"/>
<rect width="48.1747" height="90.3691" transform="matrix(-1 0 0 1 321.371 138.112)" fill="#C3C9CD"/>
<circle cx="612.578" cy="256.557" r="17.4426" fill="#5F6E79"/>
<circle cx="543.472" cy="256.557" r="17.4426" fill="#5F6E79"/>
<ellipse cx="612.578" cy="256.557" rx="13.4557" ry="13.4557" fill="#394A58"/>
<ellipse cx="543.472" cy="256.557" rx="13.4557" ry="13.4557" fill="#394A58"/>
<path d="M577.693 269.519L577.859 269.515C587.161 269.515 589.487 269.515 592.644 266.524C595.8 263.534 601.614 260.046 605.102 260.046H617.395C620.884 260.046 620.582 258.816 621.05 256.391C622.878 246.922 619.721 245.593 615.402 244.597C611.083 243.6 590.152 242.271 577.859 242.271C565.566 242.271 547.293 243.766 539.153 244.597C531.013 245.427 534.502 253.235 535.166 256.391C535.83 259.547 537.159 260.046 539.153 260.046C541.146 260.046 545.632 260.378 551.113 260.046C556.595 259.714 559.087 263.202 562.908 266.524C566.694 269.817 571.622 269.683 577.693 269.519Z" fill="#5F6E79"/>
<rect width="25.9147" height="11.6284" rx="5.81419" transform="matrix(-1 0 0 1 590.816 252.404)" fill="#394A58"/>
<circle cx="346.454" cy="256.557" r="17.4426" fill="#5F6E79"/>
<circle cx="277.349" cy="256.557" r="17.4426" fill="#5F6E79"/>
<ellipse cx="346.454" cy="256.557" rx="13.4557" ry="13.4557" fill="#394A58"/>
<ellipse cx="277.349" cy="256.557" rx="13.4557" ry="13.4557" fill="#394A58"/>
<path d="M311.568 269.519L311.734 269.515C321.037 269.515 323.363 269.515 326.519 266.524C329.675 263.534 335.49 260.046 338.978 260.046H351.271C354.759 260.046 354.457 258.816 354.925 256.391C356.753 246.922 353.597 245.593 349.277 244.597C344.958 243.6 324.027 242.271 311.734 242.271C299.442 242.271 281.168 243.766 273.028 244.597C264.889 245.427 268.377 253.235 269.042 256.391C269.706 259.547 271.035 260.046 273.028 260.046C275.022 260.046 279.507 260.378 284.989 260.046C290.471 259.714 292.963 263.202 296.784 266.524C300.57 269.817 305.498 269.683 311.568 269.519Z" fill="#5F6E79"/>
<rect width="25.9147" height="11.6284" rx="5.81419" transform="matrix(-1 0 0 1 324.692 252.404)" fill="#394A58"/>
<path d="M631.849 217.851H634.34V242.27H530.516C525.698 242.27 502.607 251.573 496.461 251.573H391.972C384.995 251.573 361.406 242.27 356.921 242.27H255.92V218.017H258.079L260.405 226.655H629.689L631.849 217.851Z" fill="#87929B"/>
<path d="M260.904 246.922C259.575 248.516 259.021 252.68 258.91 254.563H255.92V249.746H253.76L251.933 254.563H244.458C243.357 254.563 242.464 253.671 242.464 252.57V242.27C242.464 241.169 243.357 240.277 244.458 240.277H251.933L253.76 244.928H255.92V242.104H265.721C264.669 243.046 262.233 245.327 260.904 246.922Z" fill="#394A58"/>
<path d="M629.191 246.922C630.52 248.516 631.073 252.68 631.184 254.563H634.174V249.746H636.334L638.161 254.563H645.636C646.737 254.563 647.63 253.671 647.63 252.57V242.27C647.63 241.169 646.737 240.277 645.636 240.277H638.161L636.334 244.928H634.174V242.104H624.373C625.425 243.046 627.862 245.327 629.191 246.922Z" fill="#394A58"/>
<path d="M237.609 202.9C237.609 202.349 237.162 201.903 236.612 201.903H-139.483C-140.033 201.903 -140.48 202.349 -140.48 202.9V236.788C-140.48 237.338 -140.033 237.785 -139.483 237.785H236.612C237.162 237.785 237.609 237.338 237.609 236.788V202.9Z" fill="#D7DBDE"/>
<circle cx="215.847" cy="256.557" r="17.4426" fill="#5F6E79"/>
<circle cx="146.742" cy="256.557" r="17.4426" fill="#5F6E79"/>
<ellipse cx="215.847" cy="256.556" rx="13.4557" ry="13.4557" fill="#394A58"/>
<ellipse cx="146.742" cy="256.556" rx="13.4557" ry="13.4557" fill="#394A58"/>
<path d="M180.961 269.519L181.127 269.515C190.43 269.515 192.756 269.515 195.912 266.525C199.069 263.534 204.883 260.046 208.371 260.046H220.664C224.153 260.046 223.85 258.816 224.319 256.391C226.147 246.923 222.99 245.594 218.671 244.597C214.351 243.6 193.42 242.271 181.127 242.271C168.835 242.271 150.561 243.766 142.422 244.597C134.282 245.428 137.77 253.235 138.435 256.391C139.099 259.548 140.428 260.046 142.422 260.046C144.415 260.046 148.9 260.378 154.382 260.046C159.864 259.714 162.356 263.202 166.177 266.525C169.963 269.817 174.891 269.684 180.961 269.519Z" fill="#5F6E79"/>
<rect width="25.9147" height="11.6284" rx="5.81419" transform="matrix(-1 0 0 1 194.085 252.404)" fill="#394A58"/>
<path d="M235.117 217.852H237.609V242.271H133.784C128.967 242.271 105.876 251.574 99.7296 251.574H-4.75967C-11.7367 251.574 -35.3257 242.271 -39.8109 242.271H-140.812V218.018H-138.652L-136.326 226.656H232.958L235.117 217.852Z" fill="#87929B"/>
<path d="M232.459 246.923C233.788 248.517 234.342 252.681 234.452 254.564H237.442V249.747H239.602L241.429 254.564H248.905C250.006 254.564 250.898 253.672 250.898 252.571V242.271C250.898 241.17 250.006 240.278 248.905 240.278H241.429L239.602 244.929H237.442V242.105H227.641C228.694 243.046 231.13 245.328 232.459 246.923Z" fill="#394A58"/>
<rect width="49.1714" height="14.2863" transform="matrix(-1 0 0 1 229.636 206.886)" fill="#C3C9CD"/>
<rect width="50.1681" height="14.2863" transform="matrix(-1 0 0 1 167.507 206.886)" fill="#C3C9CD"/>
<rect width="49.1714" height="14.2863" transform="matrix(-1 0 0 1 104.38 206.886)" fill="#C3C9CD"/>
<rect width="49.8359" height="14.2863" transform="matrix(-1 0 0 1 42.2513 206.886)" fill="#C3C9CD"/>
<circle cx="1095.12" cy="400.557" r="17.4426" fill="#5F6E79"/>
<circle cx="1026.01" cy="400.557" r="17.4426" fill="#5F6E79"/>
<ellipse cx="1095.11" cy="400.557" rx="13.4557" ry="13.4557" fill="#394A58"/>
<ellipse cx="1026.01" cy="400.557" rx="13.4557" ry="13.4557" fill="#394A58"/>
<path d="M1060.23 413.519L1060.39 413.515C1069.7 413.515 1072.02 413.515 1075.18 410.524C1078.34 407.534 1084.15 404.046 1087.64 404.046H1099.93C1103.42 404.046 1103.12 402.816 1103.59 400.391C1105.41 390.922 1102.26 389.593 1097.94 388.597C1093.62 387.6 1072.69 386.271 1060.39 386.271C1048.1 386.271 1029.83 387.766 1021.69 388.597C1013.55 389.427 1017.04 397.235 1017.7 400.391C1018.37 403.547 1019.7 404.046 1021.69 404.046C1023.68 404.046 1028.17 404.378 1033.65 404.046C1039.13 403.714 1041.62 407.202 1045.44 410.524C1049.23 413.817 1054.16 413.683 1060.23 413.519Z" fill="#5F6E79"/>
<rect width="25.9147" height="11.6284" rx="5.81419" transform="matrix(-1 0 0 1 1073.35 396.404)" fill="#394A58"/>
<circle cx="828.991" cy="400.557" r="17.4426" fill="#5F6E79"/>
<circle cx="759.886" cy="400.557" r="17.4426" fill="#5F6E79"/>
<ellipse cx="828.991" cy="400.557" rx="13.4557" ry="13.4557" fill="#394A58"/>
<ellipse cx="759.886" cy="400.557" rx="13.4557" ry="13.4557" fill="#394A58"/>
<path d="M794.105 413.519L794.271 413.515C803.574 413.515 805.9 413.515 809.056 410.524C812.212 407.534 818.026 404.046 821.515 404.046H833.808C837.296 404.046 836.994 402.816 837.462 400.391C839.29 390.922 836.133 389.593 831.814 388.597C827.495 387.6 806.564 386.271 794.271 386.271C781.978 386.271 763.705 387.766 755.565 388.597C747.426 389.427 750.914 397.235 751.579 400.391C752.243 403.547 753.572 404.046 755.565 404.046C757.559 404.046 762.044 404.378 767.526 404.046C773.008 403.714 775.5 407.202 779.32 410.524C783.107 413.817 788.035 413.683 794.105 413.519Z" fill="#5F6E79"/>
<rect width="25.9147" height="11.6284" rx="5.81419" transform="matrix(-1 0 0 1 807.229 396.404)" fill="#394A58"/>
<path d="M1114.38 361.852H1116.88V386.271H1013.05C1008.23 386.271 985.143 401.554 978.997 401.554H874.508C867.53 401.554 843.941 386.271 839.456 386.271H738.456V362.018H740.615L742.941 370.656H1112.22L1114.38 361.852Z" fill="#87929B"/>
<path d="M743.439 390.923C742.11 392.518 741.556 396.682 741.446 398.564H738.455V393.747H736.296L734.469 398.564H726.993C725.892 398.564 725 397.672 725 396.571V386.272C725 385.171 725.892 384.278 726.993 384.278H734.469L736.296 388.929H738.455V386.105H748.257C747.204 387.047 744.768 389.328 743.439 390.923Z" fill="#394A58"/>
<path d="M1111.73 390.923C1113.06 392.518 1113.61 396.682 1113.72 398.564H1116.71V393.747H1118.87L1120.7 398.564H1128.17C1129.27 398.564 1130.17 397.672 1130.17 396.571V386.272C1130.17 385.171 1129.27 384.278 1128.17 384.278H1120.7L1118.87 388.929H1116.71V386.105H1106.91C1107.96 387.047 1110.4 389.328 1111.73 390.923Z" fill="#394A58"/>
<circle cx="705.115" cy="400.557" r="17.4426" fill="#5F6E79"/>
<circle cx="636.009" cy="400.557" r="17.4426" fill="#5F6E79"/>
<ellipse cx="705.115" cy="400.557" rx="13.4557" ry="13.4557" fill="#394A58"/>
<ellipse cx="636.009" cy="400.557" rx="13.4557" ry="13.4557" fill="#394A58"/>
<path d="M670.229 413.519L670.395 413.515C679.698 413.515 682.023 413.515 685.18 410.524C688.336 407.534 694.15 404.046 697.639 404.046H709.932C713.42 404.046 713.118 402.816 713.586 400.391C715.414 390.922 712.257 389.593 707.938 388.597C703.619 387.6 682.688 386.271 670.395 386.271C658.102 386.271 639.829 387.766 631.689 388.597C623.549 389.427 627.038 397.235 627.702 400.391C628.367 403.547 629.696 404.046 631.689 404.046C633.683 404.046 638.168 404.378 643.65 404.046C649.132 403.714 651.623 407.202 655.444 410.524C659.23 413.817 664.159 413.683 670.229 413.519Z" fill="#5F6E79"/>
<rect width="25.9147" height="11.6284" rx="5.81419" transform="matrix(-1 0 0 1 683.353 396.404)" fill="#394A58"/>
<circle cx="438.991" cy="400.557" r="17.4426" fill="#5F6E79"/>
<circle cx="369.886" cy="400.557" r="17.4426" fill="#5F6E79"/>
<ellipse cx="438.991" cy="400.557" rx="13.4557" ry="13.4557" fill="#394A58"/>
<ellipse cx="369.886" cy="400.557" rx="13.4557" ry="13.4557" fill="#394A58"/>
<path d="M404.105 413.519L404.271 413.515C413.574 413.515 415.9 413.515 419.056 410.524C422.212 407.534 428.027 404.046 431.515 404.046H443.808C447.296 404.046 446.994 402.816 447.462 400.391C449.29 390.922 446.134 389.593 441.814 388.597C437.495 387.6 416.564 386.271 404.271 386.271C391.979 386.271 373.705 387.766 365.566 388.597C357.426 389.427 360.914 397.235 361.579 400.391C362.243 403.547 363.572 404.046 365.566 404.046C367.559 404.046 372.044 404.378 377.526 404.046C383.008 403.714 385.5 407.202 389.321 410.524C393.107 413.817 398.035 413.683 404.105 413.519Z" fill="#5F6E79"/>
<rect width="25.9147" height="11.6284" rx="5.81419" transform="matrix(-1 0 0 1 417.229 396.404)" fill="#394A58"/>
<path d="M724.384 361.852H726.876V386.271H623.051C618.234 386.271 595.143 401.554 588.997 401.554H484.508C477.531 401.554 453.942 386.271 449.456 386.271H348.456V362.018H350.615L352.941 370.656H722.225L724.384 361.852Z" fill="#87929B"/>
<path d="M353.439 390.923C352.11 392.518 351.556 396.682 351.446 398.564H348.456V393.747H346.296L344.469 398.564H336.993C335.892 398.564 335 397.672 335 396.571V386.272C335 385.171 335.892 384.278 336.993 384.278H344.469L346.296 388.929H348.456V386.105H358.257C357.205 387.047 354.768 389.328 353.439 390.923Z" fill="#394A58"/>
<path d="M721.726 390.923C723.055 392.518 723.609 396.682 723.72 398.564H726.71V393.747H728.87L730.697 398.564H738.172C739.273 398.564 740.166 397.672 740.166 396.571V386.272C740.166 385.171 739.273 384.278 738.172 384.278H730.697L728.87 388.929H726.71V386.105H716.909C717.961 387.047 720.398 389.328 721.726 390.923Z" fill="#394A58"/>
<circle cx="1156.89" cy="400.557" r="17.4426" fill="#5F6E79"/>
<ellipse cx="1156.89" cy="400.557" rx="13.4557" ry="13.4557" fill="#394A58"/>
<path d="M1191.11 413.519L1191.27 413.515C1200.57 413.515 1202.9 413.515 1206.06 410.524C1209.21 407.534 1215.03 404.046 1218.52 404.046H1230.81C1234.3 404.046 1233.99 402.816 1234.46 400.391C1236.29 390.922 1233.13 389.593 1228.81 388.597C1224.5 387.6 1203.56 386.271 1191.27 386.271C1178.98 386.271 1160.71 387.766 1152.57 388.597C1144.43 389.427 1147.91 397.235 1148.58 400.391C1149.24 403.547 1150.57 404.046 1152.57 404.046C1154.56 404.046 1159.04 404.378 1164.53 404.046C1170.01 403.714 1172.5 407.202 1176.32 410.524C1180.11 413.817 1185.04 413.683 1191.11 413.519Z" fill="#5F6E79"/>
<rect width="25.9147" height="11.6284" rx="5.81419" transform="matrix(-1 0 0 1 1204.23 396.404)" fill="#394A58"/>
<path d="M1511.38 361.852H1513.88V386.271H1410.05C1405.23 386.271 1382.14 401.554 1376 401.554H1271.51C1264.53 401.554 1240.94 386.271 1236.46 386.271H1135.46V362.018H1137.62L1139.94 370.656H1509.22L1511.38 361.852Z" fill="#87929B"/>
<path d="M1140.44 390.923C1139.11 392.518 1138.56 396.682 1138.45 398.564H1135.46V393.747H1133.3L1131.47 398.564H1123.99C1122.89 398.564 1122 397.672 1122 396.571V386.272C1122 385.171 1122.89 384.278 1123.99 384.278H1131.47L1133.3 388.929H1135.46V386.105H1145.26C1144.2 387.047 1141.77 389.328 1140.44 390.923Z" fill="#394A58"/>
<rect x="346.743" y="332.436" width="332.794" height="9.51244" fill="#87929B"/>
<rect x="298.512" y="324.112" width="26.1825" height="5.35075" fill="#87929B"/>
<rect x="298.512" y="332.436" width="26.1825" height="5.35075" fill="#87929B"/>
<rect x="316.426" y="336.597" width="15.1583" height="5.35075" fill="#87929B"/>
<rect x="293" y="336.597" width="15.1583" height="5.35075" fill="#87929B"/>
<path d="M324.695 324.112L346.743 332.436V341.948L324.695 329.463V324.112Z" fill="#87929B"/>
<rect width="26.1825" height="5.35075" transform="matrix(-1 0 0 1 727.768 324.112)" fill="#87929B"/>
<rect width="26.1825" height="5.35075" transform="matrix(-1 0 0 1 727.768 332.436)" fill="#87929B"/>
<rect width="15.1583" height="5.35075" transform="matrix(-1 0 0 1 709.854 336.597)" fill="#87929B"/>
<rect width="15.1583" height="5.35075" transform="matrix(-1 0 0 1 733.28 336.597)" fill="#87929B"/>
<path d="M701.585 324.112L679.537 332.436V341.948L701.585 329.463V324.112Z" fill="#87929B"/>
<path d="M317.804 324.706H308.158L489.369 119H532.777L720.189 324.706H709.164L532.777 132.674H489.369L317.804 324.706Z" fill="#87929B"/>
<rect width="378.421" height="109.639" rx="4" transform="matrix(-1 0 0 1 991.42 244)" fill="#D7DBDE"/>
<rect width="47.5102" height="90.3691" transform="matrix(-1 0 0 1 979.46 252.639)" fill="#C3C9CD"/>
<rect width="48.5069" height="90.3691" transform="matrix(-1 0 0 1 919.657 252.639)" fill="#C3C9CD"/>
<rect width="47.5102" height="90.3691" transform="matrix(-1 0 0 1 858.856 252.639)" fill="#C3C9CD"/>
<rect width="48.1747" height="90.3691" transform="matrix(-1 0 0 1 799.054 252.639)" fill="#C3C9CD"/>
<rect width="47.8425" height="90.3691" transform="matrix(-1 0 0 1 738.586 252.639)" fill="#C3C9CD"/>
<rect width="48.1747" height="90.3691" transform="matrix(-1 0 0 1 678.451 252.639)" fill="#C3C9CD"/>
<rect width="378.421" height="109.639" rx="4" transform="matrix(-1 0 0 1 331.876 275)" fill="#D7DBDE"/>
<rect width="47.5102" height="90.3691" transform="matrix(-1 0 0 1 319.915 283.639)" fill="#C3C9CD"/>
<rect width="48.5069" height="90.3691" transform="matrix(-1 0 0 1 260.112 283.639)" fill="#C3C9CD"/>
<rect width="47.5102" height="90.3691" transform="matrix(-1 0 0 1 199.312 283.639)" fill="#C3C9CD"/>
<rect width="48.1747" height="90.3691" transform="matrix(-1 0 0 1 139.51 283.639)" fill="#C3C9CD"/>
<rect width="47.8425" height="90.3691" transform="matrix(-1 0 0 1 79.0416 283.639)" fill="#C3C9CD"/>
<rect width="48.1747" height="90.3691" transform="matrix(-1 0 0 1 18.9066 283.639)" fill="#C3C9CD"/>
<circle cx="310.113" cy="402.083" r="17.4426" fill="#5F6E79"/>
<circle cx="241.008" cy="402.083" r="17.4426" fill="#5F6E79"/>
<ellipse cx="310.113" cy="402.083" rx="13.4557" ry="13.4557" fill="#394A58"/>
<ellipse cx="241.008" cy="402.083" rx="13.4557" ry="13.4557" fill="#394A58"/>
<path d="M275.228 415.045L275.394 415.041C284.697 415.041 287.023 415.041 290.179 412.051C293.335 409.061 299.15 405.572 302.638 405.572H314.931C318.42 405.572 318.117 404.342 318.585 401.918C320.413 392.449 317.257 391.12 312.937 390.123C308.618 389.126 287.687 387.797 275.394 387.797C263.102 387.797 244.828 389.292 236.689 390.123C228.549 390.954 232.037 398.761 232.702 401.918C233.366 405.074 234.695 405.572 236.689 405.572C238.682 405.572 243.167 405.904 248.649 405.572C254.131 405.24 256.623 408.728 260.444 412.051C264.23 415.343 269.158 415.21 275.228 415.045Z" fill="#5F6E79"/>
<rect width="25.9147" height="11.6284" rx="5.81419" transform="matrix(-1 0 0 1 288.352 397.93)" fill="#394A58"/>
<circle cx="43.9897" cy="402.083" r="17.4426" fill="#5F6E79"/>
<ellipse cx="43.99" cy="402.083" rx="13.4557" ry="13.4557" fill="#394A58"/>
<path d="M9.10384 415.045L9.26997 415.041C18.5725 415.041 20.8985 415.041 24.0547 412.051C27.211 409.061 33.0252 405.572 36.5137 405.572H48.8066C52.2951 405.572 51.993 404.342 52.4611 401.918C54.289 392.449 51.1321 391.12 46.813 390.123C42.4939 389.126 21.5628 387.797 9.26997 387.797C-3.02288 387.797 -21.296 389.292 -29.4359 390.123C-37.5758 390.954 -34.0872 398.761 -33.4228 401.918C-32.7583 405.074 -31.4293 405.572 -29.4359 405.572C-27.4425 405.572 -22.9572 405.904 -17.4753 405.572C-11.9933 405.24 -9.50154 408.728 -5.68079 412.051C-1.89452 415.343 3.03369 415.21 9.10384 415.045Z" fill="#5F6E79"/>
<rect width="25.9147" height="11.6284" rx="5.81419" transform="matrix(-1 0 0 1 22.2278 397.93)" fill="#394A58"/>
<path d="M329.384 363.377H331.876V387.797H228.051C223.234 387.797 200.143 397.099 193.997 397.099H89.5074C82.5304 397.099 58.9414 387.797 54.4562 387.797H-46.5445V363.543H-44.3849L-42.0593 372.181H327.225L329.384 363.377Z" fill="#87929B"/>
<path d="M326.726 392.448C328.055 394.043 328.609 398.207 328.72 400.09H331.71V395.272H333.869L335.697 400.09H343.172C344.273 400.09 345.166 399.197 345.166 398.096V387.797C345.166 386.696 344.273 385.803 343.172 385.803H335.697L333.869 390.455H331.71V387.631H321.909C322.961 388.572 325.397 390.853 326.726 392.448Z" fill="#394A58"/>
<rect width="378.421" height="109.639" rx="4" transform="matrix(-1 0 0 1 719.421 212)" fill="#E21A1A"/>
<g style="mix-blend-mode:multiply">
<rect width="47.5102" height="90.3691" transform="matrix(-1 0 0 1 707.46 220.639)" fill="#C3C9CD"/>
</g>
<g style="mix-blend-mode:multiply">
<rect width="48.5069" height="90.3691" transform="matrix(-1 0 0 1 647.657 220.639)" fill="#C3C9CD"/>
</g>
<g style="mix-blend-mode:multiply">
<rect width="47.5102" height="90.3691" transform="matrix(-1 0 0 1 586.856 220.639)" fill="#C3C9CD"/>
</g>
<g style="mix-blend-mode:multiply">
<rect width="48.1747" height="90.3691" transform="matrix(-1 0 0 1 527.054 220.639)" fill="#C3C9CD"/>
</g>
<g style="mix-blend-mode:multiply">
<rect width="47.8425" height="90.3691" transform="matrix(-1 0 0 1 466.586 220.639)" fill="#C3C9CD"/>
</g>
<g style="mix-blend-mode:multiply">
<rect width="48.1747" height="90.3691" transform="matrix(-1 0 0 1 406.451 220.639)" fill="#C3C9CD"/>
</g>
<rect x="292" y="478" width="483" height="16" fill="#87929B"/>
<rect x="222" y="464" width="38" height="9" fill="#87929B"/>
<rect x="222" y="478" width="38" height="9" fill="#87929B"/>
<rect x="248" y="485" width="22" height="9" fill="#87929B"/>
<rect x="214" y="485" width="22" height="9" fill="#87929B"/>
<path d="M260 464L292 478V494L260 473V464Z" fill="#87929B"/>
<rect width="38" height="9" transform="matrix(-1 0 0 1 845 464)" fill="#87929B"/>
<rect width="38" height="9" transform="matrix(-1 0 0 1 845 478)" fill="#87929B"/>
<rect width="22" height="9" transform="matrix(-1 0 0 1 819 485)" fill="#87929B"/>
<rect width="22" height="9" transform="matrix(-1 0 0 1 853 485)" fill="#87929B"/>
<path d="M807 464L775 478V494L807 473V464Z" fill="#87929B"/>
<rect x="692" y="208" width="28" height="11" fill="#394A58"/>
<path d="M346 189H369V192H692V189H715V192L719 208H370V219H342V208L346 192V189Z" fill="#394A58"/>
<path fill-rule="evenodd" clip-rule="evenodd" d="M547.878 139.733L559.5 161.04V141H560.5V163L559.561 163.24L548.122 142.267L541.046 164.506L532.452 142.263L521.938 164.292L513.892 142.166L500.5 164.829V141H501.5V161.171L514.108 139.835L522.062 161.709L532.548 139.738L540.954 161.495L547.878 139.733Z" fill="#394A58"/>
<path fill-rule="evenodd" clip-rule="evenodd" d="M537.162 162L541.617 183.225V163.262H542V185.178L541.64 185.417L537.255 164.524L534.543 186.678L531.248 164.52L527.218 186.465L524.134 164.424L519 187V163.262H519.383V183.356L524.216 162.101L527.266 183.891L531.285 162.005L534.507 183.678L537.162 162Z" fill="#394A58"/>
<path d="M250 465H236L499 119H562L834 465H818L562 142H499L250 465Z" fill="#87929B"/>
<rect x="501" y="185" width="60" height="4" fill="#394A58"/>
<rect x="501" y="162" width="60" height="5" fill="#394A58"/>
<rect x="533" y="153" width="33" height="28" fill="#73808A"/>
<circle cx="504" cy="188" r="6" fill="#394A58"/>
<circle cx="531" cy="188" r="6" fill="#394A58"/>
<circle cx="558" cy="188" r="6" fill="#394A58"/>
<path d="M1290.91 485.78H912.598V584.575H1290.91V485.78Z" fill="#D7DBDE"/>
<path d="M1290.88 485.562C1290.88 479.691 1286.12 474.931 1280.24 474.931H923.087C917.216 474.931 912.456 479.691 912.456 485.562H1290.88Z" fill="#AFB7BC"/>
<path fill-rule="evenodd" clip-rule="evenodd" d="M1217.78 499.848V575.267H1220.44V499.848C1220.44 498.381 1219.25 497.191 1217.78 497.191H987.542C986.074 497.191 984.884 498.381 984.884 499.848V576.928H987.542V499.848L1217.78 499.848Z" fill="#AFB7BC"/>
<rect width="1.99344" height="79.7374" transform="matrix(-1 0 0 1 1102.5 497.191)" fill="#AFB7BC"/>
<rect width="1.99344" height="79.7374" transform="matrix(-1 0 0 1 1162.3 497.191)" fill="#AFB7BC"/>
<rect width="1.99344" height="79.7374" transform="matrix(-1 0 0 1 1042.69 497.191)" fill="#AFB7BC"/>
<path d="M1110.14 536.395C1110.14 535.11 1109.1 534.069 1107.81 534.069H1095.52C1094.24 534.069 1093.19 535.11 1093.19 536.395V537.723C1093.19 539.008 1094.24 540.049 1095.52 540.049H1107.81C1109.1 540.049 1110.14 539.008 1110.14 537.723V536.395Z" fill="#AFB7BC"/>
<circle cx="1200.01" cy="602.014" r="17.4426" fill="#4B5C69"/>
<ellipse cx="1200.01" cy="602.014" rx="13.4557" ry="13.4557" fill="#394A58"/>
<path d="M1234.23 614.976L1234.39 614.972C1243.7 614.972 1246.02 614.972 1249.18 611.981C1252.34 608.991 1258.15 605.503 1261.64 605.503H1273.93C1277.42 605.503 1277.12 604.273 1277.59 601.848C1279.41 592.379 1276.26 591.05 1271.94 590.054C1267.62 589.057 1246.69 587.728 1234.39 587.728C1222.1 587.728 1203.83 589.223 1195.69 590.054C1187.55 590.884 1191.04 598.692 1191.7 601.848C1192.37 605.004 1193.7 605.503 1195.69 605.503C1197.68 605.503 1202.17 605.835 1207.65 605.503C1213.13 605.171 1215.62 608.659 1219.44 611.981C1223.23 615.274 1228.16 615.14 1234.23 614.976Z" fill="#4B5C69"/>
<circle cx="1002.99" cy="602.014" r="17.4426" fill="#4B5C69"/>
<circle cx="933.887" cy="602.014" r="17.4426" fill="#4B5C69"/>
<ellipse cx="1002.99" cy="602.014" rx="13.4557" ry="13.4557" fill="#394A58"/>
<ellipse cx="933.886" cy="602.014" rx="13.4557" ry="13.4557" fill="#394A58"/>
<path d="M968.106 614.976L968.272 614.971C977.574 614.971 979.9 614.971 983.057 611.981C986.213 608.991 992.027 605.503 995.516 605.503H1007.81C1011.3 605.503 1010.99 604.273 1011.46 601.848C1013.29 592.379 1010.13 591.05 1005.81 590.054C1001.5 589.057 980.565 587.728 968.272 587.728C955.979 587.728 937.706 589.223 929.566 590.054C921.426 590.884 924.915 598.692 925.579 601.848C926.244 605.004 927.572 605.503 929.566 605.503C931.559 605.503 936.045 605.835 941.527 605.503C947.008 605.17 949.5 608.659 953.321 611.981C957.107 615.274 962.036 615.14 968.106 614.976Z" fill="#4B5C69"/>
<rect width="25.9147" height="11.6284" rx="5.81419" transform="matrix(-1 0 0 1 981.23 597.861)" fill="#394A58"/>
<path d="M1288.38 563.307H1290.88V587.727H1187.05C1182.23 587.727 1159.14 597.03 1153 597.03H1048.51C1041.53 597.03 1017.94 587.727 1013.46 587.727H912.456V563.473H914.615L916.941 572.112H1286.22L1288.38 563.307Z" fill="#87929B"/>
<path d="M917.439 592.378C916.11 593.973 915.557 598.137 915.446 600.02H912.456V595.202H910.296L908.469 600.02H900.993C899.893 600.02 899 599.127 899 598.026V587.727C899 586.626 899.893 585.734 900.993 585.734H908.469L910.296 590.385H912.456V587.561H922.257C921.205 588.502 918.768 590.784 917.439 592.378Z" fill="#394A58"/>
<path d="M894.913 485.78H516.598V584.575H894.913V485.78Z" fill="#D7DBDE"/>
<path d="M894.876 485.562C894.876 479.691 890.116 474.931 884.245 474.931H527.087C521.216 474.931 516.456 479.691 516.456 485.562H894.876Z" fill="#AFB7BC"/>
<path fill-rule="evenodd" clip-rule="evenodd" d="M821.784 499.848V575.267H824.442V499.848C824.442 498.381 823.252 497.191 821.784 497.191H591.542C590.074 497.191 588.884 498.381 588.884 499.848V576.928H591.542V499.848L821.784 499.848Z" fill="#AFB7BC"/>
<rect width="1.99344" height="79.7374" transform="matrix(-1 0 0 1 706.497 497.191)" fill="#AFB7BC"/>
<rect width="1.99344" height="79.7374" transform="matrix(-1 0 0 1 766.3 497.191)" fill="#AFB7BC"/>
<rect width="1.99344" height="79.7374" transform="matrix(-1 0 0 1 646.694 497.191)" fill="#AFB7BC"/>
<path d="M714.139 536.395C714.139 535.11 713.097 534.069 711.813 534.069H699.52C698.236 534.069 697.194 535.11 697.194 536.395V537.723C697.194 539.008 698.236 540.049 699.52 540.049H711.813C713.097 540.049 714.139 539.008 714.139 537.723V536.395Z" fill="#AFB7BC"/>
<circle cx="873.114" cy="602.014" r="17.4426" fill="#4B5C69"/>
<circle cx="804.008" cy="602.014" r="17.4426" fill="#4B5C69"/>
<ellipse cx="873.115" cy="602.014" rx="13.4557" ry="13.4557" fill="#394A58"/>
<ellipse cx="804.008" cy="602.014" rx="13.4557" ry="13.4557" fill="#394A58"/>
<path d="M838.229 614.976L838.395 614.972C847.697 614.972 850.023 614.972 853.18 611.981C856.336 608.991 862.15 605.503 865.639 605.503H877.932C881.42 605.503 881.118 604.273 881.586 601.848C883.414 592.379 880.257 591.05 875.938 590.054C871.619 589.057 850.688 587.728 838.395 587.728C826.102 587.728 807.829 589.223 799.689 590.054C791.549 590.884 795.038 598.692 795.702 601.848C796.367 605.004 797.696 605.503 799.689 605.503C801.682 605.503 806.168 605.835 811.65 605.503C817.132 605.171 819.623 608.659 823.444 611.981C827.23 615.274 832.159 615.14 838.229 614.976Z" fill="#4B5C69"/>
<rect width="25.9147" height="11.6284" rx="5.81419" transform="matrix(-1 0 0 1 851.352 597.861)" fill="#394A58"/>
<circle cx="606.992" cy="602.014" r="17.4426" fill="#4B5C69"/>
<circle cx="537.887" cy="602.014" r="17.4426" fill="#4B5C69"/>
<ellipse cx="606.992" cy="602.014" rx="13.4557" ry="13.4557" fill="#394A58"/>
<ellipse cx="537.886" cy="602.014" rx="13.4557" ry="13.4557" fill="#394A58"/>
<path d="M572.106 614.976L572.272 614.971C581.574 614.971 583.9 614.971 587.057 611.981C590.213 608.991 596.027 605.503 599.516 605.503H611.808C615.297 605.503 614.995 604.273 615.463 601.848C617.291 592.379 614.134 591.05 609.815 590.054C605.496 589.057 584.565 587.728 572.272 587.728C559.979 587.728 541.706 589.223 533.566 590.054C525.426 590.884 528.915 598.692 529.579 601.848C530.244 605.004 531.572 605.503 533.566 605.503C535.559 605.503 540.045 605.835 545.527 605.503C551.008 605.17 553.5 608.659 557.321 611.981C561.107 615.274 566.036 615.14 572.106 614.976Z" fill="#4B5C69"/>
<rect width="25.9147" height="11.6284" rx="5.81419" transform="matrix(-1 0 0 1 585.23 597.861)" fill="#394A58"/>
<path d="M892.384 563.307H894.876V587.727H791.051C786.234 587.727 763.143 597.03 756.997 597.03H652.508C645.53 597.03 621.941 587.727 617.456 587.727H516.456V563.473H518.615L520.941 572.112H890.225L892.384 563.307Z" fill="#87929B"/>
<path d="M521.439 592.378C520.11 593.973 519.557 598.137 519.446 600.02H516.456V595.202H514.296L512.469 600.02H504.993C503.893 600.02 503 599.127 503 598.026V587.727C503 586.626 503.893 585.734 504.993 585.734H512.469L514.296 590.385H516.456V587.561H526.257C525.205 588.502 522.768 590.784 521.439 592.378Z" fill="#394A58"/>
<path d="M889.726 592.378C891.055 593.973 891.609 598.137 891.72 600.02H894.71V595.202H896.87L898.697 600.02H906.172C907.273 600.02 908.166 599.127 908.166 598.026V587.727C908.166 586.626 907.273 585.734 906.172 585.734H898.697L896.87 590.385H894.71V587.561H884.909C885.961 588.502 888.397 590.784 889.726 592.378Z" fill="#394A58"/>
<rect x="120" y="569" width="103" height="88" fill="#AFB7BC"/>
<rect x="188" y="582" width="25" height="16" fill="#D7DBDE"/>
<rect x="167" y="569" width="9" height="88" fill="#D7DBDE"/>
<rect x="332" y="590" width="78.4205" height="67" fill="#AFB7BC"/>
<rect x="383.773" y="599.898" width="19.0341" height="12.1818" fill="#D7DBDE"/>
<rect x="367.784" y="590" width="6.85227" height="67" fill="#D7DBDE"/>
<rect x="228" y="598" width="99" height="59" fill="#AFB7BC"/>
<rect x="293.359" y="606.716" width="24.0291" height="10.7273" fill="#D7DBDE"/>
<rect x="273.175" y="598" width="8.65049" height="59" fill="#D7DBDE"/>
<rect x="228" y="535" width="99" height="59" fill="#AFB7BC"/>
<rect x="273.175" y="535" width="8.65049" height="59" fill="#D7DBDE"/>
</g>
</svg>
