<svg width="372" height="440" viewBox="0 0 372 440" fill="none" xmlns="http://www.w3.org/2000/svg">
<mask id="mask0_161_48375" style="mask-type:alpha" maskUnits="userSpaceOnUse" x="0" y="0" width="372" height="440">
<rect width="372" height="440" fill="#EBEDEE"/>
</mask>
<g mask="url(#mask0_161_48375)">
<rect width="373" height="306" fill="#5F6E79"/>
<rect y="81" width="371" height="4" fill="#4B5C69"/>
<rect y="32" width="371" height="4" fill="#4B5C69"/>
<rect x="1" y="129" width="371" height="4" fill="#4B5C69"/>
<rect x="1" y="177" width="371" height="4" fill="#4B5C69"/>
<rect x="1" y="225" width="371" height="4" fill="#4B5C69"/>
<rect x="1" y="273" width="371" height="4" fill="#4B5C69"/>
<rect y="67" width="371" height="4" fill="#4B5C69"/>
<rect y="19" width="371" height="4" fill="#4B5C69"/>
<rect x="1" y="115" width="371" height="4" fill="#4B5C69"/>
<rect x="1" y="163" width="371" height="4" fill="#4B5C69"/>
<rect x="1" y="211" width="371" height="4" fill="#4B5C69"/>
<rect x="1" y="260" width="371" height="4" fill="#4B5C69"/>
<path fill-rule="evenodd" clip-rule="evenodd" d="M97.5502 233.086C107.771 230.425 118.809 229 138 229V225C118.59 225 107.191 226.442 96.5424 229.215C90.4385 230.804 84.5159 232.857 77.4806 235.295C72.4459 237.04 66.8413 238.982 60.1926 241.094C51.6668 243.801 44.0824 247.18 36.5987 250.689C35.1408 251.373 33.6883 252.06 32.2339 252.749C26.1983 255.607 20.1287 258.48 13.4934 261.144C-2.88878 267.721 -22.689 273 -53 273V277C-22.1509 277 -1.84612 271.613 14.9836 264.856C21.7421 262.143 27.9452 259.206 33.9897 256.344C35.4326 255.66 36.8665 254.981 38.2968 254.311C45.7427 250.82 53.1351 247.532 61.4033 244.906C68.3303 242.706 74.0021 240.738 79.0273 238.994C85.8907 236.612 91.548 234.648 97.5502 233.086Z" fill="#4B5C69"/>
<path fill-rule="evenodd" clip-rule="evenodd" d="M48.3582 226.189C63.6457 220.434 79.5824 216 98.5 216V212C78.9176 212 62.4756 216.6 46.9489 222.445C40.9859 224.69 35.1308 227.129 29.2992 229.559C27.5585 230.284 25.8199 231.009 24.0812 231.727C16.4957 234.859 8.87166 237.887 0.893204 240.428C-4.8377 242.252 -9.94523 244.013 -14.7867 245.682C-24.2607 248.947 -32.7157 251.862 -42.829 254.219C-58.009 257.757 -76.8468 260 -108 260V264C-76.6532 264 -57.491 261.743 -41.921 258.114C-31.6136 255.712 -22.8441 252.691 -13.2418 249.383C-8.43365 247.726 -3.41668 245.998 2.1068 244.239C10.2497 241.646 17.9989 238.566 25.608 235.424C27.3729 234.695 29.1284 233.963 30.8792 233.234C36.6985 230.81 42.4665 228.406 48.3582 226.189Z" fill="#4B5C69"/>
<rect width="378.421" height="109.639" rx="4" transform="matrix(-1 0 0 1 557.421 84)" fill="#E21A1A"/>
<g style="mix-blend-mode:multiply">
<rect width="48.1747" height="90.3691" transform="matrix(-1 0 0 1 365.054 92.6387)" fill="#C3C9CD"/>
</g>
<g style="mix-blend-mode:multiply">
<rect width="47.8425" height="90.3691" transform="matrix(-1 0 0 1 304.586 92.6387)" fill="#C3C9CD"/>
</g>
<g style="mix-blend-mode:multiply">
<rect width="48.1747" height="90.3691" transform="matrix(-1 0 0 1 244.451 92.6387)" fill="#C3C9CD"/>
</g>
<circle cx="268.991" cy="210.557" r="17.4426" fill="#5F6E79"/>
<circle cx="199.886" cy="210.557" r="17.4426" fill="#5F6E79"/>
<ellipse cx="268.991" cy="210.557" rx="13.4557" ry="13.4557" fill="#394A58"/>
<ellipse cx="199.886" cy="210.557" rx="13.4557" ry="13.4557" fill="#394A58"/>
<path d="M234.105 223.519L234.271 223.515C243.574 223.515 245.9 223.515 249.056 220.524C252.212 217.534 258.027 214.046 261.515 214.046H273.808C277.297 214.046 276.994 212.816 277.463 210.391C279.29 200.922 276.134 199.593 271.814 198.597C267.495 197.6 246.564 196.271 234.271 196.271C221.979 196.271 203.705 197.766 195.566 198.597C187.426 199.427 190.914 207.235 191.579 210.391C192.243 213.547 193.572 214.046 195.566 214.046C197.559 214.046 202.044 214.378 207.526 214.046C213.008 213.714 215.5 217.202 219.321 220.524C223.107 223.817 228.035 223.683 234.105 223.519Z" fill="#5F6E79"/>
<rect width="25.9147" height="11.6284" rx="5.81419" transform="matrix(-1 0 0 1 247.229 206.404)" fill="#394A58"/>
<path d="M554.384 171.852H556.876V196.271H453.051C448.234 196.271 425.143 211.554 418.997 211.554H314.508C307.531 211.554 283.942 196.271 279.456 196.271H178.456V172.018H180.615L182.941 180.656H552.225L554.384 171.852Z" fill="#87929B"/>
<path d="M183.439 200.923C182.11 202.518 181.556 206.682 181.446 208.564H178.456V203.747H176.296L174.469 208.564H166.993C165.892 208.564 165 207.672 165 206.571V196.272C165 195.171 165.892 194.278 166.993 194.278H174.469L176.296 198.929H178.456V196.105H188.257C187.205 197.047 184.768 199.328 183.439 200.923Z" fill="#394A58"/>
<rect width="378.421" height="109.639" rx="4" transform="matrix(-1 0 0 1 161.876 85)" fill="#D7DBDE"/>
<rect width="47.5102" height="90.3691" transform="matrix(-1 0 0 1 149.915 93.6387)" fill="#C3C9CD"/>
<rect width="48.5069" height="90.3691" transform="matrix(-1 0 0 1 90.1122 93.6387)" fill="#C3C9CD"/>
<rect width="47.5102" height="90.3691" transform="matrix(-1 0 0 1 29.3116 93.6387)" fill="#C3C9CD"/>
<circle cx="140.113" cy="212.083" r="17.4426" fill="#5F6E79"/>
<circle cx="71.0078" cy="212.083" r="17.4426" fill="#5F6E79"/>
<ellipse cx="140.113" cy="212.083" rx="13.4557" ry="13.4557" fill="#394A58"/>
<ellipse cx="71.0078" cy="212.083" rx="13.4557" ry="13.4557" fill="#394A58"/>
<path d="M105.228 225.045L105.394 225.041C114.697 225.041 117.023 225.041 120.179 222.051C123.335 219.061 129.15 215.572 132.638 215.572H144.931C148.42 215.572 148.117 214.342 148.585 211.918C150.413 202.449 147.257 201.12 142.937 200.123C138.618 199.126 117.687 197.797 105.394 197.797C93.1015 197.797 74.8284 199.292 66.6885 200.123C58.5487 200.954 62.0372 208.761 62.7017 211.918C63.3661 215.074 64.6951 215.572 66.6885 215.572C68.682 215.572 73.1672 215.904 78.6491 215.572C84.1311 215.24 86.6229 218.728 90.4436 222.051C94.2299 225.343 99.1581 225.21 105.228 225.045Z" fill="#5F6E79"/>
<rect width="25.9147" height="11.6284" rx="5.81419" transform="matrix(-1 0 0 1 118.352 207.93)" fill="#394A58"/>
<path d="M159.384 173.377H161.876V197.797H58.0512C53.2337 197.797 30.1431 207.099 23.9967 207.099H-80.4926C-87.4696 207.099 -111.059 197.797 -115.544 197.797H-216.545V173.543H-214.385L-212.059 182.181H157.225L159.384 173.377Z" fill="#87929B"/>
<path d="M156.726 202.448C158.055 204.043 158.609 208.207 158.72 210.09H161.71V205.272H163.869L165.697 210.09H173.172C174.273 210.09 175.166 209.197 175.166 208.096V197.797C175.166 196.696 174.273 195.803 173.172 195.803H165.697L163.869 200.455H161.71V197.631H151.909C152.961 198.572 155.397 200.853 156.726 202.448Z" fill="#394A58"/>
<path d="M103.586 412.382C102.552 414.448 89.0567 454.462 82.438 474.21L-11.8386 473.887C2.42131 447.197 33.1042 390.298 41.757 376.221C52.573 358.625 49.5058 347.647 48.2143 339.253C46.9229 330.858 43.2099 313.101 41.757 303.576C40.3041 294.052 43.8556 286.787 46.1157 281.621C48.3758 276.456 49.8286 268.384 50.9587 262.249C52.0887 256.115 55.1559 245.945 56.6088 243.039C58.0617 240.133 61.1289 238.842 64.519 237.712C67.2311 236.808 71.0301 234.967 72.5906 234.16C73.3978 232.869 75.787 229.479 78.8865 226.25C82.7609 222.214 86.4738 222.214 88.0882 221.73C89.3796 221.342 90.4558 221.891 90.8325 222.214V243.039C89.8101 245.676 87.2164 251.724 85.0209 254.824C82.8254 257.923 79.3708 259.667 77.9179 260.151V267.092C77.9179 269.837 76.3036 274.195 75.4964 278.07C74.6893 281.944 75.6578 282.106 77.1107 283.236C78.5636 284.366 81.1466 281.783 85.0209 278.07C88.1204 275.1 92.2316 270.106 93.0926 269.191L185.432 344.58C175.154 354.912 153.21 376.899 147.657 382.194C140.715 388.813 126.509 398.499 122.796 401.243C119.083 403.987 113.11 405.763 109.882 407.862C106.653 409.96 104.877 409.799 103.586 412.382Z" fill="#D7DBDE"/>
<path d="M88.0882 221.891C87.3886 223.775 85.247 228.219 82.2766 230.931C78.1439 234.289 74.3126 234.16 72.9135 233.676C74.0435 231.739 76.9816 227.186 79.6937 224.474C82.4057 221.762 86.42 221.622 88.0882 221.891Z" fill="#EBEDEE"/>
<path d="M75.1735 284.204V280.491C76.1421 283.397 77.9179 283.72 79.5322 282.751C81.1465 281.782 82.1151 280.491 85.6666 276.939C88.5078 274.098 91.4782 271.235 92.6082 270.159L179.62 338.445L178.006 352.328C167.89 353.781 145.429 356.848 136.518 357.494C127.607 358.14 101.272 359.485 89.2181 360.077C89.3796 358.301 89.8316 353.91 90.3482 350.553C90.9939 346.355 89.7024 329.566 89.2181 324.885C88.7339 320.203 84.3752 307.127 81.6308 299.701C78.8865 292.275 75.1735 284.85 75.1735 284.204Z" fill="#C3C9CD"/>
<rect x="92.7697" y="126" width="115.909" height="223.1" rx="19" fill="#4B5C69"/>
<rect x="95.6755" y="129.229" width="109.451" height="216.642" rx="18" fill="white"/>
<path d="M180 332.935C181.104 332.935 182 332.04 182 330.935V320.936C182 319.831 181.104 318.936 180 318.936C160.667 318.937 141.333 318.936 122 318.936C120.895 318.936 120 319.831 120 320.936L120 330.936C120 332.04 120.895 332.936 122 332.936C141.333 332.935 160.667 332.934 180 332.935Z" fill="#E21A1A"/>
<path d="M160.545 326.977H140.019C139.749 326.975 139.49 326.867 139.299 326.676C139.108 326.484 139.001 326.225 139 325.955C139.001 325.685 139.109 325.426 139.3 325.235C139.491 325.045 139.749 324.937 140.019 324.936H160.545C160.815 324.937 161.073 325.045 161.264 325.235C161.455 325.426 161.563 325.685 161.564 325.955C161.563 326.225 161.456 326.484 161.265 326.676C161.074 326.867 160.815 326.975 160.545 326.977Z" fill="#EBEDEE"/>
<path d="M202 153V230C202 231.105 201.105 232 200 232H100C98.8954 232 98 231.105 98 230V153C98 151.895 98.8954 151 100 151H200C201.105 151 202 151.895 202 153Z" fill="#D7DBDE"/>
<path d="M202.176 260V239C202.176 237.895 201.28 237 200.176 237H100.176C99.0712 237 98.1758 237.895 98.1758 239V260C98.1758 261.105 99.0712 262 100.176 262H200.176C201.28 262 202.176 261.105 202.176 260Z" fill="#D7DBDE"/>
<path d="M126.515 241.808H108.212C107.575 241.808 107.059 242.324 107.059 242.961V243.513C107.059 244.15 107.575 244.666 108.212 244.666H126.515C127.152 244.666 127.668 244.15 127.668 243.513V242.961C127.668 242.324 127.152 241.808 126.515 241.808Z" fill="#9BA4AB"/>
<path d="M126.736 251.982H107.989C107.74 251.982 107.501 251.883 107.324 251.707C107.148 251.531 107.049 251.292 107.049 251.043C107.049 250.794 107.148 250.555 107.324 250.379C107.501 250.202 107.74 250.104 107.989 250.104H126.736C126.985 250.104 127.224 250.202 127.4 250.379C127.576 250.555 127.675 250.794 127.675 251.043C127.675 251.292 127.576 251.531 127.4 251.707C127.224 251.883 126.985 251.982 126.736 251.982Z" fill="#9BA4AB"/>
<path d="M118.438 254.527H107.773C107.378 254.527 107.059 254.847 107.059 255.241V255.676C107.059 256.07 107.378 256.39 107.773 256.39H118.438C118.832 256.39 119.152 256.07 119.152 255.676V255.241C119.152 254.847 118.832 254.527 118.438 254.527Z" fill="#9BA4AB"/>
<path d="M140.175 254.527H122.941C122.446 254.527 122.046 254.928 122.046 255.422V255.495C122.046 255.989 122.446 256.39 122.941 256.39H140.175C140.669 256.39 141.07 255.989 141.07 255.495V255.422C141.07 254.928 140.669 254.527 140.175 254.527Z" fill="#9BA4AB"/>
<path d="M156.287 251.982H131.696C131.447 251.982 131.208 251.883 131.032 251.707C130.856 251.531 130.757 251.292 130.757 251.043C130.757 250.794 130.856 250.555 131.032 250.379C131.208 250.202 131.447 250.104 131.696 250.104H156.287C156.536 250.104 156.775 250.202 156.952 250.379C157.128 250.555 157.227 250.794 157.227 251.043C157.227 251.292 157.128 251.531 156.952 251.707C156.775 251.883 156.536 251.982 156.287 251.982Z" fill="#9BA4AB"/>
<path d="M144.354 241.808H131.21C130.664 241.808 130.221 242.25 130.221 242.796V243.677C130.221 244.223 130.664 244.666 131.21 244.666H144.354C144.9 244.666 145.342 244.223 145.342 243.677V242.796C145.342 242.25 144.9 241.808 144.354 241.808Z" fill="#9BA4AB"/>
<path fill-rule="evenodd" clip-rule="evenodd" d="M110.516 171.626L111.484 171.375L114.955 184.764L123.46 194.769L126.427 207.627L138.091 212H148.897L159.397 207.5H182.302L190.802 199.5H196.5V200.5H191.198L182.698 208.5H159.603L149.103 213H137.909L125.573 208.374L122.54 195.232L114.045 185.237L110.516 171.626Z" fill="#E21A1A"/>
<circle cx="111.5" cy="170.5" r="2.5" fill="#E21A1A"/>
<circle cx="197.5" cy="199.5" r="2.5" fill="#E21A1A"/>
<circle cx="183" cy="207" r="2" fill="#E21A1A"/>
<circle cx="190" cy="201" r="2" fill="#E21A1A"/>
<circle cx="126" cy="208" r="2" fill="#E21A1A"/>
<circle cx="150" cy="212" r="2" fill="#E21A1A"/>
<circle cx="115" cy="186" r="2" fill="#E21A1A"/>
<path fill-rule="evenodd" clip-rule="evenodd" d="M132.014 152.385L132.987 152.615L128.551 171.344L143.275 186.068L138 189.76V196.342L141.324 201.091L146.387 203.116L149.954 212.287L155 221.37V229.586L165.094 230.509L164.907 231.491L154 230.414V221.63L149.046 212.713L145.613 203.884L140.676 201.909L137 196.658V189.24L141.725 185.932L127.449 171.656L132.014 152.385Z" fill="#AFB7BC"/>
<path fill-rule="evenodd" clip-rule="evenodd" d="M183.555 184.235L192.518 151.866L193.482 152.133L184.445 184.765L170.515 198.18L162.128 190.779L154.848 203.397L120.429 217.57L106.788 207.465L97.8915 205.488L98.1085 204.512L107.212 206.535L120.571 216.43L154.152 202.602L161.872 189.221L170.485 196.82L183.555 184.235Z" fill="#AFB7BC"/>
<path d="M203.176 266.936C204.28 266.936 205.176 267.831 205.176 268.936V308.935C205.176 310.04 204.28 310.935 203.176 310.935C168.509 310.931 133.842 310.935 99.1758 310.936C98.0712 310.936 97.1758 310.04 97.1758 308.936L97.1758 268.936C97.1758 267.831 98.0712 266.936 99.1758 266.936C133.842 266.936 168.509 266.94 203.176 266.936Z" fill="#D7DBDE"/>
<path d="M155.476 275.382H135.439C134.741 275.382 134.175 275.948 134.175 276.645V277.247C134.175 277.945 134.741 278.51 135.439 278.51H155.476C156.174 278.51 156.739 277.945 156.739 277.247V276.645C156.739 275.948 156.174 275.382 155.476 275.382Z" fill="#9BA4AB"/>
<path d="M155.717 286.529H135.192C134.922 286.528 134.663 286.419 134.472 286.228C134.281 286.037 134.173 285.778 134.173 285.507C134.174 285.237 134.282 284.979 134.473 284.788C134.664 284.597 134.922 284.489 135.192 284.488H155.717C155.987 284.489 156.246 284.597 156.437 284.788C156.628 284.979 156.736 285.237 156.737 285.507C156.736 285.778 156.629 286.037 156.438 286.228C156.247 286.419 155.988 286.528 155.717 286.529Z" fill="#9BA4AB"/>
<path d="M146.63 289.31H134.955C134.523 289.31 134.173 289.66 134.173 290.092V290.568C134.173 291 134.523 291.351 134.955 291.351H146.63C147.062 291.351 147.412 291 147.412 290.568V290.092C147.412 289.66 147.062 289.31 146.63 289.31Z" fill="#9BA4AB"/>
<path d="M170.43 289.31H151.56C151.02 289.31 150.581 289.748 150.581 290.289V290.369C150.581 290.91 151.02 291.348 151.56 291.348H170.43C170.971 291.348 171.409 290.91 171.409 290.369V290.289C171.409 289.748 170.971 289.31 170.43 289.31Z" fill="#9BA4AB"/>
<path d="M188.059 286.529H161.148C160.877 286.528 160.618 286.419 160.428 286.228C160.237 286.037 160.129 285.778 160.128 285.507C160.13 285.237 160.237 284.979 160.428 284.788C160.619 284.597 160.878 284.489 161.148 284.488H188.059C188.329 284.489 188.588 284.597 188.779 284.788C188.969 284.979 189.077 285.237 189.078 285.507C189.078 285.778 188.97 286.037 188.779 286.228C188.588 286.419 188.329 286.528 188.059 286.529Z" fill="#9BA4AB"/>
<path d="M155.717 296.174H135.192C134.922 296.174 134.663 296.066 134.472 295.875C134.281 295.684 134.173 295.425 134.173 295.155C134.173 294.885 134.281 294.626 134.472 294.435C134.663 294.244 134.922 294.136 135.192 294.136H155.717C155.988 294.136 156.247 294.244 156.438 294.435C156.629 294.626 156.736 294.885 156.737 295.155C156.736 295.425 156.629 295.684 156.438 295.875C156.247 296.066 155.988 296.174 155.717 296.174Z" fill="#9BA4AB"/>
<path d="M188.059 296.174H161.148C160.878 296.174 160.619 296.066 160.428 295.875C160.237 295.684 160.129 295.425 160.128 295.155C160.129 294.885 160.237 294.626 160.428 294.435C160.619 294.244 160.878 294.136 161.148 294.136H188.059C188.329 294.136 188.588 294.244 188.779 294.435C188.97 294.626 189.078 294.885 189.078 295.155C189.078 295.425 188.97 295.684 188.779 295.875C188.588 296.066 188.329 296.174 188.059 296.174Z" fill="#9BA4AB"/>
<path d="M155.717 301.201H135.192C134.922 301.2 134.663 301.093 134.472 300.902C134.281 300.711 134.173 300.452 134.173 300.181C134.173 299.911 134.281 299.652 134.472 299.461C134.663 299.27 134.922 299.163 135.192 299.162H155.717C155.988 299.163 156.247 299.27 156.438 299.461C156.629 299.652 156.736 299.911 156.737 300.181C156.736 300.452 156.629 300.711 156.438 300.902C156.247 301.093 155.988 301.2 155.717 301.201Z" fill="#9BA4AB"/>
<path d="M188.059 301.201H161.148C160.878 301.2 160.619 301.093 160.428 300.902C160.237 300.711 160.129 300.452 160.128 300.181C160.129 299.911 160.237 299.652 160.428 299.461C160.619 299.27 160.878 299.163 161.148 299.162H188.059C188.329 299.163 188.588 299.27 188.779 299.461C188.97 299.652 189.078 299.911 189.078 300.181C189.078 300.452 188.97 300.711 188.779 300.902C188.588 301.093 188.329 301.2 188.059 301.201Z" fill="#9BA4AB"/>
<path d="M175.007 275.382H160.617C160.019 275.382 159.534 275.867 159.534 276.465V277.428C159.534 278.026 160.019 278.51 160.617 278.51H175.007C175.605 278.51 176.09 278.026 176.09 277.428V276.465C176.09 275.867 175.605 275.382 175.007 275.382Z" fill="#9BA4AB"/>
<path d="M107 288C107 282.477 111.477 278 117 278C122.523 278 127 282.477 127 288C127 293.523 122.523 298 117 298C111.477 298 107 293.523 107 288Z" fill="#E21A1A"/>
<path d="M96 145.936C96 136.547 103.611 128.936 113 128.936H188C197.389 128.936 205 136.547 205 145.936H96Z" fill="#E21A1A"/>
<rect x="106" y="135.936" width="4" height="4" rx="2" fill="#EBEDEE"/>
<rect x="116" y="135.936" width="36" height="4" rx="2" fill="#EBEDEE"/>
<rect x="183" y="135.936" width="11" height="4" rx="2" fill="#EBEDEE"/>
<path d="M208.678 193.802V221.084C211.315 219.523 217.847 215.531 222.884 212.044C229.18 207.685 232.57 204.295 237.252 199.613C241.933 194.932 240.48 190.25 237.252 186.537C234.023 182.824 228.05 183.954 222.884 185.892C218.751 187.441 211.692 191.811 208.678 193.802Z" fill="#AFB7BC"/>
<path d="M221.27 252.886C219.849 255.34 218.095 256.922 217.395 257.406C216.911 257.406 215.587 257.503 214.167 257.89C212.746 258.278 211.207 259.558 210.615 260.15H209.324C207.871 259.612 204.804 259.02 203.351 257.406C202.033 255.941 199.992 254.458 199.476 248.527C199.154 244.814 201.683 238.195 203.028 236.581C202.866 237.065 201.64 239.648 201.252 240.94C200.768 242.554 200.606 244.653 200.768 247.074C200.929 249.496 201.898 250.141 203.028 253.209L203.04 253.241C204.162 256.288 204.813 258.053 207.387 258.536C209.97 259.02 210.615 257.89 213.521 256.437C216.427 254.984 217.88 253.693 219.817 251.917C221.367 250.497 223.53 246.482 224.176 244.653C223.799 246.375 222.69 250.432 221.27 252.886Z" fill="#AFB7BC"/>
<path d="M219.494 316.974C217.04 319.686 211.369 323.593 208.84 325.207V322.14C206.741 323.001 202.834 325.143 199.477 324.884C195.279 324.562 191.082 320.849 189.952 316.329C189.048 312.712 193.073 307.504 195.118 306.32C194.257 307.288 192.374 309.71 191.728 311.647C190.921 314.068 191.405 314.068 193.019 317.62C194.311 320.461 197.432 322.463 198.831 323.109C199.746 323.162 201.963 323.141 203.512 322.624C205.062 322.108 207.71 320.795 208.84 320.203C210.669 318.965 215.265 315.844 219.01 313.261C222.324 310.976 223.523 309.365 223.792 308.651C223.814 308.569 223.835 308.492 223.853 308.418C223.847 308.48 223.827 308.558 223.792 308.651C223.295 310.489 221.844 314.378 219.494 316.974Z" fill="#AFB7BC"/>
<path d="M219.979 284.365C216.879 288.11 211.261 291.845 208.84 293.244V289.208C208.086 289.315 206.289 290.241 204.481 290.499C202.221 290.822 198.024 289.531 195.118 284.365C193.302 281.136 194.634 275.002 195.764 273.549L195.757 273.568C195.431 274.491 194.733 276.468 195.118 278.392C195.602 280.813 196.409 281.943 197.539 283.558C198.669 285.172 198.992 285.979 202.382 287.432C205.772 288.885 208.355 287.916 215.781 282.751C221.722 278.618 225.037 273.818 225.952 271.935C225.252 274.517 223.078 280.62 219.979 284.365Z" fill="#AFB7BC"/>
<path d="M209.97 319.396C200.122 325.692 198.185 323.27 193.988 319.396C188.499 312.616 192.858 308.257 196.409 305.19C199.961 302.122 209.97 294.697 215.62 293.244C221.27 291.791 224.014 299.862 224.337 305.19C224.66 310.517 219.817 313.1 209.97 319.396Z" fill="#D7DBDE"/>
<path d="M215.62 282.912C206.902 290.338 203.028 289.369 198.024 285.011C188.176 273.093 203.997 264.509 209.97 260.312C215.943 256.114 219.171 256.114 224.337 263.702C229.503 271.289 224.337 275.486 215.62 282.912Z" fill="#D7DBDE"/>
<path d="M211.584 257.729C206.257 261.119 201.898 255.146 200.768 248.043C199.477 233.837 211.584 227.541 215.62 228.671C219.656 229.801 225.79 233.998 224.337 243.2C222.884 252.401 216.911 254.339 211.584 257.729Z" fill="#D7DBDE"/>
<path d="M200.929 305.997C203.512 304.545 206.741 304.867 208.355 307.45C211.584 313.746 204.804 317.459 203.028 318.751C201.252 320.042 200.929 316.006 199.799 314.392C198.669 312.778 197.701 311.97 196.571 311.325C195.441 310.679 194.472 309.872 195.441 309.388C196.409 308.903 198.346 307.45 200.929 305.997Z" fill="#EBEDEE"/>
<path d="M209.97 282.267C206.58 285.334 207.064 283.235 207.064 282.267C207.064 278.203 201.898 274.841 199.799 274.195C197.701 273.549 197.539 273.065 198.347 272.258C199.154 271.451 200.929 269.837 203.351 268.384C205.772 266.931 211.1 264.509 214.49 269.837C217.858 275.13 213.417 279.149 210.034 282.209L209.97 282.267Z" fill="#EBEDEE"/>
<path d="M219.817 240.617C222.4 247.075 217.073 251.272 214.813 252.725C212.714 254.321 215.297 248.85 212.553 245.299C210.646 242.832 209.162 241.424 207.064 240.617C204.965 239.81 206.095 238.357 208.355 237.389C210.615 236.42 217.234 234.16 219.817 240.617Z" fill="#EBEDEE"/>
<path d="M30.6182 414.964C16.1538 444.538 5.32709 466.245 1.72176 473.402V473.887H-12C4.08944 444.452 37.6243 383.194 43.0485 373.637C49.8286 361.691 49.9901 354.104 49.3443 347.162C48.8278 341.609 46.4386 328.705 45.3085 322.947C47.6224 331.665 52.573 350.972 53.8645 358.462C55.4788 367.825 48.6986 377.996 30.6182 414.964Z" fill="#C3C9CD"/>
<path d="M90.0253 413.189C90.5096 411.736 81.308 407.862 72.2677 400.759C69.0391 398.351 58.546 390.104 60.3217 392.848C62.0975 395.593 70.3306 403.503 76.3036 406.893C82.2766 410.283 89.541 414.642 90.0253 413.189Z" fill="#C3C9CD"/>
</g>
</svg>
