<svg width="372" height="440" viewBox="0 0 372 440" fill="none" xmlns="http://www.w3.org/2000/svg">
<mask id="mask0_161_48505" style="mask-type:alpha" maskUnits="userSpaceOnUse" x="0" y="0" width="372" height="440">
<rect width="372" height="440" fill="#EBEDEE"/>
</mask>
<g mask="url(#mask0_161_48505)">
<rect y="104" width="372" height="336" fill="#5F6E79"/>
<rect width="372" height="104" transform="matrix(1 0 0 -1 0 104)" fill="#EBEDEE"/>
<rect y="193" width="371" height="3" fill="#4B5C69"/>
<rect y="158" width="371" height="2" fill="#4B5C69"/>
<rect y="123" width="371" height="3" fill="#4B5C69"/>
<rect y="227" width="372" height="3" fill="#4B5C69"/>
<rect y="262" width="372" height="3" fill="#4B5C69"/>
<rect y="297" width="372" height="3" fill="#4B5C69"/>
<rect y="331" width="372" height="3" fill="#4B5C69"/>
<rect y="183" width="371" height="3" fill="#4B5C69"/>
<rect y="148" width="371" height="3" fill="#4B5C69"/>
<rect y="114" width="371" height="2" fill="#4B5C69"/>
<rect x="1" y="217" width="371" height="3" fill="#4B5C69"/>
<rect x="1" y="252" width="371" height="3" fill="#4B5C69"/>
<rect x="1" y="287" width="371" height="2" fill="#4B5C69"/>
<rect x="1" y="322" width="371" height="3" fill="#4B5C69"/>
<circle cx="343.396" cy="287.255" r="12.5732" fill="#5F6E79"/>
<circle cx="293.581" cy="287.255" r="12.5732" fill="#5F6E79"/>
<ellipse cx="343.395" cy="287.254" rx="9.69931" ry="9.69931" fill="#394A58"/>
<ellipse cx="293.582" cy="287.254" rx="9.69931" ry="9.69931" fill="#394A58"/>
<path d="M318.248 296.598L318.368 296.595C325.074 296.595 326.75 296.595 329.026 294.439C331.301 292.284 335.492 289.769 338.006 289.769H346.867C349.382 289.769 349.164 288.883 349.502 287.135C350.819 280.31 348.544 279.352 345.43 278.633C342.317 277.915 327.229 276.957 318.368 276.957C309.507 276.957 296.335 278.034 290.468 278.633C284.6 279.232 287.115 284.86 287.594 287.135C288.073 289.41 289.031 289.769 290.468 289.769C291.905 289.769 295.138 290.009 299.089 289.769C303.041 289.53 304.837 292.045 307.591 294.439C310.32 296.813 313.873 296.717 318.248 296.598Z" fill="#5F6E79"/>
<rect width="18.6802" height="8.38212" rx="4.19106" transform="matrix(-1 0 0 1 327.708 284.261)" fill="#394A58"/>
<circle cx="151.565" cy="287.255" r="12.5732" fill="#5F6E79"/>
<circle cx="101.751" cy="287.255" r="12.5732" fill="#5F6E79"/>
<ellipse cx="151.565" cy="287.254" rx="9.69931" ry="9.69931" fill="#394A58"/>
<ellipse cx="101.751" cy="287.254" rx="9.69931" ry="9.69931" fill="#394A58"/>
<path d="M126.418 296.598L126.537 296.595C133.243 296.595 134.92 296.595 137.195 294.439C139.47 292.284 143.661 289.769 146.176 289.769H155.037C157.551 289.769 157.334 288.883 157.671 287.135C158.989 280.31 156.713 279.352 153.6 278.633C150.486 277.915 135.399 276.957 126.537 276.957C117.676 276.957 104.505 278.034 98.637 278.633C92.7695 279.232 95.2842 284.86 95.7632 287.135C96.2421 289.41 97.2001 289.769 98.637 289.769C100.074 289.769 103.307 290.009 107.259 289.769C111.21 289.53 113.006 292.045 115.76 294.439C118.49 296.813 122.042 296.717 126.418 296.598Z" fill="#5F6E79"/>
<rect width="18.6802" height="8.38212" rx="4.19106" transform="matrix(-1 0 0 1 135.878 284.262)" fill="#394A58"/>
<path d="M357.286 259.355H359.082V276.958H284.241C280.769 276.958 264.124 287.974 259.694 287.974H184.374C179.345 287.974 162.341 276.958 159.108 276.958H86.3036V259.475H87.8603L89.5367 265.702H355.729L357.286 259.355Z" fill="#87929B"/>
<path d="M89.8959 280.31C88.938 281.46 88.5388 284.461 88.459 285.819H86.3036V282.346H84.7469L83.4297 285.819H78.0412C77.2476 285.819 76.6043 285.175 76.6043 284.382V276.957C76.6043 276.164 77.2476 275.521 78.0412 275.521H83.4297L84.7469 278.873H86.3036V276.838H93.3685C92.6101 277.516 90.8539 279.161 89.8959 280.31Z" fill="#394A58"/>
<path d="M355.37 280.31C356.328 281.46 356.727 284.461 356.807 285.819H358.962V282.346H360.519L361.836 285.819H367.224C368.018 285.819 368.661 285.175 368.661 284.382V276.957C368.661 276.164 368.018 275.521 367.224 275.521H361.836L360.519 278.873H358.962V276.838H351.897C352.655 277.516 354.412 279.161 355.37 280.31Z" fill="#394A58"/>
<rect x="90.7325" y="221.665" width="49.4972" height="42.2889" fill="#AFB7BC"/>
<rect x="123.41" y="227.912" width="12.0139" height="7.68889" fill="#D7DBDE"/>
<rect x="113.319" y="221.666" width="4.325" height="42.2889" fill="#D7DBDE"/>
<rect x="192.61" y="231.757" width="37.6854" height="32.1972" fill="#AFB7BC"/>
<rect x="217.49" y="236.513" width="9.14694" height="5.85404" fill="#D7DBDE"/>
<rect x="209.806" y="231.757" width="3.2929" height="32.1972" fill="#D7DBDE"/>
<rect x="192.61" y="197.157" width="37.6854" height="32.1972" fill="#AFB7BC"/>
<rect x="217.49" y="201.913" width="9.14694" height="5.85404" fill="#D7DBDE"/>
<rect x="209.806" y="197.157" width="3.2929" height="32.1972" fill="#D7DBDE"/>
<rect x="142.632" y="235.6" width="47.575" height="28.3528" fill="#AFB7BC"/>
<rect x="174.041" y="239.789" width="11.5473" height="5.15505" fill="#D7DBDE"/>
<rect x="164.341" y="235.6" width="4.15704" height="28.3528" fill="#D7DBDE"/>
<rect x="332.932" y="235.12" width="21.9133" height="28.8333" fill="#AFB7BC"/>
<rect x="341.275" y="239.788" width="11.5473" height="5.15505" fill="#D7DBDE"/>
<rect x="142.632" y="205.133" width="47.575" height="28.3528" fill="#AFB7BC"/>
<rect x="164.341" y="205.133" width="4.15704" height="28.3528" fill="#D7DBDE"/>
<rect x="282.186" y="221.664" width="49.4972" height="42.2889" fill="#AFB7BC"/>
<rect x="314.864" y="227.911" width="12.0139" height="7.68889" fill="#D7DBDE"/>
<rect x="304.772" y="221.664" width="4.325" height="42.2889" fill="#D7DBDE"/>
<rect x="232.592" y="235.599" width="47.575" height="28.3528" fill="#AFB7BC"/>
<rect x="264.001" y="239.788" width="11.5473" height="5.15505" fill="#D7DBDE"/>
<rect x="254.301" y="235.599" width="4.15704" height="28.3528" fill="#D7DBDE"/>
<rect x="232.592" y="205.133" width="47.575" height="28.3528" fill="#AFB7BC"/>
<rect x="254.301" y="205.133" width="4.15704" height="28.3528" fill="#D7DBDE"/>
<g filter="url(#filter0_d_161_48505)">
<rect width="272.778" height="79.0314" rx="4" transform="matrix(-1 0 0 1 74.3524 196.772)" fill="#D7DBDE"/>
<rect width="34.2469" height="65.1411" transform="matrix(-1 0 0 1 65.7306 202.999)" fill="#C3C9CD"/>
<rect width="34.9654" height="65.1411" transform="matrix(-1 0 0 1 22.6227 202.999)" fill="#C3C9CD"/>
<circle cx="58.6652" cy="288.381" r="12.5732" fill="#5F6E79"/>
<circle cx="8.85162" cy="288.381" r="12.5732" fill="#5F6E79"/>
<ellipse cx="58.6653" cy="288.379" rx="9.69931" ry="9.69931" fill="#394A58"/>
<ellipse cx="8.85165" cy="288.379" rx="9.69931" ry="9.69931" fill="#394A58"/>
<path d="M33.5189 297.724L33.6387 297.721C40.3443 297.721 42.0209 297.721 44.296 295.565C46.5712 293.41 50.7622 290.895 53.2769 290.895H62.138C64.6526 290.895 64.4348 290.009 64.7722 288.261C66.0899 281.435 63.8143 280.477 60.7009 279.759C57.5876 279.04 42.4998 278.083 33.6387 278.083C24.7776 278.083 11.6057 279.16 5.73819 279.759C-0.129295 280.358 2.38534 285.986 2.86432 288.261C3.3433 290.536 4.30125 290.895 5.73819 290.895C7.17512 290.895 10.4082 291.135 14.3598 290.895C18.3114 290.656 20.1075 293.17 22.8617 295.565C25.5909 297.938 29.1433 297.842 33.5189 297.724Z" fill="#5F6E79"/>
<rect width="18.6802" height="8.38212" rx="4.19106" transform="matrix(-1 0 0 1 42.9789 285.386)" fill="#394A58"/>
<path d="M72.5562 260.479H74.3524V278.081H-0.48793C-3.96053 278.081 -20.605 284.787 -25.0356 284.787H-100.355C-105.384 284.787 -122.388 278.081 -125.621 278.081H-198.426V260.599H-196.869L-195.193 266.825H70.9996L72.5562 260.479Z" fill="#87929B"/>
<path d="M70.6404 281.433C71.5983 282.582 71.9975 285.584 72.0773 286.941H74.2327V283.469H75.7894L77.1066 286.941H82.4951C83.2887 286.941 83.932 286.298 83.932 285.504V278.08C83.932 277.286 83.2887 276.643 82.4951 276.643H77.1066L75.7894 279.996H74.2327V277.96H67.1678C67.9262 278.639 69.6824 280.283 70.6404 281.433Z" fill="#394A58"/>
</g>
<path d="M113.979 183.436V175.367V174.502H213.976L211.238 178.537V183.436C211.238 186.318 208.933 188.047 206.915 188.047H169.308C167.579 188.047 165.85 187.038 165.85 184.877V180.554H157.637V184.445C157.637 186.462 156.485 188.047 154.035 188.047C151.586 188.047 122.336 188.191 119.598 188.047C116.86 187.903 113.979 185.021 113.979 183.436Z" fill="#394A58"/>
<path d="M309.794 183.436V175.367V174.502H409.792L407.054 178.537V183.436C407.054 186.318 404.749 188.047 402.731 188.047H365.124C363.395 188.047 361.666 187.038 361.666 184.877V180.554H353.453V184.445C353.453 186.462 352.3 188.047 349.851 188.047C347.401 188.047 318.152 188.191 315.414 188.047C312.676 187.903 309.794 185.021 309.794 183.436Z" fill="#394A58"/>
<path d="M222.477 174.502H232.563V179.834C232.563 182.619 230.305 184.877 227.52 184.877C224.735 184.877 222.477 182.619 222.477 179.834V174.502Z" fill="#394A58"/>
<path d="M287.605 174.502H297.691V179.834C297.691 182.619 295.433 184.877 292.648 184.877C289.863 184.877 287.605 182.619 287.605 179.834V174.502Z" fill="#394A58"/>
<ellipse cx="137.033" cy="179.546" rx="15.1293" ry="15.1293" fill="#4B5C69"/>
<ellipse cx="332.849" cy="179.546" rx="15.1293" ry="15.1293" fill="#4B5C69"/>
<ellipse cx="192.362" cy="179.546" rx="15.1293" ry="15.1293" fill="#4B5C69"/>
<ellipse cx="137.033" cy="179.546" rx="11.6711" ry="11.6711" fill="#394A58"/>
<ellipse cx="332.848" cy="179.546" rx="11.6711" ry="11.6711" fill="#394A58"/>
<ellipse cx="192.363" cy="179.546" rx="11.6711" ry="11.6711" fill="#394A58"/>
<rect x="236.886" y="174.502" width="46.6845" height="11.8152" fill="#394A58"/>
<path d="M424.2 174.503H108.071L97.9847 190.496H90.6362L95.6793 181.419V174.503L88.9072 161.967V135.311L99.7138 94.1015L114.411 89.4907H144.813L155.476 99.0005H214.12L223.341 89.4907H299.564L308.497 99.2887H430.54V156.059H428.811V160.094H424.2V174.503Z" fill="#87929B"/>
<path d="M430.54 143.38H201.584C198.99 143.38 197.538 144.677 193.659 150.44C190.459 155.195 187.896 156.636 183.285 156.636H88.9072V149.72H183.573C186.611 149.72 191.186 143.53 196.249 136.68C197.429 135.083 198.635 133.451 199.855 131.853C201.559 129.62 203.069 127.61 204.424 125.807C212.425 115.158 215.038 111.681 220.46 111.681H430.54V143.38Z" fill="#D7DBDE"/>
<path d="M430.54 111.681H220.46C215.038 111.681 212.425 115.158 204.424 125.807C203.069 127.611 201.559 129.62 199.855 131.853C198.635 133.452 197.429 135.084 196.249 136.68C191.186 143.53 186.611 149.72 183.573 149.72H88.9072V135.312L96.1617 107.647C150.755 107.66 205.347 107.797 259.94 107.935C316.807 108.078 373.673 108.222 430.54 108.223V111.681Z" fill="#E21A1A"/>
<path d="M93.6621 177.351H95.6794V174.901H92.5094V172.74C92.5094 171.587 91.3567 171.395 90.7804 171.443H83.8641V172.74L82.2792 174.181V177.351L83.8641 178.359V180.665H90.7804L93.6621 177.351Z" fill="#394A58"/>
<rect x="241.208" y="89.4907" width="40.6328" height="22.1896" fill="#73808A"/>
<path d="M93.3739 156.923H88.9072V162.543L95.9675 174.646L93.3739 156.923Z" fill="#E21A1A"/>
<rect x="162.392" y="92.9487" width="33.1403" height="3.16994" rx="1.58497" fill="#E21A1A"/>
<path d="M201.44 72.6331C200.749 72.9789 180.692 85.9372 170.749 92.3732H176.225L206.051 72.6331C204.802 72.489 202.132 72.2873 201.44 72.6331Z" fill="#E21A1A"/>
<rect x="166.139" y="96.1189" width="3.74629" height="2.88176" fill="#87929B"/>
<rect x="189.769" y="96.1189" width="3.74629" height="2.88176" fill="#87929B"/>
<path d="M160.519 54.6219L202.304 72.4888H206.195L207.348 69.1748L171.614 54.6219V52.8928H169.452V54.6219L202.304 69.8952H201.008L163.113 54.6219V52.8928H160.519V54.6219Z" fill="#D7DBDE"/>
<rect x="162.392" y="52.8931" width="7.49258" height="0.864529" fill="#D7DBDE"/>
<rect x="160.519" y="117.445" width="10.3743" height="16.1379" rx="5.18717" fill="#4B5C69"/>
<rect x="160.519" y="158.078" width="10.3743" height="2.59359" rx="1.29679" fill="#73808A"/>
<rect x="160.519" y="164.129" width="10.3743" height="2.59359" rx="1.29679" fill="#73808A"/>
<path fill-rule="evenodd" clip-rule="evenodd" d="M170.029 114.851H161.672C159.921 114.851 158.502 116.27 158.502 118.021V152.314C158.502 154.065 159.921 155.484 161.672 155.484H170.029C171.779 155.484 173.199 154.065 173.199 152.314V118.021C173.199 116.27 171.779 114.851 170.029 114.851ZM161.672 114.563C159.762 114.563 158.213 116.111 158.213 118.021V152.314C158.213 154.224 159.762 155.772 161.672 155.772H170.029C171.939 155.772 173.487 154.224 173.487 152.314V118.021C173.487 116.111 171.939 114.563 170.029 114.563H161.672Z" fill="#9BA4AB"/>
<rect x="155.043" y="124.362" width="1.1527" height="41.7856" rx="0.576352" fill="#73808A"/>
<rect x="175.504" y="124.362" width="1.1527" height="41.7856" rx="0.576352" fill="#73808A"/>
<rect x="168.876" y="135.311" width="3.45811" height="1.15271" rx="0.576353" fill="#73808A"/>
<path d="M98.9932 131.853L97.1201 129.548L105.189 112.978H124.209V131.853H98.9932Z" fill="#4B5C69"/>
<path d="M112.826 131.853V118.165L115.563 112.978H124.209V131.853H112.826Z" fill="#394A58"/>
<path d="M319.056 122.152V122.665H323.531C323.829 122.665 324.279 122.665 324.571 122.96C324.869 123.254 324.869 123.692 324.869 123.993V128.407C324.869 128.702 324.869 129.146 324.571 129.434C324.273 129.729 323.823 129.729 323.531 129.729H321.37C320.996 129.729 320.514 129.729 320.324 129.322C320.14 128.921 320.4 128.551 320.622 128.257L323.531 124.431H319.056L317.269 126.786C316.971 127.18 316.711 127.524 316.711 127.963C316.711 128.407 316.952 128.727 317.269 129.14L317.719 129.729C318.162 130.317 318.612 130.906 319.208 131.2C319.804 131.494 320.514 131.494 321.484 131.494H323.423C324.539 131.494 326.219 131.494 327.334 130.392C328.45 129.284 328.45 127.668 328.45 127.08V125.314C328.45 124.725 328.45 123.104 327.334 122.001C326.219 120.899 324.539 120.899 323.423 120.899H320.33C320.032 120.899 319.658 120.899 319.36 121.194C319.056 121.488 319.056 121.857 319.056 122.152Z" fill="#E21A1A"/>
<path d="M313.694 124.438H318.163L312.8 131.502H308.325L313.694 124.438Z" fill="#E21A1A"/>
<path d="M296.25 125.684C296.25 125.39 296.25 125.02 296.548 124.726C296.846 124.432 297.22 124.432 297.518 124.432H305.01C305.98 124.432 306.69 124.432 307.286 124.726C307.882 125.02 308.332 125.609 308.782 126.197L309.225 126.786C309.542 127.206 309.783 127.525 309.783 127.963C309.783 128.408 309.523 128.746 309.225 129.141L307.438 131.495H302.963L305.872 127.663C306.094 127.368 306.36 126.999 306.17 126.592C305.98 126.185 305.498 126.185 305.124 126.185H301.625V135.02H298.05V126.197H296.263V125.684" fill="#E21A1A"/>
<rect x="29" y="274" width="186" height="135" rx="9" fill="#394A58"/>
<rect x="34" y="280" width="176" height="119" rx="4" fill="#D7DBDE"/>
<rect x="40" y="287" width="164" height="8" fill="#E21A1A"/>
<rect x="40" y="307" width="48" height="43" fill="#C3C9CD"/>
<rect x="43" y="311" width="42" height="20" fill="#9BA4AB"/>
<rect x="43" y="336" width="19" height="3" rx="1.5" fill="#9BA4AB"/>
<rect x="43" y="341" width="12" height="3" rx="1.5" fill="#9BA4AB"/>
<rect x="57" y="341" width="12" height="3" rx="1.5" fill="#9BA4AB"/>
<rect x="63" y="336" width="11" height="3" rx="1.5" fill="#9BA4AB"/>
<rect x="98" y="307" width="48" height="43" fill="#C3C9CD"/>
<rect x="101" y="311" width="42" height="20" fill="#9BA4AB"/>
<rect x="101" y="336" width="19" height="3" rx="1.5" fill="#9BA4AB"/>
<rect x="101" y="341" width="12" height="3" rx="1.5" fill="#9BA4AB"/>
<rect x="115" y="341" width="12" height="3" rx="1.5" fill="#9BA4AB"/>
<rect x="121" y="336" width="11" height="3" rx="1.5" fill="#9BA4AB"/>
<rect x="156" y="307" width="48" height="43" fill="#C3C9CD"/>
<rect x="159" y="311" width="42" height="20" fill="#9BA4AB"/>
<rect x="159" y="336" width="19" height="3" rx="1.5" fill="#9BA4AB"/>
<rect x="159" y="341" width="12" height="3" rx="1.5" fill="#9BA4AB"/>
<rect x="173" y="341" width="12" height="3" rx="1.5" fill="#9BA4AB"/>
<rect x="179" y="336" width="11" height="3" rx="1.5" fill="#9BA4AB"/>
<rect x="43" y="289" width="16" height="4" rx="1" fill="#D7DBDE"/>
<rect x="193" y="289" width="6" height="4" rx="1" fill="#D7DBDE"/>
<rect x="183" y="289" width="6" height="4" rx="1" fill="#D7DBDE"/>
<rect x="173" y="289" width="6" height="4" rx="1" fill="#D7DBDE"/>
</g>
<defs>
<filter id="filter0_d_161_48505" x="-226.125" y="174.772" width="328.057" height="140.182" filterUnits="userSpaceOnUse" color-interpolation-filters="sRGB">
<feFlood flood-opacity="0" result="BackgroundImageFix"/>
<feColorMatrix in="SourceAlpha" type="matrix" values="0 0 0 0 0 0 0 0 0 0 0 0 0 0 0 0 0 0 127 0" result="hardAlpha"/>
<feOffset dy="-4"/>
<feGaussianBlur stdDeviation="9"/>
<feComposite in2="hardAlpha" operator="out"/>
<feColorMatrix type="matrix" values="0 0 0 0 0.223529 0 0 0 0 0.290196 0 0 0 0 0.345098 0 0 0 0.2 0"/>
<feBlend mode="normal" in2="BackgroundImageFix" result="effect1_dropShadow_161_48505"/>
<feBlend mode="normal" in="SourceGraphic" in2="effect1_dropShadow_161_48505" result="shape"/>
</filter>
</defs>
</svg>
